<svg width="1017" height="225"><g transform="translate(322,40)"><rect class="bar" x="126.30331753554502" width="23.69668246445498" y="0" height="15" style="fill: rgb(255, 102, 102); stroke: grey; stroke-width: 0.3;"></rect><rect class="bar" x="137.30129058033964" width="12.69870941966036" y="15" height="15" style="fill: rgb(255, 102, 102); stroke: grey; stroke-width: 0.3;"></rect><rect class="bar" x="132.72184438638234" width="17.278155613617656" y="30" height="15" style="fill: rgb(255, 102, 102); stroke: grey; stroke-width: 0.3;"></rect><rect class="bar" x="137.49472103608466" width="12.505278963915345" y="45" height="15" style="fill: rgb(255, 102, 102); stroke: grey; stroke-width: 0.3;"></rect><rect class="bar" x="135.24924758708963" width="14.750752412910373" y="60" height="15" style="fill: rgb(255, 102, 102); stroke: grey; stroke-width: 0.3;"></rect><rect class="bar" x="140.79299872172967" width="9.207001278270326" y="75" height="15" style="fill: rgb(255, 102, 102); stroke: grey; stroke-width: 0.3;"></rect><rect class="bar" x="141.7358788962566" width="8.264121103743406" y="90" height="15" style="fill: rgb(255, 102, 102); stroke: grey; stroke-width: 0.3;"></rect><g class="x axis" transform="translate(0,105)"><g class="tick" transform="translate(137.36966824644549,0)" style="opacity: 1;"><line y2="6" x2="0" style="fill: none; stroke: grey;"></line><text dy=".71em" y="9" x="0" font-weight="normal" transform="translate(-10,3)rotate(-65)" style="text-anchor: end; font-size: 11px; font-family: sans-serif;">0.01</text></g><g class="tick" transform="translate(124.739336492891,0)" style="opacity: 1;"><line y2="6" x2="0" style="fill: none; stroke: grey;"></line><text dy=".71em" y="9" x="0" font-weight="normal" transform="translate(-10,3)rotate(-65)" style="text-anchor: end; font-size: 11px; font-family: sans-serif;">0.02</text></g><g class="tick" transform="translate(112.1090047393365,0)" style="opacity: 1;"><line y2="6" x2="0" style="fill: none; stroke: grey;"></line><text dy=".71em" y="9" x="0" font-weight="normal" transform="translate(-10,3)rotate(-65)" style="text-anchor: end; font-size: 11px; font-family: sans-serif;">0.03</text></g><g class="tick" transform="translate(99.478672985782,0)" style="opacity: 1;"><line y2="6" x2="0" style="fill: none; stroke: grey;"></line><text dy=".71em" y="9" x="0" font-weight="normal" transform="translate(-10,3)rotate(-65)" style="text-anchor: end; font-size: 11px; font-family: sans-serif;">0.04</text></g><g class="tick" transform="translate(86.84834123222748,0)" style="opacity: 1;"><line y2="6" x2="0" style="fill: none; stroke: grey;"></line><text dy=".71em" y="9" x="0" font-weight="normal" transform="translate(-10,3)rotate(-65)" style="text-anchor: end; font-size: 11px; font-family: sans-serif;">0.05</text></g><g class="tick" transform="translate(74.218009478673,0)" style="opacity: 1;"><line y2="6" x2="0" style="fill: none; stroke: grey;"></line><text dy=".71em" y="9" x="0" font-weight="normal" transform="translate(-10,3)rotate(-65)" style="text-anchor: end; font-size: 11px; font-family: sans-serif;">0.06</text></g><g class="tick" transform="translate(61.58767772511848,0)" style="opacity: 1;"><line y2="6" x2="0" style="fill: none; stroke: grey;"></line><text dy=".71em" y="9" x="0" font-weight="normal" transform="translate(-10,3)rotate(-65)" style="text-anchor: end; font-size: 11px; font-family: sans-serif;">0.07</text></g><g class="tick" transform="translate(48.95734597156398,0)" style="opacity: 1;"><line y2="6" x2="0" style="fill: none; stroke: grey;"></line><text dy=".71em" y="9" x="0" font-weight="normal" transform="translate(-10,3)rotate(-65)" style="text-anchor: end; font-size: 11px; font-family: sans-serif;">0.08</text></g><g class="tick" transform="translate(36.327014218009495,0)" style="opacity: 1;"><line y2="6" x2="0" style="fill: none; stroke: grey;"></line><text dy=".71em" y="9" x="0" font-weight="normal" transform="translate(-10,3)rotate(-65)" style="text-anchor: end; font-size: 11px; font-family: sans-serif;">0.09</text></g><g class="tick" transform="translate(23.696682464454977,0)" style="opacity: 1;"><line y2="6" x2="0" style="fill: none; stroke: grey;"></line><text dy=".71em" y="9" x="0" font-weight="normal" transform="translate(-10,3)rotate(-65)" style="text-anchor: end; font-size: 11px; font-family: sans-serif;">0.10</text></g><g class="tick" transform="translate(11.066350710900483,0)" style="opacity: 1;"><line y2="6" x2="0" style="fill: none; stroke: grey;"></line><text dy=".71em" y="9" x="0" font-weight="normal" transform="translate(-10,3)rotate(-65)" style="text-anchor: end; font-size: 11px; font-family: sans-serif;">0.11</text></g><path class="domain" d="M0,6V0H150V6" style="fill: none; stroke: grey;"></path></g><rect class="bar" x="150" width="150" y="0" height="15" style="fill: rgb(77, 77, 255); stroke: grey; stroke-width: 0.3;"></rect><rect class="bar" x="150" width="129.8188842550777" y="15" height="15" style="fill: rgb(77, 77, 255); stroke: grey; stroke-width: 0.3;"></rect><rect class="bar" x="150" width="121.50260778531054" y="30" height="15" style="fill: rgb(77, 77, 255); stroke: grey; stroke-width: 0.3;"></rect><rect class="bar" x="150" width="65.68466596191439" y="45" height="15" style="fill: rgb(77, 77, 255); stroke: grey; stroke-width: 0.3;"></rect><rect class="bar" x="150" width="65.68466596191439" y="60" height="15" style="fill: rgb(77, 77, 255); stroke: grey; stroke-width: 0.3;"></rect><rect class="bar" x="150" width="61.40887217852429" y="75" height="15" style="fill: rgb(77, 77, 255); stroke: grey; stroke-width: 0.3;"></rect><rect class="bar" x="150" width="61.40887217852429" y="90" height="15" style="fill: rgb(77, 77, 255); stroke: grey; stroke-width: 0.3;"></rect><g class="x axis" transform="translate(0,105)"><g class="tick" transform="translate(150,0)" style="opacity: 1;"><line y2="6" x2="0" style="fill: none; stroke: grey;"></line><text dy=".71em" y="9" x="0" font-weight="normal" transform="translate(-10,3)rotate(-65)" style="text-anchor: end; font-size: 11px; font-family: sans-serif;">0.0</text></g><g class="tick" transform="translate(167.6810816473675,0)" style="opacity: 1;"><line y2="6" x2="0" style="fill: none; stroke: grey;"></line><text dy=".71em" y="9" x="0" font-weight="normal" transform="translate(-10,3)rotate(-65)" style="text-anchor: end; font-size: 11px; font-family: sans-serif;">0.5</text></g><g class="tick" transform="translate(185.36216329473496,0)" style="opacity: 1;"><line y2="6" x2="0" style="fill: none; stroke: grey;"></line><text dy=".71em" y="9" x="0" font-weight="normal" transform="translate(-10,3)rotate(-65)" style="text-anchor: end; font-size: 11px; font-family: sans-serif;">1.0</text></g><g class="tick" transform="translate(203.0432449421025,0)" style="opacity: 1;"><line y2="6" x2="0" style="fill: none; stroke: grey;"></line><text dy=".71em" y="9" x="0" font-weight="normal" transform="translate(-10,3)rotate(-65)" style="text-anchor: end; font-size: 11px; font-family: sans-serif;">1.5</text></g><g class="tick" transform="translate(220.72432658946994,0)" style="opacity: 1;"><line y2="6" x2="0" style="fill: none; stroke: grey;"></line><text dy=".71em" y="9" x="0" font-weight="normal" transform="translate(-10,3)rotate(-65)" style="text-anchor: end; font-size: 11px; font-family: sans-serif;">2.0</text></g><g class="tick" transform="translate(238.40540823683745,0)" style="opacity: 1;"><line y2="6" x2="0" style="fill: none; stroke: grey;"></line><text dy=".71em" y="9" x="0" font-weight="normal" transform="translate(-10,3)rotate(-65)" style="text-anchor: end; font-size: 11px; font-family: sans-serif;">2.5</text></g><g class="tick" transform="translate(256.086489884205,0)" style="opacity: 1;"><line y2="6" x2="0" style="fill: none; stroke: grey;"></line><text dy=".71em" y="9" x="0" font-weight="normal" transform="translate(-10,3)rotate(-65)" style="text-anchor: end; font-size: 11px; font-family: sans-serif;">3.0</text></g><g class="tick" transform="translate(273.76757153157246,0)" style="opacity: 1;"><line y2="6" x2="0" style="fill: none; stroke: grey;"></line><text dy=".71em" y="9" x="0" font-weight="normal" transform="translate(-10,3)rotate(-65)" style="text-anchor: end; font-size: 11px; font-family: sans-serif;">3.5</text></g><g class="tick" transform="translate(291.4486531789399,0)" style="opacity: 1;"><line y2="6" x2="0" style="fill: none; stroke: grey;"></line><text dy=".71em" y="9" x="0" font-weight="normal" transform="translate(-10,3)rotate(-65)" style="text-anchor: end; font-size: 11px; font-family: sans-serif;">4.0</text></g><path class="domain" d="M150,6V0H300V6" style="fill: none; stroke: grey;"></path></g><g class="y axis"><g class="tick" transform="translate(0,7.5)" style="opacity: 1;"><line x2="-6" y2="0" style="fill: none; stroke: grey;"></line><text dy=".32em" x="-9" y="0" style="text-anchor: end; font-size: 11px; font-family: sans-serif;">GO_MICROTUBULE_CYTOSKELETON_ORGANIZATION</text></g><g class="tick" transform="translate(0,22.5)" style="opacity: 1;"><line x2="-6" y2="0" style="fill: none; stroke: grey;"></line><text dy=".32em" x="-9" y="0" style="text-anchor: end; font-size: 11px; font-family: sans-serif;">GO_CYTOSKELETON_ORGANIZATION</text></g><g class="tick" transform="translate(0,37.5)" style="opacity: 1;"><line x2="-6" y2="0" style="fill: none; stroke: grey;"></line><text dy=".32em" x="-9" y="0" style="text-anchor: end; font-size: 11px; font-family: sans-serif;">GO_MICROTUBULE_BASED_PROCESS</text></g><g class="tick" transform="translate(0,52.5)" style="opacity: 1;"><line x2="-6" y2="0" style="fill: none; stroke: grey;"></line><text dy=".32em" x="-9" y="0" style="text-anchor: end; font-size: 11px; font-family: sans-serif;">GO_REGULATION_OF_CELLULAR_COMPONENT_BIOGENESIS</text></g><g class="tick" transform="translate(0,67.5)" style="opacity: 1;"><line x2="-6" y2="0" style="fill: none; stroke: grey;"></line><text dy=".32em" x="-9" y="0" style="text-anchor: end; font-size: 11px; font-family: sans-serif;">GO_ORGANELLE_LOCALIZATION</text></g><g class="tick" transform="translate(0,82.5)" style="opacity: 1;"><line x2="-6" y2="0" style="fill: none; stroke: grey;"></line><text dy=".32em" x="-9" y="0" style="text-anchor: end; font-size: 11px; font-family: sans-serif;">GO_CELL_PROJECTION_ORGANIZATION</text></g><g class="tick" transform="translate(0,97.5)" style="opacity: 1;"><line x2="-6" y2="0" style="fill: none; stroke: grey;"></line><text dy=".32em" x="-9" y="0" style="text-anchor: end; font-size: 11px; font-family: sans-serif;">GO_CELL_CYCLE</text></g><path class="domain" d="M-6,0H0V105H-6" style="fill: none; stroke: grey;"></path></g><rect x="310" y="0" width="15" height="15" style="fill: rgb(255, 166, 74); stroke: grey; stroke-width: 0.3;"></rect><rect x="325" y="0" width="15" height="15" style="fill: rgb(255, 166, 74); stroke: grey; stroke-width: 0.3;"></rect><rect x="340" y="0" width="15" height="15" style="fill: rgb(255, 166, 74); stroke: grey; stroke-width: 0.3;"></rect><rect x="355" y="0" width="15" height="15" style="fill: rgb(255, 166, 74); stroke: grey; stroke-width: 0.3;"></rect><rect x="370" y="0" width="15" height="15" style="fill: rgb(255, 166, 74); stroke: grey; stroke-width: 0.3;"></rect><rect x="385" y="0" width="15" height="15" style="fill: rgb(255, 166, 74); stroke: grey; stroke-width: 0.3;"></rect><rect x="385" y="0" width="15" height="15" style="fill: rgb(255, 166, 74); stroke: grey; stroke-width: 0.3;"></rect><rect x="400" y="0" width="15" height="15" style="fill: rgb(255, 166, 74); stroke: grey; stroke-width: 0.3;"></rect><rect x="415" y="0" width="15" height="15" style="fill: rgb(255, 166, 74); stroke: grey; stroke-width: 0.3;"></rect><rect x="430" y="0" width="15" height="15" style="fill: rgb(255, 166, 74); stroke: grey; stroke-width: 0.3;"></rect><rect x="445" y="0" width="15" height="15" style="fill: rgb(255, 166, 74); stroke: grey; stroke-width: 0.3;"></rect><rect x="310" y="15" width="15" height="15" style="fill: rgb(255, 166, 74); stroke: grey; stroke-width: 0.3;"></rect><rect x="325" y="15" width="15" height="15" style="fill: rgb(255, 166, 74); stroke: grey; stroke-width: 0.3;"></rect><rect x="340" y="15" width="15" height="15" style="fill: rgb(255, 166, 74); stroke: grey; stroke-width: 0.3;"></rect><rect x="460" y="15" width="15" height="15" style="fill: rgb(255, 166, 74); stroke: grey; stroke-width: 0.3;"></rect><rect x="355" y="15" width="15" height="15" style="fill: rgb(255, 166, 74); stroke: grey; stroke-width: 0.3;"></rect><rect x="475" y="15" width="15" height="15" style="fill: rgb(255, 166, 74); stroke: grey; stroke-width: 0.3;"></rect><rect x="370" y="15" width="15" height="15" style="fill: rgb(255, 166, 74); stroke: grey; stroke-width: 0.3;"></rect><rect x="385" y="15" width="15" height="15" style="fill: rgb(255, 166, 74); stroke: grey; stroke-width: 0.3;"></rect><rect x="385" y="15" width="15" height="15" style="fill: rgb(255, 166, 74); stroke: grey; stroke-width: 0.3;"></rect><rect x="400" y="15" width="15" height="15" style="fill: rgb(255, 166, 74); stroke: grey; stroke-width: 0.3;"></rect><rect x="415" y="15" width="15" height="15" style="fill: rgb(255, 166, 74); stroke: grey; stroke-width: 0.3;"></rect><rect x="430" y="15" width="15" height="15" style="fill: rgb(255, 166, 74); stroke: grey; stroke-width: 0.3;"></rect><rect x="445" y="15" width="15" height="15" style="fill: rgb(255, 166, 74); stroke: grey; stroke-width: 0.3;"></rect><rect x="490" y="15" width="15" height="15" style="fill: rgb(255, 166, 74); stroke: grey; stroke-width: 0.3;"></rect><rect x="310" y="30" width="15" height="15" style="fill: rgb(255, 166, 74); stroke: grey; stroke-width: 0.3;"></rect><rect x="325" y="30" width="15" height="15" style="fill: rgb(255, 166, 74); stroke: grey; stroke-width: 0.3;"></rect><rect x="340" y="30" width="15" height="15" style="fill: rgb(255, 166, 74); stroke: grey; stroke-width: 0.3;"></rect><rect x="355" y="30" width="15" height="15" style="fill: rgb(255, 166, 74); stroke: grey; stroke-width: 0.3;"></rect><rect x="370" y="30" width="15" height="15" style="fill: rgb(255, 166, 74); stroke: grey; stroke-width: 0.3;"></rect><rect x="385" y="30" width="15" height="15" style="fill: rgb(255, 166, 74); stroke: grey; stroke-width: 0.3;"></rect><rect x="385" y="30" width="15" height="15" style="fill: rgb(255, 166, 74); stroke: grey; stroke-width: 0.3;"></rect><rect x="400" y="30" width="15" height="15" style="fill: rgb(255, 166, 74); stroke: grey; stroke-width: 0.3;"></rect><rect x="415" y="30" width="15" height="15" style="fill: rgb(255, 166, 74); stroke: grey; stroke-width: 0.3;"></rect><rect x="430" y="30" width="15" height="15" style="fill: rgb(255, 166, 74); stroke: grey; stroke-width: 0.3;"></rect><rect x="445" y="30" width="15" height="15" style="fill: rgb(255, 166, 74); stroke: grey; stroke-width: 0.3;"></rect><rect x="505" y="45" width="15" height="15" style="fill: rgb(255, 166, 74); stroke: grey; stroke-width: 0.3;"></rect><rect x="355" y="45" width="15" height="15" style="fill: rgb(255, 166, 74); stroke: grey; stroke-width: 0.3;"></rect><rect x="475" y="45" width="15" height="15" style="fill: rgb(255, 166, 74); stroke: grey; stroke-width: 0.3;"></rect><rect x="370" y="45" width="15" height="15" style="fill: rgb(255, 166, 74); stroke: grey; stroke-width: 0.3;"></rect><rect x="520" y="45" width="15" height="15" style="fill: rgb(255, 166, 74); stroke: grey; stroke-width: 0.3;"></rect><rect x="415" y="45" width="15" height="15" style="fill: rgb(255, 166, 74); stroke: grey; stroke-width: 0.3;"></rect><rect x="535" y="45" width="15" height="15" style="fill: rgb(255, 166, 74); stroke: grey; stroke-width: 0.3;"></rect><rect x="550" y="45" width="15" height="15" style="fill: rgb(255, 166, 74); stroke: grey; stroke-width: 0.3;"></rect><rect x="445" y="45" width="15" height="15" style="fill: rgb(255, 166, 74); stroke: grey; stroke-width: 0.3;"></rect><rect x="325" y="60" width="15" height="15" style="fill: rgb(255, 166, 74); stroke: grey; stroke-width: 0.3;"></rect><rect x="355" y="60" width="15" height="15" style="fill: rgb(255, 166, 74); stroke: grey; stroke-width: 0.3;"></rect><rect x="370" y="60" width="15" height="15" style="fill: rgb(255, 166, 74); stroke: grey; stroke-width: 0.3;"></rect><rect x="520" y="60" width="15" height="15" style="fill: rgb(255, 166, 74); stroke: grey; stroke-width: 0.3;"></rect><rect x="565" y="60" width="15" height="15" style="fill: rgb(255, 166, 74); stroke: grey; stroke-width: 0.3;"></rect><rect x="415" y="60" width="15" height="15" style="fill: rgb(255, 166, 74); stroke: grey; stroke-width: 0.3;"></rect><rect x="580" y="60" width="15" height="15" style="fill: rgb(255, 166, 74); stroke: grey; stroke-width: 0.3;"></rect><rect x="550" y="60" width="15" height="15" style="fill: rgb(255, 166, 74); stroke: grey; stroke-width: 0.3;"></rect><rect x="325" y="75" width="15" height="15" style="fill: rgb(255, 166, 74); stroke: grey; stroke-width: 0.3;"></rect><rect x="475" y="75" width="15" height="15" style="fill: rgb(255, 166, 74); stroke: grey; stroke-width: 0.3;"></rect><rect x="385" y="75" width="15" height="15" style="fill: rgb(255, 166, 74); stroke: grey; stroke-width: 0.3;"></rect><rect x="385" y="75" width="15" height="15" style="fill: rgb(255, 166, 74); stroke: grey; stroke-width: 0.3;"></rect><rect x="520" y="75" width="15" height="15" style="fill: rgb(255, 166, 74); stroke: grey; stroke-width: 0.3;"></rect><rect x="400" y="75" width="15" height="15" style="fill: rgb(255, 166, 74); stroke: grey; stroke-width: 0.3;"></rect><rect x="415" y="75" width="15" height="15" style="fill: rgb(255, 166, 74); stroke: grey; stroke-width: 0.3;"></rect><rect x="595" y="75" width="15" height="15" style="fill: rgb(255, 166, 74); stroke: grey; stroke-width: 0.3;"></rect><rect x="610" y="75" width="15" height="15" style="fill: rgb(255, 166, 74); stroke: grey; stroke-width: 0.3;"></rect><rect x="625" y="75" width="15" height="15" style="fill: rgb(255, 166, 74); stroke: grey; stroke-width: 0.3;"></rect><rect x="445" y="75" width="15" height="15" style="fill: rgb(255, 166, 74); stroke: grey; stroke-width: 0.3;"></rect><rect x="490" y="75" width="15" height="15" style="fill: rgb(255, 166, 74); stroke: grey; stroke-width: 0.3;"></rect><rect x="310" y="90" width="15" height="15" style="fill: rgb(255, 166, 74); stroke: grey; stroke-width: 0.3;"></rect><rect x="325" y="90" width="15" height="15" style="fill: rgb(255, 166, 74); stroke: grey; stroke-width: 0.3;"></rect><rect x="340" y="90" width="15" height="15" style="fill: rgb(255, 166, 74); stroke: grey; stroke-width: 0.3;"></rect><rect x="505" y="90" width="15" height="15" style="fill: rgb(255, 166, 74); stroke: grey; stroke-width: 0.3;"></rect><rect x="355" y="90" width="15" height="15" style="fill: rgb(255, 166, 74); stroke: grey; stroke-width: 0.3;"></rect><rect x="475" y="90" width="15" height="15" style="fill: rgb(255, 166, 74); stroke: grey; stroke-width: 0.3;"></rect><rect x="640" y="90" width="15" height="15" style="fill: rgb(255, 166, 74); stroke: grey; stroke-width: 0.3;"></rect><rect x="370" y="90" width="15" height="15" style="fill: rgb(255, 166, 74); stroke: grey; stroke-width: 0.3;"></rect><rect x="385" y="90" width="15" height="15" style="fill: rgb(255, 166, 74); stroke: grey; stroke-width: 0.3;"></rect><rect x="385" y="90" width="15" height="15" style="fill: rgb(255, 166, 74); stroke: grey; stroke-width: 0.3;"></rect><rect x="655" y="90" width="15" height="15" style="fill: rgb(255, 166, 74); stroke: grey; stroke-width: 0.3;"></rect><rect x="430" y="90" width="15" height="15" style="fill: rgb(255, 166, 74); stroke: grey; stroke-width: 0.3;"></rect><rect x="670" y="90" width="15" height="15" style="fill: rgb(255, 166, 74); stroke: grey; stroke-width: 0.3;"></rect><g class="y axis" transform="translate(310,0)"><g class="tick" transform="translate(0,7.5)" style="opacity: 1;"><line x2="-6" y2="0" style="fill: none; stroke: grey;"></line></g><g class="tick" transform="translate(0,22.5)" style="opacity: 1;"><line x2="-6" y2="0" style="fill: none; stroke: grey;"></line></g><g class="tick" transform="translate(0,37.5)" style="opacity: 1;"><line x2="-6" y2="0" style="fill: none; stroke: grey;"></line></g><g class="tick" transform="translate(0,52.5)" style="opacity: 1;"><line x2="-6" y2="0" style="fill: none; stroke: grey;"></line></g><g class="tick" transform="translate(0,67.5)" style="opacity: 1;"><line x2="-6" y2="0" style="fill: none; stroke: grey;"></line></g><g class="tick" transform="translate(0,82.5)" style="opacity: 1;"><line x2="-6" y2="0" style="fill: none; stroke: grey;"></line></g><g class="tick" transform="translate(0,97.5)" style="opacity: 1;"><line x2="-6" y2="0" style="fill: none; stroke: grey;"></line></g><path class="domain" d="M-6,0H0V105H-6" style="fill: none; stroke: grey;"></path></g><g class="x axis" transform="translate(0,105)"><g class="tick" transform="translate(317.5,0)" style="opacity: 1;"><line y2="6" x2="0" style="fill: none; stroke: grey;"></line><text dy=".71em" y="9" x="0" font-weight="normal" transform="translate(-10,3)rotate(-65)" style="text-anchor: end; font-size: 11px; font-family: sans-serif;">TUBA1B</text></g><g class="tick" transform="translate(332.5,0)" style="opacity: 1;"><line y2="6" x2="0" style="fill: none; stroke: grey;"></line><text dy=".71em" y="9" x="0" font-weight="normal" transform="translate(-10,3)rotate(-65)" style="text-anchor: end; font-size: 11px; font-family: sans-serif;">TUBA1A</text></g><g class="tick" transform="translate(347.5,0)" style="opacity: 1;"><line y2="6" x2="0" style="fill: none; stroke: grey;"></line><text dy=".71em" y="9" x="0" font-weight="normal" transform="translate(-10,3)rotate(-65)" style="text-anchor: end; font-size: 11px; font-family: sans-serif;">TUBA1C</text></g><g class="tick" transform="translate(362.5,0)" style="opacity: 1;"><line y2="6" x2="0" style="fill: none; stroke: grey;"></line><text dy=".71em" y="9" x="0" font-weight="normal" transform="translate(-10,3)rotate(-65)" style="text-anchor: end; font-size: 11px; font-family: sans-serif;">CHMP1A</text></g><g class="tick" transform="translate(377.5,0)" style="opacity: 1;"><line y2="6" x2="0" style="fill: none; stroke: grey;"></line><text dy=".71em" y="9" x="0" font-weight="normal" transform="translate(-10,3)rotate(-65)" style="text-anchor: end; font-size: 11px; font-family: sans-serif;">SPIRE2</text></g><g class="tick" transform="translate(392.5,0)" style="opacity: 1;"><line y2="6" x2="0" style="fill: none; stroke: grey;"></line><text dy=".71em" y="9" x="0" font-weight="normal" transform="translate(-10,3)rotate(-65)" style="text-anchor: end; font-size: 11px; font-family: sans-serif;">TUBB3</text></g><g class="tick" transform="translate(407.5,0)" style="opacity: 1;"><line y2="6" x2="0" style="fill: none; stroke: grey;"></line><text dy=".71em" y="9" x="0" font-weight="normal" transform="translate(-10,3)rotate(-65)" style="text-anchor: end; font-size: 11px; font-family: sans-serif;">GAS8</text></g><g class="tick" transform="translate(422.5,0)" style="opacity: 1;"><line y2="6" x2="0" style="fill: none; stroke: grey;"></line><text dy=".71em" y="9" x="0" font-weight="normal" transform="translate(-10,3)rotate(-65)" style="text-anchor: end; font-size: 11px; font-family: sans-serif;">MAPT</text></g><g class="tick" transform="translate(437.5,0)" style="opacity: 1;"><line y2="6" x2="0" style="fill: none; stroke: grey;"></line><text dy=".71em" y="9" x="0" font-weight="normal" transform="translate(-10,3)rotate(-65)" style="text-anchor: end; font-size: 11px; font-family: sans-serif;">MAPRE3</text></g><g class="tick" transform="translate(452.5,0)" style="opacity: 1;"><line y2="6" x2="0" style="fill: none; stroke: grey;"></line><text dy=".71em" y="9" x="0" font-weight="normal" transform="translate(-10,3)rotate(-65)" style="text-anchor: end; font-size: 11px; font-family: sans-serif;">EPHA3</text></g><g class="tick" transform="translate(467.5,0)" style="opacity: 1;"><line y2="6" x2="0" style="fill: none; stroke: grey;"></line><text dy=".71em" y="9" x="0" font-weight="normal" transform="translate(-10,3)rotate(-65)" style="text-anchor: end; font-size: 11px; font-family: sans-serif;">DAAM1</text></g><g class="tick" transform="translate(482.5,0)" style="opacity: 1;"><line y2="6" x2="0" style="fill: none; stroke: grey;"></line><text dy=".71em" y="9" x="0" font-weight="normal" transform="translate(-10,3)rotate(-65)" style="text-anchor: end; font-size: 11px; font-family: sans-serif;">CDK10</text></g><g class="tick" transform="translate(497.5,0)" style="opacity: 1;"><line y2="6" x2="0" style="fill: none; stroke: grey;"></line><text dy=".71em" y="9" x="0" font-weight="normal" transform="translate(-10,3)rotate(-65)" style="text-anchor: end; font-size: 11px; font-family: sans-serif;">DPYSL2</text></g><g class="tick" transform="translate(512.5,0)" style="opacity: 1;"><line y2="6" x2="0" style="fill: none; stroke: grey;"></line><text dy=".71em" y="9" x="0" font-weight="normal" transform="translate(-10,3)rotate(-65)" style="text-anchor: end; font-size: 11px; font-family: sans-serif;">DACT1</text></g><g class="tick" transform="translate(527.5,0)" style="opacity: 1;"><line y2="6" x2="0" style="fill: none; stroke: grey;"></line><text dy=".71em" y="9" x="0" font-weight="normal" transform="translate(-10,3)rotate(-65)" style="text-anchor: end; font-size: 11px; font-family: sans-serif;">DEF8</text></g><g class="tick" transform="translate(542.5,0)" style="opacity: 1;"><line y2="6" x2="0" style="fill: none; stroke: grey;"></line><text dy=".71em" y="9" x="0" font-weight="normal" transform="translate(-10,3)rotate(-65)" style="text-anchor: end; font-size: 11px; font-family: sans-serif;">EMILIN1</text></g><g class="tick" transform="translate(557.5,0)" style="opacity: 1;"><line y2="6" x2="0" style="fill: none; stroke: grey;"></line><text dy=".71em" y="9" x="0" font-weight="normal" transform="translate(-10,3)rotate(-65)" style="text-anchor: end; font-size: 11px; font-family: sans-serif;">PREB</text></g><g class="tick" transform="translate(572.5,0)" style="opacity: 1;"><line y2="6" x2="0" style="fill: none; stroke: grey;"></line><text dy=".71em" y="9" x="0" font-weight="normal" transform="translate(-10,3)rotate(-65)" style="text-anchor: end; font-size: 11px; font-family: sans-serif;">CRHR1</text></g><g class="tick" transform="translate(587.5,0)" style="opacity: 1;"><line y2="6" x2="0" style="fill: none; stroke: grey;"></line><text dy=".71em" y="9" x="0" font-weight="normal" transform="translate(-10,3)rotate(-65)" style="text-anchor: end; font-size: 11px; font-family: sans-serif;">NSF</text></g><g class="tick" transform="translate(602.5,0)" style="opacity: 1;"><line y2="6" x2="0" style="fill: none; stroke: grey;"></line><text dy=".71em" y="9" x="0" font-weight="normal" transform="translate(-10,3)rotate(-65)" style="text-anchor: end; font-size: 11px; font-family: sans-serif;">WNT3</text></g><g class="tick" transform="translate(617.5,0)" style="opacity: 1;"><line y2="6" x2="0" style="fill: none; stroke: grey;"></line><text dy=".71em" y="9" x="0" font-weight="normal" transform="translate(-10,3)rotate(-65)" style="text-anchor: end; font-size: 11px; font-family: sans-serif;">DPYSL5</text></g><g class="tick" transform="translate(632.5,0)" style="opacity: 1;"><line y2="6" x2="0" style="fill: none; stroke: grey;"></line><text dy=".71em" y="9" x="0" font-weight="normal" transform="translate(-10,3)rotate(-65)" style="text-anchor: end; font-size: 11px; font-family: sans-serif;">STRN</text></g><g class="tick" transform="translate(647.5,0)" style="opacity: 1;"><line y2="6" x2="0" style="fill: none; stroke: grey;"></line><text dy=".71em" y="9" x="0" font-weight="normal" transform="translate(-10,3)rotate(-65)" style="text-anchor: end; font-size: 11px; font-family: sans-serif;">FANCA</text></g><g class="tick" transform="translate(662.5,0)" style="opacity: 1;"><line y2="6" x2="0" style="fill: none; stroke: grey;"></line><text dy=".71em" y="9" x="0" font-weight="normal" transform="translate(-10,3)rotate(-65)" style="text-anchor: end; font-size: 11px; font-family: sans-serif;">PRDM7</text></g><g class="tick" transform="translate(677.5,0)" style="opacity: 1;"><line y2="6" x2="0" style="fill: none; stroke: grey;"></line><text dy=".71em" y="9" x="0" font-weight="normal" transform="translate(-10,3)rotate(-65)" style="text-anchor: end; font-size: 11px; font-family: sans-serif;">CGREF1</text></g><path class="domain" d="M310,6V0H685V6" style="fill: none; stroke: grey;"></path></g><text text-anchor="middle" transform="translate(75,150)" font-size="12px" style="font-family: sans-serif;">Proportion</text><text text-anchor="middle" transform="translate(75,-26)" font-size="12px" style="font-family: sans-serif;">Proportion of overlapping</text><text text-anchor="middle" transform="translate(75,-14)" font-size="12px" style="font-family: sans-serif;">genes in gene sets</text><text text-anchor="middle" transform="translate(225,150)" font-size="12px" style="font-family: sans-serif;">-log10 adjusted P-value</text><text text-anchor="middle" transform="translate(225,-20)" font-size="12px" style="font-family: sans-serif;">Enrichment P-value</text><text text-anchor="middle" transform="translate(497.5,-20)" font-size="12px" style="font-family: sans-serif;">overlapping genes</text></g></svg>