<svg width="852" height="255"><g transform="translate(217,40)"><rect class="bar" x="129.61672473867597" width="20.38327526132403" y="0" height="15" style="fill: rgb(255, 102, 102); stroke: grey; stroke-width: 0.3;"></rect><rect class="bar" x="139.673713796896" width="10.32628620310399" y="15" height="15" style="fill: rgb(255, 102, 102); stroke: grey; stroke-width: 0.3;"></rect><rect class="bar" x="142.63488189662687" width="7.365118103373135" y="30" height="15" style="fill: rgb(255, 102, 102); stroke: grey; stroke-width: 0.3;"></rect><rect class="bar" x="138.16268717118575" width="11.837312828814248" y="45" height="15" style="fill: rgb(255, 102, 102); stroke: grey; stroke-width: 0.3;"></rect><rect class="bar" x="92.85714285714286" width="57.14285714285714" y="60" height="15" style="fill: rgb(255, 102, 102); stroke: grey; stroke-width: 0.3;"></rect><rect class="bar" x="141.07142857142858" width="8.928571428571416" y="75" height="15" style="fill: rgb(255, 102, 102); stroke: grey; stroke-width: 0.3;"></rect><rect class="bar" x="143.54261871647128" width="6.4573812835287185" y="90" height="15" style="fill: rgb(255, 102, 102); stroke: grey; stroke-width: 0.3;"></rect><rect class="bar" x="140.52478134110788" width="9.475218658892118" y="105" height="15" style="fill: rgb(255, 102, 102); stroke: grey; stroke-width: 0.3;"></rect><rect class="bar" x="117.98029556650249" width="32.01970443349751" y="120" height="15" style="fill: rgb(255, 102, 102); stroke: grey; stroke-width: 0.3;"></rect><g class="x axis" transform="translate(0,135)"><g class="tick" transform="translate(131.42857142857144,0)" style="opacity: 1;"><line y2="6" x2="0" style="fill: none; stroke: grey;"></line><text dy=".71em" y="9" x="0" font-weight="normal" transform="translate(-10,3)rotate(-65)" style="text-anchor: end; font-size: 11px; font-family: sans-serif;">0.02</text></g><g class="tick" transform="translate(112.85714285714286,0)" style="opacity: 1;"><line y2="6" x2="0" style="fill: none; stroke: grey;"></line><text dy=".71em" y="9" x="0" font-weight="normal" transform="translate(-10,3)rotate(-65)" style="text-anchor: end; font-size: 11px; font-family: sans-serif;">0.04</text></g><g class="tick" transform="translate(94.28571428571428,0)" style="opacity: 1;"><line y2="6" x2="0" style="fill: none; stroke: grey;"></line><text dy=".71em" y="9" x="0" font-weight="normal" transform="translate(-10,3)rotate(-65)" style="text-anchor: end; font-size: 11px; font-family: sans-serif;">0.06</text></g><g class="tick" transform="translate(75.71428571428571,0)" style="opacity: 1;"><line y2="6" x2="0" style="fill: none; stroke: grey;"></line><text dy=".71em" y="9" x="0" font-weight="normal" transform="translate(-10,3)rotate(-65)" style="text-anchor: end; font-size: 11px; font-family: sans-serif;">0.08</text></g><g class="tick" transform="translate(57.14285714285714,0)" style="opacity: 1;"><line y2="6" x2="0" style="fill: none; stroke: grey;"></line><text dy=".71em" y="9" x="0" font-weight="normal" transform="translate(-10,3)rotate(-65)" style="text-anchor: end; font-size: 11px; font-family: sans-serif;">0.10</text></g><g class="tick" transform="translate(38.571428571428584,0)" style="opacity: 1;"><line y2="6" x2="0" style="fill: none; stroke: grey;"></line><text dy=".71em" y="9" x="0" font-weight="normal" transform="translate(-10,3)rotate(-65)" style="text-anchor: end; font-size: 11px; font-family: sans-serif;">0.12</text></g><g class="tick" transform="translate(19.999999999999996,0)" style="opacity: 1;"><line y2="6" x2="0" style="fill: none; stroke: grey;"></line><text dy=".71em" y="9" x="0" font-weight="normal" transform="translate(-10,3)rotate(-65)" style="text-anchor: end; font-size: 11px; font-family: sans-serif;">0.14</text></g><g class="tick" transform="translate(1.4285714285714337,0)" style="opacity: 1;"><line y2="6" x2="0" style="fill: none; stroke: grey;"></line><text dy=".71em" y="9" x="0" font-weight="normal" transform="translate(-10,3)rotate(-65)" style="text-anchor: end; font-size: 11px; font-family: sans-serif;">0.16</text></g><path class="domain" d="M0,6V0H150V6" style="fill: none; stroke: grey;"></path></g><rect class="bar" x="150" width="150" y="0" height="15" style="fill: rgb(77, 77, 255); stroke: grey; stroke-width: 0.3;"></rect><rect class="bar" x="150" width="150" y="15" height="15" style="fill: rgb(77, 77, 255); stroke: grey; stroke-width: 0.3;"></rect><rect class="bar" x="150" width="105.06737370882519" y="30" height="15" style="fill: rgb(77, 77, 255); stroke: grey; stroke-width: 0.3;"></rect><rect class="bar" x="150" width="104.62003364763729" y="45" height="15" style="fill: rgb(77, 77, 255); stroke: grey; stroke-width: 0.3;"></rect><rect class="bar" x="150" width="95.0968201829277" y="60" height="15" style="fill: rgb(77, 77, 255); stroke: grey; stroke-width: 0.3;"></rect><rect class="bar" x="150" width="80.40231377689844" y="75" height="15" style="fill: rgb(77, 77, 255); stroke: grey; stroke-width: 0.3;"></rect><rect class="bar" x="150" width="61.60879403272554" y="90" height="15" style="fill: rgb(77, 77, 255); stroke: grey; stroke-width: 0.3;"></rect><rect class="bar" x="150" width="43.261105088868504" y="105" height="15" style="fill: rgb(77, 77, 255); stroke: grey; stroke-width: 0.3;"></rect><rect class="bar" x="150" width="42.569230690113216" y="120" height="15" style="fill: rgb(77, 77, 255); stroke: grey; stroke-width: 0.3;"></rect><g class="x axis" transform="translate(0,135)"><g class="tick" transform="translate(150,0)" style="opacity: 1;"><line y2="6" x2="0" style="fill: none; stroke: grey;"></line><text dy=".71em" y="9" x="0" font-weight="normal" transform="translate(-10,3)rotate(-65)" style="text-anchor: end; font-size: 11px; font-family: sans-serif;">0.0</text></g><g class="tick" transform="translate(164.85416848958914,0)" style="opacity: 1;"><line y2="6" x2="0" style="fill: none; stroke: grey;"></line><text dy=".71em" y="9" x="0" font-weight="normal" transform="translate(-10,3)rotate(-65)" style="text-anchor: end; font-size: 11px; font-family: sans-serif;">0.5</text></g><g class="tick" transform="translate(179.70833697917828,0)" style="opacity: 1;"><line y2="6" x2="0" style="fill: none; stroke: grey;"></line><text dy=".71em" y="9" x="0" font-weight="normal" transform="translate(-10,3)rotate(-65)" style="text-anchor: end; font-size: 11px; font-family: sans-serif;">1.0</text></g><g class="tick" transform="translate(194.56250546876743,0)" style="opacity: 1;"><line y2="6" x2="0" style="fill: none; stroke: grey;"></line><text dy=".71em" y="9" x="0" font-weight="normal" transform="translate(-10,3)rotate(-65)" style="text-anchor: end; font-size: 11px; font-family: sans-serif;">1.5</text></g><g class="tick" transform="translate(209.41667395835657,0)" style="opacity: 1;"><line y2="6" x2="0" style="fill: none; stroke: grey;"></line><text dy=".71em" y="9" x="0" font-weight="normal" transform="translate(-10,3)rotate(-65)" style="text-anchor: end; font-size: 11px; font-family: sans-serif;">2.0</text></g><g class="tick" transform="translate(224.27084244794568,0)" style="opacity: 1;"><line y2="6" x2="0" style="fill: none; stroke: grey;"></line><text dy=".71em" y="9" x="0" font-weight="normal" transform="translate(-10,3)rotate(-65)" style="text-anchor: end; font-size: 11px; font-family: sans-serif;">2.5</text></g><g class="tick" transform="translate(239.12501093753482,0)" style="opacity: 1;"><line y2="6" x2="0" style="fill: none; stroke: grey;"></line><text dy=".71em" y="9" x="0" font-weight="normal" transform="translate(-10,3)rotate(-65)" style="text-anchor: end; font-size: 11px; font-family: sans-serif;">3.0</text></g><g class="tick" transform="translate(253.97917942712394,0)" style="opacity: 1;"><line y2="6" x2="0" style="fill: none; stroke: grey;"></line><text dy=".71em" y="9" x="0" font-weight="normal" transform="translate(-10,3)rotate(-65)" style="text-anchor: end; font-size: 11px; font-family: sans-serif;">3.5</text></g><g class="tick" transform="translate(268.8333479167131,0)" style="opacity: 1;"><line y2="6" x2="0" style="fill: none; stroke: grey;"></line><text dy=".71em" y="9" x="0" font-weight="normal" transform="translate(-10,3)rotate(-65)" style="text-anchor: end; font-size: 11px; font-family: sans-serif;">4.0</text></g><g class="tick" transform="translate(283.6875164063022,0)" style="opacity: 1;"><line y2="6" x2="0" style="fill: none; stroke: grey;"></line><text dy=".71em" y="9" x="0" font-weight="normal" transform="translate(-10,3)rotate(-65)" style="text-anchor: end; font-size: 11px; font-family: sans-serif;">4.5</text></g><g class="tick" transform="translate(298.54168489589136,0)" style="opacity: 1;"><line y2="6" x2="0" style="fill: none; stroke: grey;"></line><text dy=".71em" y="9" x="0" font-weight="normal" transform="translate(-10,3)rotate(-65)" style="text-anchor: end; font-size: 11px; font-family: sans-serif;">5.0</text></g><path class="domain" d="M150,6V0H300V6" style="fill: none; stroke: grey;"></path></g><g class="y axis"><g class="tick" transform="translate(0,7.5)" style="opacity: 1;"><line x2="-6" y2="0" style="fill: none; stroke: grey;"></line><text dy=".32em" x="-9" y="0" style="text-anchor: end; font-size: 11px; font-family: sans-serif;">GO_MICROTUBULE</text></g><g class="tick" transform="translate(0,22.5)" style="opacity: 1;"><line x2="-6" y2="0" style="fill: none; stroke: grey;"></line><text dy=".32em" x="-9" y="0" style="text-anchor: end; font-size: 11px; font-family: sans-serif;">GO_MICROTUBULE_CYTOSKELETON</text></g><g class="tick" transform="translate(0,37.5)" style="opacity: 1;"><line x2="-6" y2="0" style="fill: none; stroke: grey;"></line><text dy=".32em" x="-9" y="0" style="text-anchor: end; font-size: 11px; font-family: sans-serif;">GO_CYTOSKELETAL_PART</text></g><g class="tick" transform="translate(0,52.5)" style="opacity: 1;"><line x2="-6" y2="0" style="fill: none; stroke: grey;"></line><text dy=".32em" x="-9" y="0" style="text-anchor: end; font-size: 11px; font-family: sans-serif;">GO_POLYMERIC_CYTOSKELETAL_FIBER</text></g><g class="tick" transform="translate(0,67.5)" style="opacity: 1;"><line x2="-6" y2="0" style="fill: none; stroke: grey;"></line><text dy=".32em" x="-9" y="0" style="text-anchor: end; font-size: 11px; font-family: sans-serif;">GO_CYTOPLASMIC_MICROTUBULE</text></g><g class="tick" transform="translate(0,82.5)" style="opacity: 1;"><line x2="-6" y2="0" style="fill: none; stroke: grey;"></line><text dy=".32em" x="-9" y="0" style="text-anchor: end; font-size: 11px; font-family: sans-serif;">GO_SUPRAMOLECULAR_COMPLEX</text></g><g class="tick" transform="translate(0,97.5)" style="opacity: 1;"><line x2="-6" y2="0" style="fill: none; stroke: grey;"></line><text dy=".32em" x="-9" y="0" style="text-anchor: end; font-size: 11px; font-family: sans-serif;">GO_CELL_PROJECTION_PART</text></g><g class="tick" transform="translate(0,112.5)" style="opacity: 1;"><line x2="-6" y2="0" style="fill: none; stroke: grey;"></line><text dy=".32em" x="-9" y="0" style="text-anchor: end; font-size: 11px; font-family: sans-serif;">GO_DENDRITIC_TREE</text></g><g class="tick" transform="translate(0,127.5)" style="opacity: 1;"><line x2="-6" y2="0" style="fill: none; stroke: grey;"></line><text dy=".32em" x="-9" y="0" style="text-anchor: end; font-size: 11px; font-family: sans-serif;">GO_COLLAGEN_TRIMER</text></g><path class="domain" d="M-6,0H0V135H-6" style="fill: none; stroke: grey;"></path></g><rect x="310" y="0" width="15" height="15" style="fill: rgb(255, 166, 74); stroke: grey; stroke-width: 0.3;"></rect><rect x="325" y="0" width="15" height="15" style="fill: rgb(255, 166, 74); stroke: grey; stroke-width: 0.3;"></rect><rect x="340" y="0" width="15" height="15" style="fill: rgb(255, 166, 74); stroke: grey; stroke-width: 0.3;"></rect><rect x="355" y="0" width="15" height="15" style="fill: rgb(255, 166, 74); stroke: grey; stroke-width: 0.3;"></rect><rect x="355" y="0" width="15" height="15" style="fill: rgb(255, 166, 74); stroke: grey; stroke-width: 0.3;"></rect><rect x="370" y="0" width="15" height="15" style="fill: rgb(255, 166, 74); stroke: grey; stroke-width: 0.3;"></rect><rect x="385" y="0" width="15" height="15" style="fill: rgb(255, 166, 74); stroke: grey; stroke-width: 0.3;"></rect><rect x="400" y="0" width="15" height="15" style="fill: rgb(255, 166, 74); stroke: grey; stroke-width: 0.3;"></rect><rect x="415" y="0" width="15" height="15" style="fill: rgb(255, 166, 74); stroke: grey; stroke-width: 0.3;"></rect><rect x="430" y="0" width="15" height="15" style="fill: rgb(255, 166, 74); stroke: grey; stroke-width: 0.3;"></rect><rect x="310" y="15" width="15" height="15" style="fill: rgb(255, 166, 74); stroke: grey; stroke-width: 0.3;"></rect><rect x="325" y="15" width="15" height="15" style="fill: rgb(255, 166, 74); stroke: grey; stroke-width: 0.3;"></rect><rect x="340" y="15" width="15" height="15" style="fill: rgb(255, 166, 74); stroke: grey; stroke-width: 0.3;"></rect><rect x="445" y="15" width="15" height="15" style="fill: rgb(255, 166, 74); stroke: grey; stroke-width: 0.3;"></rect><rect x="460" y="15" width="15" height="15" style="fill: rgb(255, 166, 74); stroke: grey; stroke-width: 0.3;"></rect><rect x="475" y="15" width="15" height="15" style="fill: rgb(255, 166, 74); stroke: grey; stroke-width: 0.3;"></rect><rect x="355" y="15" width="15" height="15" style="fill: rgb(255, 166, 74); stroke: grey; stroke-width: 0.3;"></rect><rect x="355" y="15" width="15" height="15" style="fill: rgb(255, 166, 74); stroke: grey; stroke-width: 0.3;"></rect><rect x="370" y="15" width="15" height="15" style="fill: rgb(255, 166, 74); stroke: grey; stroke-width: 0.3;"></rect><rect x="385" y="15" width="15" height="15" style="fill: rgb(255, 166, 74); stroke: grey; stroke-width: 0.3;"></rect><rect x="400" y="15" width="15" height="15" style="fill: rgb(255, 166, 74); stroke: grey; stroke-width: 0.3;"></rect><rect x="415" y="15" width="15" height="15" style="fill: rgb(255, 166, 74); stroke: grey; stroke-width: 0.3;"></rect><rect x="490" y="15" width="15" height="15" style="fill: rgb(255, 166, 74); stroke: grey; stroke-width: 0.3;"></rect><rect x="430" y="15" width="15" height="15" style="fill: rgb(255, 166, 74); stroke: grey; stroke-width: 0.3;"></rect><rect x="310" y="30" width="15" height="15" style="fill: rgb(255, 166, 74); stroke: grey; stroke-width: 0.3;"></rect><rect x="325" y="30" width="15" height="15" style="fill: rgb(255, 166, 74); stroke: grey; stroke-width: 0.3;"></rect><rect x="340" y="30" width="15" height="15" style="fill: rgb(255, 166, 74); stroke: grey; stroke-width: 0.3;"></rect><rect x="445" y="30" width="15" height="15" style="fill: rgb(255, 166, 74); stroke: grey; stroke-width: 0.3;"></rect><rect x="460" y="30" width="15" height="15" style="fill: rgb(255, 166, 74); stroke: grey; stroke-width: 0.3;"></rect><rect x="475" y="30" width="15" height="15" style="fill: rgb(255, 166, 74); stroke: grey; stroke-width: 0.3;"></rect><rect x="355" y="30" width="15" height="15" style="fill: rgb(255, 166, 74); stroke: grey; stroke-width: 0.3;"></rect><rect x="355" y="30" width="15" height="15" style="fill: rgb(255, 166, 74); stroke: grey; stroke-width: 0.3;"></rect><rect x="370" y="30" width="15" height="15" style="fill: rgb(255, 166, 74); stroke: grey; stroke-width: 0.3;"></rect><rect x="385" y="30" width="15" height="15" style="fill: rgb(255, 166, 74); stroke: grey; stroke-width: 0.3;"></rect><rect x="400" y="30" width="15" height="15" style="fill: rgb(255, 166, 74); stroke: grey; stroke-width: 0.3;"></rect><rect x="415" y="30" width="15" height="15" style="fill: rgb(255, 166, 74); stroke: grey; stroke-width: 0.3;"></rect><rect x="490" y="30" width="15" height="15" style="fill: rgb(255, 166, 74); stroke: grey; stroke-width: 0.3;"></rect><rect x="430" y="30" width="15" height="15" style="fill: rgb(255, 166, 74); stroke: grey; stroke-width: 0.3;"></rect><rect x="310" y="45" width="15" height="15" style="fill: rgb(255, 166, 74); stroke: grey; stroke-width: 0.3;"></rect><rect x="325" y="45" width="15" height="15" style="fill: rgb(255, 166, 74); stroke: grey; stroke-width: 0.3;"></rect><rect x="340" y="45" width="15" height="15" style="fill: rgb(255, 166, 74); stroke: grey; stroke-width: 0.3;"></rect><rect x="355" y="45" width="15" height="15" style="fill: rgb(255, 166, 74); stroke: grey; stroke-width: 0.3;"></rect><rect x="355" y="45" width="15" height="15" style="fill: rgb(255, 166, 74); stroke: grey; stroke-width: 0.3;"></rect><rect x="370" y="45" width="15" height="15" style="fill: rgb(255, 166, 74); stroke: grey; stroke-width: 0.3;"></rect><rect x="385" y="45" width="15" height="15" style="fill: rgb(255, 166, 74); stroke: grey; stroke-width: 0.3;"></rect><rect x="400" y="45" width="15" height="15" style="fill: rgb(255, 166, 74); stroke: grey; stroke-width: 0.3;"></rect><rect x="415" y="45" width="15" height="15" style="fill: rgb(255, 166, 74); stroke: grey; stroke-width: 0.3;"></rect><rect x="430" y="45" width="15" height="15" style="fill: rgb(255, 166, 74); stroke: grey; stroke-width: 0.3;"></rect><rect x="310" y="60" width="15" height="15" style="fill: rgb(255, 166, 74); stroke: grey; stroke-width: 0.3;"></rect><rect x="325" y="60" width="15" height="15" style="fill: rgb(255, 166, 74); stroke: grey; stroke-width: 0.3;"></rect><rect x="400" y="60" width="15" height="15" style="fill: rgb(255, 166, 74); stroke: grey; stroke-width: 0.3;"></rect><rect x="415" y="60" width="15" height="15" style="fill: rgb(255, 166, 74); stroke: grey; stroke-width: 0.3;"></rect><rect x="310" y="75" width="15" height="15" style="fill: rgb(255, 166, 74); stroke: grey; stroke-width: 0.3;"></rect><rect x="325" y="75" width="15" height="15" style="fill: rgb(255, 166, 74); stroke: grey; stroke-width: 0.3;"></rect><rect x="340" y="75" width="15" height="15" style="fill: rgb(255, 166, 74); stroke: grey; stroke-width: 0.3;"></rect><rect x="355" y="75" width="15" height="15" style="fill: rgb(255, 166, 74); stroke: grey; stroke-width: 0.3;"></rect><rect x="355" y="75" width="15" height="15" style="fill: rgb(255, 166, 74); stroke: grey; stroke-width: 0.3;"></rect><rect x="370" y="75" width="15" height="15" style="fill: rgb(255, 166, 74); stroke: grey; stroke-width: 0.3;"></rect><rect x="385" y="75" width="15" height="15" style="fill: rgb(255, 166, 74); stroke: grey; stroke-width: 0.3;"></rect><rect x="400" y="75" width="15" height="15" style="fill: rgb(255, 166, 74); stroke: grey; stroke-width: 0.3;"></rect><rect x="415" y="75" width="15" height="15" style="fill: rgb(255, 166, 74); stroke: grey; stroke-width: 0.3;"></rect><rect x="430" y="75" width="15" height="15" style="fill: rgb(255, 166, 74); stroke: grey; stroke-width: 0.3;"></rect><rect x="445" y="90" width="15" height="15" style="fill: rgb(255, 166, 74); stroke: grey; stroke-width: 0.3;"></rect><rect x="505" y="90" width="15" height="15" style="fill: rgb(255, 166, 74); stroke: grey; stroke-width: 0.3;"></rect><rect x="475" y="90" width="15" height="15" style="fill: rgb(255, 166, 74); stroke: grey; stroke-width: 0.3;"></rect><rect x="355" y="90" width="15" height="15" style="fill: rgb(255, 166, 74); stroke: grey; stroke-width: 0.3;"></rect><rect x="355" y="90" width="15" height="15" style="fill: rgb(255, 166, 74); stroke: grey; stroke-width: 0.3;"></rect><rect x="370" y="90" width="15" height="15" style="fill: rgb(255, 166, 74); stroke: grey; stroke-width: 0.3;"></rect><rect x="520" y="90" width="15" height="15" style="fill: rgb(255, 166, 74); stroke: grey; stroke-width: 0.3;"></rect><rect x="385" y="90" width="15" height="15" style="fill: rgb(255, 166, 74); stroke: grey; stroke-width: 0.3;"></rect><rect x="535" y="90" width="15" height="15" style="fill: rgb(255, 166, 74); stroke: grey; stroke-width: 0.3;"></rect><rect x="550" y="90" width="15" height="15" style="fill: rgb(255, 166, 74); stroke: grey; stroke-width: 0.3;"></rect><rect x="565" y="90" width="15" height="15" style="fill: rgb(255, 166, 74); stroke: grey; stroke-width: 0.3;"></rect><rect x="355" y="105" width="15" height="15" style="fill: rgb(255, 166, 74); stroke: grey; stroke-width: 0.3;"></rect><rect x="355" y="105" width="15" height="15" style="fill: rgb(255, 166, 74); stroke: grey; stroke-width: 0.3;"></rect><rect x="520" y="105" width="15" height="15" style="fill: rgb(255, 166, 74); stroke: grey; stroke-width: 0.3;"></rect><rect x="385" y="105" width="15" height="15" style="fill: rgb(255, 166, 74); stroke: grey; stroke-width: 0.3;"></rect><rect x="535" y="105" width="15" height="15" style="fill: rgb(255, 166, 74); stroke: grey; stroke-width: 0.3;"></rect><rect x="550" y="105" width="15" height="15" style="fill: rgb(255, 166, 74); stroke: grey; stroke-width: 0.3;"></rect><rect x="565" y="105" width="15" height="15" style="fill: rgb(255, 166, 74); stroke: grey; stroke-width: 0.3;"></rect><rect x="580" y="120" width="15" height="15" style="fill: rgb(255, 166, 74); stroke: grey; stroke-width: 0.3;"></rect><rect x="595" y="120" width="15" height="15" style="fill: rgb(255, 166, 74); stroke: grey; stroke-width: 0.3;"></rect><rect x="610" y="120" width="15" height="15" style="fill: rgb(255, 166, 74); stroke: grey; stroke-width: 0.3;"></rect><g class="y axis" transform="translate(310,0)"><g class="tick" transform="translate(0,7.5)" style="opacity: 1;"><line x2="-6" y2="0" style="fill: none; stroke: grey;"></line></g><g class="tick" transform="translate(0,22.5)" style="opacity: 1;"><line x2="-6" y2="0" style="fill: none; stroke: grey;"></line></g><g class="tick" transform="translate(0,37.5)" style="opacity: 1;"><line x2="-6" y2="0" style="fill: none; stroke: grey;"></line></g><g class="tick" transform="translate(0,52.5)" style="opacity: 1;"><line x2="-6" y2="0" style="fill: none; stroke: grey;"></line></g><g class="tick" transform="translate(0,67.5)" style="opacity: 1;"><line x2="-6" y2="0" style="fill: none; stroke: grey;"></line></g><g class="tick" transform="translate(0,82.5)" style="opacity: 1;"><line x2="-6" y2="0" style="fill: none; stroke: grey;"></line></g><g class="tick" transform="translate(0,97.5)" style="opacity: 1;"><line x2="-6" y2="0" style="fill: none; stroke: grey;"></line></g><g class="tick" transform="translate(0,112.5)" style="opacity: 1;"><line x2="-6" y2="0" style="fill: none; stroke: grey;"></line></g><g class="tick" transform="translate(0,127.5)" style="opacity: 1;"><line x2="-6" y2="0" style="fill: none; stroke: grey;"></line></g><path class="domain" d="M-6,0H0V135H-6" style="fill: none; stroke: grey;"></path></g><g class="x axis" transform="translate(0,135)"><g class="tick" transform="translate(317.5,0)" style="opacity: 1;"><line y2="6" x2="0" style="fill: none; stroke: grey;"></line><text dy=".71em" y="9" x="0" font-weight="normal" transform="translate(-10,3)rotate(-65)" style="text-anchor: end; font-size: 11px; font-family: sans-serif;">TUBA1B</text></g><g class="tick" transform="translate(332.5,0)" style="opacity: 1;"><line y2="6" x2="0" style="fill: none; stroke: grey;"></line><text dy=".71em" y="9" x="0" font-weight="normal" transform="translate(-10,3)rotate(-65)" style="text-anchor: end; font-size: 11px; font-family: sans-serif;">TUBA1A</text></g><g class="tick" transform="translate(347.5,0)" style="opacity: 1;"><line y2="6" x2="0" style="fill: none; stroke: grey;"></line><text dy=".71em" y="9" x="0" font-weight="normal" transform="translate(-10,3)rotate(-65)" style="text-anchor: end; font-size: 11px; font-family: sans-serif;">TUBA1C</text></g><g class="tick" transform="translate(362.5,0)" style="opacity: 1;"><line y2="6" x2="0" style="fill: none; stroke: grey;"></line><text dy=".71em" y="9" x="0" font-weight="normal" transform="translate(-10,3)rotate(-65)" style="text-anchor: end; font-size: 11px; font-family: sans-serif;">TUBB3</text></g><g class="tick" transform="translate(377.5,0)" style="opacity: 1;"><line y2="6" x2="0" style="fill: none; stroke: grey;"></line><text dy=".71em" y="9" x="0" font-weight="normal" transform="translate(-10,3)rotate(-65)" style="text-anchor: end; font-size: 11px; font-family: sans-serif;">GAS8</text></g><g class="tick" transform="translate(392.5,0)" style="opacity: 1;"><line y2="6" x2="0" style="fill: none; stroke: grey;"></line><text dy=".71em" y="9" x="0" font-weight="normal" transform="translate(-10,3)rotate(-65)" style="text-anchor: end; font-size: 11px; font-family: sans-serif;">MAPT</text></g><g class="tick" transform="translate(407.5,0)" style="opacity: 1;"><line y2="6" x2="0" style="fill: none; stroke: grey;"></line><text dy=".71em" y="9" x="0" font-weight="normal" transform="translate(-10,3)rotate(-65)" style="text-anchor: end; font-size: 11px; font-family: sans-serif;">MAPRE3</text></g><g class="tick" transform="translate(422.5,0)" style="opacity: 1;"><line y2="6" x2="0" style="fill: none; stroke: grey;"></line><text dy=".71em" y="9" x="0" font-weight="normal" transform="translate(-10,3)rotate(-65)" style="text-anchor: end; font-size: 11px; font-family: sans-serif;">TMEM214</text></g><g class="tick" transform="translate(437.5,0)" style="opacity: 1;"><line y2="6" x2="0" style="fill: none; stroke: grey;"></line><text dy=".71em" y="9" x="0" font-weight="normal" transform="translate(-10,3)rotate(-65)" style="text-anchor: end; font-size: 11px; font-family: sans-serif;">DPYSL2</text></g><g class="tick" transform="translate(452.5,0)" style="opacity: 1;"><line y2="6" x2="0" style="fill: none; stroke: grey;"></line><text dy=".71em" y="9" x="0" font-weight="normal" transform="translate(-10,3)rotate(-65)" style="text-anchor: end; font-size: 11px; font-family: sans-serif;">DAAM1</text></g><g class="tick" transform="translate(467.5,0)" style="opacity: 1;"><line y2="6" x2="0" style="fill: none; stroke: grey;"></line><text dy=".71em" y="9" x="0" font-weight="normal" transform="translate(-10,3)rotate(-65)" style="text-anchor: end; font-size: 11px; font-family: sans-serif;">CHMP1A</text></g><g class="tick" transform="translate(482.5,0)" style="opacity: 1;"><line y2="6" x2="0" style="fill: none; stroke: grey;"></line><text dy=".71em" y="9" x="0" font-weight="normal" transform="translate(-10,3)rotate(-65)" style="text-anchor: end; font-size: 11px; font-family: sans-serif;">CDK10</text></g><g class="tick" transform="translate(497.5,0)" style="opacity: 1;"><line y2="6" x2="0" style="fill: none; stroke: grey;"></line><text dy=".71em" y="9" x="0" font-weight="normal" transform="translate(-10,3)rotate(-65)" style="text-anchor: end; font-size: 11px; font-family: sans-serif;">AGBL5</text></g><g class="tick" transform="translate(512.5,0)" style="opacity: 1;"><line y2="6" x2="0" style="fill: none; stroke: grey;"></line><text dy=".71em" y="9" x="0" font-weight="normal" transform="translate(-10,3)rotate(-65)" style="text-anchor: end; font-size: 11px; font-family: sans-serif;">DPEP1</text></g><g class="tick" transform="translate(527.5,0)" style="opacity: 1;"><line y2="6" x2="0" style="fill: none; stroke: grey;"></line><text dy=".71em" y="9" x="0" font-weight="normal" transform="translate(-10,3)rotate(-65)" style="text-anchor: end; font-size: 11px; font-family: sans-serif;">CRHR1</text></g><g class="tick" transform="translate(542.5,0)" style="opacity: 1;"><line y2="6" x2="0" style="fill: none; stroke: grey;"></line><text dy=".71em" y="9" x="0" font-weight="normal" transform="translate(-10,3)rotate(-65)" style="text-anchor: end; font-size: 11px; font-family: sans-serif;">NSF</text></g><g class="tick" transform="translate(557.5,0)" style="opacity: 1;"><line y2="6" x2="0" style="fill: none; stroke: grey;"></line><text dy=".71em" y="9" x="0" font-weight="normal" transform="translate(-10,3)rotate(-65)" style="text-anchor: end; font-size: 11px; font-family: sans-serif;">DPYSL5</text></g><g class="tick" transform="translate(572.5,0)" style="opacity: 1;"><line y2="6" x2="0" style="fill: none; stroke: grey;"></line><text dy=".71em" y="9" x="0" font-weight="normal" transform="translate(-10,3)rotate(-65)" style="text-anchor: end; font-size: 11px; font-family: sans-serif;">STRN</text></g><g class="tick" transform="translate(587.5,0)" style="opacity: 1;"><line y2="6" x2="0" style="fill: none; stroke: grey;"></line><text dy=".71em" y="9" x="0" font-weight="normal" transform="translate(-10,3)rotate(-65)" style="text-anchor: end; font-size: 11px; font-family: sans-serif;">EMILIN1</text></g><g class="tick" transform="translate(602.5,0)" style="opacity: 1;"><line y2="6" x2="0" style="fill: none; stroke: grey;"></line><text dy=".71em" y="9" x="0" font-weight="normal" transform="translate(-10,3)rotate(-65)" style="text-anchor: end; font-size: 11px; font-family: sans-serif;">COL18A1</text></g><g class="tick" transform="translate(617.5,0)" style="opacity: 1;"><line y2="6" x2="0" style="fill: none; stroke: grey;"></line><text dy=".71em" y="9" x="0" font-weight="normal" transform="translate(-10,3)rotate(-65)" style="text-anchor: end; font-size: 11px; font-family: sans-serif;">COL15A1</text></g><path class="domain" d="M310,6V0H625V6" style="fill: none; stroke: grey;"></path></g><text text-anchor="middle" transform="translate(75,180)" font-size="12px" style="font-family: sans-serif;">Proportion</text><text text-anchor="middle" transform="translate(75,-26)" font-size="12px" style="font-family: sans-serif;">Proportion of overlapping</text><text text-anchor="middle" transform="translate(75,-14)" font-size="12px" style="font-family: sans-serif;">genes in gene sets</text><text text-anchor="middle" transform="translate(225,180)" font-size="12px" style="font-family: sans-serif;">-log10 adjusted P-value</text><text text-anchor="middle" transform="translate(225,-20)" font-size="12px" style="font-family: sans-serif;">Enrichment P-value</text><text text-anchor="middle" transform="translate(467.5,-20)" font-size="12px" style="font-family: sans-serif;">overlapping genes</text></g></svg>