<svg width="560" height="600"><g transform="translate(80,30)"><g><text transform="translate(150,480)rotate(-70)" style="text-anchor: end; font-size: 11px; font-family: sans-serif;">Adipose_Tissue</text><text transform="translate(390,480)rotate(-70)" style="text-anchor: end; font-size: 11px; font-family: sans-serif;">Adrenal_Gland</text><text transform="translate(255,480)rotate(-70)" style="text-anchor: end; font-size: 11px; font-family: sans-serif;">Bladder</text><text transform="translate(180,480)rotate(-70)" style="text-anchor: end; font-size: 11px; font-family: sans-serif;">Blood</text><text transform="translate(285,480)rotate(-70)" style="text-anchor: end; font-size: 11px; font-family: sans-serif;">Blood_Vessel</text><text transform="translate(195,480)rotate(-70)" style="text-anchor: end; font-size: 11px; font-family: sans-serif;">Brain</text><text transform="translate(435,480)rotate(-70)" style="text-anchor: end; font-size: 11px; font-family: sans-serif;">Breast</text><text transform="translate(420,480)rotate(-70)" style="text-anchor: end; font-size: 11px; font-family: sans-serif;">Cervix_Uteri</text><text transform="translate(240,480)rotate(-70)" style="text-anchor: end; font-size: 11px; font-family: sans-serif;">Colon</text><text transform="translate(135,480)rotate(-70)" style="text-anchor: end; font-size: 11px; font-family: sans-serif;">Esophagus</text><text transform="translate(315,480)rotate(-70)" style="text-anchor: end; font-size: 11px; font-family: sans-serif;">Fallopian_Tube</text><text transform="translate(300,480)rotate(-70)" style="text-anchor: end; font-size: 11px; font-family: sans-serif;">Heart</text><text transform="translate(270,480)rotate(-70)" style="text-anchor: end; font-size: 11px; font-family: sans-serif;">Kidney</text><text transform="translate(60,480)rotate(-70)" style="text-anchor: end; font-size: 11px; font-family: sans-serif;">Liver</text><text transform="translate(405,480)rotate(-70)" style="text-anchor: end; font-size: 11px; font-family: sans-serif;">Lung</text><text transform="translate(45,480)rotate(-70)" style="text-anchor: end; font-size: 11px; font-family: sans-serif;">Muscle</text><text transform="translate(360,480)rotate(-70)" style="text-anchor: end; font-size: 11px; font-family: sans-serif;">Nerve</text><text transform="translate(120,480)rotate(-70)" style="text-anchor: end; font-size: 11px; font-family: sans-serif;">Ovary</text><text transform="translate(90,480)rotate(-70)" style="text-anchor: end; font-size: 11px; font-family: sans-serif;">Pancreas</text><text transform="translate(30,480)rotate(-70)" style="text-anchor: end; font-size: 11px; font-family: sans-serif;">Pituitary</text><text transform="translate(345,480)rotate(-70)" style="text-anchor: end; font-size: 11px; font-family: sans-serif;">Prostate</text><text transform="translate(450,480)rotate(-70)" style="text-anchor: end; font-size: 11px; font-family: sans-serif;">Salivary_Gland</text><text transform="translate(105,480)rotate(-70)" style="text-anchor: end; font-size: 11px; font-family: sans-serif;">Skin</text><text transform="translate(210,480)rotate(-70)" style="text-anchor: end; font-size: 11px; font-family: sans-serif;">Small_Intestine</text><text transform="translate(75,480)rotate(-70)" style="text-anchor: end; font-size: 11px; font-family: sans-serif;">Spleen</text><text transform="translate(225,480)rotate(-70)" style="text-anchor: end; font-size: 11px; font-family: sans-serif;">Stomach</text><text transform="translate(375,480)rotate(-70)" style="text-anchor: end; font-size: 11px; font-family: sans-serif;">Testis</text><text transform="translate(15,480)rotate(-70)" style="text-anchor: end; font-size: 11px; font-family: sans-serif;">Thyroid</text><text transform="translate(165,480)rotate(-70)" style="text-anchor: end; font-size: 11px; font-family: sans-serif;">Uterus</text><text transform="translate(330,480)rotate(-70)" style="text-anchor: end; font-size: 11px; font-family: sans-serif;">Vagina</text></g><rect class="bar" x="135" width="14" y="143.93338607129925" height="6.066613928700747" style="fill: rgb(86, 104, 244); stroke: grey; stroke-width: 0.3;"></rect><rect class="bar" x="375" width="14" y="150" height="0" style="fill: rgb(86, 104, 244); stroke: grey; stroke-width: 0.3;"></rect><rect class="bar" x="240" width="14" y="104.6904640642386" height="45.3095359357614" style="fill: rgb(86, 104, 244); stroke: grey; stroke-width: 0.3;"></rect><rect class="bar" x="165" width="14" y="148.83520604599286" height="1.1647939540071377" style="fill: rgb(86, 104, 244); stroke: grey; stroke-width: 0.3;"></rect><rect class="bar" x="270" width="14" y="133.8682265796719" height="16.131773420328102" style="fill: rgb(86, 104, 244); stroke: grey; stroke-width: 0.3;"></rect><rect class="bar" x="180" width="14" y="104.93550187641523" height="45.06449812358477" style="fill: rgb(86, 104, 244); stroke: grey; stroke-width: 0.3;"></rect><rect class="bar" x="420" width="14" y="149.61762588052787" height="0.3823741194721322" style="fill: rgb(86, 104, 244); stroke: grey; stroke-width: 0.3;"></rect><rect class="bar" x="405" width="14" y="138.15863225098073" height="11.84136774901927" style="fill: rgb(86, 104, 244); stroke: grey; stroke-width: 0.3;"></rect><rect class="bar" x="225" width="14" y="131.44688570107598" height="18.553114298924015" style="fill: rgb(86, 104, 244); stroke: grey; stroke-width: 0.3;"></rect><rect class="bar" x="120" width="14" y="123.069589223344" height="26.930410776656004" style="fill: rgb(86, 104, 244); stroke: grey; stroke-width: 0.3;"></rect><rect class="bar" x="300" width="14" y="124.83219952558046" height="25.167800474419536" style="fill: rgb(86, 104, 244); stroke: grey; stroke-width: 0.3;"></rect><rect class="bar" x="285" width="14" y="150" height="0" style="fill: rgb(86, 104, 244); stroke: grey; stroke-width: 0.3;"></rect><rect class="bar" x="255" width="14" y="137.00450277305842" height="12.99549722694158" style="fill: rgb(86, 104, 244); stroke: grey; stroke-width: 0.3;"></rect><rect class="bar" x="45" width="14" y="139.74529287047162" height="10.254707129528384" style="fill: rgb(86, 104, 244); stroke: grey; stroke-width: 0.3;"></rect><rect class="bar" x="390" width="14" y="149.82823939049473" height="0.17176060950527017" style="fill: rgb(86, 104, 244); stroke: grey; stroke-width: 0.3;"></rect><rect class="bar" x="30" width="14" y="142.15648860786268" height="7.843511392137316" style="fill: rgb(86, 104, 244); stroke: grey; stroke-width: 0.3;"></rect><rect class="bar" x="345" width="14" y="148.98537436534818" height="1.0146256346518214" style="fill: rgb(86, 104, 244); stroke: grey; stroke-width: 0.3;"></rect><rect class="bar" x="105" width="14" y="119.17009451717821" height="30.829905482821786" style="fill: rgb(86, 104, 244); stroke: grey; stroke-width: 0.3;"></rect><rect class="bar" x="75" width="14" y="145.18720979022552" height="4.812790209774477" style="fill: rgb(86, 104, 244); stroke: grey; stroke-width: 0.3;"></rect><rect class="bar" x="15" width="14" y="98.5232384686547" height="51.4767615313453" style="fill: rgb(86, 104, 244); stroke: grey; stroke-width: 0.3;"></rect><rect class="bar" x="330" width="14" y="145.2579114829342" height="4.74208851706581" style="fill: rgb(86, 104, 244); stroke: grey; stroke-width: 0.3;"></rect><rect class="bar" x="435" width="14" y="143.76381408172065" height="6.236185918279347" style="fill: rgb(86, 104, 244); stroke: grey; stroke-width: 0.3;"></rect><rect class="bar" x="90" width="14" y="124.55064438122646" height="25.449355618773538" style="fill: rgb(86, 104, 244); stroke: grey; stroke-width: 0.3;"></rect><rect class="bar" x="195" width="14" y="135.07717863596486" height="14.922821364035144" style="fill: rgb(86, 104, 244); stroke: grey; stroke-width: 0.3;"></rect><rect class="bar" x="60" width="14" y="134.78147746095186" height="15.218522539048138" style="fill: rgb(86, 104, 244); stroke: grey; stroke-width: 0.3;"></rect><rect class="bar" x="210" width="14" y="141.69911991886602" height="8.300880081133982" style="fill: rgb(86, 104, 244); stroke: grey; stroke-width: 0.3;"></rect><rect class="bar" x="360" width="14" y="136.4458332806485" height="13.554166719351514" style="fill: rgb(86, 104, 244); stroke: grey; stroke-width: 0.3;"></rect><rect class="bar" x="0" width="14" y="76.48507661831975" height="73.51492338168025" style="fill: rgb(86, 104, 244); stroke: grey; stroke-width: 0.3;"></rect><rect class="bar" x="150" width="14" y="141.5537536731156" height="8.446246326884392" style="fill: rgb(86, 104, 244); stroke: grey; stroke-width: 0.3;"></rect><rect class="bar" x="315" width="14" y="136.13736943845004" height="13.862630561549963" style="fill: rgb(86, 104, 244); stroke: grey; stroke-width: 0.3;"></rect><g class="y axis"><g class="tick" transform="translate(0,150)" style="opacity: 1;"><line x2="-6" y2="0" style="fill: none; stroke: grey;"></line><text dy=".32em" x="-9" y="0" style="text-anchor: end; font-size: 11px; font-family: sans-serif;">0</text></g><g class="tick" transform="translate(0,110.23942503725044)" style="opacity: 1;"><line x2="-6" y2="0" style="fill: none; stroke: grey;"></line><text dy=".32em" x="-9" y="0" style="text-anchor: end; font-size: 11px; font-family: sans-serif;">1</text></g><g class="tick" transform="translate(0,70.47885007450085)" style="opacity: 1;"><line x2="-6" y2="0" style="fill: none; stroke: grey;"></line><text dy=".32em" x="-9" y="0" style="text-anchor: end; font-size: 11px; font-family: sans-serif;">2</text></g><g class="tick" transform="translate(0,30.718275111751296)" style="opacity: 1;"><line x2="-6" y2="0" style="fill: none; stroke: grey;"></line><text dy=".32em" x="-9" y="0" style="text-anchor: end; font-size: 11px; font-family: sans-serif;">3</text></g><path class="domain" d="M-6,0H0V150H-6" style="fill: none; stroke: grey;"></path></g><g class="x axis" transform="translate(0,150)"><g class="tick" transform="translate(7.5,0)" style="opacity: 1;"><line y2="6" x2="0" style="fill: none; stroke: grey;"></line></g><g class="tick" transform="translate(22.5,0)" style="opacity: 1;"><line y2="6" x2="0" style="fill: none; stroke: grey;"></line></g><g class="tick" transform="translate(37.5,0)" style="opacity: 1;"><line y2="6" x2="0" style="fill: none; stroke: grey;"></line></g><g class="tick" transform="translate(52.5,0)" style="opacity: 1;"><line y2="6" x2="0" style="fill: none; stroke: grey;"></line></g><g class="tick" transform="translate(67.5,0)" style="opacity: 1;"><line y2="6" x2="0" style="fill: none; stroke: grey;"></line></g><g class="tick" transform="translate(82.5,0)" style="opacity: 1;"><line y2="6" x2="0" style="fill: none; stroke: grey;"></line></g><g class="tick" transform="translate(97.5,0)" style="opacity: 1;"><line y2="6" x2="0" style="fill: none; stroke: grey;"></line></g><g class="tick" transform="translate(112.5,0)" style="opacity: 1;"><line y2="6" x2="0" style="fill: none; stroke: grey;"></line></g><g class="tick" transform="translate(127.5,0)" style="opacity: 1;"><line y2="6" x2="0" style="fill: none; stroke: grey;"></line></g><g class="tick" transform="translate(142.5,0)" style="opacity: 1;"><line y2="6" x2="0" style="fill: none; stroke: grey;"></line></g><g class="tick" transform="translate(157.5,0)" style="opacity: 1;"><line y2="6" x2="0" style="fill: none; stroke: grey;"></line></g><g class="tick" transform="translate(172.5,0)" style="opacity: 1;"><line y2="6" x2="0" style="fill: none; stroke: grey;"></line></g><g class="tick" transform="translate(187.5,0)" style="opacity: 1;"><line y2="6" x2="0" style="fill: none; stroke: grey;"></line></g><g class="tick" transform="translate(202.5,0)" style="opacity: 1;"><line y2="6" x2="0" style="fill: none; stroke: grey;"></line></g><g class="tick" transform="translate(217.5,0)" style="opacity: 1;"><line y2="6" x2="0" style="fill: none; stroke: grey;"></line></g><g class="tick" transform="translate(232.5,0)" style="opacity: 1;"><line y2="6" x2="0" style="fill: none; stroke: grey;"></line></g><g class="tick" transform="translate(247.5,0)" style="opacity: 1;"><line y2="6" x2="0" style="fill: none; stroke: grey;"></line></g><g class="tick" transform="translate(262.5,0)" style="opacity: 1;"><line y2="6" x2="0" style="fill: none; stroke: grey;"></line></g><g class="tick" transform="translate(277.5,0)" style="opacity: 1;"><line y2="6" x2="0" style="fill: none; stroke: grey;"></line></g><g class="tick" transform="translate(292.5,0)" style="opacity: 1;"><line y2="6" x2="0" style="fill: none; stroke: grey;"></line></g><g class="tick" transform="translate(307.5,0)" style="opacity: 1;"><line y2="6" x2="0" style="fill: none; stroke: grey;"></line></g><g class="tick" transform="translate(322.5,0)" style="opacity: 1;"><line y2="6" x2="0" style="fill: none; stroke: grey;"></line></g><g class="tick" transform="translate(337.5,0)" style="opacity: 1;"><line y2="6" x2="0" style="fill: none; stroke: grey;"></line></g><g class="tick" transform="translate(352.5,0)" style="opacity: 1;"><line y2="6" x2="0" style="fill: none; stroke: grey;"></line></g><g class="tick" transform="translate(367.5,0)" style="opacity: 1;"><line y2="6" x2="0" style="fill: none; stroke: grey;"></line></g><g class="tick" transform="translate(382.5,0)" style="opacity: 1;"><line y2="6" x2="0" style="fill: none; stroke: grey;"></line></g><g class="tick" transform="translate(397.5,0)" style="opacity: 1;"><line y2="6" x2="0" style="fill: none; stroke: grey;"></line></g><g class="tick" transform="translate(412.5,0)" style="opacity: 1;"><line y2="6" x2="0" style="fill: none; stroke: grey;"></line></g><g class="tick" transform="translate(427.5,0)" style="opacity: 1;"><line y2="6" x2="0" style="fill: none; stroke: grey;"></line></g><g class="tick" transform="translate(442.5,0)" style="opacity: 1;"><line y2="6" x2="0" style="fill: none; stroke: grey;"></line></g><path class="domain" d="M0,6V0H450V6" style="fill: none; stroke: grey;"></path></g><text text-anchor="middle" transform="translate(465,75)rotate(90)" style="font-family: sans-serif;">Up-regulated DEG</text><rect class="bar" x="135" width="14" y="208.05835337343075" height="101.94164662656925" style="fill: rgb(86, 104, 244); stroke: grey; stroke-width: 0.3;"></rect><rect class="bar" x="375" width="14" y="272.10082211817354" height="37.89917788182646" style="fill: rgb(86, 104, 244); stroke: grey; stroke-width: 0.3;"></rect><rect class="bar" x="240" width="14" y="310" height="0" style="fill: rgb(86, 104, 244); stroke: grey; stroke-width: 0.3;"></rect><rect class="bar" x="165" width="14" y="224.4290415536815" height="85.57095844631851" style="fill: rgb(86, 104, 244); stroke: grey; stroke-width: 0.3;"></rect><rect class="bar" x="270" width="14" y="283.7032876441004" height="26.296712355899615" style="fill: rgb(86, 104, 244); stroke: grey; stroke-width: 0.3;"></rect><rect class="bar" x="180" width="14" y="291.47238442209556" height="18.52761557790444" style="fill: rgb(86, 104, 244); stroke: grey; stroke-width: 0.3;"></rect><rect class="bar" x="420" width="14" y="273.20309950433307" height="36.79690049566693" style="fill: rgb(86, 104, 244); stroke: grey; stroke-width: 0.3;"></rect><rect class="bar" x="405" width="14" y="310" height="0" style="fill: rgb(86, 104, 244); stroke: grey; stroke-width: 0.3;"></rect><rect class="bar" x="225" width="14" y="272.8758496833026" height="37.12415031669741" style="fill: rgb(86, 104, 244); stroke: grey; stroke-width: 0.3;"></rect><rect class="bar" x="120" width="14" y="253.161153945735" height="56.83884605426499" style="fill: rgb(86, 104, 244); stroke: grey; stroke-width: 0.3;"></rect><rect class="bar" x="300" width="14" y="310" height="0" style="fill: rgb(86, 104, 244); stroke: grey; stroke-width: 0.3;"></rect><rect class="bar" x="285" width="14" y="275.37881848963974" height="34.62118151036026" style="fill: rgb(86, 104, 244); stroke: grey; stroke-width: 0.3;"></rect><rect class="bar" x="255" width="14" y="282.56675093321223" height="27.433249066787766" style="fill: rgb(86, 104, 244); stroke: grey; stroke-width: 0.3;"></rect><rect class="bar" x="45" width="14" y="225.3778438216724" height="84.6221561783276" style="fill: rgb(86, 104, 244); stroke: grey; stroke-width: 0.3;"></rect><rect class="bar" x="390" width="14" y="197.67071624172047" height="112.32928375827953" style="fill: rgb(204, 0, 0); stroke: grey; stroke-width: 0.3;"></rect><rect class="bar" x="30" width="14" y="218.33853933510724" height="91.66146066489276" style="fill: rgb(86, 104, 244); stroke: grey; stroke-width: 0.3;"></rect><rect class="bar" x="345" width="14" y="197.45394208763577" height="112.54605791236423" style="fill: rgb(204, 0, 0); stroke: grey; stroke-width: 0.3;"></rect><rect class="bar" x="105" width="14" y="245.61260260118218" height="64.38739739881782" style="fill: rgb(86, 104, 244); stroke: grey; stroke-width: 0.3;"></rect><rect class="bar" x="75" width="14" y="230.15438557002363" height="79.84561442997637" style="fill: rgb(86, 104, 244); stroke: grey; stroke-width: 0.3;"></rect><rect class="bar" x="15" width="14" y="263.6243539771277" height="46.375646022872274" style="fill: rgb(86, 104, 244); stroke: grey; stroke-width: 0.3;"></rect><rect class="bar" x="330" width="14" y="258.3476993933957" height="51.652300606604285" style="fill: rgb(86, 104, 244); stroke: grey; stroke-width: 0.3;"></rect><rect class="bar" x="435" width="14" y="303.50976734482055" height="6.4902326551794545" style="fill: rgb(86, 104, 244); stroke: grey; stroke-width: 0.3;"></rect><rect class="bar" x="90" width="14" y="240.2927965484597" height="69.7072034515403" style="fill: rgb(86, 104, 244); stroke: grey; stroke-width: 0.3;"></rect><rect class="bar" x="195" width="14" y="255.99347057445948" height="54.00652942554052" style="fill: rgb(86, 104, 244); stroke: grey; stroke-width: 0.3;"></rect><rect class="bar" x="60" width="14" y="196.76827122558882" height="113.23172877441118" style="fill: rgb(204, 0, 0); stroke: grey; stroke-width: 0.3;"></rect><rect class="bar" x="210" width="14" y="259.324914952641" height="50.675085047359005" style="fill: rgb(86, 104, 244); stroke: grey; stroke-width: 0.3;"></rect><rect class="bar" x="360" width="14" y="297.2389151804908" height="12.761084819509222" style="fill: rgb(86, 104, 244); stroke: grey; stroke-width: 0.3;"></rect><rect class="bar" x="0" width="14" y="256.3717277017388" height="53.62827229826121" style="fill: rgb(86, 104, 244); stroke: grey; stroke-width: 0.3;"></rect><rect class="bar" x="150" width="14" y="160" height="150" style="fill: rgb(204, 0, 0); stroke: grey; stroke-width: 0.3;"></rect><rect class="bar" x="315" width="14" y="291.5062681186086" height="18.493731881391398" style="fill: rgb(86, 104, 244); stroke: grey; stroke-width: 0.3;"></rect><g class="y axis"><g class="tick" transform="translate(0,310)" style="opacity: 1;"><line x2="-6" y2="0" style="fill: none; stroke: grey;"></line><text dy=".32em" x="-9" y="0" style="text-anchor: end; font-family: sans-serif;">0</text></g><g class="tick" transform="translate(0,270.23942503725044)" style="opacity: 1;"><line x2="-6" y2="0" style="fill: none; stroke: grey;"></line><text dy=".32em" x="-9" y="0" style="text-anchor: end; font-family: sans-serif;">1</text></g><g class="tick" transform="translate(0,230.47885007450088)" style="opacity: 1;"><line x2="-6" y2="0" style="fill: none; stroke: grey;"></line><text dy=".32em" x="-9" y="0" style="text-anchor: end; font-family: sans-serif;">2</text></g><g class="tick" transform="translate(0,190.7182751117513)" style="opacity: 1;"><line x2="-6" y2="0" style="fill: none; stroke: grey;"></line><text dy=".32em" x="-9" y="0" style="text-anchor: end; font-family: sans-serif;">3</text></g><path class="domain" d="M-6,160H0V310H-6" style="fill: none; stroke: grey;"></path></g><g class="x axis" transform="translate(0, 310)"><g class="tick" transform="translate(7.5,0)" style="opacity: 1;"><line y2="6" x2="0" style="fill: none; stroke: grey;"></line></g><g class="tick" transform="translate(22.5,0)" style="opacity: 1;"><line y2="6" x2="0" style="fill: none; stroke: grey;"></line></g><g class="tick" transform="translate(37.5,0)" style="opacity: 1;"><line y2="6" x2="0" style="fill: none; stroke: grey;"></line></g><g class="tick" transform="translate(52.5,0)" style="opacity: 1;"><line y2="6" x2="0" style="fill: none; stroke: grey;"></line></g><g class="tick" transform="translate(67.5,0)" style="opacity: 1;"><line y2="6" x2="0" style="fill: none; stroke: grey;"></line></g><g class="tick" transform="translate(82.5,0)" style="opacity: 1;"><line y2="6" x2="0" style="fill: none; stroke: grey;"></line></g><g class="tick" transform="translate(97.5,0)" style="opacity: 1;"><line y2="6" x2="0" style="fill: none; stroke: grey;"></line></g><g class="tick" transform="translate(112.5,0)" style="opacity: 1;"><line y2="6" x2="0" style="fill: none; stroke: grey;"></line></g><g class="tick" transform="translate(127.5,0)" style="opacity: 1;"><line y2="6" x2="0" style="fill: none; stroke: grey;"></line></g><g class="tick" transform="translate(142.5,0)" style="opacity: 1;"><line y2="6" x2="0" style="fill: none; stroke: grey;"></line></g><g class="tick" transform="translate(157.5,0)" style="opacity: 1;"><line y2="6" x2="0" style="fill: none; stroke: grey;"></line></g><g class="tick" transform="translate(172.5,0)" style="opacity: 1;"><line y2="6" x2="0" style="fill: none; stroke: grey;"></line></g><g class="tick" transform="translate(187.5,0)" style="opacity: 1;"><line y2="6" x2="0" style="fill: none; stroke: grey;"></line></g><g class="tick" transform="translate(202.5,0)" style="opacity: 1;"><line y2="6" x2="0" style="fill: none; stroke: grey;"></line></g><g class="tick" transform="translate(217.5,0)" style="opacity: 1;"><line y2="6" x2="0" style="fill: none; stroke: grey;"></line></g><g class="tick" transform="translate(232.5,0)" style="opacity: 1;"><line y2="6" x2="0" style="fill: none; stroke: grey;"></line></g><g class="tick" transform="translate(247.5,0)" style="opacity: 1;"><line y2="6" x2="0" style="fill: none; stroke: grey;"></line></g><g class="tick" transform="translate(262.5,0)" style="opacity: 1;"><line y2="6" x2="0" style="fill: none; stroke: grey;"></line></g><g class="tick" transform="translate(277.5,0)" style="opacity: 1;"><line y2="6" x2="0" style="fill: none; stroke: grey;"></line></g><g class="tick" transform="translate(292.5,0)" style="opacity: 1;"><line y2="6" x2="0" style="fill: none; stroke: grey;"></line></g><g class="tick" transform="translate(307.5,0)" style="opacity: 1;"><line y2="6" x2="0" style="fill: none; stroke: grey;"></line></g><g class="tick" transform="translate(322.5,0)" style="opacity: 1;"><line y2="6" x2="0" style="fill: none; stroke: grey;"></line></g><g class="tick" transform="translate(337.5,0)" style="opacity: 1;"><line y2="6" x2="0" style="fill: none; stroke: grey;"></line></g><g class="tick" transform="translate(352.5,0)" style="opacity: 1;"><line y2="6" x2="0" style="fill: none; stroke: grey;"></line></g><g class="tick" transform="translate(367.5,0)" style="opacity: 1;"><line y2="6" x2="0" style="fill: none; stroke: grey;"></line></g><g class="tick" transform="translate(382.5,0)" style="opacity: 1;"><line y2="6" x2="0" style="fill: none; stroke: grey;"></line></g><g class="tick" transform="translate(397.5,0)" style="opacity: 1;"><line y2="6" x2="0" style="fill: none; stroke: grey;"></line></g><g class="tick" transform="translate(412.5,0)" style="opacity: 1;"><line y2="6" x2="0" style="fill: none; stroke: grey;"></line></g><g class="tick" transform="translate(427.5,0)" style="opacity: 1;"><line y2="6" x2="0" style="fill: none; stroke: grey;"></line></g><g class="tick" transform="translate(442.5,0)" style="opacity: 1;"><line y2="6" x2="0" style="fill: none; stroke: grey;"></line></g><path class="domain" d="M0,6V0H450V6" style="fill: none; stroke: grey;"></path></g><text text-anchor="middle" transform="translate(465,235)rotate(90)" style="font-family: sans-serif;">Down-regulated DEG</text><rect class="bar" x="135" width="14" y="407.9522865734601" height="62.04771342653987" style="fill: rgb(86, 104, 244); stroke: grey; stroke-width: 0.3;"></rect><rect class="bar" x="375" width="14" y="457.0346291001194" height="12.965370899880611" style="fill: rgb(86, 104, 244); stroke: grey; stroke-width: 0.3;"></rect><rect class="bar" x="240" width="14" y="430.38415697311666" height="39.61584302688334" style="fill: rgb(86, 104, 244); stroke: grey; stroke-width: 0.3;"></rect><rect class="bar" x="165" width="14" y="419.08947806325705" height="50.91052193674295" style="fill: rgb(86, 104, 244); stroke: grey; stroke-width: 0.3;"></rect><rect class="bar" x="270" width="14" y="441.8965092689267" height="28.103490731073293" style="fill: rgb(86, 104, 244); stroke: grey; stroke-width: 0.3;"></rect><rect class="bar" x="180" width="14" y="424.53566587105706" height="45.46433412894294" style="fill: rgb(86, 104, 244); stroke: grey; stroke-width: 0.3;"></rect><rect class="bar" x="420" width="14" y="462.9959224468349" height="7.004077553165075" style="fill: rgb(86, 104, 244); stroke: grey; stroke-width: 0.3;"></rect><rect class="bar" x="405" width="14" y="458.68359105616406" height="11.316408943835938" style="fill: rgb(86, 104, 244); stroke: grey; stroke-width: 0.3;"></rect><rect class="bar" x="225" width="14" y="429.9369276299775" height="40.063072370022496" style="fill: rgb(86, 104, 244); stroke: grey; stroke-width: 0.3;"></rect><rect class="bar" x="120" width="14" y="401.99972446568006" height="68.00027553431994" style="fill: rgb(86, 104, 244); stroke: grey; stroke-width: 0.3;"></rect><rect class="bar" x="300" width="14" y="444.88331066385945" height="25.116689336140553" style="fill: rgb(86, 104, 244); stroke: grey; stroke-width: 0.3;"></rect><rect class="bar" x="285" width="14" y="443.8289651775028" height="26.171034822497177" style="fill: rgb(86, 104, 244); stroke: grey; stroke-width: 0.3;"></rect><rect class="bar" x="255" width="14" y="440.8102191682651" height="29.18978083173488" style="fill: rgb(86, 104, 244); stroke: grey; stroke-width: 0.3;"></rect><rect class="bar" x="45" width="14" y="388.2857014239957" height="81.7142985760043" style="fill: rgb(86, 104, 244); stroke: grey; stroke-width: 0.3;"></rect><rect class="bar" x="390" width="14" y="458.2730666466423" height="11.726933353357708" style="fill: rgb(86, 104, 244); stroke: grey; stroke-width: 0.3;"></rect><rect class="bar" x="30" width="14" y="385.1523124314736" height="84.8476875685264" style="fill: rgb(86, 104, 244); stroke: grey; stroke-width: 0.3;"></rect><rect class="bar" x="345" width="14" y="453.91153032658497" height="16.088469673415034" style="fill: rgb(86, 104, 244); stroke: grey; stroke-width: 0.3;"></rect><rect class="bar" x="105" width="14" y="401.28038861087146" height="68.71961138912854" style="fill: rgb(86, 104, 244); stroke: grey; stroke-width: 0.3;"></rect><rect class="bar" x="75" width="14" y="396.40349956995647" height="73.59650043004353" style="fill: rgb(86, 104, 244); stroke: grey; stroke-width: 0.3;"></rect><rect class="bar" x="15" width="14" y="384.9841843463849" height="85.0158156536151" style="fill: rgb(86, 104, 244); stroke: grey; stroke-width: 0.3;"></rect><rect class="bar" x="330" width="14" y="451.8595024892703" height="18.140497510729688" style="fill: rgb(86, 104, 244); stroke: grey; stroke-width: 0.3;"></rect><rect class="bar" x="435" width="14" y="464.35911351951887" height="5.640886480481129" style="fill: rgb(86, 104, 244); stroke: grey; stroke-width: 0.3;"></rect><rect class="bar" x="90" width="14" y="396.6883316917165" height="73.31166830828352" style="fill: rgb(86, 104, 244); stroke: grey; stroke-width: 0.3;"></rect><rect class="bar" x="195" width="14" y="426.7528750403973" height="43.24712495960267" style="fill: rgb(86, 104, 244); stroke: grey; stroke-width: 0.3;"></rect><rect class="bar" x="60" width="14" y="389.71014145089435" height="80.28985854910565" style="fill: rgb(86, 104, 244); stroke: grey; stroke-width: 0.3;"></rect><rect class="bar" x="210" width="14" y="426.92428816092854" height="43.07571183907146" style="fill: rgb(86, 104, 244); stroke: grey; stroke-width: 0.3;"></rect><rect class="bar" x="360" width="14" y="454.60242642499054" height="15.39757357500946" style="fill: rgb(86, 104, 244); stroke: grey; stroke-width: 0.3;"></rect><rect class="bar" x="0" width="14" y="358.5650787909764" height="111.43492120902363" style="fill: rgb(204, 0, 0); stroke: grey; stroke-width: 0.3;"></rect><rect class="bar" x="150" width="14" y="415.43436359025554" height="54.56563640974446" style="fill: rgb(86, 104, 244); stroke: grey; stroke-width: 0.3;"></rect><rect class="bar" x="315" width="14" y="450.96369298149045" height="19.036307018509547" style="fill: rgb(86, 104, 244); stroke: grey; stroke-width: 0.3;"></rect><text text-anchor="middle" transform="translate(465,395)rotate(90)" style="font-family: sans-serif;">DEG (both side)</text><g class="x axis" transform="translate(0,470)"><g class="tick" transform="translate(7.5,0)" style="opacity: 1;"><line y2="6" x2="0" style="fill: none; stroke: grey;"></line></g><g class="tick" transform="translate(22.5,0)" style="opacity: 1;"><line y2="6" x2="0" style="fill: none; stroke: grey;"></line></g><g class="tick" transform="translate(37.5,0)" style="opacity: 1;"><line y2="6" x2="0" style="fill: none; stroke: grey;"></line></g><g class="tick" transform="translate(52.5,0)" style="opacity: 1;"><line y2="6" x2="0" style="fill: none; stroke: grey;"></line></g><g class="tick" transform="translate(67.5,0)" style="opacity: 1;"><line y2="6" x2="0" style="fill: none; stroke: grey;"></line></g><g class="tick" transform="translate(82.5,0)" style="opacity: 1;"><line y2="6" x2="0" style="fill: none; stroke: grey;"></line></g><g class="tick" transform="translate(97.5,0)" style="opacity: 1;"><line y2="6" x2="0" style="fill: none; stroke: grey;"></line></g><g class="tick" transform="translate(112.5,0)" style="opacity: 1;"><line y2="6" x2="0" style="fill: none; stroke: grey;"></line></g><g class="tick" transform="translate(127.5,0)" style="opacity: 1;"><line y2="6" x2="0" style="fill: none; stroke: grey;"></line></g><g class="tick" transform="translate(142.5,0)" style="opacity: 1;"><line y2="6" x2="0" style="fill: none; stroke: grey;"></line></g><g class="tick" transform="translate(157.5,0)" style="opacity: 1;"><line y2="6" x2="0" style="fill: none; stroke: grey;"></line></g><g class="tick" transform="translate(172.5,0)" style="opacity: 1;"><line y2="6" x2="0" style="fill: none; stroke: grey;"></line></g><g class="tick" transform="translate(187.5,0)" style="opacity: 1;"><line y2="6" x2="0" style="fill: none; stroke: grey;"></line></g><g class="tick" transform="translate(202.5,0)" style="opacity: 1;"><line y2="6" x2="0" style="fill: none; stroke: grey;"></line></g><g class="tick" transform="translate(217.5,0)" style="opacity: 1;"><line y2="6" x2="0" style="fill: none; stroke: grey;"></line></g><g class="tick" transform="translate(232.5,0)" style="opacity: 1;"><line y2="6" x2="0" style="fill: none; stroke: grey;"></line></g><g class="tick" transform="translate(247.5,0)" style="opacity: 1;"><line y2="6" x2="0" style="fill: none; stroke: grey;"></line></g><g class="tick" transform="translate(262.5,0)" style="opacity: 1;"><line y2="6" x2="0" style="fill: none; stroke: grey;"></line></g><g class="tick" transform="translate(277.5,0)" style="opacity: 1;"><line y2="6" x2="0" style="fill: none; stroke: grey;"></line></g><g class="tick" transform="translate(292.5,0)" style="opacity: 1;"><line y2="6" x2="0" style="fill: none; stroke: grey;"></line></g><g class="tick" transform="translate(307.5,0)" style="opacity: 1;"><line y2="6" x2="0" style="fill: none; stroke: grey;"></line></g><g class="tick" transform="translate(322.5,0)" style="opacity: 1;"><line y2="6" x2="0" style="fill: none; stroke: grey;"></line></g><g class="tick" transform="translate(337.5,0)" style="opacity: 1;"><line y2="6" x2="0" style="fill: none; stroke: grey;"></line></g><g class="tick" transform="translate(352.5,0)" style="opacity: 1;"><line y2="6" x2="0" style="fill: none; stroke: grey;"></line></g><g class="tick" transform="translate(367.5,0)" style="opacity: 1;"><line y2="6" x2="0" style="fill: none; stroke: grey;"></line></g><g class="tick" transform="translate(382.5,0)" style="opacity: 1;"><line y2="6" x2="0" style="fill: none; stroke: grey;"></line></g><g class="tick" transform="translate(397.5,0)" style="opacity: 1;"><line y2="6" x2="0" style="fill: none; stroke: grey;"></line></g><g class="tick" transform="translate(412.5,0)" style="opacity: 1;"><line y2="6" x2="0" style="fill: none; stroke: grey;"></line></g><g class="tick" transform="translate(427.5,0)" style="opacity: 1;"><line y2="6" x2="0" style="fill: none; stroke: grey;"></line></g><g class="tick" transform="translate(442.5,0)" style="opacity: 1;"><line y2="6" x2="0" style="fill: none; stroke: grey;"></line></g><path class="domain" d="M0,6V0H450V6" style="fill: none; stroke: grey;"></path></g><g class="y axis"><g class="tick" transform="translate(0,470)" style="opacity: 1;"><line x2="-6" y2="0" style="fill: none; stroke: grey;"></line><text dy=".32em" x="-9" y="0" style="text-anchor: end; font-family: sans-serif;">0</text></g><g class="tick" transform="translate(0,430.23942503725044)" style="opacity: 1;"><line x2="-6" y2="0" style="fill: none; stroke: grey;"></line><text dy=".32em" x="-9" y="0" style="text-anchor: end; font-family: sans-serif;">1</text></g><g class="tick" transform="translate(0,390.4788500745009)" style="opacity: 1;"><line x2="-6" y2="0" style="fill: none; stroke: grey;"></line><text dy=".32em" x="-9" y="0" style="text-anchor: end; font-family: sans-serif;">2</text></g><g class="tick" transform="translate(0,350.71827511175127)" style="opacity: 1;"><line x2="-6" y2="0" style="fill: none; stroke: grey;"></line><text dy=".32em" x="-9" y="0" style="text-anchor: end; font-family: sans-serif;">3</text></g><path class="domain" d="M-6,320H0V470H-6" style="fill: none; stroke: grey;"></path></g><text text-anchor="middle" transform="translate(-35,235)rotate(-90)" style="font-family: sans-serif;">-log 10 P-value</text></g></svg>