<svg width="920" height="483.5"><g transform="translate(80,30)"><rect x="75" y="70.60990442789708" width="14" height="179.39009557210292" style="fill: rgb(204, 0, 0); stroke: grey;"></rect><rect x="210" y="175.05857098020755" width="14" height="74.94142901979245" style="fill: rgb(86, 104, 244); stroke: grey;"></rect><rect x="630" y="248.15012342789223" width="14" height="1.8498765721077746" style="fill: rgb(86, 104, 244); stroke: grey;"></rect><rect x="135" y="130.475347759886" width="14" height="119.524652240114" style="fill: rgb(86, 104, 244); stroke: grey;"></rect><rect x="90" y="86.02169240306279" width="14" height="163.9783075969372" style="fill: rgb(86, 104, 244); stroke: grey;"></rect><rect x="30" y="56.13211614193306" width="14" height="193.86788385806693" style="fill: rgb(204, 0, 0); stroke: grey;"></rect><rect x="150" y="133.02138025771384" width="14" height="116.97861974228616" style="fill: rgb(86, 104, 244); stroke: grey;"></rect><rect x="690" y="249.43441993733308" width="14" height="0.5655800626669247" style="fill: rgb(86, 104, 244); stroke: grey;"></rect><rect x="720" y="249.51361990091232" width="14" height="0.48638009908768254" style="fill: rgb(86, 104, 244); stroke: grey;"></rect><rect x="765" y="249.87667201686426" width="14" height="0.1233279831357379" style="fill: rgb(86, 104, 244); stroke: grey;"></rect><rect x="510" y="239.5697900958785" width="14" height="10.430209904121511" style="fill: rgb(86, 104, 244); stroke: grey;"></rect><rect x="465" y="236.51709485394406" width="14" height="13.482905146055941" style="fill: rgb(86, 104, 244); stroke: grey;"></rect><rect x="615" y="248.10456676396285" width="14" height="1.8954332360371495" style="fill: rgb(86, 104, 244); stroke: grey;"></rect><rect x="660" y="248.94866079578927" width="14" height="1.0513392042107341" style="fill: rgb(86, 104, 244); stroke: grey;"></rect><rect x="705" y="249.50119813934015" width="14" height="0.498801860659853" style="fill: rgb(86, 104, 244); stroke: grey;"></rect><rect x="795" y="249.9066259549979" width="14" height="0.09337404500209345" style="fill: rgb(86, 104, 244); stroke: grey;"></rect><rect x="750" y="249.82416559787572" width="14" height="0.1758344021242806" style="fill: rgb(86, 104, 244); stroke: grey;"></rect><rect x="780" y="249.8824159856666" width="14" height="0.11758401433340282" style="fill: rgb(86, 104, 244); stroke: grey;"></rect><rect x="585" y="247.21439641550515" width="14" height="2.785603584494851" style="fill: rgb(86, 104, 244); stroke: grey;"></rect><rect x="675" y="249.38810313497805" width="14" height="0.6118968650219472" style="fill: rgb(86, 104, 244); stroke: grey;"></rect><rect x="45" y="64.44109162331813" width="14" height="185.55890837668187" style="fill: rgb(204, 0, 0); stroke: grey;"></rect><rect x="315" y="223.24672114309337" width="14" height="26.753278856906633" style="fill: rgb(86, 104, 244); stroke: grey;"></rect><rect x="570" y="246.1453085333973" width="14" height="3.854691466602702" style="fill: rgb(86, 104, 244); stroke: grey;"></rect><rect x="195" y="154.08971172106112" width="14" height="95.91028827893888" style="fill: rgb(86, 104, 244); stroke: grey;"></rect><rect x="165" y="136.19518012048604" width="14" height="113.80481987951396" style="fill: rgb(86, 104, 244); stroke: grey;"></rect><rect x="105" y="115.05601291537332" width="14" height="134.94398708462668" style="fill: rgb(86, 104, 244); stroke: grey;"></rect><rect x="330" y="225.40441602933763" width="14" height="24.595583970662375" style="fill: rgb(86, 104, 244); stroke: grey;"></rect><rect x="15" y="34.106807026029806" width="14" height="215.8931929739702" style="fill: rgb(204, 0, 0); stroke: grey;"></rect><rect x="540" y="243.95527818547365" width="14" height="6.044721814526355" style="fill: rgb(86, 104, 244); stroke: grey;"></rect><rect x="60" y="65.43451906546979" width="14" height="184.56548093453023" style="fill: rgb(204, 0, 0); stroke: grey;"></rect><rect x="270" y="189.83732319885246" width="14" height="60.16267680114754" style="fill: rgb(86, 104, 244); stroke: grey;"></rect><rect x="480" y="237.5644421262206" width="14" height="12.435557873779402" style="fill: rgb(86, 104, 244); stroke: grey;"></rect><rect x="420" y="232.19184434474127" width="14" height="17.80815565525873" style="fill: rgb(86, 104, 244); stroke: grey;"></rect><rect x="600" y="247.2821378206728" width="14" height="2.7178621793271986" style="fill: rgb(86, 104, 244); stroke: grey;"></rect><rect x="375" y="229.68072861078642" width="14" height="20.319271389213583" style="fill: rgb(86, 104, 244); stroke: grey;"></rect><rect x="645" y="248.7793007922412" width="14" height="1.2206992077587984" style="fill: rgb(86, 104, 244); stroke: grey;"></rect><rect x="255" y="185.60346115217257" width="14" height="64.39653884782743" style="fill: rgb(86, 104, 244); stroke: grey;"></rect><rect x="390" y="229.97285061973403" width="14" height="20.027149380265968" style="fill: rgb(86, 104, 244); stroke: grey;"></rect><rect x="435" y="235.55200207196776" width="14" height="14.447997928032237" style="fill: rgb(86, 104, 244); stroke: grey;"></rect><rect x="0" y="0" width="14" height="250" style="fill: rgb(204, 0, 0); stroke: grey;"></rect><rect x="180" y="149.98682878296748" width="14" height="100.01317121703252" style="fill: rgb(86, 104, 244); stroke: grey;"></rect><rect x="525" y="240.4311953216126" width="14" height="9.568804678387409" style="fill: rgb(86, 104, 244); stroke: grey;"></rect><rect x="450" y="236.11408606341382" width="14" height="13.885913936586178" style="fill: rgb(86, 104, 244); stroke: grey;"></rect><rect x="225" y="178.7007518683098" width="14" height="71.2992481316902" style="fill: rgb(86, 104, 244); stroke: grey;"></rect><rect x="405" y="231.59969751165323" width="14" height="18.400302488346767" style="fill: rgb(86, 104, 244); stroke: grey;"></rect><rect x="360" y="228.373026570381" width="14" height="21.626973429619" style="fill: rgb(86, 104, 244); stroke: grey;"></rect><rect x="345" y="226.61219128424852" width="14" height="23.387808715751476" style="fill: rgb(86, 104, 244); stroke: grey;"></rect><rect x="555" y="245.16891807344228" width="14" height="4.831081926557715" style="fill: rgb(86, 104, 244); stroke: grey;"></rect><rect x="495" y="239.3262185437901" width="14" height="10.673781456209895" style="fill: rgb(86, 104, 244); stroke: grey;"></rect><rect x="300" y="215.7946660544953" width="14" height="34.20533394550469" style="fill: rgb(86, 104, 244); stroke: grey;"></rect><rect x="240" y="179.08006212308592" width="14" height="70.91993787691408" style="fill: rgb(86, 104, 244); stroke: grey;"></rect><rect x="120" y="128.538236854062" width="14" height="121.461763145938" style="fill: rgb(86, 104, 244); stroke: grey;"></rect><rect x="285" y="204.9652224380859" width="14" height="45.0347775619141" style="fill: rgb(86, 104, 244); stroke: grey;"></rect><rect x="735" y="249.76025831064226" width="14" height="0.23974168935774287" style="fill: rgb(86, 104, 244); stroke: grey;"></rect><g><text transform="translate(85,258)rotate(-70)" style="text-anchor: end; font-size: 11px; font-family: sans-serif;">Adipose_Subcutaneous</text><text transform="translate(220,258)rotate(-70)" style="text-anchor: end; font-size: 11px; font-family: sans-serif;">Adipose_Visceral_Omentum</text><text transform="translate(640,258)rotate(-70)" style="text-anchor: end; font-size: 11px; font-family: sans-serif;">Adrenal_Gland</text><text transform="translate(145,258)rotate(-70)" style="text-anchor: end; font-size: 11px; font-family: sans-serif;">Artery_Aorta</text><text transform="translate(100,258)rotate(-70)" style="text-anchor: end; font-size: 11px; font-family: sans-serif;">Artery_Coronary</text><text transform="translate(40,258)rotate(-70)" style="text-anchor: end; font-size: 11px; font-family: sans-serif;">Artery_Tibial</text><text transform="translate(160,258)rotate(-70)" style="text-anchor: end; font-size: 11px; font-family: sans-serif;">Bladder</text><text transform="translate(700,258)rotate(-70)" style="text-anchor: end; font-size: 11px; font-family: sans-serif;">Brain_Amygdala</text><text transform="translate(730,258)rotate(-70)" style="text-anchor: end; font-size: 11px; font-family: sans-serif;">Brain_Anterior_cingulate_cortex_BA24</text><text transform="translate(775,258)rotate(-70)" style="text-anchor: end; font-size: 11px; font-family: sans-serif;">Brain_Caudate_basal_ganglia</text><text transform="translate(520,258)rotate(-70)" style="text-anchor: end; font-size: 11px; font-family: sans-serif;">Brain_Cerebellar_Hemisphere</text><text transform="translate(475,258)rotate(-70)" style="text-anchor: end; font-size: 11px; font-family: sans-serif;">Brain_Cerebellum</text><text transform="translate(625,258)rotate(-70)" style="text-anchor: end; font-size: 11px; font-family: sans-serif;">Brain_Cortex</text><text transform="translate(670,258)rotate(-70)" style="text-anchor: end; font-size: 11px; font-family: sans-serif;">Brain_Frontal_Cortex_BA9</text><text transform="translate(715,258)rotate(-70)" style="text-anchor: end; font-size: 11px; font-family: sans-serif;">Brain_Hippocampus</text><text transform="translate(805,258)rotate(-70)" style="text-anchor: end; font-size: 11px; font-family: sans-serif;">Brain_Hypothalamus</text><text transform="translate(760,258)rotate(-70)" style="text-anchor: end; font-size: 11px; font-family: sans-serif;">Brain_Nucleus_accumbens_basal_ganglia</text><text transform="translate(790,258)rotate(-70)" style="text-anchor: end; font-size: 11px; font-family: sans-serif;">Brain_Putamen_basal_ganglia</text><text transform="translate(595,258)rotate(-70)" style="text-anchor: end; font-size: 11px; font-family: sans-serif;">Brain_Spinal_cord_cervical_c-1</text><text transform="translate(685,258)rotate(-70)" style="text-anchor: end; font-size: 11px; font-family: sans-serif;">Brain_Substantia_nigra</text><text transform="translate(55,258)rotate(-70)" style="text-anchor: end; font-size: 11px; font-family: sans-serif;">Breast_Mammary_Tissue</text><text transform="translate(325,258)rotate(-70)" style="text-anchor: end; font-size: 11px; font-family: sans-serif;">Cells_Cultured_fibroblasts</text><text transform="translate(580,258)rotate(-70)" style="text-anchor: end; font-size: 11px; font-family: sans-serif;">Cells_EBV-transformed_lymphocytes</text><text transform="translate(205,258)rotate(-70)" style="text-anchor: end; font-size: 11px; font-family: sans-serif;">Cervix_Ectocervix</text><text transform="translate(175,258)rotate(-70)" style="text-anchor: end; font-size: 11px; font-family: sans-serif;">Cervix_Endocervix</text><text transform="translate(115,258)rotate(-70)" style="text-anchor: end; font-size: 11px; font-family: sans-serif;">Colon_Sigmoid</text><text transform="translate(340,258)rotate(-70)" style="text-anchor: end; font-size: 11px; font-family: sans-serif;">Colon_Transverse</text><text transform="translate(25,258)rotate(-70)" style="text-anchor: end; font-size: 11px; font-family: sans-serif;">Esophagus_Gastroesophageal_Junction</text><text transform="translate(550,258)rotate(-70)" style="text-anchor: end; font-size: 11px; font-family: sans-serif;">Esophagus_Mucosa</text><text transform="translate(70,258)rotate(-70)" style="text-anchor: end; font-size: 11px; font-family: sans-serif;">Esophagus_Muscularis</text><text transform="translate(280,258)rotate(-70)" style="text-anchor: end; font-size: 11px; font-family: sans-serif;">Fallopian_Tube</text><text transform="translate(490,258)rotate(-70)" style="text-anchor: end; font-size: 11px; font-family: sans-serif;">Heart_Atrial_Appendage</text><text transform="translate(430,258)rotate(-70)" style="text-anchor: end; font-size: 11px; font-family: sans-serif;">Heart_Left_Ventricle</text><text transform="translate(610,258)rotate(-70)" style="text-anchor: end; font-size: 11px; font-family: sans-serif;">Kidney_Cortex</text><text transform="translate(385,258)rotate(-70)" style="text-anchor: end; font-size: 11px; font-family: sans-serif;">Kidney_Medulla</text><text transform="translate(655,258)rotate(-70)" style="text-anchor: end; font-size: 11px; font-family: sans-serif;">Liver</text><text transform="translate(265,258)rotate(-70)" style="text-anchor: end; font-size: 11px; font-family: sans-serif;">Lung</text><text transform="translate(400,258)rotate(-70)" style="text-anchor: end; font-size: 11px; font-family: sans-serif;">Minor_Salivary_Gland</text><text transform="translate(445,258)rotate(-70)" style="text-anchor: end; font-size: 11px; font-family: sans-serif;">Muscle_Skeletal</text><text transform="translate(10,258)rotate(-70)" style="text-anchor: end; font-size: 11px; font-family: sans-serif;">Nerve_Tibial</text><text transform="translate(190,258)rotate(-70)" style="text-anchor: end; font-size: 11px; font-family: sans-serif;">Ovary</text><text transform="translate(535,258)rotate(-70)" style="text-anchor: end; font-size: 11px; font-family: sans-serif;">Pancreas</text><text transform="translate(460,258)rotate(-70)" style="text-anchor: end; font-size: 11px; font-family: sans-serif;">Pituitary</text><text transform="translate(235,258)rotate(-70)" style="text-anchor: end; font-size: 11px; font-family: sans-serif;">Prostate</text><text transform="translate(415,258)rotate(-70)" style="text-anchor: end; font-size: 11px; font-family: sans-serif;">Skin_Not_Sun_Exposed_Suprapubic</text><text transform="translate(370,258)rotate(-70)" style="text-anchor: end; font-size: 11px; font-family: sans-serif;">Skin_Sun_Exposed_Lower_leg</text><text transform="translate(355,258)rotate(-70)" style="text-anchor: end; font-size: 11px; font-family: sans-serif;">Small_Intestine_Terminal_Ileum</text><text transform="translate(565,258)rotate(-70)" style="text-anchor: end; font-size: 11px; font-family: sans-serif;">Spleen</text><text transform="translate(505,258)rotate(-70)" style="text-anchor: end; font-size: 11px; font-family: sans-serif;">Stomach</text><text transform="translate(310,258)rotate(-70)" style="text-anchor: end; font-size: 11px; font-family: sans-serif;">Testis</text><text transform="translate(250,258)rotate(-70)" style="text-anchor: end; font-size: 11px; font-family: sans-serif;">Thyroid</text><text transform="translate(130,258)rotate(-70)" style="text-anchor: end; font-size: 11px; font-family: sans-serif;">Uterus</text><text transform="translate(295,258)rotate(-70)" style="text-anchor: end; font-size: 11px; font-family: sans-serif;">Vagina</text><text transform="translate(745,258)rotate(-70)" style="text-anchor: end; font-size: 11px; font-family: sans-serif;">Whole_Blood</text></g><line x1="0" x2="810" y1="76.40864220038979" y2="76.40864220038979" style="stroke: black; stroke-dasharray: 3, 3;"></line><g class="y axis"><g class="tick" transform="translate(0,250)" style="opacity: 1;"><line x2="-6" y2="0" style="fill: none; stroke: grey;"></line><text dy=".32em" x="-9" y="0" style="text-anchor: end; font-size: 11px; font-family: sans-serif;">0.0</text></g><g class="tick" transform="translate(0,221.38689286559242)" style="opacity: 1;"><line x2="-6" y2="0" style="fill: none; stroke: grey;"></line><text dy=".32em" x="-9" y="0" style="text-anchor: end; font-size: 11px; font-family: sans-serif;">0.5</text></g><g class="tick" transform="translate(0,192.7737857311848)" style="opacity: 1;"><line x2="-6" y2="0" style="fill: none; stroke: grey;"></line><text dy=".32em" x="-9" y="0" style="text-anchor: end; font-size: 11px; font-family: sans-serif;">1.0</text></g><g class="tick" transform="translate(0,164.16067859677725)" style="opacity: 1;"><line x2="-6" y2="0" style="fill: none; stroke: grey;"></line><text dy=".32em" x="-9" y="0" style="text-anchor: end; font-size: 11px; font-family: sans-serif;">1.5</text></g><g class="tick" transform="translate(0,135.54757146236963)" style="opacity: 1;"><line x2="-6" y2="0" style="fill: none; stroke: grey;"></line><text dy=".32em" x="-9" y="0" style="text-anchor: end; font-size: 11px; font-family: sans-serif;">2.0</text></g><g class="tick" transform="translate(0,106.93446432796205)" style="opacity: 1;"><line x2="-6" y2="0" style="fill: none; stroke: grey;"></line><text dy=".32em" x="-9" y="0" style="text-anchor: end; font-size: 11px; font-family: sans-serif;">2.5</text></g><g class="tick" transform="translate(0,78.32135719355446)" style="opacity: 1;"><line x2="-6" y2="0" style="fill: none; stroke: grey;"></line><text dy=".32em" x="-9" y="0" style="text-anchor: end; font-size: 11px; font-family: sans-serif;">3.0</text></g><g class="tick" transform="translate(0,49.70825005914686)" style="opacity: 1;"><line x2="-6" y2="0" style="fill: none; stroke: grey;"></line><text dy=".32em" x="-9" y="0" style="text-anchor: end; font-size: 11px; font-family: sans-serif;">3.5</text></g><g class="tick" transform="translate(0,21.095142924739267)" style="opacity: 1;"><line x2="-6" y2="0" style="fill: none; stroke: grey;"></line><text dy=".32em" x="-9" y="0" style="text-anchor: end; font-size: 11px; font-family: sans-serif;">4.0</text></g><path class="domain" d="M-6,0H0V250H-6" style="fill: none; stroke: grey;"></path></g><g class="x axis" transform="translate(0,250)"><g class="tick" transform="translate(7.5,0)" style="opacity: 1;"><line y2="6" x2="0" style="fill: none; stroke: grey;"></line></g><g class="tick" transform="translate(22.5,0)" style="opacity: 1;"><line y2="6" x2="0" style="fill: none; stroke: grey;"></line></g><g class="tick" transform="translate(37.5,0)" style="opacity: 1;"><line y2="6" x2="0" style="fill: none; stroke: grey;"></line></g><g class="tick" transform="translate(52.5,0)" style="opacity: 1;"><line y2="6" x2="0" style="fill: none; stroke: grey;"></line></g><g class="tick" transform="translate(67.5,0)" style="opacity: 1;"><line y2="6" x2="0" style="fill: none; stroke: grey;"></line></g><g class="tick" transform="translate(82.5,0)" style="opacity: 1;"><line y2="6" x2="0" style="fill: none; stroke: grey;"></line></g><g class="tick" transform="translate(97.5,0)" style="opacity: 1;"><line y2="6" x2="0" style="fill: none; stroke: grey;"></line></g><g class="tick" transform="translate(112.5,0)" style="opacity: 1;"><line y2="6" x2="0" style="fill: none; stroke: grey;"></line></g><g class="tick" transform="translate(127.5,0)" style="opacity: 1;"><line y2="6" x2="0" style="fill: none; stroke: grey;"></line></g><g class="tick" transform="translate(142.5,0)" style="opacity: 1;"><line y2="6" x2="0" style="fill: none; stroke: grey;"></line></g><g class="tick" transform="translate(157.5,0)" style="opacity: 1;"><line y2="6" x2="0" style="fill: none; stroke: grey;"></line></g><g class="tick" transform="translate(172.5,0)" style="opacity: 1;"><line y2="6" x2="0" style="fill: none; stroke: grey;"></line></g><g class="tick" transform="translate(187.5,0)" style="opacity: 1;"><line y2="6" x2="0" style="fill: none; stroke: grey;"></line></g><g class="tick" transform="translate(202.5,0)" style="opacity: 1;"><line y2="6" x2="0" style="fill: none; stroke: grey;"></line></g><g class="tick" transform="translate(217.5,0)" style="opacity: 1;"><line y2="6" x2="0" style="fill: none; stroke: grey;"></line></g><g class="tick" transform="translate(232.5,0)" style="opacity: 1;"><line y2="6" x2="0" style="fill: none; stroke: grey;"></line></g><g class="tick" transform="translate(247.5,0)" style="opacity: 1;"><line y2="6" x2="0" style="fill: none; stroke: grey;"></line></g><g class="tick" transform="translate(262.5,0)" style="opacity: 1;"><line y2="6" x2="0" style="fill: none; stroke: grey;"></line></g><g class="tick" transform="translate(277.5,0)" style="opacity: 1;"><line y2="6" x2="0" style="fill: none; stroke: grey;"></line></g><g class="tick" transform="translate(292.5,0)" style="opacity: 1;"><line y2="6" x2="0" style="fill: none; stroke: grey;"></line></g><g class="tick" transform="translate(307.5,0)" style="opacity: 1;"><line y2="6" x2="0" style="fill: none; stroke: grey;"></line></g><g class="tick" transform="translate(322.5,0)" style="opacity: 1;"><line y2="6" x2="0" style="fill: none; stroke: grey;"></line></g><g class="tick" transform="translate(337.5,0)" style="opacity: 1;"><line y2="6" x2="0" style="fill: none; stroke: grey;"></line></g><g class="tick" transform="translate(352.5,0)" style="opacity: 1;"><line y2="6" x2="0" style="fill: none; stroke: grey;"></line></g><g class="tick" transform="translate(367.5,0)" style="opacity: 1;"><line y2="6" x2="0" style="fill: none; stroke: grey;"></line></g><g class="tick" transform="translate(382.5,0)" style="opacity: 1;"><line y2="6" x2="0" style="fill: none; stroke: grey;"></line></g><g class="tick" transform="translate(397.5,0)" style="opacity: 1;"><line y2="6" x2="0" style="fill: none; stroke: grey;"></line></g><g class="tick" transform="translate(412.5,0)" style="opacity: 1;"><line y2="6" x2="0" style="fill: none; stroke: grey;"></line></g><g class="tick" transform="translate(427.5,0)" style="opacity: 1;"><line y2="6" x2="0" style="fill: none; stroke: grey;"></line></g><g class="tick" transform="translate(442.5,0)" style="opacity: 1;"><line y2="6" x2="0" style="fill: none; stroke: grey;"></line></g><g class="tick" transform="translate(457.5,0)" style="opacity: 1;"><line y2="6" x2="0" style="fill: none; stroke: grey;"></line></g><g class="tick" transform="translate(472.5,0)" style="opacity: 1;"><line y2="6" x2="0" style="fill: none; stroke: grey;"></line></g><g class="tick" transform="translate(487.5,0)" style="opacity: 1;"><line y2="6" x2="0" style="fill: none; stroke: grey;"></line></g><g class="tick" transform="translate(502.5,0)" style="opacity: 1;"><line y2="6" x2="0" style="fill: none; stroke: grey;"></line></g><g class="tick" transform="translate(517.5,0)" style="opacity: 1;"><line y2="6" x2="0" style="fill: none; stroke: grey;"></line></g><g class="tick" transform="translate(532.5,0)" style="opacity: 1;"><line y2="6" x2="0" style="fill: none; stroke: grey;"></line></g><g class="tick" transform="translate(547.5,0)" style="opacity: 1;"><line y2="6" x2="0" style="fill: none; stroke: grey;"></line></g><g class="tick" transform="translate(562.5,0)" style="opacity: 1;"><line y2="6" x2="0" style="fill: none; stroke: grey;"></line></g><g class="tick" transform="translate(577.5,0)" style="opacity: 1;"><line y2="6" x2="0" style="fill: none; stroke: grey;"></line></g><g class="tick" transform="translate(592.5,0)" style="opacity: 1;"><line y2="6" x2="0" style="fill: none; stroke: grey;"></line></g><g class="tick" transform="translate(607.5,0)" style="opacity: 1;"><line y2="6" x2="0" style="fill: none; stroke: grey;"></line></g><g class="tick" transform="translate(622.5,0)" style="opacity: 1;"><line y2="6" x2="0" style="fill: none; stroke: grey;"></line></g><g class="tick" transform="translate(637.5,0)" style="opacity: 1;"><line y2="6" x2="0" style="fill: none; stroke: grey;"></line></g><g class="tick" transform="translate(652.5,0)" style="opacity: 1;"><line y2="6" x2="0" style="fill: none; stroke: grey;"></line></g><g class="tick" transform="translate(667.5,0)" style="opacity: 1;"><line y2="6" x2="0" style="fill: none; stroke: grey;"></line></g><g class="tick" transform="translate(682.5,0)" style="opacity: 1;"><line y2="6" x2="0" style="fill: none; stroke: grey;"></line></g><g class="tick" transform="translate(697.5,0)" style="opacity: 1;"><line y2="6" x2="0" style="fill: none; stroke: grey;"></line></g><g class="tick" transform="translate(712.5,0)" style="opacity: 1;"><line y2="6" x2="0" style="fill: none; stroke: grey;"></line></g><g class="tick" transform="translate(727.5,0)" style="opacity: 1;"><line y2="6" x2="0" style="fill: none; stroke: grey;"></line></g><g class="tick" transform="translate(742.5,0)" style="opacity: 1;"><line y2="6" x2="0" style="fill: none; stroke: grey;"></line></g><g class="tick" transform="translate(757.5,0)" style="opacity: 1;"><line y2="6" x2="0" style="fill: none; stroke: grey;"></line></g><g class="tick" transform="translate(772.5,0)" style="opacity: 1;"><line y2="6" x2="0" style="fill: none; stroke: grey;"></line></g><g class="tick" transform="translate(787.5,0)" style="opacity: 1;"><line y2="6" x2="0" style="fill: none; stroke: grey;"></line></g><g class="tick" transform="translate(802.5,0)" style="opacity: 1;"><line y2="6" x2="0" style="fill: none; stroke: grey;"></line></g><path class="domain" d="M0,6V0H810V6" style="fill: none; stroke: grey;"></path></g><text text-anchor="middle" transform="translate(-55,125)rotate(-90)" style="font-family: sans-serif;">-log 10 P-value</text></g></svg>