<svg class="plotSVG" width="810" height="430"><g transform="translate(180,60)"><rect class="bar" x="0" width="6.89070058256692" y="1.4925373134328361" height="13.432835820895525" fill="lightgreen"></rect><rect class="bar" x="0" width="35.96879853213442" y="16.417910447761198" height="13.432835820895525" fill="lightgreen"></rect><rect class="bar" x="0" width="28.22203642519615" y="31.34328358208956" height="13.432835820895525" fill="lightgreen"></rect><rect class="bar" x="0" width="21.25750742583746" y="46.268656716417915" height="13.432835820895525" fill="lightgreen"></rect><rect class="bar" x="0" width="7.860188083227398" y="61.194029850746276" height="13.432835820895525" fill="lightgreen"></rect><rect class="bar" x="0" width="10.30377813763001" y="76.11940298507464" height="13.432835820895525" fill="lightgreen"></rect><rect class="bar" x="0" width="100.46248954891729" y="91.044776119403" height="13.432835820895525" fill="lightgreen"></rect><rect class="bar" x="0" width="25.775835542694807" y="105.97014925373135" height="13.432835820895525" fill="lightgreen"></rect><rect class="bar" x="0" width="9.920131453122686" y="120.89552238805972" height="13.432835820895525" fill="lightgreen"></rect><rect class="bar" x="0" width="18.07650347955007" y="135.8208955223881" height="13.432835820895525" fill="lightgreen"></rect><rect class="bar" x="0" width="15.626386354900637" y="150.74626865671647" height="13.432835820895525" fill="lightgreen"></rect><rect class="bar" x="0" width="10.482184724376328" y="165.6716417910448" height="13.432835820895525" fill="lightgreen"></rect><rect class="bar" x="0" width="17.08264824996814" y="180.59701492537317" height="13.432835820895525" fill="lightgreen"></rect><rect class="bar" x="0" width="4.431880697588403" y="195.52238805970154" height="13.432835820895525" fill="lightgreen"></rect><rect class="bar" x="0" width="15.74546912540367" y="210.44776119402988" height="13.432835820895525" fill="lightgreen"></rect><rect class="bar" x="0" width="44.7153627548795" y="225.37313432835825" height="13.432835820895525" fill="lightgreen"></rect><rect class="bar" x="0" width="5.257482560807947" y="240.29850746268662" height="13.432835820895525" fill="lightgreen"></rect><rect class="bar" x="0" width="73.36325425217906" y="255.22388059701498" height="13.432835820895525" fill="lightgreen"></rect><rect class="bar" x="0" width="140" y="270.1492537313433" height="13.432835820895525" fill="lightgreen"></rect><rect class="bar" x="0" width="9.643383674657665" y="285.0746268656717" height="13.432835820895525" fill="lightgreen"></rect><g class="x axis" transform="translate(0,300)"><g class="tick" transform="translate(0,0)" style="opacity: 1;"><line y2="6" x2="0" style="fill: none; stroke: grey;"></line><text dy=".71em" y="9" x="0" transform="translate(-12,3)rotate(-65)" style="text-anchor: end; font-family: sans-serif; font-size: 11px;">0</text></g><g class="tick" transform="translate(14.50460054848111,0)" style="opacity: 1;"><line y2="6" x2="0" style="fill: none; stroke: grey;"></line><text dy=".71em" y="9" x="0" transform="translate(-12,3)rotate(-65)" style="text-anchor: end; font-family: sans-serif; font-size: 11px;">100</text></g><g class="tick" transform="translate(29.00920109696222,0)" style="opacity: 1;"><line y2="6" x2="0" style="fill: none; stroke: grey;"></line><text dy=".71em" y="9" x="0" transform="translate(-12,3)rotate(-65)" style="text-anchor: end; font-family: sans-serif; font-size: 11px;">200</text></g><g class="tick" transform="translate(43.51380164544333,0)" style="opacity: 1;"><line y2="6" x2="0" style="fill: none; stroke: grey;"></line><text dy=".71em" y="9" x="0" transform="translate(-12,3)rotate(-65)" style="text-anchor: end; font-family: sans-serif; font-size: 11px;">300</text></g><g class="tick" transform="translate(58.01840219392444,0)" style="opacity: 1;"><line y2="6" x2="0" style="fill: none; stroke: grey;"></line><text dy=".71em" y="9" x="0" transform="translate(-12,3)rotate(-65)" style="text-anchor: end; font-family: sans-serif; font-size: 11px;">400</text></g><g class="tick" transform="translate(72.52300274240554,0)" style="opacity: 1;"><line y2="6" x2="0" style="fill: none; stroke: grey;"></line><text dy=".71em" y="9" x="0" transform="translate(-12,3)rotate(-65)" style="text-anchor: end; font-family: sans-serif; font-size: 11px;">500</text></g><g class="tick" transform="translate(87.02760329088666,0)" style="opacity: 1;"><line y2="6" x2="0" style="fill: none; stroke: grey;"></line><text dy=".71em" y="9" x="0" transform="translate(-12,3)rotate(-65)" style="text-anchor: end; font-family: sans-serif; font-size: 11px;">600</text></g><g class="tick" transform="translate(101.53220383936775,0)" style="opacity: 1;"><line y2="6" x2="0" style="fill: none; stroke: grey;"></line><text dy=".71em" y="9" x="0" transform="translate(-12,3)rotate(-65)" style="text-anchor: end; font-family: sans-serif; font-size: 11px;">700</text></g><g class="tick" transform="translate(116.03680438784887,0)" style="opacity: 1;"><line y2="6" x2="0" style="fill: none; stroke: grey;"></line><text dy=".71em" y="9" x="0" transform="translate(-12,3)rotate(-65)" style="text-anchor: end; font-family: sans-serif; font-size: 11px;">800</text></g><g class="tick" transform="translate(130.54140493633,0)" style="opacity: 1;"><line y2="6" x2="0" style="fill: none; stroke: grey;"></line><text dy=".71em" y="9" x="0" transform="translate(-12,3)rotate(-65)" style="text-anchor: end; font-family: sans-serif; font-size: 11px;">900</text></g><path class="domain" d="M0,6V0H140V6" style="fill: none; stroke: grey;"></path></g><g class="y axis"><g class="tick" transform="translate(0,8.208955223880599)" style="opacity: 1;"><line x2="-6" y2="0" style="fill: none; stroke: grey;"></line><text dy=".32em" x="-9" y="0" style="text-anchor: end; font-family: sans-serif; font-size: 11px;">1:47945825-47993332</text></g><g class="tick" transform="translate(0,23.13432835820896)" style="opacity: 1;"><line x2="-6" y2="0" style="fill: none; stroke: grey;"></line><text dy=".32em" x="-9" y="0" style="text-anchor: end; font-family: sans-serif; font-size: 11px;">2:27126027-27374009</text></g><g class="tick" transform="translate(0,38.05970149253732)" style="opacity: 1;"><line x2="-6" y2="0" style="fill: none; stroke: grey;"></line><text dy=".32em" x="-9" y="0" style="text-anchor: end; font-family: sans-serif; font-size: 11px;">2:37059462-37254035</text></g><g class="tick" transform="translate(0,52.985074626865675)" style="opacity: 1;"><line x2="-6" y2="0" style="fill: none; stroke: grey;"></line><text dy=".32em" x="-9" y="0" style="text-anchor: end; font-family: sans-serif; font-size: 11px;">2:48177487-48324044</text></g><g class="tick" transform="translate(0,67.91044776119404)" style="opacity: 1;"><line x2="-6" y2="0" style="fill: none; stroke: grey;"></line><text dy=".32em" x="-9" y="0" style="text-anchor: end; font-family: sans-serif; font-size: 11px;">2:65945432-65999623</text></g><g class="tick" transform="translate(0,82.8358208955224)" style="opacity: 1;"><line x2="-6" y2="0" style="fill: none; stroke: grey;"></line><text dy=".32em" x="-9" y="0" style="text-anchor: end; font-family: sans-serif; font-size: 11px;">2:149959855-150030893</text></g><g class="tick" transform="translate(0,97.76119402985076)" style="opacity: 1;"><line x2="-6" y2="0" style="fill: none; stroke: grey;"></line><text dy=".32em" x="-9" y="0" style="text-anchor: end; font-family: sans-serif; font-size: 11px;">3:89451721-90144346</text></g><g class="tick" transform="translate(0,112.68656716417911)" style="opacity: 1;"><line x2="-6" y2="0" style="fill: none; stroke: grey;"></line><text dy=".32em" x="-9" y="0" style="text-anchor: end; font-family: sans-serif; font-size: 11px;">7:96150233-96327941</text></g><g class="tick" transform="translate(0,127.61194029850748)" style="opacity: 1;"><line x2="-6" y2="0" style="fill: none; stroke: grey;"></line><text dy=".32em" x="-9" y="0" style="text-anchor: end; font-family: sans-serif; font-size: 11px;">8:26392967-26461360</text></g><g class="tick" transform="translate(0,142.53731343283587)" style="opacity: 1;"><line x2="-6" y2="0" style="fill: none; stroke: grey;"></line><text dy=".32em" x="-9" y="0" style="text-anchor: end; font-family: sans-serif; font-size: 11px;">8:134064152-134188778</text></g><g class="tick" transform="translate(0,157.46268656716424)" style="opacity: 1;"><line x2="-6" y2="0" style="fill: none; stroke: grey;"></line><text dy=".32em" x="-9" y="0" style="text-anchor: end; font-family: sans-serif; font-size: 11px;">9:101606549-101714283</text></g><g class="tick" transform="translate(0,172.38805970149258)" style="opacity: 1;"><line x2="-6" y2="0" style="fill: none; stroke: grey;"></line><text dy=".32em" x="-9" y="0" style="text-anchor: end; font-family: sans-serif; font-size: 11px;">11:79407517-79479785</text></g><g class="tick" transform="translate(0,187.31343283582095)" style="opacity: 1;"><line x2="-6" y2="0" style="fill: none; stroke: grey;"></line><text dy=".32em" x="-9" y="0" style="text-anchor: end; font-family: sans-serif; font-size: 11px;">12:49485373-49603147</text></g><g class="tick" transform="translate(0,202.23880597014931)" style="opacity: 1;"><line x2="-6" y2="0" style="fill: none; stroke: grey;"></line><text dy=".32em" x="-9" y="0" style="text-anchor: end; font-family: sans-serif; font-size: 11px;">14:59064730-59095285</text></g><g class="tick" transform="translate(0,217.16417910447765)" style="opacity: 1;"><line x2="-6" y2="0" style="fill: none; stroke: grey;"></line><text dy=".32em" x="-9" y="0" style="text-anchor: end; font-family: sans-serif; font-size: 11px;">14:59585670-59694225</text></g><g class="tick" transform="translate(0,232.08955223880602)" style="opacity: 1;"><line x2="-6" y2="0" style="fill: none; stroke: grey;"></line><text dy=".32em" x="-9" y="0" style="text-anchor: end; font-family: sans-serif; font-size: 11px;">15:39355716-39664000</text></g><g class="tick" transform="translate(0,247.0149253731344)" style="opacity: 1;"><line x2="-6" y2="0" style="fill: none; stroke: grey;"></line><text dy=".32em" x="-9" y="0" style="text-anchor: end; font-family: sans-serif; font-size: 11px;">16:87221841-87258088</text></g><g class="tick" transform="translate(0,261.9402985074627)" style="opacity: 1;"><line x2="-6" y2="0" style="fill: none; stroke: grey;"></line><text dy=".32em" x="-9" y="0" style="text-anchor: end; font-family: sans-serif; font-size: 11px;">16:89666961-90172754</text></g><g class="tick" transform="translate(0,276.8656716417911)" style="opacity: 1;"><line x2="-6" y2="0" style="fill: none; stroke: grey;"></line><text dy=".32em" x="-9" y="0" style="text-anchor: end; font-family: sans-serif; font-size: 11px;">17:43883103-44848314</text></g><g class="tick" transform="translate(0,291.79104477611946)" style="opacity: 1;"><line x2="-6" y2="0" style="fill: none; stroke: grey;"></line><text dy=".32em" x="-9" y="0" style="text-anchor: end; font-family: sans-serif; font-size: 11px;">21:46786997-46853482</text></g><path class="domain" d="M-6,0H0V300H-6" style="fill: none; stroke: grey;"></path><text transform="rotate(-90)" dy=".71em" style="text-anchor: end; font-family: sans-serif; font-size: 11px;"></text></g><text text-anchor="middle" transform="translate(-50,-5)" style="font-family: sans-serif;">Genomic loci</text><text text-anchor="middle" transform="translate(70,-5)" style="text-anchor: middle; font-family: sans-serif;">Size (kb)</text><text text-anchor="middle" transform="translate(70,350)" style="text-anchor: middle; font-family: sans-serif;">Size (kb)</text><rect class="bar" x="150" width="2.1943573667711576" y="1.4925373134328361" height="13.432835820895525" fill="skyblue"></rect><rect class="bar" x="150" width="47.178683385579916" y="16.417910447761198" height="13.432835820895525" fill="skyblue"></rect><rect class="bar" x="150" width="16.238244514106555" y="31.34328358208956" height="13.432835820895525" fill="skyblue"></rect><rect class="bar" x="150" width="7.460815047021953" y="46.268656716417915" height="13.432835820895525" fill="skyblue"></rect><rect class="bar" x="150" width="6.583072100313473" y="61.194029850746276" height="13.432835820895525" fill="skyblue"></rect><rect class="bar" x="150" width="9.216300940438884" y="76.11940298507464" height="13.432835820895525" fill="skyblue"></rect><rect class="bar" x="150" width="15.579937304075258" y="91.044776119403" height="13.432835820895525" fill="skyblue"></rect><rect class="bar" x="150" width="27.868338557993752" y="105.97014925373135" height="13.432835820895525" fill="skyblue"></rect><rect class="bar" x="150" width="11.63009404388714" y="120.89552238805972" height="13.432835820895525" fill="skyblue"></rect><rect class="bar" x="150" width="21.065830721003124" y="135.8208955223881" height="13.432835820895525" fill="skyblue"></rect><rect class="bar" x="150" width="21.724137931034477" y="150.74626865671647" height="13.432835820895525" fill="skyblue"></rect><rect class="bar" x="150" width="19.968652037617574" y="165.6716417910448" height="13.432835820895525" fill="skyblue"></rect><rect class="bar" x="150" width="27.429467084639498" y="180.59701492537317" height="13.432835820895525" fill="skyblue"></rect><rect class="bar" x="150" width="5.266457680250795" y="195.52238805970154" height="13.432835820895525" fill="skyblue"></rect><rect class="bar" x="150" width="17.774294670846388" y="210.44776119402988" height="13.432835820895525" fill="skyblue"></rect><rect class="bar" x="150" width="28.746081504702175" y="225.37313432835825" height="13.432835820895525" fill="skyblue"></rect><rect class="bar" x="150" width="12.50783699059562" y="240.29850746268662" height="13.432835820895525" fill="skyblue"></rect><rect class="bar" x="150" width="140" y="255.22388059701498" height="13.432835820895525" fill="skyblue"></rect><rect class="bar" x="150" width="17.993730407523515" y="270.1492537313433" height="13.432835820895525" fill="skyblue"></rect><rect class="bar" x="150" width="3.2915360501567363" y="285.0746268656717" height="13.432835820895525" fill="skyblue"></rect><g class="x axis" transform="translate(0,300)"><g class="tick" transform="translate(150,0)" style="opacity: 1;"><line y2="6" x2="0" style="fill: none; stroke: grey;"></line><text dy=".71em" y="9" x="0" transform="translate(-12,3)rotate(-65)" style="text-anchor: end; font-family: sans-serif; font-size: 11px;">0</text></g><g class="tick" transform="translate(160.9717868338558,0)" style="opacity: 1;"><line y2="6" x2="0" style="fill: none; stroke: grey;"></line><text dy=".71em" y="9" x="0" transform="translate(-12,3)rotate(-65)" style="text-anchor: end; font-family: sans-serif; font-size: 11px;">50</text></g><g class="tick" transform="translate(171.9435736677116,0)" style="opacity: 1;"><line y2="6" x2="0" style="fill: none; stroke: grey;"></line><text dy=".71em" y="9" x="0" transform="translate(-12,3)rotate(-65)" style="text-anchor: end; font-family: sans-serif; font-size: 11px;">100</text></g><g class="tick" transform="translate(182.91536050156742,0)" style="opacity: 1;"><line y2="6" x2="0" style="fill: none; stroke: grey;"></line><text dy=".71em" y="9" x="0" transform="translate(-12,3)rotate(-65)" style="text-anchor: end; font-family: sans-serif; font-size: 11px;">150</text></g><g class="tick" transform="translate(193.8871473354232,0)" style="opacity: 1;"><line y2="6" x2="0" style="fill: none; stroke: grey;"></line><text dy=".71em" y="9" x="0" transform="translate(-12,3)rotate(-65)" style="text-anchor: end; font-family: sans-serif; font-size: 11px;">200</text></g><g class="tick" transform="translate(204.858934169279,0)" style="opacity: 1;"><line y2="6" x2="0" style="fill: none; stroke: grey;"></line><text dy=".71em" y="9" x="0" transform="translate(-12,3)rotate(-65)" style="text-anchor: end; font-family: sans-serif; font-size: 11px;">250</text></g><g class="tick" transform="translate(215.8307210031348,0)" style="opacity: 1;"><line y2="6" x2="0" style="fill: none; stroke: grey;"></line><text dy=".71em" y="9" x="0" transform="translate(-12,3)rotate(-65)" style="text-anchor: end; font-family: sans-serif; font-size: 11px;">300</text></g><g class="tick" transform="translate(226.8025078369906,0)" style="opacity: 1;"><line y2="6" x2="0" style="fill: none; stroke: grey;"></line><text dy=".71em" y="9" x="0" transform="translate(-12,3)rotate(-65)" style="text-anchor: end; font-family: sans-serif; font-size: 11px;">350</text></g><g class="tick" transform="translate(237.77429467084642,0)" style="opacity: 1;"><line y2="6" x2="0" style="fill: none; stroke: grey;"></line><text dy=".71em" y="9" x="0" transform="translate(-12,3)rotate(-65)" style="text-anchor: end; font-family: sans-serif; font-size: 11px;">400</text></g><g class="tick" transform="translate(248.7460815047022,0)" style="opacity: 1;"><line y2="6" x2="0" style="fill: none; stroke: grey;"></line><text dy=".71em" y="9" x="0" transform="translate(-12,3)rotate(-65)" style="text-anchor: end; font-family: sans-serif; font-size: 11px;">450</text></g><g class="tick" transform="translate(259.717868338558,0)" style="opacity: 1;"><line y2="6" x2="0" style="fill: none; stroke: grey;"></line><text dy=".71em" y="9" x="0" transform="translate(-12,3)rotate(-65)" style="text-anchor: end; font-family: sans-serif; font-size: 11px;">500</text></g><g class="tick" transform="translate(270.6896551724138,0)" style="opacity: 1;"><line y2="6" x2="0" style="fill: none; stroke: grey;"></line><text dy=".71em" y="9" x="0" transform="translate(-12,3)rotate(-65)" style="text-anchor: end; font-family: sans-serif; font-size: 11px;">550</text></g><g class="tick" transform="translate(281.6614420062696,0)" style="opacity: 1;"><line y2="6" x2="0" style="fill: none; stroke: grey;"></line><text dy=".71em" y="9" x="0" transform="translate(-12,3)rotate(-65)" style="text-anchor: end; font-family: sans-serif; font-size: 11px;">600</text></g><path class="domain" d="M150,6V0H290V6" style="fill: none; stroke: grey;"></path></g><g class="y axis" transform="translate(150,0)"><g class="tick" transform="translate(0,8.208955223880599)" style="opacity: 1;"><line x2="-6" y2="0" style="fill: none; stroke: grey;"></line></g><g class="tick" transform="translate(0,23.13432835820896)" style="opacity: 1;"><line x2="-6" y2="0" style="fill: none; stroke: grey;"></line></g><g class="tick" transform="translate(0,38.05970149253732)" style="opacity: 1;"><line x2="-6" y2="0" style="fill: none; stroke: grey;"></line></g><g class="tick" transform="translate(0,52.985074626865675)" style="opacity: 1;"><line x2="-6" y2="0" style="fill: none; stroke: grey;"></line></g><g class="tick" transform="translate(0,67.91044776119404)" style="opacity: 1;"><line x2="-6" y2="0" style="fill: none; stroke: grey;"></line></g><g class="tick" transform="translate(0,82.8358208955224)" style="opacity: 1;"><line x2="-6" y2="0" style="fill: none; stroke: grey;"></line></g><g class="tick" transform="translate(0,97.76119402985076)" style="opacity: 1;"><line x2="-6" y2="0" style="fill: none; stroke: grey;"></line></g><g class="tick" transform="translate(0,112.68656716417911)" style="opacity: 1;"><line x2="-6" y2="0" style="fill: none; stroke: grey;"></line></g><g class="tick" transform="translate(0,127.61194029850748)" style="opacity: 1;"><line x2="-6" y2="0" style="fill: none; stroke: grey;"></line></g><g class="tick" transform="translate(0,142.53731343283587)" style="opacity: 1;"><line x2="-6" y2="0" style="fill: none; stroke: grey;"></line></g><g class="tick" transform="translate(0,157.46268656716424)" style="opacity: 1;"><line x2="-6" y2="0" style="fill: none; stroke: grey;"></line></g><g class="tick" transform="translate(0,172.38805970149258)" style="opacity: 1;"><line x2="-6" y2="0" style="fill: none; stroke: grey;"></line></g><g class="tick" transform="translate(0,187.31343283582095)" style="opacity: 1;"><line x2="-6" y2="0" style="fill: none; stroke: grey;"></line></g><g class="tick" transform="translate(0,202.23880597014931)" style="opacity: 1;"><line x2="-6" y2="0" style="fill: none; stroke: grey;"></line></g><g class="tick" transform="translate(0,217.16417910447765)" style="opacity: 1;"><line x2="-6" y2="0" style="fill: none; stroke: grey;"></line></g><g class="tick" transform="translate(0,232.08955223880602)" style="opacity: 1;"><line x2="-6" y2="0" style="fill: none; stroke: grey;"></line></g><g class="tick" transform="translate(0,247.0149253731344)" style="opacity: 1;"><line x2="-6" y2="0" style="fill: none; stroke: grey;"></line></g><g class="tick" transform="translate(0,261.9402985074627)" style="opacity: 1;"><line x2="-6" y2="0" style="fill: none; stroke: grey;"></line></g><g class="tick" transform="translate(0,276.8656716417911)" style="opacity: 1;"><line x2="-6" y2="0" style="fill: none; stroke: grey;"></line></g><g class="tick" transform="translate(0,291.79104477611946)" style="opacity: 1;"><line x2="-6" y2="0" style="fill: none; stroke: grey;"></line></g><path class="domain" d="M-6,0H0V300H-6" style="fill: none; stroke: grey;"></path></g><text text-anchor="middle" transform="translate(220,-5)" style="text-anchor: middle; font-family: sans-serif;">#SNPs</text><text text-anchor="middle" transform="translate(220,350)" style="text-anchor: middle; font-family: sans-serif;">#SNPs</text><rect class="bar" x="300" width="0" y="1.4925373134328361" height="13.432835820895525" fill="orange"></rect><rect class="bar" x="300" width="80" y="16.417910447761198" height="13.432835820895525" fill="orange"></rect><rect class="bar" x="300" width="20" y="31.34328358208956" height="13.432835820895525" fill="orange"></rect><rect class="bar" x="300" width="0" y="46.268656716417915" height="13.432835820895525" fill="orange"></rect><rect class="bar" x="300" width="0" y="61.194029850746276" height="13.432835820895525" fill="orange"></rect><rect class="bar" x="300" width="6.666666666666686" y="76.11940298507464" height="13.432835820895525" fill="orange"></rect><rect class="bar" x="300" width="6.666666666666686" y="91.044776119403" height="13.432835820895525" fill="orange"></rect><rect class="bar" x="300" width="6.666666666666686" y="105.97014925373135" height="13.432835820895525" fill="orange"></rect><rect class="bar" x="300" width="6.666666666666686" y="120.89552238805972" height="13.432835820895525" fill="orange"></rect><rect class="bar" x="300" width="13.333333333333371" y="135.8208955223881" height="13.432835820895525" fill="orange"></rect><rect class="bar" x="300" width="13.333333333333371" y="150.74626865671647" height="13.432835820895525" fill="orange"></rect><rect class="bar" x="300" width="0" y="165.6716417910448" height="13.432835820895525" fill="orange"></rect><rect class="bar" x="300" width="33.333333333333314" y="180.59701492537317" height="13.432835820895525" fill="orange"></rect><rect class="bar" x="300" width="6.666666666666686" y="195.52238805970154" height="13.432835820895525" fill="orange"></rect><rect class="bar" x="300" width="6.666666666666686" y="210.44776119402988" height="13.432835820895525" fill="orange"></rect><rect class="bar" x="300" width="0" y="225.37313432835825" height="13.432835820895525" fill="orange"></rect><rect class="bar" x="300" width="6.666666666666686" y="240.29850746268662" height="13.432835820895525" fill="orange"></rect><rect class="bar" x="300" width="140" y="255.22388059701498" height="13.432835820895525" fill="orange"></rect><rect class="bar" x="300" width="40" y="270.1492537313433" height="13.432835820895525" fill="orange"></rect><rect class="bar" x="300" width="6.666666666666686" y="285.0746268656717" height="13.432835820895525" fill="orange"></rect><g class="x axis" transform="translate(0,300)"><g class="tick" transform="translate(300,0)" style="opacity: 1;"><line y2="6" x2="0" style="fill: none; stroke: grey;"></line><text dy=".71em" y="9" x="0" transform="translate(-12,3)rotate(-65)" style="text-anchor: end; font-family: sans-serif; font-size: 11px;">0</text></g><g class="tick" transform="translate(313.33333333333337,0)" style="opacity: 1;"><line y2="6" x2="0" style="fill: none; stroke: grey;"></line><text dy=".71em" y="9" x="0" transform="translate(-12,3)rotate(-65)" style="text-anchor: end; font-family: sans-serif; font-size: 11px;">2</text></g><g class="tick" transform="translate(326.6666666666667,0)" style="opacity: 1;"><line y2="6" x2="0" style="fill: none; stroke: grey;"></line><text dy=".71em" y="9" x="0" transform="translate(-12,3)rotate(-65)" style="text-anchor: end; font-family: sans-serif; font-size: 11px;">4</text></g><g class="tick" transform="translate(340,0)" style="opacity: 1;"><line y2="6" x2="0" style="fill: none; stroke: grey;"></line><text dy=".71em" y="9" x="0" transform="translate(-12,3)rotate(-65)" style="text-anchor: end; font-family: sans-serif; font-size: 11px;">6</text></g><g class="tick" transform="translate(353.33333333333337,0)" style="opacity: 1;"><line y2="6" x2="0" style="fill: none; stroke: grey;"></line><text dy=".71em" y="9" x="0" transform="translate(-12,3)rotate(-65)" style="text-anchor: end; font-family: sans-serif; font-size: 11px;">8</text></g><g class="tick" transform="translate(366.66666666666663,0)" style="opacity: 1;"><line y2="6" x2="0" style="fill: none; stroke: grey;"></line><text dy=".71em" y="9" x="0" transform="translate(-12,3)rotate(-65)" style="text-anchor: end; font-family: sans-serif; font-size: 11px;">10</text></g><g class="tick" transform="translate(380,0)" style="opacity: 1;"><line y2="6" x2="0" style="fill: none; stroke: grey;"></line><text dy=".71em" y="9" x="0" transform="translate(-12,3)rotate(-65)" style="text-anchor: end; font-family: sans-serif; font-size: 11px;">12</text></g><g class="tick" transform="translate(393.3333333333333,0)" style="opacity: 1;"><line y2="6" x2="0" style="fill: none; stroke: grey;"></line><text dy=".71em" y="9" x="0" transform="translate(-12,3)rotate(-65)" style="text-anchor: end; font-family: sans-serif; font-size: 11px;">14</text></g><g class="tick" transform="translate(406.6666666666667,0)" style="opacity: 1;"><line y2="6" x2="0" style="fill: none; stroke: grey;"></line><text dy=".71em" y="9" x="0" transform="translate(-12,3)rotate(-65)" style="text-anchor: end; font-family: sans-serif; font-size: 11px;">16</text></g><g class="tick" transform="translate(420,0)" style="opacity: 1;"><line y2="6" x2="0" style="fill: none; stroke: grey;"></line><text dy=".71em" y="9" x="0" transform="translate(-12,3)rotate(-65)" style="text-anchor: end; font-family: sans-serif; font-size: 11px;">18</text></g><g class="tick" transform="translate(433.3333333333333,0)" style="opacity: 1;"><line y2="6" x2="0" style="fill: none; stroke: grey;"></line><text dy=".71em" y="9" x="0" transform="translate(-12,3)rotate(-65)" style="text-anchor: end; font-family: sans-serif; font-size: 11px;">20</text></g><path class="domain" d="M300,6V0H440V6" style="fill: none; stroke: grey;"></path></g><g class="y axis" transform="translate(300,0)"><g class="tick" transform="translate(0,8.208955223880599)" style="opacity: 1;"><line x2="-6" y2="0" style="fill: none; stroke: grey;"></line></g><g class="tick" transform="translate(0,23.13432835820896)" style="opacity: 1;"><line x2="-6" y2="0" style="fill: none; stroke: grey;"></line></g><g class="tick" transform="translate(0,38.05970149253732)" style="opacity: 1;"><line x2="-6" y2="0" style="fill: none; stroke: grey;"></line></g><g class="tick" transform="translate(0,52.985074626865675)" style="opacity: 1;"><line x2="-6" y2="0" style="fill: none; stroke: grey;"></line></g><g class="tick" transform="translate(0,67.91044776119404)" style="opacity: 1;"><line x2="-6" y2="0" style="fill: none; stroke: grey;"></line></g><g class="tick" transform="translate(0,82.8358208955224)" style="opacity: 1;"><line x2="-6" y2="0" style="fill: none; stroke: grey;"></line></g><g class="tick" transform="translate(0,97.76119402985076)" style="opacity: 1;"><line x2="-6" y2="0" style="fill: none; stroke: grey;"></line></g><g class="tick" transform="translate(0,112.68656716417911)" style="opacity: 1;"><line x2="-6" y2="0" style="fill: none; stroke: grey;"></line></g><g class="tick" transform="translate(0,127.61194029850748)" style="opacity: 1;"><line x2="-6" y2="0" style="fill: none; stroke: grey;"></line></g><g class="tick" transform="translate(0,142.53731343283587)" style="opacity: 1;"><line x2="-6" y2="0" style="fill: none; stroke: grey;"></line></g><g class="tick" transform="translate(0,157.46268656716424)" style="opacity: 1;"><line x2="-6" y2="0" style="fill: none; stroke: grey;"></line></g><g class="tick" transform="translate(0,172.38805970149258)" style="opacity: 1;"><line x2="-6" y2="0" style="fill: none; stroke: grey;"></line></g><g class="tick" transform="translate(0,187.31343283582095)" style="opacity: 1;"><line x2="-6" y2="0" style="fill: none; stroke: grey;"></line></g><g class="tick" transform="translate(0,202.23880597014931)" style="opacity: 1;"><line x2="-6" y2="0" style="fill: none; stroke: grey;"></line></g><g class="tick" transform="translate(0,217.16417910447765)" style="opacity: 1;"><line x2="-6" y2="0" style="fill: none; stroke: grey;"></line></g><g class="tick" transform="translate(0,232.08955223880602)" style="opacity: 1;"><line x2="-6" y2="0" style="fill: none; stroke: grey;"></line></g><g class="tick" transform="translate(0,247.0149253731344)" style="opacity: 1;"><line x2="-6" y2="0" style="fill: none; stroke: grey;"></line></g><g class="tick" transform="translate(0,261.9402985074627)" style="opacity: 1;"><line x2="-6" y2="0" style="fill: none; stroke: grey;"></line></g><g class="tick" transform="translate(0,276.8656716417911)" style="opacity: 1;"><line x2="-6" y2="0" style="fill: none; stroke: grey;"></line></g><g class="tick" transform="translate(0,291.79104477611946)" style="opacity: 1;"><line x2="-6" y2="0" style="fill: none; stroke: grey;"></line></g><path class="domain" d="M-6,0H0V300H-6" style="fill: none; stroke: grey;"></path></g><text text-anchor="middle" transform="translate(370,-5)" style="text-anchor: middle; font-family: sans-serif;">#mapped genes</text><text text-anchor="middle" transform="translate(370,350)" style="text-anchor: middle; font-family: sans-serif;">#mapped genes</text><rect class="bar" x="450" width="0" y="1.4925373134328361" height="13.432835820895525" fill="pink"></rect><rect class="bar" x="450" width="84" y="16.417910447761198" height="13.432835820895525" fill="pink"></rect><rect class="bar" x="450" width="21" y="31.34328358208956" height="13.432835820895525" fill="pink"></rect><rect class="bar" x="450" width="0" y="46.268656716417915" height="13.432835820895525" fill="pink"></rect><rect class="bar" x="450" width="0" y="61.194029850746276" height="13.432835820895525" fill="pink"></rect><rect class="bar" x="450" width="7" y="76.11940298507464" height="13.432835820895525" fill="pink"></rect><rect class="bar" x="450" width="7" y="91.044776119403" height="13.432835820895525" fill="pink"></rect><rect class="bar" x="450" width="7" y="105.97014925373135" height="13.432835820895525" fill="pink"></rect><rect class="bar" x="450" width="7" y="120.89552238805972" height="13.432835820895525" fill="pink"></rect><rect class="bar" x="450" width="14" y="135.8208955223881" height="13.432835820895525" fill="pink"></rect><rect class="bar" x="450" width="14" y="150.74626865671647" height="13.432835820895525" fill="pink"></rect><rect class="bar" x="450" width="0" y="165.6716417910448" height="13.432835820895525" fill="pink"></rect><rect class="bar" x="450" width="35" y="180.59701492537317" height="13.432835820895525" fill="pink"></rect><rect class="bar" x="450" width="0" y="195.52238805970154" height="13.432835820895525" fill="pink"></rect><rect class="bar" x="450" width="7" y="210.44776119402988" height="13.432835820895525" fill="pink"></rect><rect class="bar" x="450" width="7" y="225.37313432835825" height="13.432835820895525" fill="pink"></rect><rect class="bar" x="450" width="7" y="240.29850746268662" height="13.432835820895525" fill="pink"></rect><rect class="bar" x="450" width="140" y="255.22388059701498" height="13.432835820895525" fill="pink"></rect><rect class="bar" x="450" width="77" y="270.1492537313433" height="13.432835820895525" fill="pink"></rect><rect class="bar" x="450" width="7" y="285.0746268656717" height="13.432835820895525" fill="pink"></rect><g class="x axis" transform="translate(0,300)"><g class="tick" transform="translate(450,0)" style="opacity: 1;"><line y2="6" x2="0" style="fill: none; stroke: grey;"></line><text dy=".71em" y="9" x="0" transform="translate(-12,3)rotate(-65)" style="text-anchor: end; font-family: sans-serif; font-size: 11px;">0</text></g><g class="tick" transform="translate(464,0)" style="opacity: 1;"><line y2="6" x2="0" style="fill: none; stroke: grey;"></line><text dy=".71em" y="9" x="0" transform="translate(-12,3)rotate(-65)" style="text-anchor: end; font-family: sans-serif; font-size: 11px;">2</text></g><g class="tick" transform="translate(478,0)" style="opacity: 1;"><line y2="6" x2="0" style="fill: none; stroke: grey;"></line><text dy=".71em" y="9" x="0" transform="translate(-12,3)rotate(-65)" style="text-anchor: end; font-family: sans-serif; font-size: 11px;">4</text></g><g class="tick" transform="translate(492,0)" style="opacity: 1;"><line y2="6" x2="0" style="fill: none; stroke: grey;"></line><text dy=".71em" y="9" x="0" transform="translate(-12,3)rotate(-65)" style="text-anchor: end; font-family: sans-serif; font-size: 11px;">6</text></g><g class="tick" transform="translate(506,0)" style="opacity: 1;"><line y2="6" x2="0" style="fill: none; stroke: grey;"></line><text dy=".71em" y="9" x="0" transform="translate(-12,3)rotate(-65)" style="text-anchor: end; font-family: sans-serif; font-size: 11px;">8</text></g><g class="tick" transform="translate(520,0)" style="opacity: 1;"><line y2="6" x2="0" style="fill: none; stroke: grey;"></line><text dy=".71em" y="9" x="0" transform="translate(-12,3)rotate(-65)" style="text-anchor: end; font-family: sans-serif; font-size: 11px;">10</text></g><g class="tick" transform="translate(534,0)" style="opacity: 1;"><line y2="6" x2="0" style="fill: none; stroke: grey;"></line><text dy=".71em" y="9" x="0" transform="translate(-12,3)rotate(-65)" style="text-anchor: end; font-family: sans-serif; font-size: 11px;">12</text></g><g class="tick" transform="translate(548,0)" style="opacity: 1;"><line y2="6" x2="0" style="fill: none; stroke: grey;"></line><text dy=".71em" y="9" x="0" transform="translate(-12,3)rotate(-65)" style="text-anchor: end; font-family: sans-serif; font-size: 11px;">14</text></g><g class="tick" transform="translate(562,0)" style="opacity: 1;"><line y2="6" x2="0" style="fill: none; stroke: grey;"></line><text dy=".71em" y="9" x="0" transform="translate(-12,3)rotate(-65)" style="text-anchor: end; font-family: sans-serif; font-size: 11px;">16</text></g><g class="tick" transform="translate(576,0)" style="opacity: 1;"><line y2="6" x2="0" style="fill: none; stroke: grey;"></line><text dy=".71em" y="9" x="0" transform="translate(-12,3)rotate(-65)" style="text-anchor: end; font-family: sans-serif; font-size: 11px;">18</text></g><g class="tick" transform="translate(590,0)" style="opacity: 1;"><line y2="6" x2="0" style="fill: none; stroke: grey;"></line><text dy=".71em" y="9" x="0" transform="translate(-12,3)rotate(-65)" style="text-anchor: end; font-family: sans-serif; font-size: 11px;">20</text></g><path class="domain" d="M450,6V0H590V6" style="fill: none; stroke: grey;"></path></g><g class="y axis" transform="translate(450,0)"><g class="tick" transform="translate(0,8.208955223880599)" style="opacity: 1;"><line x2="-6" y2="0" style="fill: none; stroke: grey;"></line></g><g class="tick" transform="translate(0,23.13432835820896)" style="opacity: 1;"><line x2="-6" y2="0" style="fill: none; stroke: grey;"></line></g><g class="tick" transform="translate(0,38.05970149253732)" style="opacity: 1;"><line x2="-6" y2="0" style="fill: none; stroke: grey;"></line></g><g class="tick" transform="translate(0,52.985074626865675)" style="opacity: 1;"><line x2="-6" y2="0" style="fill: none; stroke: grey;"></line></g><g class="tick" transform="translate(0,67.91044776119404)" style="opacity: 1;"><line x2="-6" y2="0" style="fill: none; stroke: grey;"></line></g><g class="tick" transform="translate(0,82.8358208955224)" style="opacity: 1;"><line x2="-6" y2="0" style="fill: none; stroke: grey;"></line></g><g class="tick" transform="translate(0,97.76119402985076)" style="opacity: 1;"><line x2="-6" y2="0" style="fill: none; stroke: grey;"></line></g><g class="tick" transform="translate(0,112.68656716417911)" style="opacity: 1;"><line x2="-6" y2="0" style="fill: none; stroke: grey;"></line></g><g class="tick" transform="translate(0,127.61194029850748)" style="opacity: 1;"><line x2="-6" y2="0" style="fill: none; stroke: grey;"></line></g><g class="tick" transform="translate(0,142.53731343283587)" style="opacity: 1;"><line x2="-6" y2="0" style="fill: none; stroke: grey;"></line></g><g class="tick" transform="translate(0,157.46268656716424)" style="opacity: 1;"><line x2="-6" y2="0" style="fill: none; stroke: grey;"></line></g><g class="tick" transform="translate(0,172.38805970149258)" style="opacity: 1;"><line x2="-6" y2="0" style="fill: none; stroke: grey;"></line></g><g class="tick" transform="translate(0,187.31343283582095)" style="opacity: 1;"><line x2="-6" y2="0" style="fill: none; stroke: grey;"></line></g><g class="tick" transform="translate(0,202.23880597014931)" style="opacity: 1;"><line x2="-6" y2="0" style="fill: none; stroke: grey;"></line></g><g class="tick" transform="translate(0,217.16417910447765)" style="opacity: 1;"><line x2="-6" y2="0" style="fill: none; stroke: grey;"></line></g><g class="tick" transform="translate(0,232.08955223880602)" style="opacity: 1;"><line x2="-6" y2="0" style="fill: none; stroke: grey;"></line></g><g class="tick" transform="translate(0,247.0149253731344)" style="opacity: 1;"><line x2="-6" y2="0" style="fill: none; stroke: grey;"></line></g><g class="tick" transform="translate(0,261.9402985074627)" style="opacity: 1;"><line x2="-6" y2="0" style="fill: none; stroke: grey;"></line></g><g class="tick" transform="translate(0,276.8656716417911)" style="opacity: 1;"><line x2="-6" y2="0" style="fill: none; stroke: grey;"></line></g><g class="tick" transform="translate(0,291.79104477611946)" style="opacity: 1;"><line x2="-6" y2="0" style="fill: none; stroke: grey;"></line></g><path class="domain" d="M-6,0H0V300H-6" style="fill: none; stroke: grey;"></path></g><text text-anchor="middle" transform="translate(520,-20)" style="text-anchor: middle; font-family: sans-serif;">#genes physically</text><text text-anchor="middle" transform="translate(520,-5)" style="text-anchor: middle; font-family: sans-serif;">located in loci</text><text text-anchor="middle" transform="translate(520,350)" style="text-anchor: middle; font-family: sans-serif;">#genes physically</text><text text-anchor="middle" transform="translate(520,365)" style="text-anchor: middle; font-family: sans-serif;">located in loci</text></g></svg>