<svg width="560" height="380"><g transform="translate(80,30)"><rect x="270" y="238.4057030933099" width="14" height="11.59429690669009" style="fill: rgb(86, 104, 244); stroke: grey;"></rect><rect x="330" y="245.6063349672568" width="14" height="4.3936650327432005" style="fill: rgb(86, 104, 244); stroke: grey;"></rect><rect x="120" y="134.05365255312196" width="14" height="115.94634744687804" style="fill: rgb(86, 104, 244); stroke: grey;"></rect><rect x="435" y="249.99863124790346" width="14" height="0.0013687520965390831" style="fill: rgb(86, 104, 244); stroke: grey;"></rect><rect x="0" y="0" width="14" height="250" style="fill: rgb(204, 0, 0); stroke: grey;"></rect><rect x="135" y="144.2178868254438" width="14" height="105.7821131745562" style="fill: rgb(86, 104, 244); stroke: grey;"></rect><rect x="345" y="246.31863656241376" width="14" height="3.681363437586242" style="fill: rgb(86, 104, 244); stroke: grey;"></rect><rect x="150" y="168.4187667883746" width="14" height="81.5812332116254" style="fill: rgb(86, 104, 244); stroke: grey;"></rect><rect x="15" y="33.702623559211716" width="14" height="216.2973764407883" style="fill: rgb(86, 104, 244); stroke: grey;"></rect><rect x="90" y="132.2857409116814" width="14" height="117.71425908831861" style="fill: rgb(86, 104, 244); stroke: grey;"></rect><rect x="210" y="216.82980830902295" width="14" height="33.17019169097705" style="fill: rgb(86, 104, 244); stroke: grey;"></rect><rect x="75" y="126.57130796176969" width="14" height="123.42869203823031" style="fill: rgb(86, 104, 244); stroke: grey;"></rect><rect x="375" y="249.65747894379365" width="14" height="0.3425210562063512" style="fill: rgb(86, 104, 244); stroke: grey;"></rect><rect x="360" y="247.1114860817353" width="14" height="2.8885139182646924" style="fill: rgb(86, 104, 244); stroke: grey;"></rect><rect x="390" y="249.73998343739763" width="14" height="0.2600165626023738" style="fill: rgb(86, 104, 244); stroke: grey;"></rect><rect x="195" y="209.47209654243463" width="14" height="40.52790345756537" style="fill: rgb(86, 104, 244); stroke: grey;"></rect><rect x="45" y="98.87447493484997" width="14" height="151.12552506515004" style="fill: rgb(86, 104, 244); stroke: grey;"></rect><rect x="180" y="196.14321465089932" width="14" height="53.856785349100676" style="fill: rgb(86, 104, 244); stroke: grey;"></rect><rect x="285" y="243.94748604533666" width="14" height="6.05251395466334" style="fill: rgb(86, 104, 244); stroke: grey;"></rect><rect x="60" y="107.9526389209759" width="14" height="142.04736107902409" style="fill: rgb(86, 104, 244); stroke: grey;"></rect><rect x="315" y="244.7119632262992" width="14" height="5.28803677370081" style="fill: rgb(86, 104, 244); stroke: grey;"></rect><rect x="405" y="249.9057705504518" width="14" height="0.09422944954820878" style="fill: rgb(86, 104, 244); stroke: grey;"></rect><rect x="255" y="237.2030748200562" width="14" height="12.796925179943798" style="fill: rgb(86, 104, 244); stroke: grey;"></rect><rect x="300" y="244.49562288034923" width="14" height="5.504377119650769" style="fill: rgb(86, 104, 244); stroke: grey;"></rect><rect x="420" y="249.9952091281066" width="14" height="0.004790871893391113" style="fill: rgb(86, 104, 244); stroke: grey;"></rect><rect x="165" y="190.66061103718107" width="14" height="59.33938896281893" style="fill: rgb(86, 104, 244); stroke: grey;"></rect><rect x="30" y="46.090349854361726" width="14" height="203.90965014563827" style="fill: rgb(86, 104, 244); stroke: grey;"></rect><rect x="240" y="225.31214355485474" width="14" height="24.687856445145258" style="fill: rgb(86, 104, 244); stroke: grey;"></rect><rect x="105" y="133.18942979069914" width="14" height="116.81057020930086" style="fill: rgb(86, 104, 244); stroke: grey;"></rect><rect x="225" y="218.85350177692865" width="14" height="31.146498223071347" style="fill: rgb(86, 104, 244); stroke: grey;"></rect><g><text transform="translate(280,258)rotate(-70)" style="text-anchor: end; font-size: 11px; font-family: sans-serif;">Adipose_Tissue</text><text transform="translate(340,258)rotate(-70)" style="text-anchor: end; font-size: 11px; font-family: sans-serif;">Adrenal_Gland</text><text transform="translate(130,258)rotate(-70)" style="text-anchor: end; font-size: 11px; font-family: sans-serif;">Bladder</text><text transform="translate(445,258)rotate(-70)" style="text-anchor: end; font-size: 11px; font-family: sans-serif;">Blood</text><text transform="translate(10,258)rotate(-70)" style="text-anchor: end; font-size: 11px; font-family: sans-serif;">Blood_Vessel</text><text transform="translate(145,258)rotate(-70)" style="text-anchor: end; font-size: 11px; font-family: sans-serif;">Brain</text><text transform="translate(355,258)rotate(-70)" style="text-anchor: end; font-size: 11px; font-family: sans-serif;">Breast</text><text transform="translate(160,258)rotate(-70)" style="text-anchor: end; font-size: 11px; font-family: sans-serif;">Cervix_Uteri</text><text transform="translate(25,258)rotate(-70)" style="text-anchor: end; font-size: 11px; font-family: sans-serif;">Colon</text><text transform="translate(100,258)rotate(-70)" style="text-anchor: end; font-size: 11px; font-family: sans-serif;">Esophagus</text><text transform="translate(220,258)rotate(-70)" style="text-anchor: end; font-size: 11px; font-family: sans-serif;">Fallopian_Tube</text><text transform="translate(85,258)rotate(-70)" style="text-anchor: end; font-size: 11px; font-family: sans-serif;">Heart</text><text transform="translate(385,258)rotate(-70)" style="text-anchor: end; font-size: 11px; font-family: sans-serif;">Kidney</text><text transform="translate(370,258)rotate(-70)" style="text-anchor: end; font-size: 11px; font-family: sans-serif;">Liver</text><text transform="translate(400,258)rotate(-70)" style="text-anchor: end; font-size: 11px; font-family: sans-serif;">Lung</text><text transform="translate(205,258)rotate(-70)" style="text-anchor: end; font-size: 11px; font-family: sans-serif;">Muscle</text><text transform="translate(55,258)rotate(-70)" style="text-anchor: end; font-size: 11px; font-family: sans-serif;">Nerve</text><text transform="translate(190,258)rotate(-70)" style="text-anchor: end; font-size: 11px; font-family: sans-serif;">Ovary</text><text transform="translate(295,258)rotate(-70)" style="text-anchor: end; font-size: 11px; font-family: sans-serif;">Pancreas</text><text transform="translate(70,258)rotate(-70)" style="text-anchor: end; font-size: 11px; font-family: sans-serif;">Pituitary</text><text transform="translate(325,258)rotate(-70)" style="text-anchor: end; font-size: 11px; font-family: sans-serif;">Prostate</text><text transform="translate(415,258)rotate(-70)" style="text-anchor: end; font-size: 11px; font-family: sans-serif;">Salivary_Gland</text><text transform="translate(265,258)rotate(-70)" style="text-anchor: end; font-size: 11px; font-family: sans-serif;">Skin</text><text transform="translate(310,258)rotate(-70)" style="text-anchor: end; font-size: 11px; font-family: sans-serif;">Small_Intestine</text><text transform="translate(430,258)rotate(-70)" style="text-anchor: end; font-size: 11px; font-family: sans-serif;">Spleen</text><text transform="translate(175,258)rotate(-70)" style="text-anchor: end; font-size: 11px; font-family: sans-serif;">Stomach</text><text transform="translate(40,258)rotate(-70)" style="text-anchor: end; font-size: 11px; font-family: sans-serif;">Testis</text><text transform="translate(250,258)rotate(-70)" style="text-anchor: end; font-size: 11px; font-family: sans-serif;">Thyroid</text><text transform="translate(115,258)rotate(-70)" style="text-anchor: end; font-size: 11px; font-family: sans-serif;">Uterus</text><text transform="translate(235,258)rotate(-70)" style="text-anchor: end; font-size: 11px; font-family: sans-serif;">Vagina</text></g><line x1="0" x2="450" y1="31.109106012882666" y2="31.109106012882666" style="stroke: black; stroke-dasharray: 3, 3;"></line><g class="y axis"><g class="tick" transform="translate(0,250)" style="opacity: 1;"><line x2="-6" y2="0" style="fill: none; stroke: grey;"></line><text dy=".32em" x="-9" y="0" style="text-anchor: end; font-size: 11px; font-family: sans-serif;">0.0</text></g><g class="tick" transform="translate(0,210.60493575414765)" style="opacity: 1;"><line x2="-6" y2="0" style="fill: none; stroke: grey;"></line><text dy=".32em" x="-9" y="0" style="text-anchor: end; font-size: 11px; font-family: sans-serif;">0.5</text></g><g class="tick" transform="translate(0,171.20987150829532)" style="opacity: 1;"><line x2="-6" y2="0" style="fill: none; stroke: grey;"></line><text dy=".32em" x="-9" y="0" style="text-anchor: end; font-size: 11px; font-family: sans-serif;">1.0</text></g><g class="tick" transform="translate(0,131.81480726244294)" style="opacity: 1;"><line x2="-6" y2="0" style="fill: none; stroke: grey;"></line><text dy=".32em" x="-9" y="0" style="text-anchor: end; font-size: 11px; font-family: sans-serif;">1.5</text></g><g class="tick" transform="translate(0,92.41974301659059)" style="opacity: 1;"><line x2="-6" y2="0" style="fill: none; stroke: grey;"></line><text dy=".32em" x="-9" y="0" style="text-anchor: end; font-size: 11px; font-family: sans-serif;">2.0</text></g><g class="tick" transform="translate(0,53.02467877073824)" style="opacity: 1;"><line x2="-6" y2="0" style="fill: none; stroke: grey;"></line><text dy=".32em" x="-9" y="0" style="text-anchor: end; font-size: 11px; font-family: sans-serif;">2.5</text></g><g class="tick" transform="translate(0,13.629614524885897)" style="opacity: 1;"><line x2="-6" y2="0" style="fill: none; stroke: grey;"></line><text dy=".32em" x="-9" y="0" style="text-anchor: end; font-size: 11px; font-family: sans-serif;">3.0</text></g><path class="domain" d="M-6,0H0V250H-6" style="fill: none; stroke: grey;"></path></g><g class="x axis" transform="translate(0,250)"><g class="tick" transform="translate(7.5,0)" style="opacity: 1;"><line y2="6" x2="0" style="fill: none; stroke: grey;"></line></g><g class="tick" transform="translate(22.5,0)" style="opacity: 1;"><line y2="6" x2="0" style="fill: none; stroke: grey;"></line></g><g class="tick" transform="translate(37.5,0)" style="opacity: 1;"><line y2="6" x2="0" style="fill: none; stroke: grey;"></line></g><g class="tick" transform="translate(52.5,0)" style="opacity: 1;"><line y2="6" x2="0" style="fill: none; stroke: grey;"></line></g><g class="tick" transform="translate(67.5,0)" style="opacity: 1;"><line y2="6" x2="0" style="fill: none; stroke: grey;"></line></g><g class="tick" transform="translate(82.5,0)" style="opacity: 1;"><line y2="6" x2="0" style="fill: none; stroke: grey;"></line></g><g class="tick" transform="translate(97.5,0)" style="opacity: 1;"><line y2="6" x2="0" style="fill: none; stroke: grey;"></line></g><g class="tick" transform="translate(112.5,0)" style="opacity: 1;"><line y2="6" x2="0" style="fill: none; stroke: grey;"></line></g><g class="tick" transform="translate(127.5,0)" style="opacity: 1;"><line y2="6" x2="0" style="fill: none; stroke: grey;"></line></g><g class="tick" transform="translate(142.5,0)" style="opacity: 1;"><line y2="6" x2="0" style="fill: none; stroke: grey;"></line></g><g class="tick" transform="translate(157.5,0)" style="opacity: 1;"><line y2="6" x2="0" style="fill: none; stroke: grey;"></line></g><g class="tick" transform="translate(172.5,0)" style="opacity: 1;"><line y2="6" x2="0" style="fill: none; stroke: grey;"></line></g><g class="tick" transform="translate(187.5,0)" style="opacity: 1;"><line y2="6" x2="0" style="fill: none; stroke: grey;"></line></g><g class="tick" transform="translate(202.5,0)" style="opacity: 1;"><line y2="6" x2="0" style="fill: none; stroke: grey;"></line></g><g class="tick" transform="translate(217.5,0)" style="opacity: 1;"><line y2="6" x2="0" style="fill: none; stroke: grey;"></line></g><g class="tick" transform="translate(232.5,0)" style="opacity: 1;"><line y2="6" x2="0" style="fill: none; stroke: grey;"></line></g><g class="tick" transform="translate(247.5,0)" style="opacity: 1;"><line y2="6" x2="0" style="fill: none; stroke: grey;"></line></g><g class="tick" transform="translate(262.5,0)" style="opacity: 1;"><line y2="6" x2="0" style="fill: none; stroke: grey;"></line></g><g class="tick" transform="translate(277.5,0)" style="opacity: 1;"><line y2="6" x2="0" style="fill: none; stroke: grey;"></line></g><g class="tick" transform="translate(292.5,0)" style="opacity: 1;"><line y2="6" x2="0" style="fill: none; stroke: grey;"></line></g><g class="tick" transform="translate(307.5,0)" style="opacity: 1;"><line y2="6" x2="0" style="fill: none; stroke: grey;"></line></g><g class="tick" transform="translate(322.5,0)" style="opacity: 1;"><line y2="6" x2="0" style="fill: none; stroke: grey;"></line></g><g class="tick" transform="translate(337.5,0)" style="opacity: 1;"><line y2="6" x2="0" style="fill: none; stroke: grey;"></line></g><g class="tick" transform="translate(352.5,0)" style="opacity: 1;"><line y2="6" x2="0" style="fill: none; stroke: grey;"></line></g><g class="tick" transform="translate(367.5,0)" style="opacity: 1;"><line y2="6" x2="0" style="fill: none; stroke: grey;"></line></g><g class="tick" transform="translate(382.5,0)" style="opacity: 1;"><line y2="6" x2="0" style="fill: none; stroke: grey;"></line></g><g class="tick" transform="translate(397.5,0)" style="opacity: 1;"><line y2="6" x2="0" style="fill: none; stroke: grey;"></line></g><g class="tick" transform="translate(412.5,0)" style="opacity: 1;"><line y2="6" x2="0" style="fill: none; stroke: grey;"></line></g><g class="tick" transform="translate(427.5,0)" style="opacity: 1;"><line y2="6" x2="0" style="fill: none; stroke: grey;"></line></g><g class="tick" transform="translate(442.5,0)" style="opacity: 1;"><line y2="6" x2="0" style="fill: none; stroke: grey;"></line></g><path class="domain" d="M0,6V0H450V6" style="fill: none; stroke: grey;"></path></g><text text-anchor="middle" transform="translate(-55,125)rotate(-90)" style="font-family: sans-serif;">-log 10 P-value</text></g></svg>