<svg width="500" height="250"><g transform="translate(40,20)"><text x="390" y="10" style="font-size: 10px; font-family: sans-serif;">-log2(E)</text><g><rect class="legendRect" x="390" y="13" width="20" height="5" fill="#ff0000"></rect></g><g><rect class="legendRect" x="390" y="18" width="20" height="5" fill="#ff1715"></rect></g><g><rect class="legendRect" x="390" y="23" width="20" height="5" fill="#ff2e2a"></rect></g><g><rect class="legendRect" x="390" y="28" width="20" height="5" fill="#ff463f"></rect></g><g><rect class="legendRect" x="390" y="33" width="20" height="5" fill="#ff5d54"></rect></g><g><rect class="legendRect" x="390" y="38" width="20" height="5" fill="#ff7469"></rect></g><g><rect class="legendRect" x="390" y="43" width="20" height="5" fill="#ff8b7d"></rect></g><g><rect class="legendRect" x="390" y="48" width="20" height="5" fill="#ffa292"></rect></g><g><rect class="legendRect" x="390" y="53" width="20" height="5" fill="#ffb9a7"></rect></g><g><rect class="legendRect" x="390" y="58" width="20" height="5" fill="#ffd1bc"></rect></g><g><rect class="legendRect" x="390" y="63" width="20" height="5" fill="#ffe8d1"></rect></g><g><rect class="legendRect" x="390" y="68" width="20" height="5" fill="#ffffe6"></rect></g><g><rect class="legendRect" x="390" y="73" width="20" height="5" fill="#aaaaee"></rect></g><g><rect class="legendRect" x="390" y="78" width="20" height="5" fill="#5555f7"></rect></g><g><rect class="legendRect" x="390" y="83" width="20" height="5" fill="#0000ff"></rect></g><g><text text-anchor="start" class="legenedText" x="412" y="20" style="font-size: 10px; font-family: sans-serif;">3.41</text></g><g><text text-anchor="start" class="legenedText" x="412" y="90" style="font-size: 10px; font-family: sans-serif;">-0.93</text></g><text x="390" y="105" style="font-size: 10px; font-family: sans-serif;">* p&lt;0.05</text><text x="390" y="120" style="font-size: 10px; font-family: sans-serif;">** p&lt;0.05/11</text><rect class="backbar" x="5" width="31" y="73.33333333333334" height="66.66666666666666" fill="transparent" opacity="0"></rect><rect class="backbar" x="39" width="31" y="73.33333333333334" height="66.66666666666666" fill="transparent" opacity="0"></rect><rect class="backbar" x="73" width="31" y="73.33333333333334" height="66.66666666666666" fill="transparent" opacity="0"></rect><rect class="backbar" x="107" width="31" y="73.33333333333334" height="66.66666666666666" fill="transparent" opacity="0"></rect><rect class="backbar" x="141" width="31" y="73.33333333333334" height="66.66666666666666" fill="transparent" opacity="0"></rect><rect class="backbar" x="175" width="31" y="73.33333333333334" height="66.66666666666666" fill="transparent" opacity="0"></rect><rect class="backbar" x="209" width="31" y="73.33333333333334" height="66.66666666666666" fill="transparent" opacity="0"></rect><rect class="backbar" x="243" width="31" y="73.33333333333334" height="66.66666666666666" fill="transparent" opacity="0"></rect><rect class="backbar" x="277" width="31" y="73.33333333333334" height="66.66666666666666" fill="transparent" opacity="0"></rect><rect class="backbar" x="311" width="31" y="73.33333333333334" height="66.66666666666666" fill="transparent" opacity="0"></rect><rect class="backbar" x="345" width="31" y="73.33333333333334" height="66.66666666666666" fill="transparent" opacity="0"></rect><rect class="bar" x="5" width="31" y="6.666666666666674" height="133.33333333333331" fill="#ffead3"></rect><rect class="bar" x="39" width="31" y="72.59749816041223" height="67.40250183958777" fill="#0000ff"></rect><rect class="bar" x="73" width="31" y="80.10301692420896" height="59.89698307579104" fill="#ffbfac"></rect><rect class="bar" x="107" width="31" y="133.23031640912436" height="6.769683590875644" fill="#ff9e8f"></rect><rect class="bar" x="141" width="31" y="134.26048565121414" height="5.73951434878586" fill="#ffb5a3"></rect><rect class="bar" x="175" width="31" y="135.87932303164092" height="4.120676968359078" fill="#ffd2be"></rect><rect class="bar" x="209" width="31" y="136.32082413539368" height="3.6791758646063215" fill="#ffe9d2"></rect><rect class="bar" x="243" width="31" y="137.35099337748343" height="2.6490066225165663" fill="#b1b1ee"></rect><rect class="bar" x="277" width="31" y="137.4981604120677" height="2.501839587932295" fill="#ff8679"></rect><rect class="bar" x="311" width="31" y="139.7056659308315" height="0.2943340691685137" fill="#ff0101"></rect><rect class="bar" x="345" width="31" y="139.85283296541576" height="0.14716703458424263" fill="#ff0504"></rect><text x="17.09090909090909" y="6.800000000000008" text-anchor="start" style="font-family: sans-serif;">*</text><text x="51.09090909090909" y="74.04944812362048" text-anchor="start" style="font-family: sans-serif;">*</text><text x="85.0909090909091" y="81.70507726269314" text-anchor="start" style="font-family: sans-serif;">*</text><text x="119.0909090909091" y="135.89492273730684" text-anchor="start" style="font-family: sans-serif;">*</text><text x="153.0909090909091" y="136.94569536423842" text-anchor="start" style="font-family: sans-serif;">*</text><text x="187.0909090909091" y="138.59690949227374" text-anchor="start" style="font-family: sans-serif;">*</text><text x="289.09090909090907" y="140.24812362030906" text-anchor="start" style="font-family: sans-serif;">*</text><text x="323.09090909090907" y="142.49977924944812" text-anchor="start" style="font-family: sans-serif;">*</text><g class="x axis" transform="translate(0,140)"><g class="tick" transform="translate(20.5,0)" style="opacity: 1;"><line y2="6" x2="0"></line><text dy="-.45em" y="9" x="0" transform="rotate(-65)" dx="-.65em" style="text-anchor: end; font-family: sans-serif; font-size: 11px;">intronic</text></g><g class="tick" transform="translate(54.5,0)" style="opacity: 1;"><line y2="6" x2="0"></line><text dy="-.45em" y="9" x="0" transform="rotate(-65)" dx="-.65em" style="text-anchor: end; font-family: sans-serif; font-size: 11px;">intergenic</text></g><g class="tick" transform="translate(88.5,0)" style="opacity: 1;"><line y2="6" x2="0"></line><text dy="-.45em" y="9" x="0" transform="rotate(-65)" dx="-.65em" style="text-anchor: end; font-family: sans-serif; font-size: 11px;">ncRNA_intronic</text></g><g class="tick" transform="translate(122.5,0)" style="opacity: 1;"><line y2="6" x2="0"></line><text dy="-.45em" y="9" x="0" transform="rotate(-65)" dx="-.65em" style="text-anchor: end; font-family: sans-serif; font-size: 11px;">exonic</text></g><g class="tick" transform="translate(156.5,0)" style="opacity: 1;"><line y2="6" x2="0"></line><text dy="-.45em" y="9" x="0" transform="rotate(-65)" dx="-.65em" style="text-anchor: end; font-family: sans-serif; font-size: 11px;">ncRNA_exonic</text></g><g class="tick" transform="translate(190.5,0)" style="opacity: 1;"><line y2="6" x2="0"></line><text dy="-.45em" y="9" x="0" transform="rotate(-65)" dx="-.65em" style="text-anchor: end; font-family: sans-serif; font-size: 11px;">UTR3</text></g><g class="tick" transform="translate(224.5,0)" style="opacity: 1;"><line y2="6" x2="0"></line><text dy="-.45em" y="9" x="0" transform="rotate(-65)" dx="-.65em" style="text-anchor: end; font-family: sans-serif; font-size: 11px;">upstream</text></g><g class="tick" transform="translate(258.5,0)" style="opacity: 1;"><line y2="6" x2="0"></line><text dy="-.45em" y="9" x="0" transform="rotate(-65)" dx="-.65em" style="text-anchor: end; font-family: sans-serif; font-size: 11px;">downstream</text></g><g class="tick" transform="translate(292.5,0)" style="opacity: 1;"><line y2="6" x2="0"></line><text dy="-.45em" y="9" x="0" transform="rotate(-65)" dx="-.65em" style="text-anchor: end; font-family: sans-serif; font-size: 11px;">UTR5</text></g><g class="tick" transform="translate(326.5,0)" style="opacity: 1;"><line y2="6" x2="0"></line><text dy="-.45em" y="9" x="0" transform="rotate(-65)" dx="-.65em" style="text-anchor: end; font-family: sans-serif; font-size: 11px;">splicing</text></g><g class="tick" transform="translate(360.5,0)" style="opacity: 1;"><line y2="6" x2="0"></line><text dy="-.45em" y="9" x="0" transform="rotate(-65)" dx="-.65em" style="text-anchor: end; font-family: sans-serif; font-size: 11px;">ncRNA_splicing</text></g><path class="domain" d="M0,6V0H380V6" style="fill: none; stroke: grey;"></path></g><g class="y axis"><g class="tick" transform="translate(0,140)" style="opacity: 1;"><line x2="-6" y2="0"></line><text dy=".32em" x="-9" y="0" style="text-anchor: end; font-family: sans-serif; font-size: 11px;">0.0</text></g><g class="tick" transform="translate(0,111.34657836644591)" style="opacity: 1;"><line x2="-6" y2="0"></line><text dy=".32em" x="-9" y="0" style="text-anchor: end; font-family: sans-serif; font-size: 11px;">0.1</text></g><g class="tick" transform="translate(0,82.69315673289184)" style="opacity: 1;"><line x2="-6" y2="0"></line><text dy=".32em" x="-9" y="0" style="text-anchor: end; font-family: sans-serif; font-size: 11px;">0.2</text></g><g class="tick" transform="translate(0,54.03973509933777)" style="opacity: 1;"><line x2="-6" y2="0"></line><text dy=".32em" x="-9" y="0" style="text-anchor: end; font-family: sans-serif; font-size: 11px;">0.3</text></g><g class="tick" transform="translate(0,25.38631346578368)" style="opacity: 1;"><line x2="-6" y2="0"></line><text dy=".32em" x="-9" y="0" style="text-anchor: end; font-family: sans-serif; font-size: 11px;">0.4</text></g><path class="domain" d="M-6,0H0V140H-6" style="fill: none; stroke: grey;"></path><text transform="rotate(-90)" dy=".71em" style="text-anchor: end; font-family: sans-serif; font-size: 11px;"></text></g><text text-anchor="middle" transform="translate(-28,70)rotate(-90)" style="font-family: sans-serif;">Proportion</text></g></svg>