<svg width="560" height="600"><g transform="translate(80,30)"><g><text transform="translate(195,480)rotate(-70)" style="text-anchor: end; font-size: 11px; font-family: sans-serif;">Adipose_Tissue</text><text transform="translate(255,480)rotate(-70)" style="text-anchor: end; font-size: 11px; font-family: sans-serif;">Adrenal_Gland</text><text transform="translate(90,480)rotate(-70)" style="text-anchor: end; font-size: 11px; font-family: sans-serif;">Bladder</text><text transform="translate(225,480)rotate(-70)" style="text-anchor: end; font-size: 11px; font-family: sans-serif;">Blood</text><text transform="translate(180,480)rotate(-70)" style="text-anchor: end; font-size: 11px; font-family: sans-serif;">Blood_Vessel</text><text transform="translate(270,480)rotate(-70)" style="text-anchor: end; font-size: 11px; font-family: sans-serif;">Brain</text><text transform="translate(435,480)rotate(-70)" style="text-anchor: end; font-size: 11px; font-family: sans-serif;">Breast</text><text transform="translate(390,480)rotate(-70)" style="text-anchor: end; font-size: 11px; font-family: sans-serif;">Cervix_Uteri</text><text transform="translate(315,480)rotate(-70)" style="text-anchor: end; font-size: 11px; font-family: sans-serif;">Colon</text><text transform="translate(105,480)rotate(-70)" style="text-anchor: end; font-size: 11px; font-family: sans-serif;">Esophagus</text><text transform="translate(450,480)rotate(-70)" style="text-anchor: end; font-size: 11px; font-family: sans-serif;">Fallopian_Tube</text><text transform="translate(120,480)rotate(-70)" style="text-anchor: end; font-size: 11px; font-family: sans-serif;">Heart</text><text transform="translate(330,480)rotate(-70)" style="text-anchor: end; font-size: 11px; font-family: sans-serif;">Kidney</text><text transform="translate(60,480)rotate(-70)" style="text-anchor: end; font-size: 11px; font-family: sans-serif;">Liver</text><text transform="translate(405,480)rotate(-70)" style="text-anchor: end; font-size: 11px; font-family: sans-serif;">Lung</text><text transform="translate(75,480)rotate(-70)" style="text-anchor: end; font-size: 11px; font-family: sans-serif;">Muscle</text><text transform="translate(345,480)rotate(-70)" style="text-anchor: end; font-size: 11px; font-family: sans-serif;">Nerve</text><text transform="translate(30,480)rotate(-70)" style="text-anchor: end; font-size: 11px; font-family: sans-serif;">Ovary</text><text transform="translate(165,480)rotate(-70)" style="text-anchor: end; font-size: 11px; font-family: sans-serif;">Pancreas</text><text transform="translate(210,480)rotate(-70)" style="text-anchor: end; font-size: 11px; font-family: sans-serif;">Pituitary</text><text transform="translate(375,480)rotate(-70)" style="text-anchor: end; font-size: 11px; font-family: sans-serif;">Prostate</text><text transform="translate(420,480)rotate(-70)" style="text-anchor: end; font-size: 11px; font-family: sans-serif;">Salivary_Gland</text><text transform="translate(15,480)rotate(-70)" style="text-anchor: end; font-size: 11px; font-family: sans-serif;">Skin</text><text transform="translate(150,480)rotate(-70)" style="text-anchor: end; font-size: 11px; font-family: sans-serif;">Small_Intestine</text><text transform="translate(285,480)rotate(-70)" style="text-anchor: end; font-size: 11px; font-family: sans-serif;">Spleen</text><text transform="translate(240,480)rotate(-70)" style="text-anchor: end; font-size: 11px; font-family: sans-serif;">Stomach</text><text transform="translate(135,480)rotate(-70)" style="text-anchor: end; font-size: 11px; font-family: sans-serif;">Testis</text><text transform="translate(45,480)rotate(-70)" style="text-anchor: end; font-size: 11px; font-family: sans-serif;">Thyroid</text><text transform="translate(300,480)rotate(-70)" style="text-anchor: end; font-size: 11px; font-family: sans-serif;">Uterus</text><text transform="translate(360,480)rotate(-70)" style="text-anchor: end; font-size: 11px; font-family: sans-serif;">Vagina</text></g><rect class="bar" x="180" width="14" y="150" height="0" style="fill: rgb(86, 104, 244); stroke: grey; stroke-width: 0.3;"></rect><rect class="bar" x="240" width="14" y="150" height="0" style="fill: rgb(86, 104, 244); stroke: grey; stroke-width: 0.3;"></rect><rect class="bar" x="75" width="14" y="96.3435190713472" height="53.6564809286528" style="fill: rgb(86, 104, 244); stroke: grey; stroke-width: 0.3;"></rect><rect class="bar" x="210" width="14" y="150" height="0" style="fill: rgb(86, 104, 244); stroke: grey; stroke-width: 0.3;"></rect><rect class="bar" x="165" width="14" y="136.9611376545882" height="13.038862345411786" style="fill: rgb(86, 104, 244); stroke: grey; stroke-width: 0.3;"></rect><rect class="bar" x="255" width="14" y="84.93323783659481" height="65.06676216340519" style="fill: rgb(86, 104, 244); stroke: grey; stroke-width: 0.3;"></rect><rect class="bar" x="420" width="14" y="150" height="0" style="fill: rgb(86, 104, 244); stroke: grey; stroke-width: 0.3;"></rect><rect class="bar" x="375" width="14" y="139.58609628914638" height="10.413903710853617" style="fill: rgb(86, 104, 244); stroke: grey; stroke-width: 0.3;"></rect><rect class="bar" x="300" width="14" y="120.90021137882378" height="29.099788621176216" style="fill: rgb(86, 104, 244); stroke: grey; stroke-width: 0.3;"></rect><rect class="bar" x="90" width="14" y="137.3301929481108" height="12.669807051889194" style="fill: rgb(86, 104, 244); stroke: grey; stroke-width: 0.3;"></rect><rect class="bar" x="435" width="14" y="150" height="0" style="fill: rgb(86, 104, 244); stroke: grey; stroke-width: 0.3;"></rect><rect class="bar" x="105" width="14" y="150" height="0" style="fill: rgb(86, 104, 244); stroke: grey; stroke-width: 0.3;"></rect><rect class="bar" x="315" width="14" y="150" height="0" style="fill: rgb(86, 104, 244); stroke: grey; stroke-width: 0.3;"></rect><rect class="bar" x="45" width="14" y="140.2620623721872" height="9.737937627812812" style="fill: rgb(86, 104, 244); stroke: grey; stroke-width: 0.3;"></rect><rect class="bar" x="390" width="14" y="150" height="0" style="fill: rgb(86, 104, 244); stroke: grey; stroke-width: 0.3;"></rect><rect class="bar" x="60" width="14" y="108.85261575906343" height="41.147384240936574" style="fill: rgb(86, 104, 244); stroke: grey; stroke-width: 0.3;"></rect><rect class="bar" x="330" width="14" y="148.6669143771656" height="1.3330856228344032" style="fill: rgb(86, 104, 244); stroke: grey; stroke-width: 0.3;"></rect><rect class="bar" x="15" width="14" y="112.50602969861555" height="37.49397030138445" style="fill: rgb(86, 104, 244); stroke: grey; stroke-width: 0.3;"></rect><rect class="bar" x="150" width="14" y="150" height="0" style="fill: rgb(86, 104, 244); stroke: grey; stroke-width: 0.3;"></rect><rect class="bar" x="195" width="14" y="104.29812543125149" height="45.70187456874851" style="fill: rgb(86, 104, 244); stroke: grey; stroke-width: 0.3;"></rect><rect class="bar" x="360" width="14" y="141.55190801388247" height="8.448091986117532" style="fill: rgb(86, 104, 244); stroke: grey; stroke-width: 0.3;"></rect><rect class="bar" x="405" width="14" y="143.03388701677872" height="6.966112983221279" style="fill: rgb(86, 104, 244); stroke: grey; stroke-width: 0.3;"></rect><rect class="bar" x="0" width="14" y="127.04873481534412" height="22.95126518465588" style="fill: rgb(86, 104, 244); stroke: grey; stroke-width: 0.3;"></rect><rect class="bar" x="135" width="14" y="137.68781916652313" height="12.312180833476873" style="fill: rgb(86, 104, 244); stroke: grey; stroke-width: 0.3;"></rect><rect class="bar" x="270" width="14" y="150" height="0" style="fill: rgb(86, 104, 244); stroke: grey; stroke-width: 0.3;"></rect><rect class="bar" x="225" width="14" y="107.65778685167966" height="42.34221314832034" style="fill: rgb(86, 104, 244); stroke: grey; stroke-width: 0.3;"></rect><rect class="bar" x="120" width="14" y="116.98440109347735" height="33.015598906522655" style="fill: rgb(86, 104, 244); stroke: grey; stroke-width: 0.3;"></rect><rect class="bar" x="30" width="14" y="70.20718552691697" height="79.79281447308303" style="fill: rgb(86, 104, 244); stroke: grey; stroke-width: 0.3;"></rect><rect class="bar" x="285" width="14" y="148.3018331577528" height="1.6981668422471898" style="fill: rgb(86, 104, 244); stroke: grey; stroke-width: 0.3;"></rect><rect class="bar" x="345" width="14" y="138.33278466191302" height="11.667215338086976" style="fill: rgb(86, 104, 244); stroke: grey; stroke-width: 0.3;"></rect><g class="y axis"><g class="tick" transform="translate(0,150)" style="opacity: 1;"><line x2="-6" y2="0" style="fill: none; stroke: grey;"></line><text dy=".32em" x="-9" y="0" style="text-anchor: end; font-size: 11px; font-family: sans-serif;">0.0</text></g><g class="tick" transform="translate(0,119.92916689718166)" style="opacity: 1;"><line x2="-6" y2="0" style="fill: none; stroke: grey;"></line><text dy=".32em" x="-9" y="0" style="text-anchor: end; font-size: 11px; font-family: sans-serif;">0.5</text></g><g class="tick" transform="translate(0,89.85833379436333)" style="opacity: 1;"><line x2="-6" y2="0" style="fill: none; stroke: grey;"></line><text dy=".32em" x="-9" y="0" style="text-anchor: end; font-size: 11px; font-family: sans-serif;">1.0</text></g><g class="tick" transform="translate(0,59.78750069154501)" style="opacity: 1;"><line x2="-6" y2="0" style="fill: none; stroke: grey;"></line><text dy=".32em" x="-9" y="0" style="text-anchor: end; font-size: 11px; font-family: sans-serif;">1.5</text></g><g class="tick" transform="translate(0,29.71666758872668)" style="opacity: 1;"><line x2="-6" y2="0" style="fill: none; stroke: grey;"></line><text dy=".32em" x="-9" y="0" style="text-anchor: end; font-size: 11px; font-family: sans-serif;">2.0</text></g><path class="domain" d="M-6,0H0V150H-6" style="fill: none; stroke: grey;"></path></g><g class="x axis" transform="translate(0,150)"><g class="tick" transform="translate(7.5,0)" style="opacity: 1;"><line y2="6" x2="0" style="fill: none; stroke: grey;"></line></g><g class="tick" transform="translate(22.5,0)" style="opacity: 1;"><line y2="6" x2="0" style="fill: none; stroke: grey;"></line></g><g class="tick" transform="translate(37.5,0)" style="opacity: 1;"><line y2="6" x2="0" style="fill: none; stroke: grey;"></line></g><g class="tick" transform="translate(52.5,0)" style="opacity: 1;"><line y2="6" x2="0" style="fill: none; stroke: grey;"></line></g><g class="tick" transform="translate(67.5,0)" style="opacity: 1;"><line y2="6" x2="0" style="fill: none; stroke: grey;"></line></g><g class="tick" transform="translate(82.5,0)" style="opacity: 1;"><line y2="6" x2="0" style="fill: none; stroke: grey;"></line></g><g class="tick" transform="translate(97.5,0)" style="opacity: 1;"><line y2="6" x2="0" style="fill: none; stroke: grey;"></line></g><g class="tick" transform="translate(112.5,0)" style="opacity: 1;"><line y2="6" x2="0" style="fill: none; stroke: grey;"></line></g><g class="tick" transform="translate(127.5,0)" style="opacity: 1;"><line y2="6" x2="0" style="fill: none; stroke: grey;"></line></g><g class="tick" transform="translate(142.5,0)" style="opacity: 1;"><line y2="6" x2="0" style="fill: none; stroke: grey;"></line></g><g class="tick" transform="translate(157.5,0)" style="opacity: 1;"><line y2="6" x2="0" style="fill: none; stroke: grey;"></line></g><g class="tick" transform="translate(172.5,0)" style="opacity: 1;"><line y2="6" x2="0" style="fill: none; stroke: grey;"></line></g><g class="tick" transform="translate(187.5,0)" style="opacity: 1;"><line y2="6" x2="0" style="fill: none; stroke: grey;"></line></g><g class="tick" transform="translate(202.5,0)" style="opacity: 1;"><line y2="6" x2="0" style="fill: none; stroke: grey;"></line></g><g class="tick" transform="translate(217.5,0)" style="opacity: 1;"><line y2="6" x2="0" style="fill: none; stroke: grey;"></line></g><g class="tick" transform="translate(232.5,0)" style="opacity: 1;"><line y2="6" x2="0" style="fill: none; stroke: grey;"></line></g><g class="tick" transform="translate(247.5,0)" style="opacity: 1;"><line y2="6" x2="0" style="fill: none; stroke: grey;"></line></g><g class="tick" transform="translate(262.5,0)" style="opacity: 1;"><line y2="6" x2="0" style="fill: none; stroke: grey;"></line></g><g class="tick" transform="translate(277.5,0)" style="opacity: 1;"><line y2="6" x2="0" style="fill: none; stroke: grey;"></line></g><g class="tick" transform="translate(292.5,0)" style="opacity: 1;"><line y2="6" x2="0" style="fill: none; stroke: grey;"></line></g><g class="tick" transform="translate(307.5,0)" style="opacity: 1;"><line y2="6" x2="0" style="fill: none; stroke: grey;"></line></g><g class="tick" transform="translate(322.5,0)" style="opacity: 1;"><line y2="6" x2="0" style="fill: none; stroke: grey;"></line></g><g class="tick" transform="translate(337.5,0)" style="opacity: 1;"><line y2="6" x2="0" style="fill: none; stroke: grey;"></line></g><g class="tick" transform="translate(352.5,0)" style="opacity: 1;"><line y2="6" x2="0" style="fill: none; stroke: grey;"></line></g><g class="tick" transform="translate(367.5,0)" style="opacity: 1;"><line y2="6" x2="0" style="fill: none; stroke: grey;"></line></g><g class="tick" transform="translate(382.5,0)" style="opacity: 1;"><line y2="6" x2="0" style="fill: none; stroke: grey;"></line></g><g class="tick" transform="translate(397.5,0)" style="opacity: 1;"><line y2="6" x2="0" style="fill: none; stroke: grey;"></line></g><g class="tick" transform="translate(412.5,0)" style="opacity: 1;"><line y2="6" x2="0" style="fill: none; stroke: grey;"></line></g><g class="tick" transform="translate(427.5,0)" style="opacity: 1;"><line y2="6" x2="0" style="fill: none; stroke: grey;"></line></g><g class="tick" transform="translate(442.5,0)" style="opacity: 1;"><line y2="6" x2="0" style="fill: none; stroke: grey;"></line></g><path class="domain" d="M0,6V0H450V6" style="fill: none; stroke: grey;"></path></g><text text-anchor="middle" transform="translate(465,75)rotate(90)" style="font-family: sans-serif;">Up-regulated DEG</text><rect class="bar" x="180" width="14" y="217.0257414409165" height="92.9742585590835" style="fill: rgb(86, 104, 244); stroke: grey; stroke-width: 0.3;"></rect><rect class="bar" x="240" width="14" y="251.96031227804897" height="58.039687721951026" style="fill: rgb(86, 104, 244); stroke: grey; stroke-width: 0.3;"></rect><rect class="bar" x="75" width="14" y="310" height="0" style="fill: rgb(86, 104, 244); stroke: grey; stroke-width: 0.3;"></rect><rect class="bar" x="210" width="14" y="241.1085744100582" height="68.8914255899418" style="fill: rgb(86, 104, 244); stroke: grey; stroke-width: 0.3;"></rect><rect class="bar" x="165" width="14" y="257.1841155893876" height="52.8158844106124" style="fill: rgb(86, 104, 244); stroke: grey; stroke-width: 0.3;"></rect><rect class="bar" x="255" width="14" y="304.43115494470123" height="5.568845055298766" style="fill: rgb(86, 104, 244); stroke: grey; stroke-width: 0.3;"></rect><rect class="bar" x="420" width="14" y="293.49865090378273" height="16.501349096217268" style="fill: rgb(86, 104, 244); stroke: grey; stroke-width: 0.3;"></rect><rect class="bar" x="375" width="14" y="310" height="0" style="fill: rgb(86, 104, 244); stroke: grey; stroke-width: 0.3;"></rect><rect class="bar" x="300" width="14" y="298.7705761583694" height="11.229423841630592" style="fill: rgb(86, 104, 244); stroke: grey; stroke-width: 0.3;"></rect><rect class="bar" x="90" width="14" y="256.07481352764387" height="53.92518647235613" style="fill: rgb(86, 104, 244); stroke: grey; stroke-width: 0.3;"></rect><rect class="bar" x="435" width="14" y="310" height="0" style="fill: rgb(86, 104, 244); stroke: grey; stroke-width: 0.3;"></rect><rect class="bar" x="105" width="14" y="256.42127877829506" height="53.57872122170494" style="fill: rgb(86, 104, 244); stroke: grey; stroke-width: 0.3;"></rect><rect class="bar" x="315" width="14" y="268.3058682840615" height="41.69413171593851" style="fill: rgb(86, 104, 244); stroke: grey; stroke-width: 0.3;"></rect><rect class="bar" x="45" width="14" y="232.53262578372664" height="77.46737421627336" style="fill: rgb(86, 104, 244); stroke: grey; stroke-width: 0.3;"></rect><rect class="bar" x="390" width="14" y="217.34123919498415" height="92.65876080501585" style="fill: rgb(86, 104, 244); stroke: grey; stroke-width: 0.3;"></rect><rect class="bar" x="60" width="14" y="272.34343815811394" height="37.65656184188606" style="fill: rgb(86, 104, 244); stroke: grey; stroke-width: 0.3;"></rect><rect class="bar" x="330" width="14" y="166.70781507661417" height="143.29218492338583" style="fill: rgb(86, 104, 244); stroke: grey; stroke-width: 0.3;"></rect><rect class="bar" x="15" width="14" y="213.69255569308143" height="96.30744430691857" style="fill: rgb(86, 104, 244); stroke: grey; stroke-width: 0.3;"></rect><rect class="bar" x="150" width="14" y="259.8069327951787" height="50.19306720482132" style="fill: rgb(86, 104, 244); stroke: grey; stroke-width: 0.3;"></rect><rect class="bar" x="195" width="14" y="303.26886425035605" height="6.731135749643954" style="fill: rgb(86, 104, 244); stroke: grey; stroke-width: 0.3;"></rect><rect class="bar" x="360" width="14" y="287.81299552689615" height="22.187004473103855" style="fill: rgb(86, 104, 244); stroke: grey; stroke-width: 0.3;"></rect><rect class="bar" x="405" width="14" y="302.8484851076953" height="7.151514892304704" style="fill: rgb(86, 104, 244); stroke: grey; stroke-width: 0.3;"></rect><rect class="bar" x="0" width="14" y="165.5999476973752" height="144.4000523026248" style="fill: rgb(86, 104, 244); stroke: grey; stroke-width: 0.3;"></rect><rect class="bar" x="135" width="14" y="244.23954355216665" height="65.76045644783335" style="fill: rgb(86, 104, 244); stroke: grey; stroke-width: 0.3;"></rect><rect class="bar" x="270" width="14" y="160.92191825073726" height="149.07808174926274" style="fill: rgb(86, 104, 244); stroke: grey; stroke-width: 0.3;"></rect><rect class="bar" x="225" width="14" y="296.20906929868323" height="13.790930701316768" style="fill: rgb(86, 104, 244); stroke: grey; stroke-width: 0.3;"></rect><rect class="bar" x="120" width="14" y="284.4406154963172" height="25.559384503682793" style="fill: rgb(86, 104, 244); stroke: grey; stroke-width: 0.3;"></rect><rect class="bar" x="30" width="14" y="294.1005606687593" height="15.899439331240728" style="fill: rgb(86, 104, 244); stroke: grey; stroke-width: 0.3;"></rect><rect class="bar" x="285" width="14" y="160" height="150" style="fill: rgb(86, 104, 244); stroke: grey; stroke-width: 0.3;"></rect><rect class="bar" x="345" width="14" y="285.0631265941522" height="24.93687340584779" style="fill: rgb(86, 104, 244); stroke: grey; stroke-width: 0.3;"></rect><g class="y axis"><g class="tick" transform="translate(0,310)" style="opacity: 1;"><line x2="-6" y2="0" style="fill: none; stroke: grey;"></line><text dy=".32em" x="-9" y="0" style="text-anchor: end; font-family: sans-serif;">0.0</text></g><g class="tick" transform="translate(0,279.92916689718163)" style="opacity: 1;"><line x2="-6" y2="0" style="fill: none; stroke: grey;"></line><text dy=".32em" x="-9" y="0" style="text-anchor: end; font-family: sans-serif;">0.5</text></g><g class="tick" transform="translate(0,249.85833379436332)" style="opacity: 1;"><line x2="-6" y2="0" style="fill: none; stroke: grey;"></line><text dy=".32em" x="-9" y="0" style="text-anchor: end; font-family: sans-serif;">1.0</text></g><g class="tick" transform="translate(0,219.787500691545)" style="opacity: 1;"><line x2="-6" y2="0" style="fill: none; stroke: grey;"></line><text dy=".32em" x="-9" y="0" style="text-anchor: end; font-family: sans-serif;">1.5</text></g><g class="tick" transform="translate(0,189.7166675887267)" style="opacity: 1;"><line x2="-6" y2="0" style="fill: none; stroke: grey;"></line><text dy=".32em" x="-9" y="0" style="text-anchor: end; font-family: sans-serif;">2.0</text></g><path class="domain" d="M-6,160H0V310H-6" style="fill: none; stroke: grey;"></path></g><g class="x axis" transform="translate(0, 310)"><g class="tick" transform="translate(7.5,0)" style="opacity: 1;"><line y2="6" x2="0" style="fill: none; stroke: grey;"></line></g><g class="tick" transform="translate(22.5,0)" style="opacity: 1;"><line y2="6" x2="0" style="fill: none; stroke: grey;"></line></g><g class="tick" transform="translate(37.5,0)" style="opacity: 1;"><line y2="6" x2="0" style="fill: none; stroke: grey;"></line></g><g class="tick" transform="translate(52.5,0)" style="opacity: 1;"><line y2="6" x2="0" style="fill: none; stroke: grey;"></line></g><g class="tick" transform="translate(67.5,0)" style="opacity: 1;"><line y2="6" x2="0" style="fill: none; stroke: grey;"></line></g><g class="tick" transform="translate(82.5,0)" style="opacity: 1;"><line y2="6" x2="0" style="fill: none; stroke: grey;"></line></g><g class="tick" transform="translate(97.5,0)" style="opacity: 1;"><line y2="6" x2="0" style="fill: none; stroke: grey;"></line></g><g class="tick" transform="translate(112.5,0)" style="opacity: 1;"><line y2="6" x2="0" style="fill: none; stroke: grey;"></line></g><g class="tick" transform="translate(127.5,0)" style="opacity: 1;"><line y2="6" x2="0" style="fill: none; stroke: grey;"></line></g><g class="tick" transform="translate(142.5,0)" style="opacity: 1;"><line y2="6" x2="0" style="fill: none; stroke: grey;"></line></g><g class="tick" transform="translate(157.5,0)" style="opacity: 1;"><line y2="6" x2="0" style="fill: none; stroke: grey;"></line></g><g class="tick" transform="translate(172.5,0)" style="opacity: 1;"><line y2="6" x2="0" style="fill: none; stroke: grey;"></line></g><g class="tick" transform="translate(187.5,0)" style="opacity: 1;"><line y2="6" x2="0" style="fill: none; stroke: grey;"></line></g><g class="tick" transform="translate(202.5,0)" style="opacity: 1;"><line y2="6" x2="0" style="fill: none; stroke: grey;"></line></g><g class="tick" transform="translate(217.5,0)" style="opacity: 1;"><line y2="6" x2="0" style="fill: none; stroke: grey;"></line></g><g class="tick" transform="translate(232.5,0)" style="opacity: 1;"><line y2="6" x2="0" style="fill: none; stroke: grey;"></line></g><g class="tick" transform="translate(247.5,0)" style="opacity: 1;"><line y2="6" x2="0" style="fill: none; stroke: grey;"></line></g><g class="tick" transform="translate(262.5,0)" style="opacity: 1;"><line y2="6" x2="0" style="fill: none; stroke: grey;"></line></g><g class="tick" transform="translate(277.5,0)" style="opacity: 1;"><line y2="6" x2="0" style="fill: none; stroke: grey;"></line></g><g class="tick" transform="translate(292.5,0)" style="opacity: 1;"><line y2="6" x2="0" style="fill: none; stroke: grey;"></line></g><g class="tick" transform="translate(307.5,0)" style="opacity: 1;"><line y2="6" x2="0" style="fill: none; stroke: grey;"></line></g><g class="tick" transform="translate(322.5,0)" style="opacity: 1;"><line y2="6" x2="0" style="fill: none; stroke: grey;"></line></g><g class="tick" transform="translate(337.5,0)" style="opacity: 1;"><line y2="6" x2="0" style="fill: none; stroke: grey;"></line></g><g class="tick" transform="translate(352.5,0)" style="opacity: 1;"><line y2="6" x2="0" style="fill: none; stroke: grey;"></line></g><g class="tick" transform="translate(367.5,0)" style="opacity: 1;"><line y2="6" x2="0" style="fill: none; stroke: grey;"></line></g><g class="tick" transform="translate(382.5,0)" style="opacity: 1;"><line y2="6" x2="0" style="fill: none; stroke: grey;"></line></g><g class="tick" transform="translate(397.5,0)" style="opacity: 1;"><line y2="6" x2="0" style="fill: none; stroke: grey;"></line></g><g class="tick" transform="translate(412.5,0)" style="opacity: 1;"><line y2="6" x2="0" style="fill: none; stroke: grey;"></line></g><g class="tick" transform="translate(427.5,0)" style="opacity: 1;"><line y2="6" x2="0" style="fill: none; stroke: grey;"></line></g><g class="tick" transform="translate(442.5,0)" style="opacity: 1;"><line y2="6" x2="0" style="fill: none; stroke: grey;"></line></g><path class="domain" d="M0,6V0H450V6" style="fill: none; stroke: grey;"></path></g><text text-anchor="middle" transform="translate(465,235)rotate(90)" style="font-family: sans-serif;">Down-regulated DEG</text><rect class="bar" x="180" width="14" y="434.8098403587195" height="35.1901596412805" style="fill: rgb(86, 104, 244); stroke: grey; stroke-width: 0.3;"></rect><rect class="bar" x="240" width="14" y="439.74410988682695" height="30.255890113173052" style="fill: rgb(86, 104, 244); stroke: grey; stroke-width: 0.3;"></rect><rect class="bar" x="75" width="14" y="421.28300422530435" height="48.71699577469565" style="fill: rgb(86, 104, 244); stroke: grey; stroke-width: 0.3;"></rect><rect class="bar" x="210" width="14" y="436.7298116189412" height="33.2701883810588" style="fill: rgb(86, 104, 244); stroke: grey; stroke-width: 0.3;"></rect><rect class="bar" x="165" width="14" y="430.73769979376056" height="39.262300206239445" style="fill: rgb(86, 104, 244); stroke: grey; stroke-width: 0.3;"></rect><rect class="bar" x="255" width="14" y="439.77563281944913" height="30.22436718055087" style="fill: rgb(86, 104, 244); stroke: grey; stroke-width: 0.3;"></rect><rect class="bar" x="420" width="14" y="467.31380550477684" height="2.6861944952231624" style="fill: rgb(86, 104, 244); stroke: grey; stroke-width: 0.3;"></rect><rect class="bar" x="375" width="14" y="459.91753411836794" height="10.08246588163206" style="fill: rgb(86, 104, 244); stroke: grey; stroke-width: 0.3;"></rect><rect class="bar" x="300" width="14" y="444.67279862341337" height="25.32720137658663" style="fill: rgb(86, 104, 244); stroke: grey; stroke-width: 0.3;"></rect><rect class="bar" x="90" width="14" y="423.6809795006016" height="46.31902049939839" style="fill: rgb(86, 104, 244); stroke: grey; stroke-width: 0.3;"></rect><rect class="bar" x="435" width="14" y="470" height="0" style="fill: rgb(86, 104, 244); stroke: grey; stroke-width: 0.3;"></rect><rect class="bar" x="105" width="14" y="424.98343724367396" height="45.01656275632604" style="fill: rgb(86, 104, 244); stroke: grey; stroke-width: 0.3;"></rect><rect class="bar" x="315" width="14" y="445.3973525337932" height="24.602647466206804" style="fill: rgb(86, 104, 244); stroke: grey; stroke-width: 0.3;"></rect><rect class="bar" x="45" width="14" y="399.1216102598195" height="70.87838974018052" style="fill: rgb(86, 104, 244); stroke: grey; stroke-width: 0.3;"></rect><rect class="bar" x="390" width="14" y="462.9191531743729" height="7.080846825627077" style="fill: rgb(86, 104, 244); stroke: grey; stroke-width: 0.3;"></rect><rect class="bar" x="60" width="14" y="413.72510719654645" height="56.274892803453554" style="fill: rgb(86, 104, 244); stroke: grey; stroke-width: 0.3;"></rect><rect class="bar" x="330" width="14" y="445.63286450223166" height="24.367135497768345" style="fill: rgb(86, 104, 244); stroke: grey; stroke-width: 0.3;"></rect><rect class="bar" x="15" width="14" y="374.84998120033237" height="95.15001879966763" style="fill: rgb(86, 104, 244); stroke: grey; stroke-width: 0.3;"></rect><rect class="bar" x="150" width="14" y="429.56073164641714" height="40.43926835358286" style="fill: rgb(86, 104, 244); stroke: grey; stroke-width: 0.3;"></rect><rect class="bar" x="195" width="14" y="435.11792765661613" height="34.88207234338387" style="fill: rgb(86, 104, 244); stroke: grey; stroke-width: 0.3;"></rect><rect class="bar" x="360" width="14" y="456.54302454844793" height="13.456975451552069" style="fill: rgb(86, 104, 244); stroke: grey; stroke-width: 0.3;"></rect><rect class="bar" x="405" width="14" y="463.74826312754567" height="6.25173687245433" style="fill: rgb(86, 104, 244); stroke: grey; stroke-width: 0.3;"></rect><rect class="bar" x="0" width="14" y="349.5181497220167" height="120.48185027798331" style="fill: rgb(86, 104, 244); stroke: grey; stroke-width: 0.3;"></rect><rect class="bar" x="135" width="14" y="426.3071666381462" height="43.692833361853786" style="fill: rgb(86, 104, 244); stroke: grey; stroke-width: 0.3;"></rect><rect class="bar" x="270" width="14" y="441.0270184640672" height="28.972981535932774" style="fill: rgb(86, 104, 244); stroke: grey; stroke-width: 0.3;"></rect><rect class="bar" x="225" width="14" y="438.21581338766185" height="31.784186612338146" style="fill: rgb(86, 104, 244); stroke: grey; stroke-width: 0.3;"></rect><rect class="bar" x="120" width="14" y="426.01226664027286" height="43.987733359727144" style="fill: rgb(86, 104, 244); stroke: grey; stroke-width: 0.3;"></rect><rect class="bar" x="30" width="14" y="389.13387655592516" height="80.86612344407484" style="fill: rgb(86, 104, 244); stroke: grey; stroke-width: 0.3;"></rect><rect class="bar" x="285" width="14" y="441.6117079535138" height="28.388292046486185" style="fill: rgb(86, 104, 244); stroke: grey; stroke-width: 0.3;"></rect><rect class="bar" x="345" width="14" y="451.43247046751077" height="18.56752953248923" style="fill: rgb(86, 104, 244); stroke: grey; stroke-width: 0.3;"></rect><text text-anchor="middle" transform="translate(465,395)rotate(90)" style="font-family: sans-serif;">DEG (both side)</text><g class="x axis" transform="translate(0,470)"><g class="tick" transform="translate(7.5,0)" style="opacity: 1;"><line y2="6" x2="0" style="fill: none; stroke: grey;"></line></g><g class="tick" transform="translate(22.5,0)" style="opacity: 1;"><line y2="6" x2="0" style="fill: none; stroke: grey;"></line></g><g class="tick" transform="translate(37.5,0)" style="opacity: 1;"><line y2="6" x2="0" style="fill: none; stroke: grey;"></line></g><g class="tick" transform="translate(52.5,0)" style="opacity: 1;"><line y2="6" x2="0" style="fill: none; stroke: grey;"></line></g><g class="tick" transform="translate(67.5,0)" style="opacity: 1;"><line y2="6" x2="0" style="fill: none; stroke: grey;"></line></g><g class="tick" transform="translate(82.5,0)" style="opacity: 1;"><line y2="6" x2="0" style="fill: none; stroke: grey;"></line></g><g class="tick" transform="translate(97.5,0)" style="opacity: 1;"><line y2="6" x2="0" style="fill: none; stroke: grey;"></line></g><g class="tick" transform="translate(112.5,0)" style="opacity: 1;"><line y2="6" x2="0" style="fill: none; stroke: grey;"></line></g><g class="tick" transform="translate(127.5,0)" style="opacity: 1;"><line y2="6" x2="0" style="fill: none; stroke: grey;"></line></g><g class="tick" transform="translate(142.5,0)" style="opacity: 1;"><line y2="6" x2="0" style="fill: none; stroke: grey;"></line></g><g class="tick" transform="translate(157.5,0)" style="opacity: 1;"><line y2="6" x2="0" style="fill: none; stroke: grey;"></line></g><g class="tick" transform="translate(172.5,0)" style="opacity: 1;"><line y2="6" x2="0" style="fill: none; stroke: grey;"></line></g><g class="tick" transform="translate(187.5,0)" style="opacity: 1;"><line y2="6" x2="0" style="fill: none; stroke: grey;"></line></g><g class="tick" transform="translate(202.5,0)" style="opacity: 1;"><line y2="6" x2="0" style="fill: none; stroke: grey;"></line></g><g class="tick" transform="translate(217.5,0)" style="opacity: 1;"><line y2="6" x2="0" style="fill: none; stroke: grey;"></line></g><g class="tick" transform="translate(232.5,0)" style="opacity: 1;"><line y2="6" x2="0" style="fill: none; stroke: grey;"></line></g><g class="tick" transform="translate(247.5,0)" style="opacity: 1;"><line y2="6" x2="0" style="fill: none; stroke: grey;"></line></g><g class="tick" transform="translate(262.5,0)" style="opacity: 1;"><line y2="6" x2="0" style="fill: none; stroke: grey;"></line></g><g class="tick" transform="translate(277.5,0)" style="opacity: 1;"><line y2="6" x2="0" style="fill: none; stroke: grey;"></line></g><g class="tick" transform="translate(292.5,0)" style="opacity: 1;"><line y2="6" x2="0" style="fill: none; stroke: grey;"></line></g><g class="tick" transform="translate(307.5,0)" style="opacity: 1;"><line y2="6" x2="0" style="fill: none; stroke: grey;"></line></g><g class="tick" transform="translate(322.5,0)" style="opacity: 1;"><line y2="6" x2="0" style="fill: none; stroke: grey;"></line></g><g class="tick" transform="translate(337.5,0)" style="opacity: 1;"><line y2="6" x2="0" style="fill: none; stroke: grey;"></line></g><g class="tick" transform="translate(352.5,0)" style="opacity: 1;"><line y2="6" x2="0" style="fill: none; stroke: grey;"></line></g><g class="tick" transform="translate(367.5,0)" style="opacity: 1;"><line y2="6" x2="0" style="fill: none; stroke: grey;"></line></g><g class="tick" transform="translate(382.5,0)" style="opacity: 1;"><line y2="6" x2="0" style="fill: none; stroke: grey;"></line></g><g class="tick" transform="translate(397.5,0)" style="opacity: 1;"><line y2="6" x2="0" style="fill: none; stroke: grey;"></line></g><g class="tick" transform="translate(412.5,0)" style="opacity: 1;"><line y2="6" x2="0" style="fill: none; stroke: grey;"></line></g><g class="tick" transform="translate(427.5,0)" style="opacity: 1;"><line y2="6" x2="0" style="fill: none; stroke: grey;"></line></g><g class="tick" transform="translate(442.5,0)" style="opacity: 1;"><line y2="6" x2="0" style="fill: none; stroke: grey;"></line></g><path class="domain" d="M0,6V0H450V6" style="fill: none; stroke: grey;"></path></g><g class="y axis"><g class="tick" transform="translate(0,470)" style="opacity: 1;"><line x2="-6" y2="0" style="fill: none; stroke: grey;"></line><text dy=".32em" x="-9" y="0" style="text-anchor: end; font-family: sans-serif;">0.0</text></g><g class="tick" transform="translate(0,439.9291668971817)" style="opacity: 1;"><line x2="-6" y2="0" style="fill: none; stroke: grey;"></line><text dy=".32em" x="-9" y="0" style="text-anchor: end; font-family: sans-serif;">0.5</text></g><g class="tick" transform="translate(0,409.85833379436326)" style="opacity: 1;"><line x2="-6" y2="0" style="fill: none; stroke: grey;"></line><text dy=".32em" x="-9" y="0" style="text-anchor: end; font-family: sans-serif;">1.0</text></g><g class="tick" transform="translate(0,379.787500691545)" style="opacity: 1;"><line x2="-6" y2="0" style="fill: none; stroke: grey;"></line><text dy=".32em" x="-9" y="0" style="text-anchor: end; font-family: sans-serif;">1.5</text></g><g class="tick" transform="translate(0,349.7166675887267)" style="opacity: 1;"><line x2="-6" y2="0" style="fill: none; stroke: grey;"></line><text dy=".32em" x="-9" y="0" style="text-anchor: end; font-family: sans-serif;">2.0</text></g><path class="domain" d="M-6,320H0V470H-6" style="fill: none; stroke: grey;"></path></g><text text-anchor="middle" transform="translate(-35,235)rotate(-90)" style="font-family: sans-serif;">-log 10 P-value</text></g></svg>