<svg width="657" height="165"><g transform="translate(217,40)"><rect class="bar" x="126.8471783516233" width="23.1528216483767" y="0" height="15" style="fill: rgb(255, 102, 102); stroke: grey; stroke-width: 0.3;"></rect><rect class="bar" x="123.86759581881535" width="26.132404181184654" y="15" height="15" style="fill: rgb(255, 102, 102); stroke: grey; stroke-width: 0.3;"></rect><rect class="bar" x="139.54703832752614" width="10.452961672473862" y="30" height="15" style="fill: rgb(255, 102, 102); stroke: grey; stroke-width: 0.3;"></rect><g class="x axis" transform="translate(0,45)"><g class="tick" transform="translate(137.61324041811847,0)" style="opacity: 1;"><line y2="6" x2="0" style="fill: none; stroke: grey;"></line><text dy=".71em" y="9" x="0" font-weight="normal" transform="translate(-10,3)rotate(-65)" style="text-anchor: end; font-size: 11px; font-family: sans-serif;">0.01</text></g><g class="tick" transform="translate(125.22648083623693,0)" style="opacity: 1;"><line y2="6" x2="0" style="fill: none; stroke: grey;"></line><text dy=".71em" y="9" x="0" font-weight="normal" transform="translate(-10,3)rotate(-65)" style="text-anchor: end; font-size: 11px; font-family: sans-serif;">0.02</text></g><g class="tick" transform="translate(112.8397212543554,0)" style="opacity: 1;"><line y2="6" x2="0" style="fill: none; stroke: grey;"></line><text dy=".71em" y="9" x="0" font-weight="normal" transform="translate(-10,3)rotate(-65)" style="text-anchor: end; font-size: 11px; font-family: sans-serif;">0.03</text></g><g class="tick" transform="translate(100.45296167247386,0)" style="opacity: 1;"><line y2="6" x2="0" style="fill: none; stroke: grey;"></line><text dy=".71em" y="9" x="0" font-weight="normal" transform="translate(-10,3)rotate(-65)" style="text-anchor: end; font-size: 11px; font-family: sans-serif;">0.04</text></g><g class="tick" transform="translate(88.06620209059233,0)" style="opacity: 1;"><line y2="6" x2="0" style="fill: none; stroke: grey;"></line><text dy=".71em" y="9" x="0" font-weight="normal" transform="translate(-10,3)rotate(-65)" style="text-anchor: end; font-size: 11px; font-family: sans-serif;">0.05</text></g><g class="tick" transform="translate(75.6794425087108,0)" style="opacity: 1;"><line y2="6" x2="0" style="fill: none; stroke: grey;"></line><text dy=".71em" y="9" x="0" font-weight="normal" transform="translate(-10,3)rotate(-65)" style="text-anchor: end; font-size: 11px; font-family: sans-serif;">0.06</text></g><g class="tick" transform="translate(63.29268292682926,0)" style="opacity: 1;"><line y2="6" x2="0" style="fill: none; stroke: grey;"></line><text dy=".71em" y="9" x="0" font-weight="normal" transform="translate(-10,3)rotate(-65)" style="text-anchor: end; font-size: 11px; font-family: sans-serif;">0.07</text></g><g class="tick" transform="translate(50.90592334494773,0)" style="opacity: 1;"><line y2="6" x2="0" style="fill: none; stroke: grey;"></line><text dy=".71em" y="9" x="0" font-weight="normal" transform="translate(-10,3)rotate(-65)" style="text-anchor: end; font-size: 11px; font-family: sans-serif;">0.08</text></g><g class="tick" transform="translate(38.5191637630662,0)" style="opacity: 1;"><line y2="6" x2="0" style="fill: none; stroke: grey;"></line><text dy=".71em" y="9" x="0" font-weight="normal" transform="translate(-10,3)rotate(-65)" style="text-anchor: end; font-size: 11px; font-family: sans-serif;">0.09</text></g><g class="tick" transform="translate(26.132404181184658,0)" style="opacity: 1;"><line y2="6" x2="0" style="fill: none; stroke: grey;"></line><text dy=".71em" y="9" x="0" font-weight="normal" transform="translate(-10,3)rotate(-65)" style="text-anchor: end; font-size: 11px; font-family: sans-serif;">0.10</text></g><g class="tick" transform="translate(13.745644599303132,0)" style="opacity: 1;"><line y2="6" x2="0" style="fill: none; stroke: grey;"></line><text dy=".71em" y="9" x="0" font-weight="normal" transform="translate(-10,3)rotate(-65)" style="text-anchor: end; font-size: 11px; font-family: sans-serif;">0.11</text></g><g class="tick" transform="translate(1.3588850174216056,0)" style="opacity: 1;"><line y2="6" x2="0" style="fill: none; stroke: grey;"></line><text dy=".71em" y="9" x="0" font-weight="normal" transform="translate(-10,3)rotate(-65)" style="text-anchor: end; font-size: 11px; font-family: sans-serif;">0.12</text></g><path class="domain" d="M0,6V0H150V6" style="fill: none; stroke: grey;"></path></g><rect class="bar" x="150" width="150" y="0" height="15" style="fill: rgb(77, 77, 255); stroke: grey; stroke-width: 0.3;"></rect><rect class="bar" x="150" width="131.2593827692274" y="15" height="15" style="fill: rgb(77, 77, 255); stroke: grey; stroke-width: 0.3;"></rect><rect class="bar" x="150" width="117.57471081160077" y="30" height="15" style="fill: rgb(77, 77, 255); stroke: grey; stroke-width: 0.3;"></rect><g class="x axis" transform="translate(0,45)"><g class="tick" transform="translate(150,0)" style="opacity: 1;"><line y2="6" x2="0" style="fill: none; stroke: grey;"></line><text dy=".71em" y="9" x="0" font-weight="normal" transform="translate(-10,3)rotate(-65)" style="text-anchor: end; font-size: 11px; font-family: sans-serif;">0.0</text></g><g class="tick" transform="translate(164.72084912541774,0)" style="opacity: 1;"><line y2="6" x2="0" style="fill: none; stroke: grey;"></line><text dy=".71em" y="9" x="0" font-weight="normal" transform="translate(-10,3)rotate(-65)" style="text-anchor: end; font-size: 11px; font-family: sans-serif;">0.2</text></g><g class="tick" transform="translate(179.44169825083546,0)" style="opacity: 1;"><line y2="6" x2="0" style="fill: none; stroke: grey;"></line><text dy=".71em" y="9" x="0" font-weight="normal" transform="translate(-10,3)rotate(-65)" style="text-anchor: end; font-size: 11px; font-family: sans-serif;">0.4</text></g><g class="tick" transform="translate(194.16254737625317,0)" style="opacity: 1;"><line y2="6" x2="0" style="fill: none; stroke: grey;"></line><text dy=".71em" y="9" x="0" font-weight="normal" transform="translate(-10,3)rotate(-65)" style="text-anchor: end; font-size: 11px; font-family: sans-serif;">0.6</text></g><g class="tick" transform="translate(208.88339650167092,0)" style="opacity: 1;"><line y2="6" x2="0" style="fill: none; stroke: grey;"></line><text dy=".71em" y="9" x="0" font-weight="normal" transform="translate(-10,3)rotate(-65)" style="text-anchor: end; font-size: 11px; font-family: sans-serif;">0.8</text></g><g class="tick" transform="translate(223.60424562708863,0)" style="opacity: 1;"><line y2="6" x2="0" style="fill: none; stroke: grey;"></line><text dy=".71em" y="9" x="0" font-weight="normal" transform="translate(-10,3)rotate(-65)" style="text-anchor: end; font-size: 11px; font-family: sans-serif;">1.0</text></g><g class="tick" transform="translate(238.32509475250635,0)" style="opacity: 1;"><line y2="6" x2="0" style="fill: none; stroke: grey;"></line><text dy=".71em" y="9" x="0" font-weight="normal" transform="translate(-10,3)rotate(-65)" style="text-anchor: end; font-size: 11px; font-family: sans-serif;">1.2</text></g><g class="tick" transform="translate(253.04594387792406,0)" style="opacity: 1;"><line y2="6" x2="0" style="fill: none; stroke: grey;"></line><text dy=".71em" y="9" x="0" font-weight="normal" transform="translate(-10,3)rotate(-65)" style="text-anchor: end; font-size: 11px; font-family: sans-serif;">1.4</text></g><g class="tick" transform="translate(267.76679300334183,0)" style="opacity: 1;"><line y2="6" x2="0" style="fill: none; stroke: grey;"></line><text dy=".71em" y="9" x="0" font-weight="normal" transform="translate(-10,3)rotate(-65)" style="text-anchor: end; font-size: 11px; font-family: sans-serif;">1.6</text></g><g class="tick" transform="translate(282.4876421287595,0)" style="opacity: 1;"><line y2="6" x2="0" style="fill: none; stroke: grey;"></line><text dy=".71em" y="9" x="0" font-weight="normal" transform="translate(-10,3)rotate(-65)" style="text-anchor: end; font-size: 11px; font-family: sans-serif;">1.8</text></g><g class="tick" transform="translate(297.20849125417726,0)" style="opacity: 1;"><line y2="6" x2="0" style="fill: none; stroke: grey;"></line><text dy=".71em" y="9" x="0" font-weight="normal" transform="translate(-10,3)rotate(-65)" style="text-anchor: end; font-size: 11px; font-family: sans-serif;">2.0</text></g><path class="domain" d="M150,6V0H300V6" style="fill: none; stroke: grey;"></path></g><g class="y axis"><g class="tick" transform="translate(0,7.5)" style="opacity: 1;"><line x2="-6" y2="0" style="fill: none; stroke: grey;"></line><text dy=".32em" x="-9" y="0" style="text-anchor: end; font-size: 11px; font-family: sans-serif;">GO_TUBULIN_BINDING</text></g><g class="tick" transform="translate(0,22.5)" style="opacity: 1;"><line x2="-6" y2="0" style="fill: none; stroke: grey;"></line><text dy=".32em" x="-9" y="0" style="text-anchor: end; font-size: 11px; font-family: sans-serif;">GO_MICROTUBULE_BINDING</text></g><g class="tick" transform="translate(0,37.5)" style="opacity: 1;"><line x2="-6" y2="0" style="fill: none; stroke: grey;"></line><text dy=".32em" x="-9" y="0" style="text-anchor: end; font-size: 11px; font-family: sans-serif;">GO_CYTOSKELETAL_PROTEIN_BINDING</text></g><path class="domain" d="M-6,0H0V45H-6" style="fill: none; stroke: grey;"></path></g><rect x="310" y="0" width="15" height="15" style="fill: rgb(255, 166, 74); stroke: grey; stroke-width: 0.3;"></rect><rect x="325" y="0" width="15" height="15" style="fill: rgb(255, 166, 74); stroke: grey; stroke-width: 0.3;"></rect><rect x="340" y="0" width="15" height="15" style="fill: rgb(255, 166, 74); stroke: grey; stroke-width: 0.3;"></rect><rect x="355" y="0" width="15" height="15" style="fill: rgb(255, 166, 74); stroke: grey; stroke-width: 0.3;"></rect><rect x="370" y="0" width="15" height="15" style="fill: rgb(255, 166, 74); stroke: grey; stroke-width: 0.3;"></rect><rect x="385" y="0" width="15" height="15" style="fill: rgb(255, 166, 74); stroke: grey; stroke-width: 0.3;"></rect><rect x="310" y="15" width="15" height="15" style="fill: rgb(255, 166, 74); stroke: grey; stroke-width: 0.3;"></rect><rect x="325" y="15" width="15" height="15" style="fill: rgb(255, 166, 74); stroke: grey; stroke-width: 0.3;"></rect><rect x="340" y="15" width="15" height="15" style="fill: rgb(255, 166, 74); stroke: grey; stroke-width: 0.3;"></rect><rect x="355" y="15" width="15" height="15" style="fill: rgb(255, 166, 74); stroke: grey; stroke-width: 0.3;"></rect><rect x="370" y="15" width="15" height="15" style="fill: rgb(255, 166, 74); stroke: grey; stroke-width: 0.3;"></rect><rect x="310" y="30" width="15" height="15" style="fill: rgb(255, 166, 74); stroke: grey; stroke-width: 0.3;"></rect><rect x="400" y="30" width="15" height="15" style="fill: rgb(255, 166, 74); stroke: grey; stroke-width: 0.3;"></rect><rect x="415" y="30" width="15" height="15" style="fill: rgb(255, 166, 74); stroke: grey; stroke-width: 0.3;"></rect><rect x="325" y="30" width="15" height="15" style="fill: rgb(255, 166, 74); stroke: grey; stroke-width: 0.3;"></rect><rect x="340" y="30" width="15" height="15" style="fill: rgb(255, 166, 74); stroke: grey; stroke-width: 0.3;"></rect><rect x="355" y="30" width="15" height="15" style="fill: rgb(255, 166, 74); stroke: grey; stroke-width: 0.3;"></rect><rect x="370" y="30" width="15" height="15" style="fill: rgb(255, 166, 74); stroke: grey; stroke-width: 0.3;"></rect><rect x="385" y="30" width="15" height="15" style="fill: rgb(255, 166, 74); stroke: grey; stroke-width: 0.3;"></rect><g class="y axis" transform="translate(310,0)"><g class="tick" transform="translate(0,7.5)" style="opacity: 1;"><line x2="-6" y2="0" style="fill: none; stroke: grey;"></line></g><g class="tick" transform="translate(0,22.5)" style="opacity: 1;"><line x2="-6" y2="0" style="fill: none; stroke: grey;"></line></g><g class="tick" transform="translate(0,37.5)" style="opacity: 1;"><line x2="-6" y2="0" style="fill: none; stroke: grey;"></line></g><path class="domain" d="M-6,0H0V45H-6" style="fill: none; stroke: grey;"></path></g><g class="x axis" transform="translate(0,45)"><g class="tick" transform="translate(317.5,0)" style="opacity: 1;"><line y2="6" x2="0" style="fill: none; stroke: grey;"></line><text dy=".71em" y="9" x="0" font-weight="normal" transform="translate(-10,3)rotate(-65)" style="text-anchor: end; font-size: 11px; font-family: sans-serif;">FAM175B</text></g><g class="tick" transform="translate(332.5,0)" style="opacity: 1;"><line y2="6" x2="0" style="fill: none; stroke: grey;"></line><text dy=".71em" y="9" x="0" font-weight="normal" transform="translate(-10,3)rotate(-65)" style="text-anchor: end; font-size: 11px; font-family: sans-serif;">GAS8</text></g><g class="tick" transform="translate(347.5,0)" style="opacity: 1;"><line y2="6" x2="0" style="fill: none; stroke: grey;"></line><text dy=".71em" y="9" x="0" font-weight="normal" transform="translate(-10,3)rotate(-65)" style="text-anchor: end; font-size: 11px; font-family: sans-serif;">MAPT</text></g><g class="tick" transform="translate(362.5,0)" style="opacity: 1;"><line y2="6" x2="0" style="fill: none; stroke: grey;"></line><text dy=".71em" y="9" x="0" font-weight="normal" transform="translate(-10,3)rotate(-65)" style="text-anchor: end; font-size: 11px; font-family: sans-serif;">DPYSL5</text></g><g class="tick" transform="translate(377.5,0)" style="opacity: 1;"><line y2="6" x2="0" style="fill: none; stroke: grey;"></line><text dy=".71em" y="9" x="0" font-weight="normal" transform="translate(-10,3)rotate(-65)" style="text-anchor: end; font-size: 11px; font-family: sans-serif;">MAPRE3</text></g><g class="tick" transform="translate(392.5,0)" style="opacity: 1;"><line y2="6" x2="0" style="fill: none; stroke: grey;"></line><text dy=".71em" y="9" x="0" font-weight="normal" transform="translate(-10,3)rotate(-65)" style="text-anchor: end; font-size: 11px; font-family: sans-serif;">AGBL5</text></g><g class="tick" transform="translate(407.5,0)" style="opacity: 1;"><line y2="6" x2="0" style="fill: none; stroke: grey;"></line><text dy=".71em" y="9" x="0" font-weight="normal" transform="translate(-10,3)rotate(-65)" style="text-anchor: end; font-size: 11px; font-family: sans-serif;">DAAM1</text></g><g class="tick" transform="translate(422.5,0)" style="opacity: 1;"><line y2="6" x2="0" style="fill: none; stroke: grey;"></line><text dy=".71em" y="9" x="0" font-weight="normal" transform="translate(-10,3)rotate(-65)" style="text-anchor: end; font-size: 11px; font-family: sans-serif;">SPIRE2</text></g><path class="domain" d="M310,6V0H430V6" style="fill: none; stroke: grey;"></path></g><text text-anchor="middle" transform="translate(75,90)" font-size="12px" style="font-family: sans-serif;">Proportion</text><text text-anchor="middle" transform="translate(75,-26)" font-size="12px" style="font-family: sans-serif;">Proportion of overlapping</text><text text-anchor="middle" transform="translate(75,-14)" font-size="12px" style="font-family: sans-serif;">genes in gene sets</text><text text-anchor="middle" transform="translate(225,90)" font-size="12px" style="font-family: sans-serif;">-log10 adjusted P-value</text><text text-anchor="middle" transform="translate(225,-20)" font-size="12px" style="font-family: sans-serif;">Enrichment P-value</text><text text-anchor="middle" transform="translate(370,-20)" font-size="12px" style="font-family: sans-serif;">overlapping genes</text></g></svg>