<svg width="560" height="600"><g transform="translate(80,30)"><g><text transform="translate(180,480)rotate(-70)" style="text-anchor: end; font-size: 11px; font-family: sans-serif;">Adipose_Tissue</text><text transform="translate(390,480)rotate(-70)" style="text-anchor: end; font-size: 11px; font-family: sans-serif;">Adrenal_Gland</text><text transform="translate(75,480)rotate(-70)" style="text-anchor: end; font-size: 11px; font-family: sans-serif;">Bladder</text><text transform="translate(225,480)rotate(-70)" style="text-anchor: end; font-size: 11px; font-family: sans-serif;">Blood</text><text transform="translate(255,480)rotate(-70)" style="text-anchor: end; font-size: 11px; font-family: sans-serif;">Blood_Vessel</text><text transform="translate(195,480)rotate(-70)" style="text-anchor: end; font-size: 11px; font-family: sans-serif;">Brain</text><text transform="translate(450,480)rotate(-70)" style="text-anchor: end; font-size: 11px; font-family: sans-serif;">Breast</text><text transform="translate(360,480)rotate(-70)" style="text-anchor: end; font-size: 11px; font-family: sans-serif;">Cervix_Uteri</text><text transform="translate(270,480)rotate(-70)" style="text-anchor: end; font-size: 11px; font-family: sans-serif;">Colon</text><text transform="translate(345,480)rotate(-70)" style="text-anchor: end; font-size: 11px; font-family: sans-serif;">Esophagus</text><text transform="translate(240,480)rotate(-70)" style="text-anchor: end; font-size: 11px; font-family: sans-serif;">Fallopian_Tube</text><text transform="translate(90,480)rotate(-70)" style="text-anchor: end; font-size: 11px; font-family: sans-serif;">Heart</text><text transform="translate(285,480)rotate(-70)" style="text-anchor: end; font-size: 11px; font-family: sans-serif;">Kidney</text><text transform="translate(120,480)rotate(-70)" style="text-anchor: end; font-size: 11px; font-family: sans-serif;">Liver</text><text transform="translate(435,480)rotate(-70)" style="text-anchor: end; font-size: 11px; font-family: sans-serif;">Lung</text><text transform="translate(45,480)rotate(-70)" style="text-anchor: end; font-size: 11px; font-family: sans-serif;">Muscle</text><text transform="translate(300,480)rotate(-70)" style="text-anchor: end; font-size: 11px; font-family: sans-serif;">Nerve</text><text transform="translate(60,480)rotate(-70)" style="text-anchor: end; font-size: 11px; font-family: sans-serif;">Ovary</text><text transform="translate(165,480)rotate(-70)" style="text-anchor: end; font-size: 11px; font-family: sans-serif;">Pancreas</text><text transform="translate(150,480)rotate(-70)" style="text-anchor: end; font-size: 11px; font-family: sans-serif;">Pituitary</text><text transform="translate(330,480)rotate(-70)" style="text-anchor: end; font-size: 11px; font-family: sans-serif;">Prostate</text><text transform="translate(420,480)rotate(-70)" style="text-anchor: end; font-size: 11px; font-family: sans-serif;">Salivary_Gland</text><text transform="translate(30,480)rotate(-70)" style="text-anchor: end; font-size: 11px; font-family: sans-serif;">Skin</text><text transform="translate(210,480)rotate(-70)" style="text-anchor: end; font-size: 11px; font-family: sans-serif;">Small_Intestine</text><text transform="translate(105,480)rotate(-70)" style="text-anchor: end; font-size: 11px; font-family: sans-serif;">Spleen</text><text transform="translate(375,480)rotate(-70)" style="text-anchor: end; font-size: 11px; font-family: sans-serif;">Stomach</text><text transform="translate(315,480)rotate(-70)" style="text-anchor: end; font-size: 11px; font-family: sans-serif;">Testis</text><text transform="translate(15,480)rotate(-70)" style="text-anchor: end; font-size: 11px; font-family: sans-serif;">Thyroid</text><text transform="translate(135,480)rotate(-70)" style="text-anchor: end; font-size: 11px; font-family: sans-serif;">Uterus</text><text transform="translate(405,480)rotate(-70)" style="text-anchor: end; font-size: 11px; font-family: sans-serif;">Vagina</text></g><rect class="bar" x="165" width="14" y="146.38658936256718" height="3.613410637432821" style="fill: rgb(86, 104, 244); stroke: grey; stroke-width: 0.3;"></rect><rect class="bar" x="375" width="14" y="150" height="0" style="fill: rgb(86, 104, 244); stroke: grey; stroke-width: 0.3;"></rect><rect class="bar" x="60" width="14" y="60.47445387840432" height="89.52554612159568" style="fill: rgb(86, 104, 244); stroke: grey; stroke-width: 0.3;"></rect><rect class="bar" x="210" width="14" y="147.94116340378653" height="2.0588365962134674" style="fill: rgb(86, 104, 244); stroke: grey; stroke-width: 0.3;"></rect><rect class="bar" x="240" width="14" y="134.70195636895286" height="15.298043631047136" style="fill: rgb(86, 104, 244); stroke: grey; stroke-width: 0.3;"></rect><rect class="bar" x="180" width="14" y="82.87313159339634" height="67.12686840660366" style="fill: rgb(86, 104, 244); stroke: grey; stroke-width: 0.3;"></rect><rect class="bar" x="435" width="14" y="149.3155255872831" height="0.6844744127168951" style="fill: rgb(86, 104, 244); stroke: grey; stroke-width: 0.3;"></rect><rect class="bar" x="345" width="14" y="130.89401802357543" height="19.105981976424573" style="fill: rgb(86, 104, 244); stroke: grey; stroke-width: 0.3;"></rect><rect class="bar" x="255" width="14" y="123.04142216909058" height="26.95857783090942" style="fill: rgb(86, 104, 244); stroke: grey; stroke-width: 0.3;"></rect><rect class="bar" x="330" width="14" y="140.46416736166648" height="9.535832638333517" style="fill: rgb(86, 104, 244); stroke: grey; stroke-width: 0.3;"></rect><rect class="bar" x="225" width="14" y="116.48478028942368" height="33.51521971057632" style="fill: rgb(86, 104, 244); stroke: grey; stroke-width: 0.3;"></rect><rect class="bar" x="75" width="14" y="150" height="0" style="fill: rgb(86, 104, 244); stroke: grey; stroke-width: 0.3;"></rect><rect class="bar" x="270" width="14" y="131.08942731663157" height="18.91057268336843" style="fill: rgb(86, 104, 244); stroke: grey; stroke-width: 0.3;"></rect><rect class="bar" x="105" width="14" y="134.73814659384809" height="15.261853406151914" style="fill: rgb(86, 104, 244); stroke: grey; stroke-width: 0.3;"></rect><rect class="bar" x="420" width="14" y="149.91135445654245" height="0.08864554345754527" style="fill: rgb(86, 104, 244); stroke: grey; stroke-width: 0.3;"></rect><rect class="bar" x="30" width="14" y="125.05303906348757" height="24.946960936512426" style="fill: rgb(86, 104, 244); stroke: grey; stroke-width: 0.3;"></rect><rect class="bar" x="285" width="14" y="145.35409227986221" height="4.645907720137785" style="fill: rgb(86, 104, 244); stroke: grey; stroke-width: 0.3;"></rect><rect class="bar" x="45" width="14" y="98.70456915539799" height="51.29543084460201" style="fill: rgb(86, 104, 244); stroke: grey; stroke-width: 0.3;"></rect><rect class="bar" x="150" width="14" y="143.15517901993556" height="6.844820980064441" style="fill: rgb(86, 104, 244); stroke: grey; stroke-width: 0.3;"></rect><rect class="bar" x="135" width="14" y="84.69974427022414" height="65.30025572977586" style="fill: rgb(86, 104, 244); stroke: grey; stroke-width: 0.3;"></rect><rect class="bar" x="315" width="14" y="141.68011838086696" height="8.319881619133042" style="fill: rgb(86, 104, 244); stroke: grey; stroke-width: 0.3;"></rect><rect class="bar" x="405" width="14" y="146.27791296323397" height="3.722087036766027" style="fill: rgb(86, 104, 244); stroke: grey; stroke-width: 0.3;"></rect><rect class="bar" x="15" width="14" y="122.90217225518994" height="27.09782774481006" style="fill: rgb(86, 104, 244); stroke: grey; stroke-width: 0.3;"></rect><rect class="bar" x="195" width="14" y="135.85655807099678" height="14.143441929003217" style="fill: rgb(86, 104, 244); stroke: grey; stroke-width: 0.3;"></rect><rect class="bar" x="90" width="14" y="124.4315984352131" height="25.568401564786896" style="fill: rgb(86, 104, 244); stroke: grey; stroke-width: 0.3;"></rect><rect class="bar" x="360" width="14" y="146.6203108797119" height="3.3796891202881056" style="fill: rgb(86, 104, 244); stroke: grey; stroke-width: 0.3;"></rect><rect class="bar" x="300" width="14" y="118.21147405645263" height="31.78852594354737" style="fill: rgb(86, 104, 244); stroke: grey; stroke-width: 0.3;"></rect><rect class="bar" x="0" width="14" y="36.10133544839695" height="113.89866455160305" style="fill: rgb(86, 104, 244); stroke: grey; stroke-width: 0.3;"></rect><rect class="bar" x="120" width="14" y="126.97308606540399" height="23.02691393459601" style="fill: rgb(86, 104, 244); stroke: grey; stroke-width: 0.3;"></rect><rect class="bar" x="390" width="14" y="143.16087287644262" height="6.839127123557375" style="fill: rgb(86, 104, 244); stroke: grey; stroke-width: 0.3;"></rect><g class="y axis"><g class="tick" transform="translate(0,150)" style="opacity: 1;"><line x2="-6" y2="0" style="fill: none; stroke: grey;"></line><text dy=".32em" x="-9" y="0" style="text-anchor: end; font-size: 11px; font-family: sans-serif;">0</text></g><g class="tick" transform="translate(0,102.34226239655948)" style="opacity: 1;"><line x2="-6" y2="0" style="fill: none; stroke: grey;"></line><text dy=".32em" x="-9" y="0" style="text-anchor: end; font-size: 11px; font-family: sans-serif;">1</text></g><g class="tick" transform="translate(0,54.68452479311896)" style="opacity: 1;"><line x2="-6" y2="0" style="fill: none; stroke: grey;"></line><text dy=".32em" x="-9" y="0" style="text-anchor: end; font-size: 11px; font-family: sans-serif;">2</text></g><g class="tick" transform="translate(0,7.026787189678441)" style="opacity: 1;"><line x2="-6" y2="0" style="fill: none; stroke: grey;"></line><text dy=".32em" x="-9" y="0" style="text-anchor: end; font-size: 11px; font-family: sans-serif;">3</text></g><path class="domain" d="M-6,0H0V150H-6" style="fill: none; stroke: grey;"></path></g><g class="x axis" transform="translate(0,150)"><g class="tick" transform="translate(7.5,0)" style="opacity: 1;"><line y2="6" x2="0" style="fill: none; stroke: grey;"></line></g><g class="tick" transform="translate(22.5,0)" style="opacity: 1;"><line y2="6" x2="0" style="fill: none; stroke: grey;"></line></g><g class="tick" transform="translate(37.5,0)" style="opacity: 1;"><line y2="6" x2="0" style="fill: none; stroke: grey;"></line></g><g class="tick" transform="translate(52.5,0)" style="opacity: 1;"><line y2="6" x2="0" style="fill: none; stroke: grey;"></line></g><g class="tick" transform="translate(67.5,0)" style="opacity: 1;"><line y2="6" x2="0" style="fill: none; stroke: grey;"></line></g><g class="tick" transform="translate(82.5,0)" style="opacity: 1;"><line y2="6" x2="0" style="fill: none; stroke: grey;"></line></g><g class="tick" transform="translate(97.5,0)" style="opacity: 1;"><line y2="6" x2="0" style="fill: none; stroke: grey;"></line></g><g class="tick" transform="translate(112.5,0)" style="opacity: 1;"><line y2="6" x2="0" style="fill: none; stroke: grey;"></line></g><g class="tick" transform="translate(127.5,0)" style="opacity: 1;"><line y2="6" x2="0" style="fill: none; stroke: grey;"></line></g><g class="tick" transform="translate(142.5,0)" style="opacity: 1;"><line y2="6" x2="0" style="fill: none; stroke: grey;"></line></g><g class="tick" transform="translate(157.5,0)" style="opacity: 1;"><line y2="6" x2="0" style="fill: none; stroke: grey;"></line></g><g class="tick" transform="translate(172.5,0)" style="opacity: 1;"><line y2="6" x2="0" style="fill: none; stroke: grey;"></line></g><g class="tick" transform="translate(187.5,0)" style="opacity: 1;"><line y2="6" x2="0" style="fill: none; stroke: grey;"></line></g><g class="tick" transform="translate(202.5,0)" style="opacity: 1;"><line y2="6" x2="0" style="fill: none; stroke: grey;"></line></g><g class="tick" transform="translate(217.5,0)" style="opacity: 1;"><line y2="6" x2="0" style="fill: none; stroke: grey;"></line></g><g class="tick" transform="translate(232.5,0)" style="opacity: 1;"><line y2="6" x2="0" style="fill: none; stroke: grey;"></line></g><g class="tick" transform="translate(247.5,0)" style="opacity: 1;"><line y2="6" x2="0" style="fill: none; stroke: grey;"></line></g><g class="tick" transform="translate(262.5,0)" style="opacity: 1;"><line y2="6" x2="0" style="fill: none; stroke: grey;"></line></g><g class="tick" transform="translate(277.5,0)" style="opacity: 1;"><line y2="6" x2="0" style="fill: none; stroke: grey;"></line></g><g class="tick" transform="translate(292.5,0)" style="opacity: 1;"><line y2="6" x2="0" style="fill: none; stroke: grey;"></line></g><g class="tick" transform="translate(307.5,0)" style="opacity: 1;"><line y2="6" x2="0" style="fill: none; stroke: grey;"></line></g><g class="tick" transform="translate(322.5,0)" style="opacity: 1;"><line y2="6" x2="0" style="fill: none; stroke: grey;"></line></g><g class="tick" transform="translate(337.5,0)" style="opacity: 1;"><line y2="6" x2="0" style="fill: none; stroke: grey;"></line></g><g class="tick" transform="translate(352.5,0)" style="opacity: 1;"><line y2="6" x2="0" style="fill: none; stroke: grey;"></line></g><g class="tick" transform="translate(367.5,0)" style="opacity: 1;"><line y2="6" x2="0" style="fill: none; stroke: grey;"></line></g><g class="tick" transform="translate(382.5,0)" style="opacity: 1;"><line y2="6" x2="0" style="fill: none; stroke: grey;"></line></g><g class="tick" transform="translate(397.5,0)" style="opacity: 1;"><line y2="6" x2="0" style="fill: none; stroke: grey;"></line></g><g class="tick" transform="translate(412.5,0)" style="opacity: 1;"><line y2="6" x2="0" style="fill: none; stroke: grey;"></line></g><g class="tick" transform="translate(427.5,0)" style="opacity: 1;"><line y2="6" x2="0" style="fill: none; stroke: grey;"></line></g><g class="tick" transform="translate(442.5,0)" style="opacity: 1;"><line y2="6" x2="0" style="fill: none; stroke: grey;"></line></g><path class="domain" d="M0,6V0H450V6" style="fill: none; stroke: grey;"></path></g><text text-anchor="middle" transform="translate(465,75)rotate(90)" style="font-family: sans-serif;">Up-regulated DEG</text><rect class="bar" x="165" width="14" y="199.8265102917129" height="110.1734897082871" style="fill: rgb(86, 104, 244); stroke: grey; stroke-width: 0.3;"></rect><rect class="bar" x="375" width="14" y="266.8687171540708" height="43.131282845929206" style="fill: rgb(86, 104, 244); stroke: grey; stroke-width: 0.3;"></rect><rect class="bar" x="60" width="14" y="310" height="0" style="fill: rgb(86, 104, 244); stroke: grey; stroke-width: 0.3;"></rect><rect class="bar" x="210" width="14" y="245.12991391979003" height="64.87008608020997" style="fill: rgb(86, 104, 244); stroke: grey; stroke-width: 0.3;"></rect><rect class="bar" x="240" width="14" y="272.0957085200142" height="37.90429147998577" style="fill: rgb(86, 104, 244); stroke: grey; stroke-width: 0.3;"></rect><rect class="bar" x="180" width="14" y="299.5466505688846" height="10.453349431115385" style="fill: rgb(86, 104, 244); stroke: grey; stroke-width: 0.3;"></rect><rect class="bar" x="435" width="14" y="280.26376731998687" height="29.73623268001313" style="fill: rgb(86, 104, 244); stroke: grey; stroke-width: 0.3;"></rect><rect class="bar" x="345" width="14" y="310" height="0" style="fill: rgb(86, 104, 244); stroke: grey; stroke-width: 0.3;"></rect><rect class="bar" x="255" width="14" y="291.6459241682721" height="18.354075831727926" style="fill: rgb(86, 104, 244); stroke: grey; stroke-width: 0.3;"></rect><rect class="bar" x="330" width="14" y="285.973454972033" height="24.026545027967018" style="fill: rgb(86, 104, 244); stroke: grey; stroke-width: 0.3;"></rect><rect class="bar" x="225" width="14" y="310" height="0" style="fill: rgb(86, 104, 244); stroke: grey; stroke-width: 0.3;"></rect><rect class="bar" x="75" width="14" y="218.33002914191735" height="91.66997085808265" style="fill: rgb(86, 104, 244); stroke: grey; stroke-width: 0.3;"></rect><rect class="bar" x="270" width="14" y="284.6873748168279" height="25.312625183172088" style="fill: rgb(86, 104, 244); stroke: grey; stroke-width: 0.3;"></rect><rect class="bar" x="105" width="14" y="238.89863106251892" height="71.10136893748108" style="fill: rgb(86, 104, 244); stroke: grey; stroke-width: 0.3;"></rect><rect class="bar" x="420" width="14" y="195.96541060061236" height="114.03458939938764" style="fill: rgb(86, 104, 244); stroke: grey; stroke-width: 0.3;"></rect><rect class="bar" x="30" width="14" y="220.86131579039764" height="89.13868420960236" style="fill: rgb(86, 104, 244); stroke: grey; stroke-width: 0.3;"></rect><rect class="bar" x="285" width="14" y="195.74420157375388" height="114.25579842624612" style="fill: rgb(86, 104, 244); stroke: grey; stroke-width: 0.3;"></rect><rect class="bar" x="45" width="14" y="244.79667122893068" height="65.20332877106932" style="fill: rgb(86, 104, 244); stroke: grey; stroke-width: 0.3;"></rect><rect class="bar" x="150" width="14" y="238.68426421795306" height="71.31573578204694" style="fill: rgb(86, 104, 244); stroke: grey; stroke-width: 0.3;"></rect><rect class="bar" x="135" width="14" y="291.4933924889251" height="18.50660751107489" style="fill: rgb(86, 104, 244); stroke: grey; stroke-width: 0.3;"></rect><rect class="bar" x="315" width="14" y="267.51830525160665" height="42.48169474839335" style="fill: rgb(86, 104, 244); stroke: grey; stroke-width: 0.3;"></rect><rect class="bar" x="405" width="14" y="290.14168513980076" height="19.858314860199243" style="fill: rgb(86, 104, 244); stroke: grey; stroke-width: 0.3;"></rect><rect class="bar" x="15" width="14" y="187.53741368183665" height="122.46258631816335" style="fill: rgb(86, 104, 244); stroke: grey; stroke-width: 0.3;"></rect><rect class="bar" x="195" width="14" y="258.00458048862595" height="51.99541951137405" style="fill: rgb(86, 104, 244); stroke: grey; stroke-width: 0.3;"></rect><rect class="bar" x="90" width="14" y="230.29318975413895" height="79.70681024586105" style="fill: rgb(86, 104, 244); stroke: grey; stroke-width: 0.3;"></rect><rect class="bar" x="360" width="14" y="283.18292379154565" height="26.817076208454353" style="fill: rgb(86, 104, 244); stroke: grey; stroke-width: 0.3;"></rect><rect class="bar" x="300" width="14" y="303.79150640686396" height="6.2084935931360405" style="fill: rgb(86, 104, 244); stroke: grey; stroke-width: 0.3;"></rect><rect class="bar" x="0" width="14" y="261.60972820730854" height="48.390271792691465" style="fill: rgb(86, 104, 244); stroke: grey; stroke-width: 0.3;"></rect><rect class="bar" x="120" width="14" y="188.45243803213884" height="121.54756196786116" style="fill: rgb(86, 104, 244); stroke: grey; stroke-width: 0.3;"></rect><rect class="bar" x="390" width="14" y="284.83799385777496" height="25.16200614222504" style="fill: rgb(86, 104, 244); stroke: grey; stroke-width: 0.3;"></rect><g class="y axis"><g class="tick" transform="translate(0,310)" style="opacity: 1;"><line x2="-6" y2="0" style="fill: none; stroke: grey;"></line><text dy=".32em" x="-9" y="0" style="text-anchor: end; font-family: sans-serif;">0</text></g><g class="tick" transform="translate(0,262.3422623965595)" style="opacity: 1;"><line x2="-6" y2="0" style="fill: none; stroke: grey;"></line><text dy=".32em" x="-9" y="0" style="text-anchor: end; font-family: sans-serif;">1</text></g><g class="tick" transform="translate(0,214.68452479311895)" style="opacity: 1;"><line x2="-6" y2="0" style="fill: none; stroke: grey;"></line><text dy=".32em" x="-9" y="0" style="text-anchor: end; font-family: sans-serif;">2</text></g><g class="tick" transform="translate(0,167.02678718967843)" style="opacity: 1;"><line x2="-6" y2="0" style="fill: none; stroke: grey;"></line><text dy=".32em" x="-9" y="0" style="text-anchor: end; font-family: sans-serif;">3</text></g><path class="domain" d="M-6,160H0V310H-6" style="fill: none; stroke: grey;"></path></g><g class="x axis" transform="translate(0, 310)"><g class="tick" transform="translate(7.5,0)" style="opacity: 1;"><line y2="6" x2="0" style="fill: none; stroke: grey;"></line></g><g class="tick" transform="translate(22.5,0)" style="opacity: 1;"><line y2="6" x2="0" style="fill: none; stroke: grey;"></line></g><g class="tick" transform="translate(37.5,0)" style="opacity: 1;"><line y2="6" x2="0" style="fill: none; stroke: grey;"></line></g><g class="tick" transform="translate(52.5,0)" style="opacity: 1;"><line y2="6" x2="0" style="fill: none; stroke: grey;"></line></g><g class="tick" transform="translate(67.5,0)" style="opacity: 1;"><line y2="6" x2="0" style="fill: none; stroke: grey;"></line></g><g class="tick" transform="translate(82.5,0)" style="opacity: 1;"><line y2="6" x2="0" style="fill: none; stroke: grey;"></line></g><g class="tick" transform="translate(97.5,0)" style="opacity: 1;"><line y2="6" x2="0" style="fill: none; stroke: grey;"></line></g><g class="tick" transform="translate(112.5,0)" style="opacity: 1;"><line y2="6" x2="0" style="fill: none; stroke: grey;"></line></g><g class="tick" transform="translate(127.5,0)" style="opacity: 1;"><line y2="6" x2="0" style="fill: none; stroke: grey;"></line></g><g class="tick" transform="translate(142.5,0)" style="opacity: 1;"><line y2="6" x2="0" style="fill: none; stroke: grey;"></line></g><g class="tick" transform="translate(157.5,0)" style="opacity: 1;"><line y2="6" x2="0" style="fill: none; stroke: grey;"></line></g><g class="tick" transform="translate(172.5,0)" style="opacity: 1;"><line y2="6" x2="0" style="fill: none; stroke: grey;"></line></g><g class="tick" transform="translate(187.5,0)" style="opacity: 1;"><line y2="6" x2="0" style="fill: none; stroke: grey;"></line></g><g class="tick" transform="translate(202.5,0)" style="opacity: 1;"><line y2="6" x2="0" style="fill: none; stroke: grey;"></line></g><g class="tick" transform="translate(217.5,0)" style="opacity: 1;"><line y2="6" x2="0" style="fill: none; stroke: grey;"></line></g><g class="tick" transform="translate(232.5,0)" style="opacity: 1;"><line y2="6" x2="0" style="fill: none; stroke: grey;"></line></g><g class="tick" transform="translate(247.5,0)" style="opacity: 1;"><line y2="6" x2="0" style="fill: none; stroke: grey;"></line></g><g class="tick" transform="translate(262.5,0)" style="opacity: 1;"><line y2="6" x2="0" style="fill: none; stroke: grey;"></line></g><g class="tick" transform="translate(277.5,0)" style="opacity: 1;"><line y2="6" x2="0" style="fill: none; stroke: grey;"></line></g><g class="tick" transform="translate(292.5,0)" style="opacity: 1;"><line y2="6" x2="0" style="fill: none; stroke: grey;"></line></g><g class="tick" transform="translate(307.5,0)" style="opacity: 1;"><line y2="6" x2="0" style="fill: none; stroke: grey;"></line></g><g class="tick" transform="translate(322.5,0)" style="opacity: 1;"><line y2="6" x2="0" style="fill: none; stroke: grey;"></line></g><g class="tick" transform="translate(337.5,0)" style="opacity: 1;"><line y2="6" x2="0" style="fill: none; stroke: grey;"></line></g><g class="tick" transform="translate(352.5,0)" style="opacity: 1;"><line y2="6" x2="0" style="fill: none; stroke: grey;"></line></g><g class="tick" transform="translate(367.5,0)" style="opacity: 1;"><line y2="6" x2="0" style="fill: none; stroke: grey;"></line></g><g class="tick" transform="translate(382.5,0)" style="opacity: 1;"><line y2="6" x2="0" style="fill: none; stroke: grey;"></line></g><g class="tick" transform="translate(397.5,0)" style="opacity: 1;"><line y2="6" x2="0" style="fill: none; stroke: grey;"></line></g><g class="tick" transform="translate(412.5,0)" style="opacity: 1;"><line y2="6" x2="0" style="fill: none; stroke: grey;"></line></g><g class="tick" transform="translate(427.5,0)" style="opacity: 1;"><line y2="6" x2="0" style="fill: none; stroke: grey;"></line></g><g class="tick" transform="translate(442.5,0)" style="opacity: 1;"><line y2="6" x2="0" style="fill: none; stroke: grey;"></line></g><path class="domain" d="M0,6V0H450V6" style="fill: none; stroke: grey;"></path></g><text text-anchor="middle" transform="translate(465,235)rotate(90)" style="font-family: sans-serif;">Down-regulated DEG</text><rect class="bar" x="165" width="14" y="413.301510830203" height="56.69848916979703" style="fill: rgb(86, 104, 244); stroke: grey; stroke-width: 0.3;"></rect><rect class="bar" x="375" width="14" y="454.5586134481275" height="15.441386551872483" style="fill: rgb(86, 104, 244); stroke: grey; stroke-width: 0.3;"></rect><rect class="bar" x="60" width="14" y="389.9427383205273" height="80.05726167947267" style="fill: rgb(86, 104, 244); stroke: grey; stroke-width: 0.3;"></rect><rect class="bar" x="210" width="14" y="431.5060606333437" height="38.49393936665632" style="fill: rgb(86, 104, 244); stroke: grey; stroke-width: 0.3;"></rect><rect class="bar" x="240" width="14" y="436.5728452241241" height="33.42715477587592" style="fill: rgb(86, 104, 244); stroke: grey; stroke-width: 0.3;"></rect><rect class="bar" x="180" width="14" y="426.6849284979478" height="43.315071502052206" style="fill: rgb(86, 104, 244); stroke: grey; stroke-width: 0.3;"></rect><rect class="bar" x="435" width="14" y="464.02305860316613" height="5.976941396833865" style="fill: rgb(86, 104, 244); stroke: grey; stroke-width: 0.3;"></rect><rect class="bar" x="345" width="14" y="451.6385076689218" height="18.361492331078182" style="fill: rgb(86, 104, 244); stroke: grey; stroke-width: 0.3;"></rect><rect class="bar" x="255" width="14" y="439.15244622768284" height="30.847553772317156" style="fill: rgb(86, 104, 244); stroke: grey; stroke-width: 0.3;"></rect><rect class="bar" x="330" width="14" y="449.6316640670983" height="20.368335932901687" style="fill: rgb(86, 104, 244); stroke: grey; stroke-width: 0.3;"></rect><rect class="bar" x="225" width="14" y="436.5483343905387" height="33.451665609461315" style="fill: rgb(86, 104, 244); stroke: grey; stroke-width: 0.3;"></rect><rect class="bar" x="75" width="14" y="394.5814490833725" height="75.41855091662751" style="fill: rgb(86, 104, 244); stroke: grey; stroke-width: 0.3;"></rect><rect class="bar" x="270" width="14" y="439.9129795182365" height="30.08702048176349" style="fill: rgb(86, 104, 244); stroke: grey; stroke-width: 0.3;"></rect><rect class="bar" x="105" width="14" y="396.9081700600697" height="73.09182993993028" style="fill: rgb(86, 104, 244); stroke: grey; stroke-width: 0.3;"></rect><rect class="bar" x="420" width="14" y="461.23142954548655" height="8.768570454513451" style="fill: rgb(86, 104, 244); stroke: grey; stroke-width: 0.3;"></rect><rect class="bar" x="30" width="14" y="368.4535564670683" height="101.54644353293168" style="fill: rgb(86, 104, 244); stroke: grey; stroke-width: 0.3;"></rect><rect class="bar" x="285" width="14" y="440.2872477292859" height="29.712752270714077" style="fill: rgb(86, 104, 244); stroke: grey; stroke-width: 0.3;"></rect><rect class="bar" x="45" width="14" y="375.7210078271956" height="94.27899217280441" style="fill: rgb(86, 104, 244); stroke: grey; stroke-width: 0.3;"></rect><rect class="bar" x="150" width="14" y="403.22265876481526" height="66.77734123518474" style="fill: rgb(86, 104, 244); stroke: grey; stroke-width: 0.3;"></rect><rect class="bar" x="135" width="14" y="401.9440108341338" height="68.05598916586621" style="fill: rgb(86, 104, 244); stroke: grey; stroke-width: 0.3;"></rect><rect class="bar" x="315" width="14" y="449.61386884191296" height="20.38613115808704" style="fill: rgb(86, 104, 244); stroke: grey; stroke-width: 0.3;"></rect><rect class="bar" x="405" width="14" y="459.9768468748432" height="10.023153125156796" style="fill: rgb(86, 104, 244); stroke: grey; stroke-width: 0.3;"></rect><rect class="bar" x="15" width="14" y="357.6408709703145" height="112.3591290296855" style="fill: rgb(86, 104, 244); stroke: grey; stroke-width: 0.3;"></rect><rect class="bar" x="195" width="14" y="431.07366935503757" height="38.926330644962434" style="fill: rgb(86, 104, 244); stroke: grey; stroke-width: 0.3;"></rect><rect class="bar" x="90" width="14" y="395.63889793316184" height="74.36110206683816" style="fill: rgb(86, 104, 244); stroke: grey; stroke-width: 0.3;"></rect><rect class="bar" x="360" width="14" y="452.8150236920309" height="17.184976307969123" style="fill: rgb(86, 104, 244); stroke: grey; stroke-width: 0.3;"></rect><rect class="bar" x="300" width="14" y="445.49336819418056" height="24.50663180581944" style="fill: rgb(86, 104, 244); stroke: grey; stroke-width: 0.3;"></rect><rect class="bar" x="0" width="14" y="320" height="150" style="fill: rgb(204, 0, 0); stroke: grey; stroke-width: 0.3;"></rect><rect class="bar" x="120" width="14" y="397.14087004362597" height="72.85912995637403" style="fill: rgb(86, 104, 244); stroke: grey; stroke-width: 0.3;"></rect><rect class="bar" x="390" width="14" y="457.40690063133513" height="12.593099368664866" style="fill: rgb(86, 104, 244); stroke: grey; stroke-width: 0.3;"></rect><text text-anchor="middle" transform="translate(465,395)rotate(90)" style="font-family: sans-serif;">DEG (both side)</text><g class="x axis" transform="translate(0,470)"><g class="tick" transform="translate(7.5,0)" style="opacity: 1;"><line y2="6" x2="0" style="fill: none; stroke: grey;"></line></g><g class="tick" transform="translate(22.5,0)" style="opacity: 1;"><line y2="6" x2="0" style="fill: none; stroke: grey;"></line></g><g class="tick" transform="translate(37.5,0)" style="opacity: 1;"><line y2="6" x2="0" style="fill: none; stroke: grey;"></line></g><g class="tick" transform="translate(52.5,0)" style="opacity: 1;"><line y2="6" x2="0" style="fill: none; stroke: grey;"></line></g><g class="tick" transform="translate(67.5,0)" style="opacity: 1;"><line y2="6" x2="0" style="fill: none; stroke: grey;"></line></g><g class="tick" transform="translate(82.5,0)" style="opacity: 1;"><line y2="6" x2="0" style="fill: none; stroke: grey;"></line></g><g class="tick" transform="translate(97.5,0)" style="opacity: 1;"><line y2="6" x2="0" style="fill: none; stroke: grey;"></line></g><g class="tick" transform="translate(112.5,0)" style="opacity: 1;"><line y2="6" x2="0" style="fill: none; stroke: grey;"></line></g><g class="tick" transform="translate(127.5,0)" style="opacity: 1;"><line y2="6" x2="0" style="fill: none; stroke: grey;"></line></g><g class="tick" transform="translate(142.5,0)" style="opacity: 1;"><line y2="6" x2="0" style="fill: none; stroke: grey;"></line></g><g class="tick" transform="translate(157.5,0)" style="opacity: 1;"><line y2="6" x2="0" style="fill: none; stroke: grey;"></line></g><g class="tick" transform="translate(172.5,0)" style="opacity: 1;"><line y2="6" x2="0" style="fill: none; stroke: grey;"></line></g><g class="tick" transform="translate(187.5,0)" style="opacity: 1;"><line y2="6" x2="0" style="fill: none; stroke: grey;"></line></g><g class="tick" transform="translate(202.5,0)" style="opacity: 1;"><line y2="6" x2="0" style="fill: none; stroke: grey;"></line></g><g class="tick" transform="translate(217.5,0)" style="opacity: 1;"><line y2="6" x2="0" style="fill: none; stroke: grey;"></line></g><g class="tick" transform="translate(232.5,0)" style="opacity: 1;"><line y2="6" x2="0" style="fill: none; stroke: grey;"></line></g><g class="tick" transform="translate(247.5,0)" style="opacity: 1;"><line y2="6" x2="0" style="fill: none; stroke: grey;"></line></g><g class="tick" transform="translate(262.5,0)" style="opacity: 1;"><line y2="6" x2="0" style="fill: none; stroke: grey;"></line></g><g class="tick" transform="translate(277.5,0)" style="opacity: 1;"><line y2="6" x2="0" style="fill: none; stroke: grey;"></line></g><g class="tick" transform="translate(292.5,0)" style="opacity: 1;"><line y2="6" x2="0" style="fill: none; stroke: grey;"></line></g><g class="tick" transform="translate(307.5,0)" style="opacity: 1;"><line y2="6" x2="0" style="fill: none; stroke: grey;"></line></g><g class="tick" transform="translate(322.5,0)" style="opacity: 1;"><line y2="6" x2="0" style="fill: none; stroke: grey;"></line></g><g class="tick" transform="translate(337.5,0)" style="opacity: 1;"><line y2="6" x2="0" style="fill: none; stroke: grey;"></line></g><g class="tick" transform="translate(352.5,0)" style="opacity: 1;"><line y2="6" x2="0" style="fill: none; stroke: grey;"></line></g><g class="tick" transform="translate(367.5,0)" style="opacity: 1;"><line y2="6" x2="0" style="fill: none; stroke: grey;"></line></g><g class="tick" transform="translate(382.5,0)" style="opacity: 1;"><line y2="6" x2="0" style="fill: none; stroke: grey;"></line></g><g class="tick" transform="translate(397.5,0)" style="opacity: 1;"><line y2="6" x2="0" style="fill: none; stroke: grey;"></line></g><g class="tick" transform="translate(412.5,0)" style="opacity: 1;"><line y2="6" x2="0" style="fill: none; stroke: grey;"></line></g><g class="tick" transform="translate(427.5,0)" style="opacity: 1;"><line y2="6" x2="0" style="fill: none; stroke: grey;"></line></g><g class="tick" transform="translate(442.5,0)" style="opacity: 1;"><line y2="6" x2="0" style="fill: none; stroke: grey;"></line></g><path class="domain" d="M0,6V0H450V6" style="fill: none; stroke: grey;"></path></g><g class="y axis"><g class="tick" transform="translate(0,470)" style="opacity: 1;"><line x2="-6" y2="0" style="fill: none; stroke: grey;"></line><text dy=".32em" x="-9" y="0" style="text-anchor: end; font-family: sans-serif;">0</text></g><g class="tick" transform="translate(0,422.3422623965595)" style="opacity: 1;"><line x2="-6" y2="0" style="fill: none; stroke: grey;"></line><text dy=".32em" x="-9" y="0" style="text-anchor: end; font-family: sans-serif;">1</text></g><g class="tick" transform="translate(0,374.68452479311895)" style="opacity: 1;"><line x2="-6" y2="0" style="fill: none; stroke: grey;"></line><text dy=".32em" x="-9" y="0" style="text-anchor: end; font-family: sans-serif;">2</text></g><g class="tick" transform="translate(0,327.02678718967843)" style="opacity: 1;"><line x2="-6" y2="0" style="fill: none; stroke: grey;"></line><text dy=".32em" x="-9" y="0" style="text-anchor: end; font-family: sans-serif;">3</text></g><path class="domain" d="M-6,320H0V470H-6" style="fill: none; stroke: grey;"></path></g><text text-anchor="middle" transform="translate(-35,235)rotate(-90)" style="font-family: sans-serif;">-log 10 P-value</text></g></svg>