<svg width="380" height="380"><g transform="translate(50,30)"><circle r="2" cx="0.8991564897289879" cy="299.71439006028925" fill="grey"></circle><circle r="2" cx="0.37623249899310346" cy="299.9125557123926" fill="grey"></circle><circle r="2" cx="1.385733386666239" cy="299.5288184748584" fill="grey"></circle><circle r="2" cx="1.7046736032469425" cy="299.4058564453258" fill="grey"></circle><circle r="2" cx="2.0622517005839414" cy="299.26820670536813" fill="grey"></circle><circle r="2" cx="2.359882302903262" cy="299.15315667669967" fill="grey"></circle><circle r="2" cx="3.8307688417054" cy="298.5896883618776" fill="grey"></circle><circle r="2" cx="3.5070928399809693" cy="298.71345707058725" fill="grey"></circle><circle r="2" cx="4.374771185496739" cy="298.3822283471426" fill="grey"></circle><circle r="2" cx="4.750051943227835" cy="298.2385221996857" fill="grey"></circle><circle r="2" cx="5.4197915813768045" cy="297.9850448149985" fill="grey"></circle><circle r="2" cx="4.982782561836547" cy="298.15035707872306" fill="grey"></circle><circle r="2" cx="6.702192978719448" cy="297.49746980015505" fill="grey"></circle><circle r="2" cx="6.296100103853591" cy="297.651504678856" fill="grey"></circle><circle r="2" cx="7.208189694899985" cy="297.30585721198145" fill="grey"></circle><circle r="2" cx="7.656192472340334" cy="297.13387791865057" fill="grey"></circle><circle r="2" cx="8.7120876324396" cy="296.732759729219" fill="grey"></circle><circle r="2" cx="8.863684538246206" cy="296.67614724741026" fill="grey"></circle><circle r="2" cx="9.534476589724171" cy="296.4202890708527" fill="grey"></circle><circle r="2" cx="9.685460265686059" cy="296.3628582539508" fill="grey"></circle><circle r="2" cx="10.187161194657113" cy="296.17188254631355" fill="grey"></circle><circle r="2" cx="9.965503488611509" cy="296.25620110189726" fill="grey"></circle><circle r="2" cx="11.279890554599715" cy="295.7555435692878" fill="grey"></circle><circle r="2" cx="11.000431023522752" cy="295.86191313705814" fill="grey"></circle><circle r="2" cx="12.658559278271213" cy="295.23327994240157" fill="grey"></circle><circle r="2" cx="12.837610852640553" cy="295.1656698135237" fill="grey"></circle><circle r="2" cx="13.629800236643383" cy="294.8643305812978" fill="grey"></circle><circle r="2" cx="13.29464578752766" cy="294.9925372858081" fill="grey"></circle><circle r="2" cx="14.622909504573842" cy="294.4864898345313" fill="grey"></circle><circle r="2" cx="13.887143752691413" cy="294.76609236699085" fill="grey"></circle><circle r="2" cx="15.815808785885626" cy="294.03409767165175" fill="grey"></circle><circle r="2" cx="14.893273911983188" cy="294.3826377302462" fill="grey"></circle><circle r="2" cx="16.314511202578007" cy="293.8443627322117" fill="grey"></circle><circle r="2" cx="16.36196601837427" cy="293.826474607337" fill="grey"></circle><circle r="2" cx="17.62199728347731" cy="293.35159235373607" fill="grey"></circle><circle r="2" cx="17.102657419487777" cy="293.54797849041" fill="grey"></circle><circle r="2" cx="18.802210304415716" cy="292.9091738849848" fill="grey"></circle><circle r="2" cx="17.860520493900378" cy="293.2619438253446" fill="grey"></circle><circle r="2" cx="19.734772486899065" cy="292.55623060427735" fill="grey"></circle><circle r="2" cx="19.50341324979042" cy="292.644038293663" fill="grey"></circle><circle r="2" cx="20.67622624984057" cy="292.2016038364344" fill="grey"></circle><circle r="2" cx="20.068164193867442" cy="292.43111392456245" fill="grey"></circle><circle r="2" cx="21.2662179616652" cy="291.97777260745863" fill="grey"></circle><circle r="2" cx="21.579854232682187" cy="291.8582975522313" fill="grey"></circle><circle r="2" cx="22.632147855030887" cy="291.46125535194096" fill="grey"></circle><circle r="2" cx="22.510324098514996" cy="291.50821681109664" fill="grey"></circle><circle r="2" cx="23.128983088899478" cy="291.2734192254072" fill="grey"></circle><circle r="2" cx="23.397408127148704" cy="291.1721571264547" fill="grey"></circle><circle r="2" cx="23.978843047047114" cy="290.95502471771476" fill="grey"></circle><circle r="2" cx="24.47207734399514" cy="290.76874112924827" fill="grey"></circle><circle r="2" cx="25.04360505256881" cy="290.55397451496685" fill="grey"></circle><circle r="2" cx="25.15973716451748" cy="290.5109975885663" fill="grey"></circle><circle r="2" cx="26.62082563066383" cy="289.9609560058329" fill="grey"></circle><circle r="2" cx="25.90797722966177" cy="290.2294636378557" fill="grey"></circle><circle r="2" cx="27.483868883040188" cy="289.6340221169673" fill="grey"></circle><circle r="2" cx="26.74417650951367" cy="289.9136670105189" fill="grey"></circle><circle r="2" cx="28.20543749374049" cy="289.3614884795748" fill="grey"></circle><circle r="2" cx="27.889701571055998" cy="289.48057982312486" fill="grey"></circle><circle r="2" cx="29.520932326686207" cy="288.86749402866684" fill="grey"></circle><circle r="2" cx="29.271212992627817" cy="288.96156840835164" fill="grey"></circle><circle r="2" cx="30.396405522083636" cy="288.5400825670162" fill="grey"></circle><circle r="2" cx="29.787677707166466" cy="288.76705527742513" fill="grey"></circle><circle r="2" cx="31.352346966683637" cy="288.1805231633717" fill="grey"></circle><circle r="2" cx="31.470158571139372" cy="288.1359811543658" fill="grey"></circle><circle r="2" cx="32.27309650601932" cy="287.83393687761816" fill="grey"></circle><circle r="2" cx="32.30549552340159" cy="287.82153992298464" fill="grey"></circle><circle r="2" cx="33.0857751200526" cy="287.52702261284827" fill="grey"></circle><circle r="2" cx="33.22541738926285" cy="287.4754545432355" fill="grey"></circle><circle r="2" cx="33.85059192376763" cy="287.2406725248436" fill="grey"></circle><circle r="2" cx="33.88438038703684" cy="287.227944095236" fill="grey"></circle><circle r="2" cx="35.09284691376227" cy="286.77033357585134" fill="grey"></circle><circle r="2" cx="35.07601098000266" cy="286.77681883627935" fill="grey"></circle><circle r="2" cx="35.99904521071549" cy="286.4344561963618" fill="grey"></circle><circle r="2" cx="36.429453261885456" cy="286.2753844367453" fill="grey"></circle><circle r="2" cx="36.95416893906141" cy="286.0806087297948" fill="grey"></circle><circle r="2" cx="37.599911274705214" cy="285.8419452071275" fill="grey"></circle><circle r="2" cx="38.55702188538973" cy="285.481835721302" fill="grey"></circle><circle r="2" cx="38.471197946812055" cy="285.51458128004947" fill="grey"></circle><circle r="2" cx="39.56322279975014" cy="285.1036470822753" fill="grey"></circle><circle r="2" cx="39.151454852276316" cy="285.25693863815894" fill="grey"></circle><circle r="2" cx="39.91481459420424" cy="284.9717903900262" fill="grey"></circle><circle r="2" cx="39.8616561582534" cy="284.99194649480137" fill="grey"></circle><circle r="2" cx="41.01349688312212" cy="284.5653646500686" fill="grey"></circle><circle r="2" cx="41.08915695895409" cy="284.5378162485606" fill="grey"></circle><circle r="2" cx="42.45648183961825" cy="284.0354562309499" fill="grey"></circle><circle r="2" cx="42.463386958363685" cy="284.0325686848734" fill="grey"></circle><circle r="2" cx="42.8434018474259" cy="283.8935371155358" fill="grey"></circle><circle r="2" cx="43.34800859940827" cy="283.7066661787895" fill="grey"></circle><circle r="2" cx="44.269735747796034" cy="283.3640062374617" fill="grey"></circle><circle r="2" cx="43.6192804754515" cy="283.6055074036282" fill="grey"></circle><circle r="2" cx="45.52575677075138" cy="282.89476240295505" fill="grey"></circle><circle r="2" cx="45.30419724710287" cy="282.9774248879607" fill="grey"></circle><circle r="2" cx="45.648722409073805" cy="282.84925908699967" fill="grey"></circle><circle r="2" cx="46.0629439543394" cy="282.6943271286515" fill="grey"></circle><circle r="2" cx="47.506672744070386" cy="282.1581321998112" fill="grey"></circle><circle r="2" cx="46.98140568749471" cy="282.35273706561895" fill="grey"></circle><circle r="2" cx="48.17088894963471" cy="281.9071599421838" fill="grey"></circle><circle r="2" cx="47.945798838091655" cy="281.9930664568765" fill="grey"></circle><circle r="2" cx="49.158005222382904" cy="281.5326885863701" fill="grey"></circle><circle r="2" cx="48.94166406341052" cy="281.61332959282373" fill="grey"></circle><circle r="2" cx="50.26082302340669" cy="281.11652026975645" fill="grey"></circle><circle r="2" cx="50.3268950695838" cy="281.0913759601157" fill="grey"></circle><circle r="2" cx="51.16810153250889" cy="280.7677293918341" fill="grey"></circle><circle r="2" cx="50.51677326858261" cy="281.0182163582997" fill="grey"></circle><circle r="2" cx="52.3948691794026" cy="280.30823853049117" fill="grey"></circle><circle r="2" cx="52.39393981430696" cy="280.30902816264995" fill="grey"></circle><circle r="2" cx="53.09829232789076" cy="280.04002144858157" fill="grey"></circle><circle r="2" cx="53.3751100109072" cy="279.9340008021829" fill="grey"></circle><circle r="2" cx="54.45263801223771" cy="279.5323808946895" fill="grey"></circle><circle r="2" cx="54.01258149639592" cy="279.6949731459093" fill="grey"></circle><circle r="2" cx="55.219078918799426" cy="279.2414627390404" fill="grey"></circle><circle r="2" cx="55.00054914121128" cy="279.32551318917075" fill="grey"></circle><circle r="2" cx="55.78925241946999" cy="279.01983255537806" fill="grey"></circle><circle r="2" cx="56.14791789868859" cy="278.88278433385426" fill="grey"></circle><circle r="2" cx="57.241899202756045" cy="278.47306860576384" fill="grey"></circle><circle r="2" cx="57.07960419577935" cy="278.5343636881476" fill="grey"></circle><circle r="2" cx="58.089267682104314" cy="278.1491954000005" fill="grey"></circle><circle r="2" cx="58.013436220570206" cy="278.17626762415244" fill="grey"></circle><circle r="2" cx="58.598866334404995" cy="277.9591247584152" fill="grey"></circle><circle r="2" cx="58.96908538408171" cy="277.81431410150753" fill="grey"></circle><circle r="2" cx="60.01047377564771" cy="277.42264726058363" fill="grey"></circle><circle r="2" cx="60.17695220932962" cy="277.3614961409249" fill="grey"></circle><circle r="2" cx="60.75020174599578" cy="277.14720263038083" fill="grey"></circle><circle r="2" cx="61.19245682892374" cy="276.9823447508261" fill="grey"></circle><circle r="2" cx="61.72576866082656" cy="276.7880983077264" fill="grey"></circle><circle r="2" cx="61.56282094741027" cy="276.84828572434355" fill="grey"></circle><circle r="2" cx="62.60839583085675" cy="276.4701051546221" fill="grey"></circle><circle r="2" cx="62.8255204604785" cy="276.39094353566935" fill="grey"></circle><circle r="2" cx="64.08817103304928" cy="275.92199181675505" fill="grey"></circle><circle r="2" cx="63.98701067030826" cy="275.961986757817" fill="grey"></circle><circle r="2" cx="64.7504918039467" cy="275.6741735952543" fill="grey"></circle><circle r="2" cx="65.226129425539" cy="275.4977916187539" fill="grey"></circle><circle r="2" cx="66.1298148523501" cy="275.1611790569716" fill="grey"></circle><circle r="2" cx="65.54747450430646" cy="275.38104371021626" fill="grey"></circle><circle r="2" cx="66.51323007483785" cy="275.0173796841897" fill="grey"></circle><circle r="2" cx="66.48533328724945" cy="275.0291442518288" fill="grey"></circle><circle r="2" cx="67.36525458775412" cy="274.6930106904166" fill="grey"></circle><circle r="2" cx="67.38322161279046" cy="274.68662315131024" fill="grey"></circle><circle r="2" cx="68.3675650838207" cy="274.3169923847484" fill="grey"></circle><circle r="2" cx="69.2021520590809" cy="273.9964790246" fill="grey"></circle><circle r="2" cx="70.05976606249705" cy="273.67677694803064" fill="grey"></circle><circle r="2" cx="69.56039017272396" cy="273.8623468043371" fill="grey"></circle><circle r="2" cx="70.66443995703473" cy="273.4457778623743" fill="grey"></circle><circle r="2" cx="71.0663894378833" cy="273.29621081986477" fill="grey"></circle><circle r="2" cx="71.8237110988665" cy="273.020311017158" fill="grey"></circle><circle r="2" cx="71.84667321988287" cy="273.01279370050685" fill="grey"></circle><circle r="2" cx="73.14278314402479" cy="272.52798568812074" fill="grey"></circle><circle r="2" cx="72.31216892715247" cy="272.83749780857136" fill="grey"></circle><circle r="2" cx="74.09971465195386" cy="272.1747366790591" fill="grey"></circle><circle r="2" cx="73.72897059217972" cy="272.31019779590855" fill="grey"></circle><circle r="2" cx="74.27009495012246" cy="272.10784580645503" fill="grey"></circle><circle r="2" cx="74.52924171902237" cy="272.01309918901217" fill="grey"></circle><circle r="2" cx="75.4561891653768" cy="271.67013116272784" fill="grey"></circle><circle r="2" cx="75.9458428535606" cy="271.4829125028035" fill="grey"></circle><circle r="2" cx="76.52490866510833" cy="271.26501482869816" fill="grey"></circle><circle r="2" cx="77.14412739612173" cy="271.0346234298361" fill="grey"></circle><circle r="2" cx="77.5094859182378" cy="270.8912825094847" fill="grey"></circle><circle r="2" cx="77.55074379817017" cy="270.8766408885646" fill="grey"></circle><circle r="2" cx="78.35171125197944" cy="270.5721537285504" fill="grey"></circle><circle r="2" cx="79.17721808003371" cy="270.2720664581735" fill="grey"></circle><circle r="2" cx="80.1303276773911" cy="269.91002804577147" fill="grey"></circle><circle r="2" cx="79.56567899745133" cy="270.1209800539756" fill="grey"></circle><circle r="2" cx="80.51659357077978" cy="269.76798877968304" fill="grey"></circle><circle r="2" cx="80.4743776043728" cy="269.78489105080604" fill="grey"></circle><circle r="2" cx="81.3071140604859" cy="269.47397199556707" fill="grey"></circle><circle r="2" cx="81.26527235283402" cy="269.4899702141145" fill="grey"></circle><circle r="2" cx="82.54984809730759" cy="268.99568767106956" fill="grey"></circle><circle r="2" cx="82.62829597873572" cy="268.9654748038247" fill="grey"></circle><circle r="2" cx="83.46571233738683" cy="268.6586442648744" fill="grey"></circle><circle r="2" cx="83.32785625027711" cy="268.70820336987555" fill="grey"></circle><circle r="2" cx="84.33931776007914" cy="268.33309412871165" fill="grey"></circle><circle r="2" cx="84.20907390992922" cy="268.3757817651589" fill="grey"></circle><circle r="2" cx="86.09099601072023" cy="267.6648339198922" fill="grey"></circle><circle r="2" cx="85.86399696266214" cy="267.7520547874073" fill="grey"></circle><circle r="2" cx="86.34522214034199" cy="267.56412251014984" fill="grey"></circle><circle r="2" cx="86.41215967068742" cy="267.5384089125795" fill="grey"></circle><circle r="2" cx="87.35686332433859" cy="267.16702476537216" fill="grey"></circle><circle r="2" cx="87.6037266633077" cy="267.07388307202876" fill="grey"></circle><circle r="2" cx="88.93859632843369" cy="266.56138490023824" fill="grey"></circle><circle r="2" cx="88.64248036149138" cy="266.67709764198725" fill="grey"></circle><circle r="2" cx="89.87024019902925" cy="266.20678879503333" fill="grey"></circle><circle r="2" cx="89.87636433309872" cy="266.20469814221883" fill="grey"></circle><circle r="2" cx="90.33256401480989" cy="266.0188554393967" fill="grey"></circle><circle r="2" cx="90.18983855416299" cy="266.07664565163157" fill="grey"></circle><circle r="2" cx="91.84283772322031" cy="265.42135116971207" fill="grey"></circle><circle r="2" cx="91.54440923879896" cy="265.54208105532973" fill="grey"></circle><circle r="2" cx="92.11470043888004" cy="265.3088890278393" fill="grey"></circle><circle r="2" cx="92.6608332160622" cy="265.0909501330036" fill="grey"></circle><circle r="2" cx="93.17075598989635" cy="264.9054433314487" fill="grey"></circle><circle r="2" cx="94.05913543138146" cy="264.5620393070733" fill="grey"></circle><circle r="2" cx="94.73890981875593" cy="264.2848756806576" fill="grey"></circle><circle r="2" cx="94.87300745353132" cy="264.22997181368055" fill="grey"></circle><circle r="2" cx="95.26290504476592" cy="264.07041692904517" fill="grey"></circle><circle r="2" cx="95.30643579412826" cy="264.0520595401063" fill="grey"></circle><circle r="2" cx="96.57716462293001" cy="263.56694319657225" fill="grey"></circle><circle r="2" cx="96.08990750784824" cy="263.74487427410753" fill="grey"></circle><circle r="2" cx="97.24914281302003" cy="263.3384973032724" fill="grey"></circle><circle r="2" cx="97.92410537640954" cy="263.0689504012714" fill="grey"></circle><circle r="2" cx="98.05449263916053" cy="263.0208462698756" fill="grey"></circle><circle r="2" cx="98.71947420656451" cy="262.766684704606" fill="grey"></circle><circle r="2" cx="99.68733806308086" cy="262.37840511617475" fill="grey"></circle><circle r="2" cx="99.89146279162216" cy="262.30781039383265" fill="grey"></circle><circle r="2" cx="100.96125053433195" cy="261.8840814590398" fill="grey"></circle><circle r="2" cx="100.91553553370137" cy="261.89847911015295" fill="grey"></circle><circle r="2" cx="101.80517961418957" cy="261.5561933209075" fill="grey"></circle><circle r="2" cx="101.84606485567838" cy="261.5417217607039" fill="grey"></circle><circle r="2" cx="102.25659255241756" cy="261.36889470407687" fill="grey"></circle><circle r="2" cx="102.7519792859451" cy="261.1677435736508" fill="grey"></circle><circle r="2" cx="103.69919563891243" cy="260.78198379588997" fill="grey"></circle><circle r="2" cx="103.7442589229697" cy="260.7617641439641" fill="grey"></circle><circle r="2" cx="104.148216454847" cy="260.60986173235125" fill="grey"></circle><circle r="2" cx="104.17076969108265" cy="260.6008399867668" fill="grey"></circle><circle r="2" cx="105.37268200119101" cy="260.1208334565124" fill="grey"></circle><circle r="2" cx="104.95302550841352" cy="260.2916922461138" fill="grey"></circle><circle r="2" cx="106.05443584609911" cy="259.8395061168312" fill="grey"></circle><circle r="2" cx="106.42538747895138" cy="259.6882391335768" fill="grey"></circle><circle r="2" cx="107.42136975573563" cy="259.2878362289713" fill="grey"></circle><circle r="2" cx="107.10002524414452" cy="259.42266591958963" fill="grey"></circle><circle r="2" cx="107.9299000098025" cy="259.08294172136027" fill="grey"></circle><circle r="2" cx="108.29199590971548" cy="258.9499177481355" fill="grey"></circle><circle r="2" cx="109.62839791658877" cy="258.4112174270456" fill="grey"></circle><circle r="2" cx="109.05339908918774" cy="258.63490648783886" fill="grey"></circle><circle r="2" cx="110.35854409693965" cy="258.10708540571125" fill="grey"></circle><circle r="2" cx="109.93194507995777" cy="258.28296801240134" fill="grey"></circle><circle r="2" cx="111.36816066288414" cy="257.68679992414627" fill="grey"></circle><circle r="2" cx="111.48205200345535" cy="257.6379305027921" fill="grey"></circle><circle r="2" cx="112.60386313554713" cy="257.14884186856" fill="grey"></circle><circle r="2" cx="112.23160630026321" cy="257.31137149782364" fill="grey"></circle><circle r="2" cx="113.40268900060767" cy="256.8076936765442" fill="grey"></circle><circle r="2" cx="113.79421806021857" cy="256.63253760476937" fill="grey"></circle><circle r="2" cx="114.17409320178756" cy="256.4771017330791" fill="grey"></circle><circle r="2" cx="114.19623665222184" cy="256.46885206879773" fill="grey"></circle><circle r="2" cx="115.50893143978038" cy="255.9038291334569" fill="grey"></circle><circle r="2" cx="115.61719785613825" cy="255.86707267974106" fill="grey"></circle><circle r="2" cx="116.15140410313846" cy="255.64504806669333" fill="grey"></circle><circle r="2" cx="115.88828734442504" cy="255.76145325997857" fill="grey"></circle><circle r="2" cx="116.86465378988012" cy="255.35698514572573" fill="grey"></circle><circle r="2" cx="117.18629747666888" cy="255.20905036676396" fill="grey"></circle><circle r="2" cx="118.29139312696678" cy="254.7087854338061" fill="grey"></circle><circle r="2" cx="118.54412329399825" cy="254.5923185573273" fill="grey"></circle><circle r="2" cx="119.02701220493935" cy="254.38069524369638" fill="grey"></circle><circle r="2" cx="119.01019635716436" cy="254.3867213938546" fill="grey"></circle><circle r="2" cx="120.09788489406031" cy="253.90535279663942" fill="grey"></circle><circle r="2" cx="119.88246615272215" cy="253.99117140119438" fill="grey"></circle><circle r="2" cx="121.62469483590101" cy="253.22349499828414" fill="grey"></circle><circle r="2" cx="120.94238682605736" cy="253.53708465320838" fill="grey"></circle><circle r="2" cx="121.79846494601514" cy="253.13217461002478" fill="grey"></circle><circle r="2" cx="122.31557357347171" cy="252.90410653319668" fill="grey"></circle><circle r="2" cx="123.70448596868933" cy="252.24768900388204" fill="grey"></circle><circle r="2" cx="122.95838162830066" cy="252.59966114352028" fill="grey"></circle><circle r="2" cx="124.02795916262647" cy="252.08540562505053" fill="grey"></circle><circle r="2" cx="124.1096734399547" cy="252.03863931800063" fill="grey"></circle><circle r="2" cx="125.16831128246481" cy="251.52541301300334" fill="grey"></circle><circle r="2" cx="125.2911789150494" cy="251.46482035679455" fill="grey"></circle><circle r="2" cx="126.58612506693584" cy="250.87925055058335" fill="grey"></circle><circle r="2" cx="126.08282962745375" cy="251.11657148493927" fill="grey"></circle><circle r="2" cx="127.25613423437014" cy="250.56784690538348" fill="grey"></circle><circle r="2" cx="127.61222738447553" cy="250.40556935239198" fill="grey"></circle><circle r="2" cx="127.85549511623164" cy="250.29810655907968" fill="grey"></circle><circle r="2" cx="128.5800196291459" cy="250.02268240184011" fill="grey"></circle><circle r="2" cx="129.6944980879178" cy="249.52148186948952" fill="grey"></circle><circle r="2" cx="129.0052049223116" cy="249.85460813588932" fill="grey"></circle><circle r="2" cx="130.47896078075019" cy="249.1545676688353" fill="grey"></circle><circle r="2" cx="130.22515296431834" cy="249.28330458307923" fill="grey"></circle><circle r="2" cx="131.53059646342552" cy="248.63942973624927" fill="grey"></circle><circle r="2" cx="130.89398994563362" cy="248.9447357145519" fill="grey"></circle><circle r="2" cx="132.5199787514751" cy="248.15514903030717" fill="grey"></circle><circle r="2" cx="132.09390405401751" cy="248.37529986124983" fill="grey"></circle><circle r="2" cx="133.08493415625009" cy="247.8362923041256" fill="grey"></circle><circle r="2" cx="133.23476330398847" cy="247.76220982821835" fill="grey"></circle><circle r="2" cx="134.50931991659854" cy="247.14083501327988" fill="grey"></circle><circle r="2" cx="134.03573075779772" cy="247.352597176809" fill="grey"></circle><circle r="2" cx="134.7340157293055" cy="247.0213236686309" fill="grey"></circle><circle r="2" cx="134.9232618358528" cy="246.92228221731116" fill="grey"></circle><circle r="2" cx="135.75119394268305" cy="246.525300698124" fill="grey"></circle><circle r="2" cx="136.12430296131168" cy="246.35735521408145" fill="grey"></circle><circle r="2" cx="136.97699941620178" cy="245.94559626693308" fill="grey"></circle><circle r="2" cx="136.82964548388512" cy="246.02470395035405" fill="grey"></circle><circle r="2" cx="138.42686567762044" cy="245.30974276034596" fill="grey"></circle><circle r="2" cx="138.07720420308186" cy="245.46478436211905" fill="grey"></circle><circle r="2" cx="139.08663796459274" cy="245.05920287422015" fill="grey"></circle><circle r="2" cx="138.83224025964168" cy="245.17802092635128" fill="grey"></circle><circle r="2" cx="139.94406227444688" cy="244.7309273774446" fill="grey"></circle><circle r="2" cx="140.55324157370953" cy="244.48846701761056" fill="grey"></circle><circle r="2" cx="141.45602131952424" cy="244.13504263386574" fill="grey"></circle><circle r="2" cx="140.77344125753746" cy="244.37687261221524" fill="grey"></circle><circle r="2" cx="141.9065797374974" cy="243.96127538345496" fill="grey"></circle><circle r="2" cx="142.1668273790662" cy="243.86111108095807" fill="grey"></circle><circle r="2" cx="143.26955018119443" cy="243.37240755772035" fill="grey"></circle><circle r="2" cx="143.47122863197382" cy="243.30756121486522" fill="grey"></circle><circle r="2" cx="143.5784145778572" cy="243.25191385864645" fill="grey"></circle><circle r="2" cx="144.46556771095973" cy="242.88984825363156" fill="grey"></circle><circle r="2" cx="145.39504217244823" cy="242.4322225760707" fill="grey"></circle><circle r="2" cx="145.1524564922252" cy="242.55873923528216" fill="grey"></circle><circle r="2" cx="145.93542135625972" cy="242.33221325683257" fill="grey"></circle><circle r="2" cx="146.4224745122177" cy="242.13335606035048" fill="grey"></circle><circle r="2" cx="147.29067613318665" cy="241.69993616125046" fill="grey"></circle><circle r="2" cx="147.4799200522461" cy="241.59673764790094" fill="grey"></circle><circle r="2" cx="147.73513839180686" cy="241.43303693980783" fill="grey"></circle><circle r="2" cx="148.0496083384957" cy="241.31485529138337" fill="grey"></circle><circle r="2" cx="149.00996453388174" cy="240.97717239842922" fill="grey"></circle><circle r="2" cx="149.15251441306776" cy="240.912517032057" fill="grey"></circle><circle r="2" cx="149.85574665960317" cy="240.56442760528935" fill="grey"></circle><circle r="2" cx="150.44773755117248" cy="240.26688804579496" fill="grey"></circle><circle r="2" cx="150.86878762627546" cy="240.11653390883694" fill="grey"></circle><circle r="2" cx="150.7774105729895" cy="240.15990864167415" fill="grey"></circle><circle r="2" cx="152.00580954242702" cy="239.59111529387104" fill="grey"></circle><circle r="2" cx="151.97157094261897" cy="239.6047082988596" fill="grey"></circle><circle r="2" cx="153.40259474232417" cy="239.00907536774133" fill="grey"></circle><circle r="2" cx="153.23154379717454" cy="239.0636943307974" fill="grey"></circle><circle r="2" cx="154.40992309635976" cy="238.465831302734" fill="grey"></circle><circle r="2" cx="153.89345752167847" cy="238.74387967786757" fill="grey"></circle><circle r="2" cx="155.0603320266732" cy="238.11310448039904" fill="grey"></circle><circle r="2" cx="154.92054090351388" cy="238.20651847983805" fill="grey"></circle><circle r="2" cx="155.95575794672132" cy="237.65338157819397" fill="grey"></circle><circle r="2" cx="156.2446752083818" cy="237.5347771252128" fill="grey"></circle><circle r="2" cx="157.28726811063092" cy="237.05388974172757" fill="grey"></circle><circle r="2" cx="156.98997074005666" cy="237.182564260585" fill="grey"></circle><circle r="2" cx="157.94224260315573" cy="236.7920715401992" fill="grey"></circle><circle r="2" cx="157.71125454064622" cy="236.8655357002303" fill="grey"></circle><circle r="2" cx="158.4364169097621" cy="236.5742096964045" fill="grey"></circle><circle r="2" cx="159.31386657649182" cy="236.4186266179922" fill="grey"></circle><circle r="2" cx="159.49755440743" cy="236.26705650845543" fill="grey"></circle><circle r="2" cx="160.1284373177104" cy="235.91323581402682" fill="grey"></circle><circle r="2" cx="160.798357340191" cy="235.55442694185214" fill="grey"></circle><circle r="2" cx="160.9062715871583" cy="235.49708714973855" fill="grey"></circle><circle r="2" cx="161.9148677369102" cy="235.07141033097741" fill="grey"></circle><circle r="2" cx="161.56661592217193" cy="235.25359510549495" fill="grey"></circle><circle r="2" cx="163.0589300353766" cy="234.54751491510902" fill="grey"></circle><circle r="2" cx="162.72938780648707" cy="234.70079012513915" fill="grey"></circle><circle r="2" cx="164.1036131197368" cy="234.02045309021761" fill="grey"></circle><circle r="2" cx="163.54843683206838" cy="234.31379882664808" fill="grey"></circle><circle r="2" cx="165.24125165752832" cy="233.34000526671866" fill="grey"></circle><circle r="2" cx="165.15134393332673" cy="233.3839361969821" fill="grey"></circle><circle r="2" cx="165.44507359960997" cy="233.2449934373832" fill="grey"></circle><circle r="2" cx="165.62805583312021" cy="233.0974171405199" fill="grey"></circle><circle r="2" cx="166.65425928035475" cy="232.6054084256264" fill="grey"></circle><circle r="2" cx="167.24446104916677" cy="232.30462642489275" fill="grey"></circle><circle r="2" cx="168.26967914956526" cy="231.90465561222717" fill="grey"></circle><circle r="2" cx="168.0993674501183" cy="231.97329110095902" fill="grey"></circle><circle r="2" cx="168.6819165657206" cy="231.70714834441804" fill="grey"></circle><circle r="2" cx="169.1856373753406" cy="231.50801583770192" fill="grey"></circle><circle r="2" cx="170.10336232758723" cy="230.99537422900494" fill="grey"></circle><circle r="2" cx="170.00242813762875" cy="231.02845186178237" fill="grey"></circle><circle r="2" cx="170.39466019839995" cy="230.8529354848526" fill="grey"></circle><circle r="2" cx="171.2495764208354" cy="230.51438279627934" fill="grey"></circle><circle r="2" cx="171.82529589064495" cy="230.19821534479132" fill="grey"></circle><circle r="2" cx="171.73077283720062" cy="230.2487917964997" fill="grey"></circle><circle r="2" cx="172.7303490999889" cy="229.80186328588078" fill="grey"></circle><circle r="2" cx="172.69729147618696" cy="229.83371464676216" fill="grey"></circle><circle r="2" cx="173.6274555033976" cy="229.43648257839146" fill="grey"></circle><circle r="2" cx="173.57555809671348" cy="229.45099855213505" fill="grey"></circle><circle r="2" cx="174.82403849451006" cy="228.94668810303475" fill="grey"></circle><circle r="2" cx="174.71383576146872" cy="229.03252738563043" fill="grey"></circle><circle r="2" cx="175.32781144666103" cy="228.67718241142825" fill="grey"></circle><circle r="2" cx="176.237069012594" cy="228.2992184003704" fill="grey"></circle><circle r="2" cx="177.0251609788627" cy="227.94824989481302" fill="grey"></circle><circle r="2" cx="177.17004985961145" cy="227.86329967215525" fill="grey"></circle><circle r="2" cx="178.10630900066806" cy="227.43660929143218" fill="grey"></circle><circle r="2" cx="177.95431686179978" cy="227.54521656010758" fill="grey"></circle><circle r="2" cx="179.15873110025845" cy="226.82188439381466" fill="grey"></circle><circle r="2" cx="178.34757501007823" cy="227.28385635491748" fill="grey"></circle><circle r="2" cx="179.6008537398834" cy="226.4915959625056" fill="grey"></circle><circle r="2" cx="179.5303745863842" cy="226.51667030612091" fill="grey"></circle><circle r="2" cx="180.61530025522498" cy="226.01276111023492" fill="grey"></circle><circle r="2" cx="180.49172682508535" cy="226.03052210722478" fill="grey"></circle><circle r="2" cx="181.32217698934298" cy="225.57570248119617" fill="grey"></circle><circle r="2" cx="182.0289858893505" cy="224.92780405740874" fill="grey"></circle><circle r="2" cx="182.62448253376" cy="224.55085731742554" fill="grey"></circle><circle r="2" cx="182.51484812531916" cy="224.6060031278803" fill="grey"></circle><circle r="2" cx="183.5244965455739" cy="223.83047945478972" fill="grey"></circle><circle r="2" cx="183.4957327549154" cy="223.83798474455114" fill="grey"></circle><circle r="2" cx="184.34761891808708" cy="223.44381017185424" fill="grey"></circle><circle r="2" cx="184.4983347867989" cy="223.3747516554414" fill="grey"></circle><circle r="2" cx="185.26991081234522" cy="223.02321733744284" fill="grey"></circle><circle r="2" cx="185.36458694013183" cy="222.97207954348943" fill="grey"></circle><circle r="2" cx="187.04871765464821" cy="222.11279827643648" fill="grey"></circle><circle r="2" cx="186.87702081994422" cy="222.186798095962" fill="grey"></circle><circle r="2" cx="187.9667752387657" cy="221.3270556464876" fill="grey"></circle><circle r="2" cx="187.5376761107311" cy="221.82246282045372" fill="grey"></circle><circle r="2" cx="188.33171969971954" cy="220.98542608209402" fill="grey"></circle><circle r="2" cx="188.2581820096788" cy="221.02798091071674" fill="grey"></circle><circle r="2" cx="189.3526350828573" cy="220.09137282339864" fill="grey"></circle><circle r="2" cx="189.74475021735472" cy="219.85311021377956" fill="grey"></circle><circle r="2" cx="190.14491755700985" cy="219.16266425014987" fill="grey"></circle><circle r="2" cx="190.84464827042527" cy="218.75890976455042" fill="grey"></circle><circle r="2" cx="191.57044277955646" cy="218.02460124938335" fill="grey"></circle><circle r="2" cx="191.87733832990875" cy="217.7993125189028" fill="grey"></circle><circle r="2" cx="191.701378085418" cy="217.8857974930806" fill="grey"></circle><circle r="2" cx="191.74521941946594" cy="217.85182992476655" fill="grey"></circle><circle r="2" cx="191.78915960642644" cy="217.8132308410297" fill="grey"></circle><circle r="2" cx="191.83319909322023" cy="217.80397907795918" fill="grey"></circle><circle r="2" cx="191.87733832990875" cy="217.7993125189028" fill="grey"></circle><circle r="2" cx="191.92157776924594" cy="217.79317114540854" fill="grey"></circle><circle r="2" cx="191.96591786757548" cy="217.7699974429731" fill="grey"></circle><circle r="2" cx="192.01035908348456" cy="217.73138343205932" fill="grey"></circle><circle r="2" cx="192.0549018791501" cy="217.7190554285804" fill="grey"></circle><circle r="2" cx="192.09954672033868" cy="217.68657706014864" fill="grey"></circle><circle r="2" cx="192.14429407550926" cy="217.54754759446269" fill="grey"></circle><circle r="2" cx="192.18914441715927" cy="217.47486320121686" fill="grey"></circle><circle r="2" cx="192.23409821958091" cy="217.44857829414545" fill="grey"></circle><circle r="2" cx="192.27915596110486" cy="217.1777513218724" fill="grey"></circle><circle r="2" cx="192.32431812454894" cy="217.13906722959754" fill="grey"></circle><circle r="2" cx="192.3695851940772" cy="217.13286637019146" fill="grey"></circle><circle r="2" cx="192.41495765834063" cy="217.1235837728249" fill="grey"></circle><circle r="2" cx="192.4604360095802" cy="217.09721526306242" fill="grey"></circle><circle r="2" cx="192.50602074317774" cy="217.08485016993328" fill="grey"></circle><circle r="2" cx="192.5517123576561" cy="217.07400527570064" fill="grey"></circle><circle r="2" cx="192.59751135602536" cy="217.07092375741917" fill="grey"></circle><circle r="2" cx="192.64341824309045" cy="217.0414664187745" fill="grey"></circle><circle r="2" cx="192.68943352948943" cy="217.03526200070053" fill="grey"></circle><circle r="2" cx="192.73555772765542" cy="217.0058397816501" fill="grey"></circle><circle r="2" cx="192.78179135495728" cy="216.97172856971156" fill="grey"></circle><circle r="2" cx="192.82813493145636" cy="216.94846446930296" fill="grey"></circle><circle r="2" cx="192.8745889812522" cy="216.92055201677744" fill="grey"></circle><circle r="2" cx="192.92115403248297" cy="216.90817630867573" fill="grey"></circle><circle r="2" cx="192.9678306168764" cy="216.844605278132" fill="grey"></circle><circle r="2" cx="193.01461927019884" cy="216.73909116563695" fill="grey"></circle><circle r="2" cx="193.06152053135744" cy="216.7328781892711" fill="grey"></circle><circle r="2" cx="193.1085349441954" cy="216.68942189664227" fill="grey"></circle><circle r="2" cx="193.15566305614564" cy="216.66769002284022" fill="grey"></circle><circle r="2" cx="193.20290541778192" cy="216.64752066459886" fill="grey"></circle><circle r="2" cx="193.25026258506273" cy="216.53416447940626" fill="grey"></circle><circle r="2" cx="193.29773511663885" cy="216.48757681138025" fill="grey"></circle><circle r="2" cx="193.34532357654555" cy="216.3803192216755" fill="grey"></circle><circle r="2" cx="193.39302853240787" cy="216.34144864230913" fill="grey"></circle><circle r="2" cx="193.4408505558894" cy="216.3368307437005" fill="grey"></circle><circle r="2" cx="193.48879022224327" cy="216.24351913828082" fill="grey"></circle><circle r="2" cx="193.53684811300477" cy="216.24351913828082" fill="grey"></circle><circle r="2" cx="193.58502481150393" cy="216.2248354250273" fill="grey"></circle><circle r="2" cx="193.63332090735287" cy="215.9882795785054" fill="grey"></circle><circle r="2" cx="193.68173699330478" cy="215.93376729591535" fill="grey"></circle><circle r="2" cx="193.73027366794605" cy="215.93376729591535" fill="grey"></circle><circle r="2" cx="193.77893153255533" cy="215.87767111885128" fill="grey"></circle><circle r="2" cx="193.82771119424467" cy="215.79349930438175" fill="grey"></circle><circle r="2" cx="193.87661326416455" cy="215.6984193862177" fill="grey"></circle><circle r="2" cx="193.9256383584013" cy="215.50341616945167" fill="grey"></circle><circle r="2" cx="193.97478709752832" cy="215.46438611907578" fill="grey"></circle><circle r="2" cx="194.0240601066063" cy="215.33474589053503" fill="grey"></circle><circle r="2" cx="194.07345801563176" cy="215.31602373198731" fill="grey"></circle><circle r="2" cx="194.12298145953707" cy="215.29415194762652" fill="grey"></circle><circle r="2" cx="194.1726310781904" cy="215.2801075550433" fill="grey"></circle><circle r="2" cx="194.22240751549845" cy="215.2801075550433" fill="grey"></circle><circle r="2" cx="194.27231142164996" cy="215.18161099039042" fill="grey"></circle><circle r="2" cx="194.32234345087207" cy="214.93606134525382" fill="grey"></circle><circle r="2" cx="194.37250426277652" cy="214.9047723265752" fill="grey"></circle><circle r="2" cx="194.4227945223595" cy="214.8546757641246" fill="grey"></circle><circle r="2" cx="194.47321489865593" cy="214.77795157295182" fill="grey"></circle><circle r="2" cx="194.52376606787985" cy="214.76071831864675" fill="grey"></circle><circle r="2" cx="194.5744487093865" cy="214.7481767714708" fill="grey"></circle><circle r="2" cx="194.62526350881316" cy="214.7403686239965" fill="grey"></circle><circle r="2" cx="194.676211158079" cy="214.73098202595193" fill="grey"></circle><circle r="2" cx="194.72729235314173" cy="214.70120055732122" fill="grey"></circle><circle r="2" cx="194.77850779534361" cy="214.69646600738122" fill="grey"></circle><circle r="2" cx="194.82985819320632" cy="214.62284373247684" fill="grey"></circle><circle r="2" cx="194.88134425929005" cy="214.53036596718627" fill="grey"></circle><circle r="2" cx="194.93296671243687" cy="214.52408895612683" fill="grey"></circle><circle r="2" cx="194.98472627732235" cy="214.46762527125983" fill="grey"></circle><circle r="2" cx="195.03662368400649" cy="214.45194761156188" fill="grey"></circle><circle r="2" cx="195.08865966883135" cy="214.4174285138764" fill="grey"></circle><circle r="2" cx="195.14083497352357" cy="214.4174285138764" fill="grey"></circle><circle r="2" cx="195.1931503465406" cy="214.4174285138764" fill="grey"></circle><circle r="2" cx="195.2456065412756" cy="214.25736016257127" fill="grey"></circle><circle r="2" cx="195.29820431875004" cy="214.23225937545004" fill="grey"></circle><circle r="2" cx="195.3509444449212" cy="214.21181974646566" fill="grey"></circle><circle r="2" cx="195.4038276920284" cy="214.15531650051915" fill="grey"></circle><circle r="2" cx="195.456854839939" cy="214.11446085779227" fill="grey"></circle><circle r="2" cx="195.51002667255904" cy="214.0516014850256" fill="grey"></circle><circle r="2" cx="195.56334398276866" cy="213.94158383626083" fill="grey"></circle><circle r="2" cx="195.616807568384" cy="213.89914540254063" fill="grey"></circle><circle r="2" cx="195.6704182339518" cy="213.8739627632694" fill="grey"></circle><circle r="2" cx="195.72417679119835" cy="213.82838323955147" fill="grey"></circle><circle r="2" cx="195.77808405858065" cy="213.80632086819082" fill="grey"></circle><circle r="2" cx="195.83214086083768" cy="213.7449585542022" fill="grey"></circle><circle r="2" cx="195.88634802988796" cy="213.46629495428377" fill="grey"></circle><circle r="2" cx="195.94070640438062" cy="213.43634178218426" fill="grey"></circle><circle r="2" cx="195.99521683059305" cy="213.43475497446204" fill="grey"></circle><circle r="2" cx="196.0498801615333" cy="213.42059090590132" fill="grey"></circle><circle r="2" cx="196.10469725738898" cy="213.42059090590132" fill="grey"></circle><circle r="2" cx="196.15966898552693" cy="213.262932852435" fill="grey"></circle><circle r="2" cx="196.2147962204937" cy="213.19510413705504" fill="grey"></circle><circle r="2" cx="196.27007984536127" cy="213.17460883676333" fill="grey"></circle><circle r="2" cx="196.32552074948367" cy="212.97571092699462" fill="grey"></circle><circle r="2" cx="196.3811198307405" cy="212.96624845718642" fill="grey"></circle><circle r="2" cx="196.43687799374214" cy="212.94255060633554" fill="grey"></circle><circle r="2" cx="196.4927961516246" cy="212.91097643780705" fill="grey"></circle><circle r="2" cx="196.54887522560065" cy="212.89359676280077" fill="grey"></circle><circle r="2" cx="196.60511614406252" cy="212.53791048756017" fill="grey"></circle><circle r="2" cx="196.66151984347954" cy="212.53153523062394" fill="grey"></circle><circle r="2" cx="196.71808727019248" cy="212.45244706991934" fill="grey"></circle><circle r="2" cx="196.77481937592682" cy="212.4366256734097" fill="grey"></circle><circle r="2" cx="196.83171712362596" cy="212.39545295060304" fill="grey"></circle><circle r="2" cx="196.88878148251536" cy="212.33844486846598" fill="grey"></circle><circle r="2" cx="196.946013431692" cy="212.3004039413832" fill="grey"></circle><circle r="2" cx="197.00341395833" cy="212.18161847540165" fill="grey"></circle><circle r="2" cx="197.06098405857756" cy="212.09126968829045" fill="grey"></circle><circle r="2" cx="197.11872473666006" cy="212.0611323892946" fill="grey"></circle><circle r="2" cx="197.17663700712296" cy="212.0611323892946" fill="grey"></circle><circle r="2" cx="197.2347218930376" cy="212.04843717775407" fill="grey"></circle><circle r="2" cx="197.2929804255521" cy="212.0278362965396" fill="grey"></circle><circle r="2" cx="197.3514136470324" cy="211.9263224597747" fill="grey"></circle><circle r="2" cx="197.41002260747277" cy="211.80569993515206" fill="grey"></circle><circle r="2" cx="197.46880836763643" cy="211.58174516732717" fill="grey"></circle><circle r="2" cx="197.52777199681245" cy="211.5277333188173" fill="grey"></circle><circle r="2" cx="197.58691457550754" cy="211.20647581498403" fill="grey"></circle><circle r="2" cx="197.6462371927541" cy="211.16984830904306" fill="grey"></circle><circle r="2" cx="197.70574094790513" cy="211.16984830904306" fill="grey"></circle><circle r="2" cx="197.76542695063384" cy="211.16984830904306" fill="grey"></circle><circle r="2" cx="197.8252963209341" cy="210.81934851963217" fill="grey"></circle><circle r="2" cx="197.88535018867134" cy="210.81300753491018" fill="grey"></circle><circle r="2" cx="197.945589694929" cy="210.76993361098022" fill="grey"></circle><circle r="2" cx="198.00601599021354" cy="210.52739954450814" fill="grey"></circle><circle r="2" cx="198.06663023714668" cy="210.2222841159633" fill="grey"></circle><circle r="2" cx="198.1274336086706" cy="210.11356463859028" fill="grey"></circle><circle r="2" cx="198.18842728804805" cy="210.09440048269798" fill="grey"></circle><circle r="2" cx="198.24961247065693" cy="209.8223359589412" fill="grey"></circle><circle r="2" cx="198.3109903630931" cy="209.45052903178643" fill="grey"></circle><circle r="2" cx="198.37256218272162" cy="209.4424936629339" fill="grey"></circle><circle r="2" cx="198.43432915857412" cy="209.43126906453264" fill="grey"></circle><circle r="2" cx="198.49629253269504" cy="209.29491025939896" fill="grey"></circle><circle r="2" cx="198.55845355744913" cy="209.28686941333805" fill="grey"></circle><circle r="2" cx="198.6208134973166" cy="209.28367805114794" fill="grey"></circle><circle r="2" cx="198.683373630239" cy="209.28367805114794" fill="grey"></circle><circle r="2" cx="198.74613524582472" cy="208.87722075361083" fill="grey"></circle><circle r="2" cx="198.80909964534843" cy="208.8498988284757" fill="grey"></circle><circle r="2" cx="198.87226814354642" cy="208.5748063169003" fill="grey"></circle><circle r="2" cx="198.9356420681678" cy="208.25743620400024" fill="grey"></circle><circle r="2" cx="198.99922275997437" cy="208.25098379955458" fill="grey"></circle><circle r="2" cx="199.06301157184316" cy="207.97194467937547" fill="grey"></circle><circle r="2" cx="199.12700987145894" cy="207.72161912674093" fill="grey"></circle><circle r="2" cx="199.19121903862165" cy="207.62626636025647" fill="grey"></circle><circle r="2" cx="199.2556404683878" cy="207.37883848201398" fill="grey"></circle><circle r="2" cx="199.32027556792892" cy="207.0549816245323" fill="grey"></circle><circle r="2" cx="199.3851257601218" cy="206.86052671299217" fill="grey"></circle><circle r="2" cx="199.45019248040714" cy="206.5651968391669" fill="grey"></circle><circle r="2" cx="199.5154771803795" cy="206.5651968391669" fill="grey"></circle><circle r="2" cx="199.58098132509483" cy="206.15245870612208" fill="grey"></circle><circle r="2" cx="199.64670639441667" cy="205.91491416270412" fill="grey"></circle><circle r="2" cx="199.71265388436237" cy="205.7813785478348" fill="grey"></circle><circle r="2" cx="199.77882530530812" cy="205.68243404794308" fill="grey"></circle><circle r="2" cx="199.8452221828866" cy="205.64288864303657" fill="grey"></circle><circle r="2" cx="199.9118460584353" cy="205.58422107947337" fill="grey"></circle><circle r="2" cx="199.97869848989427" cy="205.27917130228857" fill="grey"></circle><circle r="2" cx="200.0457810509087" cy="205.03913768274654" fill="grey"></circle><circle r="2" cx="200.11309533082866" cy="204.96564346558094" fill="grey"></circle><circle r="2" cx="200.18064293650428" cy="204.57637723578583" fill="grey"></circle><circle r="2" cx="200.24842549049063" cy="204.45687462464696" fill="grey"></circle><circle r="2" cx="200.31644463374005" cy="203.77139070927203" fill="grey"></circle><circle r="2" cx="200.3847020229101" cy="203.4411086722777" fill="grey"></circle><circle r="2" cx="200.45319933305555" cy="203.33911579248658" fill="grey"></circle><circle r="2" cx="200.52193825673112" cy="203.26346512709998" fill="grey"></circle><circle r="2" cx="200.59092050444013" cy="203.00499503419428" fill="grey"></circle><circle r="2" cx="200.66014780553192" cy="202.59948415659207" fill="grey"></circle><circle r="2" cx="200.72962190640706" cy="202.59948415659207" fill="grey"></circle><circle r="2" cx="200.79934457365837" cy="202.59948415659207" fill="grey"></circle><circle r="2" cx="200.86931759182713" cy="202.4954916736138" fill="grey"></circle><circle r="2" cx="200.93954276609566" cy="202.4195896638354" fill="grey"></circle><circle r="2" cx="201.01002191914614" cy="202.16355018538073" fill="grey"></circle><circle r="2" cx="201.0807568960965" cy="202.16355018538073" fill="grey"></circle><circle r="2" cx="201.15174956001343" cy="201.83280353001535" fill="grey"></circle><circle r="2" cx="201.22300179550172" cy="201.42043218946336" fill="grey"></circle><circle r="2" cx="201.29451550735857" cy="201.15843156055647" fill="grey"></circle><circle r="2" cx="201.36629262236815" cy="201.1169669464302" fill="grey"></circle><circle r="2" cx="201.43833508795544" cy="201.05055831868546" fill="grey"></circle><circle r="2" cx="201.51064487263525" cy="201.0090761028442" fill="grey"></circle><circle r="2" cx="201.5832239687042" cy="200.9310228346167" fill="grey"></circle><circle r="2" cx="201.65607438865106" cy="200.5255503135512" fill="grey"></circle><circle r="2" cx="201.72919816919537" cy="200.0944221507853" fill="grey"></circle><circle r="2" cx="201.80259736994105" cy="200.0577783298673" fill="grey"></circle><circle r="2" cx="201.876274072479" cy="200.0577783298673" fill="grey"></circle><circle r="2" cx="201.95023038397716" cy="199.99110130890458" fill="grey"></circle><circle r="2" cx="202.02446843448772" cy="199.16989920603393" fill="grey"></circle><circle r="2" cx="202.09899037874237" cy="198.8721284886588" fill="grey"></circle><circle r="2" cx="202.1737983966007" cy="198.46011976112123" fill="grey"></circle><circle r="2" cx="202.2488946926018" cy="198.3209255291622" fill="grey"></circle><circle r="2" cx="202.32428149686152" cy="197.93157212767224" fill="grey"></circle><circle r="2" cx="202.3999610664186" cy="197.91474985020537" fill="grey"></circle><circle r="2" cx="202.47593568388848" cy="197.79882902145997" fill="grey"></circle><circle r="2" cx="202.55220765880978" cy="197.629043731723" fill="grey"></circle><circle r="2" cx="202.6287793276437" cy="197.4642338306105" fill="grey"></circle><circle r="2" cx="202.70565305556957" cy="197.42049638779824" fill="grey"></circle><circle r="2" cx="202.78283123424075" cy="197.31948732504443" fill="grey"></circle><circle r="2" cx="202.86031628537447" cy="196.9910033535941" fill="grey"></circle><circle r="2" cx="202.9381106589572" cy="196.91011493613405" fill="grey"></circle><circle r="2" cx="203.0162168341418" cy="196.28391923758917" fill="grey"></circle><circle r="2" cx="203.09463732104257" cy="196.10978910575858" fill="grey"></circle><circle r="2" cx="203.17337465938897" cy="195.9593058791121" fill="grey"></circle><circle r="2" cx="203.25243141942317" cy="195.6613726265424" fill="grey"></circle><circle r="2" cx="203.33181020414355" cy="195.227426593221" fill="grey"></circle><circle r="2" cx="203.41151364750974" cy="194.99663907776045" fill="grey"></circle><circle r="2" cx="203.4915444157891" cy="194.84551016314126" fill="grey"></circle><circle r="2" cx="203.57190520845376" cy="194.80306696079626" fill="grey"></circle><circle r="2" cx="203.65259875952702" cy="194.58549104680193" fill="grey"></circle><circle r="2" cx="203.73362783533966" cy="194.16350279245464" fill="grey"></circle><circle r="2" cx="203.8149952381197" cy="193.9335576399777" fill="grey"></circle><circle r="2" cx="203.89670380509503" cy="193.86541802079438" fill="grey"></circle><circle r="2" cx="203.97875640939066" cy="193.81253110868906" fill="grey"></circle><circle r="2" cx="204.0611559600289" cy="193.6198201778647" fill="grey"></circle><circle r="2" cx="204.1439054032755" cy="193.55838772755436" fill="grey"></circle><circle r="2" cx="204.22700772443432" cy="193.22201507980338" fill="grey"></circle><circle r="2" cx="204.3104659447066" cy="193.18956015877814" fill="grey"></circle><circle r="2" cx="204.39428312612654" cy="193.1604972929952" fill="grey"></circle><circle r="2" cx="204.47846237021545" cy="193.00494565426757" fill="grey"></circle><circle r="2" cx="204.56300681798155" cy="192.948544978871" fill="grey"></circle><circle r="2" cx="204.6479196526122" cy="192.8527534301641" fill="grey"></circle><circle r="2" cx="204.733204098128" cy="192.77918891458353" fill="grey"></circle><circle r="2" cx="204.81886342162613" cy="192.71072914440873" fill="grey"></circle><circle r="2" cx="204.904900932832" cy="192.71072914440873" fill="grey"></circle><circle r="2" cx="204.99131998679084" cy="192.71072914440873" fill="grey"></circle><circle r="2" cx="205.07812398162494" cy="192.58918462621534" fill="grey"></circle><circle r="2" cx="205.1653163630203" cy="192.5309786314395" fill="grey"></circle><circle r="2" cx="205.2529006210857" cy="192.23964080055143" fill="grey"></circle><circle r="2" cx="205.34088029528863" cy="192.08704463950824" fill="grey"></circle><circle r="2" cx="205.4292589713144" cy="191.97382896993489" fill="grey"></circle><circle r="2" cx="205.51804028510432" cy="191.76096067527467" fill="grey"></circle><circle r="2" cx="205.60722792195838" cy="191.30723763033072" fill="grey"></circle><circle r="2" cx="205.696825618779" cy="191.14726878571852" fill="grey"></circle><circle r="2" cx="205.78683716317332" cy="191.10418712692365" fill="grey"></circle><circle r="2" cx="205.8772663956969" cy="190.98374688776593" fill="grey"></circle><circle r="2" cx="205.96811721164866" cy="190.87174779763652" fill="grey"></circle><circle r="2" cx="206.05939355972458" cy="190.73222256641736" fill="grey"></circle><circle r="2" cx="206.15109944471018" cy="190.69601894111548" fill="grey"></circle><circle r="2" cx="206.24323892927515" cy="190.56326366495145" fill="grey"></circle><circle r="2" cx="206.33581613307615" cy="189.92459194426306" fill="grey"></circle><circle r="2" cx="206.42883523410268" cy="189.87620207944903" fill="grey"></circle><circle r="2" cx="206.52230047136985" cy="189.71197593882744" fill="grey"></circle><circle r="2" cx="206.61621614581517" cy="189.35376382577238" fill="grey"></circle><circle r="2" cx="206.71058661940168" cy="189.35376382577238" fill="grey"></circle><circle r="2" cx="206.80541631825858" cy="189.30528169497572" fill="grey"></circle><circle r="2" cx="206.9007097340276" cy="189.04195539001844" fill="grey"></circle><circle r="2" cx="206.99647142386303" cy="188.7315240314176" fill="grey"></circle><circle r="2" cx="207.09270601267494" cy="188.7037633327553" fill="grey"></circle><circle r="2" cx="207.18941819492454" cy="188.6030873899264" fill="grey"></circle><circle r="2" cx="207.28661273372634" cy="188.3373973694053" fill="grey"></circle><circle r="2" cx="207.38429446578428" cy="188.08538398593095" fill="grey"></circle><circle r="2" cx="207.48246829869933" cy="187.73219540695766" fill="grey"></circle><circle r="2" cx="207.58113921680277" cy="187.70259042272522" fill="grey"></circle><circle r="2" cx="207.68031227936137" cy="187.6538424869519" fill="grey"></circle><circle r="2" cx="207.77999262282103" cy="187.4587732508348" fill="grey"></circle><circle r="2" cx="207.88018546394756" cy="187.3036620762928" fill="grey"></circle><circle r="2" cx="207.9808960998269" cy="187.2617793596254" fill="grey"></circle><circle r="2" cx="208.08212991010885" cy="187.0315675405185" fill="grey"></circle><circle r="2" cx="208.18389235925008" cy="186.9146180935174" fill="grey"></circle><circle r="2" cx="208.28618899651465" cy="186.9146180935174" fill="grey"></circle><circle r="2" cx="208.38902546046106" cy="186.7330480773566" fill="grey"></circle><circle r="2" cx="208.4924074784934" cy="186.4901728301036" fill="grey"></circle><circle r="2" cx="208.59634086955364" cy="186.192844607837" fill="grey"></circle><circle r="2" cx="208.70083154726288" cy="186.17361123814334" fill="grey"></circle><circle r="2" cx="208.80588551947235" cy="186.1281425996353" fill="grey"></circle><circle r="2" cx="208.91150889275067" cy="185.57810668255178" fill="grey"></circle><circle r="2" cx="209.01770787328135" cy="184.28681259966328" fill="grey"></circle><circle r="2" cx="209.1244887691063" cy="184.11247949070992" fill="grey"></circle><circle r="2" cx="209.23185799192063" cy="184.10016272547495" fill="grey"></circle><circle r="2" cx="209.33982206155997" cy="183.9873833184605" fill="grey"></circle><circle r="2" cx="209.4483876051029" cy="183.53768653879325" fill="grey"></circle><circle r="2" cx="209.55756136225563" cy="183.193388314583" fill="grey"></circle><circle r="2" cx="209.66735018580053" cy="182.82750166889892" fill="grey"></circle><circle r="2" cx="209.77776104608355" cy="182.48243947887426" fill="grey"></circle><circle r="2" cx="209.88880103101408" cy="182.37443415269192" fill="grey"></circle><circle r="2" cx="210.00047735234688" cy="182.3655695413825" fill="grey"></circle><circle r="2" cx="210.11279734433617" cy="182.06076887062045" fill="grey"></circle><circle r="2" cx="210.22576847046608" cy="181.93130061592257" fill="grey"></circle><circle r="2" cx="210.3393983238996" cy="181.87812535279056" fill="grey"></circle><circle r="2" cx="210.45369463196556" cy="181.8231108276654" fill="grey"></circle><circle r="2" cx="210.5686652584025" cy="181.10904892439717" fill="grey"></circle><circle r="2" cx="210.68431820739656" cy="180.94009967830547" fill="grey"></circle><circle r="2" cx="210.80066162582568" cy="180.3221582089019" fill="grey"></circle><circle r="2" cx="210.9177038072976" cy="180.0261683599325" fill="grey"></circle><circle r="2" cx="211.03545319708604" cy="179.63339139182054" fill="grey"></circle><circle r="2" cx="211.15391839257904" cy="179.42615493983124" fill="grey"></circle><circle r="2" cx="211.27310815045877" cy="179.42615493983124" fill="grey"></circle><circle r="2" cx="211.39303138849627" cy="179.35108261678948" fill="grey"></circle><circle r="2" cx="211.5136971900384" cy="179.21339080088754" fill="grey"></circle><circle r="2" cx="211.63511480849553" cy="179.16688094334538" fill="grey"></circle><circle r="2" cx="211.75729367048177" cy="179.14002415682165" fill="grey"></circle><circle r="2" cx="211.88024338209775" cy="179.08635033844695" fill="grey"></circle><circle r="2" cx="212.0039737325199" cy="179.06844201054014" fill="grey"></circle><circle r="2" cx="212.12849469714146" cy="178.9324803596968" fill="grey"></circle><circle r="2" cx="212.25381644520087" cy="178.71043801450486" fill="grey"></circle><circle r="2" cx="212.3799493429226" cy="178.63696075527508" fill="grey"></circle><circle r="2" cx="212.50690395935055" cy="178.31254586828734" fill="grey"></circle><circle r="2" cx="212.6346910708351" cy="178.28025406930627" fill="grey"></circle><circle r="2" cx="212.76332166776393" cy="177.67348492636037" fill="grey"></circle><circle r="2" cx="212.89280695904924" cy="177.51349533890303" fill="grey"></circle><circle r="2" cx="213.02315837975567" cy="175.85378449985046" fill="grey"></circle><circle r="2" cx="213.1543875937928" cy="175.61885769355112" fill="grey"></circle><circle r="2" cx="213.2865065046843" cy="175.57185341184623" fill="grey"></circle><circle r="2" cx="213.4195272578114" cy="175.50128796488346" fill="grey"></circle><circle r="2" cx="213.55346224983612" cy="173.97890250164514" fill="grey"></circle><circle r="2" cx="213.68832413543174" cy="173.7608507459655" fill="grey"></circle><circle r="2" cx="213.82412583266748" cy="172.59026698758768" fill="grey"></circle><circle r="2" cx="213.960880531983" cy="172.46438638788098" fill="grey"></circle><circle r="2" cx="214.0986017033676" cy="171.9184837115236" fill="grey"></circle><circle r="2" cx="214.23730310533452" cy="171.9184837115236" fill="grey"></circle><circle r="2" cx="214.37699879075456" cy="171.90755178570498" fill="grey"></circle><circle r="2" cx="214.51770311807357" cy="171.1594618794406" fill="grey"></circle><circle r="2" cx="214.65943075849216" cy="170.5473951257607" fill="grey"></circle><circle r="2" cx="214.80219670583733" cy="170.4171545198779" fill="grey"></circle><circle r="2" cx="214.94601628643414" cy="169.68063100966876" fill="grey"></circle><circle r="2" cx="215.09090516673422" cy="169.3974207181317" fill="grey"></circle><circle r="2" cx="215.2368793676741" cy="169.3974207181317" fill="grey"></circle><circle r="2" cx="215.38395527095778" cy="169.347690421371" fill="grey"></circle><circle r="2" cx="215.53214963251776" cy="169.2041564630982" fill="grey"></circle><circle r="2" cx="215.6814795946307" cy="168.94632920545595" fill="grey"></circle><circle r="2" cx="215.83196269534025" cy="168.3710902877001" fill="grey"></circle><circle r="2" cx="215.98361688191852" cy="167.94461180201546" fill="grey"></circle><circle r="2" cx="216.13646052567375" cy="167.46956988036663" fill="grey"></circle><circle r="2" cx="216.29051243227073" cy="167.0957281190323" fill="grey"></circle><circle r="2" cx="216.44579185653848" cy="165.9980196665631" fill="grey"></circle><circle r="2" cx="216.6023185186239" cy="165.55206058704493" fill="grey"></circle><circle r="2" cx="216.7601126170045" cy="165.28235362538027" fill="grey"></circle><circle r="2" cx="216.91919484509108" cy="165.2041967075673" fill="grey"></circle><circle r="2" cx="217.07958640603508" cy="165.161441351759" fill="grey"></circle><circle r="2" cx="217.24130903292098" cy="165.1539553338633" fill="grey"></circle><circle r="2" cx="217.40438500267635" cy="165.1483885064843" fill="grey"></circle><circle r="2" cx="217.56883715716154" cy="164.92123140613856" fill="grey"></circle><circle r="2" cx="217.73468892111825" cy="164.57284146036113" fill="grey"></circle><circle r="2" cx="217.90196432325916" cy="164.26141579853908" fill="grey"></circle><circle r="2" cx="218.07068801511411" cy="164.07295716754535" fill="grey"></circle><circle r="2" cx="218.24088529481185" cy="163.96836792675995" fill="grey"></circle><circle r="2" cx="218.41258212951584" cy="163.92730434124712" fill="grey"></circle><circle r="2" cx="218.5858051783088" cy="163.62282541665084" fill="grey"></circle><circle r="2" cx="218.76058181776955" cy="163.4602291754443" fill="grey"></circle><circle r="2" cx="218.93694016754955" cy="163.3218678438675" fill="grey"></circle><circle r="2" cx="219.1149091186423" cy="163.1609792690833" fill="grey"></circle><circle r="2" cx="219.2945183594085" cy="163.0037875123418" fill="grey"></circle><circle r="2" cx="219.47579840743512" cy="162.91020477272102" fill="grey"></circle><circle r="2" cx="219.65878064094537" cy="162.3556340837763" fill="grey"></circle><circle r="2" cx="219.84349732886255" cy="162.07807858898238" fill="grey"></circle><circle r="2" cx="220.029981667605" cy="161.41894561577985" fill="grey"></circle><circle r="2" cx="220.2182678151881" cy="161.41894561577985" fill="grey"></circle><circle r="2" cx="220.40839092936537" cy="160.8735745736568" fill="grey"></circle><circle r="2" cx="220.60038720846137" cy="160.7624982585252" fill="grey"></circle><circle r="2" cx="220.79429392906408" cy="160.35947078197998" fill="grey"></circle><circle r="2" cx="220.9901494940371" cy="160.16154717217862" fill="grey"></circle><circle r="2" cx="221.18799347425042" cy="159.9201451691265" fill="grey"></circle><circle r="2" cx="221.38786665883654" cy="159.54830101598594" fill="grey"></circle><circle r="2" cx="221.58981110544656" cy="159.54640241015866" fill="grey"></circle><circle r="2" cx="221.79387019140364" cy="159.16480838839877" fill="grey"></circle><circle r="2" cx="222.00008867293369" cy="158.99842076039332" fill="grey"></circle><circle r="2" cx="222.2085127417032" cy="158.26787446262983" fill="grey"></circle><circle r="2" cx="222.419190087191" cy="157.88502447408806" fill="grey"></circle><circle r="2" cx="222.63216996309788" cy="157.6403035477226" fill="grey"></circle><circle r="2" cx="222.84750325555157" cy="157.4999074365989" fill="grey"></circle><circle r="2" cx="223.0652425562472" cy="156.65818856625785" fill="grey"></circle><circle r="2" cx="223.28544223962643" cy="156.60116592198167" fill="grey"></circle><circle r="2" cx="223.50815854588976" cy="156.35759199179125" fill="grey"></circle><circle r="2" cx="223.73344966400893" cy="155.5402340825051" fill="grey"></circle><circle r="2" cx="223.96137582550847" cy="155.10711031736693" fill="grey"></circle><circle r="2" cx="224.19199940049072" cy="154.54543837108454" fill="grey"></circle><circle r="2" cx="224.4253850003918" cy="154.5320346274752" fill="grey"></circle><circle r="2" cx="224.66159958567314" cy="154.13229779045446" fill="grey"></circle><circle r="2" cx="224.90071258114165" cy="153.93702418252394" fill="grey"></circle><circle r="2" cx="225.14279600069221" cy="153.804948760727" fill="grey"></circle><circle r="2" cx="225.38792457474324" cy="153.70724790032997" fill="grey"></circle><circle r="2" cx="225.6361758893382" cy="151.95077621321155" fill="grey"></circle><circle r="2" cx="225.8876305346706" cy="151.95077621321155" fill="grey"></circle><circle r="2" cx="226.1423722625831" cy="151.87188969318103" fill="grey"></circle><circle r="2" cx="226.40048815079726" cy="151.5312370754023" fill="grey"></circle><circle r="2" cx="226.6620687850921" cy="151.5158524449577" fill="grey"></circle><circle r="2" cx="226.927208448662" cy="151.4465155377194" fill="grey"></circle><circle r="2" cx="227.1960053262823" cy="151.04183722843806" fill="grey"></circle><circle r="2" cx="227.4685617223849" cy="150.57511141534218" fill="grey"></circle><circle r="2" cx="227.74498429573637" cy="150.54039349556703" fill="grey"></circle><circle r="2" cx="228.02538430802673" cy="150.16384348987557" fill="grey"></circle><circle r="2" cx="228.30987789579046" cy="150.02861043997962" fill="grey"></circle><circle r="2" cx="228.59858635623866" cy="149.1794594529858" fill="grey"></circle><circle r="2" cx="228.89163646001347" cy="148.782409958665" fill="grey"></circle><circle r="2" cx="229.18916078368642" cy="148.63316182240885" fill="grey"></circle><circle r="2" cx="229.49129807097424" cy="148.20646790254125" fill="grey"></circle><circle r="2" cx="229.79819362042906" cy="147.5967778382805" fill="grey"></circle><circle r="2" cx="230.10999970723086" cy="147.41016151886353" fill="grey"></circle><circle r="2" cx="230.4268760328006" cy="147.3868661434885" fill="grey"></circle><circle r="2" cx="230.7489902201818" cy="147.1709916599216" fill="grey"></circle><circle r="2" cx="231.07651834442237" cy="147.06401797762553" fill="grey"></circle><circle r="2" cx="231.40964551007127" cy="146.77991683508623" fill="grey"></circle><circle r="2" cx="231.74856648162398" cy="146.0239295478861" fill="grey"></circle><circle r="2" cx="232.09348636467223" cy="146.0239295478861" fill="grey"></circle><circle r="2" cx="232.4446213534643" cy="146.00639191780286" fill="grey"></circle><circle r="2" cx="232.80219954487444" cy="145.85621228353875" fill="grey"></circle><circle r="2" cx="233.1664618259626" cy="145.38388768084192" fill="grey"></circle><circle r="2" cx="233.53766285172486" cy="145.36823753810725" fill="grey"></circle><circle r="2" cx="233.9160721134852" cy="144.9501089672539" fill="grey"></circle><circle r="2" cx="234.3019751127352" cy="144.86013965314808" fill="grey"></circle><circle r="2" cx="234.6956746574728" cy="144.86013965314808" fill="grey"></circle><circle r="2" cx="235.09749228777156" cy="144.86013965314808" fill="grey"></circle><circle r="2" cx="235.50776985525863" cy="144.82890294874105" fill="grey"></circle><circle r="2" cx="235.92687126906722" cy="143.84820018436739" fill="grey"></circle><circle r="2" cx="236.3551844365304" cy="143.38748848978219" fill="grey"></circle><circle r="2" cx="236.7931234206053" cy="143.36201435589308" fill="grey"></circle><circle r="2" cx="237.2411308436416" cy="143.35417972176455" fill="grey"></circle><circle r="2" cx="237.6996805796747" cy="143.31879651287858" fill="grey"></circle><circle r="2" cx="238.16928076395973" cy="143.1285397789348" fill="grey"></circle><circle r="2" cx="238.65047717853005" cy="142.46468189590868" fill="grey"></circle><circle r="2" cx="239.14385706627854" cy="142.30933437699537" fill="grey"></circle><circle r="2" cx="239.65005343862603" cy="142.2543142091233" fill="grey"></circle><circle r="2" cx="240.16974996068635" cy="142.15793803630334" fill="grey"></circle><circle r="2" cx="240.70368650097913" cy="142.06747175130116" fill="grey"></circle><circle r="2" cx="241.25266546863836" cy="141.99077740431045" fill="grey"></circle><circle r="2" cx="241.8175590682437" cy="141.35275654922606" fill="grey"></circle><circle r="2" cx="242.3993176315693" cy="140.98030700025237" fill="grey"></circle><circle r="2" cx="242.9989792411839" cy="140.93097354803302" fill="grey"></circle><circle r="2" cx="243.6176808760944" cy="140.1868910929125" fill="grey"></circle><circle r="2" cx="244.25667138814794" cy="140.1868910929125" fill="grey"></circle><circle r="2" cx="244.9173266766912" cy="139.45157390384543" fill="grey"></circle><circle r="2" cx="245.60116752994605" cy="139.45157390384543" fill="grey"></circle><circle r="2" cx="246.3098807083534" cy="139.1963050281674" fill="grey"></circle><circle r="2" cx="247.04534401340894" cy="137.10339751139847" fill="grey"></circle><circle r="2" cx="247.80965627262444" cy="136.93634370834766" fill="grey"></circle><circle r="2" cx="248.60517344586586" cy="136.75534266282068" fill="grey"></circle><circle r="2" cx="249.43455242491802" cy="136.18391675719818" fill="grey"></circle><circle r="2" cx="250.3008045737637" cy="135.66375892778387" fill="grey"></circle><circle r="2" cx="251.2073617310383" cy="134.44981191532761" fill="grey"></circle><circle r="2" cx="252.15815832720133" cy="129.57782419938204" fill="grey"></circle><circle r="2" cx="253.15773458415637" cy="126.04061234007229" fill="grey"></circle><circle r="2" cx="254.21136764202228" cy="117.91169426810431" fill="grey"></circle><circle r="2" cx="255.32524020614588" cy="104.13603522973682" fill="grey"></circle><circle r="2" cx="256.5066603745989" cy="85.79133379742582" fill="grey"></circle><circle r="2" cx="257.764352516627" cy="71.20553898697398" fill="grey"></circle><circle r="2" cx="259.10884865259186" cy="68.95566824175926" fill="grey"></circle><circle r="2" cx="260.55302513067016" cy="51.57464753697938" fill="grey"></circle><circle r="2" cx="262.1128545554989" cy="42.65951767151911" fill="grey"></circle><circle r="2" cx="263.8084856744225" cy="41.85497674679103" fill="grey"></circle><circle r="2" cx="265.6658394152961" cy="33.700789196246404" fill="grey"></circle><circle r="2" cx="267.71904871800166" cy="18.54973530098811" fill="grey"></circle><circle r="2" cx="270.01434143397586" cy="17.318182394894066" fill="grey"></circle><circle r="2" cx="272.6165296913279" cy="15.052266004922243" fill="grey"></circle><circle r="2" cx="275.62053556596595" cy="10.926850267946353" fill="grey"></circle><circle r="2" cx="279.1735203885197" cy="9.981745635752649" fill="grey"></circle><circle r="2" cx="283.5220223484177" cy="8.311183137044619" fill="grey"></circle><circle r="2" cx="289.1282163825878" cy="8.311183137044619" fill="grey"></circle><circle r="2" cx="297.029702970297" cy="2.970297029702973" fill="grey"></circle><g class="x axis" transform="translate(0,300)"><g class="tick" transform="translate(0,0)" style="opacity: 1;"><line y2="6" x2="0" style="fill: none; stroke: grey;"></line><text dy=".71em" y="9" x="0" style="text-anchor: middle; font-size: 11px; font-family: sans-serif;">0</text></g><g class="tick" transform="translate(44.87154569892316,0)" style="opacity: 1;"><line y2="6" x2="0" style="fill: none; stroke: grey;"></line><text dy=".71em" y="9" x="0" style="text-anchor: middle; font-size: 11px; font-family: sans-serif;">1</text></g><g class="tick" transform="translate(89.74309139784631,0)" style="opacity: 1;"><line y2="6" x2="0" style="fill: none; stroke: grey;"></line><text dy=".71em" y="9" x="0" style="text-anchor: middle; font-size: 11px; font-family: sans-serif;">2</text></g><g class="tick" transform="translate(134.61463709676946,0)" style="opacity: 1;"><line y2="6" x2="0" style="fill: none; stroke: grey;"></line><text dy=".71em" y="9" x="0" style="text-anchor: middle; font-size: 11px; font-family: sans-serif;">3</text></g><g class="tick" transform="translate(179.48618279569263,0)" style="opacity: 1;"><line y2="6" x2="0" style="fill: none; stroke: grey;"></line><text dy=".71em" y="9" x="0" style="text-anchor: middle; font-size: 11px; font-family: sans-serif;">4</text></g><g class="tick" transform="translate(224.35772849461577,0)" style="opacity: 1;"><line y2="6" x2="0" style="fill: none; stroke: grey;"></line><text dy=".71em" y="9" x="0" style="text-anchor: middle; font-size: 11px; font-family: sans-serif;">5</text></g><g class="tick" transform="translate(269.2292741935389,0)" style="opacity: 1;"><line y2="6" x2="0" style="fill: none; stroke: grey;"></line><text dy=".71em" y="9" x="0" style="text-anchor: middle; font-size: 11px; font-family: sans-serif;">6</text></g><path class="domain" d="M0,6V0H300V6" style="fill: none; stroke: grey;"></path></g><g class="y axis"><g class="tick" transform="translate(0,300)" style="opacity: 1;"><line x2="-6" y2="0" style="fill: none; stroke: grey;"></line><text dy=".32em" x="-9" y="0" style="text-anchor: end; font-size: 11px; font-family: sans-serif;">0</text></g><g class="tick" transform="translate(0,267.1876089744467)" style="opacity: 1;"><line x2="-6" y2="0" style="fill: none; stroke: grey;"></line><text dy=".32em" x="-9" y="0" style="text-anchor: end; font-size: 11px; font-family: sans-serif;">2</text></g><g class="tick" transform="translate(0,234.37521794889332)" style="opacity: 1;"><line x2="-6" y2="0" style="fill: none; stroke: grey;"></line><text dy=".32em" x="-9" y="0" style="text-anchor: end; font-size: 11px; font-family: sans-serif;">4</text></g><g class="tick" transform="translate(0,201.56282692334)" style="opacity: 1;"><line x2="-6" y2="0" style="fill: none; stroke: grey;"></line><text dy=".32em" x="-9" y="0" style="text-anchor: end; font-size: 11px; font-family: sans-serif;">6</text></g><g class="tick" transform="translate(0,168.75043589778667)" style="opacity: 1;"><line x2="-6" y2="0" style="fill: none; stroke: grey;"></line><text dy=".32em" x="-9" y="0" style="text-anchor: end; font-size: 11px; font-family: sans-serif;">8</text></g><g class="tick" transform="translate(0,135.9380448722333)" style="opacity: 1;"><line x2="-6" y2="0" style="fill: none; stroke: grey;"></line><text dy=".32em" x="-9" y="0" style="text-anchor: end; font-size: 11px; font-family: sans-serif;">10</text></g><g class="tick" transform="translate(0,103.12565384667997)" style="opacity: 1;"><line x2="-6" y2="0" style="fill: none; stroke: grey;"></line><text dy=".32em" x="-9" y="0" style="text-anchor: end; font-size: 11px; font-family: sans-serif;">12</text></g><g class="tick" transform="translate(0,70.31326282112663)" style="opacity: 1;"><line x2="-6" y2="0" style="fill: none; stroke: grey;"></line><text dy=".32em" x="-9" y="0" style="text-anchor: end; font-size: 11px; font-family: sans-serif;">14</text></g><g class="tick" transform="translate(0,37.500871795573296)" style="opacity: 1;"><line x2="-6" y2="0" style="fill: none; stroke: grey;"></line><text dy=".32em" x="-9" y="0" style="text-anchor: end; font-size: 11px; font-family: sans-serif;">16</text></g><g class="tick" transform="translate(0,4.688480770019964)" style="opacity: 1;"><line x2="-6" y2="0" style="fill: none; stroke: grey;"></line><text dy=".32em" x="-9" y="0" style="text-anchor: end; font-size: 11px; font-family: sans-serif;">18</text></g><path class="domain" d="M-6,0H0V300H-6" style="fill: none; stroke: grey;"></path></g><line x1="0" x2="297.029702970297" y1="300" y2="191.39827246580407" style="stroke: red; stroke-dasharray: 3, 3;"></line><text text-anchor="middle" transform="translate(-35,150)rotate(-90)" style="font-family: sans-serif;">Observed -log10 P-value</text><text text-anchor="middle" transform="translate(150,335)" style="font-family: sans-serif;">Expected -log10 P-value</text></g></svg>