<svg width="642" height="195"><g transform="translate(217,40)"><rect class="bar" x="136.03104212860308" width="13.968957871396924" y="0" height="15" style="fill: rgb(255, 102, 102); stroke: grey; stroke-width: 0.3;"></rect><rect class="bar" x="141.88771568374966" width="8.112284316250339" y="15" height="15" style="fill: rgb(255, 102, 102); stroke: grey; stroke-width: 0.3;"></rect><rect class="bar" x="143.88111888111888" width="6.11888111888112" y="30" height="15" style="fill: rgb(255, 102, 102); stroke: grey; stroke-width: 0.3;"></rect><rect class="bar" x="145.10070767555797" width="4.89929232444203" y="45" height="15" style="fill: rgb(255, 102, 102); stroke: grey; stroke-width: 0.3;"></rect><rect class="bar" x="95.45454545454547" width="54.54545454545453" y="60" height="15" style="fill: rgb(255, 102, 102); stroke: grey; stroke-width: 0.3;"></rect><g class="x axis" transform="translate(0,75)"><g class="tick" transform="translate(130.9090909090909,0)" style="opacity: 1;"><line y2="6" x2="0" style="fill: none; stroke: grey;"></line><text dy=".71em" y="9" x="0" font-weight="normal" transform="translate(-10,3)rotate(-65)" style="text-anchor: end; font-size: 11px; font-family: sans-serif;">0.02</text></g><g class="tick" transform="translate(111.8181818181818,0)" style="opacity: 1;"><line y2="6" x2="0" style="fill: none; stroke: grey;"></line><text dy=".71em" y="9" x="0" font-weight="normal" transform="translate(-10,3)rotate(-65)" style="text-anchor: end; font-size: 11px; font-family: sans-serif;">0.04</text></g><g class="tick" transform="translate(92.72727272727272,0)" style="opacity: 1;"><line y2="6" x2="0" style="fill: none; stroke: grey;"></line><text dy=".71em" y="9" x="0" font-weight="normal" transform="translate(-10,3)rotate(-65)" style="text-anchor: end; font-size: 11px; font-family: sans-serif;">0.06</text></g><g class="tick" transform="translate(73.63636363636364,0)" style="opacity: 1;"><line y2="6" x2="0" style="fill: none; stroke: grey;"></line><text dy=".71em" y="9" x="0" font-weight="normal" transform="translate(-10,3)rotate(-65)" style="text-anchor: end; font-size: 11px; font-family: sans-serif;">0.08</text></g><g class="tick" transform="translate(54.54545454545454,0)" style="opacity: 1;"><line y2="6" x2="0" style="fill: none; stroke: grey;"></line><text dy=".71em" y="9" x="0" font-weight="normal" transform="translate(-10,3)rotate(-65)" style="text-anchor: end; font-size: 11px; font-family: sans-serif;">0.10</text></g><g class="tick" transform="translate(35.45454545454546,0)" style="opacity: 1;"><line y2="6" x2="0" style="fill: none; stroke: grey;"></line><text dy=".71em" y="9" x="0" font-weight="normal" transform="translate(-10,3)rotate(-65)" style="text-anchor: end; font-size: 11px; font-family: sans-serif;">0.12</text></g><g class="tick" transform="translate(16.36363636363635,0)" style="opacity: 1;"><line y2="6" x2="0" style="fill: none; stroke: grey;"></line><text dy=".71em" y="9" x="0" font-weight="normal" transform="translate(-10,3)rotate(-65)" style="text-anchor: end; font-size: 11px; font-family: sans-serif;">0.14</text></g><path class="domain" d="M0,6V0H150V6" style="fill: none; stroke: grey;"></path></g><rect class="bar" x="150" width="150" y="0" height="15" style="fill: rgb(77, 77, 255); stroke: grey; stroke-width: 0.3;"></rect><rect class="bar" x="150" width="106.49606987922897" y="15" height="15" style="fill: rgb(77, 77, 255); stroke: grey; stroke-width: 0.3;"></rect><rect class="bar" x="150" width="85.35366942733685" y="30" height="15" style="fill: rgb(77, 77, 255); stroke: grey; stroke-width: 0.3;"></rect><rect class="bar" x="150" width="68.530163727905" y="45" height="15" style="fill: rgb(77, 77, 255); stroke: grey; stroke-width: 0.3;"></rect><rect class="bar" x="150" width="53.654243731972" y="60" height="15" style="fill: rgb(77, 77, 255); stroke: grey; stroke-width: 0.3;"></rect><g class="x axis" transform="translate(0,75)"><g class="tick" transform="translate(150,0)" style="opacity: 1;"><line y2="6" x2="0" style="fill: none; stroke: grey;"></line><text dy=".71em" y="9" x="0" font-weight="normal" transform="translate(-10,3)rotate(-65)" style="text-anchor: end; font-size: 11px; font-family: sans-serif;">0.0</text></g><g class="tick" transform="translate(170.36688991400405,0)" style="opacity: 1;"><line y2="6" x2="0" style="fill: none; stroke: grey;"></line><text dy=".71em" y="9" x="0" font-weight="normal" transform="translate(-10,3)rotate(-65)" style="text-anchor: end; font-size: 11px; font-family: sans-serif;">0.5</text></g><g class="tick" transform="translate(190.7337798280081,0)" style="opacity: 1;"><line y2="6" x2="0" style="fill: none; stroke: grey;"></line><text dy=".71em" y="9" x="0" font-weight="normal" transform="translate(-10,3)rotate(-65)" style="text-anchor: end; font-size: 11px; font-family: sans-serif;">1.0</text></g><g class="tick" transform="translate(211.10066974201214,0)" style="opacity: 1;"><line y2="6" x2="0" style="fill: none; stroke: grey;"></line><text dy=".71em" y="9" x="0" font-weight="normal" transform="translate(-10,3)rotate(-65)" style="text-anchor: end; font-size: 11px; font-family: sans-serif;">1.5</text></g><g class="tick" transform="translate(231.4675596560162,0)" style="opacity: 1;"><line y2="6" x2="0" style="fill: none; stroke: grey;"></line><text dy=".71em" y="9" x="0" font-weight="normal" transform="translate(-10,3)rotate(-65)" style="text-anchor: end; font-size: 11px; font-family: sans-serif;">2.0</text></g><g class="tick" transform="translate(251.8344495700202,0)" style="opacity: 1;"><line y2="6" x2="0" style="fill: none; stroke: grey;"></line><text dy=".71em" y="9" x="0" font-weight="normal" transform="translate(-10,3)rotate(-65)" style="text-anchor: end; font-size: 11px; font-family: sans-serif;">2.5</text></g><g class="tick" transform="translate(272.2013394840243,0)" style="opacity: 1;"><line y2="6" x2="0" style="fill: none; stroke: grey;"></line><text dy=".71em" y="9" x="0" font-weight="normal" transform="translate(-10,3)rotate(-65)" style="text-anchor: end; font-size: 11px; font-family: sans-serif;">3.0</text></g><g class="tick" transform="translate(292.56822939802834,0)" style="opacity: 1;"><line y2="6" x2="0" style="fill: none; stroke: grey;"></line><text dy=".71em" y="9" x="0" font-weight="normal" transform="translate(-10,3)rotate(-65)" style="text-anchor: end; font-size: 11px; font-family: sans-serif;">3.5</text></g><path class="domain" d="M150,6V0H300V6" style="fill: none; stroke: grey;"></path></g><g class="y axis"><g class="tick" transform="translate(0,7.5)" style="opacity: 1;"><line x2="-6" y2="0" style="fill: none; stroke: grey;"></line><text dy=".32em" x="-9" y="0" style="text-anchor: end; font-size: 11px; font-family: sans-serif;">GO_MICROTUBULE</text></g><g class="tick" transform="translate(0,22.5)" style="opacity: 1;"><line x2="-6" y2="0" style="fill: none; stroke: grey;"></line><text dy=".32em" x="-9" y="0" style="text-anchor: end; font-size: 11px; font-family: sans-serif;">GO_POLYMERIC_CYTOSKELETAL_FIBER</text></g><g class="tick" transform="translate(0,37.5)" style="opacity: 1;"><line x2="-6" y2="0" style="fill: none; stroke: grey;"></line><text dy=".32em" x="-9" y="0" style="text-anchor: end; font-size: 11px; font-family: sans-serif;">GO_SUPRAMOLECULAR_COMPLEX</text></g><g class="tick" transform="translate(0,52.5)" style="opacity: 1;"><line x2="-6" y2="0" style="fill: none; stroke: grey;"></line><text dy=".32em" x="-9" y="0" style="text-anchor: end; font-size: 11px; font-family: sans-serif;">GO_MICROTUBULE_CYTOSKELETON</text></g><g class="tick" transform="translate(0,67.5)" style="opacity: 1;"><line x2="-6" y2="0" style="fill: none; stroke: grey;"></line><text dy=".32em" x="-9" y="0" style="text-anchor: end; font-size: 11px; font-family: sans-serif;">GO_DENDRITIC_SHAFT</text></g><path class="domain" d="M-6,0H0V75H-6" style="fill: none; stroke: grey;"></path></g><rect x="310" y="0" width="15" height="15" style="fill: rgb(255, 166, 74); stroke: grey; stroke-width: 0.3;"></rect><rect x="325" y="0" width="15" height="15" style="fill: rgb(255, 166, 74); stroke: grey; stroke-width: 0.3;"></rect><rect x="340" y="0" width="15" height="15" style="fill: rgb(255, 166, 74); stroke: grey; stroke-width: 0.3;"></rect><rect x="355" y="0" width="15" height="15" style="fill: rgb(255, 166, 74); stroke: grey; stroke-width: 0.3;"></rect><rect x="355" y="0" width="15" height="15" style="fill: rgb(255, 166, 74); stroke: grey; stroke-width: 0.3;"></rect><rect x="370" y="0" width="15" height="15" style="fill: rgb(255, 166, 74); stroke: grey; stroke-width: 0.3;"></rect><rect x="385" y="0" width="15" height="15" style="fill: rgb(255, 166, 74); stroke: grey; stroke-width: 0.3;"></rect><rect x="310" y="15" width="15" height="15" style="fill: rgb(255, 166, 74); stroke: grey; stroke-width: 0.3;"></rect><rect x="325" y="15" width="15" height="15" style="fill: rgb(255, 166, 74); stroke: grey; stroke-width: 0.3;"></rect><rect x="340" y="15" width="15" height="15" style="fill: rgb(255, 166, 74); stroke: grey; stroke-width: 0.3;"></rect><rect x="355" y="15" width="15" height="15" style="fill: rgb(255, 166, 74); stroke: grey; stroke-width: 0.3;"></rect><rect x="355" y="15" width="15" height="15" style="fill: rgb(255, 166, 74); stroke: grey; stroke-width: 0.3;"></rect><rect x="370" y="15" width="15" height="15" style="fill: rgb(255, 166, 74); stroke: grey; stroke-width: 0.3;"></rect><rect x="385" y="15" width="15" height="15" style="fill: rgb(255, 166, 74); stroke: grey; stroke-width: 0.3;"></rect><rect x="310" y="30" width="15" height="15" style="fill: rgb(255, 166, 74); stroke: grey; stroke-width: 0.3;"></rect><rect x="325" y="30" width="15" height="15" style="fill: rgb(255, 166, 74); stroke: grey; stroke-width: 0.3;"></rect><rect x="340" y="30" width="15" height="15" style="fill: rgb(255, 166, 74); stroke: grey; stroke-width: 0.3;"></rect><rect x="355" y="30" width="15" height="15" style="fill: rgb(255, 166, 74); stroke: grey; stroke-width: 0.3;"></rect><rect x="355" y="30" width="15" height="15" style="fill: rgb(255, 166, 74); stroke: grey; stroke-width: 0.3;"></rect><rect x="370" y="30" width="15" height="15" style="fill: rgb(255, 166, 74); stroke: grey; stroke-width: 0.3;"></rect><rect x="385" y="30" width="15" height="15" style="fill: rgb(255, 166, 74); stroke: grey; stroke-width: 0.3;"></rect><rect x="310" y="45" width="15" height="15" style="fill: rgb(255, 166, 74); stroke: grey; stroke-width: 0.3;"></rect><rect x="325" y="45" width="15" height="15" style="fill: rgb(255, 166, 74); stroke: grey; stroke-width: 0.3;"></rect><rect x="340" y="45" width="15" height="15" style="fill: rgb(255, 166, 74); stroke: grey; stroke-width: 0.3;"></rect><rect x="355" y="45" width="15" height="15" style="fill: rgb(255, 166, 74); stroke: grey; stroke-width: 0.3;"></rect><rect x="355" y="45" width="15" height="15" style="fill: rgb(255, 166, 74); stroke: grey; stroke-width: 0.3;"></rect><rect x="370" y="45" width="15" height="15" style="fill: rgb(255, 166, 74); stroke: grey; stroke-width: 0.3;"></rect><rect x="385" y="45" width="15" height="15" style="fill: rgb(255, 166, 74); stroke: grey; stroke-width: 0.3;"></rect><rect x="400" y="60" width="15" height="15" style="fill: rgb(255, 166, 74); stroke: grey; stroke-width: 0.3;"></rect><rect x="385" y="60" width="15" height="15" style="fill: rgb(255, 166, 74); stroke: grey; stroke-width: 0.3;"></rect><g class="y axis" transform="translate(310,0)"><g class="tick" transform="translate(0,7.5)" style="opacity: 1;"><line x2="-6" y2="0" style="fill: none; stroke: grey;"></line></g><g class="tick" transform="translate(0,22.5)" style="opacity: 1;"><line x2="-6" y2="0" style="fill: none; stroke: grey;"></line></g><g class="tick" transform="translate(0,37.5)" style="opacity: 1;"><line x2="-6" y2="0" style="fill: none; stroke: grey;"></line></g><g class="tick" transform="translate(0,52.5)" style="opacity: 1;"><line x2="-6" y2="0" style="fill: none; stroke: grey;"></line></g><g class="tick" transform="translate(0,67.5)" style="opacity: 1;"><line x2="-6" y2="0" style="fill: none; stroke: grey;"></line></g><path class="domain" d="M-6,0H0V75H-6" style="fill: none; stroke: grey;"></path></g><g class="x axis" transform="translate(0,75)"><g class="tick" transform="translate(317.5,0)" style="opacity: 1;"><line y2="6" x2="0" style="fill: none; stroke: grey;"></line><text dy=".71em" y="9" x="0" font-weight="normal" transform="translate(-10,3)rotate(-65)" style="text-anchor: end; font-size: 11px; font-family: sans-serif;">TUBA1B</text></g><g class="tick" transform="translate(332.5,0)" style="opacity: 1;"><line y2="6" x2="0" style="fill: none; stroke: grey;"></line><text dy=".71em" y="9" x="0" font-weight="normal" transform="translate(-10,3)rotate(-65)" style="text-anchor: end; font-size: 11px; font-family: sans-serif;">TUBA1A</text></g><g class="tick" transform="translate(347.5,0)" style="opacity: 1;"><line y2="6" x2="0" style="fill: none; stroke: grey;"></line><text dy=".71em" y="9" x="0" font-weight="normal" transform="translate(-10,3)rotate(-65)" style="text-anchor: end; font-size: 11px; font-family: sans-serif;">TUBA1C</text></g><g class="tick" transform="translate(362.5,0)" style="opacity: 1;"><line y2="6" x2="0" style="fill: none; stroke: grey;"></line><text dy=".71em" y="9" x="0" font-weight="normal" transform="translate(-10,3)rotate(-65)" style="text-anchor: end; font-size: 11px; font-family: sans-serif;">TUBB3</text></g><g class="tick" transform="translate(377.5,0)" style="opacity: 1;"><line y2="6" x2="0" style="fill: none; stroke: grey;"></line><text dy=".71em" y="9" x="0" font-weight="normal" transform="translate(-10,3)rotate(-65)" style="text-anchor: end; font-size: 11px; font-family: sans-serif;">MAPT</text></g><g class="tick" transform="translate(392.5,0)" style="opacity: 1;"><line y2="6" x2="0" style="fill: none; stroke: grey;"></line><text dy=".71em" y="9" x="0" font-weight="normal" transform="translate(-10,3)rotate(-65)" style="text-anchor: end; font-size: 11px; font-family: sans-serif;">MAP2</text></g><g class="tick" transform="translate(407.5,0)" style="opacity: 1;"><line y2="6" x2="0" style="fill: none; stroke: grey;"></line><text dy=".71em" y="9" x="0" font-weight="normal" transform="translate(-10,3)rotate(-65)" style="text-anchor: end; font-size: 11px; font-family: sans-serif;">NSF</text></g><path class="domain" d="M310,6V0H415V6" style="fill: none; stroke: grey;"></path></g><text text-anchor="middle" transform="translate(75,120)" font-size="12px" style="font-family: sans-serif;">Proportion</text><text text-anchor="middle" transform="translate(75,-26)" font-size="12px" style="font-family: sans-serif;">Proportion of overlapping</text><text text-anchor="middle" transform="translate(75,-14)" font-size="12px" style="font-family: sans-serif;">genes in gene sets</text><text text-anchor="middle" transform="translate(225,120)" font-size="12px" style="font-family: sans-serif;">-log10 adjusted P-value</text><text text-anchor="middle" transform="translate(225,-20)" font-size="12px" style="font-family: sans-serif;">Enrichment P-value</text><text text-anchor="middle" transform="translate(362.5,-20)" font-size="12px" style="font-family: sans-serif;">overlapping genes</text></g></svg>