<svg width="560" height="600"><g transform="translate(80,30)"><g><text transform="translate(15,480)rotate(-70)" style="text-anchor: end; font-size: 11px; font-family: sans-serif;">Adipose_Tissue</text><text transform="translate(210,480)rotate(-70)" style="text-anchor: end; font-size: 11px; font-family: sans-serif;">Adrenal_Gland</text><text transform="translate(315,480)rotate(-70)" style="text-anchor: end; font-size: 11px; font-family: sans-serif;">Bladder</text><text transform="translate(435,480)rotate(-70)" style="text-anchor: end; font-size: 11px; font-family: sans-serif;">Blood</text><text transform="translate(375,480)rotate(-70)" style="text-anchor: end; font-size: 11px; font-family: sans-serif;">Blood_Vessel</text><text transform="translate(105,480)rotate(-70)" style="text-anchor: end; font-size: 11px; font-family: sans-serif;">Brain</text><text transform="translate(270,480)rotate(-70)" style="text-anchor: end; font-size: 11px; font-family: sans-serif;">Breast</text><text transform="translate(300,480)rotate(-70)" style="text-anchor: end; font-size: 11px; font-family: sans-serif;">Cervix_Uteri</text><text transform="translate(255,480)rotate(-70)" style="text-anchor: end; font-size: 11px; font-family: sans-serif;">Colon</text><text transform="translate(75,480)rotate(-70)" style="text-anchor: end; font-size: 11px; font-family: sans-serif;">Esophagus</text><text transform="translate(450,480)rotate(-70)" style="text-anchor: end; font-size: 11px; font-family: sans-serif;">Fallopian_Tube</text><text transform="translate(150,480)rotate(-70)" style="text-anchor: end; font-size: 11px; font-family: sans-serif;">Heart</text><text transform="translate(345,480)rotate(-70)" style="text-anchor: end; font-size: 11px; font-family: sans-serif;">Kidney</text><text transform="translate(30,480)rotate(-70)" style="text-anchor: end; font-size: 11px; font-family: sans-serif;">Liver</text><text transform="translate(330,480)rotate(-70)" style="text-anchor: end; font-size: 11px; font-family: sans-serif;">Lung</text><text transform="translate(180,480)rotate(-70)" style="text-anchor: end; font-size: 11px; font-family: sans-serif;">Muscle</text><text transform="translate(285,480)rotate(-70)" style="text-anchor: end; font-size: 11px; font-family: sans-serif;">Nerve</text><text transform="translate(135,480)rotate(-70)" style="text-anchor: end; font-size: 11px; font-family: sans-serif;">Ovary</text><text transform="translate(45,480)rotate(-70)" style="text-anchor: end; font-size: 11px; font-family: sans-serif;">Pancreas</text><text transform="translate(60,480)rotate(-70)" style="text-anchor: end; font-size: 11px; font-family: sans-serif;">Pituitary</text><text transform="translate(360,480)rotate(-70)" style="text-anchor: end; font-size: 11px; font-family: sans-serif;">Prostate</text><text transform="translate(420,480)rotate(-70)" style="text-anchor: end; font-size: 11px; font-family: sans-serif;">Salivary_Gland</text><text transform="translate(240,480)rotate(-70)" style="text-anchor: end; font-size: 11px; font-family: sans-serif;">Skin</text><text transform="translate(165,480)rotate(-70)" style="text-anchor: end; font-size: 11px; font-family: sans-serif;">Small_Intestine</text><text transform="translate(390,480)rotate(-70)" style="text-anchor: end; font-size: 11px; font-family: sans-serif;">Spleen</text><text transform="translate(195,480)rotate(-70)" style="text-anchor: end; font-size: 11px; font-family: sans-serif;">Stomach</text><text transform="translate(225,480)rotate(-70)" style="text-anchor: end; font-size: 11px; font-family: sans-serif;">Testis</text><text transform="translate(405,480)rotate(-70)" style="text-anchor: end; font-size: 11px; font-family: sans-serif;">Thyroid</text><text transform="translate(90,480)rotate(-70)" style="text-anchor: end; font-size: 11px; font-family: sans-serif;">Uterus</text><text transform="translate(120,480)rotate(-70)" style="text-anchor: end; font-size: 11px; font-family: sans-serif;">Vagina</text></g><rect class="bar" x="0" width="14" y="145.09548548585798" height="4.904514514142022" style="fill: rgb(86, 104, 244); stroke: grey; stroke-width: 0.3;"></rect><rect class="bar" x="195" width="14" y="150" height="0" style="fill: rgb(86, 104, 244); stroke: grey; stroke-width: 0.3;"></rect><rect class="bar" x="300" width="14" y="150" height="0" style="fill: rgb(86, 104, 244); stroke: grey; stroke-width: 0.3;"></rect><rect class="bar" x="420" width="14" y="146.49388052190034" height="3.506119478099663" style="fill: rgb(86, 104, 244); stroke: grey; stroke-width: 0.3;"></rect><rect class="bar" x="360" width="14" y="140.65251561670638" height="9.347484383293619" style="fill: rgb(86, 104, 244); stroke: grey; stroke-width: 0.3;"></rect><rect class="bar" x="90" width="14" y="103.35401762194897" height="46.64598237805103" style="fill: rgb(86, 104, 244); stroke: grey; stroke-width: 0.3;"></rect><rect class="bar" x="255" width="14" y="150" height="0" style="fill: rgb(86, 104, 244); stroke: grey; stroke-width: 0.3;"></rect><rect class="bar" x="285" width="14" y="142.53433315517884" height="7.465666844821158" style="fill: rgb(86, 104, 244); stroke: grey; stroke-width: 0.3;"></rect><rect class="bar" x="240" width="14" y="129.13853122398308" height="20.86146877601692" style="fill: rgb(86, 104, 244); stroke: grey; stroke-width: 0.3;"></rect><rect class="bar" x="60" width="14" y="123.29707710582665" height="26.702922894173355" style="fill: rgb(86, 104, 244); stroke: grey; stroke-width: 0.3;"></rect><rect class="bar" x="435" width="14" y="150" height="0" style="fill: rgb(86, 104, 244); stroke: grey; stroke-width: 0.3;"></rect><rect class="bar" x="135" width="14" y="150" height="0" style="fill: rgb(86, 104, 244); stroke: grey; stroke-width: 0.3;"></rect><rect class="bar" x="330" width="14" y="150" height="0" style="fill: rgb(86, 104, 244); stroke: grey; stroke-width: 0.3;"></rect><rect class="bar" x="15" width="14" y="143.01892929842163" height="6.981070701578375" style="fill: rgb(86, 104, 244); stroke: grey; stroke-width: 0.3;"></rect><rect class="bar" x="315" width="14" y="149.36249354635655" height="0.6375064536434536" style="fill: rgb(86, 104, 244); stroke: grey; stroke-width: 0.3;"></rect><rect class="bar" x="165" width="14" y="139.73788583472586" height="10.262114165274141" style="fill: rgb(86, 104, 244); stroke: grey; stroke-width: 0.3;"></rect><rect class="bar" x="270" width="14" y="149.04431869047053" height="0.9556813095294672" style="fill: rgb(86, 104, 244); stroke: grey; stroke-width: 0.3;"></rect><rect class="bar" x="120" width="14" y="141.4622319838168" height="8.537768016183207" style="fill: rgb(86, 104, 244); stroke: grey; stroke-width: 0.3;"></rect><rect class="bar" x="30" width="14" y="150" height="0" style="fill: rgb(86, 104, 244); stroke: grey; stroke-width: 0.3;"></rect><rect class="bar" x="45" width="14" y="101.66395625225736" height="48.336043747742636" style="fill: rgb(86, 104, 244); stroke: grey; stroke-width: 0.3;"></rect><rect class="bar" x="345" width="14" y="148.5737045351485" height="1.4262954648515063" style="fill: rgb(86, 104, 244); stroke: grey; stroke-width: 0.3;"></rect><rect class="bar" x="405" width="14" y="133.5272163643299" height="16.472783635670112" style="fill: rgb(86, 104, 244); stroke: grey; stroke-width: 0.3;"></rect><rect class="bar" x="225" width="14" y="133.54637182239335" height="16.453628177606646" style="fill: rgb(86, 104, 244); stroke: grey; stroke-width: 0.3;"></rect><rect class="bar" x="150" width="14" y="129.86421541114714" height="20.135784588852857" style="fill: rgb(86, 104, 244); stroke: grey; stroke-width: 0.3;"></rect><rect class="bar" x="375" width="14" y="146.92414425536705" height="3.075855744632946" style="fill: rgb(86, 104, 244); stroke: grey; stroke-width: 0.3;"></rect><rect class="bar" x="180" width="14" y="139.37235845395932" height="10.627641546040678" style="fill: rgb(86, 104, 244); stroke: grey; stroke-width: 0.3;"></rect><rect class="bar" x="210" width="14" y="134.56501155722827" height="15.434988442771726" style="fill: rgb(86, 104, 244); stroke: grey; stroke-width: 0.3;"></rect><rect class="bar" x="390" width="14" y="146.3667305924612" height="3.6332694075387906" style="fill: rgb(86, 104, 244); stroke: grey; stroke-width: 0.3;"></rect><rect class="bar" x="75" width="14" y="146.05641566973014" height="3.943584330269857" style="fill: rgb(86, 104, 244); stroke: grey; stroke-width: 0.3;"></rect><rect class="bar" x="105" width="14" y="130.74333053412553" height="19.256669465874467" style="fill: rgb(86, 104, 244); stroke: grey; stroke-width: 0.3;"></rect><g class="y axis"><g class="tick" transform="translate(0,150)" style="opacity: 1;"><line x2="-6" y2="0" style="fill: none; stroke: grey;"></line><text dy=".32em" x="-9" y="0" style="text-anchor: end; font-size: 11px; font-family: sans-serif;">0</text></g><g class="tick" transform="translate(0,106.88479019488467)" style="opacity: 1;"><line x2="-6" y2="0" style="fill: none; stroke: grey;"></line><text dy=".32em" x="-9" y="0" style="text-anchor: end; font-size: 11px; font-family: sans-serif;">1</text></g><g class="tick" transform="translate(0,63.76958038976936)" style="opacity: 1;"><line x2="-6" y2="0" style="fill: none; stroke: grey;"></line><text dy=".32em" x="-9" y="0" style="text-anchor: end; font-size: 11px; font-family: sans-serif;">2</text></g><g class="tick" transform="translate(0,20.654370584654032)" style="opacity: 1;"><line x2="-6" y2="0" style="fill: none; stroke: grey;"></line><text dy=".32em" x="-9" y="0" style="text-anchor: end; font-size: 11px; font-family: sans-serif;">3</text></g><path class="domain" d="M-6,0H0V150H-6" style="fill: none; stroke: grey;"></path></g><g class="x axis" transform="translate(0,150)"><g class="tick" transform="translate(7.5,0)" style="opacity: 1;"><line y2="6" x2="0" style="fill: none; stroke: grey;"></line></g><g class="tick" transform="translate(22.5,0)" style="opacity: 1;"><line y2="6" x2="0" style="fill: none; stroke: grey;"></line></g><g class="tick" transform="translate(37.5,0)" style="opacity: 1;"><line y2="6" x2="0" style="fill: none; stroke: grey;"></line></g><g class="tick" transform="translate(52.5,0)" style="opacity: 1;"><line y2="6" x2="0" style="fill: none; stroke: grey;"></line></g><g class="tick" transform="translate(67.5,0)" style="opacity: 1;"><line y2="6" x2="0" style="fill: none; stroke: grey;"></line></g><g class="tick" transform="translate(82.5,0)" style="opacity: 1;"><line y2="6" x2="0" style="fill: none; stroke: grey;"></line></g><g class="tick" transform="translate(97.5,0)" style="opacity: 1;"><line y2="6" x2="0" style="fill: none; stroke: grey;"></line></g><g class="tick" transform="translate(112.5,0)" style="opacity: 1;"><line y2="6" x2="0" style="fill: none; stroke: grey;"></line></g><g class="tick" transform="translate(127.5,0)" style="opacity: 1;"><line y2="6" x2="0" style="fill: none; stroke: grey;"></line></g><g class="tick" transform="translate(142.5,0)" style="opacity: 1;"><line y2="6" x2="0" style="fill: none; stroke: grey;"></line></g><g class="tick" transform="translate(157.5,0)" style="opacity: 1;"><line y2="6" x2="0" style="fill: none; stroke: grey;"></line></g><g class="tick" transform="translate(172.5,0)" style="opacity: 1;"><line y2="6" x2="0" style="fill: none; stroke: grey;"></line></g><g class="tick" transform="translate(187.5,0)" style="opacity: 1;"><line y2="6" x2="0" style="fill: none; stroke: grey;"></line></g><g class="tick" transform="translate(202.5,0)" style="opacity: 1;"><line y2="6" x2="0" style="fill: none; stroke: grey;"></line></g><g class="tick" transform="translate(217.5,0)" style="opacity: 1;"><line y2="6" x2="0" style="fill: none; stroke: grey;"></line></g><g class="tick" transform="translate(232.5,0)" style="opacity: 1;"><line y2="6" x2="0" style="fill: none; stroke: grey;"></line></g><g class="tick" transform="translate(247.5,0)" style="opacity: 1;"><line y2="6" x2="0" style="fill: none; stroke: grey;"></line></g><g class="tick" transform="translate(262.5,0)" style="opacity: 1;"><line y2="6" x2="0" style="fill: none; stroke: grey;"></line></g><g class="tick" transform="translate(277.5,0)" style="opacity: 1;"><line y2="6" x2="0" style="fill: none; stroke: grey;"></line></g><g class="tick" transform="translate(292.5,0)" style="opacity: 1;"><line y2="6" x2="0" style="fill: none; stroke: grey;"></line></g><g class="tick" transform="translate(307.5,0)" style="opacity: 1;"><line y2="6" x2="0" style="fill: none; stroke: grey;"></line></g><g class="tick" transform="translate(322.5,0)" style="opacity: 1;"><line y2="6" x2="0" style="fill: none; stroke: grey;"></line></g><g class="tick" transform="translate(337.5,0)" style="opacity: 1;"><line y2="6" x2="0" style="fill: none; stroke: grey;"></line></g><g class="tick" transform="translate(352.5,0)" style="opacity: 1;"><line y2="6" x2="0" style="fill: none; stroke: grey;"></line></g><g class="tick" transform="translate(367.5,0)" style="opacity: 1;"><line y2="6" x2="0" style="fill: none; stroke: grey;"></line></g><g class="tick" transform="translate(382.5,0)" style="opacity: 1;"><line y2="6" x2="0" style="fill: none; stroke: grey;"></line></g><g class="tick" transform="translate(397.5,0)" style="opacity: 1;"><line y2="6" x2="0" style="fill: none; stroke: grey;"></line></g><g class="tick" transform="translate(412.5,0)" style="opacity: 1;"><line y2="6" x2="0" style="fill: none; stroke: grey;"></line></g><g class="tick" transform="translate(427.5,0)" style="opacity: 1;"><line y2="6" x2="0" style="fill: none; stroke: grey;"></line></g><g class="tick" transform="translate(442.5,0)" style="opacity: 1;"><line y2="6" x2="0" style="fill: none; stroke: grey;"></line></g><path class="domain" d="M0,6V0H450V6" style="fill: none; stroke: grey;"></path></g><text text-anchor="middle" transform="translate(465,75)rotate(90)" style="font-family: sans-serif;">Up-regulated DEG</text><rect class="bar" x="0" width="14" y="178.25150986638263" height="131.74849013361737" style="fill: rgb(204, 0, 0); stroke: grey; stroke-width: 0.3;"></rect><rect class="bar" x="195" width="14" y="268.3916863127952" height="41.60831368720483" style="fill: rgb(86, 104, 244); stroke: grey; stroke-width: 0.3;"></rect><rect class="bar" x="300" width="14" y="261.49183727789347" height="48.50816272210653" style="fill: rgb(86, 104, 244); stroke: grey; stroke-width: 0.3;"></rect><rect class="bar" x="420" width="14" y="309.2406942594879" height="0.7593057405121044" style="fill: rgb(86, 104, 244); stroke: grey; stroke-width: 0.3;"></rect><rect class="bar" x="360" width="14" y="304.13057704711827" height="5.8694229528817345" style="fill: rgb(86, 104, 244); stroke: grey; stroke-width: 0.3;"></rect><rect class="bar" x="90" width="14" y="292.7249304668003" height="17.275069533199712" style="fill: rgb(86, 104, 244); stroke: grey; stroke-width: 0.3;"></rect><rect class="bar" x="255" width="14" y="248.3466577473176" height="61.65334225268239" style="fill: rgb(86, 104, 244); stroke: grey; stroke-width: 0.3;"></rect><rect class="bar" x="285" width="14" y="246.82271740753026" height="63.17728259246974" style="fill: rgb(86, 104, 244); stroke: grey; stroke-width: 0.3;"></rect><rect class="bar" x="240" width="14" y="301.94969152888063" height="8.050308471119365" style="fill: rgb(86, 104, 244); stroke: grey; stroke-width: 0.3;"></rect><rect class="bar" x="60" width="14" y="271.34134826617594" height="38.65865173382406" style="fill: rgb(86, 104, 244); stroke: grey; stroke-width: 0.3;"></rect><rect class="bar" x="435" width="14" y="310" height="0" style="fill: rgb(86, 104, 244); stroke: grey; stroke-width: 0.3;"></rect><rect class="bar" x="135" width="14" y="271.58972718406187" height="38.41027281593813" style="fill: rgb(86, 104, 244); stroke: grey; stroke-width: 0.3;"></rect><rect class="bar" x="330" width="14" y="291.67328043114" height="18.326719568860028" style="fill: rgb(86, 104, 244); stroke: grey; stroke-width: 0.3;"></rect><rect class="bar" x="15" width="14" y="236.3918972627174" height="73.6081027372826" style="fill: rgb(86, 104, 244); stroke: grey; stroke-width: 0.3;"></rect><rect class="bar" x="315" width="14" y="243.5734746900672" height="66.4265253099328" style="fill: rgb(86, 104, 244); stroke: grey; stroke-width: 0.3;"></rect><rect class="bar" x="165" width="14" y="283.0042303982584" height="26.995769601741586" style="fill: rgb(86, 104, 244); stroke: grey; stroke-width: 0.3;"></rect><rect class="bar" x="270" width="14" y="207.27466819291192" height="102.72533180708808" style="fill: rgb(86, 104, 244); stroke: grey; stroke-width: 0.3;"></rect><rect class="bar" x="120" width="14" y="240.95775476373342" height="69.04224523626658" style="fill: rgb(86, 104, 244); stroke: grey; stroke-width: 0.3;"></rect><rect class="bar" x="30" width="14" y="243.48839808053566" height="66.51160191946434" style="fill: rgb(86, 104, 244); stroke: grey; stroke-width: 0.3;"></rect><rect class="bar" x="45" width="14" y="293.97446324670136" height="16.02553675329864" style="fill: rgb(86, 104, 244); stroke: grey; stroke-width: 0.3;"></rect><rect class="bar" x="345" width="14" y="267.6645966317068" height="42.335403368293214" style="fill: rgb(86, 104, 244); stroke: grey; stroke-width: 0.3;"></rect><rect class="bar" x="405" width="14" y="310" height="0" style="fill: rgb(86, 104, 244); stroke: grey; stroke-width: 0.3;"></rect><rect class="bar" x="225" width="14" y="296.25093181779533" height="13.749068182204667" style="fill: rgb(86, 104, 244); stroke: grey; stroke-width: 0.3;"></rect><rect class="bar" x="150" width="14" y="285.7339871744303" height="24.266012825569703" style="fill: rgb(86, 104, 244); stroke: grey; stroke-width: 0.3;"></rect><rect class="bar" x="375" width="14" y="295.4867276036587" height="14.513272396341279" style="fill: rgb(86, 104, 244); stroke: grey; stroke-width: 0.3;"></rect><rect class="bar" x="180" width="14" y="287.87389218150224" height="22.126107818497758" style="fill: rgb(86, 104, 244); stroke: grey; stroke-width: 0.3;"></rect><rect class="bar" x="210" width="14" y="291.6766262910319" height="18.32337370896812" style="fill: rgb(86, 104, 244); stroke: grey; stroke-width: 0.3;"></rect><rect class="bar" x="390" width="14" y="298.60178465614416" height="11.398215343855838" style="fill: rgb(86, 104, 244); stroke: grey; stroke-width: 0.3;"></rect><rect class="bar" x="75" width="14" y="160" height="150" style="fill: rgb(204, 0, 0); stroke: grey; stroke-width: 0.3;"></rect><rect class="bar" x="105" width="14" y="263.32729284929263" height="46.67270715070737" style="fill: rgb(86, 104, 244); stroke: grey; stroke-width: 0.3;"></rect><g class="y axis"><g class="tick" transform="translate(0,310)" style="opacity: 1;"><line x2="-6" y2="0" style="fill: none; stroke: grey;"></line><text dy=".32em" x="-9" y="0" style="text-anchor: end; font-family: sans-serif;">0</text></g><g class="tick" transform="translate(0,266.88479019488466)" style="opacity: 1;"><line x2="-6" y2="0" style="fill: none; stroke: grey;"></line><text dy=".32em" x="-9" y="0" style="text-anchor: end; font-family: sans-serif;">1</text></g><g class="tick" transform="translate(0,223.76958038976937)" style="opacity: 1;"><line x2="-6" y2="0" style="fill: none; stroke: grey;"></line><text dy=".32em" x="-9" y="0" style="text-anchor: end; font-family: sans-serif;">2</text></g><g class="tick" transform="translate(0,180.65437058465403)" style="opacity: 1;"><line x2="-6" y2="0" style="fill: none; stroke: grey;"></line><text dy=".32em" x="-9" y="0" style="text-anchor: end; font-family: sans-serif;">3</text></g><path class="domain" d="M-6,160H0V310H-6" style="fill: none; stroke: grey;"></path></g><g class="x axis" transform="translate(0, 310)"><g class="tick" transform="translate(7.5,0)" style="opacity: 1;"><line y2="6" x2="0" style="fill: none; stroke: grey;"></line></g><g class="tick" transform="translate(22.5,0)" style="opacity: 1;"><line y2="6" x2="0" style="fill: none; stroke: grey;"></line></g><g class="tick" transform="translate(37.5,0)" style="opacity: 1;"><line y2="6" x2="0" style="fill: none; stroke: grey;"></line></g><g class="tick" transform="translate(52.5,0)" style="opacity: 1;"><line y2="6" x2="0" style="fill: none; stroke: grey;"></line></g><g class="tick" transform="translate(67.5,0)" style="opacity: 1;"><line y2="6" x2="0" style="fill: none; stroke: grey;"></line></g><g class="tick" transform="translate(82.5,0)" style="opacity: 1;"><line y2="6" x2="0" style="fill: none; stroke: grey;"></line></g><g class="tick" transform="translate(97.5,0)" style="opacity: 1;"><line y2="6" x2="0" style="fill: none; stroke: grey;"></line></g><g class="tick" transform="translate(112.5,0)" style="opacity: 1;"><line y2="6" x2="0" style="fill: none; stroke: grey;"></line></g><g class="tick" transform="translate(127.5,0)" style="opacity: 1;"><line y2="6" x2="0" style="fill: none; stroke: grey;"></line></g><g class="tick" transform="translate(142.5,0)" style="opacity: 1;"><line y2="6" x2="0" style="fill: none; stroke: grey;"></line></g><g class="tick" transform="translate(157.5,0)" style="opacity: 1;"><line y2="6" x2="0" style="fill: none; stroke: grey;"></line></g><g class="tick" transform="translate(172.5,0)" style="opacity: 1;"><line y2="6" x2="0" style="fill: none; stroke: grey;"></line></g><g class="tick" transform="translate(187.5,0)" style="opacity: 1;"><line y2="6" x2="0" style="fill: none; stroke: grey;"></line></g><g class="tick" transform="translate(202.5,0)" style="opacity: 1;"><line y2="6" x2="0" style="fill: none; stroke: grey;"></line></g><g class="tick" transform="translate(217.5,0)" style="opacity: 1;"><line y2="6" x2="0" style="fill: none; stroke: grey;"></line></g><g class="tick" transform="translate(232.5,0)" style="opacity: 1;"><line y2="6" x2="0" style="fill: none; stroke: grey;"></line></g><g class="tick" transform="translate(247.5,0)" style="opacity: 1;"><line y2="6" x2="0" style="fill: none; stroke: grey;"></line></g><g class="tick" transform="translate(262.5,0)" style="opacity: 1;"><line y2="6" x2="0" style="fill: none; stroke: grey;"></line></g><g class="tick" transform="translate(277.5,0)" style="opacity: 1;"><line y2="6" x2="0" style="fill: none; stroke: grey;"></line></g><g class="tick" transform="translate(292.5,0)" style="opacity: 1;"><line y2="6" x2="0" style="fill: none; stroke: grey;"></line></g><g class="tick" transform="translate(307.5,0)" style="opacity: 1;"><line y2="6" x2="0" style="fill: none; stroke: grey;"></line></g><g class="tick" transform="translate(322.5,0)" style="opacity: 1;"><line y2="6" x2="0" style="fill: none; stroke: grey;"></line></g><g class="tick" transform="translate(337.5,0)" style="opacity: 1;"><line y2="6" x2="0" style="fill: none; stroke: grey;"></line></g><g class="tick" transform="translate(352.5,0)" style="opacity: 1;"><line y2="6" x2="0" style="fill: none; stroke: grey;"></line></g><g class="tick" transform="translate(367.5,0)" style="opacity: 1;"><line y2="6" x2="0" style="fill: none; stroke: grey;"></line></g><g class="tick" transform="translate(382.5,0)" style="opacity: 1;"><line y2="6" x2="0" style="fill: none; stroke: grey;"></line></g><g class="tick" transform="translate(397.5,0)" style="opacity: 1;"><line y2="6" x2="0" style="fill: none; stroke: grey;"></line></g><g class="tick" transform="translate(412.5,0)" style="opacity: 1;"><line y2="6" x2="0" style="fill: none; stroke: grey;"></line></g><g class="tick" transform="translate(427.5,0)" style="opacity: 1;"><line y2="6" x2="0" style="fill: none; stroke: grey;"></line></g><g class="tick" transform="translate(442.5,0)" style="opacity: 1;"><line y2="6" x2="0" style="fill: none; stroke: grey;"></line></g><path class="domain" d="M0,6V0H450V6" style="fill: none; stroke: grey;"></path></g><text text-anchor="middle" transform="translate(465,235)rotate(90)" style="font-family: sans-serif;">Down-regulated DEG</text><rect class="bar" x="0" width="14" y="386.12465181420157" height="83.87534818579843" style="fill: rgb(86, 104, 244); stroke: grey; stroke-width: 0.3;"></rect><rect class="bar" x="195" width="14" y="448.3097288058224" height="21.690271194177626" style="fill: rgb(86, 104, 244); stroke: grey; stroke-width: 0.3;"></rect><rect class="bar" x="300" width="14" y="457.39270750138775" height="12.607292498612253" style="fill: rgb(86, 104, 244); stroke: grey; stroke-width: 0.3;"></rect><rect class="bar" x="420" width="14" y="469.45078618884935" height="0.5492138111506506" style="fill: rgb(86, 104, 244); stroke: grey; stroke-width: 0.3;"></rect><rect class="bar" x="360" width="14" y="462.1085273458435" height="7.891472654156473" style="fill: rgb(86, 104, 244); stroke: grey; stroke-width: 0.3;"></rect><rect class="bar" x="90" width="14" y="424.19298804021946" height="45.80701195978054" style="fill: rgb(86, 104, 244); stroke: grey; stroke-width: 0.3;"></rect><rect class="bar" x="255" width="14" y="452.02846229612516" height="17.971537703874844" style="fill: rgb(86, 104, 244); stroke: grey; stroke-width: 0.3;"></rect><rect class="bar" x="285" width="14" y="452.9362324783204" height="17.06376752167961" style="fill: rgb(86, 104, 244); stroke: grey; stroke-width: 0.3;"></rect><rect class="bar" x="240" width="14" y="451.84307702094236" height="18.15692297905764" style="fill: rgb(86, 104, 244); stroke: grey; stroke-width: 0.3;"></rect><rect class="bar" x="60" width="14" y="417.71493102520856" height="52.28506897479144" style="fill: rgb(86, 104, 244); stroke: grey; stroke-width: 0.3;"></rect><rect class="bar" x="435" width="14" y="470" height="0" style="fill: rgb(86, 104, 244); stroke: grey; stroke-width: 0.3;"></rect><rect class="bar" x="135" width="14" y="437.72788866028736" height="32.27211133971264" style="fill: rgb(86, 104, 244); stroke: grey; stroke-width: 0.3;"></rect><rect class="bar" x="330" width="14" y="460.0586466174726" height="9.941353382527382" style="fill: rgb(86, 104, 244); stroke: grey; stroke-width: 0.3;"></rect><rect class="bar" x="15" width="14" y="402.3850656980514" height="67.61493430194861" style="fill: rgb(86, 104, 244); stroke: grey; stroke-width: 0.3;"></rect><rect class="bar" x="315" width="14" y="458.75588692225455" height="11.244113077745453" style="fill: rgb(86, 104, 244); stroke: grey; stroke-width: 0.3;"></rect><rect class="bar" x="165" width="14" y="442.23499347089967" height="27.765006529100333" style="fill: rgb(86, 104, 244); stroke: grey; stroke-width: 0.3;"></rect><rect class="bar" x="270" width="14" y="452.5313426511371" height="17.468657348862905" style="fill: rgb(86, 104, 244); stroke: grey; stroke-width: 0.3;"></rect><rect class="bar" x="120" width="14" y="434.1373302304571" height="35.86266976954289" style="fill: rgb(86, 104, 244); stroke: grey; stroke-width: 0.3;"></rect><rect class="bar" x="30" width="14" y="413.9915326855544" height="56.008467314445625" style="fill: rgb(86, 104, 244); stroke: grey; stroke-width: 0.3;"></rect><rect class="bar" x="45" width="14" y="417.53564264403764" height="52.46435735596236" style="fill: rgb(86, 104, 244); stroke: grey; stroke-width: 0.3;"></rect><rect class="bar" x="345" width="14" y="460.3527727690129" height="9.647227230987085" style="fill: rgb(86, 104, 244); stroke: grey; stroke-width: 0.3;"></rect><rect class="bar" x="405" width="14" y="465.51816629122624" height="4.481833708773763" style="fill: rgb(86, 104, 244); stroke: grey; stroke-width: 0.3;"></rect><rect class="bar" x="225" width="14" y="450.51398486542143" height="19.486015134578565" style="fill: rgb(86, 104, 244); stroke: grey; stroke-width: 0.3;"></rect><rect class="bar" x="150" width="14" y="438.67686254426206" height="31.323137455737935" style="fill: rgb(86, 104, 244); stroke: grey; stroke-width: 0.3;"></rect><rect class="bar" x="375" width="14" y="463.9973739131317" height="6.002626086868304" style="fill: rgb(86, 104, 244); stroke: grey; stroke-width: 0.3;"></rect><rect class="bar" x="180" width="14" y="447.2141019573637" height="22.78589804263629" style="fill: rgb(86, 104, 244); stroke: grey; stroke-width: 0.3;"></rect><rect class="bar" x="210" width="14" y="448.4716502437534" height="21.528349756246598" style="fill: rgb(86, 104, 244); stroke: grey; stroke-width: 0.3;"></rect><rect class="bar" x="390" width="14" y="465.1219069566448" height="4.878093043355193" style="fill: rgb(86, 104, 244); stroke: grey; stroke-width: 0.3;"></rect><rect class="bar" x="75" width="14" y="423.8364334826514" height="46.16356651734861" style="fill: rgb(86, 104, 244); stroke: grey; stroke-width: 0.3;"></rect><rect class="bar" x="105" width="14" y="428.7572045475257" height="41.2427954524743" style="fill: rgb(86, 104, 244); stroke: grey; stroke-width: 0.3;"></rect><text text-anchor="middle" transform="translate(465,395)rotate(90)" style="font-family: sans-serif;">DEG (both side)</text><g class="x axis" transform="translate(0,470)"><g class="tick" transform="translate(7.5,0)" style="opacity: 1;"><line y2="6" x2="0" style="fill: none; stroke: grey;"></line></g><g class="tick" transform="translate(22.5,0)" style="opacity: 1;"><line y2="6" x2="0" style="fill: none; stroke: grey;"></line></g><g class="tick" transform="translate(37.5,0)" style="opacity: 1;"><line y2="6" x2="0" style="fill: none; stroke: grey;"></line></g><g class="tick" transform="translate(52.5,0)" style="opacity: 1;"><line y2="6" x2="0" style="fill: none; stroke: grey;"></line></g><g class="tick" transform="translate(67.5,0)" style="opacity: 1;"><line y2="6" x2="0" style="fill: none; stroke: grey;"></line></g><g class="tick" transform="translate(82.5,0)" style="opacity: 1;"><line y2="6" x2="0" style="fill: none; stroke: grey;"></line></g><g class="tick" transform="translate(97.5,0)" style="opacity: 1;"><line y2="6" x2="0" style="fill: none; stroke: grey;"></line></g><g class="tick" transform="translate(112.5,0)" style="opacity: 1;"><line y2="6" x2="0" style="fill: none; stroke: grey;"></line></g><g class="tick" transform="translate(127.5,0)" style="opacity: 1;"><line y2="6" x2="0" style="fill: none; stroke: grey;"></line></g><g class="tick" transform="translate(142.5,0)" style="opacity: 1;"><line y2="6" x2="0" style="fill: none; stroke: grey;"></line></g><g class="tick" transform="translate(157.5,0)" style="opacity: 1;"><line y2="6" x2="0" style="fill: none; stroke: grey;"></line></g><g class="tick" transform="translate(172.5,0)" style="opacity: 1;"><line y2="6" x2="0" style="fill: none; stroke: grey;"></line></g><g class="tick" transform="translate(187.5,0)" style="opacity: 1;"><line y2="6" x2="0" style="fill: none; stroke: grey;"></line></g><g class="tick" transform="translate(202.5,0)" style="opacity: 1;"><line y2="6" x2="0" style="fill: none; stroke: grey;"></line></g><g class="tick" transform="translate(217.5,0)" style="opacity: 1;"><line y2="6" x2="0" style="fill: none; stroke: grey;"></line></g><g class="tick" transform="translate(232.5,0)" style="opacity: 1;"><line y2="6" x2="0" style="fill: none; stroke: grey;"></line></g><g class="tick" transform="translate(247.5,0)" style="opacity: 1;"><line y2="6" x2="0" style="fill: none; stroke: grey;"></line></g><g class="tick" transform="translate(262.5,0)" style="opacity: 1;"><line y2="6" x2="0" style="fill: none; stroke: grey;"></line></g><g class="tick" transform="translate(277.5,0)" style="opacity: 1;"><line y2="6" x2="0" style="fill: none; stroke: grey;"></line></g><g class="tick" transform="translate(292.5,0)" style="opacity: 1;"><line y2="6" x2="0" style="fill: none; stroke: grey;"></line></g><g class="tick" transform="translate(307.5,0)" style="opacity: 1;"><line y2="6" x2="0" style="fill: none; stroke: grey;"></line></g><g class="tick" transform="translate(322.5,0)" style="opacity: 1;"><line y2="6" x2="0" style="fill: none; stroke: grey;"></line></g><g class="tick" transform="translate(337.5,0)" style="opacity: 1;"><line y2="6" x2="0" style="fill: none; stroke: grey;"></line></g><g class="tick" transform="translate(352.5,0)" style="opacity: 1;"><line y2="6" x2="0" style="fill: none; stroke: grey;"></line></g><g class="tick" transform="translate(367.5,0)" style="opacity: 1;"><line y2="6" x2="0" style="fill: none; stroke: grey;"></line></g><g class="tick" transform="translate(382.5,0)" style="opacity: 1;"><line y2="6" x2="0" style="fill: none; stroke: grey;"></line></g><g class="tick" transform="translate(397.5,0)" style="opacity: 1;"><line y2="6" x2="0" style="fill: none; stroke: grey;"></line></g><g class="tick" transform="translate(412.5,0)" style="opacity: 1;"><line y2="6" x2="0" style="fill: none; stroke: grey;"></line></g><g class="tick" transform="translate(427.5,0)" style="opacity: 1;"><line y2="6" x2="0" style="fill: none; stroke: grey;"></line></g><g class="tick" transform="translate(442.5,0)" style="opacity: 1;"><line y2="6" x2="0" style="fill: none; stroke: grey;"></line></g><path class="domain" d="M0,6V0H450V6" style="fill: none; stroke: grey;"></path></g><g class="y axis"><g class="tick" transform="translate(0,470)" style="opacity: 1;"><line x2="-6" y2="0" style="fill: none; stroke: grey;"></line><text dy=".32em" x="-9" y="0" style="text-anchor: end; font-family: sans-serif;">0</text></g><g class="tick" transform="translate(0,426.88479019488466)" style="opacity: 1;"><line x2="-6" y2="0" style="fill: none; stroke: grey;"></line><text dy=".32em" x="-9" y="0" style="text-anchor: end; font-family: sans-serif;">1</text></g><g class="tick" transform="translate(0,383.7695803897694)" style="opacity: 1;"><line x2="-6" y2="0" style="fill: none; stroke: grey;"></line><text dy=".32em" x="-9" y="0" style="text-anchor: end; font-family: sans-serif;">2</text></g><g class="tick" transform="translate(0,340.65437058465403)" style="opacity: 1;"><line x2="-6" y2="0" style="fill: none; stroke: grey;"></line><text dy=".32em" x="-9" y="0" style="text-anchor: end; font-family: sans-serif;">3</text></g><path class="domain" d="M-6,320H0V470H-6" style="fill: none; stroke: grey;"></path></g><text text-anchor="middle" transform="translate(-35,235)rotate(-90)" style="font-family: sans-serif;">-log 10 P-value</text></g></svg>