<svg class="plotSVG" width="810" height="160"><g transform="translate(180,60)"><rect class="bar" x="0" width="13.087601650877076" y="1.4285714285714286" height="12.857142857142856" fill="lightgreen"></rect><rect class="bar" x="0" width="140" y="15.714285714285714" height="12.857142857142856" fill="lightgreen"></rect><g class="x axis" transform="translate(0,30)"><g class="tick" transform="translate(0,0)" style="opacity: 1;"><line y2="6" x2="0" style="fill: none; stroke: grey;"></line><text dy=".71em" y="9" x="0" transform="translate(-12,3)rotate(-65)" style="text-anchor: end; font-family: sans-serif; font-size: 11px;">0</text></g><g class="tick" transform="translate(17.653742025867775,0)" style="opacity: 1;"><line y2="6" x2="0" style="fill: none; stroke: grey;"></line><text dy=".71em" y="9" x="0" transform="translate(-12,3)rotate(-65)" style="text-anchor: end; font-family: sans-serif; font-size: 11px;">100</text></g><g class="tick" transform="translate(35.30748405173555,0)" style="opacity: 1;"><line y2="6" x2="0" style="fill: none; stroke: grey;"></line><text dy=".71em" y="9" x="0" transform="translate(-12,3)rotate(-65)" style="text-anchor: end; font-family: sans-serif; font-size: 11px;">200</text></g><g class="tick" transform="translate(52.96122607760333,0)" style="opacity: 1;"><line y2="6" x2="0" style="fill: none; stroke: grey;"></line><text dy=".71em" y="9" x="0" transform="translate(-12,3)rotate(-65)" style="text-anchor: end; font-family: sans-serif; font-size: 11px;">300</text></g><g class="tick" transform="translate(70.6149681034711,0)" style="opacity: 1;"><line y2="6" x2="0" style="fill: none; stroke: grey;"></line><text dy=".71em" y="9" x="0" transform="translate(-12,3)rotate(-65)" style="text-anchor: end; font-family: sans-serif; font-size: 11px;">400</text></g><g class="tick" transform="translate(88.26871012933888,0)" style="opacity: 1;"><line y2="6" x2="0" style="fill: none; stroke: grey;"></line><text dy=".71em" y="9" x="0" transform="translate(-12,3)rotate(-65)" style="text-anchor: end; font-family: sans-serif; font-size: 11px;">500</text></g><g class="tick" transform="translate(105.92245215520666,0)" style="opacity: 1;"><line y2="6" x2="0" style="fill: none; stroke: grey;"></line><text dy=".71em" y="9" x="0" transform="translate(-12,3)rotate(-65)" style="text-anchor: end; font-family: sans-serif; font-size: 11px;">600</text></g><g class="tick" transform="translate(123.57619418107443,0)" style="opacity: 1;"><line y2="6" x2="0" style="fill: none; stroke: grey;"></line><text dy=".71em" y="9" x="0" transform="translate(-12,3)rotate(-65)" style="text-anchor: end; font-family: sans-serif; font-size: 11px;">700</text></g><path class="domain" d="M0,6V0H140V6" style="fill: none; stroke: grey;"></path></g><g class="y axis"><g class="tick" transform="translate(0,7.857142857142857)" style="opacity: 1;"><line x2="-6" y2="0" style="fill: none; stroke: grey;"></line><text dy=".32em" x="-9" y="0" style="text-anchor: end; font-family: sans-serif; font-size: 11px;">5:33756878-33831013</text></g><g class="tick" transform="translate(0,22.142857142857142)" style="opacity: 1;"><line x2="-6" y2="0" style="fill: none; stroke: grey;"></line><text dy=".32em" x="-9" y="0" style="text-anchor: end; font-family: sans-serif; font-size: 11px;">17:44040184-44833217</text></g><path class="domain" d="M-6,0H0V30H-6" style="fill: none; stroke: grey;"></path><text transform="rotate(-90)" dy=".71em" style="text-anchor: end; font-family: sans-serif; font-size: 11px;"></text></g><text text-anchor="middle" transform="translate(-50,-5)" style="font-family: sans-serif;">Genomic loci</text><text text-anchor="middle" transform="translate(70,-5)" style="text-anchor: middle; font-family: sans-serif;">Size (kb)</text><text text-anchor="middle" transform="translate(70,80)" style="text-anchor: middle; font-family: sans-serif;">Size (kb)</text><rect class="bar" x="150" width="40.72727272727272" y="1.4285714285714286" height="12.857142857142856" fill="skyblue"></rect><rect class="bar" x="150" width="140" y="15.714285714285714" height="12.857142857142856" fill="skyblue"></rect><g class="x axis" transform="translate(0,30)"><g class="tick" transform="translate(150,0)" style="opacity: 1;"><line y2="6" x2="0" style="fill: none; stroke: grey;"></line><text dy=".71em" y="9" x="0" transform="translate(-12,3)rotate(-65)" style="text-anchor: end; font-family: sans-serif; font-size: 11px;">0</text></g><g class="tick" transform="translate(162.72727272727272,0)" style="opacity: 1;"><line y2="6" x2="0" style="fill: none; stroke: grey;"></line><text dy=".71em" y="9" x="0" transform="translate(-12,3)rotate(-65)" style="text-anchor: end; font-family: sans-serif; font-size: 11px;">5</text></g><g class="tick" transform="translate(175.45454545454544,0)" style="opacity: 1;"><line y2="6" x2="0" style="fill: none; stroke: grey;"></line><text dy=".71em" y="9" x="0" transform="translate(-12,3)rotate(-65)" style="text-anchor: end; font-family: sans-serif; font-size: 11px;">10</text></g><g class="tick" transform="translate(188.1818181818182,0)" style="opacity: 1;"><line y2="6" x2="0" style="fill: none; stroke: grey;"></line><text dy=".71em" y="9" x="0" transform="translate(-12,3)rotate(-65)" style="text-anchor: end; font-family: sans-serif; font-size: 11px;">15</text></g><g class="tick" transform="translate(200.9090909090909,0)" style="opacity: 1;"><line y2="6" x2="0" style="fill: none; stroke: grey;"></line><text dy=".71em" y="9" x="0" transform="translate(-12,3)rotate(-65)" style="text-anchor: end; font-family: sans-serif; font-size: 11px;">20</text></g><g class="tick" transform="translate(213.63636363636363,0)" style="opacity: 1;"><line y2="6" x2="0" style="fill: none; stroke: grey;"></line><text dy=".71em" y="9" x="0" transform="translate(-12,3)rotate(-65)" style="text-anchor: end; font-family: sans-serif; font-size: 11px;">25</text></g><g class="tick" transform="translate(226.36363636363635,0)" style="opacity: 1;"><line y2="6" x2="0" style="fill: none; stroke: grey;"></line><text dy=".71em" y="9" x="0" transform="translate(-12,3)rotate(-65)" style="text-anchor: end; font-family: sans-serif; font-size: 11px;">30</text></g><g class="tick" transform="translate(239.09090909090907,0)" style="opacity: 1;"><line y2="6" x2="0" style="fill: none; stroke: grey;"></line><text dy=".71em" y="9" x="0" transform="translate(-12,3)rotate(-65)" style="text-anchor: end; font-family: sans-serif; font-size: 11px;">35</text></g><g class="tick" transform="translate(251.8181818181818,0)" style="opacity: 1;"><line y2="6" x2="0" style="fill: none; stroke: grey;"></line><text dy=".71em" y="9" x="0" transform="translate(-12,3)rotate(-65)" style="text-anchor: end; font-family: sans-serif; font-size: 11px;">40</text></g><g class="tick" transform="translate(264.54545454545456,0)" style="opacity: 1;"><line y2="6" x2="0" style="fill: none; stroke: grey;"></line><text dy=".71em" y="9" x="0" transform="translate(-12,3)rotate(-65)" style="text-anchor: end; font-family: sans-serif; font-size: 11px;">45</text></g><g class="tick" transform="translate(277.27272727272725,0)" style="opacity: 1;"><line y2="6" x2="0" style="fill: none; stroke: grey;"></line><text dy=".71em" y="9" x="0" transform="translate(-12,3)rotate(-65)" style="text-anchor: end; font-family: sans-serif; font-size: 11px;">50</text></g><g class="tick" transform="translate(290,0)" style="opacity: 1;"><line y2="6" x2="0" style="fill: none; stroke: grey;"></line><text dy=".71em" y="9" x="0" transform="translate(-12,3)rotate(-65)" style="text-anchor: end; font-family: sans-serif; font-size: 11px;">55</text></g><path class="domain" d="M150,6V0H290V6" style="fill: none; stroke: grey;"></path></g><g class="y axis" transform="translate(150,0)"><g class="tick" transform="translate(0,7.857142857142857)" style="opacity: 1;"><line x2="-6" y2="0" style="fill: none; stroke: grey;"></line></g><g class="tick" transform="translate(0,22.142857142857142)" style="opacity: 1;"><line x2="-6" y2="0" style="fill: none; stroke: grey;"></line></g><path class="domain" d="M-6,0H0V30H-6" style="fill: none; stroke: grey;"></path></g><text text-anchor="middle" transform="translate(220,-5)" style="text-anchor: middle; font-family: sans-serif;">#SNPs</text><text text-anchor="middle" transform="translate(220,80)" style="text-anchor: middle; font-family: sans-serif;">#SNPs</text><rect class="bar" x="300" width="20" y="1.4285714285714286" height="12.857142857142856" fill="orange"></rect><rect class="bar" x="300" width="140" y="15.714285714285714" height="12.857142857142856" fill="orange"></rect><g class="x axis" transform="translate(0,30)"><g class="tick" transform="translate(300,0)" style="opacity: 1;"><line y2="6" x2="0" style="fill: none; stroke: grey;"></line><text dy=".71em" y="9" x="0" transform="translate(-12,3)rotate(-65)" style="text-anchor: end; font-family: sans-serif; font-size: 11px;">0</text></g><g class="tick" transform="translate(320,0)" style="opacity: 1;"><line y2="6" x2="0" style="fill: none; stroke: grey;"></line><text dy=".71em" y="9" x="0" transform="translate(-12,3)rotate(-65)" style="text-anchor: end; font-family: sans-serif; font-size: 11px;">1</text></g><g class="tick" transform="translate(340,0)" style="opacity: 1;"><line y2="6" x2="0" style="fill: none; stroke: grey;"></line><text dy=".71em" y="9" x="0" transform="translate(-12,3)rotate(-65)" style="text-anchor: end; font-family: sans-serif; font-size: 11px;">2</text></g><g class="tick" transform="translate(360,0)" style="opacity: 1;"><line y2="6" x2="0" style="fill: none; stroke: grey;"></line><text dy=".71em" y="9" x="0" transform="translate(-12,3)rotate(-65)" style="text-anchor: end; font-family: sans-serif; font-size: 11px;">3</text></g><g class="tick" transform="translate(380,0)" style="opacity: 1;"><line y2="6" x2="0" style="fill: none; stroke: grey;"></line><text dy=".71em" y="9" x="0" transform="translate(-12,3)rotate(-65)" style="text-anchor: end; font-family: sans-serif; font-size: 11px;">4</text></g><g class="tick" transform="translate(400,0)" style="opacity: 1;"><line y2="6" x2="0" style="fill: none; stroke: grey;"></line><text dy=".71em" y="9" x="0" transform="translate(-12,3)rotate(-65)" style="text-anchor: end; font-family: sans-serif; font-size: 11px;">5</text></g><g class="tick" transform="translate(420,0)" style="opacity: 1;"><line y2="6" x2="0" style="fill: none; stroke: grey;"></line><text dy=".71em" y="9" x="0" transform="translate(-12,3)rotate(-65)" style="text-anchor: end; font-family: sans-serif; font-size: 11px;">6</text></g><g class="tick" transform="translate(440,0)" style="opacity: 1;"><line y2="6" x2="0" style="fill: none; stroke: grey;"></line><text dy=".71em" y="9" x="0" transform="translate(-12,3)rotate(-65)" style="text-anchor: end; font-family: sans-serif; font-size: 11px;">7</text></g><path class="domain" d="M300,6V0H440V6" style="fill: none; stroke: grey;"></path></g><g class="y axis" transform="translate(300,0)"><g class="tick" transform="translate(0,7.857142857142857)" style="opacity: 1;"><line x2="-6" y2="0" style="fill: none; stroke: grey;"></line></g><g class="tick" transform="translate(0,22.142857142857142)" style="opacity: 1;"><line x2="-6" y2="0" style="fill: none; stroke: grey;"></line></g><path class="domain" d="M-6,0H0V30H-6" style="fill: none; stroke: grey;"></path></g><text text-anchor="middle" transform="translate(370,-5)" style="text-anchor: middle; font-family: sans-serif;">#mapped genes</text><text text-anchor="middle" transform="translate(370,80)" style="text-anchor: middle; font-family: sans-serif;">#mapped genes</text><rect class="bar" x="450" width="17.5" y="1.4285714285714286" height="12.857142857142856" fill="pink"></rect><rect class="bar" x="450" width="140" y="15.714285714285714" height="12.857142857142856" fill="pink"></rect><g class="x axis" transform="translate(0,30)"><g class="tick" transform="translate(450,0)" style="opacity: 1;"><line y2="6" x2="0" style="fill: none; stroke: grey;"></line><text dy=".71em" y="9" x="0" transform="translate(-12,3)rotate(-65)" style="text-anchor: end; font-family: sans-serif; font-size: 11px;">0</text></g><g class="tick" transform="translate(467.5,0)" style="opacity: 1;"><line y2="6" x2="0" style="fill: none; stroke: grey;"></line><text dy=".71em" y="9" x="0" transform="translate(-12,3)rotate(-65)" style="text-anchor: end; font-family: sans-serif; font-size: 11px;">1</text></g><g class="tick" transform="translate(485,0)" style="opacity: 1;"><line y2="6" x2="0" style="fill: none; stroke: grey;"></line><text dy=".71em" y="9" x="0" transform="translate(-12,3)rotate(-65)" style="text-anchor: end; font-family: sans-serif; font-size: 11px;">2</text></g><g class="tick" transform="translate(502.5,0)" style="opacity: 1;"><line y2="6" x2="0" style="fill: none; stroke: grey;"></line><text dy=".71em" y="9" x="0" transform="translate(-12,3)rotate(-65)" style="text-anchor: end; font-family: sans-serif; font-size: 11px;">3</text></g><g class="tick" transform="translate(520,0)" style="opacity: 1;"><line y2="6" x2="0" style="fill: none; stroke: grey;"></line><text dy=".71em" y="9" x="0" transform="translate(-12,3)rotate(-65)" style="text-anchor: end; font-family: sans-serif; font-size: 11px;">4</text></g><g class="tick" transform="translate(537.5,0)" style="opacity: 1;"><line y2="6" x2="0" style="fill: none; stroke: grey;"></line><text dy=".71em" y="9" x="0" transform="translate(-12,3)rotate(-65)" style="text-anchor: end; font-family: sans-serif; font-size: 11px;">5</text></g><g class="tick" transform="translate(555,0)" style="opacity: 1;"><line y2="6" x2="0" style="fill: none; stroke: grey;"></line><text dy=".71em" y="9" x="0" transform="translate(-12,3)rotate(-65)" style="text-anchor: end; font-family: sans-serif; font-size: 11px;">6</text></g><g class="tick" transform="translate(572.5,0)" style="opacity: 1;"><line y2="6" x2="0" style="fill: none; stroke: grey;"></line><text dy=".71em" y="9" x="0" transform="translate(-12,3)rotate(-65)" style="text-anchor: end; font-family: sans-serif; font-size: 11px;">7</text></g><g class="tick" transform="translate(590,0)" style="opacity: 1;"><line y2="6" x2="0" style="fill: none; stroke: grey;"></line><text dy=".71em" y="9" x="0" transform="translate(-12,3)rotate(-65)" style="text-anchor: end; font-family: sans-serif; font-size: 11px;">8</text></g><path class="domain" d="M450,6V0H590V6" style="fill: none; stroke: grey;"></path></g><g class="y axis" transform="translate(450,0)"><g class="tick" transform="translate(0,7.857142857142857)" style="opacity: 1;"><line x2="-6" y2="0" style="fill: none; stroke: grey;"></line></g><g class="tick" transform="translate(0,22.142857142857142)" style="opacity: 1;"><line x2="-6" y2="0" style="fill: none; stroke: grey;"></line></g><path class="domain" d="M-6,0H0V30H-6" style="fill: none; stroke: grey;"></path></g><text text-anchor="middle" transform="translate(520,-20)" style="text-anchor: middle; font-family: sans-serif;">#genes physically</text><text text-anchor="middle" transform="translate(520,-5)" style="text-anchor: middle; font-family: sans-serif;">located in loci</text><text text-anchor="middle" transform="translate(520,80)" style="text-anchor: middle; font-family: sans-serif;">#genes physically</text><text text-anchor="middle" transform="translate(520,95)" style="text-anchor: middle; font-family: sans-serif;">located in loci</text></g></svg>