<svg width="920" height="483.5"><g transform="translate(80,30)"><rect x="555" y="229.50259228488392" width="14" height="20.497407715116083" style="fill: rgb(86, 104, 244); stroke: grey;"></rect><rect x="600" y="231.72978338824092" width="14" height="18.270216611759082" style="fill: rgb(86, 104, 244); stroke: grey;"></rect><rect x="195" y="154.3227693887802" width="14" height="95.67723061121981" style="fill: rgb(86, 104, 244); stroke: grey;"></rect><rect x="75" y="88.91436278234785" width="14" height="161.08563721765216" style="fill: rgb(86, 104, 244); stroke: grey;"></rect><rect x="180" y="140.47605869655277" width="14" height="109.52394130344723" style="fill: rgb(86, 104, 244); stroke: grey;"></rect><rect x="135" y="123.3770605609111" width="14" height="126.6229394390889" style="fill: rgb(86, 104, 244); stroke: grey;"></rect><rect x="330" y="203.61813941151746" width="14" height="46.38186058848254" style="fill: rgb(86, 104, 244); stroke: grey;"></rect><rect x="540" y="227.99798593838656" width="14" height="22.002014061613437" style="fill: rgb(86, 104, 244); stroke: grey;"></rect><rect x="570" y="230.55662053352322" width="14" height="19.443379466476785" style="fill: rgb(86, 104, 244); stroke: grey;"></rect><rect x="300" y="199.47188532928348" width="14" height="50.52811467071652" style="fill: rgb(86, 104, 244); stroke: grey;"></rect><rect x="90" y="94.24231754277152" width="14" height="155.7576824572285" style="fill: rgb(86, 104, 244); stroke: grey;"></rect><rect x="60" y="82.40407237007987" width="14" height="167.59592762992014" style="fill: rgb(86, 104, 244); stroke: grey;"></rect><rect x="435" y="217.34661465421863" width="14" height="32.65338534578137" style="fill: rgb(86, 104, 244); stroke: grey;"></rect><rect x="495" y="223.35397525363922" width="14" height="26.64602474636078" style="fill: rgb(86, 104, 244); stroke: grey;"></rect><rect x="630" y="232.31327490082873" width="14" height="17.68672509917127" style="fill: rgb(86, 104, 244); stroke: grey;"></rect><rect x="390" y="210.9734812256239" width="14" height="39.026518774376086" style="fill: rgb(86, 104, 244); stroke: grey;"></rect><rect x="285" y="198.76288440018783" width="14" height="51.23711559981217" style="fill: rgb(86, 104, 244); stroke: grey;"></rect><rect x="360" y="204.26874657317174" width="14" height="45.73125342682826" style="fill: rgb(86, 104, 244); stroke: grey;"></rect><rect x="585" y="230.79118966431466" width="14" height="19.208810335685342" style="fill: rgb(86, 104, 244); stroke: grey;"></rect><rect x="510" y="224.6547323347245" width="14" height="25.345267665275486" style="fill: rgb(86, 104, 244); stroke: grey;"></rect><rect x="465" y="220.55224118267645" width="14" height="29.447758817323546" style="fill: rgb(86, 104, 244); stroke: grey;"></rect><rect x="270" y="193.07430367402176" width="14" height="56.92569632597824" style="fill: rgb(86, 104, 244); stroke: grey;"></rect><rect x="675" y="233.25575686577648" width="14" height="16.744243134223524" style="fill: rgb(86, 104, 244); stroke: grey;"></rect><rect x="420" y="215.44706634911822" width="14" height="34.55293365088178" style="fill: rgb(86, 104, 244); stroke: grey;"></rect><rect x="615" y="232.00410507722333" width="14" height="17.99589492277667" style="fill: rgb(86, 104, 244); stroke: grey;"></rect><rect x="450" y="219.78361579778218" width="14" height="30.216384202217824" style="fill: rgb(86, 104, 244); stroke: grey;"></rect><rect x="690" y="236.62565865729854" width="14" height="13.374341342701456" style="fill: rgb(86, 104, 244); stroke: grey;"></rect><rect x="150" y="125.40445190726723" width="14" height="124.59554809273277" style="fill: rgb(86, 104, 244); stroke: grey;"></rect><rect x="225" y="158.32249900087035" width="14" height="91.67750099912965" style="fill: rgb(86, 104, 244); stroke: grey;"></rect><rect x="105" y="96.40670528716683" width="14" height="153.59329471283317" style="fill: rgb(86, 104, 244); stroke: grey;"></rect><rect x="255" y="179.26387371501878" width="14" height="70.73612628498122" style="fill: rgb(86, 104, 244); stroke: grey;"></rect><rect x="165" y="137.08291349593344" width="14" height="112.91708650406656" style="fill: rgb(86, 104, 244); stroke: grey;"></rect><rect x="45" y="66.68586469622842" width="14" height="183.3141353037716" style="fill: rgb(86, 104, 244); stroke: grey;"></rect><rect x="735" y="241.25277893303212" width="14" height="8.747221066967882" style="fill: rgb(86, 104, 244); stroke: grey;"></rect><rect x="720" y="240.53975008052498" width="14" height="9.460249919475018" style="fill: rgb(86, 104, 244); stroke: grey;"></rect><rect x="705" y="240.26949280120618" width="14" height="9.730507198793816" style="fill: rgb(86, 104, 244); stroke: grey;"></rect><rect x="525" y="226.03016723875754" width="14" height="23.969832761242458" style="fill: rgb(86, 104, 244); stroke: grey;"></rect><rect x="375" y="208.70557677500574" width="14" height="41.29442322499426" style="fill: rgb(86, 104, 244); stroke: grey;"></rect><rect x="15" y="14.511907879670105" width="14" height="235.4880921203299" style="fill: rgb(86, 104, 244); stroke: grey;"></rect><rect x="750" y="241.9233601176598" width="14" height="8.076639882340203" style="fill: rgb(86, 104, 244); stroke: grey;"></rect><rect x="480" y="221.06918069308526" width="14" height="28.930819306914742" style="fill: rgb(86, 104, 244); stroke: grey;"></rect><rect x="120" y="112.55489017907146" width="14" height="137.44510982092854" style="fill: rgb(86, 104, 244); stroke: grey;"></rect><rect x="0" y="0" width="14" height="250" style="fill: rgb(86, 104, 244); stroke: grey;"></rect><rect x="645" y="232.5834573806724" width="14" height="17.4165426193276" style="fill: rgb(86, 104, 244); stroke: grey;"></rect><rect x="240" y="164.9216972639786" width="14" height="85.07830273602141" style="fill: rgb(86, 104, 244); stroke: grey;"></rect><rect x="210" y="154.7058570791776" width="14" height="95.2941429208224" style="fill: rgb(86, 104, 244); stroke: grey;"></rect><rect x="660" y="232.58601706036453" width="14" height="17.413982939635474" style="fill: rgb(86, 104, 244); stroke: grey;"></rect><rect x="765" y="245.0048662651028" width="14" height="4.995133734897195" style="fill: rgb(86, 104, 244); stroke: grey;"></rect><rect x="315" y="202.3107296448838" width="14" height="47.68927035511621" style="fill: rgb(86, 104, 244); stroke: grey;"></rect><rect x="30" y="36.71714129109962" width="14" height="213.2828587089004" style="fill: rgb(86, 104, 244); stroke: grey;"></rect><rect x="780" y="245.63053336862552" width="14" height="4.369466631374479" style="fill: rgb(86, 104, 244); stroke: grey;"></rect><rect x="405" y="211.55750930360813" width="14" height="38.44249069639187" style="fill: rgb(86, 104, 244); stroke: grey;"></rect><rect x="345" y="204.1067008616322" width="14" height="45.89329913836781" style="fill: rgb(86, 104, 244); stroke: grey;"></rect><rect x="795" y="249.8193377425903" width="14" height="0.18066225740969344" style="fill: rgb(86, 104, 244); stroke: grey;"></rect><g><text transform="translate(565,258)rotate(-70)" style="text-anchor: end; font-size: 11px; font-family: sans-serif;">Adipose_Subcutaneous</text><text transform="translate(610,258)rotate(-70)" style="text-anchor: end; font-size: 11px; font-family: sans-serif;">Adipose_Visceral_Omentum</text><text transform="translate(205,258)rotate(-70)" style="text-anchor: end; font-size: 11px; font-family: sans-serif;">Adrenal_Gland</text><text transform="translate(85,258)rotate(-70)" style="text-anchor: end; font-size: 11px; font-family: sans-serif;">Artery_Aorta</text><text transform="translate(190,258)rotate(-70)" style="text-anchor: end; font-size: 11px; font-family: sans-serif;">Artery_Coronary</text><text transform="translate(145,258)rotate(-70)" style="text-anchor: end; font-size: 11px; font-family: sans-serif;">Artery_Tibial</text><text transform="translate(340,258)rotate(-70)" style="text-anchor: end; font-size: 11px; font-family: sans-serif;">Bladder</text><text transform="translate(550,258)rotate(-70)" style="text-anchor: end; font-size: 11px; font-family: sans-serif;">Brain_Amygdala</text><text transform="translate(580,258)rotate(-70)" style="text-anchor: end; font-size: 11px; font-family: sans-serif;">Brain_Anterior_cingulate_cortex_BA24</text><text transform="translate(310,258)rotate(-70)" style="text-anchor: end; font-size: 11px; font-family: sans-serif;">Brain_Caudate_basal_ganglia</text><text transform="translate(100,258)rotate(-70)" style="text-anchor: end; font-size: 11px; font-family: sans-serif;">Brain_Cerebellar_Hemisphere</text><text transform="translate(70,258)rotate(-70)" style="text-anchor: end; font-size: 11px; font-family: sans-serif;">Brain_Cerebellum</text><text transform="translate(445,258)rotate(-70)" style="text-anchor: end; font-size: 11px; font-family: sans-serif;">Brain_Cortex</text><text transform="translate(505,258)rotate(-70)" style="text-anchor: end; font-size: 11px; font-family: sans-serif;">Brain_Frontal_Cortex_BA9</text><text transform="translate(640,258)rotate(-70)" style="text-anchor: end; font-size: 11px; font-family: sans-serif;">Brain_Hippocampus</text><text transform="translate(400,258)rotate(-70)" style="text-anchor: end; font-size: 11px; font-family: sans-serif;">Brain_Hypothalamus</text><text transform="translate(295,258)rotate(-70)" style="text-anchor: end; font-size: 11px; font-family: sans-serif;">Brain_Nucleus_accumbens_basal_ganglia</text><text transform="translate(370,258)rotate(-70)" style="text-anchor: end; font-size: 11px; font-family: sans-serif;">Brain_Putamen_basal_ganglia</text><text transform="translate(595,258)rotate(-70)" style="text-anchor: end; font-size: 11px; font-family: sans-serif;">Brain_Spinal_cord_cervical_c-1</text><text transform="translate(520,258)rotate(-70)" style="text-anchor: end; font-size: 11px; font-family: sans-serif;">Brain_Substantia_nigra</text><text transform="translate(475,258)rotate(-70)" style="text-anchor: end; font-size: 11px; font-family: sans-serif;">Breast_Mammary_Tissue</text><text transform="translate(280,258)rotate(-70)" style="text-anchor: end; font-size: 11px; font-family: sans-serif;">Cells_Cultured_fibroblasts</text><text transform="translate(685,258)rotate(-70)" style="text-anchor: end; font-size: 11px; font-family: sans-serif;">Cells_EBV-transformed_lymphocytes</text><text transform="translate(430,258)rotate(-70)" style="text-anchor: end; font-size: 11px; font-family: sans-serif;">Cervix_Ectocervix</text><text transform="translate(625,258)rotate(-70)" style="text-anchor: end; font-size: 11px; font-family: sans-serif;">Cervix_Endocervix</text><text transform="translate(460,258)rotate(-70)" style="text-anchor: end; font-size: 11px; font-family: sans-serif;">Colon_Sigmoid</text><text transform="translate(700,258)rotate(-70)" style="text-anchor: end; font-size: 11px; font-family: sans-serif;">Colon_Transverse</text><text transform="translate(160,258)rotate(-70)" style="text-anchor: end; font-size: 11px; font-family: sans-serif;">Esophagus_Gastroesophageal_Junction</text><text transform="translate(235,258)rotate(-70)" style="text-anchor: end; font-size: 11px; font-family: sans-serif;">Esophagus_Mucosa</text><text transform="translate(115,258)rotate(-70)" style="text-anchor: end; font-size: 11px; font-family: sans-serif;">Esophagus_Muscularis</text><text transform="translate(265,258)rotate(-70)" style="text-anchor: end; font-size: 11px; font-family: sans-serif;">Fallopian_Tube</text><text transform="translate(175,258)rotate(-70)" style="text-anchor: end; font-size: 11px; font-family: sans-serif;">Heart_Atrial_Appendage</text><text transform="translate(55,258)rotate(-70)" style="text-anchor: end; font-size: 11px; font-family: sans-serif;">Heart_Left_Ventricle</text><text transform="translate(745,258)rotate(-70)" style="text-anchor: end; font-size: 11px; font-family: sans-serif;">Kidney_Cortex</text><text transform="translate(730,258)rotate(-70)" style="text-anchor: end; font-size: 11px; font-family: sans-serif;">Kidney_Medulla</text><text transform="translate(715,258)rotate(-70)" style="text-anchor: end; font-size: 11px; font-family: sans-serif;">Liver</text><text transform="translate(535,258)rotate(-70)" style="text-anchor: end; font-size: 11px; font-family: sans-serif;">Lung</text><text transform="translate(385,258)rotate(-70)" style="text-anchor: end; font-size: 11px; font-family: sans-serif;">Minor_Salivary_Gland</text><text transform="translate(25,258)rotate(-70)" style="text-anchor: end; font-size: 11px; font-family: sans-serif;">Muscle_Skeletal</text><text transform="translate(760,258)rotate(-70)" style="text-anchor: end; font-size: 11px; font-family: sans-serif;">Nerve_Tibial</text><text transform="translate(490,258)rotate(-70)" style="text-anchor: end; font-size: 11px; font-family: sans-serif;">Ovary</text><text transform="translate(130,258)rotate(-70)" style="text-anchor: end; font-size: 11px; font-family: sans-serif;">Pancreas</text><text transform="translate(10,258)rotate(-70)" style="text-anchor: end; font-size: 11px; font-family: sans-serif;">Pituitary</text><text transform="translate(655,258)rotate(-70)" style="text-anchor: end; font-size: 11px; font-family: sans-serif;">Prostate</text><text transform="translate(250,258)rotate(-70)" style="text-anchor: end; font-size: 11px; font-family: sans-serif;">Skin_Not_Sun_Exposed_Suprapubic</text><text transform="translate(220,258)rotate(-70)" style="text-anchor: end; font-size: 11px; font-family: sans-serif;">Skin_Sun_Exposed_Lower_leg</text><text transform="translate(670,258)rotate(-70)" style="text-anchor: end; font-size: 11px; font-family: sans-serif;">Small_Intestine_Terminal_Ileum</text><text transform="translate(775,258)rotate(-70)" style="text-anchor: end; font-size: 11px; font-family: sans-serif;">Spleen</text><text transform="translate(325,258)rotate(-70)" style="text-anchor: end; font-size: 11px; font-family: sans-serif;">Stomach</text><text transform="translate(40,258)rotate(-70)" style="text-anchor: end; font-size: 11px; font-family: sans-serif;">Testis</text><text transform="translate(790,258)rotate(-70)" style="text-anchor: end; font-size: 11px; font-family: sans-serif;">Thyroid</text><text transform="translate(415,258)rotate(-70)" style="text-anchor: end; font-size: 11px; font-family: sans-serif;">Uterus</text><text transform="translate(355,258)rotate(-70)" style="text-anchor: end; font-size: 11px; font-family: sans-serif;">Vagina</text><text transform="translate(805,258)rotate(-70)" style="text-anchor: end; font-size: 11px; font-family: sans-serif;">Whole_Blood</text></g><line x1="0" x2="810" y1="-206.56972052210654" y2="-206.56972052210654" style="stroke: black; stroke-dasharray: 3, 3;"></line><g class="y axis"><g class="tick" transform="translate(0,250)" style="opacity: 1;"><line x2="-6" y2="0" style="fill: none; stroke: grey;"></line><text dy=".32em" x="-9" y="0" style="text-anchor: end; font-size: 11px; font-family: sans-serif;">0.0</text></g><g class="tick" transform="translate(0,219.8973992871092)" style="opacity: 1;"><line x2="-6" y2="0" style="fill: none; stroke: grey;"></line><text dy=".32em" x="-9" y="0" style="text-anchor: end; font-size: 11px; font-family: sans-serif;">0.2</text></g><g class="tick" transform="translate(0,189.79479857421845)" style="opacity: 1;"><line x2="-6" y2="0" style="fill: none; stroke: grey;"></line><text dy=".32em" x="-9" y="0" style="text-anchor: end; font-size: 11px; font-family: sans-serif;">0.4</text></g><g class="tick" transform="translate(0,159.69219786132766)" style="opacity: 1;"><line x2="-6" y2="0" style="fill: none; stroke: grey;"></line><text dy=".32em" x="-9" y="0" style="text-anchor: end; font-size: 11px; font-family: sans-serif;">0.6</text></g><g class="tick" transform="translate(0,129.58959714843684)" style="opacity: 1;"><line x2="-6" y2="0" style="fill: none; stroke: grey;"></line><text dy=".32em" x="-9" y="0" style="text-anchor: end; font-size: 11px; font-family: sans-serif;">0.8</text></g><g class="tick" transform="translate(0,99.48699643554606)" style="opacity: 1;"><line x2="-6" y2="0" style="fill: none; stroke: grey;"></line><text dy=".32em" x="-9" y="0" style="text-anchor: end; font-size: 11px; font-family: sans-serif;">1.0</text></g><g class="tick" transform="translate(0,69.38439572265528)" style="opacity: 1;"><line x2="-6" y2="0" style="fill: none; stroke: grey;"></line><text dy=".32em" x="-9" y="0" style="text-anchor: end; font-size: 11px; font-family: sans-serif;">1.2</text></g><g class="tick" transform="translate(0,39.2817950097645)" style="opacity: 1;"><line x2="-6" y2="0" style="fill: none; stroke: grey;"></line><text dy=".32em" x="-9" y="0" style="text-anchor: end; font-size: 11px; font-family: sans-serif;">1.4</text></g><g class="tick" transform="translate(0,9.179194296873694)" style="opacity: 1;"><line x2="-6" y2="0" style="fill: none; stroke: grey;"></line><text dy=".32em" x="-9" y="0" style="text-anchor: end; font-size: 11px; font-family: sans-serif;">1.6</text></g><path class="domain" d="M-6,0H0V250H-6" style="fill: none; stroke: grey;"></path></g><g class="x axis" transform="translate(0,250)"><g class="tick" transform="translate(7.5,0)" style="opacity: 1;"><line y2="6" x2="0" style="fill: none; stroke: grey;"></line></g><g class="tick" transform="translate(22.5,0)" style="opacity: 1;"><line y2="6" x2="0" style="fill: none; stroke: grey;"></line></g><g class="tick" transform="translate(37.5,0)" style="opacity: 1;"><line y2="6" x2="0" style="fill: none; stroke: grey;"></line></g><g class="tick" transform="translate(52.5,0)" style="opacity: 1;"><line y2="6" x2="0" style="fill: none; stroke: grey;"></line></g><g class="tick" transform="translate(67.5,0)" style="opacity: 1;"><line y2="6" x2="0" style="fill: none; stroke: grey;"></line></g><g class="tick" transform="translate(82.5,0)" style="opacity: 1;"><line y2="6" x2="0" style="fill: none; stroke: grey;"></line></g><g class="tick" transform="translate(97.5,0)" style="opacity: 1;"><line y2="6" x2="0" style="fill: none; stroke: grey;"></line></g><g class="tick" transform="translate(112.5,0)" style="opacity: 1;"><line y2="6" x2="0" style="fill: none; stroke: grey;"></line></g><g class="tick" transform="translate(127.5,0)" style="opacity: 1;"><line y2="6" x2="0" style="fill: none; stroke: grey;"></line></g><g class="tick" transform="translate(142.5,0)" style="opacity: 1;"><line y2="6" x2="0" style="fill: none; stroke: grey;"></line></g><g class="tick" transform="translate(157.5,0)" style="opacity: 1;"><line y2="6" x2="0" style="fill: none; stroke: grey;"></line></g><g class="tick" transform="translate(172.5,0)" style="opacity: 1;"><line y2="6" x2="0" style="fill: none; stroke: grey;"></line></g><g class="tick" transform="translate(187.5,0)" style="opacity: 1;"><line y2="6" x2="0" style="fill: none; stroke: grey;"></line></g><g class="tick" transform="translate(202.5,0)" style="opacity: 1;"><line y2="6" x2="0" style="fill: none; stroke: grey;"></line></g><g class="tick" transform="translate(217.5,0)" style="opacity: 1;"><line y2="6" x2="0" style="fill: none; stroke: grey;"></line></g><g class="tick" transform="translate(232.5,0)" style="opacity: 1;"><line y2="6" x2="0" style="fill: none; stroke: grey;"></line></g><g class="tick" transform="translate(247.5,0)" style="opacity: 1;"><line y2="6" x2="0" style="fill: none; stroke: grey;"></line></g><g class="tick" transform="translate(262.5,0)" style="opacity: 1;"><line y2="6" x2="0" style="fill: none; stroke: grey;"></line></g><g class="tick" transform="translate(277.5,0)" style="opacity: 1;"><line y2="6" x2="0" style="fill: none; stroke: grey;"></line></g><g class="tick" transform="translate(292.5,0)" style="opacity: 1;"><line y2="6" x2="0" style="fill: none; stroke: grey;"></line></g><g class="tick" transform="translate(307.5,0)" style="opacity: 1;"><line y2="6" x2="0" style="fill: none; stroke: grey;"></line></g><g class="tick" transform="translate(322.5,0)" style="opacity: 1;"><line y2="6" x2="0" style="fill: none; stroke: grey;"></line></g><g class="tick" transform="translate(337.5,0)" style="opacity: 1;"><line y2="6" x2="0" style="fill: none; stroke: grey;"></line></g><g class="tick" transform="translate(352.5,0)" style="opacity: 1;"><line y2="6" x2="0" style="fill: none; stroke: grey;"></line></g><g class="tick" transform="translate(367.5,0)" style="opacity: 1;"><line y2="6" x2="0" style="fill: none; stroke: grey;"></line></g><g class="tick" transform="translate(382.5,0)" style="opacity: 1;"><line y2="6" x2="0" style="fill: none; stroke: grey;"></line></g><g class="tick" transform="translate(397.5,0)" style="opacity: 1;"><line y2="6" x2="0" style="fill: none; stroke: grey;"></line></g><g class="tick" transform="translate(412.5,0)" style="opacity: 1;"><line y2="6" x2="0" style="fill: none; stroke: grey;"></line></g><g class="tick" transform="translate(427.5,0)" style="opacity: 1;"><line y2="6" x2="0" style="fill: none; stroke: grey;"></line></g><g class="tick" transform="translate(442.5,0)" style="opacity: 1;"><line y2="6" x2="0" style="fill: none; stroke: grey;"></line></g><g class="tick" transform="translate(457.5,0)" style="opacity: 1;"><line y2="6" x2="0" style="fill: none; stroke: grey;"></line></g><g class="tick" transform="translate(472.5,0)" style="opacity: 1;"><line y2="6" x2="0" style="fill: none; stroke: grey;"></line></g><g class="tick" transform="translate(487.5,0)" style="opacity: 1;"><line y2="6" x2="0" style="fill: none; stroke: grey;"></line></g><g class="tick" transform="translate(502.5,0)" style="opacity: 1;"><line y2="6" x2="0" style="fill: none; stroke: grey;"></line></g><g class="tick" transform="translate(517.5,0)" style="opacity: 1;"><line y2="6" x2="0" style="fill: none; stroke: grey;"></line></g><g class="tick" transform="translate(532.5,0)" style="opacity: 1;"><line y2="6" x2="0" style="fill: none; stroke: grey;"></line></g><g class="tick" transform="translate(547.5,0)" style="opacity: 1;"><line y2="6" x2="0" style="fill: none; stroke: grey;"></line></g><g class="tick" transform="translate(562.5,0)" style="opacity: 1;"><line y2="6" x2="0" style="fill: none; stroke: grey;"></line></g><g class="tick" transform="translate(577.5,0)" style="opacity: 1;"><line y2="6" x2="0" style="fill: none; stroke: grey;"></line></g><g class="tick" transform="translate(592.5,0)" style="opacity: 1;"><line y2="6" x2="0" style="fill: none; stroke: grey;"></line></g><g class="tick" transform="translate(607.5,0)" style="opacity: 1;"><line y2="6" x2="0" style="fill: none; stroke: grey;"></line></g><g class="tick" transform="translate(622.5,0)" style="opacity: 1;"><line y2="6" x2="0" style="fill: none; stroke: grey;"></line></g><g class="tick" transform="translate(637.5,0)" style="opacity: 1;"><line y2="6" x2="0" style="fill: none; stroke: grey;"></line></g><g class="tick" transform="translate(652.5,0)" style="opacity: 1;"><line y2="6" x2="0" style="fill: none; stroke: grey;"></line></g><g class="tick" transform="translate(667.5,0)" style="opacity: 1;"><line y2="6" x2="0" style="fill: none; stroke: grey;"></line></g><g class="tick" transform="translate(682.5,0)" style="opacity: 1;"><line y2="6" x2="0" style="fill: none; stroke: grey;"></line></g><g class="tick" transform="translate(697.5,0)" style="opacity: 1;"><line y2="6" x2="0" style="fill: none; stroke: grey;"></line></g><g class="tick" transform="translate(712.5,0)" style="opacity: 1;"><line y2="6" x2="0" style="fill: none; stroke: grey;"></line></g><g class="tick" transform="translate(727.5,0)" style="opacity: 1;"><line y2="6" x2="0" style="fill: none; stroke: grey;"></line></g><g class="tick" transform="translate(742.5,0)" style="opacity: 1;"><line y2="6" x2="0" style="fill: none; stroke: grey;"></line></g><g class="tick" transform="translate(757.5,0)" style="opacity: 1;"><line y2="6" x2="0" style="fill: none; stroke: grey;"></line></g><g class="tick" transform="translate(772.5,0)" style="opacity: 1;"><line y2="6" x2="0" style="fill: none; stroke: grey;"></line></g><g class="tick" transform="translate(787.5,0)" style="opacity: 1;"><line y2="6" x2="0" style="fill: none; stroke: grey;"></line></g><g class="tick" transform="translate(802.5,0)" style="opacity: 1;"><line y2="6" x2="0" style="fill: none; stroke: grey;"></line></g><path class="domain" d="M0,6V0H810V6" style="fill: none; stroke: grey;"></path></g><text text-anchor="middle" transform="translate(-55,125)rotate(-90)" style="font-family: sans-serif;">-log 10 P-value</text></g></svg>