<svg width="500" height="250"><g transform="translate(40,20)"><text x="390" y="10" style="font-size: 10px; font-family: sans-serif;">-log2(E)</text><g><rect class="legendRect" x="390" y="13" width="20" height="5" fill="#ff0000"></rect></g><g><rect class="legendRect" x="390" y="18" width="20" height="5" fill="#ff2c27"></rect></g><g><rect class="legendRect" x="390" y="23" width="20" height="5" fill="#ff574e"></rect></g><g><rect class="legendRect" x="390" y="28" width="20" height="5" fill="#ff8376"></rect></g><g><rect class="legendRect" x="390" y="33" width="20" height="5" fill="#ffae9d"></rect></g><g><rect class="legendRect" x="390" y="38" width="20" height="5" fill="#ffdac4"></rect></g><g><rect class="legendRect" x="390" y="43" width="20" height="5" fill="#fbfbe6"></rect></g><g><rect class="legendRect" x="390" y="48" width="20" height="5" fill="#dbdbe9"></rect></g><g><rect class="legendRect" x="390" y="53" width="20" height="5" fill="#bcbced"></rect></g><g><rect class="legendRect" x="390" y="58" width="20" height="5" fill="#9d9df0"></rect></g><g><rect class="legendRect" x="390" y="63" width="20" height="5" fill="#7d7df3"></rect></g><g><rect class="legendRect" x="390" y="68" width="20" height="5" fill="#5e5ef6"></rect></g><g><rect class="legendRect" x="390" y="73" width="20" height="5" fill="#3f3ff9"></rect></g><g><rect class="legendRect" x="390" y="78" width="20" height="5" fill="#1f1ffc"></rect></g><g><rect class="legendRect" x="390" y="83" width="20" height="5" fill="#0000ff"></rect></g><g><text text-anchor="start" class="legenedText" x="412" y="20" style="font-size: 10px; font-family: sans-serif;">1.57</text></g><g><text text-anchor="start" class="legenedText" x="412" y="90" style="font-size: 10px; font-family: sans-serif;">-2.18</text></g><text x="390" y="105" style="font-size: 10px; font-family: sans-serif;">* p&lt;0.05</text><text x="390" y="120" style="font-size: 10px; font-family: sans-serif;">** p&lt;0.05/11</text><rect class="backbar" x="5" width="31" y="73.33333333333334" height="66.66666666666666" fill="transparent" opacity="0"></rect><rect class="backbar" x="39" width="31" y="73.33333333333334" height="66.66666666666666" fill="transparent" opacity="0"></rect><rect class="backbar" x="73" width="31" y="73.33333333333334" height="66.66666666666666" fill="transparent" opacity="0"></rect><rect class="backbar" x="107" width="31" y="73.33333333333334" height="66.66666666666666" fill="transparent" opacity="0"></rect><rect class="backbar" x="141" width="31" y="73.33333333333334" height="66.66666666666666" fill="transparent" opacity="0"></rect><rect class="backbar" x="175" width="31" y="73.33333333333334" height="66.66666666666666" fill="transparent" opacity="0"></rect><rect class="backbar" x="209" width="31" y="73.33333333333334" height="66.66666666666666" fill="transparent" opacity="0"></rect><rect class="backbar" x="243" width="31" y="73.33333333333334" height="66.66666666666666" fill="transparent" opacity="0"></rect><rect class="backbar" x="277" width="31" y="73.33333333333334" height="66.66666666666666" fill="transparent" opacity="0"></rect><rect class="backbar" x="311" width="31" y="73.33333333333334" height="66.66666666666666" fill="transparent" opacity="0"></rect><rect class="backbar" x="345" width="31" y="73.33333333333334" height="66.66666666666666" fill="transparent" opacity="0"></rect><rect class="bar" x="5" width="31" y="6.666666666666674" height="133.33333333333331" fill="#ff4841"></rect><rect class="bar" x="39" width="31" y="124.180790960452" height="15.819209039548" fill="#0000ff"></rect><rect class="bar" x="73" width="31" y="135.48022598870057" height="4.5197740112994325" fill="#ff0101"></rect><rect class="bar" x="107" width="31" y="135.48022598870057" height="4.5197740112994325" fill="#ff0403"></rect><rect class="bar" x="141" width="31" y="137.74011299435028" height="2.2598870056497162" fill="#ffb09f"></rect><rect class="bar" x="175" width="31" y="140" height="0" fill="#0000ff"></rect><rect class="bar" x="209" width="31" y="140" height="0" fill="#0000ff"></rect><rect class="bar" x="243" width="31" y="140" height="0" fill="#0000ff"></rect><rect class="bar" x="277" width="31" y="140" height="0" fill="#0000ff"></rect><rect class="bar" x="311" width="31" y="140" height="0" fill="#0000ff"></rect><rect class="bar" x="345" width="31" y="140" height="0" fill="#0000ff"></rect><text x="17.09090909090909" y="6.800000000000008" text-anchor="start" style="font-family: sans-serif;">*</text><text x="51.09090909090909" y="126.66440677966104" text-anchor="start" style="font-family: sans-serif;">*</text><text x="255.0909090909091" y="142.8" text-anchor="start" style="font-family: sans-serif;">*</text><g class="x axis" transform="translate(0,140)"><g class="tick" transform="translate(20.5,0)" style="opacity: 1;"><line y2="6" x2="0"></line><text dy="-.45em" y="9" x="0" transform="rotate(-65)" dx="-.65em" style="text-anchor: end; font-family: sans-serif; font-size: 11px;">intronic</text></g><g class="tick" transform="translate(54.5,0)" style="opacity: 1;"><line y2="6" x2="0"></line><text dy="-.45em" y="9" x="0" transform="rotate(-65)" dx="-.65em" style="text-anchor: end; font-family: sans-serif; font-size: 11px;">intergenic</text></g><g class="tick" transform="translate(88.5,0)" style="opacity: 1;"><line y2="6" x2="0"></line><text dy="-.45em" y="9" x="0" transform="rotate(-65)" dx="-.65em" style="text-anchor: end; font-family: sans-serif; font-size: 11px;">UTR3</text></g><g class="tick" transform="translate(122.5,0)" style="opacity: 1;"><line y2="6" x2="0"></line><text dy="-.45em" y="9" x="0" transform="rotate(-65)" dx="-.65em" style="text-anchor: end; font-family: sans-serif; font-size: 11px;">exonic</text></g><g class="tick" transform="translate(156.5,0)" style="opacity: 1;"><line y2="6" x2="0"></line><text dy="-.45em" y="9" x="0" transform="rotate(-65)" dx="-.65em" style="text-anchor: end; font-family: sans-serif; font-size: 11px;">ncRNA_exonic</text></g><g class="tick" transform="translate(190.5,0)" style="opacity: 1;"><line y2="6" x2="0"></line><text dy="-.45em" y="9" x="0" transform="rotate(-65)" dx="-.65em" style="text-anchor: end; font-family: sans-serif; font-size: 11px;">UTR5</text></g><g class="tick" transform="translate(224.5,0)" style="opacity: 1;"><line y2="6" x2="0"></line><text dy="-.45em" y="9" x="0" transform="rotate(-65)" dx="-.65em" style="text-anchor: end; font-family: sans-serif; font-size: 11px;">downstream</text></g><g class="tick" transform="translate(258.5,0)" style="opacity: 1;"><line y2="6" x2="0"></line><text dy="-.45em" y="9" x="0" transform="rotate(-65)" dx="-.65em" style="text-anchor: end; font-family: sans-serif; font-size: 11px;">ncRNA_intronic</text></g><g class="tick" transform="translate(292.5,0)" style="opacity: 1;"><line y2="6" x2="0"></line><text dy="-.45em" y="9" x="0" transform="rotate(-65)" dx="-.65em" style="text-anchor: end; font-family: sans-serif; font-size: 11px;">ncRNA_splicing</text></g><g class="tick" transform="translate(326.5,0)" style="opacity: 1;"><line y2="6" x2="0"></line><text dy="-.45em" y="9" x="0" transform="rotate(-65)" dx="-.65em" style="text-anchor: end; font-family: sans-serif; font-size: 11px;">splicing</text></g><g class="tick" transform="translate(360.5,0)" style="opacity: 1;"><line y2="6" x2="0"></line><text dy="-.45em" y="9" x="0" transform="rotate(-65)" dx="-.65em" style="text-anchor: end; font-family: sans-serif; font-size: 11px;">upstream</text></g><path class="domain" d="M0,6V0H380V6" style="fill: none; stroke: grey;"></path></g><g class="y axis"><g class="tick" transform="translate(0,140)" style="opacity: 1;"><line x2="-6" y2="0"></line><text dy=".32em" x="-9" y="0" style="text-anchor: end; font-family: sans-serif; font-size: 11px;">0.0</text></g><g class="tick" transform="translate(0,107.90960451977402)" style="opacity: 1;"><line x2="-6" y2="0"></line><text dy=".32em" x="-9" y="0" style="text-anchor: end; font-family: sans-serif; font-size: 11px;">0.2</text></g><g class="tick" transform="translate(0,75.81920903954804)" style="opacity: 1;"><line x2="-6" y2="0"></line><text dy=".32em" x="-9" y="0" style="text-anchor: end; font-family: sans-serif; font-size: 11px;">0.4</text></g><g class="tick" transform="translate(0,43.72881355932207)" style="opacity: 1;"><line x2="-6" y2="0"></line><text dy=".32em" x="-9" y="0" style="text-anchor: end; font-family: sans-serif; font-size: 11px;">0.6</text></g><g class="tick" transform="translate(0,11.638418079096073)" style="opacity: 1;"><line x2="-6" y2="0"></line><text dy=".32em" x="-9" y="0" style="text-anchor: end; font-family: sans-serif; font-size: 11px;">0.8</text></g><path class="domain" d="M-6,0H0V140H-6" style="fill: none; stroke: grey;"></path><text transform="rotate(-90)" dy=".71em" style="text-anchor: end; font-family: sans-serif; font-size: 11px;"></text></g><text text-anchor="middle" transform="translate(-28,70)rotate(-90)" style="font-family: sans-serif;">Proportion</text></g></svg>