<svg width="560" height="600"><g transform="translate(80,30)"><g><text transform="translate(150,480)rotate(-70)" style="text-anchor: end; font-size: 11px; font-family: sans-serif;">Adipose_Tissue</text><text transform="translate(180,480)rotate(-70)" style="text-anchor: end; font-size: 11px; font-family: sans-serif;">Adrenal_Gland</text><text transform="translate(330,480)rotate(-70)" style="text-anchor: end; font-size: 11px; font-family: sans-serif;">Bladder</text><text transform="translate(240,480)rotate(-70)" style="text-anchor: end; font-size: 11px; font-family: sans-serif;">Blood</text><text transform="translate(210,480)rotate(-70)" style="text-anchor: end; font-size: 11px; font-family: sans-serif;">Blood_Vessel</text><text transform="translate(345,480)rotate(-70)" style="text-anchor: end; font-size: 11px; font-family: sans-serif;">Brain</text><text transform="translate(390,480)rotate(-70)" style="text-anchor: end; font-size: 11px; font-family: sans-serif;">Breast</text><text transform="translate(405,480)rotate(-70)" style="text-anchor: end; font-size: 11px; font-family: sans-serif;">Cervix_Uteri</text><text transform="translate(270,480)rotate(-70)" style="text-anchor: end; font-size: 11px; font-family: sans-serif;">Colon</text><text transform="translate(195,480)rotate(-70)" style="text-anchor: end; font-size: 11px; font-family: sans-serif;">Esophagus</text><text transform="translate(450,480)rotate(-70)" style="text-anchor: end; font-size: 11px; font-family: sans-serif;">Fallopian_Tube</text><text transform="translate(30,480)rotate(-70)" style="text-anchor: end; font-size: 11px; font-family: sans-serif;">Heart</text><text transform="translate(285,480)rotate(-70)" style="text-anchor: end; font-size: 11px; font-family: sans-serif;">Kidney</text><text transform="translate(120,480)rotate(-70)" style="text-anchor: end; font-size: 11px; font-family: sans-serif;">Liver</text><text transform="translate(420,480)rotate(-70)" style="text-anchor: end; font-size: 11px; font-family: sans-serif;">Lung</text><text transform="translate(15,480)rotate(-70)" style="text-anchor: end; font-size: 11px; font-family: sans-serif;">Muscle</text><text transform="translate(300,480)rotate(-70)" style="text-anchor: end; font-size: 11px; font-family: sans-serif;">Nerve</text><text transform="translate(75,480)rotate(-70)" style="text-anchor: end; font-size: 11px; font-family: sans-serif;">Ovary</text><text transform="translate(225,480)rotate(-70)" style="text-anchor: end; font-size: 11px; font-family: sans-serif;">Pancreas</text><text transform="translate(60,480)rotate(-70)" style="text-anchor: end; font-size: 11px; font-family: sans-serif;">Pituitary</text><text transform="translate(375,480)rotate(-70)" style="text-anchor: end; font-size: 11px; font-family: sans-serif;">Prostate</text><text transform="translate(435,480)rotate(-70)" style="text-anchor: end; font-size: 11px; font-family: sans-serif;">Salivary_Gland</text><text transform="translate(90,480)rotate(-70)" style="text-anchor: end; font-size: 11px; font-family: sans-serif;">Skin</text><text transform="translate(135,480)rotate(-70)" style="text-anchor: end; font-size: 11px; font-family: sans-serif;">Small_Intestine</text><text transform="translate(105,480)rotate(-70)" style="text-anchor: end; font-size: 11px; font-family: sans-serif;">Spleen</text><text transform="translate(165,480)rotate(-70)" style="text-anchor: end; font-size: 11px; font-family: sans-serif;">Stomach</text><text transform="translate(360,480)rotate(-70)" style="text-anchor: end; font-size: 11px; font-family: sans-serif;">Testis</text><text transform="translate(45,480)rotate(-70)" style="text-anchor: end; font-size: 11px; font-family: sans-serif;">Thyroid</text><text transform="translate(255,480)rotate(-70)" style="text-anchor: end; font-size: 11px; font-family: sans-serif;">Uterus</text><text transform="translate(315,480)rotate(-70)" style="text-anchor: end; font-size: 11px; font-family: sans-serif;">Vagina</text></g><rect class="bar" x="135" width="14" y="150" height="0" style="fill: rgb(86, 104, 244); stroke: grey; stroke-width: 0.3;"></rect><rect class="bar" x="165" width="14" y="150" height="0" style="fill: rgb(86, 104, 244); stroke: grey; stroke-width: 0.3;"></rect><rect class="bar" x="315" width="14" y="136.0275551090756" height="13.972444890924407" style="fill: rgb(86, 104, 244); stroke: grey; stroke-width: 0.3;"></rect><rect class="bar" x="225" width="14" y="146.6898420802072" height="3.3101579197928004" style="fill: rgb(86, 104, 244); stroke: grey; stroke-width: 0.3;"></rect><rect class="bar" x="195" width="14" y="147.70926567180783" height="2.2907343281921726" style="fill: rgb(86, 104, 244); stroke: grey; stroke-width: 0.3;"></rect><rect class="bar" x="330" width="14" y="122.04843837632" height="27.951561623680007" style="fill: rgb(86, 104, 244); stroke: grey; stroke-width: 0.3;"></rect><rect class="bar" x="375" width="14" y="150" height="0" style="fill: rgb(86, 104, 244); stroke: grey; stroke-width: 0.3;"></rect><rect class="bar" x="390" width="14" y="142.97721989807295" height="7.022780101927054" style="fill: rgb(86, 104, 244); stroke: grey; stroke-width: 0.3;"></rect><rect class="bar" x="255" width="14" y="129.6498947811092" height="20.350105218890803" style="fill: rgb(86, 104, 244); stroke: grey; stroke-width: 0.3;"></rect><rect class="bar" x="180" width="14" y="123.76037982113104" height="26.23962017886896" style="fill: rgb(86, 104, 244); stroke: grey; stroke-width: 0.3;"></rect><rect class="bar" x="435" width="14" y="150" height="0" style="fill: rgb(86, 104, 244); stroke: grey; stroke-width: 0.3;"></rect><rect class="bar" x="15" width="14" y="150" height="0" style="fill: rgb(86, 104, 244); stroke: grey; stroke-width: 0.3;"></rect><rect class="bar" x="270" width="14" y="150" height="0" style="fill: rgb(86, 104, 244); stroke: grey; stroke-width: 0.3;"></rect><rect class="bar" x="105" width="14" y="143.25544163974413" height="6.744558360255866" style="fill: rgb(86, 104, 244); stroke: grey; stroke-width: 0.3;"></rect><rect class="bar" x="405" width="14" y="150" height="0" style="fill: rgb(86, 104, 244); stroke: grey; stroke-width: 0.3;"></rect><rect class="bar" x="0" width="14" y="120.9328481766631" height="29.0671518233369" style="fill: rgb(86, 104, 244); stroke: grey; stroke-width: 0.3;"></rect><rect class="bar" x="285" width="14" y="149.87882246686362" height="0.12117753313637536" style="fill: rgb(86, 104, 244); stroke: grey; stroke-width: 0.3;"></rect><rect class="bar" x="60" width="14" y="124.93400075159288" height="25.065999248407124" style="fill: rgb(86, 104, 244); stroke: grey; stroke-width: 0.3;"></rect><rect class="bar" x="210" width="14" y="150" height="0" style="fill: rgb(86, 104, 244); stroke: grey; stroke-width: 0.3;"></rect><rect class="bar" x="45" width="14" y="64.81122219322276" height="85.18877780677724" style="fill: rgb(86, 104, 244); stroke: grey; stroke-width: 0.3;"></rect><rect class="bar" x="360" width="14" y="144.35051948425397" height="5.649480515746035" style="fill: rgb(86, 104, 244); stroke: grey; stroke-width: 0.3;"></rect><rect class="bar" x="420" width="14" y="145.22733716261607" height="4.772662837383933" style="fill: rgb(86, 104, 244); stroke: grey; stroke-width: 0.3;"></rect><rect class="bar" x="75" width="14" y="120.88462560742741" height="29.11537439257259" style="fill: rgb(86, 104, 244); stroke: grey; stroke-width: 0.3;"></rect><rect class="bar" x="120" width="14" y="130.6997324080459" height="19.30026759195411" style="fill: rgb(86, 104, 244); stroke: grey; stroke-width: 0.3;"></rect><rect class="bar" x="90" width="14" y="133.83599861458188" height="16.164001385418118" style="fill: rgb(86, 104, 244); stroke: grey; stroke-width: 0.3;"></rect><rect class="bar" x="150" width="14" y="139.60287459138914" height="10.397125408610862" style="fill: rgb(86, 104, 244); stroke: grey; stroke-width: 0.3;"></rect><rect class="bar" x="345" width="14" y="136.88235478302207" height="13.117645216977934" style="fill: rgb(86, 104, 244); stroke: grey; stroke-width: 0.3;"></rect><rect class="bar" x="30" width="14" y="76.67489448277799" height="73.32510551722201" style="fill: rgb(86, 104, 244); stroke: grey; stroke-width: 0.3;"></rect><rect class="bar" x="240" width="14" y="149.83532535250305" height="0.16467464749695182" style="fill: rgb(86, 104, 244); stroke: grey; stroke-width: 0.3;"></rect><rect class="bar" x="300" width="14" y="142.09706137925613" height="7.902938620743868" style="fill: rgb(86, 104, 244); stroke: grey; stroke-width: 0.3;"></rect><g class="y axis"><g class="tick" transform="translate(0,150)" style="opacity: 1;"><line x2="-6" y2="0" style="fill: none; stroke: grey;"></line><text dy=".32em" x="-9" y="0" style="text-anchor: end; font-size: 11px; font-family: sans-serif;">0</text></g><g class="tick" transform="translate(0,105.71812076171028)" style="opacity: 1;"><line x2="-6" y2="0" style="fill: none; stroke: grey;"></line><text dy=".32em" x="-9" y="0" style="text-anchor: end; font-size: 11px; font-family: sans-serif;">1</text></g><g class="tick" transform="translate(0,61.43624152342056)" style="opacity: 1;"><line x2="-6" y2="0" style="fill: none; stroke: grey;"></line><text dy=".32em" x="-9" y="0" style="text-anchor: end; font-size: 11px; font-family: sans-serif;">2</text></g><g class="tick" transform="translate(0,17.154362285130848)" style="opacity: 1;"><line x2="-6" y2="0" style="fill: none; stroke: grey;"></line><text dy=".32em" x="-9" y="0" style="text-anchor: end; font-size: 11px; font-family: sans-serif;">3</text></g><path class="domain" d="M-6,0H0V150H-6" style="fill: none; stroke: grey;"></path></g><g class="x axis" transform="translate(0,150)"><g class="tick" transform="translate(7.5,0)" style="opacity: 1;"><line y2="6" x2="0" style="fill: none; stroke: grey;"></line></g><g class="tick" transform="translate(22.5,0)" style="opacity: 1;"><line y2="6" x2="0" style="fill: none; stroke: grey;"></line></g><g class="tick" transform="translate(37.5,0)" style="opacity: 1;"><line y2="6" x2="0" style="fill: none; stroke: grey;"></line></g><g class="tick" transform="translate(52.5,0)" style="opacity: 1;"><line y2="6" x2="0" style="fill: none; stroke: grey;"></line></g><g class="tick" transform="translate(67.5,0)" style="opacity: 1;"><line y2="6" x2="0" style="fill: none; stroke: grey;"></line></g><g class="tick" transform="translate(82.5,0)" style="opacity: 1;"><line y2="6" x2="0" style="fill: none; stroke: grey;"></line></g><g class="tick" transform="translate(97.5,0)" style="opacity: 1;"><line y2="6" x2="0" style="fill: none; stroke: grey;"></line></g><g class="tick" transform="translate(112.5,0)" style="opacity: 1;"><line y2="6" x2="0" style="fill: none; stroke: grey;"></line></g><g class="tick" transform="translate(127.5,0)" style="opacity: 1;"><line y2="6" x2="0" style="fill: none; stroke: grey;"></line></g><g class="tick" transform="translate(142.5,0)" style="opacity: 1;"><line y2="6" x2="0" style="fill: none; stroke: grey;"></line></g><g class="tick" transform="translate(157.5,0)" style="opacity: 1;"><line y2="6" x2="0" style="fill: none; stroke: grey;"></line></g><g class="tick" transform="translate(172.5,0)" style="opacity: 1;"><line y2="6" x2="0" style="fill: none; stroke: grey;"></line></g><g class="tick" transform="translate(187.5,0)" style="opacity: 1;"><line y2="6" x2="0" style="fill: none; stroke: grey;"></line></g><g class="tick" transform="translate(202.5,0)" style="opacity: 1;"><line y2="6" x2="0" style="fill: none; stroke: grey;"></line></g><g class="tick" transform="translate(217.5,0)" style="opacity: 1;"><line y2="6" x2="0" style="fill: none; stroke: grey;"></line></g><g class="tick" transform="translate(232.5,0)" style="opacity: 1;"><line y2="6" x2="0" style="fill: none; stroke: grey;"></line></g><g class="tick" transform="translate(247.5,0)" style="opacity: 1;"><line y2="6" x2="0" style="fill: none; stroke: grey;"></line></g><g class="tick" transform="translate(262.5,0)" style="opacity: 1;"><line y2="6" x2="0" style="fill: none; stroke: grey;"></line></g><g class="tick" transform="translate(277.5,0)" style="opacity: 1;"><line y2="6" x2="0" style="fill: none; stroke: grey;"></line></g><g class="tick" transform="translate(292.5,0)" style="opacity: 1;"><line y2="6" x2="0" style="fill: none; stroke: grey;"></line></g><g class="tick" transform="translate(307.5,0)" style="opacity: 1;"><line y2="6" x2="0" style="fill: none; stroke: grey;"></line></g><g class="tick" transform="translate(322.5,0)" style="opacity: 1;"><line y2="6" x2="0" style="fill: none; stroke: grey;"></line></g><g class="tick" transform="translate(337.5,0)" style="opacity: 1;"><line y2="6" x2="0" style="fill: none; stroke: grey;"></line></g><g class="tick" transform="translate(352.5,0)" style="opacity: 1;"><line y2="6" x2="0" style="fill: none; stroke: grey;"></line></g><g class="tick" transform="translate(367.5,0)" style="opacity: 1;"><line y2="6" x2="0" style="fill: none; stroke: grey;"></line></g><g class="tick" transform="translate(382.5,0)" style="opacity: 1;"><line y2="6" x2="0" style="fill: none; stroke: grey;"></line></g><g class="tick" transform="translate(397.5,0)" style="opacity: 1;"><line y2="6" x2="0" style="fill: none; stroke: grey;"></line></g><g class="tick" transform="translate(412.5,0)" style="opacity: 1;"><line y2="6" x2="0" style="fill: none; stroke: grey;"></line></g><g class="tick" transform="translate(427.5,0)" style="opacity: 1;"><line y2="6" x2="0" style="fill: none; stroke: grey;"></line></g><g class="tick" transform="translate(442.5,0)" style="opacity: 1;"><line y2="6" x2="0" style="fill: none; stroke: grey;"></line></g><path class="domain" d="M0,6V0H450V6" style="fill: none; stroke: grey;"></path></g><text text-anchor="middle" transform="translate(465,75)rotate(90)" style="font-family: sans-serif;">Up-regulated DEG</text><rect class="bar" x="135" width="14" y="213.9314796321089" height="96.0685203678911" style="fill: rgb(86, 104, 244); stroke: grey; stroke-width: 0.3;"></rect><rect class="bar" x="165" width="14" y="250.63880079627268" height="59.361199203727324" style="fill: rgb(86, 104, 244); stroke: grey; stroke-width: 0.3;"></rect><rect class="bar" x="315" width="14" y="310" height="0" style="fill: rgb(86, 104, 244); stroke: grey; stroke-width: 0.3;"></rect><rect class="bar" x="225" width="14" y="277.96572829359906" height="32.03427170640094" style="fill: rgb(86, 104, 244); stroke: grey; stroke-width: 0.3;"></rect><rect class="bar" x="195" width="14" y="248.67872957984878" height="61.32127042015122" style="fill: rgb(86, 104, 244); stroke: grey; stroke-width: 0.3;"></rect><rect class="bar" x="330" width="14" y="306.4393185112599" height="3.5606814887401015" style="fill: rgb(86, 104, 244); stroke: grey; stroke-width: 0.3;"></rect><rect class="bar" x="375" width="14" y="277.2395224525514" height="32.7604775474486" style="fill: rgb(86, 104, 244); stroke: grey; stroke-width: 0.3;"></rect><rect class="bar" x="390" width="14" y="310" height="0" style="fill: rgb(86, 104, 244); stroke: grey; stroke-width: 0.3;"></rect><rect class="bar" x="255" width="14" y="302.18817165252636" height="7.811828347473636" style="fill: rgb(86, 104, 244); stroke: grey; stroke-width: 0.3;"></rect><rect class="bar" x="180" width="14" y="291.29746370828457" height="18.702536291715433" style="fill: rgb(86, 104, 244); stroke: grey; stroke-width: 0.3;"></rect><rect class="bar" x="435" width="14" y="310" height="0" style="fill: rgb(86, 104, 244); stroke: grey; stroke-width: 0.3;"></rect><rect class="bar" x="15" width="14" y="226.25814958144608" height="83.74185041855392" style="fill: rgb(86, 104, 244); stroke: grey; stroke-width: 0.3;"></rect><rect class="bar" x="270" width="14" y="281.97979404843704" height="28.020205951562957" style="fill: rgb(86, 104, 244); stroke: grey; stroke-width: 0.3;"></rect><rect class="bar" x="105" width="14" y="258.4093212657486" height="51.59067873425141" style="fill: rgb(86, 104, 244); stroke: grey; stroke-width: 0.3;"></rect><rect class="bar" x="405" width="14" y="243.93078594027918" height="66.06921405972082" style="fill: rgb(86, 104, 244); stroke: grey; stroke-width: 0.3;"></rect><rect class="bar" x="0" width="14" y="239.81095302174802" height="70.18904697825198" style="fill: rgb(86, 104, 244); stroke: grey; stroke-width: 0.3;"></rect><rect class="bar" x="285" width="14" y="166.29779665397209" height="143.70220334602791" style="fill: rgb(204, 0, 0); stroke: grey; stroke-width: 0.3;"></rect><rect class="bar" x="60" width="14" y="241.84720660065517" height="68.15279339934483" style="fill: rgb(86, 104, 244); stroke: grey; stroke-width: 0.3;"></rect><rect class="bar" x="210" width="14" y="277.45532050703474" height="32.54467949296526" style="fill: rgb(86, 104, 244); stroke: grey; stroke-width: 0.3;"></rect><rect class="bar" x="45" width="14" y="305.3936338860848" height="4.6063661139152146" style="fill: rgb(86, 104, 244); stroke: grey; stroke-width: 0.3;"></rect><rect class="bar" x="360" width="14" y="294.2713400836806" height="15.728659916319373" style="fill: rgb(86, 104, 244); stroke: grey; stroke-width: 0.3;"></rect><rect class="bar" x="420" width="14" y="310" height="0" style="fill: rgb(86, 104, 244); stroke: grey; stroke-width: 0.3;"></rect><rect class="bar" x="75" width="14" y="261.5433315330179" height="48.45666846698208" style="fill: rgb(86, 104, 244); stroke: grey; stroke-width: 0.3;"></rect><rect class="bar" x="120" width="14" y="263.5289239701112" height="46.47107602988882" style="fill: rgb(86, 104, 244); stroke: grey; stroke-width: 0.3;"></rect><rect class="bar" x="90" width="14" y="234.15410245368884" height="75.84589754631116" style="fill: rgb(86, 104, 244); stroke: grey; stroke-width: 0.3;"></rect><rect class="bar" x="150" width="14" y="272.1185274247972" height="37.88147257520279" style="fill: rgb(86, 104, 244); stroke: grey; stroke-width: 0.3;"></rect><rect class="bar" x="345" width="14" y="302.5741736063569" height="7.425826393643092" style="fill: rgb(86, 104, 244); stroke: grey; stroke-width: 0.3;"></rect><rect class="bar" x="30" width="14" y="298.82714966787313" height="11.17285033212687" style="fill: rgb(86, 104, 244); stroke: grey; stroke-width: 0.3;"></rect><rect class="bar" x="240" width="14" y="160" height="150" style="fill: rgb(204, 0, 0); stroke: grey; stroke-width: 0.3;"></rect><rect class="bar" x="300" width="14" y="292.27144388162407" height="17.728556118375934" style="fill: rgb(86, 104, 244); stroke: grey; stroke-width: 0.3;"></rect><g class="y axis"><g class="tick" transform="translate(0,310)" style="opacity: 1;"><line x2="-6" y2="0" style="fill: none; stroke: grey;"></line><text dy=".32em" x="-9" y="0" style="text-anchor: end; font-family: sans-serif;">0</text></g><g class="tick" transform="translate(0,265.7181207617103)" style="opacity: 1;"><line x2="-6" y2="0" style="fill: none; stroke: grey;"></line><text dy=".32em" x="-9" y="0" style="text-anchor: end; font-family: sans-serif;">1</text></g><g class="tick" transform="translate(0,221.43624152342056)" style="opacity: 1;"><line x2="-6" y2="0" style="fill: none; stroke: grey;"></line><text dy=".32em" x="-9" y="0" style="text-anchor: end; font-family: sans-serif;">2</text></g><g class="tick" transform="translate(0,177.15436228513084)" style="opacity: 1;"><line x2="-6" y2="0" style="fill: none; stroke: grey;"></line><text dy=".32em" x="-9" y="0" style="text-anchor: end; font-family: sans-serif;">3</text></g><path class="domain" d="M-6,160H0V310H-6" style="fill: none; stroke: grey;"></path></g><g class="x axis" transform="translate(0, 310)"><g class="tick" transform="translate(7.5,0)" style="opacity: 1;"><line y2="6" x2="0" style="fill: none; stroke: grey;"></line></g><g class="tick" transform="translate(22.5,0)" style="opacity: 1;"><line y2="6" x2="0" style="fill: none; stroke: grey;"></line></g><g class="tick" transform="translate(37.5,0)" style="opacity: 1;"><line y2="6" x2="0" style="fill: none; stroke: grey;"></line></g><g class="tick" transform="translate(52.5,0)" style="opacity: 1;"><line y2="6" x2="0" style="fill: none; stroke: grey;"></line></g><g class="tick" transform="translate(67.5,0)" style="opacity: 1;"><line y2="6" x2="0" style="fill: none; stroke: grey;"></line></g><g class="tick" transform="translate(82.5,0)" style="opacity: 1;"><line y2="6" x2="0" style="fill: none; stroke: grey;"></line></g><g class="tick" transform="translate(97.5,0)" style="opacity: 1;"><line y2="6" x2="0" style="fill: none; stroke: grey;"></line></g><g class="tick" transform="translate(112.5,0)" style="opacity: 1;"><line y2="6" x2="0" style="fill: none; stroke: grey;"></line></g><g class="tick" transform="translate(127.5,0)" style="opacity: 1;"><line y2="6" x2="0" style="fill: none; stroke: grey;"></line></g><g class="tick" transform="translate(142.5,0)" style="opacity: 1;"><line y2="6" x2="0" style="fill: none; stroke: grey;"></line></g><g class="tick" transform="translate(157.5,0)" style="opacity: 1;"><line y2="6" x2="0" style="fill: none; stroke: grey;"></line></g><g class="tick" transform="translate(172.5,0)" style="opacity: 1;"><line y2="6" x2="0" style="fill: none; stroke: grey;"></line></g><g class="tick" transform="translate(187.5,0)" style="opacity: 1;"><line y2="6" x2="0" style="fill: none; stroke: grey;"></line></g><g class="tick" transform="translate(202.5,0)" style="opacity: 1;"><line y2="6" x2="0" style="fill: none; stroke: grey;"></line></g><g class="tick" transform="translate(217.5,0)" style="opacity: 1;"><line y2="6" x2="0" style="fill: none; stroke: grey;"></line></g><g class="tick" transform="translate(232.5,0)" style="opacity: 1;"><line y2="6" x2="0" style="fill: none; stroke: grey;"></line></g><g class="tick" transform="translate(247.5,0)" style="opacity: 1;"><line y2="6" x2="0" style="fill: none; stroke: grey;"></line></g><g class="tick" transform="translate(262.5,0)" style="opacity: 1;"><line y2="6" x2="0" style="fill: none; stroke: grey;"></line></g><g class="tick" transform="translate(277.5,0)" style="opacity: 1;"><line y2="6" x2="0" style="fill: none; stroke: grey;"></line></g><g class="tick" transform="translate(292.5,0)" style="opacity: 1;"><line y2="6" x2="0" style="fill: none; stroke: grey;"></line></g><g class="tick" transform="translate(307.5,0)" style="opacity: 1;"><line y2="6" x2="0" style="fill: none; stroke: grey;"></line></g><g class="tick" transform="translate(322.5,0)" style="opacity: 1;"><line y2="6" x2="0" style="fill: none; stroke: grey;"></line></g><g class="tick" transform="translate(337.5,0)" style="opacity: 1;"><line y2="6" x2="0" style="fill: none; stroke: grey;"></line></g><g class="tick" transform="translate(352.5,0)" style="opacity: 1;"><line y2="6" x2="0" style="fill: none; stroke: grey;"></line></g><g class="tick" transform="translate(367.5,0)" style="opacity: 1;"><line y2="6" x2="0" style="fill: none; stroke: grey;"></line></g><g class="tick" transform="translate(382.5,0)" style="opacity: 1;"><line y2="6" x2="0" style="fill: none; stroke: grey;"></line></g><g class="tick" transform="translate(397.5,0)" style="opacity: 1;"><line y2="6" x2="0" style="fill: none; stroke: grey;"></line></g><g class="tick" transform="translate(412.5,0)" style="opacity: 1;"><line y2="6" x2="0" style="fill: none; stroke: grey;"></line></g><g class="tick" transform="translate(427.5,0)" style="opacity: 1;"><line y2="6" x2="0" style="fill: none; stroke: grey;"></line></g><g class="tick" transform="translate(442.5,0)" style="opacity: 1;"><line y2="6" x2="0" style="fill: none; stroke: grey;"></line></g><path class="domain" d="M0,6V0H450V6" style="fill: none; stroke: grey;"></path></g><text text-anchor="middle" transform="translate(465,235)rotate(90)" style="font-family: sans-serif;">Down-regulated DEG</text><rect class="bar" x="135" width="14" y="430.4783634531035" height="39.5216365468965" style="fill: rgb(86, 104, 244); stroke: grey; stroke-width: 0.3;"></rect><rect class="bar" x="165" width="14" y="437.3305474947007" height="32.66945250529932" style="fill: rgb(86, 104, 244); stroke: grey; stroke-width: 0.3;"></rect><rect class="bar" x="315" width="14" y="457.6079174124638" height="12.392082587536208" style="fill: rgb(86, 104, 244); stroke: grey; stroke-width: 0.3;"></rect><rect class="bar" x="225" width="14" y="448.45470060606743" height="21.545299393932567" style="fill: rgb(86, 104, 244); stroke: grey; stroke-width: 0.3;"></rect><rect class="bar" x="195" width="14" y="443.3751662083139" height="26.624833791686115" style="fill: rgb(86, 104, 244); stroke: grey; stroke-width: 0.3;"></rect><rect class="bar" x="330" width="14" y="458.1397851228015" height="11.860214877198473" style="fill: rgb(86, 104, 244); stroke: grey; stroke-width: 0.3;"></rect><rect class="bar" x="375" width="14" y="462.7526409269351" height="7.247359073064899" style="fill: rgb(86, 104, 244); stroke: grey; stroke-width: 0.3;"></rect><rect class="bar" x="390" width="14" y="463.2094187846578" height="6.790581215342172" style="fill: rgb(86, 104, 244); stroke: grey; stroke-width: 0.3;"></rect><rect class="bar" x="255" width="14" y="452.6648574286075" height="17.33514257139251" style="fill: rgb(86, 104, 244); stroke: grey; stroke-width: 0.3;"></rect><rect class="bar" x="180" width="14" y="438.0003878424733" height="31.999612157526713" style="fill: rgb(86, 104, 244); stroke: grey; stroke-width: 0.3;"></rect><rect class="bar" x="435" width="14" y="470" height="0" style="fill: rgb(86, 104, 244); stroke: grey; stroke-width: 0.3;"></rect><rect class="bar" x="15" width="14" y="396.7470970782067" height="73.2529029217933" style="fill: rgb(86, 104, 244); stroke: grey; stroke-width: 0.3;"></rect><rect class="bar" x="270" width="14" y="453.9140626541681" height="16.085937345831894" style="fill: rgb(86, 104, 244); stroke: grey; stroke-width: 0.3;"></rect><rect class="bar" x="105" width="14" y="423.5328577516039" height="46.4671422483961" style="fill: rgb(86, 104, 244); stroke: grey; stroke-width: 0.3;"></rect><rect class="bar" x="405" width="14" y="465.41847533773415" height="4.581524662265849" style="fill: rgb(86, 104, 244); stroke: grey; stroke-width: 0.3;"></rect><rect class="bar" x="0" width="14" y="380.97780764535617" height="89.02219235464383" style="fill: rgb(86, 104, 244); stroke: grey; stroke-width: 0.3;"></rect><rect class="bar" x="285" width="14" y="454.07655343324086" height="15.92344656675914" style="fill: rgb(86, 104, 244); stroke: grey; stroke-width: 0.3;"></rect><rect class="bar" x="60" width="14" y="405.90864106203117" height="64.09135893796883" style="fill: rgb(86, 104, 244); stroke: grey; stroke-width: 0.3;"></rect><rect class="bar" x="210" width="14" y="444.1615335147038" height="25.83846648529618" style="fill: rgb(86, 104, 244); stroke: grey; stroke-width: 0.3;"></rect><rect class="bar" x="45" width="14" y="403.70280691692943" height="66.29719308307057" style="fill: rgb(86, 104, 244); stroke: grey; stroke-width: 0.3;"></rect><rect class="bar" x="360" width="14" y="461.0281840797717" height="8.971815920228323" style="fill: rgb(86, 104, 244); stroke: grey; stroke-width: 0.3;"></rect><rect class="bar" x="420" width="14" y="469.11977755150235" height="0.8802224484976477" style="fill: rgb(86, 104, 244); stroke: grey; stroke-width: 0.3;"></rect><rect class="bar" x="75" width="14" y="408.00326705054295" height="61.996732949457055" style="fill: rgb(86, 104, 244); stroke: grey; stroke-width: 0.3;"></rect><rect class="bar" x="120" width="14" y="424.28028882377663" height="45.71971117622337" style="fill: rgb(86, 104, 244); stroke: grey; stroke-width: 0.3;"></rect><rect class="bar" x="90" width="14" y="409.2019625014572" height="60.79803749854278" style="fill: rgb(86, 104, 244); stroke: grey; stroke-width: 0.3;"></rect><rect class="bar" x="150" width="14" y="433.95277112699625" height="36.047228873003746" style="fill: rgb(86, 104, 244); stroke: grey; stroke-width: 0.3;"></rect><rect class="bar" x="345" width="14" y="458.7155174140805" height="11.284482585919477" style="fill: rgb(86, 104, 244); stroke: grey; stroke-width: 0.3;"></rect><rect class="bar" x="30" width="14" y="397.1178570821797" height="72.88214291782032" style="fill: rgb(86, 104, 244); stroke: grey; stroke-width: 0.3;"></rect><rect class="bar" x="240" width="14" y="451.29334296304216" height="18.706657036957836" style="fill: rgb(86, 104, 244); stroke: grey; stroke-width: 0.3;"></rect><rect class="bar" x="300" width="14" y="457.4486433976625" height="12.551356602337478" style="fill: rgb(86, 104, 244); stroke: grey; stroke-width: 0.3;"></rect><text text-anchor="middle" transform="translate(465,395)rotate(90)" style="font-family: sans-serif;">DEG (both side)</text><g class="x axis" transform="translate(0,470)"><g class="tick" transform="translate(7.5,0)" style="opacity: 1;"><line y2="6" x2="0" style="fill: none; stroke: grey;"></line></g><g class="tick" transform="translate(22.5,0)" style="opacity: 1;"><line y2="6" x2="0" style="fill: none; stroke: grey;"></line></g><g class="tick" transform="translate(37.5,0)" style="opacity: 1;"><line y2="6" x2="0" style="fill: none; stroke: grey;"></line></g><g class="tick" transform="translate(52.5,0)" style="opacity: 1;"><line y2="6" x2="0" style="fill: none; stroke: grey;"></line></g><g class="tick" transform="translate(67.5,0)" style="opacity: 1;"><line y2="6" x2="0" style="fill: none; stroke: grey;"></line></g><g class="tick" transform="translate(82.5,0)" style="opacity: 1;"><line y2="6" x2="0" style="fill: none; stroke: grey;"></line></g><g class="tick" transform="translate(97.5,0)" style="opacity: 1;"><line y2="6" x2="0" style="fill: none; stroke: grey;"></line></g><g class="tick" transform="translate(112.5,0)" style="opacity: 1;"><line y2="6" x2="0" style="fill: none; stroke: grey;"></line></g><g class="tick" transform="translate(127.5,0)" style="opacity: 1;"><line y2="6" x2="0" style="fill: none; stroke: grey;"></line></g><g class="tick" transform="translate(142.5,0)" style="opacity: 1;"><line y2="6" x2="0" style="fill: none; stroke: grey;"></line></g><g class="tick" transform="translate(157.5,0)" style="opacity: 1;"><line y2="6" x2="0" style="fill: none; stroke: grey;"></line></g><g class="tick" transform="translate(172.5,0)" style="opacity: 1;"><line y2="6" x2="0" style="fill: none; stroke: grey;"></line></g><g class="tick" transform="translate(187.5,0)" style="opacity: 1;"><line y2="6" x2="0" style="fill: none; stroke: grey;"></line></g><g class="tick" transform="translate(202.5,0)" style="opacity: 1;"><line y2="6" x2="0" style="fill: none; stroke: grey;"></line></g><g class="tick" transform="translate(217.5,0)" style="opacity: 1;"><line y2="6" x2="0" style="fill: none; stroke: grey;"></line></g><g class="tick" transform="translate(232.5,0)" style="opacity: 1;"><line y2="6" x2="0" style="fill: none; stroke: grey;"></line></g><g class="tick" transform="translate(247.5,0)" style="opacity: 1;"><line y2="6" x2="0" style="fill: none; stroke: grey;"></line></g><g class="tick" transform="translate(262.5,0)" style="opacity: 1;"><line y2="6" x2="0" style="fill: none; stroke: grey;"></line></g><g class="tick" transform="translate(277.5,0)" style="opacity: 1;"><line y2="6" x2="0" style="fill: none; stroke: grey;"></line></g><g class="tick" transform="translate(292.5,0)" style="opacity: 1;"><line y2="6" x2="0" style="fill: none; stroke: grey;"></line></g><g class="tick" transform="translate(307.5,0)" style="opacity: 1;"><line y2="6" x2="0" style="fill: none; stroke: grey;"></line></g><g class="tick" transform="translate(322.5,0)" style="opacity: 1;"><line y2="6" x2="0" style="fill: none; stroke: grey;"></line></g><g class="tick" transform="translate(337.5,0)" style="opacity: 1;"><line y2="6" x2="0" style="fill: none; stroke: grey;"></line></g><g class="tick" transform="translate(352.5,0)" style="opacity: 1;"><line y2="6" x2="0" style="fill: none; stroke: grey;"></line></g><g class="tick" transform="translate(367.5,0)" style="opacity: 1;"><line y2="6" x2="0" style="fill: none; stroke: grey;"></line></g><g class="tick" transform="translate(382.5,0)" style="opacity: 1;"><line y2="6" x2="0" style="fill: none; stroke: grey;"></line></g><g class="tick" transform="translate(397.5,0)" style="opacity: 1;"><line y2="6" x2="0" style="fill: none; stroke: grey;"></line></g><g class="tick" transform="translate(412.5,0)" style="opacity: 1;"><line y2="6" x2="0" style="fill: none; stroke: grey;"></line></g><g class="tick" transform="translate(427.5,0)" style="opacity: 1;"><line y2="6" x2="0" style="fill: none; stroke: grey;"></line></g><g class="tick" transform="translate(442.5,0)" style="opacity: 1;"><line y2="6" x2="0" style="fill: none; stroke: grey;"></line></g><path class="domain" d="M0,6V0H450V6" style="fill: none; stroke: grey;"></path></g><g class="y axis"><g class="tick" transform="translate(0,470)" style="opacity: 1;"><line x2="-6" y2="0" style="fill: none; stroke: grey;"></line><text dy=".32em" x="-9" y="0" style="text-anchor: end; font-family: sans-serif;">0</text></g><g class="tick" transform="translate(0,425.7181207617102)" style="opacity: 1;"><line x2="-6" y2="0" style="fill: none; stroke: grey;"></line><text dy=".32em" x="-9" y="0" style="text-anchor: end; font-family: sans-serif;">1</text></g><g class="tick" transform="translate(0,381.43624152342056)" style="opacity: 1;"><line x2="-6" y2="0" style="fill: none; stroke: grey;"></line><text dy=".32em" x="-9" y="0" style="text-anchor: end; font-family: sans-serif;">2</text></g><g class="tick" transform="translate(0,337.15436228513084)" style="opacity: 1;"><line x2="-6" y2="0" style="fill: none; stroke: grey;"></line><text dy=".32em" x="-9" y="0" style="text-anchor: end; font-family: sans-serif;">3</text></g><path class="domain" d="M-6,320H0V470H-6" style="fill: none; stroke: grey;"></path></g><text text-anchor="middle" transform="translate(-35,235)rotate(-90)" style="font-family: sans-serif;">-log 10 P-value</text></g></svg>