<svg class="plotSVG" width="810" height="280"><g transform="translate(180,60)"><rect class="bar" x="0" width="20.714018206051954" y="1.4851485148514854" height="13.366336633663368" fill="lightgreen"></rect><rect class="bar" x="0" width="52.896260306948136" y="16.33663366336634" height="13.366336633663368" fill="lightgreen"></rect><rect class="bar" x="0" width="27.896090074435744" y="31.18811881188119" height="13.366336633663368" fill="lightgreen"></rect><rect class="bar" x="0" width="29.26143048271636" y="46.03960396039604" height="13.366336633663368" fill="lightgreen"></rect><rect class="bar" x="0" width="11.185410947589823" y="60.8910891089109" height="13.366336633663368" fill="lightgreen"></rect><rect class="bar" x="0" width="5.3941008760038995" y="75.74257425742574" height="13.366336633663368" fill="lightgreen"></rect><rect class="bar" x="0" width="11.825535633447789" y="90.5940594059406" height="13.366336633663368" fill="lightgreen"></rect><rect class="bar" x="0" width="42.73935636978537" y="105.44554455445545" height="13.366336633663368" fill="lightgreen"></rect><rect class="bar" x="0" width="140" y="120.2970297029703" height="13.366336633663368" fill="lightgreen"></rect><rect class="bar" x="0" width="11.737090385898192" y="135.14851485148515" height="13.366336633663368" fill="lightgreen"></rect><g class="x axis" transform="translate(0,150)"><g class="tick" transform="translate(0,0)" style="opacity: 1;"><line y2="6" x2="0" style="fill: none; stroke: grey;"></line><text dy=".71em" y="9" x="0" transform="translate(-12,3)rotate(-65)" style="text-anchor: end; font-family: sans-serif; font-size: 11px;">0</text></g><g class="tick" transform="translate(17.653742025867775,0)" style="opacity: 1;"><line y2="6" x2="0" style="fill: none; stroke: grey;"></line><text dy=".71em" y="9" x="0" transform="translate(-12,3)rotate(-65)" style="text-anchor: end; font-family: sans-serif; font-size: 11px;">100</text></g><g class="tick" transform="translate(35.30748405173555,0)" style="opacity: 1;"><line y2="6" x2="0" style="fill: none; stroke: grey;"></line><text dy=".71em" y="9" x="0" transform="translate(-12,3)rotate(-65)" style="text-anchor: end; font-family: sans-serif; font-size: 11px;">200</text></g><g class="tick" transform="translate(52.96122607760333,0)" style="opacity: 1;"><line y2="6" x2="0" style="fill: none; stroke: grey;"></line><text dy=".71em" y="9" x="0" transform="translate(-12,3)rotate(-65)" style="text-anchor: end; font-family: sans-serif; font-size: 11px;">300</text></g><g class="tick" transform="translate(70.6149681034711,0)" style="opacity: 1;"><line y2="6" x2="0" style="fill: none; stroke: grey;"></line><text dy=".71em" y="9" x="0" transform="translate(-12,3)rotate(-65)" style="text-anchor: end; font-family: sans-serif; font-size: 11px;">400</text></g><g class="tick" transform="translate(88.26871012933888,0)" style="opacity: 1;"><line y2="6" x2="0" style="fill: none; stroke: grey;"></line><text dy=".71em" y="9" x="0" transform="translate(-12,3)rotate(-65)" style="text-anchor: end; font-family: sans-serif; font-size: 11px;">500</text></g><g class="tick" transform="translate(105.92245215520666,0)" style="opacity: 1;"><line y2="6" x2="0" style="fill: none; stroke: grey;"></line><text dy=".71em" y="9" x="0" transform="translate(-12,3)rotate(-65)" style="text-anchor: end; font-family: sans-serif; font-size: 11px;">600</text></g><g class="tick" transform="translate(123.57619418107443,0)" style="opacity: 1;"><line y2="6" x2="0" style="fill: none; stroke: grey;"></line><text dy=".71em" y="9" x="0" transform="translate(-12,3)rotate(-65)" style="text-anchor: end; font-family: sans-serif; font-size: 11px;">700</text></g><path class="domain" d="M0,6V0H140V6" style="fill: none; stroke: grey;"></path></g><g class="y axis"><g class="tick" transform="translate(0,8.16831683168317)" style="opacity: 1;"><line x2="-6" y2="0" style="fill: none; stroke: grey;"></line><text dy=".32em" x="-9" y="0" style="text-anchor: end; font-family: sans-serif; font-size: 11px;">2:149959855-150077190</text></g><g class="tick" transform="translate(0,23.01980198019802)" style="opacity: 1;"><line x2="-6" y2="0" style="fill: none; stroke: grey;"></line><text dy=".32em" x="-9" y="0" style="text-anchor: end; font-family: sans-serif; font-size: 11px;">3:89451721-89751353</text></g><g class="tick" transform="translate(0,37.87128712871287)" style="opacity: 1;"><line x2="-6" y2="0" style="fill: none; stroke: grey;"></line><text dy=".32em" x="-9" y="0" style="text-anchor: end; font-family: sans-serif; font-size: 11px;">3:104647183-104805201</text></g><g class="tick" transform="translate(0,52.722772277227726)" style="opacity: 1;"><line x2="-6" y2="0" style="fill: none; stroke: grey;"></line><text dy=".32em" x="-9" y="0" style="text-anchor: end; font-family: sans-serif; font-size: 11px;">6:39464712-39630464</text></g><g class="tick" transform="translate(0,67.57425742574259)" style="opacity: 1;"><line x2="-6" y2="0" style="fill: none; stroke: grey;"></line><text dy=".32em" x="-9" y="0" style="text-anchor: end; font-family: sans-serif; font-size: 11px;">9:101609299-101672659</text></g><g class="tick" transform="translate(0,82.42574257425743)" style="opacity: 1;"><line x2="-6" y2="0" style="fill: none; stroke: grey;"></line><text dy=".32em" x="-9" y="0" style="text-anchor: end; font-family: sans-serif; font-size: 11px;">14:59064730-59095285</text></g><g class="tick" transform="translate(0,97.27722772277228)" style="opacity: 1;"><line x2="-6" y2="0" style="fill: none; stroke: grey;"></line><text dy=".32em" x="-9" y="0" style="text-anchor: end; font-family: sans-serif; font-size: 11px;">15:39597014-39664000</text></g><g class="tick" transform="translate(0,112.12871287128714)" style="opacity: 1;"><line x2="-6" y2="0" style="fill: none; stroke: grey;"></line><text dy=".32em" x="-9" y="0" style="text-anchor: end; font-family: sans-serif; font-size: 11px;">16:89930656-90172754</text></g><g class="tick" transform="translate(0,126.98019801980199)" style="opacity: 1;"><line x2="-6" y2="0" style="fill: none; stroke: grey;"></line><text dy=".32em" x="-9" y="0" style="text-anchor: end; font-family: sans-serif; font-size: 11px;">17:44040184-44833217</text></g><g class="tick" transform="translate(0,141.83168316831683)" style="opacity: 1;"><line x2="-6" y2="0" style="fill: none; stroke: grey;"></line><text dy=".32em" x="-9" y="0" style="text-anchor: end; font-family: sans-serif; font-size: 11px;">21:46786997-46853482</text></g><path class="domain" d="M-6,0H0V150H-6" style="fill: none; stroke: grey;"></path><text transform="rotate(-90)" dy=".71em" style="text-anchor: end; font-family: sans-serif; font-size: 11px;"></text></g><text text-anchor="middle" transform="translate(-50,-5)" style="font-family: sans-serif;">Genomic loci</text><text text-anchor="middle" transform="translate(70,-5)" style="text-anchor: middle; font-family: sans-serif;">Size (kb)</text><text text-anchor="middle" transform="translate(70,200)" style="text-anchor: middle; font-family: sans-serif;">Size (kb)</text><rect class="bar" x="150" width="94.15929203539824" y="1.4851485148514854" height="13.366336633663368" fill="skyblue"></rect><rect class="bar" x="150" width="27.256637168141594" y="16.33663366336634" height="13.366336633663368" fill="skyblue"></rect><rect class="bar" x="150" width="140" y="31.18811881188119" height="13.366336633663368" fill="skyblue"></rect><rect class="bar" x="150" width="39.02654867256638" y="46.03960396039604" height="13.366336633663368" fill="skyblue"></rect><rect class="bar" x="150" width="22.300884955752224" y="60.8910891089109" height="13.366336633663368" fill="skyblue"></rect><rect class="bar" x="150" width="15.486725663716811" y="75.74257425742574" height="13.366336633663368" fill="skyblue"></rect><rect class="bar" x="150" width="16.725663716814182" y="90.5940594059406" height="13.366336633663368" fill="skyblue"></rect><rect class="bar" x="150" width="118.31858407079648" y="105.44554455445545" height="13.366336633663368" fill="skyblue"></rect><rect class="bar" x="150" width="34.07079646017701" y="120.2970297029703" height="13.366336633663368" fill="skyblue"></rect><rect class="bar" x="150" width="9.292035398230098" y="135.14851485148515" height="13.366336633663368" fill="skyblue"></rect><g class="x axis" transform="translate(0,150)"><g class="tick" transform="translate(150,0)" style="opacity: 1;"><line y2="6" x2="0" style="fill: none; stroke: grey;"></line><text dy=".71em" y="9" x="0" transform="translate(-12,3)rotate(-65)" style="text-anchor: end; font-family: sans-serif; font-size: 11px;">0</text></g><g class="tick" transform="translate(162.38938053097345,0)" style="opacity: 1;"><line y2="6" x2="0" style="fill: none; stroke: grey;"></line><text dy=".71em" y="9" x="0" transform="translate(-12,3)rotate(-65)" style="text-anchor: end; font-family: sans-serif; font-size: 11px;">20</text></g><g class="tick" transform="translate(174.77876106194688,0)" style="opacity: 1;"><line y2="6" x2="0" style="fill: none; stroke: grey;"></line><text dy=".71em" y="9" x="0" transform="translate(-12,3)rotate(-65)" style="text-anchor: end; font-family: sans-serif; font-size: 11px;">40</text></g><g class="tick" transform="translate(187.1681415929204,0)" style="opacity: 1;"><line y2="6" x2="0" style="fill: none; stroke: grey;"></line><text dy=".71em" y="9" x="0" transform="translate(-12,3)rotate(-65)" style="text-anchor: end; font-family: sans-serif; font-size: 11px;">60</text></g><g class="tick" transform="translate(199.55752212389382,0)" style="opacity: 1;"><line y2="6" x2="0" style="fill: none; stroke: grey;"></line><text dy=".71em" y="9" x="0" transform="translate(-12,3)rotate(-65)" style="text-anchor: end; font-family: sans-serif; font-size: 11px;">80</text></g><g class="tick" transform="translate(211.94690265486727,0)" style="opacity: 1;"><line y2="6" x2="0" style="fill: none; stroke: grey;"></line><text dy=".71em" y="9" x="0" transform="translate(-12,3)rotate(-65)" style="text-anchor: end; font-family: sans-serif; font-size: 11px;">100</text></g><g class="tick" transform="translate(224.33628318584073,0)" style="opacity: 1;"><line y2="6" x2="0" style="fill: none; stroke: grey;"></line><text dy=".71em" y="9" x="0" transform="translate(-12,3)rotate(-65)" style="text-anchor: end; font-family: sans-serif; font-size: 11px;">120</text></g><g class="tick" transform="translate(236.72566371681415,0)" style="opacity: 1;"><line y2="6" x2="0" style="fill: none; stroke: grey;"></line><text dy=".71em" y="9" x="0" transform="translate(-12,3)rotate(-65)" style="text-anchor: end; font-family: sans-serif; font-size: 11px;">140</text></g><g class="tick" transform="translate(249.11504424778758,0)" style="opacity: 1;"><line y2="6" x2="0" style="fill: none; stroke: grey;"></line><text dy=".71em" y="9" x="0" transform="translate(-12,3)rotate(-65)" style="text-anchor: end; font-family: sans-serif; font-size: 11px;">160</text></g><g class="tick" transform="translate(261.50442477876106,0)" style="opacity: 1;"><line y2="6" x2="0" style="fill: none; stroke: grey;"></line><text dy=".71em" y="9" x="0" transform="translate(-12,3)rotate(-65)" style="text-anchor: end; font-family: sans-serif; font-size: 11px;">180</text></g><g class="tick" transform="translate(273.89380530973455,0)" style="opacity: 1;"><line y2="6" x2="0" style="fill: none; stroke: grey;"></line><text dy=".71em" y="9" x="0" transform="translate(-12,3)rotate(-65)" style="text-anchor: end; font-family: sans-serif; font-size: 11px;">200</text></g><g class="tick" transform="translate(286.283185840708,0)" style="opacity: 1;"><line y2="6" x2="0" style="fill: none; stroke: grey;"></line><text dy=".71em" y="9" x="0" transform="translate(-12,3)rotate(-65)" style="text-anchor: end; font-family: sans-serif; font-size: 11px;">220</text></g><path class="domain" d="M150,6V0H290V6" style="fill: none; stroke: grey;"></path></g><g class="y axis" transform="translate(150,0)"><g class="tick" transform="translate(0,8.16831683168317)" style="opacity: 1;"><line x2="-6" y2="0" style="fill: none; stroke: grey;"></line></g><g class="tick" transform="translate(0,23.01980198019802)" style="opacity: 1;"><line x2="-6" y2="0" style="fill: none; stroke: grey;"></line></g><g class="tick" transform="translate(0,37.87128712871287)" style="opacity: 1;"><line x2="-6" y2="0" style="fill: none; stroke: grey;"></line></g><g class="tick" transform="translate(0,52.722772277227726)" style="opacity: 1;"><line x2="-6" y2="0" style="fill: none; stroke: grey;"></line></g><g class="tick" transform="translate(0,67.57425742574259)" style="opacity: 1;"><line x2="-6" y2="0" style="fill: none; stroke: grey;"></line></g><g class="tick" transform="translate(0,82.42574257425743)" style="opacity: 1;"><line x2="-6" y2="0" style="fill: none; stroke: grey;"></line></g><g class="tick" transform="translate(0,97.27722772277228)" style="opacity: 1;"><line x2="-6" y2="0" style="fill: none; stroke: grey;"></line></g><g class="tick" transform="translate(0,112.12871287128714)" style="opacity: 1;"><line x2="-6" y2="0" style="fill: none; stroke: grey;"></line></g><g class="tick" transform="translate(0,126.98019801980199)" style="opacity: 1;"><line x2="-6" y2="0" style="fill: none; stroke: grey;"></line></g><g class="tick" transform="translate(0,141.83168316831683)" style="opacity: 1;"><line x2="-6" y2="0" style="fill: none; stroke: grey;"></line></g><path class="domain" d="M-6,0H0V150H-6" style="fill: none; stroke: grey;"></path></g><text text-anchor="middle" transform="translate(220,-5)" style="text-anchor: middle; font-family: sans-serif;">#SNPs</text><text text-anchor="middle" transform="translate(220,200)" style="text-anchor: middle; font-family: sans-serif;">#SNPs</text><rect class="bar" x="300" width="12.727272727272691" y="1.4851485148514854" height="13.366336633663368" fill="orange"></rect><rect class="bar" x="300" width="12.727272727272691" y="16.33663366336634" height="13.366336633663368" fill="orange"></rect><rect class="bar" x="300" width="0" y="31.18811881188119" height="13.366336633663368" fill="orange"></rect><rect class="bar" x="300" width="12.727272727272691" y="46.03960396039604" height="13.366336633663368" fill="orange"></rect><rect class="bar" x="300" width="12.727272727272691" y="60.8910891089109" height="13.366336633663368" fill="orange"></rect><rect class="bar" x="300" width="12.727272727272691" y="75.74257425742574" height="13.366336633663368" fill="orange"></rect><rect class="bar" x="300" width="0" y="90.5940594059406" height="13.366336633663368" fill="orange"></rect><rect class="bar" x="300" width="140" y="105.44554455445545" height="13.366336633663368" fill="orange"></rect><rect class="bar" x="300" width="89.09090909090912" y="120.2970297029703" height="13.366336633663368" fill="orange"></rect><rect class="bar" x="300" width="12.727272727272691" y="135.14851485148515" height="13.366336633663368" fill="orange"></rect><g class="x axis" transform="translate(0,150)"><g class="tick" transform="translate(300,0)" style="opacity: 1;"><line y2="6" x2="0" style="fill: none; stroke: grey;"></line><text dy=".71em" y="9" x="0" transform="translate(-12,3)rotate(-65)" style="text-anchor: end; font-family: sans-serif; font-size: 11px;">0</text></g><g class="tick" transform="translate(312.7272727272727,0)" style="opacity: 1;"><line y2="6" x2="0" style="fill: none; stroke: grey;"></line><text dy=".71em" y="9" x="0" transform="translate(-12,3)rotate(-65)" style="text-anchor: end; font-family: sans-serif; font-size: 11px;">1</text></g><g class="tick" transform="translate(325.45454545454544,0)" style="opacity: 1;"><line y2="6" x2="0" style="fill: none; stroke: grey;"></line><text dy=".71em" y="9" x="0" transform="translate(-12,3)rotate(-65)" style="text-anchor: end; font-family: sans-serif; font-size: 11px;">2</text></g><g class="tick" transform="translate(338.1818181818182,0)" style="opacity: 1;"><line y2="6" x2="0" style="fill: none; stroke: grey;"></line><text dy=".71em" y="9" x="0" transform="translate(-12,3)rotate(-65)" style="text-anchor: end; font-family: sans-serif; font-size: 11px;">3</text></g><g class="tick" transform="translate(350.9090909090909,0)" style="opacity: 1;"><line y2="6" x2="0" style="fill: none; stroke: grey;"></line><text dy=".71em" y="9" x="0" transform="translate(-12,3)rotate(-65)" style="text-anchor: end; font-family: sans-serif; font-size: 11px;">4</text></g><g class="tick" transform="translate(363.6363636363636,0)" style="opacity: 1;"><line y2="6" x2="0" style="fill: none; stroke: grey;"></line><text dy=".71em" y="9" x="0" transform="translate(-12,3)rotate(-65)" style="text-anchor: end; font-family: sans-serif; font-size: 11px;">5</text></g><g class="tick" transform="translate(376.3636363636364,0)" style="opacity: 1;"><line y2="6" x2="0" style="fill: none; stroke: grey;"></line><text dy=".71em" y="9" x="0" transform="translate(-12,3)rotate(-65)" style="text-anchor: end; font-family: sans-serif; font-size: 11px;">6</text></g><g class="tick" transform="translate(389.0909090909091,0)" style="opacity: 1;"><line y2="6" x2="0" style="fill: none; stroke: grey;"></line><text dy=".71em" y="9" x="0" transform="translate(-12,3)rotate(-65)" style="text-anchor: end; font-family: sans-serif; font-size: 11px;">7</text></g><g class="tick" transform="translate(401.8181818181818,0)" style="opacity: 1;"><line y2="6" x2="0" style="fill: none; stroke: grey;"></line><text dy=".71em" y="9" x="0" transform="translate(-12,3)rotate(-65)" style="text-anchor: end; font-family: sans-serif; font-size: 11px;">8</text></g><g class="tick" transform="translate(414.5454545454545,0)" style="opacity: 1;"><line y2="6" x2="0" style="fill: none; stroke: grey;"></line><text dy=".71em" y="9" x="0" transform="translate(-12,3)rotate(-65)" style="text-anchor: end; font-family: sans-serif; font-size: 11px;">9</text></g><g class="tick" transform="translate(427.27272727272725,0)" style="opacity: 1;"><line y2="6" x2="0" style="fill: none; stroke: grey;"></line><text dy=".71em" y="9" x="0" transform="translate(-12,3)rotate(-65)" style="text-anchor: end; font-family: sans-serif; font-size: 11px;">10</text></g><g class="tick" transform="translate(440,0)" style="opacity: 1;"><line y2="6" x2="0" style="fill: none; stroke: grey;"></line><text dy=".71em" y="9" x="0" transform="translate(-12,3)rotate(-65)" style="text-anchor: end; font-family: sans-serif; font-size: 11px;">11</text></g><path class="domain" d="M300,6V0H440V6" style="fill: none; stroke: grey;"></path></g><g class="y axis" transform="translate(300,0)"><g class="tick" transform="translate(0,8.16831683168317)" style="opacity: 1;"><line x2="-6" y2="0" style="fill: none; stroke: grey;"></line></g><g class="tick" transform="translate(0,23.01980198019802)" style="opacity: 1;"><line x2="-6" y2="0" style="fill: none; stroke: grey;"></line></g><g class="tick" transform="translate(0,37.87128712871287)" style="opacity: 1;"><line x2="-6" y2="0" style="fill: none; stroke: grey;"></line></g><g class="tick" transform="translate(0,52.722772277227726)" style="opacity: 1;"><line x2="-6" y2="0" style="fill: none; stroke: grey;"></line></g><g class="tick" transform="translate(0,67.57425742574259)" style="opacity: 1;"><line x2="-6" y2="0" style="fill: none; stroke: grey;"></line></g><g class="tick" transform="translate(0,82.42574257425743)" style="opacity: 1;"><line x2="-6" y2="0" style="fill: none; stroke: grey;"></line></g><g class="tick" transform="translate(0,97.27722772277228)" style="opacity: 1;"><line x2="-6" y2="0" style="fill: none; stroke: grey;"></line></g><g class="tick" transform="translate(0,112.12871287128714)" style="opacity: 1;"><line x2="-6" y2="0" style="fill: none; stroke: grey;"></line></g><g class="tick" transform="translate(0,126.98019801980199)" style="opacity: 1;"><line x2="-6" y2="0" style="fill: none; stroke: grey;"></line></g><g class="tick" transform="translate(0,141.83168316831683)" style="opacity: 1;"><line x2="-6" y2="0" style="fill: none; stroke: grey;"></line></g><path class="domain" d="M-6,0H0V150H-6" style="fill: none; stroke: grey;"></path></g><text text-anchor="middle" transform="translate(370,-5)" style="text-anchor: middle; font-family: sans-serif;">#mapped genes</text><text text-anchor="middle" transform="translate(370,200)" style="text-anchor: middle; font-family: sans-serif;">#mapped genes</text><rect class="bar" x="450" width="12.727272727272691" y="1.4851485148514854" height="13.366336633663368" fill="pink"></rect><rect class="bar" x="450" width="12.727272727272691" y="16.33663366336634" height="13.366336633663368" fill="pink"></rect><rect class="bar" x="450" width="0" y="31.18811881188119" height="13.366336633663368" fill="pink"></rect><rect class="bar" x="450" width="12.727272727272691" y="46.03960396039604" height="13.366336633663368" fill="pink"></rect><rect class="bar" x="450" width="12.727272727272691" y="60.8910891089109" height="13.366336633663368" fill="pink"></rect><rect class="bar" x="450" width="0" y="75.74257425742574" height="13.366336633663368" fill="pink"></rect><rect class="bar" x="450" width="0" y="90.5940594059406" height="13.366336633663368" fill="pink"></rect><rect class="bar" x="450" width="140" y="105.44554455445545" height="13.366336633663368" fill="pink"></rect><rect class="bar" x="450" width="101.81818181818187" y="120.2970297029703" height="13.366336633663368" fill="pink"></rect><rect class="bar" x="450" width="12.727272727272691" y="135.14851485148515" height="13.366336633663368" fill="pink"></rect><g class="x axis" transform="translate(0,150)"><g class="tick" transform="translate(450,0)" style="opacity: 1;"><line y2="6" x2="0" style="fill: none; stroke: grey;"></line><text dy=".71em" y="9" x="0" transform="translate(-12,3)rotate(-65)" style="text-anchor: end; font-family: sans-serif; font-size: 11px;">0</text></g><g class="tick" transform="translate(462.7272727272727,0)" style="opacity: 1;"><line y2="6" x2="0" style="fill: none; stroke: grey;"></line><text dy=".71em" y="9" x="0" transform="translate(-12,3)rotate(-65)" style="text-anchor: end; font-family: sans-serif; font-size: 11px;">1</text></g><g class="tick" transform="translate(475.4545454545454,0)" style="opacity: 1;"><line y2="6" x2="0" style="fill: none; stroke: grey;"></line><text dy=".71em" y="9" x="0" transform="translate(-12,3)rotate(-65)" style="text-anchor: end; font-family: sans-serif; font-size: 11px;">2</text></g><g class="tick" transform="translate(488.18181818181824,0)" style="opacity: 1;"><line y2="6" x2="0" style="fill: none; stroke: grey;"></line><text dy=".71em" y="9" x="0" transform="translate(-12,3)rotate(-65)" style="text-anchor: end; font-family: sans-serif; font-size: 11px;">3</text></g><g class="tick" transform="translate(500.90909090909093,0)" style="opacity: 1;"><line y2="6" x2="0" style="fill: none; stroke: grey;"></line><text dy=".71em" y="9" x="0" transform="translate(-12,3)rotate(-65)" style="text-anchor: end; font-family: sans-serif; font-size: 11px;">4</text></g><g class="tick" transform="translate(513.6363636363636,0)" style="opacity: 1;"><line y2="6" x2="0" style="fill: none; stroke: grey;"></line><text dy=".71em" y="9" x="0" transform="translate(-12,3)rotate(-65)" style="text-anchor: end; font-family: sans-serif; font-size: 11px;">5</text></g><g class="tick" transform="translate(526.3636363636364,0)" style="opacity: 1;"><line y2="6" x2="0" style="fill: none; stroke: grey;"></line><text dy=".71em" y="9" x="0" transform="translate(-12,3)rotate(-65)" style="text-anchor: end; font-family: sans-serif; font-size: 11px;">6</text></g><g class="tick" transform="translate(539.0909090909091,0)" style="opacity: 1;"><line y2="6" x2="0" style="fill: none; stroke: grey;"></line><text dy=".71em" y="9" x="0" transform="translate(-12,3)rotate(-65)" style="text-anchor: end; font-family: sans-serif; font-size: 11px;">7</text></g><g class="tick" transform="translate(551.8181818181819,0)" style="opacity: 1;"><line y2="6" x2="0" style="fill: none; stroke: grey;"></line><text dy=".71em" y="9" x="0" transform="translate(-12,3)rotate(-65)" style="text-anchor: end; font-family: sans-serif; font-size: 11px;">8</text></g><g class="tick" transform="translate(564.5454545454545,0)" style="opacity: 1;"><line y2="6" x2="0" style="fill: none; stroke: grey;"></line><text dy=".71em" y="9" x="0" transform="translate(-12,3)rotate(-65)" style="text-anchor: end; font-family: sans-serif; font-size: 11px;">9</text></g><g class="tick" transform="translate(577.2727272727273,0)" style="opacity: 1;"><line y2="6" x2="0" style="fill: none; stroke: grey;"></line><text dy=".71em" y="9" x="0" transform="translate(-12,3)rotate(-65)" style="text-anchor: end; font-family: sans-serif; font-size: 11px;">10</text></g><g class="tick" transform="translate(590,0)" style="opacity: 1;"><line y2="6" x2="0" style="fill: none; stroke: grey;"></line><text dy=".71em" y="9" x="0" transform="translate(-12,3)rotate(-65)" style="text-anchor: end; font-family: sans-serif; font-size: 11px;">11</text></g><path class="domain" d="M450,6V0H590V6" style="fill: none; stroke: grey;"></path></g><g class="y axis" transform="translate(450,0)"><g class="tick" transform="translate(0,8.16831683168317)" style="opacity: 1;"><line x2="-6" y2="0" style="fill: none; stroke: grey;"></line></g><g class="tick" transform="translate(0,23.01980198019802)" style="opacity: 1;"><line x2="-6" y2="0" style="fill: none; stroke: grey;"></line></g><g class="tick" transform="translate(0,37.87128712871287)" style="opacity: 1;"><line x2="-6" y2="0" style="fill: none; stroke: grey;"></line></g><g class="tick" transform="translate(0,52.722772277227726)" style="opacity: 1;"><line x2="-6" y2="0" style="fill: none; stroke: grey;"></line></g><g class="tick" transform="translate(0,67.57425742574259)" style="opacity: 1;"><line x2="-6" y2="0" style="fill: none; stroke: grey;"></line></g><g class="tick" transform="translate(0,82.42574257425743)" style="opacity: 1;"><line x2="-6" y2="0" style="fill: none; stroke: grey;"></line></g><g class="tick" transform="translate(0,97.27722772277228)" style="opacity: 1;"><line x2="-6" y2="0" style="fill: none; stroke: grey;"></line></g><g class="tick" transform="translate(0,112.12871287128714)" style="opacity: 1;"><line x2="-6" y2="0" style="fill: none; stroke: grey;"></line></g><g class="tick" transform="translate(0,126.98019801980199)" style="opacity: 1;"><line x2="-6" y2="0" style="fill: none; stroke: grey;"></line></g><g class="tick" transform="translate(0,141.83168316831683)" style="opacity: 1;"><line x2="-6" y2="0" style="fill: none; stroke: grey;"></line></g><path class="domain" d="M-6,0H0V150H-6" style="fill: none; stroke: grey;"></path></g><text text-anchor="middle" transform="translate(520,-20)" style="text-anchor: middle; font-family: sans-serif;">#genes physically</text><text text-anchor="middle" transform="translate(520,-5)" style="text-anchor: middle; font-family: sans-serif;">located in loci</text><text text-anchor="middle" transform="translate(520,200)" style="text-anchor: middle; font-family: sans-serif;">#genes physically</text><text text-anchor="middle" transform="translate(520,215)" style="text-anchor: middle; font-family: sans-serif;">located in loci</text></g></svg>