<svg width="920" height="483.5"><g transform="translate(80,30)"><rect x="195" y="177.8808249967883" width="14" height="72.1191750032117" style="fill: rgb(86, 104, 244); stroke: grey;"></rect><rect x="405" y="222.52165794531712" width="14" height="27.478342054682884" style="fill: rgb(86, 104, 244); stroke: grey;"></rect><rect x="600" y="238.44519646353362" width="14" height="11.55480353646638" style="fill: rgb(86, 104, 244); stroke: grey;"></rect><rect x="90" y="74.37733026863414" width="14" height="175.62266973136587" style="fill: rgb(86, 104, 244); stroke: grey;"></rect><rect x="45" y="47.63210837312157" width="14" height="202.36789162687842" style="fill: rgb(86, 104, 244); stroke: grey;"></rect><rect x="30" y="27.83219648323834" width="14" height="222.16780351676167" style="fill: rgb(86, 104, 244); stroke: grey;"></rect><rect x="240" y="191.48558795226893" width="14" height="58.51441204773107" style="fill: rgb(86, 104, 244); stroke: grey;"></rect><rect x="300" y="204.42460411629355" width="14" height="45.57539588370645" style="fill: rgb(86, 104, 244); stroke: grey;"></rect><rect x="330" y="211.71462001810352" width="14" height="38.28537998189648" style="fill: rgb(86, 104, 244); stroke: grey;"></rect><rect x="450" y="225.4882454030345" width="14" height="24.51175459696549" style="fill: rgb(86, 104, 244); stroke: grey;"></rect><rect x="435" y="224.280918375482" width="14" height="25.719081624517997" style="fill: rgb(86, 104, 244); stroke: grey;"></rect><rect x="390" y="219.52849382259606" width="14" height="30.47150617740394" style="fill: rgb(86, 104, 244); stroke: grey;"></rect><rect x="315" y="208.05037410784556" width="14" height="41.949625892154444" style="fill: rgb(86, 104, 244); stroke: grey;"></rect><rect x="360" y="215.95537346162695" width="14" height="34.04462653837305" style="fill: rgb(86, 104, 244); stroke: grey;"></rect><rect x="270" y="203.7308111784151" width="14" height="46.26918882158489" style="fill: rgb(86, 104, 244); stroke: grey;"></rect><rect x="420" y="223.41544961625291" width="14" height="26.584550383747086" style="fill: rgb(86, 104, 244); stroke: grey;"></rect><rect x="510" y="229.43318749062573" width="14" height="20.566812509374273" style="fill: rgb(86, 104, 244); stroke: grey;"></rect><rect x="480" y="228.85938689084625" width="14" height="21.140613109153747" style="fill: rgb(86, 104, 244); stroke: grey;"></rect><rect x="345" y="214.32917817242063" width="14" height="35.670821827579374" style="fill: rgb(86, 104, 244); stroke: grey;"></rect><rect x="525" y="231.0340039512391" width="14" height="18.9659960487609" style="fill: rgb(86, 104, 244); stroke: grey;"></rect><rect x="555" y="233.85978556147396" width="14" height="16.140214438526044" style="fill: rgb(86, 104, 244); stroke: grey;"></rect><rect x="180" y="123.10258207278612" width="14" height="126.89741792721388" style="fill: rgb(86, 104, 244); stroke: grey;"></rect><rect x="645" y="244.3466045477906" width="14" height="5.653395452209395" style="fill: rgb(86, 104, 244); stroke: grey;"></rect><rect x="120" y="100.16398735899776" width="14" height="149.83601264100224" style="fill: rgb(86, 104, 244); stroke: grey;"></rect><rect x="75" y="71.33354957205718" width="14" height="178.66645042794283" style="fill: rgb(86, 104, 244); stroke: grey;"></rect><rect x="0" y="0" width="14" height="250" style="fill: rgb(86, 104, 244); stroke: grey;"></rect><rect x="495" y="229.11271344246967" width="14" height="20.88728655753033" style="fill: rgb(86, 104, 244); stroke: grey;"></rect><rect x="105" y="96.77631813644868" width="14" height="153.22368186355132" style="fill: rgb(86, 104, 244); stroke: grey;"></rect><rect x="690" y="248.05849952045708" width="14" height="1.941500479542924" style="fill: rgb(86, 104, 244); stroke: grey;"></rect><rect x="135" y="100.67353688264826" width="14" height="149.32646311735175" style="fill: rgb(86, 104, 244); stroke: grey;"></rect><rect x="60" y="60.92188728813139" width="14" height="189.0781127118686" style="fill: rgb(86, 104, 244); stroke: grey;"></rect><rect x="225" y="187.22917141329665" width="14" height="62.770828586703345" style="fill: rgb(86, 104, 244); stroke: grey;"></rect><rect x="540" y="233.47089316577484" width="14" height="16.52910683422516" style="fill: rgb(86, 104, 244); stroke: grey;"></rect><rect x="795" y="249.99805022930536" width="14" height="0.0019497706946367543" style="fill: rgb(86, 104, 244); stroke: grey;"></rect><rect x="765" y="249.96879196392086" width="14" height="0.03120803607913558" style="fill: rgb(86, 104, 244); stroke: grey;"></rect><rect x="735" y="249.74413878781877" width="14" height="0.25586121218123026" style="fill: rgb(86, 104, 244); stroke: grey;"></rect><rect x="585" y="238.196345876381" width="14" height="11.803654123618998" style="fill: rgb(86, 104, 244); stroke: grey;"></rect><rect x="780" y="249.99298036919438" width="14" height="0.007019630805615407" style="fill: rgb(86, 104, 244); stroke: grey;"></rect><rect x="630" y="243.21743177954832" width="14" height="6.7825682204516795" style="fill: rgb(86, 104, 244); stroke: grey;"></rect><rect x="165" y="115.88504238523467" width="14" height="134.11495761476533" style="fill: rgb(86, 104, 244); stroke: grey;"></rect><rect x="210" y="179.62109310002663" width="14" height="70.37890689997337" style="fill: rgb(86, 104, 244); stroke: grey;"></rect><rect x="750" y="249.80571443763404" width="14" height="0.1942855623659625" style="fill: rgb(86, 104, 244); stroke: grey;"></rect><rect x="375" y="219.10710414372343" width="14" height="30.892895856276567" style="fill: rgb(86, 104, 244); stroke: grey;"></rect><rect x="660" y="244.3772456764093" width="14" height="5.622754323590698" style="fill: rgb(86, 104, 244); stroke: grey;"></rect><rect x="705" y="248.88936887221587" width="14" height="1.1106311277841314" style="fill: rgb(86, 104, 244); stroke: grey;"></rect><rect x="720" y="248.940289328711" width="14" height="1.0597106712889968" style="fill: rgb(86, 104, 244); stroke: grey;"></rect><rect x="675" y="247.2355017730584" width="14" height="2.764498226941612" style="fill: rgb(86, 104, 244); stroke: grey;"></rect><rect x="285" y="204.22330958186194" width="14" height="45.77669041813806" style="fill: rgb(86, 104, 244); stroke: grey;"></rect><rect x="570" y="236.83544334023404" width="14" height="13.164556659765964" style="fill: rgb(86, 104, 244); stroke: grey;"></rect><rect x="150" y="105.91640528409937" width="14" height="144.08359471590063" style="fill: rgb(86, 104, 244); stroke: grey;"></rect><rect x="255" y="198.89703868376733" width="14" height="51.102961316232665" style="fill: rgb(86, 104, 244); stroke: grey;"></rect><rect x="15" y="13.44399355648182" width="14" height="236.55600644351819" style="fill: rgb(86, 104, 244); stroke: grey;"></rect><rect x="465" y="225.59557463866184" width="14" height="24.404425361338156" style="fill: rgb(86, 104, 244); stroke: grey;"></rect><rect x="615" y="238.98424467305497" width="14" height="11.015755326945026" style="fill: rgb(86, 104, 244); stroke: grey;"></rect><g><text transform="translate(205,258)rotate(-70)" style="text-anchor: end; font-size: 11px; font-family: sans-serif;">Adipose_Subcutaneous</text><text transform="translate(415,258)rotate(-70)" style="text-anchor: end; font-size: 11px; font-family: sans-serif;">Adipose_Visceral_Omentum</text><text transform="translate(610,258)rotate(-70)" style="text-anchor: end; font-size: 11px; font-family: sans-serif;">Adrenal_Gland</text><text transform="translate(100,258)rotate(-70)" style="text-anchor: end; font-size: 11px; font-family: sans-serif;">Artery_Aorta</text><text transform="translate(55,258)rotate(-70)" style="text-anchor: end; font-size: 11px; font-family: sans-serif;">Artery_Coronary</text><text transform="translate(40,258)rotate(-70)" style="text-anchor: end; font-size: 11px; font-family: sans-serif;">Artery_Tibial</text><text transform="translate(250,258)rotate(-70)" style="text-anchor: end; font-size: 11px; font-family: sans-serif;">Bladder</text><text transform="translate(310,258)rotate(-70)" style="text-anchor: end; font-size: 11px; font-family: sans-serif;">Brain_Amygdala</text><text transform="translate(340,258)rotate(-70)" style="text-anchor: end; font-size: 11px; font-family: sans-serif;">Brain_Anterior_cingulate_cortex_BA24</text><text transform="translate(460,258)rotate(-70)" style="text-anchor: end; font-size: 11px; font-family: sans-serif;">Brain_Caudate_basal_ganglia</text><text transform="translate(445,258)rotate(-70)" style="text-anchor: end; font-size: 11px; font-family: sans-serif;">Brain_Cerebellar_Hemisphere</text><text transform="translate(400,258)rotate(-70)" style="text-anchor: end; font-size: 11px; font-family: sans-serif;">Brain_Cerebellum</text><text transform="translate(325,258)rotate(-70)" style="text-anchor: end; font-size: 11px; font-family: sans-serif;">Brain_Cortex</text><text transform="translate(370,258)rotate(-70)" style="text-anchor: end; font-size: 11px; font-family: sans-serif;">Brain_Frontal_Cortex_BA9</text><text transform="translate(280,258)rotate(-70)" style="text-anchor: end; font-size: 11px; font-family: sans-serif;">Brain_Hippocampus</text><text transform="translate(430,258)rotate(-70)" style="text-anchor: end; font-size: 11px; font-family: sans-serif;">Brain_Hypothalamus</text><text transform="translate(520,258)rotate(-70)" style="text-anchor: end; font-size: 11px; font-family: sans-serif;">Brain_Nucleus_accumbens_basal_ganglia</text><text transform="translate(490,258)rotate(-70)" style="text-anchor: end; font-size: 11px; font-family: sans-serif;">Brain_Putamen_basal_ganglia</text><text transform="translate(355,258)rotate(-70)" style="text-anchor: end; font-size: 11px; font-family: sans-serif;">Brain_Spinal_cord_cervical_c-1</text><text transform="translate(535,258)rotate(-70)" style="text-anchor: end; font-size: 11px; font-family: sans-serif;">Brain_Substantia_nigra</text><text transform="translate(565,258)rotate(-70)" style="text-anchor: end; font-size: 11px; font-family: sans-serif;">Breast_Mammary_Tissue</text><text transform="translate(190,258)rotate(-70)" style="text-anchor: end; font-size: 11px; font-family: sans-serif;">Cells_Cultured_fibroblasts</text><text transform="translate(655,258)rotate(-70)" style="text-anchor: end; font-size: 11px; font-family: sans-serif;">Cells_EBV-transformed_lymphocytes</text><text transform="translate(130,258)rotate(-70)" style="text-anchor: end; font-size: 11px; font-family: sans-serif;">Cervix_Ectocervix</text><text transform="translate(85,258)rotate(-70)" style="text-anchor: end; font-size: 11px; font-family: sans-serif;">Cervix_Endocervix</text><text transform="translate(10,258)rotate(-70)" style="text-anchor: end; font-size: 11px; font-family: sans-serif;">Colon_Sigmoid</text><text transform="translate(505,258)rotate(-70)" style="text-anchor: end; font-size: 11px; font-family: sans-serif;">Colon_Transverse</text><text transform="translate(115,258)rotate(-70)" style="text-anchor: end; font-size: 11px; font-family: sans-serif;">Esophagus_Gastroesophageal_Junction</text><text transform="translate(700,258)rotate(-70)" style="text-anchor: end; font-size: 11px; font-family: sans-serif;">Esophagus_Mucosa</text><text transform="translate(145,258)rotate(-70)" style="text-anchor: end; font-size: 11px; font-family: sans-serif;">Esophagus_Muscularis</text><text transform="translate(70,258)rotate(-70)" style="text-anchor: end; font-size: 11px; font-family: sans-serif;">Fallopian_Tube</text><text transform="translate(235,258)rotate(-70)" style="text-anchor: end; font-size: 11px; font-family: sans-serif;">Heart_Atrial_Appendage</text><text transform="translate(550,258)rotate(-70)" style="text-anchor: end; font-size: 11px; font-family: sans-serif;">Heart_Left_Ventricle</text><text transform="translate(805,258)rotate(-70)" style="text-anchor: end; font-size: 11px; font-family: sans-serif;">Kidney_Cortex</text><text transform="translate(775,258)rotate(-70)" style="text-anchor: end; font-size: 11px; font-family: sans-serif;">Kidney_Medulla</text><text transform="translate(745,258)rotate(-70)" style="text-anchor: end; font-size: 11px; font-family: sans-serif;">Liver</text><text transform="translate(595,258)rotate(-70)" style="text-anchor: end; font-size: 11px; font-family: sans-serif;">Lung</text><text transform="translate(790,258)rotate(-70)" style="text-anchor: end; font-size: 11px; font-family: sans-serif;">Minor_Salivary_Gland</text><text transform="translate(640,258)rotate(-70)" style="text-anchor: end; font-size: 11px; font-family: sans-serif;">Muscle_Skeletal</text><text transform="translate(175,258)rotate(-70)" style="text-anchor: end; font-size: 11px; font-family: sans-serif;">Nerve_Tibial</text><text transform="translate(220,258)rotate(-70)" style="text-anchor: end; font-size: 11px; font-family: sans-serif;">Ovary</text><text transform="translate(760,258)rotate(-70)" style="text-anchor: end; font-size: 11px; font-family: sans-serif;">Pancreas</text><text transform="translate(385,258)rotate(-70)" style="text-anchor: end; font-size: 11px; font-family: sans-serif;">Pituitary</text><text transform="translate(670,258)rotate(-70)" style="text-anchor: end; font-size: 11px; font-family: sans-serif;">Prostate</text><text transform="translate(715,258)rotate(-70)" style="text-anchor: end; font-size: 11px; font-family: sans-serif;">Skin_Not_Sun_Exposed_Suprapubic</text><text transform="translate(730,258)rotate(-70)" style="text-anchor: end; font-size: 11px; font-family: sans-serif;">Skin_Sun_Exposed_Lower_leg</text><text transform="translate(685,258)rotate(-70)" style="text-anchor: end; font-size: 11px; font-family: sans-serif;">Small_Intestine_Terminal_Ileum</text><text transform="translate(295,258)rotate(-70)" style="text-anchor: end; font-size: 11px; font-family: sans-serif;">Spleen</text><text transform="translate(580,258)rotate(-70)" style="text-anchor: end; font-size: 11px; font-family: sans-serif;">Stomach</text><text transform="translate(160,258)rotate(-70)" style="text-anchor: end; font-size: 11px; font-family: sans-serif;">Testis</text><text transform="translate(265,258)rotate(-70)" style="text-anchor: end; font-size: 11px; font-family: sans-serif;">Thyroid</text><text transform="translate(25,258)rotate(-70)" style="text-anchor: end; font-size: 11px; font-family: sans-serif;">Uterus</text><text transform="translate(475,258)rotate(-70)" style="text-anchor: end; font-size: 11px; font-family: sans-serif;">Vagina</text><text transform="translate(625,258)rotate(-70)" style="text-anchor: end; font-size: 11px; font-family: sans-serif;">Whole_Blood</text></g><line x1="0" x2="810" y1="-22.365094473700943" y2="-22.365094473700943" style="stroke: black; stroke-dasharray: 3, 3;"></line><g class="y axis"><g class="tick" transform="translate(0,250)" style="opacity: 1;"><line x2="-6" y2="0" style="fill: none; stroke: grey;"></line><text dy=".32em" x="-9" y="0" style="text-anchor: end; font-size: 11px; font-family: sans-serif;">0.0</text></g><g class="tick" transform="translate(0,232.04239721001468)" style="opacity: 1;"><line x2="-6" y2="0" style="fill: none; stroke: grey;"></line><text dy=".32em" x="-9" y="0" style="text-anchor: end; font-size: 11px; font-family: sans-serif;">0.2</text></g><g class="tick" transform="translate(0,214.08479442002937)" style="opacity: 1;"><line x2="-6" y2="0" style="fill: none; stroke: grey;"></line><text dy=".32em" x="-9" y="0" style="text-anchor: end; font-size: 11px; font-family: sans-serif;">0.4</text></g><g class="tick" transform="translate(0,196.12719163004405)" style="opacity: 1;"><line x2="-6" y2="0" style="fill: none; stroke: grey;"></line><text dy=".32em" x="-9" y="0" style="text-anchor: end; font-size: 11px; font-family: sans-serif;">0.6</text></g><g class="tick" transform="translate(0,178.16958884005874)" style="opacity: 1;"><line x2="-6" y2="0" style="fill: none; stroke: grey;"></line><text dy=".32em" x="-9" y="0" style="text-anchor: end; font-size: 11px; font-family: sans-serif;">0.8</text></g><g class="tick" transform="translate(0,160.21198605007342)" style="opacity: 1;"><line x2="-6" y2="0" style="fill: none; stroke: grey;"></line><text dy=".32em" x="-9" y="0" style="text-anchor: end; font-size: 11px; font-family: sans-serif;">1.0</text></g><g class="tick" transform="translate(0,142.2543832600881)" style="opacity: 1;"><line x2="-6" y2="0" style="fill: none; stroke: grey;"></line><text dy=".32em" x="-9" y="0" style="text-anchor: end; font-size: 11px; font-family: sans-serif;">1.2</text></g><g class="tick" transform="translate(0,124.29678047010279)" style="opacity: 1;"><line x2="-6" y2="0" style="fill: none; stroke: grey;"></line><text dy=".32em" x="-9" y="0" style="text-anchor: end; font-size: 11px; font-family: sans-serif;">1.4</text></g><g class="tick" transform="translate(0,106.33917768011747)" style="opacity: 1;"><line x2="-6" y2="0" style="fill: none; stroke: grey;"></line><text dy=".32em" x="-9" y="0" style="text-anchor: end; font-size: 11px; font-family: sans-serif;">1.6</text></g><g class="tick" transform="translate(0,88.38157489013216)" style="opacity: 1;"><line x2="-6" y2="0" style="fill: none; stroke: grey;"></line><text dy=".32em" x="-9" y="0" style="text-anchor: end; font-size: 11px; font-family: sans-serif;">1.8</text></g><g class="tick" transform="translate(0,70.42397210014684)" style="opacity: 1;"><line x2="-6" y2="0" style="fill: none; stroke: grey;"></line><text dy=".32em" x="-9" y="0" style="text-anchor: end; font-size: 11px; font-family: sans-serif;">2.0</text></g><g class="tick" transform="translate(0,52.46636931016152)" style="opacity: 1;"><line x2="-6" y2="0" style="fill: none; stroke: grey;"></line><text dy=".32em" x="-9" y="0" style="text-anchor: end; font-size: 11px; font-family: sans-serif;">2.2</text></g><g class="tick" transform="translate(0,34.5087665201762)" style="opacity: 1;"><line x2="-6" y2="0" style="fill: none; stroke: grey;"></line><text dy=".32em" x="-9" y="0" style="text-anchor: end; font-size: 11px; font-family: sans-serif;">2.4</text></g><g class="tick" transform="translate(0,16.551163730190886)" style="opacity: 1;"><line x2="-6" y2="0" style="fill: none; stroke: grey;"></line><text dy=".32em" x="-9" y="0" style="text-anchor: end; font-size: 11px; font-family: sans-serif;">2.6</text></g><path class="domain" d="M-6,0H0V250H-6" style="fill: none; stroke: grey;"></path></g><g class="x axis" transform="translate(0,250)"><g class="tick" transform="translate(7.5,0)" style="opacity: 1;"><line y2="6" x2="0" style="fill: none; stroke: grey;"></line></g><g class="tick" transform="translate(22.5,0)" style="opacity: 1;"><line y2="6" x2="0" style="fill: none; stroke: grey;"></line></g><g class="tick" transform="translate(37.5,0)" style="opacity: 1;"><line y2="6" x2="0" style="fill: none; stroke: grey;"></line></g><g class="tick" transform="translate(52.5,0)" style="opacity: 1;"><line y2="6" x2="0" style="fill: none; stroke: grey;"></line></g><g class="tick" transform="translate(67.5,0)" style="opacity: 1;"><line y2="6" x2="0" style="fill: none; stroke: grey;"></line></g><g class="tick" transform="translate(82.5,0)" style="opacity: 1;"><line y2="6" x2="0" style="fill: none; stroke: grey;"></line></g><g class="tick" transform="translate(97.5,0)" style="opacity: 1;"><line y2="6" x2="0" style="fill: none; stroke: grey;"></line></g><g class="tick" transform="translate(112.5,0)" style="opacity: 1;"><line y2="6" x2="0" style="fill: none; stroke: grey;"></line></g><g class="tick" transform="translate(127.5,0)" style="opacity: 1;"><line y2="6" x2="0" style="fill: none; stroke: grey;"></line></g><g class="tick" transform="translate(142.5,0)" style="opacity: 1;"><line y2="6" x2="0" style="fill: none; stroke: grey;"></line></g><g class="tick" transform="translate(157.5,0)" style="opacity: 1;"><line y2="6" x2="0" style="fill: none; stroke: grey;"></line></g><g class="tick" transform="translate(172.5,0)" style="opacity: 1;"><line y2="6" x2="0" style="fill: none; stroke: grey;"></line></g><g class="tick" transform="translate(187.5,0)" style="opacity: 1;"><line y2="6" x2="0" style="fill: none; stroke: grey;"></line></g><g class="tick" transform="translate(202.5,0)" style="opacity: 1;"><line y2="6" x2="0" style="fill: none; stroke: grey;"></line></g><g class="tick" transform="translate(217.5,0)" style="opacity: 1;"><line y2="6" x2="0" style="fill: none; stroke: grey;"></line></g><g class="tick" transform="translate(232.5,0)" style="opacity: 1;"><line y2="6" x2="0" style="fill: none; stroke: grey;"></line></g><g class="tick" transform="translate(247.5,0)" style="opacity: 1;"><line y2="6" x2="0" style="fill: none; stroke: grey;"></line></g><g class="tick" transform="translate(262.5,0)" style="opacity: 1;"><line y2="6" x2="0" style="fill: none; stroke: grey;"></line></g><g class="tick" transform="translate(277.5,0)" style="opacity: 1;"><line y2="6" x2="0" style="fill: none; stroke: grey;"></line></g><g class="tick" transform="translate(292.5,0)" style="opacity: 1;"><line y2="6" x2="0" style="fill: none; stroke: grey;"></line></g><g class="tick" transform="translate(307.5,0)" style="opacity: 1;"><line y2="6" x2="0" style="fill: none; stroke: grey;"></line></g><g class="tick" transform="translate(322.5,0)" style="opacity: 1;"><line y2="6" x2="0" style="fill: none; stroke: grey;"></line></g><g class="tick" transform="translate(337.5,0)" style="opacity: 1;"><line y2="6" x2="0" style="fill: none; stroke: grey;"></line></g><g class="tick" transform="translate(352.5,0)" style="opacity: 1;"><line y2="6" x2="0" style="fill: none; stroke: grey;"></line></g><g class="tick" transform="translate(367.5,0)" style="opacity: 1;"><line y2="6" x2="0" style="fill: none; stroke: grey;"></line></g><g class="tick" transform="translate(382.5,0)" style="opacity: 1;"><line y2="6" x2="0" style="fill: none; stroke: grey;"></line></g><g class="tick" transform="translate(397.5,0)" style="opacity: 1;"><line y2="6" x2="0" style="fill: none; stroke: grey;"></line></g><g class="tick" transform="translate(412.5,0)" style="opacity: 1;"><line y2="6" x2="0" style="fill: none; stroke: grey;"></line></g><g class="tick" transform="translate(427.5,0)" style="opacity: 1;"><line y2="6" x2="0" style="fill: none; stroke: grey;"></line></g><g class="tick" transform="translate(442.5,0)" style="opacity: 1;"><line y2="6" x2="0" style="fill: none; stroke: grey;"></line></g><g class="tick" transform="translate(457.5,0)" style="opacity: 1;"><line y2="6" x2="0" style="fill: none; stroke: grey;"></line></g><g class="tick" transform="translate(472.5,0)" style="opacity: 1;"><line y2="6" x2="0" style="fill: none; stroke: grey;"></line></g><g class="tick" transform="translate(487.5,0)" style="opacity: 1;"><line y2="6" x2="0" style="fill: none; stroke: grey;"></line></g><g class="tick" transform="translate(502.5,0)" style="opacity: 1;"><line y2="6" x2="0" style="fill: none; stroke: grey;"></line></g><g class="tick" transform="translate(517.5,0)" style="opacity: 1;"><line y2="6" x2="0" style="fill: none; stroke: grey;"></line></g><g class="tick" transform="translate(532.5,0)" style="opacity: 1;"><line y2="6" x2="0" style="fill: none; stroke: grey;"></line></g><g class="tick" transform="translate(547.5,0)" style="opacity: 1;"><line y2="6" x2="0" style="fill: none; stroke: grey;"></line></g><g class="tick" transform="translate(562.5,0)" style="opacity: 1;"><line y2="6" x2="0" style="fill: none; stroke: grey;"></line></g><g class="tick" transform="translate(577.5,0)" style="opacity: 1;"><line y2="6" x2="0" style="fill: none; stroke: grey;"></line></g><g class="tick" transform="translate(592.5,0)" style="opacity: 1;"><line y2="6" x2="0" style="fill: none; stroke: grey;"></line></g><g class="tick" transform="translate(607.5,0)" style="opacity: 1;"><line y2="6" x2="0" style="fill: none; stroke: grey;"></line></g><g class="tick" transform="translate(622.5,0)" style="opacity: 1;"><line y2="6" x2="0" style="fill: none; stroke: grey;"></line></g><g class="tick" transform="translate(637.5,0)" style="opacity: 1;"><line y2="6" x2="0" style="fill: none; stroke: grey;"></line></g><g class="tick" transform="translate(652.5,0)" style="opacity: 1;"><line y2="6" x2="0" style="fill: none; stroke: grey;"></line></g><g class="tick" transform="translate(667.5,0)" style="opacity: 1;"><line y2="6" x2="0" style="fill: none; stroke: grey;"></line></g><g class="tick" transform="translate(682.5,0)" style="opacity: 1;"><line y2="6" x2="0" style="fill: none; stroke: grey;"></line></g><g class="tick" transform="translate(697.5,0)" style="opacity: 1;"><line y2="6" x2="0" style="fill: none; stroke: grey;"></line></g><g class="tick" transform="translate(712.5,0)" style="opacity: 1;"><line y2="6" x2="0" style="fill: none; stroke: grey;"></line></g><g class="tick" transform="translate(727.5,0)" style="opacity: 1;"><line y2="6" x2="0" style="fill: none; stroke: grey;"></line></g><g class="tick" transform="translate(742.5,0)" style="opacity: 1;"><line y2="6" x2="0" style="fill: none; stroke: grey;"></line></g><g class="tick" transform="translate(757.5,0)" style="opacity: 1;"><line y2="6" x2="0" style="fill: none; stroke: grey;"></line></g><g class="tick" transform="translate(772.5,0)" style="opacity: 1;"><line y2="6" x2="0" style="fill: none; stroke: grey;"></line></g><g class="tick" transform="translate(787.5,0)" style="opacity: 1;"><line y2="6" x2="0" style="fill: none; stroke: grey;"></line></g><g class="tick" transform="translate(802.5,0)" style="opacity: 1;"><line y2="6" x2="0" style="fill: none; stroke: grey;"></line></g><path class="domain" d="M0,6V0H810V6" style="fill: none; stroke: grey;"></path></g><text text-anchor="middle" transform="translate(-55,125)rotate(-90)" style="font-family: sans-serif;">-log 10 P-value</text></g></svg>