<svg width="545" height="380"><g transform="translate(80,30)"><rect x="285" y="241.74586006075825" width="14" height="8.254139939241753" style="fill: rgb(86, 104, 244); stroke: grey;"></rect><rect x="225" y="236.5069600548933" width="14" height="13.493039945106688" style="fill: rgb(86, 104, 244); stroke: grey;"></rect><rect x="90" y="112.77056941043648" width="14" height="137.22943058956352" style="fill: rgb(86, 104, 244); stroke: grey;"></rect><rect x="75" y="109.14227626489978" width="14" height="140.85772373510022" style="fill: rgb(86, 104, 244); stroke: grey;"></rect><rect x="315" y="246.29271738948813" width="14" height="3.707282610511868" style="fill: rgb(86, 104, 244); stroke: grey;"></rect><rect x="195" y="230.08396521433409" width="14" height="19.916034785665914" style="fill: rgb(86, 104, 244); stroke: grey;"></rect><rect x="15" y="77.59877302846921" width="14" height="172.40122697153078" style="fill: rgb(86, 104, 244); stroke: grey;"></rect><rect x="60" y="96.86762145463662" width="14" height="153.1323785453634" style="fill: rgb(86, 104, 244); stroke: grey;"></rect><rect x="360" y="248.83511878228478" width="14" height="1.1648812177152195" style="fill: rgb(86, 104, 244); stroke: grey;"></rect><rect x="120" y="189.37640561460674" width="14" height="60.62359438539326" style="fill: rgb(86, 104, 244); stroke: grey;"></rect><rect x="240" y="236.55628694342616" width="14" height="13.443713056573841" style="fill: rgb(86, 104, 244); stroke: grey;"></rect><rect x="270" y="239.84732147336277" width="14" height="10.152678526637231" style="fill: rgb(86, 104, 244); stroke: grey;"></rect><rect x="45" y="87.55571883944529" width="14" height="162.4442811605547" style="fill: rgb(86, 104, 244); stroke: grey;"></rect><rect x="150" y="221.82029028580854" width="14" height="28.17970971419146" style="fill: rgb(86, 104, 244); stroke: grey;"></rect><rect x="330" y="247.39514102270792" width="14" height="2.604858977292082" style="fill: rgb(86, 104, 244); stroke: grey;"></rect><rect x="105" y="144.17490067344292" width="14" height="105.82509932655708" style="fill: rgb(86, 104, 244); stroke: grey;"></rect><rect x="135" y="221.0926524301417" width="14" height="28.907347569858302" style="fill: rgb(86, 104, 244); stroke: grey;"></rect><rect x="300" y="246.1177913117938" width="14" height="3.882208688206191" style="fill: rgb(86, 104, 244); stroke: grey;"></rect><rect x="255" y="238.3365423428519" width="14" height="11.663457657148086" style="fill: rgb(86, 104, 244); stroke: grey;"></rect><rect x="180" y="226.56128899020993" width="14" height="23.43871100979007" style="fill: rgb(86, 104, 244); stroke: grey;"></rect><rect x="210" y="232.5280873352387" width="14" height="17.471912664761305" style="fill: rgb(86, 104, 244); stroke: grey;"></rect><rect x="165" y="224.46069557127046" width="14" height="25.539304428729537" style="fill: rgb(86, 104, 244); stroke: grey;"></rect><rect x="345" y="248.60563135997887" width="14" height="1.3943686400211277" style="fill: rgb(86, 104, 244); stroke: grey;"></rect><rect x="390" y="249.3566142109651" width="14" height="0.6433857890349088" style="fill: rgb(86, 104, 244); stroke: grey;"></rect><rect x="375" y="249.03761074663052" width="14" height="0.96238925336948" style="fill: rgb(86, 104, 244); stroke: grey;"></rect><rect x="405" y="249.44372558165614" width="14" height="0.556274418343861" style="fill: rgb(86, 104, 244); stroke: grey;"></rect><rect x="30" y="86.99836108923884" width="14" height="163.00163891076116" style="fill: rgb(86, 104, 244); stroke: grey;"></rect><rect x="420" y="249.92932825654157" width="14" height="0.07067174345843341" style="fill: rgb(86, 104, 244); stroke: grey;"></rect><rect x="0" y="0" width="14" height="250" style="fill: rgb(204, 0, 0); stroke: grey;"></rect><g><text transform="translate(295,258)rotate(-70)" style="text-anchor: end; font-size: 11px; font-family: sans-serif;">10_mos</text><text transform="translate(235,258)rotate(-70)" style="text-anchor: end; font-size: 11px; font-family: sans-serif;">11_yrs</text><text transform="translate(100,258)rotate(-70)" style="text-anchor: end; font-size: 11px; font-family: sans-serif;">12_pcw</text><text transform="translate(85,258)rotate(-70)" style="text-anchor: end; font-size: 11px; font-family: sans-serif;">13_pcw</text><text transform="translate(325,258)rotate(-70)" style="text-anchor: end; font-size: 11px; font-family: sans-serif;">13_yrs</text><text transform="translate(205,258)rotate(-70)" style="text-anchor: end; font-size: 11px; font-family: sans-serif;">15_yrs</text><text transform="translate(25,258)rotate(-70)" style="text-anchor: end; font-size: 11px; font-family: sans-serif;">16_pcw</text><text transform="translate(70,258)rotate(-70)" style="text-anchor: end; font-size: 11px; font-family: sans-serif;">17_pcw</text><text transform="translate(370,258)rotate(-70)" style="text-anchor: end; font-size: 11px; font-family: sans-serif;">18_yrs</text><text transform="translate(130,258)rotate(-70)" style="text-anchor: end; font-size: 11px; font-family: sans-serif;">19_pcw</text><text transform="translate(250,258)rotate(-70)" style="text-anchor: end; font-size: 11px; font-family: sans-serif;">19_yrs</text><text transform="translate(280,258)rotate(-70)" style="text-anchor: end; font-size: 11px; font-family: sans-serif;">1_yrs</text><text transform="translate(55,258)rotate(-70)" style="text-anchor: end; font-size: 11px; font-family: sans-serif;">21_pcw</text><text transform="translate(160,258)rotate(-70)" style="text-anchor: end; font-size: 11px; font-family: sans-serif;">21_yrs</text><text transform="translate(340,258)rotate(-70)" style="text-anchor: end; font-size: 11px; font-family: sans-serif;">23_yrs</text><text transform="translate(115,258)rotate(-70)" style="text-anchor: end; font-size: 11px; font-family: sans-serif;">24_pcw</text><text transform="translate(145,258)rotate(-70)" style="text-anchor: end; font-size: 11px; font-family: sans-serif;">26_pcw</text><text transform="translate(310,258)rotate(-70)" style="text-anchor: end; font-size: 11px; font-family: sans-serif;">2_yrs</text><text transform="translate(265,258)rotate(-70)" style="text-anchor: end; font-size: 11px; font-family: sans-serif;">30_yrs</text><text transform="translate(190,258)rotate(-70)" style="text-anchor: end; font-size: 11px; font-family: sans-serif;">36_yrs</text><text transform="translate(220,258)rotate(-70)" style="text-anchor: end; font-size: 11px; font-family: sans-serif;">37_pcw</text><text transform="translate(175,258)rotate(-70)" style="text-anchor: end; font-size: 11px; font-family: sans-serif;">37_yrs</text><text transform="translate(355,258)rotate(-70)" style="text-anchor: end; font-size: 11px; font-family: sans-serif;">3_yrs</text><text transform="translate(400,258)rotate(-70)" style="text-anchor: end; font-size: 11px; font-family: sans-serif;">40_yrs</text><text transform="translate(385,258)rotate(-70)" style="text-anchor: end; font-size: 11px; font-family: sans-serif;">4_mos</text><text transform="translate(415,258)rotate(-70)" style="text-anchor: end; font-size: 11px; font-family: sans-serif;">4_yrs</text><text transform="translate(40,258)rotate(-70)" style="text-anchor: end; font-size: 11px; font-family: sans-serif;">8_pcw</text><text transform="translate(430,258)rotate(-70)" style="text-anchor: end; font-size: 11px; font-family: sans-serif;">8_yrs</text><text transform="translate(10,258)rotate(-70)" style="text-anchor: end; font-size: 11px; font-family: sans-serif;">9_pcw</text></g><line x1="0" x2="435" y1="27.60794379375725" y2="27.60794379375725" style="stroke: black; stroke-dasharray: 3, 3;"></line><g class="y axis"><g class="tick" transform="translate(0,250)" style="opacity: 1;"><line x2="-6" y2="0" style="fill: none; stroke: grey;"></line><text dy=".32em" x="-9" y="0" style="text-anchor: end; font-size: 11px; font-family: sans-serif;">0.0</text></g><g class="tick" transform="translate(0,209.76156123404022)" style="opacity: 1;"><line x2="-6" y2="0" style="fill: none; stroke: grey;"></line><text dy=".32em" x="-9" y="0" style="text-anchor: end; font-size: 11px; font-family: sans-serif;">0.5</text></g><g class="tick" transform="translate(0,169.52312246808043)" style="opacity: 1;"><line x2="-6" y2="0" style="fill: none; stroke: grey;"></line><text dy=".32em" x="-9" y="0" style="text-anchor: end; font-size: 11px; font-family: sans-serif;">1.0</text></g><g class="tick" transform="translate(0,129.28468370212065)" style="opacity: 1;"><line x2="-6" y2="0" style="fill: none; stroke: grey;"></line><text dy=".32em" x="-9" y="0" style="text-anchor: end; font-size: 11px; font-family: sans-serif;">1.5</text></g><g class="tick" transform="translate(0,89.04624493616085)" style="opacity: 1;"><line x2="-6" y2="0" style="fill: none; stroke: grey;"></line><text dy=".32em" x="-9" y="0" style="text-anchor: end; font-size: 11px; font-family: sans-serif;">2.0</text></g><g class="tick" transform="translate(0,48.807806170201054)" style="opacity: 1;"><line x2="-6" y2="0" style="fill: none; stroke: grey;"></line><text dy=".32em" x="-9" y="0" style="text-anchor: end; font-size: 11px; font-family: sans-serif;">2.5</text></g><g class="tick" transform="translate(0,8.569367404241273)" style="opacity: 1;"><line x2="-6" y2="0" style="fill: none; stroke: grey;"></line><text dy=".32em" x="-9" y="0" style="text-anchor: end; font-size: 11px; font-family: sans-serif;">3.0</text></g><path class="domain" d="M-6,0H0V250H-6" style="fill: none; stroke: grey;"></path></g><g class="x axis" transform="translate(0,250)"><g class="tick" transform="translate(7.5,0)" style="opacity: 1;"><line y2="6" x2="0" style="fill: none; stroke: grey;"></line></g><g class="tick" transform="translate(22.5,0)" style="opacity: 1;"><line y2="6" x2="0" style="fill: none; stroke: grey;"></line></g><g class="tick" transform="translate(37.5,0)" style="opacity: 1;"><line y2="6" x2="0" style="fill: none; stroke: grey;"></line></g><g class="tick" transform="translate(52.5,0)" style="opacity: 1;"><line y2="6" x2="0" style="fill: none; stroke: grey;"></line></g><g class="tick" transform="translate(67.5,0)" style="opacity: 1;"><line y2="6" x2="0" style="fill: none; stroke: grey;"></line></g><g class="tick" transform="translate(82.5,0)" style="opacity: 1;"><line y2="6" x2="0" style="fill: none; stroke: grey;"></line></g><g class="tick" transform="translate(97.5,0)" style="opacity: 1;"><line y2="6" x2="0" style="fill: none; stroke: grey;"></line></g><g class="tick" transform="translate(112.5,0)" style="opacity: 1;"><line y2="6" x2="0" style="fill: none; stroke: grey;"></line></g><g class="tick" transform="translate(127.5,0)" style="opacity: 1;"><line y2="6" x2="0" style="fill: none; stroke: grey;"></line></g><g class="tick" transform="translate(142.5,0)" style="opacity: 1;"><line y2="6" x2="0" style="fill: none; stroke: grey;"></line></g><g class="tick" transform="translate(157.5,0)" style="opacity: 1;"><line y2="6" x2="0" style="fill: none; stroke: grey;"></line></g><g class="tick" transform="translate(172.5,0)" style="opacity: 1;"><line y2="6" x2="0" style="fill: none; stroke: grey;"></line></g><g class="tick" transform="translate(187.5,0)" style="opacity: 1;"><line y2="6" x2="0" style="fill: none; stroke: grey;"></line></g><g class="tick" transform="translate(202.5,0)" style="opacity: 1;"><line y2="6" x2="0" style="fill: none; stroke: grey;"></line></g><g class="tick" transform="translate(217.5,0)" style="opacity: 1;"><line y2="6" x2="0" style="fill: none; stroke: grey;"></line></g><g class="tick" transform="translate(232.5,0)" style="opacity: 1;"><line y2="6" x2="0" style="fill: none; stroke: grey;"></line></g><g class="tick" transform="translate(247.5,0)" style="opacity: 1;"><line y2="6" x2="0" style="fill: none; stroke: grey;"></line></g><g class="tick" transform="translate(262.5,0)" style="opacity: 1;"><line y2="6" x2="0" style="fill: none; stroke: grey;"></line></g><g class="tick" transform="translate(277.5,0)" style="opacity: 1;"><line y2="6" x2="0" style="fill: none; stroke: grey;"></line></g><g class="tick" transform="translate(292.5,0)" style="opacity: 1;"><line y2="6" x2="0" style="fill: none; stroke: grey;"></line></g><g class="tick" transform="translate(307.5,0)" style="opacity: 1;"><line y2="6" x2="0" style="fill: none; stroke: grey;"></line></g><g class="tick" transform="translate(322.5,0)" style="opacity: 1;"><line y2="6" x2="0" style="fill: none; stroke: grey;"></line></g><g class="tick" transform="translate(337.5,0)" style="opacity: 1;"><line y2="6" x2="0" style="fill: none; stroke: grey;"></line></g><g class="tick" transform="translate(352.5,0)" style="opacity: 1;"><line y2="6" x2="0" style="fill: none; stroke: grey;"></line></g><g class="tick" transform="translate(367.5,0)" style="opacity: 1;"><line y2="6" x2="0" style="fill: none; stroke: grey;"></line></g><g class="tick" transform="translate(382.5,0)" style="opacity: 1;"><line y2="6" x2="0" style="fill: none; stroke: grey;"></line></g><g class="tick" transform="translate(397.5,0)" style="opacity: 1;"><line y2="6" x2="0" style="fill: none; stroke: grey;"></line></g><g class="tick" transform="translate(412.5,0)" style="opacity: 1;"><line y2="6" x2="0" style="fill: none; stroke: grey;"></line></g><g class="tick" transform="translate(427.5,0)" style="opacity: 1;"><line y2="6" x2="0" style="fill: none; stroke: grey;"></line></g><path class="domain" d="M0,6V0H435V6" style="fill: none; stroke: grey;"></path></g><text text-anchor="middle" transform="translate(-55,125)rotate(-90)" style="font-family: sans-serif;">-log 10 P-value</text></g></svg>