<svg width="500" height="250"><g transform="translate(40,20)"><text x="390" y="10" style="font-size: 10px; font-family: sans-serif;">-log2(E)</text><g><rect class="legendRect" x="390" y="13" width="20" height="5" fill="#ff0000"></rect></g><g><rect class="legendRect" x="390" y="18" width="20" height="5" fill="#ff1715"></rect></g><g><rect class="legendRect" x="390" y="23" width="20" height="5" fill="#ff2e2a"></rect></g><g><rect class="legendRect" x="390" y="28" width="20" height="5" fill="#ff453e"></rect></g><g><rect class="legendRect" x="390" y="33" width="20" height="5" fill="#ff5c53"></rect></g><g><rect class="legendRect" x="390" y="38" width="20" height="5" fill="#ff7368"></rect></g><g><rect class="legendRect" x="390" y="43" width="20" height="5" fill="#ff8a7d"></rect></g><g><rect class="legendRect" x="390" y="48" width="20" height="5" fill="#ffa192"></rect></g><g><rect class="legendRect" x="390" y="53" width="20" height="5" fill="#ffb8a6"></rect></g><g><rect class="legendRect" x="390" y="58" width="20" height="5" fill="#ffcfbb"></rect></g><g><rect class="legendRect" x="390" y="63" width="20" height="5" fill="#ffe7d0"></rect></g><g><rect class="legendRect" x="390" y="68" width="20" height="5" fill="#fffee5"></rect></g><g><rect class="legendRect" x="390" y="73" width="20" height="5" fill="#aeaeee"></rect></g><g><rect class="legendRect" x="390" y="78" width="20" height="5" fill="#5757f6"></rect></g><g><rect class="legendRect" x="390" y="83" width="20" height="5" fill="#0000ff"></rect></g><g><text text-anchor="start" class="legenedText" x="412" y="20" style="font-size: 10px; font-family: sans-serif;">4.63</text></g><g><text text-anchor="start" class="legenedText" x="412" y="90" style="font-size: 10px; font-family: sans-serif;">-1.23</text></g><text x="390" y="105" style="font-size: 10px; font-family: sans-serif;">* p&lt;0.05</text><text x="390" y="120" style="font-size: 10px; font-family: sans-serif;">** p&lt;0.05/11</text><rect class="backbar" x="5" width="31" y="73.33333333333334" height="66.66666666666666" fill="transparent" opacity="0"></rect><rect class="backbar" x="39" width="31" y="73.33333333333334" height="66.66666666666666" fill="transparent" opacity="0"></rect><rect class="backbar" x="73" width="31" y="73.33333333333334" height="66.66666666666666" fill="transparent" opacity="0"></rect><rect class="backbar" x="107" width="31" y="73.33333333333334" height="66.66666666666666" fill="transparent" opacity="0"></rect><rect class="backbar" x="141" width="31" y="73.33333333333334" height="66.66666666666666" fill="transparent" opacity="0"></rect><rect class="backbar" x="175" width="31" y="73.33333333333334" height="66.66666666666666" fill="transparent" opacity="0"></rect><rect class="backbar" x="209" width="31" y="73.33333333333334" height="66.66666666666666" fill="transparent" opacity="0"></rect><rect class="backbar" x="243" width="31" y="73.33333333333334" height="66.66666666666666" fill="transparent" opacity="0"></rect><rect class="backbar" x="277" width="31" y="73.33333333333334" height="66.66666666666666" fill="transparent" opacity="0"></rect><rect class="backbar" x="311" width="31" y="73.33333333333334" height="66.66666666666666" fill="transparent" opacity="0"></rect><rect class="backbar" x="345" width="31" y="73.33333333333334" height="66.66666666666666" fill="transparent" opacity="0"></rect><rect class="bar" x="5" width="31" y="6.666666666666674" height="133.33333333333331" fill="#fff7df"></rect><rect class="bar" x="39" width="31" y="7.045454545454297" height="132.9545454545457" fill="#ebebe8"></rect><rect class="bar" x="73" width="31" y="114.6212121212121" height="25.378787878787904" fill="#9292f1"></rect><rect class="bar" x="107" width="31" y="131.66666666666666" height="8.333333333333343" fill="#ffb3a1"></rect><rect class="bar" x="141" width="31" y="135.07575757575756" height="4.924242424242436" fill="#ffe0ca"></rect><rect class="bar" x="175" width="31" y="135.45454545454547" height="4.5454545454545325" fill="#ffdfc9"></rect><rect class="bar" x="209" width="31" y="137.34848484848484" height="2.651515151515156" fill="#ffa999"></rect><rect class="bar" x="243" width="31" y="138.10606060606062" height="1.8939393939393767" fill="#7474f4"></rect><rect class="bar" x="277" width="31" y="138.48484848484847" height="1.5151515151515298" fill="#0000ff"></rect><rect class="bar" x="311" width="31" y="139.24242424242425" height="0.7575757575757507" fill="#ff0000"></rect><rect class="bar" x="345" width="31" y="139.62121212121212" height="0.37878787878787534" fill="#ff0403"></rect><text x="17.09090909090909" y="6.800000000000008" text-anchor="start" style="font-family: sans-serif;">*</text><text x="85.0909090909091" y="116.91363636363634" text-anchor="start" style="font-family: sans-serif;">*</text><text x="119.0909090909091" y="134.29999999999998" text-anchor="start" style="font-family: sans-serif;">*</text><text x="221.0909090909091" y="140.09545454545454" text-anchor="start" style="font-family: sans-serif;">*</text><text x="323.09090909090907" y="142.02727272727273" text-anchor="start" style="font-family: sans-serif;">*</text><text x="357.09090909090907" y="142.41363636363636" text-anchor="start" style="font-family: sans-serif;">*</text><g class="x axis" transform="translate(0,140)"><g class="tick" transform="translate(20.5,0)" style="opacity: 1;"><line y2="6" x2="0"></line><text dy="-.45em" y="9" x="0" transform="rotate(-65)" dx="-.65em" style="text-anchor: end; font-family: sans-serif; font-size: 11px;">intronic</text></g><g class="tick" transform="translate(54.5,0)" style="opacity: 1;"><line y2="6" x2="0"></line><text dy="-.45em" y="9" x="0" transform="rotate(-65)" dx="-.65em" style="text-anchor: end; font-family: sans-serif; font-size: 11px;">intergenic</text></g><g class="tick" transform="translate(88.5,0)" style="opacity: 1;"><line y2="6" x2="0"></line><text dy="-.45em" y="9" x="0" transform="rotate(-65)" dx="-.65em" style="text-anchor: end; font-family: sans-serif; font-size: 11px;">ncRNA_intronic</text></g><g class="tick" transform="translate(122.5,0)" style="opacity: 1;"><line y2="6" x2="0"></line><text dy="-.45em" y="9" x="0" transform="rotate(-65)" dx="-.65em" style="text-anchor: end; font-family: sans-serif; font-size: 11px;">ncRNA_exonic</text></g><g class="tick" transform="translate(156.5,0)" style="opacity: 1;"><line y2="6" x2="0"></line><text dy="-.45em" y="9" x="0" transform="rotate(-65)" dx="-.65em" style="text-anchor: end; font-family: sans-serif; font-size: 11px;">upstream</text></g><g class="tick" transform="translate(190.5,0)" style="opacity: 1;"><line y2="6" x2="0"></line><text dy="-.45em" y="9" x="0" transform="rotate(-65)" dx="-.65em" style="text-anchor: end; font-family: sans-serif; font-size: 11px;">exonic</text></g><g class="tick" transform="translate(224.5,0)" style="opacity: 1;"><line y2="6" x2="0"></line><text dy="-.45em" y="9" x="0" transform="rotate(-65)" dx="-.65em" style="text-anchor: end; font-family: sans-serif; font-size: 11px;">UTR5</text></g><g class="tick" transform="translate(258.5,0)" style="opacity: 1;"><line y2="6" x2="0"></line><text dy="-.45em" y="9" x="0" transform="rotate(-65)" dx="-.65em" style="text-anchor: end; font-family: sans-serif; font-size: 11px;">UTR3</text></g><g class="tick" transform="translate(292.5,0)" style="opacity: 1;"><line y2="6" x2="0"></line><text dy="-.45em" y="9" x="0" transform="rotate(-65)" dx="-.65em" style="text-anchor: end; font-family: sans-serif; font-size: 11px;">downstream</text></g><g class="tick" transform="translate(326.5,0)" style="opacity: 1;"><line y2="6" x2="0"></line><text dy="-.45em" y="9" x="0" transform="rotate(-65)" dx="-.65em" style="text-anchor: end; font-family: sans-serif; font-size: 11px;">splicing</text></g><g class="tick" transform="translate(360.5,0)" style="opacity: 1;"><line y2="6" x2="0"></line><text dy="-.45em" y="9" x="0" transform="rotate(-65)" dx="-.65em" style="text-anchor: end; font-family: sans-serif; font-size: 11px;">ncRNA_splicing</text></g><path class="domain" d="M0,6V0H380V6" style="fill: none; stroke: grey;"></path></g><g class="y axis"><g class="tick" transform="translate(0,140)" style="opacity: 1;"><line x2="-6" y2="0"></line><text dy=".32em" x="-9" y="0" style="text-anchor: end; font-family: sans-serif; font-size: 11px;">0.0</text></g><g class="tick" transform="translate(0,108.3333333333333)" style="opacity: 1;"><line x2="-6" y2="0"></line><text dy=".32em" x="-9" y="0" style="text-anchor: end; font-family: sans-serif; font-size: 11px;">0.1</text></g><g class="tick" transform="translate(0,76.66666666666661)" style="opacity: 1;"><line x2="-6" y2="0"></line><text dy=".32em" x="-9" y="0" style="text-anchor: end; font-family: sans-serif; font-size: 11px;">0.2</text></g><g class="tick" transform="translate(0,44.999999999999936)" style="opacity: 1;"><line x2="-6" y2="0"></line><text dy=".32em" x="-9" y="0" style="text-anchor: end; font-family: sans-serif; font-size: 11px;">0.3</text></g><g class="tick" transform="translate(0,13.333333333333224)" style="opacity: 1;"><line x2="-6" y2="0"></line><text dy=".32em" x="-9" y="0" style="text-anchor: end; font-family: sans-serif; font-size: 11px;">0.4</text></g><path class="domain" d="M-6,0H0V140H-6" style="fill: none; stroke: grey;"></path><text transform="rotate(-90)" dy=".71em" style="text-anchor: end; font-family: sans-serif; font-size: 11px;"></text></g><text text-anchor="middle" transform="translate(-28,70)rotate(-90)" style="font-family: sans-serif;">Proportion</text></g></svg>