<svg width="545" height="380"><g transform="translate(80,30)"><rect x="210" y="131.15745377939552" width="14" height="118.84254622060448" style="fill: rgb(86, 104, 244); stroke: grey;"></rect><rect x="300" y="190.60247140154158" width="14" height="59.39752859845842" style="fill: rgb(86, 104, 244); stroke: grey;"></rect><rect x="165" y="84.68514219397136" width="14" height="165.31485780602864" style="fill: rgb(86, 104, 244); stroke: grey;"></rect><rect x="135" y="67.26463027293897" width="14" height="182.73536972706103" style="fill: rgb(86, 104, 244); stroke: grey;"></rect><rect x="360" y="203.49520467833844" width="14" height="46.50479532166156" style="fill: rgb(86, 104, 244); stroke: grey;"></rect><rect x="225" y="146.5846324453999" width="14" height="103.4153675546001" style="fill: rgb(86, 104, 244); stroke: grey;"></rect><rect x="45" y="37.50533594906247" width="14" height="212.49466405093753" style="fill: rgb(86, 104, 244); stroke: grey;"></rect><rect x="75" y="45.25046876385594" width="14" height="204.74953123614407" style="fill: rgb(86, 104, 244); stroke: grey;"></rect><rect x="330" y="197.5965252872771" width="14" height="52.4034747127229" style="fill: rgb(86, 104, 244); stroke: grey;"></rect><rect x="120" y="60.47413610752392" width="14" height="189.52586389247608" style="fill: rgb(86, 104, 244); stroke: grey;"></rect><rect x="180" y="89.6972585794521" width="14" height="160.3027414205479" style="fill: rgb(86, 104, 244); stroke: grey;"></rect><rect x="240" y="147.1930476670172" width="14" height="102.8069523329828" style="fill: rgb(86, 104, 244); stroke: grey;"></rect><rect x="15" y="3.9403919096820115" width="14" height="246.059608090318" style="fill: rgb(86, 104, 244); stroke: grey;"></rect><rect x="255" y="151.67522271740162" width="14" height="98.32477728259838" style="fill: rgb(86, 104, 244); stroke: grey;"></rect><rect x="345" y="197.79155142776168" width="14" height="52.208448572238325" style="fill: rgb(86, 104, 244); stroke: grey;"></rect><rect x="60" y="43.60008337745968" width="14" height="206.39991662254033" style="fill: rgb(86, 104, 244); stroke: grey;"></rect><rect x="315" y="191.47852543436343" width="14" height="58.52147456563657" style="fill: rgb(86, 104, 244); stroke: grey;"></rect><rect x="375" y="217.81405770765247" width="14" height="32.185942292347534" style="fill: rgb(86, 104, 244); stroke: grey;"></rect><rect x="105" y="53.711428459256695" width="14" height="196.2885715407433" style="fill: rgb(86, 104, 244); stroke: grey;"></rect><rect x="0" y="0" width="14" height="250" style="fill: rgb(86, 104, 244); stroke: grey;"></rect><rect x="90" y="50.70177017468255" width="14" height="199.29822982531743" style="fill: rgb(86, 104, 244); stroke: grey;"></rect><rect x="30" y="4.455486177685625" width="14" height="245.54451382231437" style="fill: rgb(86, 104, 244); stroke: grey;"></rect><rect x="420" y="237.63568093824537" width="14" height="12.364319061754628" style="fill: rgb(86, 104, 244); stroke: grey;"></rect><rect x="195" y="108.8989010548474" width="14" height="141.10109894515261" style="fill: rgb(86, 104, 244); stroke: grey;"></rect><rect x="405" y="223.77122236002202" width="14" height="26.228777639977977" style="fill: rgb(86, 104, 244); stroke: grey;"></rect><rect x="270" y="175.98662092786367" width="14" height="74.01337907213633" style="fill: rgb(86, 104, 244); stroke: grey;"></rect><rect x="285" y="181.14887076637768" width="14" height="68.85112923362232" style="fill: rgb(86, 104, 244); stroke: grey;"></rect><rect x="390" y="218.25316861314164" width="14" height="31.74683138685836" style="fill: rgb(86, 104, 244); stroke: grey;"></rect><rect x="150" y="68.42217200190944" width="14" height="181.57782799809056" style="fill: rgb(86, 104, 244); stroke: grey;"></rect><g><text transform="translate(220,258)rotate(-70)" style="text-anchor: end; font-size: 11px; font-family: sans-serif;">10_mos</text><text transform="translate(310,258)rotate(-70)" style="text-anchor: end; font-size: 11px; font-family: sans-serif;">11_yrs</text><text transform="translate(175,258)rotate(-70)" style="text-anchor: end; font-size: 11px; font-family: sans-serif;">12_pcw</text><text transform="translate(145,258)rotate(-70)" style="text-anchor: end; font-size: 11px; font-family: sans-serif;">13_pcw</text><text transform="translate(370,258)rotate(-70)" style="text-anchor: end; font-size: 11px; font-family: sans-serif;">13_yrs</text><text transform="translate(235,258)rotate(-70)" style="text-anchor: end; font-size: 11px; font-family: sans-serif;">15_yrs</text><text transform="translate(55,258)rotate(-70)" style="text-anchor: end; font-size: 11px; font-family: sans-serif;">16_pcw</text><text transform="translate(85,258)rotate(-70)" style="text-anchor: end; font-size: 11px; font-family: sans-serif;">17_pcw</text><text transform="translate(340,258)rotate(-70)" style="text-anchor: end; font-size: 11px; font-family: sans-serif;">18_yrs</text><text transform="translate(130,258)rotate(-70)" style="text-anchor: end; font-size: 11px; font-family: sans-serif;">19_pcw</text><text transform="translate(190,258)rotate(-70)" style="text-anchor: end; font-size: 11px; font-family: sans-serif;">19_yrs</text><text transform="translate(250,258)rotate(-70)" style="text-anchor: end; font-size: 11px; font-family: sans-serif;">1_yrs</text><text transform="translate(25,258)rotate(-70)" style="text-anchor: end; font-size: 11px; font-family: sans-serif;">21_pcw</text><text transform="translate(265,258)rotate(-70)" style="text-anchor: end; font-size: 11px; font-family: sans-serif;">21_yrs</text><text transform="translate(355,258)rotate(-70)" style="text-anchor: end; font-size: 11px; font-family: sans-serif;">23_yrs</text><text transform="translate(70,258)rotate(-70)" style="text-anchor: end; font-size: 11px; font-family: sans-serif;">24_pcw</text><text transform="translate(325,258)rotate(-70)" style="text-anchor: end; font-size: 11px; font-family: sans-serif;">26_pcw</text><text transform="translate(385,258)rotate(-70)" style="text-anchor: end; font-size: 11px; font-family: sans-serif;">2_yrs</text><text transform="translate(115,258)rotate(-70)" style="text-anchor: end; font-size: 11px; font-family: sans-serif;">30_yrs</text><text transform="translate(10,258)rotate(-70)" style="text-anchor: end; font-size: 11px; font-family: sans-serif;">36_yrs</text><text transform="translate(100,258)rotate(-70)" style="text-anchor: end; font-size: 11px; font-family: sans-serif;">37_pcw</text><text transform="translate(40,258)rotate(-70)" style="text-anchor: end; font-size: 11px; font-family: sans-serif;">37_yrs</text><text transform="translate(430,258)rotate(-70)" style="text-anchor: end; font-size: 11px; font-family: sans-serif;">3_yrs</text><text transform="translate(205,258)rotate(-70)" style="text-anchor: end; font-size: 11px; font-family: sans-serif;">40_yrs</text><text transform="translate(415,258)rotate(-70)" style="text-anchor: end; font-size: 11px; font-family: sans-serif;">4_mos</text><text transform="translate(280,258)rotate(-70)" style="text-anchor: end; font-size: 11px; font-family: sans-serif;">4_yrs</text><text transform="translate(295,258)rotate(-70)" style="text-anchor: end; font-size: 11px; font-family: sans-serif;">8_pcw</text><text transform="translate(400,258)rotate(-70)" style="text-anchor: end; font-size: 11px; font-family: sans-serif;">8_yrs</text><text transform="translate(160,258)rotate(-70)" style="text-anchor: end; font-size: 11px; font-family: sans-serif;">9_pcw</text></g><line x1="0" x2="435" y1="-819.5221590198281" y2="-819.5221590198281" style="stroke: black; stroke-dasharray: 3, 3;"></line><g class="y axis"><g class="tick" transform="translate(0,250)" style="opacity: 1;"><line x2="-6" y2="0" style="fill: none; stroke: grey;"></line><text dy=".32em" x="-9" y="0" style="text-anchor: end; font-size: 11px; font-family: sans-serif;">0.00</text></g><g class="tick" transform="translate(0,230.64863348147395)" style="opacity: 1;"><line x2="-6" y2="0" style="fill: none; stroke: grey;"></line><text dy=".32em" x="-9" y="0" style="text-anchor: end; font-size: 11px; font-family: sans-serif;">0.05</text></g><g class="tick" transform="translate(0,211.29726696294793)" style="opacity: 1;"><line x2="-6" y2="0" style="fill: none; stroke: grey;"></line><text dy=".32em" x="-9" y="0" style="text-anchor: end; font-size: 11px; font-family: sans-serif;">0.10</text></g><g class="tick" transform="translate(0,191.94590044442188)" style="opacity: 1;"><line x2="-6" y2="0" style="fill: none; stroke: grey;"></line><text dy=".32em" x="-9" y="0" style="text-anchor: end; font-size: 11px; font-family: sans-serif;">0.15</text></g><g class="tick" transform="translate(0,172.59453392589586)" style="opacity: 1;"><line x2="-6" y2="0" style="fill: none; stroke: grey;"></line><text dy=".32em" x="-9" y="0" style="text-anchor: end; font-size: 11px; font-family: sans-serif;">0.20</text></g><g class="tick" transform="translate(0,153.2431674073698)" style="opacity: 1;"><line x2="-6" y2="0" style="fill: none; stroke: grey;"></line><text dy=".32em" x="-9" y="0" style="text-anchor: end; font-size: 11px; font-family: sans-serif;">0.25</text></g><g class="tick" transform="translate(0,133.8918008888438)" style="opacity: 1;"><line x2="-6" y2="0" style="fill: none; stroke: grey;"></line><text dy=".32em" x="-9" y="0" style="text-anchor: end; font-size: 11px; font-family: sans-serif;">0.30</text></g><g class="tick" transform="translate(0,114.54043437031777)" style="opacity: 1;"><line x2="-6" y2="0" style="fill: none; stroke: grey;"></line><text dy=".32em" x="-9" y="0" style="text-anchor: end; font-size: 11px; font-family: sans-serif;">0.35</text></g><g class="tick" transform="translate(0,95.1890678517917)" style="opacity: 1;"><line x2="-6" y2="0" style="fill: none; stroke: grey;"></line><text dy=".32em" x="-9" y="0" style="text-anchor: end; font-size: 11px; font-family: sans-serif;">0.40</text></g><g class="tick" transform="translate(0,75.83770133326567)" style="opacity: 1;"><line x2="-6" y2="0" style="fill: none; stroke: grey;"></line><text dy=".32em" x="-9" y="0" style="text-anchor: end; font-size: 11px; font-family: sans-serif;">0.45</text></g><g class="tick" transform="translate(0,56.486334814739635)" style="opacity: 1;"><line x2="-6" y2="0" style="fill: none; stroke: grey;"></line><text dy=".32em" x="-9" y="0" style="text-anchor: end; font-size: 11px; font-family: sans-serif;">0.50</text></g><g class="tick" transform="translate(0,37.1349682962136)" style="opacity: 1;"><line x2="-6" y2="0" style="fill: none; stroke: grey;"></line><text dy=".32em" x="-9" y="0" style="text-anchor: end; font-size: 11px; font-family: sans-serif;">0.55</text></g><g class="tick" transform="translate(0,17.78360177768759)" style="opacity: 1;"><line x2="-6" y2="0" style="fill: none; stroke: grey;"></line><text dy=".32em" x="-9" y="0" style="text-anchor: end; font-size: 11px; font-family: sans-serif;">0.60</text></g><path class="domain" d="M-6,0H0V250H-6" style="fill: none; stroke: grey;"></path></g><g class="x axis" transform="translate(0,250)"><g class="tick" transform="translate(7.5,0)" style="opacity: 1;"><line y2="6" x2="0" style="fill: none; stroke: grey;"></line></g><g class="tick" transform="translate(22.5,0)" style="opacity: 1;"><line y2="6" x2="0" style="fill: none; stroke: grey;"></line></g><g class="tick" transform="translate(37.5,0)" style="opacity: 1;"><line y2="6" x2="0" style="fill: none; stroke: grey;"></line></g><g class="tick" transform="translate(52.5,0)" style="opacity: 1;"><line y2="6" x2="0" style="fill: none; stroke: grey;"></line></g><g class="tick" transform="translate(67.5,0)" style="opacity: 1;"><line y2="6" x2="0" style="fill: none; stroke: grey;"></line></g><g class="tick" transform="translate(82.5,0)" style="opacity: 1;"><line y2="6" x2="0" style="fill: none; stroke: grey;"></line></g><g class="tick" transform="translate(97.5,0)" style="opacity: 1;"><line y2="6" x2="0" style="fill: none; stroke: grey;"></line></g><g class="tick" transform="translate(112.5,0)" style="opacity: 1;"><line y2="6" x2="0" style="fill: none; stroke: grey;"></line></g><g class="tick" transform="translate(127.5,0)" style="opacity: 1;"><line y2="6" x2="0" style="fill: none; stroke: grey;"></line></g><g class="tick" transform="translate(142.5,0)" style="opacity: 1;"><line y2="6" x2="0" style="fill: none; stroke: grey;"></line></g><g class="tick" transform="translate(157.5,0)" style="opacity: 1;"><line y2="6" x2="0" style="fill: none; stroke: grey;"></line></g><g class="tick" transform="translate(172.5,0)" style="opacity: 1;"><line y2="6" x2="0" style="fill: none; stroke: grey;"></line></g><g class="tick" transform="translate(187.5,0)" style="opacity: 1;"><line y2="6" x2="0" style="fill: none; stroke: grey;"></line></g><g class="tick" transform="translate(202.5,0)" style="opacity: 1;"><line y2="6" x2="0" style="fill: none; stroke: grey;"></line></g><g class="tick" transform="translate(217.5,0)" style="opacity: 1;"><line y2="6" x2="0" style="fill: none; stroke: grey;"></line></g><g class="tick" transform="translate(232.5,0)" style="opacity: 1;"><line y2="6" x2="0" style="fill: none; stroke: grey;"></line></g><g class="tick" transform="translate(247.5,0)" style="opacity: 1;"><line y2="6" x2="0" style="fill: none; stroke: grey;"></line></g><g class="tick" transform="translate(262.5,0)" style="opacity: 1;"><line y2="6" x2="0" style="fill: none; stroke: grey;"></line></g><g class="tick" transform="translate(277.5,0)" style="opacity: 1;"><line y2="6" x2="0" style="fill: none; stroke: grey;"></line></g><g class="tick" transform="translate(292.5,0)" style="opacity: 1;"><line y2="6" x2="0" style="fill: none; stroke: grey;"></line></g><g class="tick" transform="translate(307.5,0)" style="opacity: 1;"><line y2="6" x2="0" style="fill: none; stroke: grey;"></line></g><g class="tick" transform="translate(322.5,0)" style="opacity: 1;"><line y2="6" x2="0" style="fill: none; stroke: grey;"></line></g><g class="tick" transform="translate(337.5,0)" style="opacity: 1;"><line y2="6" x2="0" style="fill: none; stroke: grey;"></line></g><g class="tick" transform="translate(352.5,0)" style="opacity: 1;"><line y2="6" x2="0" style="fill: none; stroke: grey;"></line></g><g class="tick" transform="translate(367.5,0)" style="opacity: 1;"><line y2="6" x2="0" style="fill: none; stroke: grey;"></line></g><g class="tick" transform="translate(382.5,0)" style="opacity: 1;"><line y2="6" x2="0" style="fill: none; stroke: grey;"></line></g><g class="tick" transform="translate(397.5,0)" style="opacity: 1;"><line y2="6" x2="0" style="fill: none; stroke: grey;"></line></g><g class="tick" transform="translate(412.5,0)" style="opacity: 1;"><line y2="6" x2="0" style="fill: none; stroke: grey;"></line></g><g class="tick" transform="translate(427.5,0)" style="opacity: 1;"><line y2="6" x2="0" style="fill: none; stroke: grey;"></line></g><path class="domain" d="M0,6V0H435V6" style="fill: none; stroke: grey;"></path></g><text text-anchor="middle" transform="translate(-55,125)rotate(-90)" style="font-family: sans-serif;">-log 10 P-value</text></g></svg>