<svg width="920" height="483.5"><g transform="translate(80,30)"><rect x="510" y="233.23565851274154" width="14" height="16.764341487258463" style="fill: rgb(86, 104, 244); stroke: grey;"></rect><rect x="660" y="241.5408639666624" width="14" height="8.459136033337586" style="fill: rgb(86, 104, 244); stroke: grey;"></rect><rect x="480" y="231.6146534257929" width="14" height="18.38534657420709" style="fill: rgb(86, 104, 244); stroke: grey;"></rect><rect x="30" y="10.56697921488764" width="14" height="239.43302078511235" style="fill: rgb(86, 104, 244); stroke: grey;"></rect><rect x="135" y="126.3280892512223" width="14" height="123.6719107487777" style="fill: rgb(86, 104, 244); stroke: grey;"></rect><rect x="60" y="53.55660456642794" width="14" height="196.44339543357205" style="fill: rgb(86, 104, 244); stroke: grey;"></rect><rect x="180" y="183.50174418532578" width="14" height="66.49825581467422" style="fill: rgb(86, 104, 244); stroke: grey;"></rect><rect x="600" y="239.28300348274078" width="14" height="10.716996517259219" style="fill: rgb(86, 104, 244); stroke: grey;"></rect><rect x="585" y="238.90521436658435" width="14" height="11.094785633415654" style="fill: rgb(86, 104, 244); stroke: grey;"></rect><rect x="450" y="230.8510213669942" width="14" height="19.14897863300581" style="fill: rgb(86, 104, 244); stroke: grey;"></rect><rect x="165" y="154.17063326744582" width="14" height="95.82936673255418" style="fill: rgb(86, 104, 244); stroke: grey;"></rect><rect x="150" y="141.91421464294106" width="14" height="108.08578535705894" style="fill: rgb(86, 104, 244); stroke: grey;"></rect><rect x="375" y="224.04163368167667" width="14" height="25.95836631832333" style="fill: rgb(86, 104, 244); stroke: grey;"></rect><rect x="525" y="234.54714431005814" width="14" height="15.452855689941856" style="fill: rgb(86, 104, 244); stroke: grey;"></rect><rect x="570" y="238.2953964858559" width="14" height="11.704603514144111" style="fill: rgb(86, 104, 244); stroke: grey;"></rect><rect x="645" y="241.15738709949466" width="14" height="8.842612900505344" style="fill: rgb(86, 104, 244); stroke: grey;"></rect><rect x="465" y="231.32838417209186" width="14" height="18.67161582790814" style="fill: rgb(86, 104, 244); stroke: grey;"></rect><rect x="420" y="227.1249311581267" width="14" height="22.875068841873286" style="fill: rgb(86, 104, 244); stroke: grey;"></rect><rect x="555" y="237.638330863314" width="14" height="12.361669136686004" style="fill: rgb(86, 104, 244); stroke: grey;"></rect><rect x="540" y="237.13463218850956" width="14" height="12.865367811490444" style="fill: rgb(86, 104, 244); stroke: grey;"></rect><rect x="390" y="224.31838312550715" width="14" height="25.681616874492846" style="fill: rgb(86, 104, 244); stroke: grey;"></rect><rect x="735" y="244.6693542067427" width="14" height="5.330645793257304" style="fill: rgb(86, 104, 244); stroke: grey;"></rect><rect x="780" y="248.89200812612236" width="14" height="1.107991873877637" style="fill: rgb(86, 104, 244); stroke: grey;"></rect><rect x="270" y="201.24579713508936" width="14" height="48.75420286491064" style="fill: rgb(86, 104, 244); stroke: grey;"></rect><rect x="405" y="227.08248147678123" width="14" height="22.917518523218774" style="fill: rgb(86, 104, 244); stroke: grey;"></rect><rect x="225" y="196.27515967769813" width="14" height="53.72484032230187" style="fill: rgb(86, 104, 244); stroke: grey;"></rect><rect x="630" y="240.07420769863398" width="14" height="9.925792301366016" style="fill: rgb(86, 104, 244); stroke: grey;"></rect><rect x="0" y="0" width="14" height="250" style="fill: rgb(86, 104, 244); stroke: grey;"></rect><rect x="360" y="216.82365439061863" width="14" height="33.17634560938137" style="fill: rgb(86, 104, 244); stroke: grey;"></rect><rect x="15" y="1.193172228205086" width="14" height="248.8068277717949" style="fill: rgb(86, 104, 244); stroke: grey;"></rect><rect x="210" y="186.54884255324941" width="14" height="63.451157446750585" style="fill: rgb(86, 104, 244); stroke: grey;"></rect><rect x="105" y="102.02705090924074" width="14" height="147.97294909075924" style="fill: rgb(86, 104, 244); stroke: grey;"></rect><rect x="90" y="82.70750673277463" width="14" height="167.29249326722538" style="fill: rgb(86, 104, 244); stroke: grey;"></rect><rect x="750" y="245.9802201834422" width="14" height="4.0197798165577865" style="fill: rgb(86, 104, 244); stroke: grey;"></rect><rect x="675" y="241.65112976225473" width="14" height="8.348870237745274" style="fill: rgb(86, 104, 244); stroke: grey;"></rect><rect x="705" y="243.30165408759237" width="14" height="6.698345912407632" style="fill: rgb(86, 104, 244); stroke: grey;"></rect><rect x="615" y="240.05973432569056" width="14" height="9.940265674309444" style="fill: rgb(86, 104, 244); stroke: grey;"></rect><rect x="435" y="229.02514684972994" width="14" height="20.974853150270064" style="fill: rgb(86, 104, 244); stroke: grey;"></rect><rect x="120" y="111.23333282746425" width="14" height="138.76666717253573" style="fill: rgb(86, 104, 244); stroke: grey;"></rect><rect x="495" y="231.6348387973147" width="14" height="18.3651612026853" style="fill: rgb(86, 104, 244); stroke: grey;"></rect><rect x="240" y="198.31111839988588" width="14" height="51.688881600114115" style="fill: rgb(86, 104, 244); stroke: grey;"></rect><rect x="195" y="184.7796226822342" width="14" height="65.22037731776581" style="fill: rgb(86, 104, 244); stroke: grey;"></rect><rect x="75" y="70.54949567786478" width="14" height="179.4505043221352" style="fill: rgb(86, 104, 244); stroke: grey;"></rect><rect x="300" y="208.05253985145794" width="14" height="41.94746014854206" style="fill: rgb(86, 104, 244); stroke: grey;"></rect><rect x="315" y="212.475605982483" width="14" height="37.52439401751701" style="fill: rgb(86, 104, 244); stroke: grey;"></rect><rect x="255" y="199.62769373302413" width="14" height="50.37230626697587" style="fill: rgb(86, 104, 244); stroke: grey;"></rect><rect x="690" y="242.744795116181" width="14" height="7.255204883819005" style="fill: rgb(86, 104, 244); stroke: grey;"></rect><rect x="765" y="247.82455092765034" width="14" height="2.1754490723496644" style="fill: rgb(86, 104, 244); stroke: grey;"></rect><rect x="285" y="207.9564864687598" width="14" height="42.043513531240194" style="fill: rgb(86, 104, 244); stroke: grey;"></rect><rect x="45" y="47.40976963491414" width="14" height="202.59023036508586" style="fill: rgb(86, 104, 244); stroke: grey;"></rect><rect x="720" y="244.32160788761465" width="14" height="5.678392112385353" style="fill: rgb(86, 104, 244); stroke: grey;"></rect><rect x="345" y="216.67801439011362" width="14" height="33.32198560988638" style="fill: rgb(86, 104, 244); stroke: grey;"></rect><rect x="330" y="215.4760918152248" width="14" height="34.523908184775195" style="fill: rgb(86, 104, 244); stroke: grey;"></rect><rect x="795" y="249.91752649869142" width="14" height="0.08247350130858422" style="fill: rgb(86, 104, 244); stroke: grey;"></rect><g><text transform="translate(520,258)rotate(-70)" style="text-anchor: end; font-size: 11px; font-family: sans-serif;">Adipose_Subcutaneous</text><text transform="translate(670,258)rotate(-70)" style="text-anchor: end; font-size: 11px; font-family: sans-serif;">Adipose_Visceral_Omentum</text><text transform="translate(490,258)rotate(-70)" style="text-anchor: end; font-size: 11px; font-family: sans-serif;">Adrenal_Gland</text><text transform="translate(40,258)rotate(-70)" style="text-anchor: end; font-size: 11px; font-family: sans-serif;">Artery_Aorta</text><text transform="translate(145,258)rotate(-70)" style="text-anchor: end; font-size: 11px; font-family: sans-serif;">Artery_Coronary</text><text transform="translate(70,258)rotate(-70)" style="text-anchor: end; font-size: 11px; font-family: sans-serif;">Artery_Tibial</text><text transform="translate(190,258)rotate(-70)" style="text-anchor: end; font-size: 11px; font-family: sans-serif;">Bladder</text><text transform="translate(610,258)rotate(-70)" style="text-anchor: end; font-size: 11px; font-family: sans-serif;">Brain_Amygdala</text><text transform="translate(595,258)rotate(-70)" style="text-anchor: end; font-size: 11px; font-family: sans-serif;">Brain_Anterior_cingulate_cortex_BA24</text><text transform="translate(460,258)rotate(-70)" style="text-anchor: end; font-size: 11px; font-family: sans-serif;">Brain_Caudate_basal_ganglia</text><text transform="translate(175,258)rotate(-70)" style="text-anchor: end; font-size: 11px; font-family: sans-serif;">Brain_Cerebellar_Hemisphere</text><text transform="translate(160,258)rotate(-70)" style="text-anchor: end; font-size: 11px; font-family: sans-serif;">Brain_Cerebellum</text><text transform="translate(385,258)rotate(-70)" style="text-anchor: end; font-size: 11px; font-family: sans-serif;">Brain_Cortex</text><text transform="translate(535,258)rotate(-70)" style="text-anchor: end; font-size: 11px; font-family: sans-serif;">Brain_Frontal_Cortex_BA9</text><text transform="translate(580,258)rotate(-70)" style="text-anchor: end; font-size: 11px; font-family: sans-serif;">Brain_Hippocampus</text><text transform="translate(655,258)rotate(-70)" style="text-anchor: end; font-size: 11px; font-family: sans-serif;">Brain_Hypothalamus</text><text transform="translate(475,258)rotate(-70)" style="text-anchor: end; font-size: 11px; font-family: sans-serif;">Brain_Nucleus_accumbens_basal_ganglia</text><text transform="translate(430,258)rotate(-70)" style="text-anchor: end; font-size: 11px; font-family: sans-serif;">Brain_Putamen_basal_ganglia</text><text transform="translate(565,258)rotate(-70)" style="text-anchor: end; font-size: 11px; font-family: sans-serif;">Brain_Spinal_cord_cervical_c-1</text><text transform="translate(550,258)rotate(-70)" style="text-anchor: end; font-size: 11px; font-family: sans-serif;">Brain_Substantia_nigra</text><text transform="translate(400,258)rotate(-70)" style="text-anchor: end; font-size: 11px; font-family: sans-serif;">Breast_Mammary_Tissue</text><text transform="translate(745,258)rotate(-70)" style="text-anchor: end; font-size: 11px; font-family: sans-serif;">Cells_Cultured_fibroblasts</text><text transform="translate(790,258)rotate(-70)" style="text-anchor: end; font-size: 11px; font-family: sans-serif;">Cells_EBV-transformed_lymphocytes</text><text transform="translate(280,258)rotate(-70)" style="text-anchor: end; font-size: 11px; font-family: sans-serif;">Cervix_Ectocervix</text><text transform="translate(415,258)rotate(-70)" style="text-anchor: end; font-size: 11px; font-family: sans-serif;">Cervix_Endocervix</text><text transform="translate(235,258)rotate(-70)" style="text-anchor: end; font-size: 11px; font-family: sans-serif;">Colon_Sigmoid</text><text transform="translate(640,258)rotate(-70)" style="text-anchor: end; font-size: 11px; font-family: sans-serif;">Colon_Transverse</text><text transform="translate(10,258)rotate(-70)" style="text-anchor: end; font-size: 11px; font-family: sans-serif;">Esophagus_Gastroesophageal_Junction</text><text transform="translate(370,258)rotate(-70)" style="text-anchor: end; font-size: 11px; font-family: sans-serif;">Esophagus_Mucosa</text><text transform="translate(25,258)rotate(-70)" style="text-anchor: end; font-size: 11px; font-family: sans-serif;">Esophagus_Muscularis</text><text transform="translate(220,258)rotate(-70)" style="text-anchor: end; font-size: 11px; font-family: sans-serif;">Fallopian_Tube</text><text transform="translate(115,258)rotate(-70)" style="text-anchor: end; font-size: 11px; font-family: sans-serif;">Heart_Atrial_Appendage</text><text transform="translate(100,258)rotate(-70)" style="text-anchor: end; font-size: 11px; font-family: sans-serif;">Heart_Left_Ventricle</text><text transform="translate(760,258)rotate(-70)" style="text-anchor: end; font-size: 11px; font-family: sans-serif;">Kidney_Cortex</text><text transform="translate(685,258)rotate(-70)" style="text-anchor: end; font-size: 11px; font-family: sans-serif;">Kidney_Medulla</text><text transform="translate(715,258)rotate(-70)" style="text-anchor: end; font-size: 11px; font-family: sans-serif;">Liver</text><text transform="translate(625,258)rotate(-70)" style="text-anchor: end; font-size: 11px; font-family: sans-serif;">Lung</text><text transform="translate(445,258)rotate(-70)" style="text-anchor: end; font-size: 11px; font-family: sans-serif;">Minor_Salivary_Gland</text><text transform="translate(130,258)rotate(-70)" style="text-anchor: end; font-size: 11px; font-family: sans-serif;">Muscle_Skeletal</text><text transform="translate(505,258)rotate(-70)" style="text-anchor: end; font-size: 11px; font-family: sans-serif;">Nerve_Tibial</text><text transform="translate(250,258)rotate(-70)" style="text-anchor: end; font-size: 11px; font-family: sans-serif;">Ovary</text><text transform="translate(205,258)rotate(-70)" style="text-anchor: end; font-size: 11px; font-family: sans-serif;">Pancreas</text><text transform="translate(85,258)rotate(-70)" style="text-anchor: end; font-size: 11px; font-family: sans-serif;">Pituitary</text><text transform="translate(310,258)rotate(-70)" style="text-anchor: end; font-size: 11px; font-family: sans-serif;">Prostate</text><text transform="translate(325,258)rotate(-70)" style="text-anchor: end; font-size: 11px; font-family: sans-serif;">Skin_Not_Sun_Exposed_Suprapubic</text><text transform="translate(265,258)rotate(-70)" style="text-anchor: end; font-size: 11px; font-family: sans-serif;">Skin_Sun_Exposed_Lower_leg</text><text transform="translate(700,258)rotate(-70)" style="text-anchor: end; font-size: 11px; font-family: sans-serif;">Small_Intestine_Terminal_Ileum</text><text transform="translate(775,258)rotate(-70)" style="text-anchor: end; font-size: 11px; font-family: sans-serif;">Spleen</text><text transform="translate(295,258)rotate(-70)" style="text-anchor: end; font-size: 11px; font-family: sans-serif;">Stomach</text><text transform="translate(55,258)rotate(-70)" style="text-anchor: end; font-size: 11px; font-family: sans-serif;">Testis</text><text transform="translate(730,258)rotate(-70)" style="text-anchor: end; font-size: 11px; font-family: sans-serif;">Thyroid</text><text transform="translate(355,258)rotate(-70)" style="text-anchor: end; font-size: 11px; font-family: sans-serif;">Uterus</text><text transform="translate(340,258)rotate(-70)" style="text-anchor: end; font-size: 11px; font-family: sans-serif;">Vagina</text><text transform="translate(805,258)rotate(-70)" style="text-anchor: end; font-size: 11px; font-family: sans-serif;">Whole_Blood</text></g><line x1="0" x2="810" y1="-61.09243035677786" y2="-61.09243035677786" style="stroke: black; stroke-dasharray: 3, 3;"></line><g class="y axis"><g class="tick" transform="translate(0,250)" style="opacity: 1;"><line x2="-6" y2="0" style="fill: none; stroke: grey;"></line><text dy=".32em" x="-9" y="0" style="text-anchor: end; font-size: 11px; font-family: sans-serif;">0.0</text></g><g class="tick" transform="translate(0,229.48902260727243)" style="opacity: 1;"><line x2="-6" y2="0" style="fill: none; stroke: grey;"></line><text dy=".32em" x="-9" y="0" style="text-anchor: end; font-size: 11px; font-family: sans-serif;">0.2</text></g><g class="tick" transform="translate(0,208.9780452145449)" style="opacity: 1;"><line x2="-6" y2="0" style="fill: none; stroke: grey;"></line><text dy=".32em" x="-9" y="0" style="text-anchor: end; font-size: 11px; font-family: sans-serif;">0.4</text></g><g class="tick" transform="translate(0,188.46706782181732)" style="opacity: 1;"><line x2="-6" y2="0" style="fill: none; stroke: grey;"></line><text dy=".32em" x="-9" y="0" style="text-anchor: end; font-size: 11px; font-family: sans-serif;">0.6</text></g><g class="tick" transform="translate(0,167.95609042908973)" style="opacity: 1;"><line x2="-6" y2="0" style="fill: none; stroke: grey;"></line><text dy=".32em" x="-9" y="0" style="text-anchor: end; font-size: 11px; font-family: sans-serif;">0.8</text></g><g class="tick" transform="translate(0,147.4451130363622)" style="opacity: 1;"><line x2="-6" y2="0" style="fill: none; stroke: grey;"></line><text dy=".32em" x="-9" y="0" style="text-anchor: end; font-size: 11px; font-family: sans-serif;">1.0</text></g><g class="tick" transform="translate(0,126.93413564363462)" style="opacity: 1;"><line x2="-6" y2="0" style="fill: none; stroke: grey;"></line><text dy=".32em" x="-9" y="0" style="text-anchor: end; font-size: 11px; font-family: sans-serif;">1.2</text></g><g class="tick" transform="translate(0,106.42315825090706)" style="opacity: 1;"><line x2="-6" y2="0" style="fill: none; stroke: grey;"></line><text dy=".32em" x="-9" y="0" style="text-anchor: end; font-size: 11px; font-family: sans-serif;">1.4</text></g><g class="tick" transform="translate(0,85.91218085817948)" style="opacity: 1;"><line x2="-6" y2="0" style="fill: none; stroke: grey;"></line><text dy=".32em" x="-9" y="0" style="text-anchor: end; font-size: 11px; font-family: sans-serif;">1.6</text></g><g class="tick" transform="translate(0,65.40120346545191)" style="opacity: 1;"><line x2="-6" y2="0" style="fill: none; stroke: grey;"></line><text dy=".32em" x="-9" y="0" style="text-anchor: end; font-size: 11px; font-family: sans-serif;">1.8</text></g><g class="tick" transform="translate(0,44.89022607272436)" style="opacity: 1;"><line x2="-6" y2="0" style="fill: none; stroke: grey;"></line><text dy=".32em" x="-9" y="0" style="text-anchor: end; font-size: 11px; font-family: sans-serif;">2.0</text></g><g class="tick" transform="translate(0,24.379248679996774)" style="opacity: 1;"><line x2="-6" y2="0" style="fill: none; stroke: grey;"></line><text dy=".32em" x="-9" y="0" style="text-anchor: end; font-size: 11px; font-family: sans-serif;">2.2</text></g><g class="tick" transform="translate(0,3.8682712872692426)" style="opacity: 1;"><line x2="-6" y2="0" style="fill: none; stroke: grey;"></line><text dy=".32em" x="-9" y="0" style="text-anchor: end; font-size: 11px; font-family: sans-serif;">2.4</text></g><path class="domain" d="M-6,0H0V250H-6" style="fill: none; stroke: grey;"></path></g><g class="x axis" transform="translate(0,250)"><g class="tick" transform="translate(7.5,0)" style="opacity: 1;"><line y2="6" x2="0" style="fill: none; stroke: grey;"></line></g><g class="tick" transform="translate(22.5,0)" style="opacity: 1;"><line y2="6" x2="0" style="fill: none; stroke: grey;"></line></g><g class="tick" transform="translate(37.5,0)" style="opacity: 1;"><line y2="6" x2="0" style="fill: none; stroke: grey;"></line></g><g class="tick" transform="translate(52.5,0)" style="opacity: 1;"><line y2="6" x2="0" style="fill: none; stroke: grey;"></line></g><g class="tick" transform="translate(67.5,0)" style="opacity: 1;"><line y2="6" x2="0" style="fill: none; stroke: grey;"></line></g><g class="tick" transform="translate(82.5,0)" style="opacity: 1;"><line y2="6" x2="0" style="fill: none; stroke: grey;"></line></g><g class="tick" transform="translate(97.5,0)" style="opacity: 1;"><line y2="6" x2="0" style="fill: none; stroke: grey;"></line></g><g class="tick" transform="translate(112.5,0)" style="opacity: 1;"><line y2="6" x2="0" style="fill: none; stroke: grey;"></line></g><g class="tick" transform="translate(127.5,0)" style="opacity: 1;"><line y2="6" x2="0" style="fill: none; stroke: grey;"></line></g><g class="tick" transform="translate(142.5,0)" style="opacity: 1;"><line y2="6" x2="0" style="fill: none; stroke: grey;"></line></g><g class="tick" transform="translate(157.5,0)" style="opacity: 1;"><line y2="6" x2="0" style="fill: none; stroke: grey;"></line></g><g class="tick" transform="translate(172.5,0)" style="opacity: 1;"><line y2="6" x2="0" style="fill: none; stroke: grey;"></line></g><g class="tick" transform="translate(187.5,0)" style="opacity: 1;"><line y2="6" x2="0" style="fill: none; stroke: grey;"></line></g><g class="tick" transform="translate(202.5,0)" style="opacity: 1;"><line y2="6" x2="0" style="fill: none; stroke: grey;"></line></g><g class="tick" transform="translate(217.5,0)" style="opacity: 1;"><line y2="6" x2="0" style="fill: none; stroke: grey;"></line></g><g class="tick" transform="translate(232.5,0)" style="opacity: 1;"><line y2="6" x2="0" style="fill: none; stroke: grey;"></line></g><g class="tick" transform="translate(247.5,0)" style="opacity: 1;"><line y2="6" x2="0" style="fill: none; stroke: grey;"></line></g><g class="tick" transform="translate(262.5,0)" style="opacity: 1;"><line y2="6" x2="0" style="fill: none; stroke: grey;"></line></g><g class="tick" transform="translate(277.5,0)" style="opacity: 1;"><line y2="6" x2="0" style="fill: none; stroke: grey;"></line></g><g class="tick" transform="translate(292.5,0)" style="opacity: 1;"><line y2="6" x2="0" style="fill: none; stroke: grey;"></line></g><g class="tick" transform="translate(307.5,0)" style="opacity: 1;"><line y2="6" x2="0" style="fill: none; stroke: grey;"></line></g><g class="tick" transform="translate(322.5,0)" style="opacity: 1;"><line y2="6" x2="0" style="fill: none; stroke: grey;"></line></g><g class="tick" transform="translate(337.5,0)" style="opacity: 1;"><line y2="6" x2="0" style="fill: none; stroke: grey;"></line></g><g class="tick" transform="translate(352.5,0)" style="opacity: 1;"><line y2="6" x2="0" style="fill: none; stroke: grey;"></line></g><g class="tick" transform="translate(367.5,0)" style="opacity: 1;"><line y2="6" x2="0" style="fill: none; stroke: grey;"></line></g><g class="tick" transform="translate(382.5,0)" style="opacity: 1;"><line y2="6" x2="0" style="fill: none; stroke: grey;"></line></g><g class="tick" transform="translate(397.5,0)" style="opacity: 1;"><line y2="6" x2="0" style="fill: none; stroke: grey;"></line></g><g class="tick" transform="translate(412.5,0)" style="opacity: 1;"><line y2="6" x2="0" style="fill: none; stroke: grey;"></line></g><g class="tick" transform="translate(427.5,0)" style="opacity: 1;"><line y2="6" x2="0" style="fill: none; stroke: grey;"></line></g><g class="tick" transform="translate(442.5,0)" style="opacity: 1;"><line y2="6" x2="0" style="fill: none; stroke: grey;"></line></g><g class="tick" transform="translate(457.5,0)" style="opacity: 1;"><line y2="6" x2="0" style="fill: none; stroke: grey;"></line></g><g class="tick" transform="translate(472.5,0)" style="opacity: 1;"><line y2="6" x2="0" style="fill: none; stroke: grey;"></line></g><g class="tick" transform="translate(487.5,0)" style="opacity: 1;"><line y2="6" x2="0" style="fill: none; stroke: grey;"></line></g><g class="tick" transform="translate(502.5,0)" style="opacity: 1;"><line y2="6" x2="0" style="fill: none; stroke: grey;"></line></g><g class="tick" transform="translate(517.5,0)" style="opacity: 1;"><line y2="6" x2="0" style="fill: none; stroke: grey;"></line></g><g class="tick" transform="translate(532.5,0)" style="opacity: 1;"><line y2="6" x2="0" style="fill: none; stroke: grey;"></line></g><g class="tick" transform="translate(547.5,0)" style="opacity: 1;"><line y2="6" x2="0" style="fill: none; stroke: grey;"></line></g><g class="tick" transform="translate(562.5,0)" style="opacity: 1;"><line y2="6" x2="0" style="fill: none; stroke: grey;"></line></g><g class="tick" transform="translate(577.5,0)" style="opacity: 1;"><line y2="6" x2="0" style="fill: none; stroke: grey;"></line></g><g class="tick" transform="translate(592.5,0)" style="opacity: 1;"><line y2="6" x2="0" style="fill: none; stroke: grey;"></line></g><g class="tick" transform="translate(607.5,0)" style="opacity: 1;"><line y2="6" x2="0" style="fill: none; stroke: grey;"></line></g><g class="tick" transform="translate(622.5,0)" style="opacity: 1;"><line y2="6" x2="0" style="fill: none; stroke: grey;"></line></g><g class="tick" transform="translate(637.5,0)" style="opacity: 1;"><line y2="6" x2="0" style="fill: none; stroke: grey;"></line></g><g class="tick" transform="translate(652.5,0)" style="opacity: 1;"><line y2="6" x2="0" style="fill: none; stroke: grey;"></line></g><g class="tick" transform="translate(667.5,0)" style="opacity: 1;"><line y2="6" x2="0" style="fill: none; stroke: grey;"></line></g><g class="tick" transform="translate(682.5,0)" style="opacity: 1;"><line y2="6" x2="0" style="fill: none; stroke: grey;"></line></g><g class="tick" transform="translate(697.5,0)" style="opacity: 1;"><line y2="6" x2="0" style="fill: none; stroke: grey;"></line></g><g class="tick" transform="translate(712.5,0)" style="opacity: 1;"><line y2="6" x2="0" style="fill: none; stroke: grey;"></line></g><g class="tick" transform="translate(727.5,0)" style="opacity: 1;"><line y2="6" x2="0" style="fill: none; stroke: grey;"></line></g><g class="tick" transform="translate(742.5,0)" style="opacity: 1;"><line y2="6" x2="0" style="fill: none; stroke: grey;"></line></g><g class="tick" transform="translate(757.5,0)" style="opacity: 1;"><line y2="6" x2="0" style="fill: none; stroke: grey;"></line></g><g class="tick" transform="translate(772.5,0)" style="opacity: 1;"><line y2="6" x2="0" style="fill: none; stroke: grey;"></line></g><g class="tick" transform="translate(787.5,0)" style="opacity: 1;"><line y2="6" x2="0" style="fill: none; stroke: grey;"></line></g><g class="tick" transform="translate(802.5,0)" style="opacity: 1;"><line y2="6" x2="0" style="fill: none; stroke: grey;"></line></g><path class="domain" d="M0,6V0H810V6" style="fill: none; stroke: grey;"></path></g><text text-anchor="middle" transform="translate(-55,125)rotate(-90)" style="font-family: sans-serif;">-log 10 P-value</text></g></svg>