<svg width="380" height="380"><g transform="translate(50,30)"><circle r="2" cx="0.11968068349999456" cy="300" fill="grey"></circle><circle r="2" cx="0.7061749424524316" cy="299.7114817714009" fill="grey"></circle><circle r="2" cx="1.310871071240342" cy="299.3572587091466" fill="grey"></circle><circle r="2" cx="1.145517231217061" cy="299.45519158163074" fill="grey"></circle><circle r="2" cx="2.933696114281642" cy="298.38917614243707" fill="grey"></circle><circle r="2" cx="2.520976430043514" cy="298.6360264862797" fill="grey"></circle><circle r="2" cx="3.05462345955773" cy="298.31756384885534" fill="grey"></circle><circle r="2" cx="3.693463685046592" cy="297.9353666691684" fill="grey"></circle><circle r="2" cx="4.0352174174355175" cy="297.72976730446004" fill="grey"></circle><circle r="2" cx="4.850861366149667" cy="297.24189266826704" fill="grey"></circle><circle r="2" cx="5.283162775661737" cy="296.98380861450056" fill="grey"></circle><circle r="2" cx="5.664849789752727" cy="296.75531910435353" fill="grey"></circle><circle r="2" cx="6.755636711353254" cy="296.10439240372165" fill="grey"></circle><circle r="2" cx="6.124498249692993" cy="296.47846235127884" fill="grey"></circle><circle r="2" cx="7.04048969619275" cy="295.9348582281891" fill="grey"></circle><circle r="2" cx="7.864098701511625" cy="295.44590081598295" fill="grey"></circle><circle r="2" cx="8.379662881039264" cy="295.1385045785584" fill="grey"></circle><circle r="2" cx="8.886118904567047" cy="294.8364702969403" fill="grey"></circle><circle r="2" cx="8.997740422725363" cy="294.76962499038774" fill="grey"></circle><circle r="2" cx="9.751662918316296" cy="294.31842828768845" fill="grey"></circle><circle r="2" cx="10.593557446415453" cy="293.81834110438757" fill="grey"></circle><circle r="2" cx="10.060512260705105" cy="294.1346125805058" fill="grey"></circle><circle r="2" cx="11.015153892857551" cy="293.56969812297893" fill="grey"></circle><circle r="2" cx="10.898276475529123" cy="293.638430561194" fill="grey"></circle><circle r="2" cx="12.648558997923617" cy="292.60151710326863" fill="grey"></circle><circle r="2" cx="12.695939328680385" cy="292.57282338980076" fill="grey"></circle><circle r="2" cx="13.099999081566574" cy="292.3345832569434" fill="grey"></circle><circle r="2" cx="13.545627826573487" cy="292.06723891707117" fill="grey"></circle><circle r="2" cx="14.274832017878856" cy="291.6353881709175" fill="grey"></circle><circle r="2" cx="14.820016336844748" cy="291.315059510572" fill="grey"></circle><circle r="2" cx="15.077165098816524" cy="291.1644111451787" fill="grey"></circle><circle r="2" cx="14.921904595825849" cy="291.2543709734557" fill="grey"></circle><circle r="2" cx="15.89088293336193" cy="290.68186717363625" fill="grey"></circle><circle r="2" cx="16.077822483235224" cy="290.5711413123622" fill="grey"></circle><circle r="2" cx="17.77070207140338" cy="289.56540543536516" fill="grey"></circle><circle r="2" cx="17.03318856922733" cy="290.0037795449445" fill="grey"></circle><circle r="2" cx="18.202253001330995" cy="289.3111029394005" fill="grey"></circle><circle r="2" cx="18.778874993464306" cy="288.97077977740724" fill="grey"></circle><circle r="2" cx="19.422506489148464" cy="288.5880893521566" fill="grey"></circle><circle r="2" cx="19.139124263073665" cy="288.75702094134937" fill="grey"></circle><circle r="2" cx="20.082796969816386" cy="288.1965467158742" fill="grey"></circle><circle r="2" cx="19.88683467571223" cy="288.31275020046087" fill="grey"></circle><circle r="2" cx="21.021948686307827" cy="287.63635739356465" fill="grey"></circle><circle r="2" cx="21.440147870290563" cy="287.386491199695" fill="grey"></circle><circle r="2" cx="22.16341691802712" cy="286.96056745953575" fill="grey"></circle><circle r="2" cx="21.784504400966345" cy="287.1825933525202" fill="grey"></circle><circle r="2" cx="22.978284525190887" cy="286.47847370176663" fill="grey"></circle><circle r="2" cx="23.29603471894822" cy="286.2924436574159" fill="grey"></circle><circle r="2" cx="24.120917718022532" cy="285.80392000653086" fill="grey"></circle><circle r="2" cx="23.82836781240115" cy="285.9772369059086" fill="grey"></circle><circle r="2" cx="25.385791933350177" cy="285.0545025620673" fill="grey"></circle><circle r="2" cx="25.26592728978582" cy="285.1250965326057" fill="grey"></circle><circle r="2" cx="26.565874550506734" cy="284.3571396697915" fill="grey"></circle><circle r="2" cx="26.237312817090746" cy="284.5513078286126" fill="grey"></circle><circle r="2" cx="27.24706176061046" cy="283.95819764634996" fill="grey"></circle><circle r="2" cx="26.98862420789968" cy="284.111295672767" fill="grey"></circle><circle r="2" cx="28.61545667105364" cy="283.1454112734891" fill="grey"></circle><circle r="2" cx="27.816591940944686" cy="283.62020669791787" fill="grey"></circle><circle r="2" cx="28.969337211833437" cy="282.9343174496294" fill="grey"></circle><circle r="2" cx="28.982042397630078" cy="282.9265158924937" fill="grey"></circle><circle r="2" cx="29.983301417454168" cy="282.3359040740493" fill="grey"></circle><circle r="2" cx="30.03706732375172" cy="282.3047475955275" fill="grey"></circle><circle r="2" cx="31.03781911875248" cy="281.70915277646924" fill="grey"></circle><circle r="2" cx="31.521721313753734" cy="281.419177662857" fill="grey"></circle><circle r="2" cx="32.292664567239854" cy="280.95865038447795" fill="grey"></circle><circle r="2" cx="31.71144119838287" cy="281.3057429460004" fill="grey"></circle><circle r="2" cx="33.263093547672526" cy="280.3872152660995" fill="grey"></circle><circle r="2" cx="33.018961957708214" cy="280.5305701078076" fill="grey"></circle><circle r="2" cx="34.41823860739139" cy="279.70109474912107" fill="grey"></circle><circle r="2" cx="33.97868607384648" cy="279.9610048677607" fill="grey"></circle><circle r="2" cx="35.611859675570074" cy="278.99560457657043" fill="grey"></circle><circle r="2" cx="35.065974956589876" cy="279.3195146518107" fill="grey"></circle><circle r="2" cx="35.738007820052246" cy="278.92203806245425" fill="grey"></circle><circle r="2" cx="36.48121003647915" cy="278.4830984852104" fill="grey"></circle><circle r="2" cx="36.789725122089905" cy="278.3006064001033" fill="grey"></circle><circle r="2" cx="37.16942209618221" cy="278.0760379241846" fill="grey"></circle><circle r="2" cx="37.83638495886965" cy="277.6821331862465" fill="grey"></circle><circle r="2" cx="37.84687989348232" cy="277.6759276532767" fill="grey"></circle><circle r="2" cx="39.539941350272024" cy="276.67098277133385" fill="grey"></circle><circle r="2" cx="39.03918085826003" cy="276.9686574682806" fill="grey"></circle><circle r="2" cx="39.82153892643966" cy="276.5046613039901" fill="grey"></circle><circle r="2" cx="40.104768735892634" cy="276.3368750337724" fill="grey"></circle><circle r="2" cx="40.868301722287754" cy="275.88349868664534" fill="grey"></circle><circle r="2" cx="41.087527364207105" cy="275.75471224902316" fill="grey"></circle><circle r="2" cx="42.14193233798277" cy="275.1329490668163" fill="grey"></circle><circle r="2" cx="42.225273021714266" cy="275.0835457897069" fill="grey"></circle><circle r="2" cx="43.43660935997066" cy="274.3610493881491" fill="grey"></circle><circle r="2" cx="42.93414669762298" cy="274.65838190741727" fill="grey"></circle><circle r="2" cx="44.027852747340695" cy="274.01263407514415" fill="grey"></circle><circle r="2" cx="43.92677022290477" cy="274.07292173564963" fill="grey"></circle><circle r="2" cx="45.419332191791426" cy="273.18395676558924" fill="grey"></circle><circle r="2" cx="44.87276420483482" cy="273.51159080964777" fill="grey"></circle><circle r="2" cx="46.51549729922462" cy="272.53195020181937" fill="grey"></circle><circle r="2" cx="46.39348113041032" cy="272.6070044116088" fill="grey"></circle><circle r="2" cx="46.76576954021258" cy="272.38010613003536" fill="grey"></circle><circle r="2" cx="46.74145148528797" cy="272.3944085137261" fill="grey"></circle><circle r="2" cx="48.42404458186316" cy="271.4053366117685" fill="grey"></circle><circle r="2" cx="48.447920031118024" cy="271.39148748297754" fill="grey"></circle><circle r="2" cx="48.62516395651624" cy="271.2886920505636" fill="grey"></circle><circle r="2" cx="49.17362479684713" cy="270.96098134460243" fill="grey"></circle><circle r="2" cx="49.57325083819899" cy="270.7251499500764" fill="grey"></circle><circle r="2" cx="50.301157222352266" cy="270.30012193916355" fill="grey"></circle><circle r="2" cx="50.568317540869224" cy="270.1432712230513" fill="grey"></circle><circle r="2" cx="51.06977093358532" cy="269.8510000916746" fill="grey"></circle><circle r="2" cx="52.223714065930864" cy="269.1803762029968" fill="grey"></circle><circle r="2" cx="51.90925075882173" cy="269.3579368961831" fill="grey"></circle><circle r="2" cx="52.816831996963174" cy="268.83119598350265" fill="grey"></circle><circle r="2" cx="52.90204290494643" cy="268.78052317311" fill="grey"></circle><circle r="2" cx="53.64181340797275" cy="268.3357781027277" fill="grey"></circle><circle r="2" cx="54.2024483114272" cy="267.9979555965905" fill="grey"></circle><circle r="2" cx="54.974949354737674" cy="267.53401315339664" fill="grey"></circle><circle r="2" cx="54.4948982000104" cy="267.8227912356304" fill="grey"></circle><circle r="2" cx="55.83888925081282" cy="267.01800416299415" fill="grey"></circle><circle r="2" cx="55.7602626101317" cy="267.06061952221205" fill="grey"></circle><circle r="2" cx="57.260987812054324" cy="266.1631726889802" fill="grey"></circle><circle r="2" cx="56.94344067526478" cy="266.35243324990313" fill="grey"></circle><circle r="2" cx="58.364425895368996" cy="265.4995403155294" fill="grey"></circle><circle r="2" cx="57.91732625892385" cy="265.76946834606304" fill="grey"></circle><circle r="2" cx="59.3142441066074" cy="264.9195393953676" fill="grey"></circle><circle r="2" cx="58.66436665334017" cy="265.31544337673597" fill="grey"></circle><circle r="2" cx="59.98555719298369" cy="264.5074267890694" fill="grey"></circle><circle r="2" cx="59.73991483431452" cy="264.6576558625216" fill="grey"></circle><circle r="2" cx="60.763561331415296" cy="264.039282772978" fill="grey"></circle><circle r="2" cx="60.52745735541307" cy="264.18339855795307" fill="grey"></circle><circle r="2" cx="62.213291611836034" cy="263.1983705273369" fill="grey"></circle><circle r="2" cx="61.84923465243754" cy="263.3985267447745" fill="grey"></circle><circle r="2" cx="62.4893661156594" cy="263.0305591806367" fill="grey"></circle><circle r="2" cx="62.660313385748964" cy="262.9257615946151" fill="grey"></circle><circle r="2" cx="64.32796861067416" cy="261.95510084636095" fill="grey"></circle><circle r="2" cx="64.09568259442584" cy="262.0933902140162" fill="grey"></circle><circle r="2" cx="64.93349106977195" cy="261.60380577807825" fill="grey"></circle><circle r="2" cx="64.4608061013851" cy="261.8759669148475" fill="grey"></circle><circle r="2" cx="65.90046730362522" cy="261.0267658591724" fill="grey"></circle><circle r="2" cx="65.97927995620363" cy="260.97940077054034" fill="grey"></circle><circle r="2" cx="67.196107983428" cy="260.2765282684122" fill="grey"></circle><circle r="2" cx="66.58657148026539" cy="260.62707945958465" fill="grey"></circle><circle r="2" cx="67.95751449522358" cy="259.8079819013273" fill="grey"></circle><circle r="2" cx="67.55383371427452" cy="260.05769808326056" fill="grey"></circle><circle r="2" cx="68.44244775746832" cy="259.5106198139404" fill="grey"></circle><circle r="2" cx="68.38634722269452" cy="259.5443240880217" fill="grey"></circle><circle r="2" cx="70.0769401436697" cy="258.5351413393359" fill="grey"></circle><circle r="2" cx="70.06250984013303" cy="258.5436322188629" fill="grey"></circle><circle r="2" cx="71.11773206456218" cy="257.906118306692" fill="grey"></circle><circle r="2" cx="70.80242923924048" cy="258.0941863698265" fill="grey"></circle><circle r="2" cx="71.91917207539689" cy="257.43855812791065" fill="grey"></circle><circle r="2" cx="71.86598023673868" cy="257.4725449011388" fill="grey"></circle><circle r="2" cx="73.11994335795342" cy="256.7112459015154" fill="grey"></circle><circle r="2" cx="73.06427918353985" cy="256.74720512988347" fill="grey"></circle><circle r="2" cx="73.5828960589146" cy="256.4250032256427" fill="grey"></circle><circle r="2" cx="74.12245052124946" cy="256.0980706196395" fill="grey"></circle><circle r="2" cx="74.50299026452754" cy="255.86791845671462" fill="grey"></circle><circle r="2" cx="74.49921686243056" cy="255.8697089741699" fill="grey"></circle><circle r="2" cx="75.57396968056335" cy="255.21385688724175" fill="grey"></circle><circle r="2" cx="75.4889508515419" cy="255.26648881836385" fill="grey"></circle><circle r="2" cx="77.17417079669134" cy="254.27427360515205" fill="grey"></circle><circle r="2" cx="76.27016542478415" cy="254.80171816054792" fill="grey"></circle><circle r="2" cx="77.4855263919846" cy="254.0991875665038" fill="grey"></circle><circle r="2" cx="77.89986880437597" cy="253.8517317915428" fill="grey"></circle><circle r="2" cx="78.30511592197446" cy="253.61317494556164" fill="grey"></circle><circle r="2" cx="79.12770388253696" cy="253.13186665786415" fill="grey"></circle><circle r="2" cx="79.93275276860346" cy="252.66938019830357" fill="grey"></circle><circle r="2" cx="79.76030628973778" cy="252.7753024693775" fill="grey"></circle><circle r="2" cx="80.6779762067236" cy="252.23210013813255" fill="grey"></circle><circle r="2" cx="80.55508622437193" cy="252.30546532858315" fill="grey"></circle><circle r="2" cx="81.76795371200959" cy="251.61331068169702" fill="grey"></circle><circle r="2" cx="81.42880876610427" cy="251.80242766836943" fill="grey"></circle><circle r="2" cx="82.70994617102448" cy="251.05958113204025" fill="grey"></circle><circle r="2" cx="82.77888752193822" cy="251.01932207650893" fill="grey"></circle><circle r="2" cx="83.46923680832016" cy="250.6069715232009" fill="grey"></circle><circle r="2" cx="84.0198127248648" cy="250.28092111337935" fill="grey"></circle><circle r="2" cx="84.46631942282359" cy="250.0167026800525" fill="grey"></circle><circle r="2" cx="84.8020507588688" cy="249.80536824851035" fill="grey"></circle><circle r="2" cx="86.06537273681595" cy="249.04013872603622" fill="grey"></circle><circle r="2" cx="85.20087505423277" cy="249.56949817433141" fill="grey"></circle><circle r="2" cx="86.48839419075291" cy="248.78709609708122" fill="grey"></circle><circle r="2" cx="86.7842965210133" cy="248.59505168886608" fill="grey"></circle><circle r="2" cx="87.21034775239713" cy="248.34318069326582" fill="grey"></circle><circle r="2" cx="87.13992640949327" cy="248.38413440380464" fill="grey"></circle><circle r="2" cx="88.94581742072405" cy="247.31434276483253" fill="grey"></circle><circle r="2" cx="88.3071288664517" cy="247.69995782806635" fill="grey"></circle><circle r="2" cx="89.95499482287927" cy="246.7174968230728" fill="grey"></circle><circle r="2" cx="90.09457749302082" cy="246.6326599928666" fill="grey"></circle><circle r="2" cx="90.44088713164658" cy="246.4415026318681" fill="grey"></circle><circle r="2" cx="90.1560808378815" cy="246.60676274170393" fill="grey"></circle><circle r="2" cx="91.9762587439994" cy="245.56764504512782" fill="grey"></circle><circle r="2" cx="91.99978409673695" cy="245.55622810938195" fill="grey"></circle><circle r="2" cx="92.41951768120886" cy="245.30767706370918" fill="grey"></circle><circle r="2" cx="92.51976537603886" cy="245.24966077101553" fill="grey"></circle><circle r="2" cx="93.48446413856948" cy="244.70444145519252" fill="grey"></circle><circle r="2" cx="93.45822367051571" cy="244.7193729259943" fill="grey"></circle><circle r="2" cx="94.86264361567498" cy="243.88843649631033" fill="grey"></circle><circle r="2" cx="94.60399678457262" cy="244.0381191756694" fill="grey"></circle><circle r="2" cx="96.0049409967767" cy="243.23351678415003" fill="grey"></circle><circle r="2" cx="95.42416756116491" cy="243.56768037321416" fill="grey"></circle><circle r="2" cx="96.65922194730058" cy="242.85272120812468" fill="grey"></circle><circle r="2" cx="96.08696245930771" cy="243.18771233867207" fill="grey"></circle><circle r="2" cx="97.36649921519246" cy="242.43982553603465" fill="grey"></circle><circle r="2" cx="97.8985639916502" cy="242.11526281625072" fill="grey"></circle><circle r="2" cx="98.49346799634964" cy="241.76883216536703" fill="grey"></circle><circle r="2" cx="98.75986083457084" cy="241.60847464433724" fill="grey"></circle><circle r="2" cx="99.84242041308006" cy="240.96818027274537" fill="grey"></circle><circle r="2" cx="99.85033089677829" cy="240.96500833795832" fill="grey"></circle><circle r="2" cx="100.68031894480175" cy="240.46103692956487" fill="grey"></circle><circle r="2" cx="100.63290381676072" cy="240.4871454430009" fill="grey"></circle><circle r="2" cx="101.05543047875459" cy="240.2392550076871" fill="grey"></circle><circle r="2" cx="101.28954680844924" cy="240.08894562407625" fill="grey"></circle><circle r="2" cx="102.281599022783" cy="239.48483639615807" fill="grey"></circle><circle r="2" cx="102.01808971984734" cy="239.64348171265183" fill="grey"></circle><circle r="2" cx="103.51402764597766" cy="238.75116760317277" fill="grey"></circle><circle r="2" cx="103.35854685978533" cy="238.84768994186416" fill="grey"></circle><circle r="2" cx="104.04290902608851" cy="238.44429671598218" fill="grey"></circle><circle r="2" cx="104.03555287579437" cy="238.44873811259015" fill="grey"></circle><circle r="2" cx="105.27229339942026" cy="237.72352638173285" fill="grey"></circle><circle r="2" cx="105.56017392726869" cy="237.5477190257786" fill="grey"></circle><circle r="2" cx="106.67966228769663" cy="236.870553928269" fill="grey"></circle><circle r="2" cx="106.55986475454027" cy="236.9485452700201" fill="grey"></circle><circle r="2" cx="107.71458432388037" cy="236.26929419146327" fill="grey"></circle><circle r="2" cx="106.98469766746433" cy="236.68572750370825" fill="grey"></circle><circle r="2" cx="108.31162030888439" cy="235.88233179546495" fill="grey"></circle><circle r="2" cx="108.81943246428992" cy="235.5894286036865" fill="grey"></circle><circle r="2" cx="109.49461424603959" cy="235.17050335628173" fill="grey"></circle><circle r="2" cx="108.94895227058076" cy="235.5168178500159" fill="grey"></circle><circle r="2" cx="110.05465151018879" cy="234.83030794967215" fill="grey"></circle><circle r="2" cx="110.26677378630684" cy="234.70384114000225" fill="grey"></circle><circle r="2" cx="111.43425782950035" cy="233.9911767612767" fill="grey"></circle><circle r="2" cx="110.98025461892604" cy="234.26227340569392" fill="grey"></circle><circle r="2" cx="112.20008099051893" cy="233.52883279920545" fill="grey"></circle><circle r="2" cx="112.05972807032502" cy="233.61231898835243" fill="grey"></circle><circle r="2" cx="113.13981477969082" cy="233.02369915217935" fill="grey"></circle><circle r="2" cx="113.1867964423936" cy="232.9941269671531" fill="grey"></circle><circle r="2" cx="114.08030362902925" cy="232.44174446352454" fill="grey"></circle><circle r="2" cx="113.99023148615215" cy="232.50197160999727" fill="grey"></circle><circle r="2" cx="115.72432878115984" cy="231.45887978369777" fill="grey"></circle><circle r="2" cx="115.22014676152831" cy="231.77632197571904" fill="grey"></circle><circle r="2" cx="115.9985927369762" cy="231.31576989486146" fill="grey"></circle><circle r="2" cx="116.81885572774118" cy="230.79518159422838" fill="grey"></circle><circle r="2" cx="117.29013786177175" cy="230.51390459122808" fill="grey"></circle><circle r="2" cx="117.34245804783254" cy="230.47624619582285" fill="grey"></circle><circle r="2" cx="118.4440933033485" cy="229.85474538105896" fill="grey"></circle><circle r="2" cx="118.14560042632958" cy="229.99334956348204" fill="grey"></circle><circle r="2" cx="119.68268927027118" cy="229.0787681801619" fill="grey"></circle><circle r="2" cx="119.1358179088064" cy="229.4323049672044" fill="grey"></circle><circle r="2" cx="120.19586364394557" cy="228.7622820947048" fill="grey"></circle><circle r="2" cx="120.08499433838898" cy="228.83977901024585" fill="grey"></circle><circle r="2" cx="121.63829947647314" cy="227.80824960143033" fill="grey"></circle><circle r="2" cx="121.32162655371098" cy="228.02125364373592" fill="grey"></circle><circle r="2" cx="122.22384582052247" cy="227.4428876796896" fill="grey"></circle><circle r="2" cx="122.62166884595305" cy="227.20489319449808" fill="grey"></circle><circle r="2" cx="122.99144990271557" cy="226.98845680138675" fill="grey"></circle><circle r="2" cx="123.23404862123643" cy="226.84520743244505" fill="grey"></circle><circle r="2" cx="124.0187179847694" cy="226.42253409116128" fill="grey"></circle><circle r="2" cx="124.40230714117851" cy="226.20877260304076" fill="grey"></circle><circle r="2" cx="125.72988641291555" cy="225.46182772800253" fill="grey"></circle><circle r="2" cx="125.21467328241593" cy="225.69419847875852" fill="grey"></circle><circle r="2" cx="125.91422892773286" cy="225.33435455751945" fill="grey"></circle><circle r="2" cx="126.14294487048481" cy="225.19728662714326" fill="grey"></circle><circle r="2" cx="127.669949579258" cy="224.21286996312804" fill="grey"></circle><circle r="2" cx="127.00901488270027" cy="224.63590861815902" fill="grey"></circle><circle r="2" cx="127.837082066126" cy="224.0821128707774" fill="grey"></circle><circle r="2" cx="128.42930844352964" cy="223.709690461344" fill="grey"></circle><circle r="2" cx="128.8693744269584" cy="223.4203340779757" fill="grey"></circle><circle r="2" cx="129.4708131028513" cy="223.08427799535903" fill="grey"></circle><circle r="2" cx="130.0373683532053" cy="222.71633480850042" fill="grey"></circle><circle r="2" cx="129.89833453756685" cy="222.80997704913517" fill="grey"></circle><circle r="2" cx="131.39914154092185" cy="221.83533637433658" fill="grey"></circle><circle r="2" cx="131.40313191162684" cy="221.83312122864518" fill="grey"></circle><circle r="2" cx="131.91256732848834" cy="221.4936683455629" fill="grey"></circle><circle r="2" cx="131.82265377067725" cy="221.56326874724792" fill="grey"></circle><circle r="2" cx="133.4415943888125" cy="220.48527280247282" fill="grey"></circle><circle r="2" cx="133.1513476061237" cy="220.6837403193994" fill="grey"></circle><circle r="2" cx="133.7654860502429" cy="220.2777908916019" fill="grey"></circle><circle r="2" cx="133.6980311404657" cy="220.32306108035817" fill="grey"></circle><circle r="2" cx="134.81823837193843" cy="219.57322169870054" fill="grey"></circle><circle r="2" cx="135.32886249524358" cy="219.26065037812293" fill="grey"></circle><circle r="2" cx="136.32260660298905" cy="218.59879846887725" fill="grey"></circle><circle r="2" cx="136.174227652789" cy="218.68629425251035" fill="grey"></circle><circle r="2" cx="136.68810104766064" cy="218.33319816580666" fill="grey"></circle><circle r="2" cx="137.49477433918372" cy="217.81075680059757" fill="grey"></circle><circle r="2" cx="138.02834370274707" cy="217.44110595654269" fill="grey"></circle><circle r="2" cx="138.60577429355772" cy="217.09668525697998" fill="grey"></circle><circle r="2" cx="138.97591711896632" cy="216.84961648701267" fill="grey"></circle><circle r="2" cx="138.71288777233303" cy="217.0036528185506" fill="grey"></circle><circle r="2" cx="139.95951929032825" cy="216.1628119055356" fill="grey"></circle><circle r="2" cx="139.96261411552484" cy="216.16129083042114" fill="grey"></circle><circle r="2" cx="140.92697455154456" cy="215.52457141253052" fill="grey"></circle><circle r="2" cx="141.42097867689537" cy="215.2283852532806" fill="grey"></circle><circle r="2" cx="142.55749454778547" cy="214.4210288527826" fill="grey"></circle><circle r="2" cx="142.20362739230683" cy="214.6681407485109" fill="grey"></circle><circle r="2" cx="142.84600372373154" cy="214.2343615858119" fill="grey"></circle><circle r="2" cx="142.7850974565023" cy="214.277725536721" fill="grey"></circle><circle r="2" cx="143.8321983621387" cy="213.5531658926674" fill="grey"></circle><circle r="2" cx="144.10970048176043" cy="213.3392146662789" fill="grey"></circle><circle r="2" cx="145.3505301462676" cy="212.4913471719393" fill="grey"></circle><circle r="2" cx="144.9427311229112" cy="212.7654722147245" fill="grey"></circle><circle r="2" cx="145.8841012693829" cy="212.0613205314857" fill="grey"></circle><circle r="2" cx="146.32515757751457" cy="211.76289159628274" fill="grey"></circle><circle r="2" cx="147.292391080406" cy="211.11306378357065" fill="grey"></circle><circle r="2" cx="146.8820595885268" cy="211.34106571199888" fill="grey"></circle><circle r="2" cx="148.04597855851233" cy="210.55451999379645" fill="grey"></circle><circle r="2" cx="148.08349458046538" cy="210.52003227091248" fill="grey"></circle><circle r="2" cx="148.52019810181704" cy="210.1399198126082" fill="grey"></circle><circle r="2" cx="149.07526177476626" cy="209.74675017178015" fill="grey"></circle><circle r="2" cx="149.68731909362904" cy="209.21341392807963" fill="grey"></circle><circle r="2" cx="149.63642126626166" cy="209.28045032961413" fill="grey"></circle><circle r="2" cx="151.04316715954553" cy="208.2792555633932" fill="grey"></circle><circle r="2" cx="151.20776250805142" cy="208.15229907079387" fill="grey"></circle><circle r="2" cx="151.86899704411948" cy="207.6271260132456" fill="grey"></circle><circle r="2" cx="151.8064000508261" cy="207.69368166920358" fill="grey"></circle><circle r="2" cx="152.88686960305358" cy="206.68276944918807" fill="grey"></circle><circle r="2" cx="152.59481206268418" cy="206.93756816063362" fill="grey"></circle><circle r="2" cx="153.62738618799665" cy="206.14366920431345" fill="grey"></circle><circle r="2" cx="153.72117639530788" cy="206.0575703449913" fill="grey"></circle><circle r="2" cx="154.494715798776" cy="205.6158563232655" fill="grey"></circle><circle r="2" cx="155.1243031739258" cy="205.1544803893602" fill="grey"></circle><circle r="2" cx="156.30431473917017" cy="204.1389311622456" fill="grey"></circle><circle r="2" cx="156.2757134192993" cy="204.16412877065073" fill="grey"></circle><circle r="2" cx="156.92961418357518" cy="203.6855647666412" fill="grey"></circle><circle r="2" cx="156.81175090628918" cy="203.80725667776642" fill="grey"></circle><circle r="2" cx="157.5985586606608" cy="203.15077684217772" fill="grey"></circle><circle r="2" cx="157.89131800006572" cy="202.95544732053497" fill="grey"></circle><circle r="2" cx="159.391356251614" cy="201.8053225159154" fill="grey"></circle><circle r="2" cx="158.95204153043136" cy="202.1655074508508" fill="grey"></circle><circle r="2" cx="159.71254252038656" cy="201.53860350203013" fill="grey"></circle><circle r="2" cx="159.67848321664366" cy="201.56328620593317" fill="grey"></circle><circle r="2" cx="160.82606878283104" cy="200.6400367152858" fill="grey"></circle><circle r="2" cx="161.282525640824" cy="200.23932108929807" fill="grey"></circle><circle r="2" cx="162.10315864530082" cy="199.3808694913583" fill="grey"></circle><circle r="2" cx="161.7499244948202" cy="199.71186329315702" fill="grey"></circle><circle r="2" cx="163.14189744695207" cy="198.23923180999446" fill="grey"></circle><circle r="2" cx="162.87948530347143" cy="198.48361158810604" fill="grey"></circle><circle r="2" cx="163.32565851267705" cy="198.0639972088239" fill="grey"></circle><circle r="2" cx="163.34618372153489" cy="198.06009930842026" fill="grey"></circle><circle r="2" cx="164.20687974861795" cy="197.16360844242854" fill="grey"></circle><circle r="2" cx="164.2498526508506" cy="197.14547179030419" fill="grey"></circle><circle r="2" cx="164.77305309133524" cy="196.73259781493968" fill="grey"></circle><circle r="2" cx="165.10732893307716" cy="196.4915720160107" fill="grey"></circle><circle r="2" cx="165.5966774634829" cy="196.11044930521152" fill="grey"></circle><circle r="2" cx="165.4245762002747" cy="196.23479093967356" fill="grey"></circle><circle r="2" cx="166.8090682391465" cy="195.17051164527152" fill="grey"></circle><circle r="2" cx="167.31846758676386" cy="194.81891270855414" fill="grey"></circle><circle r="2" cx="167.95825419665493" cy="194.20444094824774" fill="grey"></circle><circle r="2" cx="167.66134295168152" cy="194.52289739689635" fill="grey"></circle><circle r="2" cx="168.49901039976712" cy="193.79030858158697" fill="grey"></circle><circle r="2" cx="168.3524511774158" cy="193.86382966968588" fill="grey"></circle><circle r="2" cx="169.87010804338098" cy="192.3636982353796" fill="grey"></circle><circle r="2" cx="169.927584714823" cy="192.3412149066732" fill="grey"></circle><circle r="2" cx="171.190815267455" cy="191.29009330825016" fill="grey"></circle><circle r="2" cx="170.70559093741906" cy="191.79396620642862" fill="grey"></circle><circle r="2" cx="172.05408868977926" cy="190.6358212448736" fill="grey"></circle><circle r="2" cx="172.19906293787912" cy="190.46054983814162" fill="grey"></circle><circle r="2" cx="172.36141980043055" cy="190.28855605108012" fill="grey"></circle><circle r="2" cx="173.12618238980997" cy="190.10087452356854" fill="grey"></circle><circle r="2" cx="173.3135917938495" cy="189.88986454598574" fill="grey"></circle><circle r="2" cx="174.13527364081622" cy="189.10738278710068" fill="grey"></circle><circle r="2" cx="174.6601029563517" cy="188.54908683086725" fill="grey"></circle><circle r="2" cx="175.0304644524509" cy="188.2007705378364" fill="grey"></circle><circle r="2" cx="175.61879846740703" cy="187.62305119851572" fill="grey"></circle><circle r="2" cx="175.2561056959764" cy="188.02124902750637" fill="grey"></circle><circle r="2" cx="176.22543780335832" cy="186.9678204964772" fill="grey"></circle><circle r="2" cx="176.22543780335832" cy="186.9678204964772" fill="grey"></circle><circle r="2" cx="176.30510674579108" cy="186.76056544721976" fill="grey"></circle><circle r="2" cx="176.265231585777" cy="186.8693092738838" fill="grey"></circle><circle r="2" cx="177.20364649937306" cy="185.82924981199233" fill="grey"></circle><circle r="2" cx="177.16189285082518" cy="185.83515372637657" fill="grey"></circle><circle r="2" cx="177.62617541659264" cy="185.3927232396843" fill="grey"></circle><circle r="2" cx="177.90581209590812" cy="185.107663775676" fill="grey"></circle><circle r="2" cx="178.65671369536722" cy="184.20109424072305" fill="grey"></circle><circle r="2" cx="178.97451496956057" cy="183.8895506494638" fill="grey"></circle><circle r="2" cx="179.1353793180742" cy="183.78555224673448" fill="grey"></circle><circle r="2" cx="179.1353793180742" cy="183.78555224673448" fill="grey"></circle><circle r="2" cx="179.2279011833882" cy="183.71322267437188" fill="grey"></circle><circle r="2" cx="179.9361732325568" cy="183.09696837695802" fill="grey"></circle><circle r="2" cx="180.25126561429445" cy="182.76875167384338" fill="grey"></circle><circle r="2" cx="180.32470806080374" cy="182.71935774034446" fill="grey"></circle><circle r="2" cx="181.74899288939983" cy="181.4470148121479" fill="grey"></circle><circle r="2" cx="181.5390425806286" cy="181.67374973988643" fill="grey"></circle><circle r="2" cx="182.06821878918578" cy="180.9403454046228" fill="grey"></circle><circle r="2" cx="182.01465022142435" cy="181.0084642947976" fill="grey"></circle><circle r="2" cx="182.94595669184082" cy="179.8921004391569" fill="grey"></circle><circle r="2" cx="182.50214927637333" cy="180.44342834479153" fill="grey"></circle><circle r="2" cx="183.11502376143645" cy="179.6908296340104" fill="grey"></circle><circle r="2" cx="183.14334467633816" cy="179.67249050824887" fill="grey"></circle><circle r="2" cx="183.77704420438175" cy="179.08472946702958" fill="grey"></circle><circle r="2" cx="183.98307272591393" cy="179.01494543411556" fill="grey"></circle><circle r="2" cx="185.01596867548344" cy="177.87872895902063" fill="grey"></circle><circle r="2" cx="184.16141799256536" cy="178.85765822008577" fill="grey"></circle><circle r="2" cx="185.74706616317147" cy="177.7180669793856" fill="grey"></circle><circle r="2" cx="186.0079255260509" cy="177.60088385963232" fill="grey"></circle><circle r="2" cx="186.40587702257193" cy="177.15181838569396" fill="grey"></circle><circle r="2" cx="186.47299910808616" cy="177.01329818777606" fill="grey"></circle><circle r="2" cx="186.94943686186483" cy="176.21457877210972" fill="grey"></circle><circle r="2" cx="186.94943686186483" cy="176.21457877210972" fill="grey"></circle><circle r="2" cx="187.6509134615755" cy="175.39688084898214" fill="grey"></circle><circle r="2" cx="187.40251587932332" cy="175.8510678483044" fill="grey"></circle><circle r="2" cx="188.08424121802642" cy="174.78068049712277" fill="grey"></circle><circle r="2" cx="187.90251626283953" cy="174.89418882416288" fill="grey"></circle><circle r="2" cx="188.30457064171864" cy="174.39825658470232" fill="grey"></circle><circle r="2" cx="188.157408082508" cy="174.75473147323515" fill="grey"></circle><circle r="2" cx="188.90458556932555" cy="173.37182559460632" fill="grey"></circle><circle r="2" cx="188.79066734900556" cy="173.518326928541" fill="grey"></circle><circle r="2" cx="189.28919264473834" cy="172.83980824433755" fill="grey"></circle><circle r="2" cx="189.48437892460737" cy="172.380525594253" fill="grey"></circle><circle r="2" cx="189.88071262061416" cy="171.87304454175728" fill="grey"></circle><circle r="2" cx="190.04152958604078" cy="171.60672469841506" fill="grey"></circle><circle r="2" cx="190.16301874277195" cy="171.53239932525764" fill="grey"></circle><circle r="2" cx="190.28526959155087" cy="171.45923197291805" fill="grey"></circle><circle r="2" cx="191.12046991878188" cy="170.55542047194862" fill="grey"></circle><circle r="2" cx="191.42145191621842" cy="169.84166734804433" fill="grey"></circle><circle r="2" cx="191.63931950758956" cy="169.47343099487563" fill="grey"></circle><circle r="2" cx="191.6831866721463" cy="169.21296179924195" fill="grey"></circle><circle r="2" cx="191.63931950758956" cy="169.47343099487563" fill="grey"></circle><circle r="2" cx="191.6831866721463" cy="169.21296179924195" fill="grey"></circle><circle r="2" cx="191.72715274830787" cy="169.16022239811397" fill="grey"></circle><circle r="2" cx="191.77121818325833" cy="169.02160304893377" fill="grey"></circle><circle r="2" cx="191.81538342642642" cy="168.91902790928987" fill="grey"></circle><circle r="2" cx="191.8596489312818" cy="168.88234469819471" fill="grey"></circle><circle r="2" cx="191.904015153988" cy="168.82737092386913" fill="grey"></circle><circle r="2" cx="191.94848255430034" cy="168.7686908221026" fill="grey"></circle><circle r="2" cx="191.99305159421908" cy="168.7580758477817" fill="grey"></circle><circle r="2" cx="192.03772274023427" cy="168.64257941199295" fill="grey"></circle><circle r="2" cx="192.08249646018294" cy="168.63036821730446" fill="grey"></circle><circle r="2" cx="192.12737322684077" cy="168.60462437030654" fill="grey"></circle><circle r="2" cx="192.1723535156775" cy="168.59284262853757" fill="grey"></circle><circle r="2" cx="192.21743780530556" cy="168.20983535104793" fill="grey"></circle><circle r="2" cx="192.26262657748038" cy="168.1350613410361" fill="grey"></circle><circle r="2" cx="192.30792031799814" cy="168.12314864376066" fill="grey"></circle><circle r="2" cx="192.3533195157978" cy="167.97620774547414" fill="grey"></circle><circle r="2" cx="192.3988246625123" cy="167.82411845651995" fill="grey"></circle><circle r="2" cx="192.44443625426447" cy="167.78454591571264" fill="grey"></circle><circle r="2" cx="192.49015478987084" cy="167.70821993142687" fill="grey"></circle><circle r="2" cx="192.53598077218882" cy="167.67738244055965" fill="grey"></circle><circle r="2" cx="192.58191470766764" cy="167.61452639369972" fill="grey"></circle><circle r="2" cx="192.62795710589938" cy="167.3600451887946" fill="grey"></circle><circle r="2" cx="192.67410848006813" cy="167.28355478147898" fill="grey"></circle><circle r="2" cx="192.72036934739856" cy="167.1916892832178" fill="grey"></circle><circle r="2" cx="192.76674022915626" cy="167.1799519485218" fill="grey"></circle><circle r="2" cx="192.81322164930083" cy="166.98438745863893" fill="grey"></circle><circle r="2" cx="192.8598141362813" cy="166.98283242758413" fill="grey"></circle><circle r="2" cx="192.90651822213897" cy="166.96959861003975" fill="grey"></circle><circle r="2" cx="192.95333444295568" cy="166.90291951790124" fill="grey"></circle><circle r="2" cx="193.00026333840523" cy="166.90291951790124" fill="grey"></circle><circle r="2" cx="193.04730545175323" cy="166.80551083330994" fill="grey"></circle><circle r="2" cx="193.094461330755" cy="166.69501490767615" fill="grey"></circle><circle r="2" cx="193.1417315272069" cy="166.68304675863283" fill="grey"></circle><circle r="2" cx="193.1891165969458" cy="166.6602230481456" fill="grey"></circle><circle r="2" cx="193.23661709940072" cy="166.3613502269352" fill="grey"></circle><circle r="2" cx="193.28423359804125" cy="166.3031097390927" fill="grey"></circle><circle r="2" cx="193.33196666127594" cy="166.02957809244984" fill="grey"></circle><circle r="2" cx="193.3798168606561" cy="166.0262924757335" fill="grey"></circle><circle r="2" cx="193.4277847731208" cy="165.98999716975953" fill="grey"></circle><circle r="2" cx="193.47587097875203" cy="165.98612553925096" fill="grey"></circle><circle r="2" cx="193.52407606257046" cy="165.7326399291123" fill="grey"></circle><circle r="2" cx="193.57240061408666" cy="165.73099843989755" fill="grey"></circle><circle r="2" cx="193.62084522685186" cy="165.6593371908125" fill="grey"></circle><circle r="2" cx="193.66941049845843" cy="165.6593371908125" fill="grey"></circle><circle r="2" cx="193.71809703233512" cy="165.6593371908125" fill="grey"></circle><circle r="2" cx="193.76690543460478" cy="165.62703170704566" fill="grey"></circle><circle r="2" cx="193.81583631722685" cy="165.56023724908712" fill="grey"></circle><circle r="2" cx="193.86489029665069" cy="165.10715022670846" fill="grey"></circle><circle r="2" cx="193.91406799381542" cy="164.78796895782293" fill="grey"></circle><circle r="2" cx="193.96337003370098" cy="164.59470851257188" fill="grey"></circle><circle r="2" cx="194.01279704802198" cy="164.44283957065628" fill="grey"></circle><circle r="2" cx="194.06234967073794" cy="164.4339681892307" fill="grey"></circle><circle r="2" cx="194.11202854209418" cy="164.12285077129602" fill="grey"></circle><circle r="2" cx="194.16183430727463" cy="164.08866498561665" fill="grey"></circle><circle r="2" cx="194.21176761640214" cy="164.0681962688044" fill="grey"></circle><circle r="2" cx="194.26182912408927" cy="163.909209685535" fill="grey"></circle><circle r="2" cx="194.31201949078542" cy="163.64664625664167" fill="grey"></circle><circle r="2" cx="194.36233938053172" cy="163.64664625664167" fill="grey"></circle><circle r="2" cx="194.41278946455307" cy="163.64664625664167" fill="grey"></circle><circle r="2" cx="194.4633704176661" cy="163.64664625664167" fill="grey"></circle><circle r="2" cx="194.5140829209733" cy="163.64664625664167" fill="grey"></circle><circle r="2" cx="194.56492766051582" cy="163.644289040565" fill="grey"></circle><circle r="2" cx="194.6159053277226" cy="163.6325621382163" fill="grey"></circle><circle r="2" cx="194.66701661896138" cy="163.6256978449235" fill="grey"></circle><circle r="2" cx="194.7182622373346" cy="163.52323176290167" fill="grey"></circle><circle r="2" cx="194.76964289043445" cy="163.5154493239001" fill="grey"></circle><circle r="2" cx="194.82115929168995" cy="163.3919851535581" fill="grey"></circle><circle r="2" cx="194.87281216036666" cy="163.27335698711204" fill="grey"></circle><circle r="2" cx="194.9246022215671" cy="163.1974854057148" fill="grey"></circle><circle r="2" cx="194.9765302057816" cy="163.03971811794275" fill="grey"></circle><circle r="2" cx="195.02859684933685" cy="163.03684444262197" fill="grey"></circle><circle r="2" cx="195.0808028957436" cy="162.95441850400871" fill="grey"></circle><circle r="2" cx="195.13314909210428" cy="162.8610269016598" fill="grey"></circle><circle r="2" cx="195.18563619405194" cy="162.73644358061466" fill="grey"></circle><circle r="2" cx="195.23826496170943" cy="162.6673557324031" fill="grey"></circle><circle r="2" cx="195.29103616148535" cy="162.58527044586975" fill="grey"></circle><circle r="2" cx="195.34395056742096" cy="162.528889630061" fill="grey"></circle><circle r="2" cx="195.39700895804728" cy="162.48085371397053" fill="grey"></circle><circle r="2" cx="195.45021211952798" cy="162.44127653085346" fill="grey"></circle><circle r="2" cx="195.50356084341456" cy="162.23412345847598" fill="grey"></circle><circle r="2" cx="195.55705592933998" cy="162.14405197303472" fill="grey"></circle><circle r="2" cx="195.61069818187633" cy="162.13768654501558" fill="grey"></circle><circle r="2" cx="195.6644884136769" cy="162.06632774659917" fill="grey"></circle><circle r="2" cx="195.7184274423341" cy="161.97730725994634" fill="grey"></circle><circle r="2" cx="195.77251609441976" cy="161.8879742344133" fill="grey"></circle><circle r="2" cx="195.82675520189355" cy="161.80088679088297" fill="grey"></circle><circle r="2" cx="195.88114560389872" cy="161.625074881849" fill="grey"></circle><circle r="2" cx="195.9356881476603" cy="161.625074881849" fill="grey"></circle><circle r="2" cx="195.99038368534195" cy="161.61268223163103" fill="grey"></circle><circle r="2" cx="196.045233078985" cy="161.56057821798478" fill="grey"></circle><circle r="2" cx="196.10023719601853" cy="161.5563148919051" fill="grey"></circle><circle r="2" cx="196.15539691195312" cy="161.35410058641483" fill="grey"></circle><circle r="2" cx="196.21071310948318" cy="161.03758836542954" fill="grey"></circle><circle r="2" cx="196.26618667893575" cy="160.99490238925213" fill="grey"></circle><circle r="2" cx="196.32181851827048" cy="160.95680810540708" fill="grey"></circle><circle r="2" cx="196.37760953397762" cy="160.85242917025312" fill="grey"></circle><circle r="2" cx="196.43356063838428" cy="160.62123883548725" fill="grey"></circle><circle r="2" cx="196.48967275324605" cy="160.53816941215825" fill="grey"></circle><circle r="2" cx="196.54594680840012" cy="160.5113653550671" fill="grey"></circle><circle r="2" cx="196.60238374086742" cy="160.50613169336415" fill="grey"></circle><circle r="2" cx="196.65898449619948" cy="160.42467146450147" fill="grey"></circle><circle r="2" cx="196.71575002847848" cy="160.33083462021395" fill="grey"></circle><circle r="2" cx="196.77268129941928" cy="160.26330056192484" fill="grey"></circle><circle r="2" cx="196.82977928061413" cy="160.218676172386" fill="grey"></circle><circle r="2" cx="196.88704495039016" cy="160.12350878884317" fill="grey"></circle><circle r="2" cx="196.944479296952" cy="159.9890931655611" fill="grey"></circle><circle r="2" cx="197.00208331658587" cy="159.96508771446142" fill="grey"></circle><circle r="2" cx="197.0598580154556" cy="159.94122013758744" fill="grey"></circle><circle r="2" cx="197.11780440735768" cy="159.81564658940576" fill="grey"></circle><circle r="2" cx="197.17592351596608" cy="159.78308253605567" fill="grey"></circle><circle r="2" cx="197.23421637438346" cy="159.59040302944322" fill="grey"></circle><circle r="2" cx="197.29268402379407" cy="159.5357567974275" fill="grey"></circle><circle r="2" cx="197.35132751615762" cy="159.03247461222867" fill="grey"></circle><circle r="2" cx="197.41014791241352" cy="158.79651220140488" fill="grey"></circle><circle r="2" cx="197.46914628292964" cy="158.76622264189203" fill="grey"></circle><circle r="2" cx="197.5283237079515" cy="158.63816254966204" fill="grey"></circle><circle r="2" cx="197.58768127715314" cy="158.5972667804611" fill="grey"></circle><circle r="2" cx="197.6472200914331" cy="158.58763099223455" fill="grey"></circle><circle r="2" cx="197.7069412611186" cy="158.40421714350614" fill="grey"></circle><circle r="2" cx="197.7668459055163" cy="158.3787921934195" fill="grey"></circle><circle r="2" cx="197.82693515695337" cy="158.34659781356459" fill="grey"></circle><circle r="2" cx="197.88721015538965" cy="158.31272985299253" fill="grey"></circle><circle r="2" cx="197.94767205380526" cy="158.2728282122634" fill="grey"></circle><circle r="2" cx="198.00832201416017" cy="158.2728282122634" fill="grey"></circle><circle r="2" cx="198.06916121008751" cy="158.21104347367745" fill="grey"></circle><circle r="2" cx="198.1301908264452" cy="158.06826895799938" fill="grey"></circle><circle r="2" cx="198.19141205886643" cy="158.03747921224317" fill="grey"></circle><circle r="2" cx="198.25282611465803" cy="157.90372142692735" fill="grey"></circle><circle r="2" cx="198.31443421190232" cy="157.68278293756637" fill="grey"></circle><circle r="2" cx="198.37623758080406" cy="157.36768128447687" fill="grey"></circle><circle r="2" cx="198.4382374627925" cy="157.29768517369567" fill="grey"></circle><circle r="2" cx="198.50043511231723" cy="157.24926539914418" fill="grey"></circle><circle r="2" cx="198.56283179460348" cy="157.03589877582635" fill="grey"></circle><circle r="2" cx="198.6254287874479" cy="156.86963802033463" fill="grey"></circle><circle r="2" cx="198.68822738121844" cy="156.7604062564667" fill="grey"></circle><circle r="2" cx="198.75122887885468" cy="156.2607374019705" fill="grey"></circle><circle r="2" cx="198.81443459541853" cy="156.07555580327278" fill="grey"></circle><circle r="2" cx="198.8778458598903" cy="155.7472246156804" fill="grey"></circle><circle r="2" cx="198.9414640124748" cy="155.53194514679674" fill="grey"></circle><circle r="2" cx="199.00529040864217" cy="155.44696828023243" fill="grey"></circle><circle r="2" cx="199.069326415087" cy="155.29271977011734" fill="grey"></circle><circle r="2" cx="199.13357341421823" cy="155.24167971866106" fill="grey"></circle><circle r="2" cx="199.19803280011828" cy="155.24167971866106" fill="grey"></circle><circle r="2" cx="199.2627059825838" cy="154.9128087269525" fill="grey"></circle><circle r="2" cx="199.32759438353395" cy="154.67537277322555" fill="grey"></circle><circle r="2" cx="199.39269944060217" cy="154.63003648067078" fill="grey"></circle><circle r="2" cx="199.4580226057892" cy="154.4923419083995" fill="grey"></circle><circle r="2" cx="199.52356534501428" cy="154.08671233373568" fill="grey"></circle><circle r="2" cx="199.58932913946182" cy="154.08671233373568" fill="grey"></circle><circle r="2" cx="199.6553154851327" cy="154.0470140404197" fill="grey"></circle><circle r="2" cx="199.72152589329298" cy="153.82118700528537" fill="grey"></circle><circle r="2" cx="199.78796189137213" cy="153.79765887353776" fill="grey"></circle><circle r="2" cx="199.8546250216159" cy="153.7824030672282" fill="grey"></circle><circle r="2" cx="199.92151684198421" cy="153.222777558227" fill="grey"></circle><circle r="2" cx="199.98863892704952" cy="152.86096687378463" fill="grey"></circle><circle r="2" cx="200.0559928684452" cy="152.80559268360918" fill="grey"></circle><circle r="2" cx="200.12358027217218" cy="152.77742403165612" fill="grey"></circle><circle r="2" cx="200.19140276353744" cy="152.75130181749677" fill="grey"></circle><circle r="2" cx="200.2594619826644" cy="152.73903240490944" fill="grey"></circle><circle r="2" cx="200.32775958853347" cy="152.50355382305548" fill="grey"></circle><circle r="2" cx="200.3962972567374" cy="152.45858902225348" fill="grey"></circle><circle r="2" cx="200.46507668082822" cy="152.31621260348805" fill="grey"></circle><circle r="2" cx="200.53409957276597" cy="152.31621260348805" fill="grey"></circle><circle r="2" cx="200.60336766157204" cy="152.31621260348805" fill="grey"></circle><circle r="2" cx="200.67288269602287" cy="152.31621260348805" fill="grey"></circle><circle r="2" cx="200.74264644330307" cy="152.31621260348805" fill="grey"></circle><circle r="2" cx="200.81266068945453" cy="152.31621260348805" fill="grey"></circle><circle r="2" cx="200.88292723937607" cy="152.31621260348805" fill="grey"></circle><circle r="2" cx="200.9534479186198" cy="152.0241960425195" fill="grey"></circle><circle r="2" cx="201.02422457159483" cy="151.99450980064128" fill="grey"></circle><circle r="2" cx="201.0952590638124" cy="151.84492551774193" fill="grey"></circle><circle r="2" cx="201.16655328053886" cy="151.70388372976785" fill="grey"></circle><circle r="2" cx="201.23810912814255" cy="151.64443742616348" fill="grey"></circle><circle r="2" cx="201.30992853364498" cy="151.63673224080068" fill="grey"></circle><circle r="2" cx="201.38201344561855" cy="151.62408057850197" fill="grey"></circle><circle r="2" cx="201.4543658350849" cy="151.50004159978113" fill="grey"></circle><circle r="2" cx="201.52698769371847" cy="151.34169141944156" fill="grey"></circle><circle r="2" cx="201.5998810365408" cy="151.2772233637167" fill="grey"></circle><circle r="2" cx="201.6730479014713" cy="151.11182180001765" fill="grey"></circle><circle r="2" cx="201.74649034798063" cy="151.0861051113015" fill="grey"></circle><circle r="2" cx="201.820210460682" cy="150.92778534666172" fill="grey"></circle><circle r="2" cx="201.8942103461889" cy="150.7737430761086" fill="grey"></circle><circle r="2" cx="201.96849213715558" cy="150.61475406614758" fill="grey"></circle><circle r="2" cx="202.04305798913416" cy="150.61475406614758" fill="grey"></circle><circle r="2" cx="202.11791008326867" cy="150.19733888542834" fill="grey"></circle><circle r="2" cx="202.19305062539715" cy="150.0463302757277" fill="grey"></circle><circle r="2" cx="202.2684818473983" cy="149.93043508345454" fill="grey"></circle><circle r="2" cx="202.34420600674275" cy="149.54101166658845" fill="grey"></circle><circle r="2" cx="202.4202253878399" cy="149.511979091303" fill="grey"></circle><circle r="2" cx="202.49654230113998" cy="149.49732183795317" fill="grey"></circle><circle r="2" cx="202.573159085828" cy="149.32628078602175" fill="grey"></circle><circle r="2" cx="202.65007810668067" cy="149.05634411348132" fill="grey"></circle><circle r="2" cx="202.7273017581075" cy="148.7557341278514" fill="grey"></circle><circle r="2" cx="202.8048324628037" cy="148.29416163975614" fill="grey"></circle><circle r="2" cx="202.88267267219916" cy="148.2824440642938" fill="grey"></circle><circle r="2" cx="202.96082486735645" cy="148.00090213080924" fill="grey"></circle><circle r="2" cx="203.0392915589708" cy="147.9752535363474" fill="grey"></circle><circle r="2" cx="203.1180752882682" cy="147.4199681126468" fill="grey"></circle><circle r="2" cx="203.19717862835196" cy="147.4033440692203" fill="grey"></circle><circle r="2" cx="203.27660418240717" cy="147.4033440692203" fill="grey"></circle><circle r="2" cx="203.35635458594555" cy="147.4033440692203" fill="grey"></circle><circle r="2" cx="203.43643250770322" cy="147.4033440692203" fill="grey"></circle><circle r="2" cx="203.51684064874286" cy="147.4033440692203" fill="grey"></circle><circle r="2" cx="203.5975817433517" cy="147.28248574556514" fill="grey"></circle><circle r="2" cx="203.67865856083733" cy="147.23136068293647" fill="grey"></circle><circle r="2" cx="203.7600739050789" cy="147.114313329806" fill="grey"></circle><circle r="2" cx="203.84183061407788" cy="146.99064716798205" fill="grey"></circle><circle r="2" cx="203.9239315626522" cy="145.90152124497854" fill="grey"></circle><circle r="2" cx="204.0063796624361" cy="145.60931175459427" fill="grey"></circle><circle r="2" cx="204.08917786143115" cy="145.31497363172988" fill="grey"></circle><circle r="2" cx="204.1723291453533" cy="144.8186368264403" fill="grey"></circle><circle r="2" cx="204.2558365385308" cy="144.51800550935397" fill="grey"></circle><circle r="2" cx="204.3397031048019" cy="143.16864696274928" fill="grey"></circle><circle r="2" cx="204.42393194616838" cy="143.15066119547623" fill="grey"></circle><circle r="2" cx="204.508526207285" cy="142.8628910483656" fill="grey"></circle><circle r="2" cx="204.5934890714188" cy="142.82846980524644" fill="grey"></circle><circle r="2" cx="204.67882376583682" cy="142.50470136788675" fill="grey"></circle><circle r="2" cx="204.76453355911238" cy="140.39965295967878" fill="grey"></circle><circle r="2" cx="204.8506217629206" cy="139.85879073008624" fill="grey"></circle><circle r="2" cx="204.9370917342838" cy="138.9555968707805" fill="grey"></circle><circle r="2" cx="205.02394687332628" cy="138.3037459163573" fill="grey"></circle><circle r="2" cx="205.11119062776416" cy="138.30146303228807" fill="grey"></circle><circle r="2" cx="205.19882649021164" cy="138.20920923128415" fill="grey"></circle><circle r="2" cx="205.28685800087473" cy="138.15881605737198" fill="grey"></circle><circle r="2" cx="205.3752887488982" cy="137.97685380200284" fill="grey"></circle><circle r="2" cx="205.46412237191674" cy="137.6386182166567" fill="grey"></circle><circle r="2" cx="205.5533625578507" cy="137.3947078738239" fill="grey"></circle><circle r="2" cx="205.6430130444572" cy="136.90830454484185" fill="grey"></circle><circle r="2" cx="205.733077622922" cy="136.272912438271" fill="grey"></circle><circle r="2" cx="205.8235601356145" cy="136.25717440861038" fill="grey"></circle><circle r="2" cx="205.91446448012874" cy="136.15687810011372" fill="grey"></circle><circle r="2" cx="206.00579460748725" cy="135.73040823209033" fill="grey"></circle><circle r="2" cx="206.09755452528398" cy="135.68146125677322" fill="grey"></circle><circle r="2" cx="206.18974829768456" cy="135.03989570085557" fill="grey"></circle><circle r="2" cx="206.2823800467727" cy="134.54277107970992" fill="grey"></circle><circle r="2" cx="206.37545395389773" cy="134.41803363700717" fill="grey"></circle><circle r="2" cx="206.4689742605721" cy="134.34840338761595" fill="grey"></circle><circle r="2" cx="206.56294526892066" cy="133.98527099716955" fill="grey"></circle><circle r="2" cx="206.65737134482333" cy="133.63434588129107" fill="grey"></circle><circle r="2" cx="206.75225691656817" cy="133.63434588129107" fill="grey"></circle><circle r="2" cx="206.84760647844342" cy="133.6106193136956" fill="grey"></circle><circle r="2" cx="206.94342459028823" cy="132.80480571060644" fill="grey"></circle><circle r="2" cx="207.03971588018683" cy="132.3849624367272" fill="grey"></circle><circle r="2" cx="207.13648504401934" cy="132.1065258698176" fill="grey"></circle><circle r="2" cx="207.23373684950255" cy="131.93283152978356" fill="grey"></circle><circle r="2" cx="207.33147613439428" cy="131.71457143034183" fill="grey"></circle><circle r="2" cx="207.42970781098288" cy="131.37442654828044" fill="grey"></circle><circle r="2" cx="207.52843686518943" cy="131.19312215957726" fill="grey"></circle><circle r="2" cx="207.62766835926163" cy="131.12361733212612" fill="grey"></circle><circle r="2" cx="207.72740743356954" cy="130.5014245872624" fill="grey"></circle><circle r="2" cx="207.82765930750386" cy="130.19542495226847" fill="grey"></circle><circle r="2" cx="207.9284292812715" cy="130.0511584058509" fill="grey"></circle><circle r="2" cx="208.02972273814078" cy="129.83541344659517" fill="grey"></circle><circle r="2" cx="208.13154514444108" cy="129.69998021560244" fill="grey"></circle><circle r="2" cx="208.23390205405306" cy="129.68795813196266" fill="grey"></circle><circle r="2" cx="208.33679910840834" cy="129.63972058522398" fill="grey"></circle><circle r="2" cx="208.44024203828562" cy="129.63035668429325" fill="grey"></circle><circle r="2" cx="208.5442366665043" cy="129.5493019730466" fill="grey"></circle><circle r="2" cx="208.64878890882272" cy="129.4550652305477" fill="grey"></circle><circle r="2" cx="208.75390477842788" cy="129.16436857297992" fill="grey"></circle><circle r="2" cx="208.8595903841394" cy="128.80151816952085" fill="grey"></circle><circle r="2" cx="208.96585193624645" cy="128.71225290558633" fill="grey"></circle><circle r="2" cx="209.07269574605846" cy="128.71225290558633" fill="grey"></circle><circle r="2" cx="209.1801282299464" cy="128.70223355607126" fill="grey"></circle><circle r="2" cx="209.2881559111382" cy="128.48782828971522" fill="grey"></circle><circle r="2" cx="209.3967854206172" cy="128.40723459194567" fill="grey"></circle><circle r="2" cx="209.5060235020604" cy="128.39232862867007" fill="grey"></circle><circle r="2" cx="209.615877012288" cy="128.33100227858068" fill="grey"></circle><circle r="2" cx="209.72635292575265" cy="128.33100227858068" fill="grey"></circle><circle r="2" cx="209.83745833498895" cy="128.26656135609053" fill="grey"></circle><circle r="2" cx="209.9492004546538" cy="128.167396169471" fill="grey"></circle><circle r="2" cx="210.06158662466956" cy="127.67736432450481" fill="grey"></circle><circle r="2" cx="210.17462431246895" cy="127.43677688662679" fill="grey"></circle><circle r="2" cx="210.28832111568872" cy="126.56736275739512" fill="grey"></circle><circle r="2" cx="210.40268476665963" cy="126.55381274410469" fill="grey"></circle><circle r="2" cx="210.5177231328553" cy="126.18093532387054" fill="grey"></circle><circle r="2" cx="210.63344422317815" cy="125.52126833768735" fill="grey"></circle><circle r="2" cx="210.74985619020396" cy="125.44810461821015" fill="grey"></circle><circle r="2" cx="210.8669673324271" cy="125.08848634510835" fill="grey"></circle><circle r="2" cx="210.9847860987501" cy="125.02738962850336" fill="grey"></circle><circle r="2" cx="211.1033210929736" cy="124.94163662451987" fill="grey"></circle><circle r="2" cx="211.22258107693906" cy="124.82368284507992" fill="grey"></circle><circle r="2" cx="211.3425749727739" cy="124.63590700455653" fill="grey"></circle><circle r="2" cx="211.4633118691768" cy="124.38165096641617" fill="grey"></circle><circle r="2" cx="211.584801025908" cy="124.29494718671056" fill="grey"></circle><circle r="2" cx="211.70705187468693" cy="124.29494718671056" fill="grey"></circle><circle r="2" cx="211.83007402772287" cy="124.2735042866866" fill="grey"></circle><circle r="2" cx="211.953877278613" cy="124.11446762841094" fill="grey"></circle><circle r="2" cx="212.07847160997503" cy="123.8974160276329" fill="grey"></circle><circle r="2" cx="212.20386719658993" cy="123.8800915389004" fill="grey"></circle><circle r="2" cx="212.330074411239" cy="123.70709968837497" fill="grey"></circle><circle r="2" cx="212.4571038278463" cy="123.67218996301817" fill="grey"></circle><circle r="2" cx="212.58496623045852" cy="123.59670019300933" fill="grey"></circle><circle r="2" cx="212.71367261548983" cy="123.5715320866093" fill="grey"></circle><circle r="2" cx="212.8432341989055" cy="123.5715320866093" fill="grey"></circle><circle r="2" cx="212.9736624211607" cy="123.56406037657945" fill="grey"></circle><circle r="2" cx="213.10496895438436" cy="123.56406037657945" fill="grey"></circle><circle r="2" cx="213.23716570866452" cy="123.45409181764784" fill="grey"></circle><circle r="2" cx="213.37026483653844" cy="123.26240585585931" fill="grey"></circle><circle r="2" cx="213.50427874242104" cy="122.95730277421116" fill="grey"></circle><circle r="2" cx="213.63922008709469" cy="122.95730277421116" fill="grey"></circle><circle r="2" cx="213.7751017975869" cy="122.91457511195493" fill="grey"></circle><circle r="2" cx="213.91193707165993" cy="122.91457511195493" fill="grey"></circle><circle r="2" cx="214.0497393876885" cy="122.55280545323694" fill="grey"></circle><circle r="2" cx="214.18852251094538" cy="122.07926919724066" fill="grey"></circle><circle r="2" cx="214.32830050392803" cy="122.04670980028926" fill="grey"></circle><circle r="2" cx="214.46908773309335" cy="120.36102419720585" fill="grey"></circle><circle r="2" cx="214.61089887828595" cy="119.95247251409977" fill="grey"></circle><circle r="2" cx="214.75374894261608" cy="119.10103209721619" fill="grey"></circle><circle r="2" cx="214.89765326009214" cy="118.83033977415855" fill="grey"></circle><circle r="2" cx="215.04262750819203" cy="118.7929945297203" fill="grey"></circle><circle r="2" cx="215.18868771549592" cy="118.74370396816852" fill="grey"></circle><circle r="2" cx="215.3358502747066" cy="118.61148343912883" fill="grey"></circle><circle r="2" cx="215.48413195118013" cy="118.44469928897587" fill="grey"></circle><circle r="2" cx="215.63354989729328" cy="118.26019093242637" fill="grey"></circle><circle r="2" cx="215.7841216614229" cy="117.9660856545448" fill="grey"></circle><circle r="2" cx="215.93586520141548" cy="117.88740595685239" fill="grey"></circle><circle r="2" cx="216.08879889940357" cy="117.88740595685239" fill="grey"></circle><circle r="2" cx="216.24294157213208" cy="117.66295299922751" fill="grey"></circle><circle r="2" cx="216.39831248577474" cy="117.66295299922751" fill="grey"></circle><circle r="2" cx="216.55493137254643" cy="117.66295299922751" fill="grey"></circle><circle r="2" cx="216.7128184419275" cy="117.66295299922751" fill="grey"></circle><circle r="2" cx="216.87199439952116" cy="117.66295299922751" fill="grey"></circle><circle r="2" cx="217.03248046186948" cy="117.64450910566899" fill="grey"></circle><circle r="2" cx="217.19429837441294" cy="117.36884052110864" fill="grey"></circle><circle r="2" cx="217.3574704272045" cy="117.23450756266656" fill="grey"></circle><circle r="2" cx="217.5220194755627" cy="117.03125417190157" fill="grey"></circle><circle r="2" cx="217.68796895847993" cy="117.0051917515164" fill="grey"></circle><circle r="2" cx="217.85534291747953" cy="116.87001261608187" fill="grey"></circle><circle r="2" cx="218.0241660199626" cy="116.8264859703877" fill="grey"></circle><circle r="2" cx="218.19446357851447" cy="116.81851278914992" fill="grey"></circle><circle r="2" cx="218.36626157559817" cy="116.81851278914992" fill="grey"></circle><circle r="2" cx="218.53958668600393" cy="116.81851278914992" fill="grey"></circle><circle r="2" cx="218.71446630244031" cy="116.81851278914992" fill="grey"></circle><circle r="2" cx="218.89092856157586" cy="116.76871871531841" fill="grey"></circle><circle r="2" cx="219.06900237007935" cy="116.35154551731114" fill="grey"></circle><circle r="2" cx="219.24871743515064" cy="116.33257367888152" fill="grey"></circle><circle r="2" cx="219.43010429190846" cy="115.92335638879568" fill="grey"></circle><circle r="2" cx="219.61319433706367" cy="115.92335638879568" fill="grey"></circle><circle r="2" cx="219.79801985855235" cy="115.92335638879568" fill="grey"></circle><circle r="2" cx="219.98461407235177" cy="115.67359449838776" fill="grey"></circle><circle r="2" cx="220.17301115660297" cy="114.59497306283714" fill="grey"></circle><circle r="2" cx="220.36324629022306" cy="114.47482157200145" fill="grey"></circle><circle r="2" cx="220.55535569151758" cy="114.16734552256709" fill="grey"></circle><circle r="2" cx="220.74937666083326" cy="114.16734552256709" fill="grey"></circle><circle r="2" cx="220.94534762186458" cy="114.16734552256709" fill="grey"></circle><circle r="2" cx="221.1433081701433" cy="113.9734849471764" fill="grey"></circle><circle r="2" cx="221.34329911838557" cy="113.92918231773704" fill="grey"></circle><circle r="2" cx="221.54536254902249" cy="113.69905663734608" fill="grey"></circle><circle r="2" cx="221.74954186493477" cy="113.1028730537581" fill="grey"></circle><circle r="2" cx="221.95588184871832" cy="112.91363960624105" fill="grey"></circle><circle r="2" cx="222.16442871925543" cy="112.7442845635699" fill="grey"></circle><circle r="2" cx="222.3752301941232" cy="111.96926171803247" fill="grey"></circle><circle r="2" cx="222.5883355560422" cy="111.35041998923599" fill="grey"></circle><circle r="2" cx="222.80379572112196" cy="111.35041998923599" fill="grey"></circle><circle r="2" cx="223.02166331204418" cy="109.84874565002734" fill="grey"></circle><circle r="2" cx="223.2419927352874" cy="108.98527186764501" fill="grey"></circle><circle r="2" cx="223.46484026418852" cy="108.76420606685888" fill="grey"></circle><circle r="2" cx="223.69026412200375" cy="108.47276484599669" fill="grey"></circle><circle r="2" cx="223.91832457574543" cy="107.63455499837123" fill="grey"></circle><circle r="2" cx="224.14908403226394" cy="105.79727150628894" fill="grey"></circle><circle r="2" cx="224.38260714106391" cy="105.53126289859887" fill="grey"></circle><circle r="2" cx="224.61896090205943" cy="105.22584177007285" fill="grey"></circle><circle r="2" cx="224.85821478096167" cy="104.70880505191744" fill="grey"></circle><circle r="2" cx="225.10044083409582" cy="104.48645909788287" fill="grey"></circle><circle r="2" cx="225.3457138354617" cy="104.0688636756322" fill="grey"></circle><circle r="2" cx="225.5941114181628" cy="103.89535365170677" fill="grey"></circle><circle r="2" cx="225.84571421852888" cy="103.3911831319785" fill="grey"></circle><circle r="2" cx="226.10060603819738" cy="101.88637687034631" fill="grey"></circle><circle r="2" cx="226.35887400619532" cy="100.67008454031318" fill="grey"></circle><circle r="2" cx="226.62060876167422" cy="99.73765392993066" fill="grey"></circle><circle r="2" cx="226.8859046433793" cy="99.67387107630901" fill="grey"></circle><circle r="2" cx="227.15485989393557" cy="99.34722148813483" fill="grey"></circle><circle r="2" cx="227.42757687805184" cy="98.8855547110312" fill="grey"></circle><circle r="2" cx="227.7041623173373" cy="98.73498332952542" fill="grey"></circle><circle r="2" cx="227.98472753903627" cy="98.33140966512752" fill="grey"></circle><circle r="2" cx="228.26938874811006" cy="98.16024214345546" fill="grey"></circle><circle r="2" cx="228.558267313237" cy="97.84852120255265" fill="grey"></circle><circle r="2" cx="228.85149007975153" cy="97.59125515499699" fill="grey"></circle><circle r="2" cx="229.14918970233825" cy="97.06622755570523" fill="grey"></circle><circle r="2" cx="229.4515050060115" cy="97.02478834352493" fill="grey"></circle><circle r="2" cx="229.75858137627907" cy="96.88897730005799" fill="grey"></circle><circle r="2" cx="230.07057117624444" cy="96.54162464491903" fill="grey"></circle><circle r="2" cx="230.3876342032192" cy="96.09806938524898" fill="grey"></circle><circle r="2" cx="230.70993817766202" cy="95.25047726704722" fill="grey"></circle><circle r="2" cx="231.0376592788118" cy="94.84471531389269" fill="grey"></circle><circle r="2" cx="231.3709827202796" cy="94.22156728510308" fill="grey"></circle><circle r="2" cx="231.71010338131452" cy="93.75822910793907" fill="grey"></circle><circle r="2" cx="232.055226487906" cy="93.71731970298055" fill="grey"></circle><circle r="2" cx="232.40656836258" cy="92.5519861055805" fill="grey"></circle><circle r="2" cx="232.7643572361548" cy="91.82817504460817" fill="grey"></circle><circle r="2" cx="233.12883413761884" cy="91.49524194654035" fill="grey"></circle><circle r="2" cx="233.500253872458" cy="90.79173334517755" fill="grey"></circle><circle r="2" cx="233.87888608988033" cy="89.88702264996651" fill="grey"></circle><circle r="2" cx="234.26501646004147" cy="89.88702264996651" fill="grey"></circle><circle r="2" cx="234.6589479689026" cy="89.88702264996651" fill="grey"></circle><circle r="2" cx="235.06100234733276" cy="89.88600793597008" fill="grey"></circle><circle r="2" cx="235.47152164657962" cy="89.84179475546217" fill="grey"></circle><circle r="2" cx="235.89086999198446" cy="89.13055190192354" fill="grey"></circle><circle r="2" cx="236.31943551763632" cy="88.25143904624574" fill="grey"></circle><circle r="2" cx="236.7576325318018" cy="88.09069722738832" fill="grey"></circle><circle r="2" cx="237.20590391717113" cy="87.29237054752743" fill="grey"></circle><circle r="2" cx="237.66472382698234" cy="86.25637801276505" fill="grey"></circle><circle r="2" cx="238.1346006958799" cy="85.99726824813135" fill="grey"></circle><circle r="2" cx="238.61608062746734" cy="85.11068283917382" fill="grey"></circle><circle r="2" cx="239.10975121063638" cy="84.87927935969395" fill="grey"></circle><circle r="2" cx="239.61624582977294" cy="84.87927935969395" fill="grey"></circle><circle r="2" cx="240.13624855280085" cy="84.4755840262354" fill="grey"></circle><circle r="2" cx="240.67049968371524" cy="84.42680841197439" fill="grey"></circle><circle r="2" cx="241.21980210666797" cy="82.66516283940824" fill="grey"></circle><circle r="2" cx="241.78502853609376" cy="82.21665871081127" fill="grey"></circle><circle r="2" cx="242.36712986728634" cy="82.07419466685101" fill="grey"></circle><circle r="2" cx="242.9671447921993" cy="81.84681632092801" fill="grey"></circle><circle r="2" cx="243.58621096153433" cy="81.15671989202595" fill="grey"></circle><circle r="2" cx="244.22557796115595" cy="80.56362257822089" fill="grey"></circle><circle r="2" cx="244.88662250197763" cy="80.32140363132439" fill="grey"></circle><circle r="2" cx="245.57086626870606" cy="80.1217714120249" fill="grey"></circle><circle r="2" cx="246.27999701515895" cy="79.73957372486696" fill="grey"></circle><circle r="2" cx="247.01589365011517" cy="79.12809524204052" fill="grey"></circle><circle r="2" cx="247.7806562354538" cy="77.92262975677478" fill="grey"></circle><circle r="2" cx="248.57664212094915" cy="77.57962805004038" fill="grey"></circle><circle r="2" cx="249.40650976290698" cy="77.54713232680407" fill="grey"></circle><circle r="2" cx="250.2732723009284" cy="77.05737296660962" fill="grey"></circle><circle r="2" cx="251.18036359386406" cy="77.05737296660962" fill="grey"></circle><circle r="2" cx="252.13172039165516" cy="76.27313204940702" fill="grey"></circle><circle r="2" cx="253.1318855903689" cy="75.83324631866107" fill="grey"></circle><circle r="2" cx="254.18613944161734" cy="74.50859083501722" fill="grey"></circle><circle r="2" cx="255.3006682895061" cy="74.11622045418798" fill="grey"></circle><circle r="2" cx="256.4827845406728" cy="72.04731879360615" fill="grey"></circle><circle r="2" cx="257.74121770513966" cy="71.97822856566619" fill="grey"></circle><circle r="2" cx="259.0865060064041" cy="71.05598811038485" fill="grey"></circle><circle r="2" cx="260.53153338197643" cy="69.76689162893823" fill="grey"></circle><circle r="2" cx="262.0922818442798" cy="55.98490731168047" fill="grey"></circle><circle r="2" cx="263.78891201617733" cy="53.702193093657094" fill="grey"></circle><circle r="2" cx="265.6473600952307" cy="53.1092490180802" fill="grey"></circle><circle r="2" cx="267.7017791326215" cy="51.77915107498298" fill="grey"></circle><circle r="2" cx="269.9984242150647" cy="48.19254839186109" fill="grey"></circle><circle r="2" cx="272.6021456610408" cy="45.95543110835625" fill="grey"></circle><circle r="2" cx="275.60792146928384" cy="43.819620247301586" fill="grey"></circle><circle r="2" cx="279.1629996825204" cy="42.58712143412038" fill="grey"></circle><circle r="2" cx="283.51406374129317" cy="21.962821782587937" fill="grey"></circle><circle r="2" cx="289.12356089359395" cy="7.19330394859119" fill="grey"></circle><circle r="2" cx="297.029702970297" cy="2.970297029702973" fill="grey"></circle><g class="x axis" transform="translate(0,300)"><g class="tick" transform="translate(0,0)" style="opacity: 1;"><line y2="6" x2="0" style="fill: none; stroke: grey;"></line><text dy=".71em" y="9" x="0" style="text-anchor: middle; font-size: 11px; font-family: sans-serif;">0</text></g><g class="tick" transform="translate(44.897983649009795,0)" style="opacity: 1;"><line y2="6" x2="0" style="fill: none; stroke: grey;"></line><text dy=".71em" y="9" x="0" style="text-anchor: middle; font-size: 11px; font-family: sans-serif;">1</text></g><g class="tick" transform="translate(89.79596729801959,0)" style="opacity: 1;"><line y2="6" x2="0" style="fill: none; stroke: grey;"></line><text dy=".71em" y="9" x="0" style="text-anchor: middle; font-size: 11px; font-family: sans-serif;">2</text></g><g class="tick" transform="translate(134.69395094702938,0)" style="opacity: 1;"><line y2="6" x2="0" style="fill: none; stroke: grey;"></line><text dy=".71em" y="9" x="0" style="text-anchor: middle; font-size: 11px; font-family: sans-serif;">3</text></g><g class="tick" transform="translate(179.59193459603918,0)" style="opacity: 1;"><line y2="6" x2="0" style="fill: none; stroke: grey;"></line><text dy=".71em" y="9" x="0" style="text-anchor: middle; font-size: 11px; font-family: sans-serif;">4</text></g><g class="tick" transform="translate(224.48991824504895,0)" style="opacity: 1;"><line y2="6" x2="0" style="fill: none; stroke: grey;"></line><text dy=".71em" y="9" x="0" style="text-anchor: middle; font-size: 11px; font-family: sans-serif;">5</text></g><g class="tick" transform="translate(269.38790189405876,0)" style="opacity: 1;"><line y2="6" x2="0" style="fill: none; stroke: grey;"></line><text dy=".71em" y="9" x="0" style="text-anchor: middle; font-size: 11px; font-family: sans-serif;">6</text></g><path class="domain" d="M0,6V0H300V6" style="fill: none; stroke: grey;"></path></g><g class="y axis"><g class="tick" transform="translate(0,300)" style="opacity: 1;"><line x2="-6" y2="0" style="fill: none; stroke: grey;"></line><text dy=".32em" x="-9" y="0" style="text-anchor: end; font-size: 11px; font-family: sans-serif;">0</text></g><g class="tick" transform="translate(0,273.909347702701)" style="opacity: 1;"><line x2="-6" y2="0" style="fill: none; stroke: grey;"></line><text dy=".32em" x="-9" y="0" style="text-anchor: end; font-size: 11px; font-family: sans-serif;">1</text></g><g class="tick" transform="translate(0,247.81869540540194)" style="opacity: 1;"><line x2="-6" y2="0" style="fill: none; stroke: grey;"></line><text dy=".32em" x="-9" y="0" style="text-anchor: end; font-size: 11px; font-family: sans-serif;">2</text></g><g class="tick" transform="translate(0,221.72804310810287)" style="opacity: 1;"><line x2="-6" y2="0" style="fill: none; stroke: grey;"></line><text dy=".32em" x="-9" y="0" style="text-anchor: end; font-size: 11px; font-family: sans-serif;">3</text></g><g class="tick" transform="translate(0,195.63739081080382)" style="opacity: 1;"><line x2="-6" y2="0" style="fill: none; stroke: grey;"></line><text dy=".32em" x="-9" y="0" style="text-anchor: end; font-size: 11px; font-family: sans-serif;">4</text></g><g class="tick" transform="translate(0,169.54673851350478)" style="opacity: 1;"><line x2="-6" y2="0" style="fill: none; stroke: grey;"></line><text dy=".32em" x="-9" y="0" style="text-anchor: end; font-size: 11px; font-family: sans-serif;">5</text></g><g class="tick" transform="translate(0,143.45608621620573)" style="opacity: 1;"><line x2="-6" y2="0" style="fill: none; stroke: grey;"></line><text dy=".32em" x="-9" y="0" style="text-anchor: end; font-size: 11px; font-family: sans-serif;">6</text></g><g class="tick" transform="translate(0,117.3654339189067)" style="opacity: 1;"><line x2="-6" y2="0" style="fill: none; stroke: grey;"></line><text dy=".32em" x="-9" y="0" style="text-anchor: end; font-size: 11px; font-family: sans-serif;">7</text></g><g class="tick" transform="translate(0,91.27478162160767)" style="opacity: 1;"><line x2="-6" y2="0" style="fill: none; stroke: grey;"></line><text dy=".32em" x="-9" y="0" style="text-anchor: end; font-size: 11px; font-family: sans-serif;">8</text></g><g class="tick" transform="translate(0,65.18412932430864)" style="opacity: 1;"><line x2="-6" y2="0" style="fill: none; stroke: grey;"></line><text dy=".32em" x="-9" y="0" style="text-anchor: end; font-size: 11px; font-family: sans-serif;">9</text></g><g class="tick" transform="translate(0,39.09347702700957)" style="opacity: 1;"><line x2="-6" y2="0" style="fill: none; stroke: grey;"></line><text dy=".32em" x="-9" y="0" style="text-anchor: end; font-size: 11px; font-family: sans-serif;">10</text></g><g class="tick" transform="translate(0,13.002824729710538)" style="opacity: 1;"><line x2="-6" y2="0" style="fill: none; stroke: grey;"></line><text dy=".32em" x="-9" y="0" style="text-anchor: end; font-size: 11px; font-family: sans-serif;">11</text></g><path class="domain" d="M-6,0H0V300H-6" style="fill: none; stroke: grey;"></path></g><line x1="0" x2="297.029702970297" y1="300" y2="127.3931684159507" style="stroke: red; stroke-dasharray: 3, 3;"></line><text text-anchor="middle" transform="translate(-35,150)rotate(-90)" style="font-family: sans-serif;">Observed -log10 P-value</text><text text-anchor="middle" transform="translate(150,335)" style="font-family: sans-serif;">Expected -log10 P-value</text></g></svg>