<svg class="plotSVG" width="810" height="175"><g transform="translate(180,60)"><rect class="bar" x="0" width="111.17278237243602" y="1.4516129032258065" height="13.064516129032258" fill="lightgreen"></rect><rect class="bar" x="0" width="140" y="15.96774193548387" height="13.064516129032258" fill="lightgreen"></rect><rect class="bar" x="0" width="21.65646553011077" y="30.483870967741936" height="13.064516129032258" fill="lightgreen"></rect><g class="x axis" transform="translate(0,45)"><g class="tick" transform="translate(0,0)" style="opacity: 1;"><line y2="6" x2="0" style="fill: none; stroke: grey;"></line><text dy=".71em" y="9" x="0" transform="translate(-12,3)rotate(-65)" style="text-anchor: end; font-family: sans-serif; font-size: 11px;">0</text></g><g class="tick" transform="translate(20.899889529155345,0)" style="opacity: 1;"><line y2="6" x2="0" style="fill: none; stroke: grey;"></line><text dy=".71em" y="9" x="0" transform="translate(-12,3)rotate(-65)" style="text-anchor: end; font-family: sans-serif; font-size: 11px;">10</text></g><g class="tick" transform="translate(41.79977905831069,0)" style="opacity: 1;"><line y2="6" x2="0" style="fill: none; stroke: grey;"></line><text dy=".71em" y="9" x="0" transform="translate(-12,3)rotate(-65)" style="text-anchor: end; font-family: sans-serif; font-size: 11px;">20</text></g><g class="tick" transform="translate(62.699668587466036,0)" style="opacity: 1;"><line y2="6" x2="0" style="fill: none; stroke: grey;"></line><text dy=".71em" y="9" x="0" transform="translate(-12,3)rotate(-65)" style="text-anchor: end; font-family: sans-serif; font-size: 11px;">30</text></g><g class="tick" transform="translate(83.59955811662138,0)" style="opacity: 1;"><line y2="6" x2="0" style="fill: none; stroke: grey;"></line><text dy=".71em" y="9" x="0" transform="translate(-12,3)rotate(-65)" style="text-anchor: end; font-family: sans-serif; font-size: 11px;">40</text></g><g class="tick" transform="translate(104.49944764577671,0)" style="opacity: 1;"><line y2="6" x2="0" style="fill: none; stroke: grey;"></line><text dy=".71em" y="9" x="0" transform="translate(-12,3)rotate(-65)" style="text-anchor: end; font-family: sans-serif; font-size: 11px;">50</text></g><g class="tick" transform="translate(125.39933717493207,0)" style="opacity: 1;"><line y2="6" x2="0" style="fill: none; stroke: grey;"></line><text dy=".71em" y="9" x="0" transform="translate(-12,3)rotate(-65)" style="text-anchor: end; font-family: sans-serif; font-size: 11px;">60</text></g><path class="domain" d="M0,6V0H140V6" style="fill: none; stroke: grey;"></path></g><g class="y axis"><g class="tick" transform="translate(0,7.983870967741936)" style="opacity: 1;"><line x2="-6" y2="0" style="fill: none; stroke: grey;"></line><text dy=".32em" x="-9" y="0" style="text-anchor: end; font-family: sans-serif; font-size: 11px;">9:101619466-101672659</text></g><g class="tick" transform="translate(0,22.5)" style="opacity: 1;"><line x2="-6" y2="0" style="fill: none; stroke: grey;"></line><text dy=".32em" x="-9" y="0" style="text-anchor: end; font-family: sans-serif; font-size: 11px;">15:39597014-39664000</text></g><g class="tick" transform="translate(0,37.016129032258064)" style="opacity: 1;"><line x2="-6" y2="0" style="fill: none; stroke: grey;"></line><text dy=".32em" x="-9" y="0" style="text-anchor: end; font-family: sans-serif; font-size: 11px;">20:19961345-19971707</text></g><path class="domain" d="M-6,0H0V45H-6" style="fill: none; stroke: grey;"></path><text transform="rotate(-90)" dy=".71em" style="text-anchor: end; font-family: sans-serif; font-size: 11px;"></text></g><text text-anchor="middle" transform="translate(-50,-5)" style="font-family: sans-serif;">Genomic loci</text><text text-anchor="middle" transform="translate(70,-5)" style="text-anchor: middle; font-family: sans-serif;">Size (kb)</text><text text-anchor="middle" transform="translate(70,95)" style="text-anchor: middle; font-family: sans-serif;">Size (kb)</text><rect class="bar" x="150" width="110" y="1.4516129032258065" height="13.064516129032258" fill="skyblue"></rect><rect class="bar" x="150" width="140" y="15.96774193548387" height="13.064516129032258" fill="skyblue"></rect><rect class="bar" x="150" width="23.333333333333314" y="30.483870967741936" height="13.064516129032258" fill="skyblue"></rect><g class="x axis" transform="translate(0,45)"><g class="tick" transform="translate(150,0)" style="opacity: 1;"><line y2="6" x2="0" style="fill: none; stroke: grey;"></line><text dy=".71em" y="9" x="0" transform="translate(-12,3)rotate(-65)" style="text-anchor: end; font-family: sans-serif; font-size: 11px;">0</text></g><g class="tick" transform="translate(166.66666666666666,0)" style="opacity: 1;"><line y2="6" x2="0" style="fill: none; stroke: grey;"></line><text dy=".71em" y="9" x="0" transform="translate(-12,3)rotate(-65)" style="text-anchor: end; font-family: sans-serif; font-size: 11px;">5</text></g><g class="tick" transform="translate(183.33333333333331,0)" style="opacity: 1;"><line y2="6" x2="0" style="fill: none; stroke: grey;"></line><text dy=".71em" y="9" x="0" transform="translate(-12,3)rotate(-65)" style="text-anchor: end; font-family: sans-serif; font-size: 11px;">10</text></g><g class="tick" transform="translate(200,0)" style="opacity: 1;"><line y2="6" x2="0" style="fill: none; stroke: grey;"></line><text dy=".71em" y="9" x="0" transform="translate(-12,3)rotate(-65)" style="text-anchor: end; font-family: sans-serif; font-size: 11px;">15</text></g><g class="tick" transform="translate(216.66666666666663,0)" style="opacity: 1;"><line y2="6" x2="0" style="fill: none; stroke: grey;"></line><text dy=".71em" y="9" x="0" transform="translate(-12,3)rotate(-65)" style="text-anchor: end; font-family: sans-serif; font-size: 11px;">20</text></g><g class="tick" transform="translate(233.33333333333334,0)" style="opacity: 1;"><line y2="6" x2="0" style="fill: none; stroke: grey;"></line><text dy=".71em" y="9" x="0" transform="translate(-12,3)rotate(-65)" style="text-anchor: end; font-family: sans-serif; font-size: 11px;">25</text></g><g class="tick" transform="translate(250,0)" style="opacity: 1;"><line y2="6" x2="0" style="fill: none; stroke: grey;"></line><text dy=".71em" y="9" x="0" transform="translate(-12,3)rotate(-65)" style="text-anchor: end; font-family: sans-serif; font-size: 11px;">30</text></g><g class="tick" transform="translate(266.6666666666667,0)" style="opacity: 1;"><line y2="6" x2="0" style="fill: none; stroke: grey;"></line><text dy=".71em" y="9" x="0" transform="translate(-12,3)rotate(-65)" style="text-anchor: end; font-family: sans-serif; font-size: 11px;">35</text></g><g class="tick" transform="translate(283.3333333333333,0)" style="opacity: 1;"><line y2="6" x2="0" style="fill: none; stroke: grey;"></line><text dy=".71em" y="9" x="0" transform="translate(-12,3)rotate(-65)" style="text-anchor: end; font-family: sans-serif; font-size: 11px;">40</text></g><path class="domain" d="M150,6V0H290V6" style="fill: none; stroke: grey;"></path></g><g class="y axis" transform="translate(150,0)"><g class="tick" transform="translate(0,7.983870967741936)" style="opacity: 1;"><line x2="-6" y2="0" style="fill: none; stroke: grey;"></line></g><g class="tick" transform="translate(0,22.5)" style="opacity: 1;"><line x2="-6" y2="0" style="fill: none; stroke: grey;"></line></g><g class="tick" transform="translate(0,37.016129032258064)" style="opacity: 1;"><line x2="-6" y2="0" style="fill: none; stroke: grey;"></line></g><path class="domain" d="M-6,0H0V45H-6" style="fill: none; stroke: grey;"></path></g><text text-anchor="middle" transform="translate(220,-5)" style="text-anchor: middle; font-family: sans-serif;">#SNPs</text><text text-anchor="middle" transform="translate(220,95)" style="text-anchor: middle; font-family: sans-serif;">#SNPs</text><rect class="bar" x="300" width="140" y="1.4516129032258065" height="13.064516129032258" fill="orange"></rect><rect class="bar" x="300" width="0" y="15.96774193548387" height="13.064516129032258" fill="orange"></rect><rect class="bar" x="300" width="140" y="30.483870967741936" height="13.064516129032258" fill="orange"></rect><g class="x axis" transform="translate(0,45)"><g class="tick" transform="translate(300,0)" style="opacity: 1;"><line y2="6" x2="0" style="fill: none; stroke: grey;"></line><text dy=".71em" y="9" x="0" transform="translate(-12,3)rotate(-65)" style="text-anchor: end; font-family: sans-serif; font-size: 11px;">0.0</text></g><g class="tick" transform="translate(314,0)" style="opacity: 1;"><line y2="6" x2="0" style="fill: none; stroke: grey;"></line><text dy=".71em" y="9" x="0" transform="translate(-12,3)rotate(-65)" style="text-anchor: end; font-family: sans-serif; font-size: 11px;">0.1</text></g><g class="tick" transform="translate(328,0)" style="opacity: 1;"><line y2="6" x2="0" style="fill: none; stroke: grey;"></line><text dy=".71em" y="9" x="0" transform="translate(-12,3)rotate(-65)" style="text-anchor: end; font-family: sans-serif; font-size: 11px;">0.2</text></g><g class="tick" transform="translate(342,0)" style="opacity: 1;"><line y2="6" x2="0" style="fill: none; stroke: grey;"></line><text dy=".71em" y="9" x="0" transform="translate(-12,3)rotate(-65)" style="text-anchor: end; font-family: sans-serif; font-size: 11px;">0.3</text></g><g class="tick" transform="translate(356,0)" style="opacity: 1;"><line y2="6" x2="0" style="fill: none; stroke: grey;"></line><text dy=".71em" y="9" x="0" transform="translate(-12,3)rotate(-65)" style="text-anchor: end; font-family: sans-serif; font-size: 11px;">0.4</text></g><g class="tick" transform="translate(370,0)" style="opacity: 1;"><line y2="6" x2="0" style="fill: none; stroke: grey;"></line><text dy=".71em" y="9" x="0" transform="translate(-12,3)rotate(-65)" style="text-anchor: end; font-family: sans-serif; font-size: 11px;">0.5</text></g><g class="tick" transform="translate(384,0)" style="opacity: 1;"><line y2="6" x2="0" style="fill: none; stroke: grey;"></line><text dy=".71em" y="9" x="0" transform="translate(-12,3)rotate(-65)" style="text-anchor: end; font-family: sans-serif; font-size: 11px;">0.6</text></g><g class="tick" transform="translate(398,0)" style="opacity: 1;"><line y2="6" x2="0" style="fill: none; stroke: grey;"></line><text dy=".71em" y="9" x="0" transform="translate(-12,3)rotate(-65)" style="text-anchor: end; font-family: sans-serif; font-size: 11px;">0.7</text></g><g class="tick" transform="translate(412,0)" style="opacity: 1;"><line y2="6" x2="0" style="fill: none; stroke: grey;"></line><text dy=".71em" y="9" x="0" transform="translate(-12,3)rotate(-65)" style="text-anchor: end; font-family: sans-serif; font-size: 11px;">0.8</text></g><g class="tick" transform="translate(426,0)" style="opacity: 1;"><line y2="6" x2="0" style="fill: none; stroke: grey;"></line><text dy=".71em" y="9" x="0" transform="translate(-12,3)rotate(-65)" style="text-anchor: end; font-family: sans-serif; font-size: 11px;">0.9</text></g><g class="tick" transform="translate(440,0)" style="opacity: 1;"><line y2="6" x2="0" style="fill: none; stroke: grey;"></line><text dy=".71em" y="9" x="0" transform="translate(-12,3)rotate(-65)" style="text-anchor: end; font-family: sans-serif; font-size: 11px;">1.0</text></g><path class="domain" d="M300,6V0H440V6" style="fill: none; stroke: grey;"></path></g><g class="y axis" transform="translate(300,0)"><g class="tick" transform="translate(0,7.983870967741936)" style="opacity: 1;"><line x2="-6" y2="0" style="fill: none; stroke: grey;"></line></g><g class="tick" transform="translate(0,22.5)" style="opacity: 1;"><line x2="-6" y2="0" style="fill: none; stroke: grey;"></line></g><g class="tick" transform="translate(0,37.016129032258064)" style="opacity: 1;"><line x2="-6" y2="0" style="fill: none; stroke: grey;"></line></g><path class="domain" d="M-6,0H0V45H-6" style="fill: none; stroke: grey;"></path></g><text text-anchor="middle" transform="translate(370,-5)" style="text-anchor: middle; font-family: sans-serif;">#mapped genes</text><text text-anchor="middle" transform="translate(370,95)" style="text-anchor: middle; font-family: sans-serif;">#mapped genes</text><rect class="bar" x="450" width="0" y="1.4516129032258065" height="13.064516129032258" fill="pink"></rect><rect class="bar" x="450" width="0" y="15.96774193548387" height="13.064516129032258" fill="pink"></rect><rect class="bar" x="450" width="140" y="30.483870967741936" height="13.064516129032258" fill="pink"></rect><g class="x axis" transform="translate(0,45)"><g class="tick" transform="translate(450,0)" style="opacity: 1;"><line y2="6" x2="0" style="fill: none; stroke: grey;"></line><text dy=".71em" y="9" x="0" transform="translate(-12,3)rotate(-65)" style="text-anchor: end; font-family: sans-serif; font-size: 11px;">0.0</text></g><g class="tick" transform="translate(464,0)" style="opacity: 1;"><line y2="6" x2="0" style="fill: none; stroke: grey;"></line><text dy=".71em" y="9" x="0" transform="translate(-12,3)rotate(-65)" style="text-anchor: end; font-family: sans-serif; font-size: 11px;">0.1</text></g><g class="tick" transform="translate(478,0)" style="opacity: 1;"><line y2="6" x2="0" style="fill: none; stroke: grey;"></line><text dy=".71em" y="9" x="0" transform="translate(-12,3)rotate(-65)" style="text-anchor: end; font-family: sans-serif; font-size: 11px;">0.2</text></g><g class="tick" transform="translate(492,0)" style="opacity: 1;"><line y2="6" x2="0" style="fill: none; stroke: grey;"></line><text dy=".71em" y="9" x="0" transform="translate(-12,3)rotate(-65)" style="text-anchor: end; font-family: sans-serif; font-size: 11px;">0.3</text></g><g class="tick" transform="translate(506,0)" style="opacity: 1;"><line y2="6" x2="0" style="fill: none; stroke: grey;"></line><text dy=".71em" y="9" x="0" transform="translate(-12,3)rotate(-65)" style="text-anchor: end; font-family: sans-serif; font-size: 11px;">0.4</text></g><g class="tick" transform="translate(520,0)" style="opacity: 1;"><line y2="6" x2="0" style="fill: none; stroke: grey;"></line><text dy=".71em" y="9" x="0" transform="translate(-12,3)rotate(-65)" style="text-anchor: end; font-family: sans-serif; font-size: 11px;">0.5</text></g><g class="tick" transform="translate(534,0)" style="opacity: 1;"><line y2="6" x2="0" style="fill: none; stroke: grey;"></line><text dy=".71em" y="9" x="0" transform="translate(-12,3)rotate(-65)" style="text-anchor: end; font-family: sans-serif; font-size: 11px;">0.6</text></g><g class="tick" transform="translate(548,0)" style="opacity: 1;"><line y2="6" x2="0" style="fill: none; stroke: grey;"></line><text dy=".71em" y="9" x="0" transform="translate(-12,3)rotate(-65)" style="text-anchor: end; font-family: sans-serif; font-size: 11px;">0.7</text></g><g class="tick" transform="translate(562,0)" style="opacity: 1;"><line y2="6" x2="0" style="fill: none; stroke: grey;"></line><text dy=".71em" y="9" x="0" transform="translate(-12,3)rotate(-65)" style="text-anchor: end; font-family: sans-serif; font-size: 11px;">0.8</text></g><g class="tick" transform="translate(576,0)" style="opacity: 1;"><line y2="6" x2="0" style="fill: none; stroke: grey;"></line><text dy=".71em" y="9" x="0" transform="translate(-12,3)rotate(-65)" style="text-anchor: end; font-family: sans-serif; font-size: 11px;">0.9</text></g><g class="tick" transform="translate(590,0)" style="opacity: 1;"><line y2="6" x2="0" style="fill: none; stroke: grey;"></line><text dy=".71em" y="9" x="0" transform="translate(-12,3)rotate(-65)" style="text-anchor: end; font-family: sans-serif; font-size: 11px;">1.0</text></g><path class="domain" d="M450,6V0H590V6" style="fill: none; stroke: grey;"></path></g><g class="y axis" transform="translate(450,0)"><g class="tick" transform="translate(0,7.983870967741936)" style="opacity: 1;"><line x2="-6" y2="0" style="fill: none; stroke: grey;"></line></g><g class="tick" transform="translate(0,22.5)" style="opacity: 1;"><line x2="-6" y2="0" style="fill: none; stroke: grey;"></line></g><g class="tick" transform="translate(0,37.016129032258064)" style="opacity: 1;"><line x2="-6" y2="0" style="fill: none; stroke: grey;"></line></g><path class="domain" d="M-6,0H0V45H-6" style="fill: none; stroke: grey;"></path></g><text text-anchor="middle" transform="translate(520,-20)" style="text-anchor: middle; font-family: sans-serif;">#genes physically</text><text text-anchor="middle" transform="translate(520,-5)" style="text-anchor: middle; font-family: sans-serif;">located in loci</text><text text-anchor="middle" transform="translate(520,95)" style="text-anchor: middle; font-family: sans-serif;">#genes physically</text><text text-anchor="middle" transform="translate(520,110)" style="text-anchor: middle; font-family: sans-serif;">located in loci</text></g></svg>