<svg width="380" height="380"><g transform="translate(50,30)"><circle r="2" cx="0.4397650858808133" cy="299.92167001060517" fill="grey"></circle><circle r="2" cx="0.8887065851261723" cy="299.8096894088028" fill="grey"></circle><circle r="2" cx="1.0329689538642193" cy="299.7732040261523" fill="grey"></circle><circle r="2" cx="1.0126825310466683" cy="299.7784074066828" fill="grey"></circle><circle r="2" cx="2.752954550261467" cy="299.3358217047364" fill="grey"></circle><circle r="2" cx="1.9871698597672984" cy="299.5310823201772" fill="grey"></circle><circle r="2" cx="3.811636767741822" cy="299.0660487377674" fill="grey"></circle><circle r="2" cx="3.083970062378763" cy="299.2515705487283" fill="grey"></circle><circle r="2" cx="4.082551825365828" cy="298.9962716671116" fill="grey"></circle><circle r="2" cx="4.832679562965006" cy="298.8033062074159" fill="grey"></circle><circle r="2" cx="5.03682651449829" cy="298.75017560466205" fill="grey"></circle><circle r="2" cx="5.440322874442919" cy="298.6454386982126" fill="grey"></circle><circle r="2" cx="6.735533179285567" cy="298.31068069222545" fill="grey"></circle><circle r="2" cx="6.870865389352764" cy="298.2758942259008" fill="grey"></circle><circle r="2" cx="7.203773599986777" cy="298.1906187414475" fill="grey"></circle><circle r="2" cx="7.01812889370363" cy="298.2378989768149" fill="grey"></circle><circle r="2" cx="8.607245019389794" cy="297.8300900276399" fill="grey"></circle><circle r="2" cx="8.569043252486747" cy="297.83993417300223" fill="grey"></circle><circle r="2" cx="9.549603014066484" cy="297.58858700798" fill="grey"></circle><circle r="2" cx="9.014258934557756" cy="297.72541266652826" fill="grey"></circle><circle r="2" cx="10.423840303371806" cy="297.36381233525594" fill="grey"></circle><circle r="2" cx="10.250686894948512" cy="297.40854119719495" fill="grey"></circle><circle r="2" cx="11.215051276064187" cy="297.16191997254225" fill="grey"></circle><circle r="2" cx="11.765978351437566" cy="297.02158868544393" fill="grey"></circle><circle r="2" cx="12.548457311375454" cy="296.8223832549133" fill="grey"></circle><circle r="2" cx="12.67329502221888" cy="296.7905518622589" fill="grey"></circle><circle r="2" cx="13.558895381405547" cy="296.5636992450375" fill="grey"></circle><circle r="2" cx="13.725068076573692" cy="296.52122568551505" fill="grey"></circle><circle r="2" cx="14.695309144882891" cy="296.27225035660064" fill="grey"></circle><circle r="2" cx="13.865931612220164" cy="296.48512845100043" fill="grey"></circle><circle r="2" cx="15.833590811282598" cy="295.98139395310284" fill="grey"></circle><circle r="2" cx="15.649543272040596" cy="296.0284420960494" fill="grey"></circle><circle r="2" cx="16.76026070078729" cy="295.74452943800435" fill="grey"></circle><circle r="2" cx="15.998797827934979" cy="295.9399919097917" fill="grey"></circle><circle r="2" cx="17.717662857429758" cy="295.4991334320549" fill="grey"></circle><circle r="2" cx="17.753111923451964" cy="295.48994068386867" fill="grey"></circle><circle r="2" cx="17.93834341875404" cy="295.4420226508513" fill="grey"></circle><circle r="2" cx="18.455111690959583" cy="295.3080617402619" fill="grey"></circle><circle r="2" cx="18.893577518224255" cy="295.19644170538" fill="grey"></circle><circle r="2" cx="18.8945214282968" cy="295.1960766400557" fill="grey"></circle><circle r="2" cx="20.278244347857346" cy="294.84194943457294" fill="grey"></circle><circle r="2" cx="19.938301899976942" cy="294.92883397934224" fill="grey"></circle><circle r="2" cx="21.035300996683937" cy="294.6460486533635" fill="grey"></circle><circle r="2" cx="21.37400307177909" cy="294.55836441974367" fill="grey"></circle><circle r="2" cx="22.504665318406296" cy="294.2683986053442" fill="grey"></circle><circle r="2" cx="22.54208681790501" cy="294.2590331392846" fill="grey"></circle><circle r="2" cx="23.52111411802019" cy="294.00698322903963" fill="grey"></circle><circle r="2" cx="23.221041653644566" cy="294.0827083131059" fill="grey"></circle><circle r="2" cx="24.629482120153053" cy="293.724325807748" fill="grey"></circle><circle r="2" cx="23.886299206496773" cy="293.9130242442913" fill="grey"></circle><circle r="2" cx="25.119633294901217" cy="293.5980073013669" fill="grey"></circle><circle r="2" cx="25.11210283929496" cy="293.6001749898029" fill="grey"></circle><circle r="2" cx="26.120893171423695" cy="293.339331508371" fill="grey"></circle><circle r="2" cx="25.7550025450637" cy="293.4338267779562" fill="grey"></circle><circle r="2" cx="26.864700197710416" cy="293.1476188582038" fill="grey"></circle><circle r="2" cx="27.400489568932322" cy="293.01037384921574" fill="grey"></circle><circle r="2" cx="28.161902415126537" cy="292.8143911379866" fill="grey"></circle><circle r="2" cx="27.8141442059229" cy="292.90426817579726" fill="grey"></circle><circle r="2" cx="28.83791027283971" cy="292.6435365352915" fill="grey"></circle><circle r="2" cx="29.423239792117723" cy="292.49180211132335" fill="grey"></circle><circle r="2" cx="30.45319533370268" cy="292.22964459631316" fill="grey"></circle><circle r="2" cx="30.031929050441313" cy="292.33596516710134" fill="grey"></circle><circle r="2" cx="31.431708857850357" cy="291.9807284433548" fill="grey"></circle><circle r="2" cx="30.95939758395342" cy="292.1001201702827" fill="grey"></circle><circle r="2" cx="31.799590358321645" cy="291.888074858623" fill="grey"></circle><circle r="2" cx="32.06314487131575" cy="291.8206839261881" fill="grey"></circle><circle r="2" cx="33.04033314119439" cy="291.5748673956511" fill="grey"></circle><circle r="2" cx="32.70798026601504" cy="291.6584130437277" fill="grey"></circle><circle r="2" cx="33.98556336826765" cy="291.33228132268346" fill="grey"></circle><circle r="2" cx="34.516805945250844" cy="291.1958988143489" fill="grey"></circle><circle r="2" cx="34.929099493556" cy="291.0911751627823" fill="grey"></circle><circle r="2" cx="35.218192058518675" cy="291.01715980115887" fill="grey"></circle><circle r="2" cx="35.70041645085499" cy="290.8939563807429" fill="grey"></circle><circle r="2" cx="36.226246488323646" cy="290.7618934986815" fill="grey"></circle><circle r="2" cx="36.89581033290393" cy="290.58976830935114" fill="grey"></circle><circle r="2" cx="37.391461839871425" cy="290.4618586575642" fill="grey"></circle><circle r="2" cx="38.56970039187027" cy="290.16112144917736" fill="grey"></circle><circle r="2" cx="37.82493506933448" cy="290.3520374228665" fill="grey"></circle><circle r="2" cx="38.68988640297419" cy="290.1303888799846" fill="grey"></circle><circle r="2" cx="39.261464362608564" cy="289.98428526553465" fill="grey"></circle><circle r="2" cx="40.152422243185796" cy="289.75377999965303" fill="grey"></circle><circle r="2" cx="39.72937306291465" cy="289.86380963684536" fill="grey"></circle><circle r="2" cx="40.642478753466044" cy="289.6290335146272" fill="grey"></circle><circle r="2" cx="40.973516210443535" cy="289.54317045206267" fill="grey"></circle><circle r="2" cx="42.39642377410303" cy="289.1741344611336" fill="grey"></circle><circle r="2" cx="41.83159493697136" cy="289.3206034115379" fill="grey"></circle><circle r="2" cx="42.69282775776649" cy="289.09674989089103" fill="grey"></circle><circle r="2" cx="42.60175574793405" cy="289.12161640660906" fill="grey"></circle><circle r="2" cx="43.64879187165086" cy="288.8523518639529" fill="grey"></circle><circle r="2" cx="44.3861670575576" cy="288.66367208733215" fill="grey"></circle><circle r="2" cx="44.905375074272875" cy="288.5322304969765" fill="grey"></circle><circle r="2" cx="44.855118220478715" cy="288.5446986997005" fill="grey"></circle><circle r="2" cx="46.283513904252274" cy="288.17791440262613" fill="grey"></circle><circle r="2" cx="46.14287400439599" cy="288.214071817206" fill="grey"></circle><circle r="2" cx="47.05813266572267" cy="287.9780083782259" fill="grey"></circle><circle r="2" cx="46.662395705119366" cy="288.0793896406681" fill="grey"></circle><circle r="2" cx="48.34467964771143" cy="287.64288475359365" fill="grey"></circle><circle r="2" cx="47.76345977312527" cy="287.7929459900226" fill="grey"></circle><circle r="2" cx="48.96526296057036" cy="287.48320066615935" fill="grey"></circle><circle r="2" cx="49.45523980375454" cy="287.35681640623903" fill="grey"></circle><circle r="2" cx="50.06965248889194" cy="287.20093176563654" fill="grey"></circle><circle r="2" cx="50.284376824214384" cy="287.1468615321406" fill="grey"></circle><circle r="2" cx="51.460500317721014" cy="286.8410781254907" fill="grey"></circle><circle r="2" cx="50.5843476832119" cy="287.0680773655495" fill="grey"></circle><circle r="2" cx="52.3503782521029" cy="286.61146787129115" fill="grey"></circle><circle r="2" cx="51.73068712467427" cy="286.770941752797" fill="grey"></circle><circle r="2" cx="53.29397955232421" cy="286.3675455634639" fill="grey"></circle><circle r="2" cx="52.598953629449625" cy="286.54521994920225" fill="grey"></circle><circle r="2" cx="54.424234998678344" cy="286.076925453335" fill="grey"></circle><circle r="2" cx="53.74760862215622" cy="286.2525769683132" fill="grey"></circle><circle r="2" cx="54.61054376672906" cy="286.028414172808" fill="grey"></circle><circle r="2" cx="54.544129705143476" cy="286.0461201459528" fill="grey"></circle><circle r="2" cx="56.31076837501665" cy="285.5846789311796" fill="grey"></circle><circle r="2" cx="55.95122770411953" cy="285.67782899020204" fill="grey"></circle><circle r="2" cx="56.4660811289711" cy="285.54466492780085" fill="grey"></circle><circle r="2" cx="56.449671773874734" cy="285.54867403014606" fill="grey"></circle><circle r="2" cx="58.19244419563678" cy="285.09618654556846" fill="grey"></circle><circle r="2" cx="57.54798830015062" cy="285.26439571160813" fill="grey"></circle><circle r="2" cx="58.98370548853692" cy="284.8847720498704" fill="grey"></circle><circle r="2" cx="59.0862574466914" cy="284.857472166265" fill="grey"></circle><circle r="2" cx="60.353873657521184" cy="284.5238918008513" fill="grey"></circle><circle r="2" cx="60.31812285970016" cy="284.533551012234" fill="grey"></circle><circle r="2" cx="61.23548383550646" cy="284.28979221582" fill="grey"></circle><circle r="2" cx="61.3100722098409" cy="284.27032359302416" fill="grey"></circle><circle r="2" cx="62.150412595844564" cy="284.0434954150273" fill="grey"></circle><circle r="2" cx="61.488523188128696" cy="284.22160091991157" fill="grey"></circle><circle r="2" cx="63.15922031179343" cy="283.78545714313873" fill="grey"></circle><circle r="2" cx="62.73215395317593" cy="283.89397520483556" fill="grey"></circle><circle r="2" cx="63.43263671683829" cy="283.7133817859219" fill="grey"></circle><circle r="2" cx="63.66656085246681" cy="283.64895049409876" fill="grey"></circle><circle r="2" cx="64.72293237320288" cy="283.37071690447306" fill="grey"></circle><circle r="2" cx="64.42927973610729" cy="283.4456551097856" fill="grey"></circle><circle r="2" cx="65.70085363656248" cy="283.11686181126015" fill="grey"></circle><circle r="2" cx="65.67266628552348" cy="283.1240601693776" fill="grey"></circle><circle r="2" cx="66.37950478280253" cy="282.93502016669817" fill="grey"></circle><circle r="2" cx="66.66333542713222" cy="282.8626061090152" fill="grey"></circle><circle r="2" cx="68.21077279340265" cy="282.45217921881715" fill="grey"></circle><circle r="2" cx="67.59614761681702" cy="282.61675505454167" fill="grey"></circle><circle r="2" cx="68.85414515413648" cy="282.27801939356584" fill="grey"></circle><circle r="2" cx="68.8915083467859" cy="282.26844358352525" fill="grey"></circle><circle r="2" cx="69.58707002021109" cy="282.08528039233187" fill="grey"></circle><circle r="2" cx="69.88433587390908" cy="282.0067109347286" fill="grey"></circle><circle r="2" cx="71.08039253570065" cy="281.68335757487716" fill="grey"></circle><circle r="2" cx="70.77020568933021" cy="281.764082647171" fill="grey"></circle><circle r="2" cx="71.91731581888472" cy="281.4635187656817" fill="grey"></circle><circle r="2" cx="72.05106657193251" cy="281.4288935738594" fill="grey"></circle><circle r="2" cx="72.3700302387958" cy="281.34445945788036" fill="grey"></circle><circle r="2" cx="73.18935488201326" cy="281.1272723375549" fill="grey"></circle><circle r="2" cx="73.36454257848625" cy="281.0809544564882" fill="grey"></circle><circle r="2" cx="73.36928839014546" cy="281.08019544121146" fill="grey"></circle><circle r="2" cx="74.56453607001909" cy="280.7621538009283" fill="grey"></circle><circle r="2" cx="75.12639814620216" cy="280.6056538012437" fill="grey"></circle><circle r="2" cx="75.81099289168085" cy="280.4192435034805" fill="grey"></circle><circle r="2" cx="75.41150445626857" cy="280.52796152088774" fill="grey"></circle><circle r="2" cx="76.28734222579536" cy="280.28702622967404" fill="grey"></circle><circle r="2" cx="77.15896424539899" cy="280.0509476427245" fill="grey"></circle><circle r="2" cx="77.5216041728679" cy="279.9527074155008" fill="grey"></circle><circle r="2" cx="78.19106101465134" cy="279.7751596807576" fill="grey"></circle><circle r="2" cx="79.07192784926441" cy="279.5378251483252" fill="grey"></circle><circle r="2" cx="78.55041886944825" cy="279.6770785993234" fill="grey"></circle><circle r="2" cx="79.2152131838536" cy="279.5007824212156" fill="grey"></circle><circle r="2" cx="80.10762458096198" cy="279.26038977573387" fill="grey"></circle><circle r="2" cx="80.8075925212652" cy="279.07525593522104" fill="grey"></circle><circle r="2" cx="80.97889795448883" cy="279.0290558123452" fill="grey"></circle><circle r="2" cx="81.81821939608662" cy="278.8085626487437" fill="grey"></circle><circle r="2" cx="81.60902133353818" cy="278.8645914236623" fill="grey"></circle><circle r="2" cx="82.57364083640383" cy="278.60792106464595" fill="grey"></circle><circle r="2" cx="82.42938898577147" cy="278.6465200502382" fill="grey"></circle><circle r="2" cx="83.57827243163256" cy="278.3409504640136" fill="grey"></circle><circle r="2" cx="83.78639396342822" cy="278.2867280040713" fill="grey"></circle><circle r="2" cx="84.41019458810081" cy="278.120423462116" fill="grey"></circle><circle r="2" cx="84.98191989444902" cy="277.9788095281561" fill="grey"></circle><circle r="2" cx="85.87454570844366" cy="277.73451627884714" fill="grey"></circle><circle r="2" cx="85.54450134900917" cy="277.8261675581551" fill="grey"></circle><circle r="2" cx="87.0178495552884" cy="277.4280276111313" fill="grey"></circle><circle r="2" cx="86.83298892483717" cy="277.4774489497534" fill="grey"></circle><circle r="2" cx="87.58947577180224" cy="277.27943824758046" fill="grey"></circle><circle r="2" cx="87.74406638822829" cy="277.23890962644293" fill="grey"></circle><circle r="2" cx="88.28577061442536" cy="277.1005522318383" fill="grey"></circle><circle r="2" cx="88.30771167848349" cy="277.09475307509666" fill="grey"></circle><circle r="2" cx="89.84458687205978" cy="276.70745922310863" fill="grey"></circle><circle r="2" cx="89.52477080781449" cy="276.7868101231018" fill="grey"></circle><circle r="2" cx="90.2360977703613" cy="276.6145649451881" fill="grey"></circle><circle r="2" cx="90.90372170552804" cy="276.4535032939944" fill="grey"></circle><circle r="2" cx="91.83945029844105" cy="276.22110996036935" fill="grey"></circle><circle r="2" cx="91.80925008524619" cy="276.22700742016076" fill="grey"></circle><circle r="2" cx="92.13294255027344" cy="276.1468044271939" fill="grey"></circle><circle r="2" cx="92.21192404591788" cy="276.1282062894915" fill="grey"></circle><circle r="2" cx="93.57097542003144" cy="275.7940975261971" fill="grey"></circle><circle r="2" cx="93.38393513136339" cy="275.83065937691003" fill="grey"></circle><circle r="2" cx="95.0470051952019" cy="275.41938540873065" fill="grey"></circle><circle r="2" cx="94.30240871419649" cy="275.60151152239445" fill="grey"></circle><circle r="2" cx="95.86470205848411" cy="275.22289525380705" fill="grey"></circle><circle r="2" cx="95.40536269138715" cy="275.3336637214031" fill="grey"></circle><circle r="2" cx="96.19420654322423" cy="275.12739281973046" fill="grey"></circle><circle r="2" cx="96.80105722644338" cy="274.9730544697804" fill="grey"></circle><circle r="2" cx="97.43331579914876" cy="274.81657566847963" fill="grey"></circle><circle r="2" cx="97.04456069983911" cy="274.9134573164388" fill="grey"></circle><circle r="2" cx="98.48941784426586" cy="274.5405857200109" fill="grey"></circle><circle r="2" cx="98.19442039842005" cy="274.6144870224772" fill="grey"></circle><circle r="2" cx="99.79716652255951" cy="274.18979135388423" fill="grey"></circle><circle r="2" cx="99.60216935160187" cy="274.2431474450657" fill="grey"></circle><circle r="2" cx="100.49585121562967" cy="274.0048138794864" fill="grey"></circle><circle r="2" cx="100.78109161892581" cy="273.9318915176619" fill="grey"></circle><circle r="2" cx="101.657577752224" cy="273.7019910204999" fill="grey"></circle><circle r="2" cx="101.43846340339483" cy="273.756680340328" fill="grey"></circle><circle r="2" cx="102.70551003232342" cy="273.41801545794743" fill="grey"></circle><circle r="2" cx="102.88286949186475" cy="273.36657420191324" fill="grey"></circle><circle r="2" cx="103.60604428663305" cy="273.17545863436726" fill="grey"></circle><circle r="2" cx="103.36309013563562" cy="273.23952587387214" fill="grey"></circle><circle r="2" cx="104.39774936136372" cy="272.96498823992357" fill="grey"></circle><circle r="2" cx="104.25976605130661" cy="272.9989339730961" fill="grey"></circle><circle r="2" cx="105.40087854685842" cy="272.68476201478074" fill="grey"></circle><circle r="2" cx="105.24111660908478" cy="272.7296144343061" fill="grey"></circle><circle r="2" cx="106.21504176559641" cy="272.4573102709529" fill="grey"></circle><circle r="2" cx="106.83050984384754" cy="272.2968094744012" fill="grey"></circle><circle r="2" cx="107.77818586721101" cy="272.03351391199146" fill="grey"></circle><circle r="2" cx="107.50443244410174" cy="272.10690258721337" fill="grey"></circle><circle r="2" cx="108.63872336714932" cy="271.81282331027313" fill="grey"></circle><circle r="2" cx="108.75816673406948" cy="271.7809751552032" fill="grey"></circle><circle r="2" cx="109.06600825468153" cy="271.70538588148264" fill="grey"></circle><circle r="2" cx="109.8162492167148" cy="271.50277937256135" fill="grey"></circle><circle r="2" cx="110.3949692750543" cy="271.34353276714273" fill="grey"></circle><circle r="2" cx="110.33026039861517" cy="271.36094237039566" fill="grey"></circle><circle r="2" cx="111.79292543024398" cy="270.9594312421891" fill="grey"></circle><circle r="2" cx="111.51563445786853" cy="271.03494297436725" fill="grey"></circle><circle r="2" cx="112.17086533204659" cy="270.8570657871628" fill="grey"></circle><circle r="2" cx="112.80758790156584" cy="270.678697171771" fill="grey"></circle><circle r="2" cx="113.76369609964371" cy="270.4172288528991" fill="grey"></circle><circle r="2" cx="113.34840304654617" cy="270.53510065651216" fill="grey"></circle><circle r="2" cx="114.16835641191335" cy="270.3065964060316" fill="grey"></circle><circle r="2" cx="114.4414898740422" cy="270.23305346268927" fill="grey"></circle><circle r="2" cx="115.62072883351779" cy="269.9222081335764" fill="grey"></circle><circle r="2" cx="115.28463919367856" cy="270.00449686948826" fill="grey"></circle><circle r="2" cx="116.59922165043433" cy="269.65506089593833" fill="grey"></circle><circle r="2" cx="116.23869005157832" cy="269.7535977232723" fill="grey"></circle><circle r="2" cx="117.76202702462759" cy="269.36615971729276" fill="grey"></circle><circle r="2" cx="117.06422624043111" cy="269.534748594768" fill="grey"></circle><circle r="2" cx="117.87369201993356" cy="269.33503780301" fill="grey"></circle><circle r="2" cx="117.86378431443848" cy="269.33881561233756" fill="grey"></circle><circle r="2" cx="119.04699988946003" cy="269.02685140769205" fill="grey"></circle><circle r="2" cx="119.41461861915333" cy="268.92539770441476" fill="grey"></circle><circle r="2" cx="120.7232168652293" cy="268.5697293888452" fill="grey"></circle><circle r="2" cx="119.83857050436045" cy="268.8133739247731" fill="grey"></circle><circle r="2" cx="121.29236181314988" cy="268.4103543633845" fill="grey"></circle><circle r="2" cx="121.40607454836676" cy="268.37787099715524" fill="grey"></circle><circle r="2" cx="122.45423052074963" cy="268.0685227895558" fill="grey"></circle><circle r="2" cx="122.19025980402185" cy="268.1529272357406" fill="grey"></circle><circle r="2" cx="122.95195033369329" cy="267.9340523287171" fill="grey"></circle><circle r="2" cx="123.01506872652854" cy="267.91385249557953" fill="grey"></circle><circle r="2" cx="124.53601538246669" cy="267.5050009049037" fill="grey"></circle><circle r="2" cx="124.05515920145575" cy="267.62767970904605" fill="grey"></circle><circle r="2" cx="124.93626375744105" cy="267.3917897902596" fill="grey"></circle><circle r="2" cx="125.30568499327882" cy="267.27260754917677" fill="grey"></circle><circle r="2" cx="126.0571733290905" cy="267.0434281991629" fill="grey"></circle><circle r="2" cx="125.82628360257338" cy="267.1153501154526" fill="grey"></circle><circle r="2" cx="127.00276733202833" cy="266.77745796227725" fill="grey"></circle><circle r="2" cx="127.37680003591234" cy="266.6592680500707" fill="grey"></circle><circle r="2" cx="128.01326232040262" cy="266.45670241995634" fill="grey"></circle><circle r="2" cx="128.6212629558899" cy="266.28112802164856" fill="grey"></circle><circle r="2" cx="129.3004350078271" cy="266.10024945666515" fill="grey"></circle><circle r="2" cx="128.74725063493082" cy="266.24183747276317" fill="grey"></circle><circle r="2" cx="130.14686000324787" cy="265.854819853846" fill="grey"></circle><circle r="2" cx="130.5434072748643" cy="265.7402327659917" fill="grey"></circle><circle r="2" cx="131.31212484025806" cy="265.4917352821074" fill="grey"></circle><circle r="2" cx="131.09021651123876" cy="265.5630986845337" fill="grey"></circle><circle r="2" cx="131.8000868541178" cy="265.3538060261502" fill="grey"></circle><circle r="2" cx="131.96277142373893" cy="265.3110835741733" fill="grey"></circle><circle r="2" cx="133.0762836334533" cy="264.97056410801997" fill="grey"></circle><circle r="2" cx="132.75675710868992" cy="265.06928530352576" fill="grey"></circle><circle r="2" cx="133.76282736509643" cy="264.7727902582136" fill="grey"></circle><circle r="2" cx="133.69798461395195" cy="264.80376590715935" fill="grey"></circle><circle r="2" cx="135.39483337476776" cy="264.3336402353047" fill="grey"></circle><circle r="2" cx="135.42164037116422" cy="264.3276100544702" fill="grey"></circle><circle r="2" cx="136.0360158043931" cy="264.1525119359315" fill="grey"></circle><circle r="2" cx="136.3839021246866" cy="264.04467028170484" fill="grey"></circle><circle r="2" cx="136.67039275962992" cy="263.9659713080536" fill="grey"></circle><circle r="2" cx="137.57781662830956" cy="263.6838811273851" fill="grey"></circle><circle r="2" cx="138.2343393987111" cy="263.4953207180722" fill="grey"></circle><circle r="2" cx="138.4382502052993" cy="263.43948765799803" fill="grey"></circle><circle r="2" cx="138.86713277517748" cy="263.3124608790536" fill="grey"></circle><circle r="2" cx="139.11019845081202" cy="263.27889701847545" fill="grey"></circle><circle r="2" cx="139.7360308483047" cy="263.10374396512725" fill="grey"></circle><circle r="2" cx="139.97792408070623" cy="263.02522640944113" fill="grey"></circle><circle r="2" cx="141.08074435504963" cy="262.67256181916053" fill="grey"></circle><circle r="2" cx="141.57604714423564" cy="262.5423962783488" fill="grey"></circle><circle r="2" cx="142.55679859239194" cy="262.21874274697205" fill="grey"></circle><circle r="2" cx="142.1427113584318" cy="262.37198546907655" fill="grey"></circle><circle r="2" cx="142.669667481846" cy="262.1950850797546" fill="grey"></circle><circle r="2" cx="143.3206888248484" cy="261.98895305780496" fill="grey"></circle><circle r="2" cx="143.92618054010111" cy="261.7813220685555" fill="grey"></circle><circle r="2" cx="144.18827104438515" cy="261.7006270781379" fill="grey"></circle><circle r="2" cx="145.10830816456152" cy="261.3470312142129" fill="grey"></circle><circle r="2" cx="145.23298332037814" cy="261.3096241124568" fill="grey"></circle><circle r="2" cx="146.21770066965271" cy="260.98586898832997" fill="grey"></circle><circle r="2" cx="145.99406811290044" cy="261.06820909201184" fill="grey"></circle><circle r="2" cx="146.63809371449398" cy="260.8439390409664" fill="grey"></circle><circle r="2" cx="146.67281526405608" cy="260.8251461261222" fill="grey"></circle><circle r="2" cx="147.91487506237823" cy="260.3917369211212" fill="grey"></circle><circle r="2" cx="147.7580891244249" cy="260.44313838605206" fill="grey"></circle><circle r="2" cx="148.96593610253944" cy="260.0101418201185" fill="grey"></circle><circle r="2" cx="149.00996453388174" cy="259.9974932851136" fill="grey"></circle><circle r="2" cx="149.9994904651721" cy="259.65455030293003" fill="grey"></circle><circle r="2" cx="149.59157468815962" cy="259.77815325415463" fill="grey"></circle><circle r="2" cx="151.47619565761758" cy="259.17458177549724" fill="grey"></circle><circle r="2" cx="151.31015547624563" cy="259.24783803248283" fill="grey"></circle><circle r="2" cx="151.54858809433844" cy="259.1405969772173" fill="grey"></circle><circle r="2" cx="152.1088877621463" cy="258.9406563251364" fill="grey"></circle><circle r="2" cx="153.05595259018583" cy="258.59197291098616" fill="grey"></circle><circle r="2" cx="153.41487031076016" cy="258.5118393063285" fill="grey"></circle><circle r="2" cx="153.93124835047885" cy="258.3331786992341" fill="grey"></circle><circle r="2" cx="154.23624261132488" cy="258.20674213776795" fill="grey"></circle><circle r="2" cx="154.70287530163975" cy="257.9856584799101" fill="grey"></circle><circle r="2" cx="154.55259402461718" cy="258.0919560777925" fill="grey"></circle><circle r="2" cx="155.4789977516832" cy="257.63699445605386" fill="grey"></circle><circle r="2" cx="155.6159927951128" cy="257.55720869597724" fill="grey"></circle><circle r="2" cx="157.0416714536664" cy="256.9026071879653" fill="grey"></circle><circle r="2" cx="156.4803703431503" cy="257.1443476824231" fill="grey"></circle><circle r="2" cx="158.38088572947433" cy="256.40767890774146" fill="grey"></circle><circle r="2" cx="158.08216117945346" cy="256.4850660575637" fill="grey"></circle><circle r="2" cx="159.20613207237253" cy="256.0615659229808" fill="grey"></circle><circle r="2" cx="158.52400116827616" cy="256.35316659706075" fill="grey"></circle><circle r="2" cx="159.71689615224003" cy="255.8612374529031" fill="grey"></circle><circle r="2" cx="160.38135493203427" cy="255.58811097317746" fill="grey"></circle><circle r="2" cx="160.5665732344737" cy="255.52439046463365" fill="grey"></circle><circle r="2" cx="160.61981770649808" cy="255.514499861392" fill="grey"></circle><circle r="2" cx="162.3178725063218" cy="255.03435127060303" fill="grey"></circle><circle r="2" cx="161.58528207774904" cy="255.13362090757886" fill="grey"></circle><circle r="2" cx="162.5912482375541" cy="254.91840248902807" fill="grey"></circle><circle r="2" cx="163.2512254564653" cy="254.61087368474955" fill="grey"></circle><circle r="2" cx="164.21016048564059" cy="254.23809694740675" fill="grey"></circle><circle r="2" cx="164.29581980913878" cy="254.16029517316346" fill="grey"></circle><circle r="2" cx="165.2750742833001" cy="253.7090860753181" fill="grey"></circle><circle r="2" cx="164.6422727505329" cy="254.03123614228193" fill="grey"></circle><circle r="2" cx="166.0461581213872" cy="253.36813470781462" fill="grey"></circle><circle r="2" cx="166.05790109508845" cy="253.3670190081072" fill="grey"></circle><circle r="2" cx="167.2694449819688" cy="252.82061532109765" fill="grey"></circle><circle r="2" cx="166.55760705636197" cy="253.13058502906927" fill="grey"></circle><circle r="2" cx="168.00827395987312" cy="252.41509551754947" fill="grey"></circle><circle r="2" cx="167.93053131151598" cy="252.42863720316947" fill="grey"></circle><circle r="2" cx="169.10306324926148" cy="251.8417279456998" fill="grey"></circle><circle r="2" cx="168.50797992114664" cy="252.23558133508556" fill="grey"></circle><circle r="2" cx="170.1467803878959" cy="251.3135292086517" fill="grey"></circle><circle r="2" cx="169.75945696685403" cy="251.48642189219723" fill="grey"></circle><circle r="2" cx="170.8399377128776" cy="251.00579494361477" fill="grey"></circle><circle r="2" cx="171.0968525616714" cy="250.89049334108003" fill="grey"></circle><circle r="2" cx="171.85690573492235" cy="250.47866871473664" fill="grey"></circle><circle r="2" cx="171.9520440750782" cy="250.42250872977974" fill="grey"></circle><circle r="2" cx="173.25004562339532" cy="249.85270495980794" fill="grey"></circle><circle r="2" cx="172.79663305742517" cy="250.04139199016072" fill="grey"></circle><circle r="2" cx="173.8714877668698" cy="249.63375551036458" fill="grey"></circle><circle r="2" cx="173.8364383606667" cy="249.64184746741714" fill="grey"></circle><circle r="2" cx="174.51340191275239" cy="249.29311945057572" fill="grey"></circle><circle r="2" cx="174.51340191275239" cy="249.29311945057572" fill="grey"></circle><circle r="2" cx="176.04002522351408" cy="248.56850415053137" fill="grey"></circle><circle r="2" cx="175.96176220791835" cy="248.60570094796654" fill="grey"></circle><circle r="2" cx="176.77925910788787" cy="248.17734101721396" fill="grey"></circle><circle r="2" cx="176.59684781005336" cy="248.25193754582506" fill="grey"></circle><circle r="2" cx="177.71784169129876" cy="247.65169742807714" fill="grey"></circle><circle r="2" cx="177.44202103787396" cy="247.7943976177932" fill="grey"></circle><circle r="2" cx="178.72641701482019" cy="246.98532951839908" fill="grey"></circle><circle r="2" cx="179.1357370387784" cy="246.7417006805191" fill="grey"></circle><circle r="2" cx="179.6715887168338" cy="246.33350883519773" fill="grey"></circle><circle r="2" cx="179.95712444310539" cy="246.1857710678334" fill="grey"></circle><circle r="2" cx="181.11758230494982" cy="245.4922368310886" fill="grey"></circle><circle r="2" cx="180.99079288760456" cy="245.54689207342665" fill="grey"></circle><circle r="2" cx="181.79052311488672" cy="245.1400568854049" fill="grey"></circle><circle r="2" cx="181.89614648816504" cy="245.0769050309941" fill="grey"></circle><circle r="2" cx="183.15383864006495" cy="244.13719410981568" fill="grey"></circle><circle r="2" cx="182.7347372249102" cy="244.41519427050824" fill="grey"></circle><circle r="2" cx="183.90234140360943" cy="243.64103991190854" fill="grey"></circle><circle r="2" cx="183.8730148901142" cy="243.69637855566774" fill="grey"></circle><circle r="2" cx="183.61104353324544" cy="243.88631192695163" fill="grey"></circle><circle r="2" cx="183.63997815571176" cy="243.8803099167988" fill="grey"></circle><circle r="2" cx="183.66895580370834" cy="243.867108166657" fill="grey"></circle><circle r="2" cx="183.69797660511918" cy="243.82023218997955" fill="grey"></circle><circle r="2" cx="183.7270406891743" cy="243.7901922144084" fill="grey"></circle><circle r="2" cx="183.756148184655" cy="243.7817750439655" fill="grey"></circle><circle r="2" cx="183.7852992221375" cy="243.7601151352986" fill="grey"></circle><circle r="2" cx="183.81449393085185" cy="243.74209444277523" fill="grey"></circle><circle r="2" cx="183.8437324431691" cy="243.70961049359522" fill="grey"></circle><circle r="2" cx="183.8730148901142" cy="243.69637855566774" fill="grey"></circle><circle r="2" cx="183.90234140360943" cy="243.64103991190854" fill="grey"></circle><circle r="2" cx="183.93171211737206" cy="243.58568196121416" fill="grey"></circle><circle r="2" cx="183.96112716377314" cy="243.58326689987763" fill="grey"></circle><circle r="2" cx="183.99058667787597" cy="243.53151878521288" fill="grey"></circle><circle r="2" cx="184.02009079339783" cy="243.52668753859808" fill="grey"></circle><circle r="2" cx="184.04963964629943" cy="243.5050069687237" fill="grey"></circle><circle r="2" cx="184.07923337209292" cy="243.46887124785638" fill="grey"></circle><circle r="2" cx="184.10887210718772" cy="243.45923554971966" fill="grey"></circle><circle r="2" cx="184.13855598889083" cy="243.43152572078205" fill="grey"></circle><circle r="2" cx="184.16828515540655" cy="243.42912435968654" fill="grey"></circle><circle r="2" cx="184.1980597444905" cy="243.40259463395287" fill="grey"></circle><circle r="2" cx="184.2278798947959" cy="243.39535732247145" fill="grey"></circle><circle r="2" cx="184.25774574721927" cy="243.3929547979426" fill="grey"></circle><circle r="2" cx="184.28765744086246" cy="243.3929547979426" fill="grey"></circle><circle r="2" cx="184.3176151175195" cy="243.3712711862005" fill="grey"></circle><circle r="2" cx="184.34761891808708" cy="243.36765131345462" fill="grey"></circle><circle r="2" cx="184.37766898525672" cy="243.33870807542243" fill="grey"></circle><circle r="2" cx="184.40776546171992" cy="243.19395626322103" fill="grey"></circle><circle r="2" cx="184.43790849106568" cy="243.18189754236323" fill="grey"></circle><circle r="2" cx="184.4680982177803" cy="243.17705549937867" fill="grey"></circle><circle r="2" cx="184.4983347867989" cy="243.17464991447034" fill="grey"></circle><circle r="2" cx="184.52861834305665" cy="243.12513868194216" fill="grey"></circle><circle r="2" cx="184.5589490337321" cy="243.10704266894584" fill="grey"></circle><circle r="2" cx="184.58932700510647" cy="243.102213389846" fill="grey"></circle><circle r="2" cx="184.61975240480726" cy="243.07201674052885" fill="grey"></circle><circle r="2" cx="184.65022538180804" cy="243.04301739539056" fill="grey"></circle><circle r="2" cx="184.68074608463343" cy="243.0357628850658" fill="grey"></circle><circle r="2" cx="184.71131466270583" cy="243.0309472189215" fill="grey"></circle><circle r="2" cx="184.7419312672423" cy="243.0152326397747" fill="grey"></circle><circle r="2" cx="184.77259604901124" cy="242.98260994135126" fill="grey"></circle><circle r="2" cx="184.80330915967846" cy="242.93184818446835" fill="grey"></circle><circle r="2" cx="184.83407075180727" cy="242.93184818446835" fill="grey"></circle><circle r="2" cx="184.86488097885828" cy="242.92942287145527" fill="grey"></circle><circle r="2" cx="184.89573999518967" cy="242.8967820335689" fill="grey"></circle><circle r="2" cx="184.92664795515955" cy="242.89074139069746" fill="grey"></circle><circle r="2" cx="184.9576050144721" cy="242.88347987879268" fill="grey"></circle><circle r="2" cx="184.98861132928042" cy="242.86656067245625" fill="grey"></circle><circle r="2" cx="185.01966705663486" cy="242.8629291180318" fill="grey"></circle><circle r="2" cx="185.0507723540345" cy="242.8629291180318" fill="grey"></circle><circle r="2" cx="185.081927379876" cy="242.79880277308374" fill="grey"></circle><circle r="2" cx="185.11313229390194" cy="242.75402715552963" fill="grey"></circle><circle r="2" cx="185.14438725630387" cy="242.747980395826" fill="grey"></circle><circle r="2" cx="185.17569242682444" cy="242.7080320031321" fill="grey"></circle><circle r="2" cx="185.2070479683473" cy="242.70682538295983" fill="grey"></circle><circle r="2" cx="185.23845404241007" cy="242.6959199672961" fill="grey"></circle><circle r="2" cx="185.26991081234522" cy="242.6438413934693" fill="grey"></circle><circle r="2" cx="185.30141844193378" cy="242.62446608161798" fill="grey"></circle><circle r="2" cx="185.33297709585443" cy="242.60388111771178" fill="grey"></circle><circle r="2" cx="185.36458694013183" cy="242.53723228737414" fill="grey"></circle><circle r="2" cx="185.39624814079068" cy="242.46206512084714" fill="grey"></circle><circle r="2" cx="185.4279608647532" cy="242.45478324403453" fill="grey"></circle><circle r="2" cx="185.4597252807364" cy="242.42689314317536" fill="grey"></circle><circle r="2" cx="185.49154155655978" cy="242.41598351839605" fill="grey"></circle><circle r="2" cx="185.5234098622865" cy="242.4038331959544" fill="grey"></circle><circle r="2" cx="185.55533036842854" cy="242.3504634268581" fill="grey"></circle><circle r="2" cx="185.58730324639515" cy="242.2958504703297" fill="grey"></circle><circle r="2" cx="185.61932866804432" cy="242.25335001994708" fill="grey"></circle><circle r="2" cx="185.65140680658024" cy="242.24242827773458" fill="grey"></circle><circle r="2" cx="185.6835378356558" cy="242.24120257164577" fill="grey"></circle><circle r="2" cx="185.71572192982129" cy="242.09784635529863" fill="grey"></circle><circle r="2" cx="185.74795926497316" cy="242.08326434171605" fill="grey"></circle><circle r="2" cx="185.78025001745667" cy="242.02854274508312" fill="grey"></circle><circle r="2" cx="185.81259436496305" cy="242.02854274508312" fill="grey"></circle><circle r="2" cx="185.84499248473495" cy="242.01274228525827" fill="grey"></circle><circle r="2" cx="185.87744455670716" cy="242.0042279506289" fill="grey"></circle><circle r="2" cx="185.90995076036603" cy="241.89108805011023" fill="grey"></circle><circle r="2" cx="185.94251127699255" cy="241.89108805011023" fill="grey"></circle><circle r="2" cx="185.97512628831643" cy="241.88622110213515" fill="grey"></circle><circle r="2" cx="186.00779597696487" cy="241.86065569783574" fill="grey"></circle><circle r="2" cx="186.04052052646256" cy="241.81074188965798" fill="grey"></circle><circle r="2" cx="186.07330012168018" cy="241.7608123259899" fill="grey"></circle><circle r="2" cx="186.10613494793728" cy="241.72914102647616" fill="grey"></circle><circle r="2" cx="186.13902519145074" cy="241.71573928393707" fill="grey"></circle><circle r="2" cx="186.17197103978364" cy="241.68525767411606" fill="grey"></circle><circle r="2" cx="186.20497268139644" cy="241.6621046398862" fill="grey"></circle><circle r="2" cx="186.2380303051984" cy="241.64382288896323" fill="grey"></circle><circle r="2" cx="186.27114410189353" cy="241.61212843566736" fill="grey"></circle><circle r="2" cx="186.30431426263465" cy="241.5340718777111" fill="grey"></circle><circle r="2" cx="186.33754097947195" cy="241.5340718777111" fill="grey"></circle><circle r="2" cx="186.37082444580184" cy="241.5340718777111" fill="grey"></circle><circle r="2" cx="186.40416485546936" cy="241.51455968674856" fill="grey"></circle><circle r="2" cx="186.43756240366577" cy="241.51455968674856" fill="grey"></circle><circle r="2" cx="186.4710172869284" cy="241.48160779255963" fill="grey"></circle><circle r="2" cx="186.50452970224333" cy="241.4791760569906" fill="grey"></circle><circle r="2" cx="186.53809984794282" cy="241.4608732792257" fill="grey"></circle><circle r="2" cx="186.57172792280778" cy="241.44501618846925" fill="grey"></circle><circle r="2" cx="186.6054141278628" cy="241.36321207886692" fill="grey"></circle><circle r="2" cx="186.63915866368362" cy="241.35221294836663" fill="grey"></circle><circle r="2" cx="186.67296173353841" cy="241.3216935495125" fill="grey"></circle><circle r="2" cx="186.7068235397978" cy="241.29725449914267" fill="grey"></circle><circle r="2" cx="186.7407442875247" cy="241.29113633066018" fill="grey"></circle><circle r="2" cx="186.7747241822309" cy="241.29113633066018" fill="grey"></circle><circle r="2" cx="186.80876343077412" cy="241.25450135350533" fill="grey"></circle><circle r="2" cx="186.8428622400123" cy="241.24716396813216" fill="grey"></circle><circle r="2" cx="186.87702081994422" cy="241.1958235193903" fill="grey"></circle><circle r="2" cx="186.9112393792225" cy="241.18481311963004" fill="grey"></circle><circle r="2" cx="186.94551813008965" cy="241.17503598502174" fill="grey"></circle><circle r="2" cx="186.97985728344193" cy="241.15915098431833" fill="grey"></circle><circle r="2" cx="187.01425705376522" cy="241.14081128431738" fill="grey"></circle><circle r="2" cx="187.04871765464821" cy="241.12979710435238" fill="grey"></circle><circle r="2" cx="187.0832393014742" cy="241.11389174838965" fill="grey"></circle><circle r="2" cx="187.1178222118703" cy="241.10534506268414" fill="grey"></circle><circle r="2" cx="187.152466602566" cy="241.10534506268414" fill="grey"></circle><circle r="2" cx="187.18717269298318" cy="241.09189078916614" fill="grey"></circle><circle r="2" cx="187.2219407034412" cy="241.0661977696916" fill="grey"></circle><circle r="2" cx="187.25677085515665" cy="241.06128986224337" fill="grey"></circle><circle r="2" cx="187.29166337069245" cy="240.9952241380799" fill="grey"></circle><circle r="2" cx="187.32661847350894" cy="240.9927847318164" fill="grey"></circle><circle r="2" cx="187.36163638886123" cy="240.99031388514106" fill="grey"></circle><circle r="2" cx="187.39671734290192" cy="240.9805249375893" fill="grey"></circle><circle r="2" cx="187.43186156312976" cy="240.97808583368385" fill="grey"></circle><circle r="2" cx="187.4670692774922" cy="240.924219261383" fill="grey"></circle><circle r="2" cx="187.50234071662896" cy="240.83479273982246" fill="grey"></circle><circle r="2" cx="187.5376761107311" cy="240.81397462151747" fill="grey"></circle><circle r="2" cx="187.57307569313065" cy="240.77965724521312" fill="grey"></circle><circle r="2" cx="187.6085396967109" cy="240.76739732914524" fill="grey"></circle><circle r="2" cx="187.64406835704756" cy="240.76739732914524" fill="grey"></circle><circle r="2" cx="187.67966190971612" cy="240.7612747874099" fill="grey"></circle><circle r="2" cx="187.71532059253587" cy="240.71714135465922" fill="grey"></circle><circle r="2" cx="187.75104464422333" cy="240.63741094383022" fill="grey"></circle><circle r="2" cx="187.78683430484142" cy="240.62023461490952" fill="grey"></circle><circle r="2" cx="187.82268981535023" cy="240.54538041240164" fill="grey"></circle><circle r="2" cx="187.85861141985097" cy="240.5220786266551" fill="grey"></circle><circle r="2" cx="187.8945993610987" cy="240.48279025261593" fill="grey"></circle><circle r="2" cx="187.93065388498954" cy="240.4410127942703" fill="grey"></circle><circle r="2" cx="187.9667752387657" cy="240.4410127942703" fill="grey"></circle><circle r="2" cx="188.0029636701181" cy="240.42629532978344" fill="grey"></circle><circle r="2" cx="188.0392194285325" cy="240.36855635777036" fill="grey"></circle><circle r="2" cx="188.07554276573833" cy="240.33292075763163" fill="grey"></circle><circle r="2" cx="188.1119339334649" cy="240.26528499587332" fill="grey"></circle><circle r="2" cx="188.1483931856852" cy="240.23825165305266" fill="grey"></circle><circle r="2" cx="188.184920778167" cy="240.2358010340741" fill="grey"></circle><circle r="2" cx="188.2215169666782" cy="240.20627955182988" fill="grey"></circle><circle r="2" cx="188.2581820096788" cy="240.18289774340994" fill="grey"></circle><circle r="2" cx="188.29491616697513" cy="240.17060831259755" fill="grey"></circle><circle r="2" cx="188.33171969971954" cy="240.15459288955748" fill="grey"></circle><circle r="2" cx="188.36859286996184" cy="240.14599548242137" fill="grey"></circle><circle r="2" cx="188.40553594199548" cy="240.08568877542714" fill="grey"></circle><circle r="2" cx="188.44254918146" cy="240.02166374532902" fill="grey"></circle><circle r="2" cx="188.47963285489237" cy="240.02166374532902" fill="grey"></circle><circle r="2" cx="188.51678723197057" cy="239.96995062454036" fill="grey"></circle><circle r="2" cx="188.55401258147518" cy="239.9329848074431" fill="grey"></circle><circle r="2" cx="188.59130917622514" cy="239.89109875656246" fill="grey"></circle><circle r="2" cx="188.62867728859086" cy="239.88987123856927" fill="grey"></circle><circle r="2" cx="188.66611719363476" cy="239.8750722748472" fill="grey"></circle><circle r="2" cx="188.7036291682144" cy="239.84794240037982" fill="grey"></circle><circle r="2" cx="188.74121348963595" cy="239.80480637914968" fill="grey"></circle><circle r="2" cx="188.77887043789767" cy="239.79740366390877" fill="grey"></circle><circle r="2" cx="188.81660029434437" cy="239.78138359420342" fill="grey"></circle><circle r="2" cx="188.8544033416666" cy="239.78138359420342" fill="grey"></circle><circle r="2" cx="188.8922798639014" cy="239.7419170050627" fill="grey"></circle><circle r="2" cx="188.9302301482266" cy="239.7419170050627" fill="grey"></circle><circle r="2" cx="188.96825448137133" cy="239.72835011186982" fill="grey"></circle><circle r="2" cx="189.00635315365457" cy="239.68515078909516" fill="grey"></circle><circle r="2" cx="189.04452645629254" cy="239.53455324972148" fill="grey"></circle><circle r="2" cx="189.08277468184792" cy="239.47033015345434" fill="grey"></circle><circle r="2" cx="189.12109812512657" cy="239.47033015345434" fill="grey"></circle><circle r="2" cx="189.15949708272944" cy="239.46414283316386" fill="grey"></circle><circle r="2" cx="189.19797185305242" cy="239.4616809219259" fill="grey"></circle><circle r="2" cx="189.23652273538863" cy="239.45672466288335" fill="grey"></circle><circle r="2" cx="189.27515003172354" cy="239.45672466288335" fill="grey"></circle><circle r="2" cx="189.31385404583762" cy="239.45672466288335" fill="grey"></circle><circle r="2" cx="189.3526350828573" cy="239.4196597830828" fill="grey"></circle><circle r="2" cx="189.3914934501527" cy="239.4196597830828" fill="grey"></circle><circle r="2" cx="189.43042945644" cy="239.3912401161975" fill="grey"></circle><circle r="2" cx="189.4694434126791" cy="239.2947815090956" fill="grey"></circle><circle r="2" cx="189.50853563162465" cy="239.2947815090956" fill="grey"></circle><circle r="2" cx="189.5477064282748" cy="239.28240982085296" fill="grey"></circle><circle r="2" cx="189.5869561185254" cy="239.27376689957603" fill="grey"></circle><circle r="2" cx="189.626285021413" cy="239.16239388295512" fill="grey"></circle><circle r="2" cx="189.66569345687182" cy="239.14877943002062" fill="grey"></circle><circle r="2" cx="189.70518174752817" cy="239.11412960908842" fill="grey"></circle><circle r="2" cx="189.74475021735472" cy="239.08934325546502" fill="grey"></circle><circle r="2" cx="189.78439919256755" cy="239.086875595161" fill="grey"></circle><circle r="2" cx="189.82412900162635" cy="239.0410577120846" fill="grey"></circle><circle r="2" cx="189.86393997523444" cy="239.03733902278523" fill="grey"></circle><circle r="2" cx="189.9038324449926" cy="239.00263416977282" fill="grey"></circle><circle r="2" cx="189.9438067456424" cy="238.97289260520668" fill="grey"></circle><circle r="2" cx="189.98386321327195" cy="238.91092382529865" fill="grey"></circle><circle r="2" cx="190.02400218666116" cy="238.87622501944705" fill="grey"></circle><circle r="2" cx="190.06422400638527" cy="238.82661026895025" fill="grey"></circle><circle r="2" cx="190.10452901481412" cy="238.69756357966202" fill="grey"></circle><circle r="2" cx="190.14491755700985" cy="238.65536690688714" fill="grey"></circle><circle r="2" cx="190.18538998027825" cy="238.62681717634365" fill="grey"></circle><circle r="2" cx="190.22594663282248" cy="238.48517196240678" fill="grey"></circle><circle r="2" cx="190.266587867333" cy="238.45659385059682" fill="grey"></circle><circle r="2" cx="190.3073140360513" cy="238.45659385059682" fill="grey"></circle><circle r="2" cx="190.3481254952575" cy="238.43669713638644" fill="grey"></circle><circle r="2" cx="190.38902260302655" cy="238.39691317295038" fill="grey"></circle><circle r="2" cx="190.43000571922835" cy="238.28995072081636" fill="grey"></circle><circle r="2" cx="190.47107520732223" cy="238.24140423537972" fill="grey"></circle><circle r="2" cx="190.51223143076783" cy="238.24140423537972" fill="grey"></circle><circle r="2" cx="190.55347475751176" cy="238.21526556461282" fill="grey"></circle><circle r="2" cx="190.5948055572956" cy="238.18664194079366" fill="grey"></circle><circle r="2" cx="190.63622420120703" cy="238.17169221507032" fill="grey"></circle><circle r="2" cx="190.67773106392346" cy="238.17045151875428" fill="grey"></circle><circle r="2" cx="190.71932652191714" cy="238.16297622557934" fill="grey"></circle><circle r="2" cx="190.76101095435268" cy="238.13558458040401" fill="grey"></circle><circle r="2" cx="190.80278474263815" cy="238.12312820139397" fill="grey"></circle><circle r="2" cx="190.84464827042527" cy="238.11067081860017" fill="grey"></circle><circle r="2" cx="190.88660192405814" cy="238.099453499807" fill="grey"></circle><circle r="2" cx="190.92864609302163" cy="238.0222020023863" fill="grey"></circle><circle r="2" cx="190.97078116814703" cy="237.98606320285222" fill="grey"></circle><circle r="2" cx="191.01300754385514" cy="237.98606320285222" fill="grey"></circle><circle r="2" cx="191.05532561591306" cy="237.92249108288325" fill="grey"></circle><circle r="2" cx="191.09773578457495" cy="237.92249108288325" fill="grey"></circle><circle r="2" cx="191.1402384505437" cy="237.92249108288325" fill="grey"></circle><circle r="2" cx="191.1828340190094" cy="237.91874780475106" fill="grey"></circle><circle r="2" cx="191.22552289605952" cy="237.91874780475106" fill="grey"></circle><circle r="2" cx="191.2683054922687" cy="237.91874780475106" fill="grey"></circle><circle r="2" cx="191.31118221955774" cy="237.9125197865075" fill="grey"></circle><circle r="2" cx="191.35415349298836" cy="237.8601218274519" fill="grey"></circle><circle r="2" cx="191.3972197307635" cy="237.84764536491218" fill="grey"></circle><circle r="2" cx="191.44038135377818" cy="237.8201872718736" fill="grey"></circle><circle r="2" cx="191.48363878472236" cy="237.8014761404475" fill="grey"></circle><circle r="2" cx="191.52699245032449" cy="237.8014761404475" fill="grey"></circle><circle r="2" cx="191.57044277955646" cy="237.79023834073976" fill="grey"></circle><circle r="2" cx="191.61399020498007" cy="237.7478166147421" fill="grey"></circle><circle r="2" cx="191.65763516095183" cy="237.7328447211819" fill="grey"></circle><circle r="2" cx="191.701378085418" cy="237.7328447211819" fill="grey"></circle><circle r="2" cx="191.74521941946594" cy="237.7328447211819" fill="grey"></circle><circle r="2" cx="191.78915960642644" cy="237.7328447211819" fill="grey"></circle><circle r="2" cx="191.83319909322023" cy="237.72409025054395" fill="grey"></circle><circle r="2" cx="191.87733832990875" cy="237.68664465832887" fill="grey"></circle><circle r="2" cx="191.92157776924594" cy="237.67165091780154" fill="grey"></circle><circle r="2" cx="191.96591786757548" cy="237.67165091780154" fill="grey"></circle><circle r="2" cx="192.01035908348456" cy="237.65917706698454" fill="grey"></circle><circle r="2" cx="192.0549018791501" cy="237.65542835661714" fill="grey"></circle><circle r="2" cx="192.09954672033868" cy="237.63168901727624" fill="grey"></circle><circle r="2" cx="192.14429407550926" cy="237.62294574712448" fill="grey"></circle><circle r="2" cx="192.18914441715927" cy="237.62045656711805" fill="grey"></circle><circle r="2" cx="192.23409821958091" cy="237.60920743711776" fill="grey"></circle><circle r="2" cx="192.27915596110486" cy="237.60170729370208" fill="grey"></circle><circle r="2" cx="192.32431812454894" cy="237.5979573338499" fill="grey"></circle><circle r="2" cx="192.3695851940772" cy="237.56297414820148" fill="grey"></circle><circle r="2" cx="192.41495765834063" cy="237.56297414820148" fill="grey"></circle><circle r="2" cx="192.4604360095802" cy="237.55049202668602" fill="grey"></circle><circle r="2" cx="192.50602074317774" cy="237.53923832036494" fill="grey"></circle><circle r="2" cx="192.5517123576561" cy="237.4667337353386" fill="grey"></circle><circle r="2" cx="192.59751135602536" cy="237.45796572455794" fill="grey"></circle><circle r="2" cx="192.64341824309045" cy="237.44922982644485" fill="grey"></circle><circle r="2" cx="192.68943352948943" cy="237.4404769850624" fill="grey"></circle><circle r="2" cx="192.73555772765542" cy="237.41546237770868" fill="grey"></circle><circle r="2" cx="192.78179135495728" cy="237.41546237770868" fill="grey"></circle><circle r="2" cx="192.82813493145636" cy="237.41546237770868" fill="grey"></circle><circle r="2" cx="192.8745889812522" cy="237.3854432968171" fill="grey"></circle><circle r="2" cx="192.92115403248297" cy="237.3341316464724" fill="grey"></circle><circle r="2" cx="192.9678306168764" cy="237.30411485217044" fill="grey"></circle><circle r="2" cx="193.01461927019884" cy="237.30035847077204" fill="grey"></circle><circle r="2" cx="193.06152053135744" cy="237.27781742996973" fill="grey"></circle><circle r="2" cx="193.1085349441954" cy="237.2540588378825" fill="grey"></circle><circle r="2" cx="193.15566305614564" cy="237.22650651773768" fill="grey"></circle><circle r="2" cx="193.20290541778192" cy="237.22148486700954" fill="grey"></circle><circle r="2" cx="193.25026258506273" cy="237.2064671852229" fill="grey"></circle><circle r="2" cx="193.29773511663885" cy="237.19894972392797" fill="grey"></circle><circle r="2" cx="193.34532357654555" cy="237.19645449014146" fill="grey"></circle><circle r="2" cx="193.39302853240787" cy="237.19645449014146" fill="grey"></circle><circle r="2" cx="193.4408505558894" cy="237.19645449014146" fill="grey"></circle><circle r="2" cx="193.48879022224327" cy="237.19519080979012" fill="grey"></circle><circle r="2" cx="193.53684811300477" cy="237.17140470873093" fill="grey"></circle><circle r="2" cx="193.58502481150393" cy="237.15135936136673" fill="grey"></circle><circle r="2" cx="193.63332090735287" cy="237.15011139993115" fill="grey"></circle><circle r="2" cx="193.68173699330478" cy="237.14635140773825" fill="grey"></circle><circle r="2" cx="193.73027366794605" cy="237.12004664670766" fill="grey"></circle><circle r="2" cx="193.77893153255533" cy="237.08997645608815" fill="grey"></circle><circle r="2" cx="193.82771119424467" cy="237.0874795262918" fill="grey"></circle><circle r="2" cx="193.87661326416455" cy="236.96714566536642" fill="grey"></circle><circle r="2" cx="193.9256383584013" cy="236.95458885243983" fill="grey"></circle><circle r="2" cx="193.97478709752832" cy="236.93578372704292" fill="grey"></circle><circle r="2" cx="194.0240601066063" cy="236.9345344143642" fill="grey"></circle><circle r="2" cx="194.07345801563176" cy="236.9345344143642" fill="grey"></circle><circle r="2" cx="194.12298145953707" cy="236.9345344143642" fill="grey"></circle><circle r="2" cx="194.1726310781904" cy="236.9345344143642" fill="grey"></circle><circle r="2" cx="194.22240751549845" cy="236.9345344143642" fill="grey"></circle><circle r="2" cx="194.27231142164996" cy="236.9345344143642" fill="grey"></circle><circle r="2" cx="194.32234345087207" cy="236.93328478126452" fill="grey"></circle><circle r="2" cx="194.37250426277652" cy="236.9132120558566" fill="grey"></circle><circle r="2" cx="194.4227945223595" cy="236.8693096689641" fill="grey"></circle><circle r="2" cx="194.47321489865593" cy="236.7613649043632" fill="grey"></circle><circle r="2" cx="194.52376606787985" cy="236.71115350440814" fill="grey"></circle><circle r="2" cx="194.5744487093865" cy="236.7023637348434" fill="grey"></circle><circle r="2" cx="194.62526350881316" cy="236.69482451094996" fill="grey"></circle><circle r="2" cx="194.676211158079" cy="236.69482451094996" fill="grey"></circle><circle r="2" cx="194.72729235314173" cy="236.6935571068266" fill="grey"></circle><circle r="2" cx="194.77850779534361" cy="236.58426924941455" fill="grey"></circle><circle r="2" cx="194.82985819320632" cy="236.57044894529272" fill="grey"></circle><circle r="2" cx="194.88134425929005" cy="236.57044894529272" fill="grey"></circle><circle r="2" cx="194.93296671243687" cy="236.54782986010255" fill="grey"></circle><circle r="2" cx="194.98472627732235" cy="236.54782986010255" fill="grey"></circle><circle r="2" cx="195.03662368400649" cy="236.53651147339454" fill="grey"></circle><circle r="2" cx="195.08865966883135" cy="236.51766185413288" fill="grey"></circle><circle r="2" cx="195.14083497352357" cy="236.51514083195428" fill="grey"></circle><circle r="2" cx="195.1931503465406" cy="236.3944144712507" fill="grey"></circle><circle r="2" cx="195.2456065412756" cy="236.33527404302262" fill="grey"></circle><circle r="2" cx="195.29820431875004" cy="236.31891021836708" fill="grey"></circle><circle r="2" cx="195.3509444449212" cy="236.31513264677483" fill="grey"></circle><circle r="2" cx="195.4038276920284" cy="236.30632341443996" fill="grey"></circle><circle r="2" cx="195.456854839939" cy="236.29248105949776" fill="grey"></circle><circle r="2" cx="195.51002667255904" cy="236.27360555367585" fill="grey"></circle><circle r="2" cx="195.56334398276866" cy="236.27360555367585" fill="grey"></circle><circle r="2" cx="195.616807568384" cy="236.17663851161635" fill="grey"></circle><circle r="2" cx="195.6704182339518" cy="236.13255231100598" fill="grey"></circle><circle r="2" cx="195.72417679119835" cy="235.80465406318305" fill="grey"></circle><circle r="2" cx="195.77808405858065" cy="235.77814876786678" fill="grey"></circle><circle r="2" cx="195.83214086083768" cy="235.7516393028144" fill="grey"></circle><circle r="2" cx="195.88634802988796" cy="235.73396426723593" fill="grey"></circle><circle r="2" cx="195.94070640438062" cy="235.5912252944636" fill="grey"></circle><circle r="2" cx="195.99521683059305" cy="235.32057074810717" fill="grey"></circle><circle r="2" cx="196.0498801615333" cy="235.2724738806311" fill="grey"></circle><circle r="2" cx="196.10469725738898" cy="235.2724738806311" fill="grey"></circle><circle r="2" cx="196.15966898552693" cy="235.22308657540748" fill="grey"></circle><circle r="2" cx="196.2147962204937" cy="235.22308657540748" fill="grey"></circle><circle r="2" cx="196.27007984536127" cy="235.21928575736234" fill="grey"></circle><circle r="2" cx="196.32552074948367" cy="235.20788264342454" fill="grey"></circle><circle r="2" cx="196.3811198307405" cy="235.204081502378" fill="grey"></circle><circle r="2" cx="196.43687799374214" cy="235.19775697784314" fill="grey"></circle><circle r="2" cx="196.4927961516246" cy="235.13189371688625" fill="grey"></circle><circle r="2" cx="196.54887522560065" cy="235.1040103149125" fill="grey"></circle><circle r="2" cx="196.60511614406252" cy="235.09512489822455" fill="grey"></circle><circle r="2" cx="196.66151984347954" cy="235.0786641525031" fill="grey"></circle><circle r="2" cx="196.71808727019248" cy="235.0165625196139" fill="grey"></circle><circle r="2" cx="196.77481937592682" cy="235.0127574948092" fill="grey"></circle><circle r="2" cx="196.83171712362596" cy="235.00767285353336" fill="grey"></circle><circle r="2" cx="196.88878148251536" cy="234.99751967202408" fill="grey"></circle><circle r="2" cx="196.946013431692" cy="234.99751967202408" fill="grey"></circle><circle r="2" cx="197.00341395833" cy="234.90494934185332" fill="grey"></circle><circle r="2" cx="197.06098405857756" cy="234.90494934185332" fill="grey"></circle><circle r="2" cx="197.11872473666006" cy="234.9036859033885" fill="grey"></circle><circle r="2" cx="197.17663700712296" cy="234.87829547407924" fill="grey"></circle><circle r="2" cx="197.2347218930376" cy="234.81359661603446" fill="grey"></circle><circle r="2" cx="197.2929804255521" cy="234.80850641799" fill="grey"></circle><circle r="2" cx="197.3514136470324" cy="234.80850641799" fill="grey"></circle><circle r="2" cx="197.41002260747277" cy="234.74884235399227" fill="grey"></circle><circle r="2" cx="197.46880836763643" cy="234.70059444156612" fill="grey"></circle><circle r="2" cx="197.52777199681245" cy="234.6777388531515" fill="grey"></circle><circle r="2" cx="197.58691457550754" cy="234.6370818852334" fill="grey"></circle><circle r="2" cx="197.6462371927541" cy="234.6078405006333" fill="grey"></circle><circle r="2" cx="197.70574094790513" cy="234.58115951914039" fill="grey"></circle><circle r="2" cx="197.76542695063384" cy="234.57609588832642" fill="grey"></circle><circle r="2" cx="197.8252963209341" cy="234.57609588832642" fill="grey"></circle><circle r="2" cx="197.88535018867134" cy="234.4972770185494" fill="grey"></circle><circle r="2" cx="197.945589694929" cy="234.49599421110702" fill="grey"></circle><circle r="2" cx="198.00601599021354" cy="234.4680135845874" fill="grey"></circle><circle r="2" cx="198.06663023714668" cy="234.29244993249944" fill="grey"></circle><circle r="2" cx="198.1274336086706" cy="234.28098928975572" fill="grey"></circle><circle r="2" cx="198.18842728804805" cy="234.27972131782755" fill="grey"></circle><circle r="2" cx="198.24961247065693" cy="234.18548645032865" fill="grey"></circle><circle r="2" cx="198.3109903630931" cy="234.0453548029289" fill="grey"></circle><circle r="2" cx="198.37256218272162" cy="234.03895723374038" fill="grey"></circle><circle r="2" cx="198.43432915857412" cy="234.02876667774822" fill="grey"></circle><circle r="2" cx="198.49629253269504" cy="234.02494087471953" fill="grey"></circle><circle r="2" cx="198.55845355744913" cy="233.9981752253465" fill="grey"></circle><circle r="2" cx="198.6208134973166" cy="233.90889586912894" fill="grey"></circle><circle r="2" cx="198.683373630239" cy="233.90125586711315" fill="grey"></circle><circle r="2" cx="198.74613524582472" cy="233.83490900898602" fill="grey"></circle><circle r="2" cx="198.80909964534843" cy="233.81194592325687" fill="grey"></circle><circle r="2" cx="198.87226814354642" cy="233.70216056446804" fill="grey"></circle><circle r="2" cx="198.9356420681678" cy="233.68555834042735" fill="grey"></circle><circle r="2" cx="198.99922275997437" cy="233.66641023476757" fill="grey"></circle><circle r="2" cx="199.06301157184316" cy="233.6651217139363" fill="grey"></circle><circle r="2" cx="199.12700987145894" cy="233.49899994477937" fill="grey"></circle><circle r="2" cx="199.19121903862165" cy="233.4402021297212" fill="grey"></circle><circle r="2" cx="199.2556404683878" cy="233.42483357461228" fill="grey"></circle><circle r="2" cx="199.32027556792892" cy="233.3634477969884" fill="grey"></circle><circle r="2" cx="199.3851257601218" cy="233.26234022893144" fill="grey"></circle><circle r="2" cx="199.45019248040714" cy="233.23034773901605" fill="grey"></circle><circle r="2" cx="199.5154771803795" cy="233.15352425761668" fill="grey"></circle><circle r="2" cx="199.58098132509483" cy="232.87153657587487" fill="grey"></circle><circle r="2" cx="199.64670639441667" cy="232.86128245794004" fill="grey"></circle><circle r="2" cx="199.71265388436237" cy="232.8227827615671" fill="grey"></circle><circle r="2" cx="199.77882530530812" cy="232.77916251634878" fill="grey"></circle><circle r="2" cx="199.8452221828866" cy="232.7624787780391" fill="grey"></circle><circle r="2" cx="199.9118460584353" cy="232.7470717481782" fill="grey"></circle><circle r="2" cx="199.97869848989427" cy="232.7406629815327" fill="grey"></circle><circle r="2" cx="200.0457810509087" cy="232.65719500730674" fill="grey"></circle><circle r="2" cx="200.11309533082866" cy="232.6559325344803" fill="grey"></circle><circle r="2" cx="200.18064293650428" cy="232.64822525168626" fill="grey"></circle><circle r="2" cx="200.24842549049063" cy="232.63794217738757" fill="grey"></circle><circle r="2" cx="200.31644463374005" cy="232.47605121463639" fill="grey"></circle><circle r="2" cx="200.3847020229101" cy="232.45421885665064" fill="grey"></circle><circle r="2" cx="200.45319933305555" cy="232.38606304658126" fill="grey"></circle><circle r="2" cx="200.52193825673112" cy="232.31016159418715" fill="grey"></circle><circle r="2" cx="200.59092050444013" cy="232.28957548434957" fill="grey"></circle><circle r="2" cx="200.66014780553192" cy="232.24711497249092" fill="grey"></circle><circle r="2" cx="200.72962190640706" cy="232.17632051769246" fill="grey"></circle><circle r="2" cx="200.79934457365837" cy="232.17375623576356" fill="grey"></circle><circle r="2" cx="200.86931759182713" cy="232.12612274684858" fill="grey"></circle><circle r="2" cx="200.93954276609566" cy="232.08104357954912" fill="grey"></circle><circle r="2" cx="201.01002191914614" cy="232.06686462034028" fill="grey"></circle><circle r="2" cx="201.0807568960965" cy="232.02822100827208" fill="grey"></circle><circle r="2" cx="201.15174956001343" cy="231.99987081597178" fill="grey"></circle><circle r="2" cx="201.22300179550172" cy="231.98568605036664" fill="grey"></circle><circle r="2" cx="201.29451550735857" cy="231.93156999364032" fill="grey"></circle><circle r="2" cx="201.36629262236815" cy="231.87740545136214" fill="grey"></circle><circle r="2" cx="201.43833508795544" cy="231.84646422097074" fill="grey"></circle><circle r="2" cx="201.51064487263525" cy="231.7058402648991" fill="grey"></circle><circle r="2" cx="201.5832239687042" cy="231.601277907547" fill="grey"></circle><circle r="2" cx="201.65607438865106" cy="231.52379660500193" fill="grey"></circle><circle r="2" cx="201.72919816919537" cy="231.51604350211886" fill="grey"></circle><circle r="2" cx="201.80259736994105" cy="231.51343666590438" fill="grey"></circle><circle r="2" cx="201.876274072479" cy="231.50698665145174" fill="grey"></circle><circle r="2" cx="201.95023038397716" cy="231.46435334427335" fill="grey"></circle><circle r="2" cx="202.02446843448772" cy="231.41264942896876" fill="grey"></circle><circle r="2" cx="202.09899037874237" cy="231.38680065751953" fill="grey"></circle><circle r="2" cx="202.1737983966007" cy="231.38680065751953" fill="grey"></circle><circle r="2" cx="202.2488946926018" cy="231.32085932850217" fill="grey"></circle><circle r="2" cx="202.32428149686152" cy="231.29498146527303" fill="grey"></circle><circle r="2" cx="202.3999610664186" cy="231.24067238732533" fill="grey"></circle><circle r="2" cx="202.47593568388848" cy="231.16562542848195" fill="grey"></circle><circle r="2" cx="202.55220765880978" cy="231.06981665690768" fill="grey"></circle><circle r="2" cx="202.6287793276437" cy="231.01413847101628" fill="grey"></circle><circle r="2" cx="202.70565305556957" cy="230.98822011514585" fill="grey"></circle><circle r="2" cx="202.78283123424075" cy="230.9610247238985" fill="grey"></circle><circle r="2" cx="202.86031628537447" cy="230.9558467657319" fill="grey"></circle><circle r="2" cx="202.9381106589572" cy="230.9558467657319" fill="grey"></circle><circle r="2" cx="203.0162168341418" cy="230.94418312956117" fill="grey"></circle><circle r="2" cx="203.09463732104257" cy="230.93253515688315" fill="grey"></circle><circle r="2" cx="203.17337465938897" cy="230.90141015765084" fill="grey"></circle><circle r="2" cx="203.25243141942317" cy="230.8586443567308" fill="grey"></circle><circle r="2" cx="203.33181020414355" cy="230.79252480341214" fill="grey"></circle><circle r="2" cx="203.41151364750974" cy="230.78215937205653" fill="grey"></circle><circle r="2" cx="203.4915444157891" cy="230.7406598157532" fill="grey"></circle><circle r="2" cx="203.57190520845376" cy="230.72767471945122" fill="grey"></circle><circle r="2" cx="203.65259875952702" cy="230.66151105158974" fill="grey"></circle><circle r="2" cx="203.73362783533966" cy="230.61867620140544" fill="grey"></circle><circle r="2" cx="203.8149952381197" cy="230.58365675792328" fill="grey"></circle><circle r="2" cx="203.89670380509503" cy="230.57455654316706" fill="grey"></circle><circle r="2" cx="203.97875640939066" cy="230.56157702831595" fill="grey"></circle><circle r="2" cx="204.0611559600289" cy="230.44731263827802" fill="grey"></circle><circle r="2" cx="204.1439054032755" cy="230.40572560569888" fill="grey"></circle><circle r="2" cx="204.22700772443432" cy="230.37063457841793" fill="grey"></circle><circle r="2" cx="204.3104659447066" cy="230.3524480838527" fill="grey"></circle><circle r="2" cx="204.39428312612654" cy="230.16781521313916" fill="grey"></circle><circle r="2" cx="204.47846237021545" cy="230.08974998676305" fill="grey"></circle><circle r="2" cx="204.56300681798155" cy="230.06502289778368" fill="grey"></circle><circle r="2" cx="204.6479196526122" cy="229.96739899808526" fill="grey"></circle><circle r="2" cx="204.733204098128" cy="229.93874924783896" fill="grey"></circle><circle r="2" cx="204.81886342162613" cy="229.8970726937197" fill="grey"></circle><circle r="2" cx="204.904900932832" cy="229.82019966890803" fill="grey"></circle><circle r="2" cx="204.99131998679084" cy="229.73677162770858" fill="grey"></circle><circle r="2" cx="205.07812398162494" cy="229.6663472943789" fill="grey"></circle><circle r="2" cx="205.1653163630203" cy="229.61158979533727" fill="grey"></circle><circle r="2" cx="205.2529006210857" cy="229.51501035126557" fill="grey"></circle><circle r="2" cx="205.34088029528863" cy="229.3936093095057" fill="grey"></circle><circle r="2" cx="205.4292589713144" cy="229.27995892741893" fill="grey"></circle><circle r="2" cx="205.51804028510432" cy="229.26429277559615" fill="grey"></circle><circle r="2" cx="205.60722792195838" cy="229.26429277559615" fill="grey"></circle><circle r="2" cx="205.696825618779" cy="229.23162102258192" fill="grey"></circle><circle r="2" cx="205.78683716317332" cy="229.17148720716833" fill="grey"></circle><circle r="2" cx="205.8772663956969" cy="229.09173144235555" fill="grey"></circle><circle r="2" cx="205.96811721164866" cy="229.08778978223327" fill="grey"></circle><circle r="2" cx="206.05939355972458" cy="229.05248434776172" fill="grey"></circle><circle r="2" cx="206.15109944471018" cy="229.0407090113314" fill="grey"></circle><circle r="2" cx="206.24323892927515" cy="228.9739681985173" fill="grey"></circle><circle r="2" cx="206.33581613307615" cy="228.75531685457946" fill="grey"></circle><circle r="2" cx="206.42883523410268" cy="228.6137764897719" fill="grey"></circle><circle r="2" cx="206.52230047136985" cy="228.57311495069388" fill="grey"></circle><circle r="2" cx="206.61621614581517" cy="228.52328577314847" fill="grey"></circle><circle r="2" cx="206.71058661940168" cy="228.51149684328408" fill="grey"></circle><circle r="2" cx="206.80541631825858" cy="228.47081491136237" fill="grey"></circle><circle r="2" cx="206.9007097340276" cy="228.38423285082638" fill="grey"></circle><circle r="2" cx="206.99647142386303" cy="228.36717349519975" fill="grey"></circle><circle r="2" cx="207.09270601267494" cy="228.35011285586967" fill="grey"></circle><circle r="2" cx="207.18941819492454" cy="228.19514310503257" fill="grey"></circle><circle r="2" cx="207.28661273372634" cy="228.168875754723" fill="grey"></circle><circle r="2" cx="207.38429446578428" cy="228.16099179116821" fill="grey"></circle><circle r="2" cx="207.48246829869933" cy="228.14520517810746" fill="grey"></circle><circle r="2" cx="207.58113921680277" cy="228.07555412720288" fill="grey"></circle><circle r="2" cx="207.68031227936137" cy="228.07030132010723" fill="grey"></circle><circle r="2" cx="207.77999262282103" cy="228.05716040384198" fill="grey"></circle><circle r="2" cx="207.88018546394756" cy="228.05716040384198" fill="grey"></circle><circle r="2" cx="207.9808960998269" cy="227.9979892084676" fill="grey"></circle><circle r="2" cx="208.08212991010885" cy="227.9835341216486" fill="grey"></circle><circle r="2" cx="208.18389235925008" cy="227.937491511941" fill="grey"></circle><circle r="2" cx="208.28618899651465" cy="227.937491511941" fill="grey"></circle><circle r="2" cx="208.38902546046106" cy="227.9230318179484" fill="grey"></circle><circle r="2" cx="208.4924074784934" cy="227.84935790062022" fill="grey"></circle><circle r="2" cx="208.59634086955364" cy="227.8269781858389" fill="grey"></circle><circle r="2" cx="208.70083154726288" cy="227.75063111401505" fill="grey"></circle><circle r="2" cx="208.80588551947235" cy="227.69270101761455" fill="grey"></circle><circle r="2" cx="208.91150889275067" cy="227.66107265900075" fill="grey"></circle><circle r="2" cx="209.01770787328135" cy="227.62420921607233" fill="grey"></circle><circle r="2" cx="209.1244887691063" cy="227.62420921607233" fill="grey"></circle><circle r="2" cx="209.23185799192063" cy="227.62420921607233" fill="grey"></circle><circle r="2" cx="209.33982206155997" cy="227.604446491126" fill="grey"></circle><circle r="2" cx="209.4483876051029" cy="227.59258767605309" fill="grey"></circle><circle r="2" cx="209.55756136225563" cy="227.57939903613342" fill="grey"></circle><circle r="2" cx="209.66735018580053" cy="227.56097836857623" fill="grey"></circle><circle r="2" cx="209.77776104608355" cy="227.55436583359204" fill="grey"></circle><circle r="2" cx="209.88880103101408" cy="227.53065930116426" fill="grey"></circle><circle r="2" cx="210.00047735234688" cy="227.51748409592665" fill="grey"></circle><circle r="2" cx="210.11279734433617" cy="227.5161546133784" fill="grey"></circle><circle r="2" cx="210.22576847046608" cy="227.50430765354542" fill="grey"></circle><circle r="2" cx="210.3393983238996" cy="227.45551635009437" fill="grey"></circle><circle r="2" cx="210.45369463196556" cy="227.43309429643648" fill="grey"></circle><circle r="2" cx="210.5686652584025" cy="227.3869467535676" fill="grey"></circle><circle r="2" cx="210.68431820739656" cy="227.35397558228664" fill="grey"></circle><circle r="2" cx="210.80066162582568" cy="227.3355004660488" fill="grey"></circle><circle r="2" cx="210.9177038072976" cy="227.33418682089123" fill="grey"></circle><circle r="2" cx="211.03545319708604" cy="227.32758458649937" fill="grey"></circle><circle r="2" cx="211.15391839257904" cy="227.32758458649937" fill="grey"></circle><circle r="2" cx="211.27310815045877" cy="227.31704087194151" fill="grey"></circle><circle r="2" cx="211.39303138849627" cy="227.31704087194151" fill="grey"></circle><circle r="2" cx="211.5136971900384" cy="227.30252126876064" fill="grey"></circle><circle r="2" cx="211.63511480849553" cy="227.30252126876064" fill="grey"></circle><circle r="2" cx="211.75729367048177" cy="227.24840896015206" fill="grey"></circle><circle r="2" cx="211.88024338209775" cy="227.24048989176308" fill="grey"></circle><circle r="2" cx="212.0039737325199" cy="227.215415881769" fill="grey"></circle><circle r="2" cx="212.12849469714146" cy="227.20751243199584" fill="grey"></circle><circle r="2" cx="212.25381644520087" cy="227.20222069083326" fill="grey"></circle><circle r="2" cx="212.3799493429226" cy="227.153375861146" fill="grey"></circle><circle r="2" cx="212.50690395935055" cy="227.1362149676313" fill="grey"></circle><circle r="2" cx="212.6346910708351" cy="227.11112879644904" fill="grey"></circle><circle r="2" cx="212.76332166776393" cy="227.09791014645623" fill="grey"></circle><circle r="2" cx="212.89280695904924" cy="227.09527981371238" fill="grey"></circle><circle r="2" cx="213.02315837975567" cy="227.08603951170824" fill="grey"></circle><circle r="2" cx="213.1543875937928" cy="227.0662086137189" fill="grey"></circle><circle r="2" cx="213.2865065046843" cy="227.0662086137189" fill="grey"></circle><circle r="2" cx="213.4195272578114" cy="227.0662086137189" fill="grey"></circle><circle r="2" cx="213.55346224983612" cy="227.06491027315116" fill="grey"></circle><circle r="2" cx="213.68832413543174" cy="227.06224581467464" fill="grey"></circle><circle r="2" cx="213.82412583266748" cy="227.04244637426254" fill="grey"></circle><circle r="2" cx="213.960880531983" cy="227.0147007193191" fill="grey"></circle><circle r="2" cx="214.0986017033676" cy="227.01073661345984" fill="grey"></circle><circle r="2" cx="214.23730310533452" cy="227.00147580541008" fill="grey"></circle><circle r="2" cx="214.37699879075456" cy="226.94068876559055" fill="grey"></circle><circle r="2" cx="214.51770311807357" cy="226.93144166776696" fill="grey"></circle><circle r="2" cx="214.65943075849216" cy="226.9155791316488" fill="grey"></circle><circle r="2" cx="214.80219670583733" cy="226.91426265184256" fill="grey"></circle><circle r="2" cx="214.94601628643414" cy="226.91029703441745" fill="grey"></circle><circle r="2" cx="215.09090516673422" cy="226.90499741433163" fill="grey"></circle><circle r="2" cx="215.2368793676741" cy="226.8878166699739" fill="grey"></circle><circle r="2" cx="215.38395527095778" cy="226.87856707127344" fill="grey"></circle><circle r="2" cx="215.53214963251776" cy="226.8322978067991" fill="grey"></circle><circle r="2" cx="215.6814795946307" cy="226.81774462650552" fill="grey"></circle><circle r="2" cx="215.83196269534025" cy="226.8164106780336" fill="grey"></circle><circle r="2" cx="215.98361688191852" cy="226.8124426895381" fill="grey"></circle><circle r="2" cx="216.13646052567375" cy="226.7952542317406" fill="grey"></circle><circle r="2" cx="216.29051243227073" cy="226.77146187372122" fill="grey"></circle><circle r="2" cx="216.44579185653848" cy="226.76087276518044" fill="grey"></circle><circle r="2" cx="216.6023185186239" cy="226.76087276518044" fill="grey"></circle><circle r="2" cx="216.7601126170045" cy="226.7569041480719" fill="grey"></circle><circle r="2" cx="216.91919484509108" cy="226.727803344702" fill="grey"></circle><circle r="2" cx="217.07958640603508" cy="226.68411926345541" fill="grey"></circle><circle r="2" cx="217.24130903292098" cy="226.67751344856097" fill="grey"></circle><circle r="2" cx="217.40438500267635" cy="226.66163181900947" fill="grey"></circle><circle r="2" cx="217.56883715716154" cy="226.65634327992507" fill="grey"></circle><circle r="2" cx="217.73468892111825" cy="226.63647195638538" fill="grey"></circle><circle r="2" cx="217.90196432325916" cy="226.63517131610143" fill="grey"></circle><circle r="2" cx="218.07068801511411" cy="226.63517131610143" fill="grey"></circle><circle r="2" cx="218.24088529481185" cy="226.63383580972834" fill="grey"></circle><circle r="2" cx="218.41258212951584" cy="226.62457547254937" fill="grey"></circle><circle r="2" cx="218.5858051783088" cy="226.60869018306317" fill="grey"></circle><circle r="2" cx="218.76058181776955" cy="226.58088722661526" fill="grey"></circle><circle r="2" cx="218.93694016754955" cy="226.58088722661526" fill="grey"></circle><circle r="2" cx="219.1149091186423" cy="226.57557965210088" fill="grey"></circle><circle r="2" cx="219.2945183594085" cy="226.55308069493782" fill="grey"></circle><circle r="2" cx="219.47579840743512" cy="226.55176198789155" fill="grey"></circle><circle r="2" cx="219.65878064094537" cy="226.50143061866135" fill="grey"></circle><circle r="2" cx="219.84349732886255" cy="226.41003576511167" fill="grey"></circle><circle r="2" cx="220.029981667605" cy="226.3768940989004" fill="grey"></circle><circle r="2" cx="220.2182678151881" cy="226.3768940989004" fill="grey"></circle><circle r="2" cx="220.40839092936537" cy="226.37291809337304" fill="grey"></circle><circle r="2" cx="220.60038720846137" cy="226.34110827528306" fill="grey"></circle><circle r="2" cx="220.79429392906408" cy="226.34110827528306" fill="grey"></circle><circle r="2" cx="220.9901494940371" cy="226.34110827528306" fill="grey"></circle><circle r="2" cx="221.18799347425042" cy="226.33051532068072" fill="grey"></circle><circle r="2" cx="221.38786665883654" cy="226.31195022313906" fill="grey"></circle><circle r="2" cx="221.58981110544656" cy="226.30531616856467" fill="grey"></circle><circle r="2" cx="221.79387019140364" cy="226.2708379052475" fill="grey"></circle><circle r="2" cx="222.00008867293369" cy="226.1554480796855" fill="grey"></circle><circle r="2" cx="222.2085127417032" cy="226.1554480796855" fill="grey"></circle><circle r="2" cx="222.419190087191" cy="226.1554480796855" fill="grey"></circle><circle r="2" cx="222.63216996309788" cy="226.04267326903874" fill="grey"></circle><circle r="2" cx="222.84750325555157" cy="225.91120538452856" fill="grey"></circle><circle r="2" cx="223.0652425562472" cy="225.81158487232315" fill="grey"></circle><circle r="2" cx="223.28544223962643" cy="225.77305719700504" fill="grey"></circle><circle r="2" cx="223.50815854588976" cy="225.77305719700504" fill="grey"></circle><circle r="2" cx="223.73344966400893" cy="225.719860108007" fill="grey"></circle><circle r="2" cx="223.96137582550847" cy="225.64675453000044" fill="grey"></circle><circle r="2" cx="224.19199940049072" cy="225.63743406003408" fill="grey"></circle><circle r="2" cx="224.4253850003918" cy="225.61084607568412" fill="grey"></circle><circle r="2" cx="224.66159958567314" cy="225.61084607568412" fill="grey"></circle><circle r="2" cx="224.90071258114165" cy="225.57625629677577" fill="grey"></circle><circle r="2" cx="225.14279600069221" cy="225.5589679668082" fill="grey"></circle><circle r="2" cx="225.38792457474324" cy="225.4072521504474" fill="grey"></circle><circle r="2" cx="225.6361758893382" cy="225.3965958493114" fill="grey"></circle><circle r="2" cx="225.8876305346706" cy="225.3806015190823" fill="grey"></circle><circle r="2" cx="226.1423722625831" cy="225.3766070531101" fill="grey"></circle><circle r="2" cx="226.40048815079726" cy="225.35665088150952" fill="grey"></circle><circle r="2" cx="226.6620687850921" cy="225.28338799620744" fill="grey"></circle><circle r="2" cx="226.927208448662" cy="225.2074466572344" fill="grey"></circle><circle r="2" cx="227.1960053262823" cy="225.14482003576177" fill="grey"></circle><circle r="2" cx="227.4685617223849" cy="225.03282585702829" fill="grey"></circle><circle r="2" cx="227.74498429573637" cy="224.9701317393683" fill="grey"></circle><circle r="2" cx="228.02538430802673" cy="224.95010368363035" fill="grey"></circle><circle r="2" cx="228.30987789579046" cy="224.94077063220374" fill="grey"></circle><circle r="2" cx="228.59858635623866" cy="224.92610548463307" fill="grey"></circle><circle r="2" cx="228.89163646001347" cy="224.8553724917633" fill="grey"></circle><circle r="2" cx="229.18916078368642" cy="224.83800926574594" fill="grey"></circle><circle r="2" cx="229.49129807097424" cy="224.83535122354263" fill="grey"></circle><circle r="2" cx="229.79819362042906" cy="224.8099766997247" fill="grey"></circle><circle r="2" cx="230.10999970723086" cy="224.78596346091126" fill="grey"></circle><circle r="2" cx="230.4268760328006" cy="224.7352174121736" fill="grey"></circle><circle r="2" cx="230.7489902201818" cy="224.65773739916602" fill="grey"></circle><circle r="2" cx="231.07651834442237" cy="224.64704423536804" fill="grey"></circle><circle r="2" cx="231.40964551007127" cy="224.3328733394009" fill="grey"></circle><circle r="2" cx="231.74856648162398" cy="224.32751028964705" fill="grey"></circle><circle r="2" cx="232.09348636467223" cy="224.31012253156618" fill="grey"></circle><circle r="2" cx="232.4446213534643" cy="224.3034266156588" fill="grey"></circle><circle r="2" cx="232.80219954487444" cy="224.1320831928304" fill="grey"></circle><circle r="2" cx="233.1664618259626" cy="223.98471045823217" fill="grey"></circle><circle r="2" cx="233.53766285172486" cy="222.60821160347479" fill="grey"></circle><circle r="2" cx="233.9160721134852" cy="222.09115224651705" fill="grey"></circle><circle r="2" cx="234.3019751127352" cy="222.06953615878592" fill="grey"></circle><circle r="2" cx="234.6956746574728" cy="221.90052003189888" fill="grey"></circle><circle r="2" cx="235.09749228777156" cy="221.73407455811264" fill="grey"></circle><circle r="2" cx="235.50776985525863" cy="219.56616095233423" fill="grey"></circle><circle r="2" cx="235.92687126906722" cy="218.60914815689435" fill="grey"></circle><circle r="2" cx="236.3551844365304" cy="218.30437861935434" fill="grey"></circle><circle r="2" cx="236.7931234206053" cy="217.0828499119214" fill="grey"></circle><circle r="2" cx="237.2411308436416" cy="216.95995029272967" fill="grey"></circle><circle r="2" cx="237.6996805796747" cy="215.6983757167464" fill="grey"></circle><circle r="2" cx="238.16928076395973" cy="213.9275706012926" fill="grey"></circle><circle r="2" cx="238.65047717853005" cy="213.81287478200935" fill="grey"></circle><circle r="2" cx="239.14385706627854" cy="213.57918818361708" fill="grey"></circle><circle r="2" cx="239.65005343862603" cy="213.57918818361708" fill="grey"></circle><circle r="2" cx="240.16974996068635" cy="213.4069491250037" fill="grey"></circle><circle r="2" cx="240.70368650097913" cy="213.02280490429" fill="grey"></circle><circle r="2" cx="241.25266546863836" cy="212.84034744245298" fill="grey"></circle><circle r="2" cx="241.8175590682437" cy="211.06814137587352" fill="grey"></circle><circle r="2" cx="242.3993176315693" cy="209.04926662942924" fill="grey"></circle><circle r="2" cx="242.9989792411839" cy="208.85123895863137" fill="grey"></circle><circle r="2" cx="243.6176808760944" cy="205.37109341406443" fill="grey"></circle><circle r="2" cx="244.25667138814794" cy="204.86714704951302" fill="grey"></circle><circle r="2" cx="244.9173266766912" cy="204.09726360065332" fill="grey"></circle><circle r="2" cx="245.60116752994605" cy="203.20184161378728" fill="grey"></circle><circle r="2" cx="246.3098807083534" cy="202.6592240388907" fill="grey"></circle><circle r="2" cx="247.04534401340894" cy="185.05575545088985" fill="grey"></circle><circle r="2" cx="247.80965627262444" cy="163.53759616415158" fill="grey"></circle><circle r="2" cx="248.60517344586586" cy="159.26732046165733" fill="grey"></circle><circle r="2" cx="249.43455242491802" cy="148.80500237095183" fill="grey"></circle><circle r="2" cx="250.3008045737637" cy="144.52994375245717" fill="grey"></circle><circle r="2" cx="251.2073617310383" cy="144.12510007881565" fill="grey"></circle><circle r="2" cx="252.15815832720133" cy="142.11162887959082" fill="grey"></circle><circle r="2" cx="253.15773458415637" cy="140.9754429172397" fill="grey"></circle><circle r="2" cx="254.21136764202228" cy="137.35583657967695" fill="grey"></circle><circle r="2" cx="255.32524020614588" cy="135.94253314532358" fill="grey"></circle><circle r="2" cx="256.5066603745989" cy="128.91501585696378" fill="grey"></circle><circle r="2" cx="257.764352516627" cy="128.43186854162965" fill="grey"></circle><circle r="2" cx="259.10884865259186" cy="121.24155293827548" fill="grey"></circle><circle r="2" cx="260.55302513067016" cy="119.32902042078933" fill="grey"></circle><circle r="2" cx="262.1128545554989" cy="118.84564514656614" fill="grey"></circle><circle r="2" cx="263.8084856744225" cy="117.39867173798675" fill="grey"></circle><circle r="2" cx="265.6658394152961" cy="27.049783273850892" fill="grey"></circle><circle r="2" cx="267.71904871800166" cy="21.144080521304954" fill="grey"></circle><circle r="2" cx="270.01434143397586" cy="18.295694492237637" fill="grey"></circle><circle r="2" cx="272.6165296913279" cy="13.986859040912702" fill="grey"></circle><circle r="2" cx="275.62053556596595" cy="11.722332212340458" fill="grey"></circle><circle r="2" cx="279.1735203885197" cy="10.932415929363891" fill="grey"></circle><circle r="2" cx="283.5220223484177" cy="10.932415929363891" fill="grey"></circle><circle r="2" cx="289.1282163825878" cy="8.117444307371313" fill="grey"></circle><circle r="2" cx="297.029702970297" cy="2.9702970297029396" fill="grey"></circle><g class="x axis" transform="translate(0,300)"><g class="tick" transform="translate(0,0)" style="opacity: 1;"><line y2="6" x2="0" style="fill: none; stroke: grey;"></line><text dy=".71em" y="9" x="0" style="text-anchor: middle; font-size: 11px; font-family: sans-serif;">0</text></g><g class="tick" transform="translate(44.87154569892316,0)" style="opacity: 1;"><line y2="6" x2="0" style="fill: none; stroke: grey;"></line><text dy=".71em" y="9" x="0" style="text-anchor: middle; font-size: 11px; font-family: sans-serif;">1</text></g><g class="tick" transform="translate(89.74309139784631,0)" style="opacity: 1;"><line y2="6" x2="0" style="fill: none; stroke: grey;"></line><text dy=".71em" y="9" x="0" style="text-anchor: middle; font-size: 11px; font-family: sans-serif;">2</text></g><g class="tick" transform="translate(134.61463709676946,0)" style="opacity: 1;"><line y2="6" x2="0" style="fill: none; stroke: grey;"></line><text dy=".71em" y="9" x="0" style="text-anchor: middle; font-size: 11px; font-family: sans-serif;">3</text></g><g class="tick" transform="translate(179.48618279569263,0)" style="opacity: 1;"><line y2="6" x2="0" style="fill: none; stroke: grey;"></line><text dy=".71em" y="9" x="0" style="text-anchor: middle; font-size: 11px; font-family: sans-serif;">4</text></g><g class="tick" transform="translate(224.35772849461577,0)" style="opacity: 1;"><line y2="6" x2="0" style="fill: none; stroke: grey;"></line><text dy=".71em" y="9" x="0" style="text-anchor: middle; font-size: 11px; font-family: sans-serif;">5</text></g><g class="tick" transform="translate(269.2292741935389,0)" style="opacity: 1;"><line y2="6" x2="0" style="fill: none; stroke: grey;"></line><text dy=".71em" y="9" x="0" style="text-anchor: middle; font-size: 11px; font-family: sans-serif;">6</text></g><path class="domain" d="M0,6V0H300V6" style="fill: none; stroke: grey;"></path></g><g class="y axis"><g class="tick" transform="translate(0,300)" style="opacity: 1;"><line x2="-6" y2="0" style="fill: none; stroke: grey;"></line><text dy=".32em" x="-9" y="0" style="text-anchor: end; font-size: 11px; font-family: sans-serif;">0</text></g><g class="tick" transform="translate(0,277.5615555071881)" style="opacity: 1;"><line x2="-6" y2="0" style="fill: none; stroke: grey;"></line><text dy=".32em" x="-9" y="0" style="text-anchor: end; font-size: 11px; font-family: sans-serif;">2</text></g><g class="tick" transform="translate(0,255.12311101437618)" style="opacity: 1;"><line x2="-6" y2="0" style="fill: none; stroke: grey;"></line><text dy=".32em" x="-9" y="0" style="text-anchor: end; font-size: 11px; font-family: sans-serif;">4</text></g><g class="tick" transform="translate(0,232.6846665215643)" style="opacity: 1;"><line x2="-6" y2="0" style="fill: none; stroke: grey;"></line><text dy=".32em" x="-9" y="0" style="text-anchor: end; font-size: 11px; font-family: sans-serif;">6</text></g><g class="tick" transform="translate(0,210.24622202875238)" style="opacity: 1;"><line x2="-6" y2="0" style="fill: none; stroke: grey;"></line><text dy=".32em" x="-9" y="0" style="text-anchor: end; font-size: 11px; font-family: sans-serif;">8</text></g><g class="tick" transform="translate(0,187.80777753594052)" style="opacity: 1;"><line x2="-6" y2="0" style="fill: none; stroke: grey;"></line><text dy=".32em" x="-9" y="0" style="text-anchor: end; font-size: 11px; font-family: sans-serif;">10</text></g><g class="tick" transform="translate(0,165.36933304312862)" style="opacity: 1;"><line x2="-6" y2="0" style="fill: none; stroke: grey;"></line><text dy=".32em" x="-9" y="0" style="text-anchor: end; font-size: 11px; font-family: sans-serif;">12</text></g><g class="tick" transform="translate(0,142.9308885503167)" style="opacity: 1;"><line x2="-6" y2="0" style="fill: none; stroke: grey;"></line><text dy=".32em" x="-9" y="0" style="text-anchor: end; font-size: 11px; font-family: sans-serif;">14</text></g><g class="tick" transform="translate(0,120.4924440575048)" style="opacity: 1;"><line x2="-6" y2="0" style="fill: none; stroke: grey;"></line><text dy=".32em" x="-9" y="0" style="text-anchor: end; font-size: 11px; font-family: sans-serif;">16</text></g><g class="tick" transform="translate(0,98.0539995646929)" style="opacity: 1;"><line x2="-6" y2="0" style="fill: none; stroke: grey;"></line><text dy=".32em" x="-9" y="0" style="text-anchor: end; font-size: 11px; font-family: sans-serif;">18</text></g><g class="tick" transform="translate(0,75.61555507188099)" style="opacity: 1;"><line x2="-6" y2="0" style="fill: none; stroke: grey;"></line><text dy=".32em" x="-9" y="0" style="text-anchor: end; font-size: 11px; font-family: sans-serif;">20</text></g><g class="tick" transform="translate(0,53.17711057906912)" style="opacity: 1;"><line x2="-6" y2="0" style="fill: none; stroke: grey;"></line><text dy=".32em" x="-9" y="0" style="text-anchor: end; font-size: 11px; font-family: sans-serif;">22</text></g><g class="tick" transform="translate(0,30.738666086257215)" style="opacity: 1;"><line x2="-6" y2="0" style="fill: none; stroke: grey;"></line><text dy=".32em" x="-9" y="0" style="text-anchor: end; font-size: 11px; font-family: sans-serif;">24</text></g><g class="tick" transform="translate(0,8.300221593445311)" style="opacity: 1;"><line x2="-6" y2="0" style="fill: none; stroke: grey;"></line><text dy=".32em" x="-9" y="0" style="text-anchor: end; font-size: 11px; font-family: sans-serif;">26</text></g><path class="domain" d="M-6,0H0V300H-6" style="fill: none; stroke: grey;"></path></g><line x1="0" x2="297.029702970297" y1="300" y2="225.7337317112372" style="stroke: red; stroke-dasharray: 3, 3;"></line><text text-anchor="middle" transform="translate(-35,150)rotate(-90)" style="font-family: sans-serif;">Observed -log10 P-value</text><text text-anchor="middle" transform="translate(150,335)" style="font-family: sans-serif;">Expected -log10 P-value</text></g></svg>