<svg width="500" height="250"><g transform="translate(40,20)"><text x="390" y="10" style="font-size: 10px; font-family: sans-serif;">-log2(E)</text><g><rect class="legendRect" x="390" y="13" width="20" height="5" fill="#ff0000"></rect></g><g><rect class="legendRect" x="390" y="18" width="20" height="5" fill="#ff221f"></rect></g><g><rect class="legendRect" x="390" y="23" width="20" height="5" fill="#ff443e"></rect></g><g><rect class="legendRect" x="390" y="28" width="20" height="5" fill="#ff665c"></rect></g><g><rect class="legendRect" x="390" y="33" width="20" height="5" fill="#ff897b"></rect></g><g><rect class="legendRect" x="390" y="38" width="20" height="5" fill="#ffab9a"></rect></g><g><rect class="legendRect" x="390" y="43" width="20" height="5" fill="#ffcdb9"></rect></g><g><rect class="legendRect" x="390" y="48" width="20" height="5" fill="#ffefd8"></rect></g><g><rect class="legendRect" x="390" y="53" width="20" height="5" fill="#eaeae8"></rect></g><g><rect class="legendRect" x="390" y="58" width="20" height="5" fill="#c3c3ec"></rect></g><g><rect class="legendRect" x="390" y="63" width="20" height="5" fill="#9c9cf0"></rect></g><g><rect class="legendRect" x="390" y="68" width="20" height="5" fill="#7575f4"></rect></g><g><rect class="legendRect" x="390" y="73" width="20" height="5" fill="#4e4ef7"></rect></g><g><rect class="legendRect" x="390" y="78" width="20" height="5" fill="#2727fb"></rect></g><g><rect class="legendRect" x="390" y="83" width="20" height="5" fill="#0000ff"></rect></g><g><text text-anchor="start" class="legenedText" x="412" y="20" style="font-size: 10px; font-family: sans-serif;">2.46</text></g><g><text text-anchor="start" class="legenedText" x="412" y="90" style="font-size: 10px; font-family: sans-serif;">-2.15</text></g><text x="390" y="105" style="font-size: 10px; font-family: sans-serif;">* p&lt;0.05</text><text x="390" y="120" style="font-size: 10px; font-family: sans-serif;">** p&lt;0.05/11</text><rect class="backbar" x="5" width="31" y="73.33333333333334" height="66.66666666666666" fill="transparent" opacity="0"></rect><rect class="backbar" x="39" width="31" y="73.33333333333334" height="66.66666666666666" fill="transparent" opacity="0"></rect><rect class="backbar" x="73" width="31" y="73.33333333333334" height="66.66666666666666" fill="transparent" opacity="0"></rect><rect class="backbar" x="107" width="31" y="73.33333333333334" height="66.66666666666666" fill="transparent" opacity="0"></rect><rect class="backbar" x="141" width="31" y="73.33333333333334" height="66.66666666666666" fill="transparent" opacity="0"></rect><rect class="backbar" x="175" width="31" y="73.33333333333334" height="66.66666666666666" fill="transparent" opacity="0"></rect><rect class="backbar" x="209" width="31" y="73.33333333333334" height="66.66666666666666" fill="transparent" opacity="0"></rect><rect class="backbar" x="243" width="31" y="73.33333333333334" height="66.66666666666666" fill="transparent" opacity="0"></rect><rect class="backbar" x="277" width="31" y="73.33333333333334" height="66.66666666666666" fill="transparent" opacity="0"></rect><rect class="backbar" x="311" width="31" y="73.33333333333334" height="66.66666666666666" fill="transparent" opacity="0"></rect><rect class="backbar" x="345" width="31" y="73.33333333333334" height="66.66666666666666" fill="transparent" opacity="0"></rect><rect class="bar" x="5" width="31" y="6.666666666666674" height="133.33333333333331" fill="#ff0000"></rect><rect class="bar" x="39" width="31" y="91.28205128205126" height="48.717948717948744" fill="#8e8ef1"></rect><rect class="bar" x="73" width="31" y="122.05128205128206" height="17.948717948717942" fill="#0000ff"></rect><rect class="bar" x="107" width="31" y="134.87179487179486" height="5.128205128205138" fill="#ff7b6f"></rect><rect class="bar" x="141" width="31" y="134.87179487179486" height="5.128205128205138" fill="#ff8174"></rect><rect class="bar" x="175" width="31" y="140" height="0" fill="#0000ff"></rect><rect class="bar" x="209" width="31" y="140" height="0" fill="#0000ff"></rect><rect class="bar" x="243" width="31" y="140" height="0" fill="#0000ff"></rect><rect class="bar" x="277" width="31" y="140" height="0" fill="#0000ff"></rect><rect class="bar" x="311" width="31" y="140" height="0" fill="#0000ff"></rect><rect class="bar" x="345" width="31" y="140" height="0" fill="#0000ff"></rect><text x="17.09090909090909" y="6.800000000000008" text-anchor="start" style="font-family: sans-serif;">*</text><text x="51.09090909090909" y="93.10769230769229" text-anchor="start" style="font-family: sans-serif;">*</text><text x="85.0909090909091" y="124.4923076923077" text-anchor="start" style="font-family: sans-serif;">*</text><g class="x axis" transform="translate(0,140)"><g class="tick" transform="translate(20.5,0)" style="opacity: 1;"><line y2="6" x2="0"></line><text dy="-.45em" y="9" x="0" transform="rotate(-65)" dx="-.65em" style="text-anchor: end; font-family: sans-serif; font-size: 11px;">ncRNA_intronic</text></g><g class="tick" transform="translate(54.5,0)" style="opacity: 1;"><line y2="6" x2="0"></line><text dy="-.45em" y="9" x="0" transform="rotate(-65)" dx="-.65em" style="text-anchor: end; font-family: sans-serif; font-size: 11px;">intergenic</text></g><g class="tick" transform="translate(88.5,0)" style="opacity: 1;"><line y2="6" x2="0"></line><text dy="-.45em" y="9" x="0" transform="rotate(-65)" dx="-.65em" style="text-anchor: end; font-family: sans-serif; font-size: 11px;">intronic</text></g><g class="tick" transform="translate(122.5,0)" style="opacity: 1;"><line y2="6" x2="0"></line><text dy="-.45em" y="9" x="0" transform="rotate(-65)" dx="-.65em" style="text-anchor: end; font-family: sans-serif; font-size: 11px;">ncRNA_exonic</text></g><g class="tick" transform="translate(156.5,0)" style="opacity: 1;"><line y2="6" x2="0"></line><text dy="-.45em" y="9" x="0" transform="rotate(-65)" dx="-.65em" style="text-anchor: end; font-family: sans-serif; font-size: 11px;">upstream</text></g><g class="tick" transform="translate(190.5,0)" style="opacity: 1;"><line y2="6" x2="0"></line><text dy="-.45em" y="9" x="0" transform="rotate(-65)" dx="-.65em" style="text-anchor: end; font-family: sans-serif; font-size: 11px;">UTR3</text></g><g class="tick" transform="translate(224.5,0)" style="opacity: 1;"><line y2="6" x2="0"></line><text dy="-.45em" y="9" x="0" transform="rotate(-65)" dx="-.65em" style="text-anchor: end; font-family: sans-serif; font-size: 11px;">UTR5</text></g><g class="tick" transform="translate(258.5,0)" style="opacity: 1;"><line y2="6" x2="0"></line><text dy="-.45em" y="9" x="0" transform="rotate(-65)" dx="-.65em" style="text-anchor: end; font-family: sans-serif; font-size: 11px;">downstream</text></g><g class="tick" transform="translate(292.5,0)" style="opacity: 1;"><line y2="6" x2="0"></line><text dy="-.45em" y="9" x="0" transform="rotate(-65)" dx="-.65em" style="text-anchor: end; font-family: sans-serif; font-size: 11px;">exonic</text></g><g class="tick" transform="translate(326.5,0)" style="opacity: 1;"><line y2="6" x2="0"></line><text dy="-.45em" y="9" x="0" transform="rotate(-65)" dx="-.65em" style="text-anchor: end; font-family: sans-serif; font-size: 11px;">ncRNA_splicing</text></g><g class="tick" transform="translate(360.5,0)" style="opacity: 1;"><line y2="6" x2="0"></line><text dy="-.45em" y="9" x="0" transform="rotate(-65)" dx="-.65em" style="text-anchor: end; font-family: sans-serif; font-size: 11px;">splicing</text></g><path class="domain" d="M0,6V0H380V6" style="fill: none; stroke: grey;"></path></g><g class="y axis"><g class="tick" transform="translate(0,140)" style="opacity: 1;"><line x2="-6" y2="0"></line><text dy=".32em" x="-9" y="0" style="text-anchor: end; font-family: sans-serif; font-size: 11px;">0.0</text></g><g class="tick" transform="translate(0,118.97435897435899)" style="opacity: 1;"><line x2="-6" y2="0"></line><text dy=".32em" x="-9" y="0" style="text-anchor: end; font-family: sans-serif; font-size: 11px;">0.1</text></g><g class="tick" transform="translate(0,97.94871794871797)" style="opacity: 1;"><line x2="-6" y2="0"></line><text dy=".32em" x="-9" y="0" style="text-anchor: end; font-family: sans-serif; font-size: 11px;">0.2</text></g><g class="tick" transform="translate(0,76.92307692307696)" style="opacity: 1;"><line x2="-6" y2="0"></line><text dy=".32em" x="-9" y="0" style="text-anchor: end; font-family: sans-serif; font-size: 11px;">0.3</text></g><g class="tick" transform="translate(0,55.89743589743593)" style="opacity: 1;"><line x2="-6" y2="0"></line><text dy=".32em" x="-9" y="0" style="text-anchor: end; font-family: sans-serif; font-size: 11px;">0.4</text></g><g class="tick" transform="translate(0,34.87179487179493)" style="opacity: 1;"><line x2="-6" y2="0"></line><text dy=".32em" x="-9" y="0" style="text-anchor: end; font-family: sans-serif; font-size: 11px;">0.5</text></g><g class="tick" transform="translate(0,13.846153846153921)" style="opacity: 1;"><line x2="-6" y2="0"></line><text dy=".32em" x="-9" y="0" style="text-anchor: end; font-family: sans-serif; font-size: 11px;">0.6</text></g><path class="domain" d="M-6,0H0V140H-6" style="fill: none; stroke: grey;"></path><text transform="rotate(-90)" dy=".71em" style="text-anchor: end; font-family: sans-serif; font-size: 11px;"></text></g><text text-anchor="middle" transform="translate(-28,70)rotate(-90)" style="font-family: sans-serif;">Proportion</text></g></svg>