<svg class="plotSVG" width="810" height="220"><g transform="translate(180,60)"><rect class="bar" x="0" width="120.71434606126101" y="1.4754098360655739" height="13.278688524590164" fill="lightgreen"></rect><rect class="bar" x="0" width="9.390554995819846" y="16.229508196721312" height="13.278688524590164" fill="lightgreen"></rect><rect class="bar" x="0" width="14.409866928614571" y="30.983606557377048" height="13.278688524590164" fill="lightgreen"></rect><rect class="bar" x="0" width="12.121059274960814" y="45.73770491803278" height="13.278688524590164" fill="lightgreen"></rect><rect class="bar" x="0" width="71.97571853882499" y="60.49180327868852" height="13.278688524590164" fill="lightgreen"></rect><rect class="bar" x="0" width="140" y="75.24590163934427" height="13.278688524590164" fill="lightgreen"></rect><g class="x axis" transform="translate(0,90)"><g class="tick" transform="translate(0,0)" style="opacity: 1;"><line y2="6" x2="0" style="fill: none; stroke: grey;"></line><text dy=".71em" y="9" x="0" transform="translate(-12,3)rotate(-65)" style="text-anchor: end; font-family: sans-serif; font-size: 11px;">0</text></g><g class="tick" transform="translate(17.653742025867775,0)" style="opacity: 1;"><line y2="6" x2="0" style="fill: none; stroke: grey;"></line><text dy=".71em" y="9" x="0" transform="translate(-12,3)rotate(-65)" style="text-anchor: end; font-family: sans-serif; font-size: 11px;">100</text></g><g class="tick" transform="translate(35.30748405173555,0)" style="opacity: 1;"><line y2="6" x2="0" style="fill: none; stroke: grey;"></line><text dy=".71em" y="9" x="0" transform="translate(-12,3)rotate(-65)" style="text-anchor: end; font-family: sans-serif; font-size: 11px;">200</text></g><g class="tick" transform="translate(52.96122607760333,0)" style="opacity: 1;"><line y2="6" x2="0" style="fill: none; stroke: grey;"></line><text dy=".71em" y="9" x="0" transform="translate(-12,3)rotate(-65)" style="text-anchor: end; font-family: sans-serif; font-size: 11px;">300</text></g><g class="tick" transform="translate(70.6149681034711,0)" style="opacity: 1;"><line y2="6" x2="0" style="fill: none; stroke: grey;"></line><text dy=".71em" y="9" x="0" transform="translate(-12,3)rotate(-65)" style="text-anchor: end; font-family: sans-serif; font-size: 11px;">400</text></g><g class="tick" transform="translate(88.26871012933888,0)" style="opacity: 1;"><line y2="6" x2="0" style="fill: none; stroke: grey;"></line><text dy=".71em" y="9" x="0" transform="translate(-12,3)rotate(-65)" style="text-anchor: end; font-family: sans-serif; font-size: 11px;">500</text></g><g class="tick" transform="translate(105.92245215520666,0)" style="opacity: 1;"><line y2="6" x2="0" style="fill: none; stroke: grey;"></line><text dy=".71em" y="9" x="0" transform="translate(-12,3)rotate(-65)" style="text-anchor: end; font-family: sans-serif; font-size: 11px;">600</text></g><g class="tick" transform="translate(123.57619418107443,0)" style="opacity: 1;"><line y2="6" x2="0" style="fill: none; stroke: grey;"></line><text dy=".71em" y="9" x="0" transform="translate(-12,3)rotate(-65)" style="text-anchor: end; font-family: sans-serif; font-size: 11px;">700</text></g><path class="domain" d="M0,6V0H140V6" style="fill: none; stroke: grey;"></path></g><g class="y axis"><g class="tick" transform="translate(0,8.114754098360656)" style="opacity: 1;"><line x2="-6" y2="0" style="fill: none; stroke: grey;"></line><text dy=".32em" x="-9" y="0" style="text-anchor: end; font-family: sans-serif; font-size: 11px;">1:73412144-74095933</text></g><g class="tick" transform="translate(0,22.868852459016395)" style="opacity: 1;"><line x2="-6" y2="0" style="fill: none; stroke: grey;"></line><text dy=".32em" x="-9" y="0" style="text-anchor: end; font-family: sans-serif; font-size: 11px;">9:101619466-101672659</text></g><g class="tick" transform="translate(0,37.62295081967213)" style="opacity: 1;"><line x2="-6" y2="0" style="fill: none; stroke: grey;"></line><text dy=".32em" x="-9" y="0" style="text-anchor: end; font-family: sans-serif; font-size: 11px;">14:59588323-59669948</text></g><g class="tick" transform="translate(0,52.377049180327866)" style="opacity: 1;"><line x2="-6" y2="0" style="fill: none; stroke: grey;"></line><text dy=".32em" x="-9" y="0" style="text-anchor: end; font-family: sans-serif; font-size: 11px;">15:39595340-39664000</text></g><g class="tick" transform="translate(0,67.1311475409836)" style="opacity: 1;"><line x2="-6" y2="0" style="fill: none; stroke: grey;"></line><text dy=".32em" x="-9" y="0" style="text-anchor: end; font-family: sans-serif; font-size: 11px;">16:89765046-90172754</text></g><g class="tick" transform="translate(0,81.88524590163935)" style="opacity: 1;"><line x2="-6" y2="0" style="fill: none; stroke: grey;"></line><text dy=".32em" x="-9" y="0" style="text-anchor: end; font-family: sans-serif; font-size: 11px;">17:44040184-44833217</text></g><path class="domain" d="M-6,0H0V90H-6" style="fill: none; stroke: grey;"></path><text transform="rotate(-90)" dy=".71em" style="text-anchor: end; font-family: sans-serif; font-size: 11px;"></text></g><text text-anchor="middle" transform="translate(-50,-5)" style="font-family: sans-serif;">Genomic loci</text><text text-anchor="middle" transform="translate(70,-5)" style="text-anchor: middle; font-family: sans-serif;">Size (kb)</text><text text-anchor="middle" transform="translate(70,140)" style="text-anchor: middle; font-family: sans-serif;">Size (kb)</text><rect class="bar" x="150" width="20.96385542168673" y="1.4754098360655739" height="13.278688524590164" fill="skyblue"></rect><rect class="bar" x="150" width="7.951807228915669" y="16.229508196721312" height="13.278688524590164" fill="skyblue"></rect><rect class="bar" x="150" width="12.04819277108433" y="30.983606557377048" height="13.278688524590164" fill="skyblue"></rect><rect class="bar" x="150" width="13.253012048192772" y="45.73770491803278" height="13.278688524590164" fill="skyblue"></rect><rect class="bar" x="150" width="140" y="60.49180327868852" height="13.278688524590164" fill="skyblue"></rect><rect class="bar" x="150" width="13.493975903614455" y="75.24590163934427" height="13.278688524590164" fill="skyblue"></rect><g class="x axis" transform="translate(0,90)"><g class="tick" transform="translate(150,0)" style="opacity: 1;"><line y2="6" x2="0" style="fill: none; stroke: grey;"></line><text dy=".71em" y="9" x="0" transform="translate(-12,3)rotate(-65)" style="text-anchor: end; font-family: sans-serif; font-size: 11px;">0</text></g><g class="tick" transform="translate(162.04819277108433,0)" style="opacity: 1;"><line y2="6" x2="0" style="fill: none; stroke: grey;"></line><text dy=".71em" y="9" x="0" transform="translate(-12,3)rotate(-65)" style="text-anchor: end; font-family: sans-serif; font-size: 11px;">50</text></g><g class="tick" transform="translate(174.09638554216866,0)" style="opacity: 1;"><line y2="6" x2="0" style="fill: none; stroke: grey;"></line><text dy=".71em" y="9" x="0" transform="translate(-12,3)rotate(-65)" style="text-anchor: end; font-family: sans-serif; font-size: 11px;">100</text></g><g class="tick" transform="translate(186.14457831325302,0)" style="opacity: 1;"><line y2="6" x2="0" style="fill: none; stroke: grey;"></line><text dy=".71em" y="9" x="0" transform="translate(-12,3)rotate(-65)" style="text-anchor: end; font-family: sans-serif; font-size: 11px;">150</text></g><g class="tick" transform="translate(198.19277108433735,0)" style="opacity: 1;"><line y2="6" x2="0" style="fill: none; stroke: grey;"></line><text dy=".71em" y="9" x="0" transform="translate(-12,3)rotate(-65)" style="text-anchor: end; font-family: sans-serif; font-size: 11px;">200</text></g><g class="tick" transform="translate(210.24096385542168,0)" style="opacity: 1;"><line y2="6" x2="0" style="fill: none; stroke: grey;"></line><text dy=".71em" y="9" x="0" transform="translate(-12,3)rotate(-65)" style="text-anchor: end; font-family: sans-serif; font-size: 11px;">250</text></g><g class="tick" transform="translate(222.28915662650604,0)" style="opacity: 1;"><line y2="6" x2="0" style="fill: none; stroke: grey;"></line><text dy=".71em" y="9" x="0" transform="translate(-12,3)rotate(-65)" style="text-anchor: end; font-family: sans-serif; font-size: 11px;">300</text></g><g class="tick" transform="translate(234.33734939759034,0)" style="opacity: 1;"><line y2="6" x2="0" style="fill: none; stroke: grey;"></line><text dy=".71em" y="9" x="0" transform="translate(-12,3)rotate(-65)" style="text-anchor: end; font-family: sans-serif; font-size: 11px;">350</text></g><g class="tick" transform="translate(246.3855421686747,0)" style="opacity: 1;"><line y2="6" x2="0" style="fill: none; stroke: grey;"></line><text dy=".71em" y="9" x="0" transform="translate(-12,3)rotate(-65)" style="text-anchor: end; font-family: sans-serif; font-size: 11px;">400</text></g><g class="tick" transform="translate(258.43373493975906,0)" style="opacity: 1;"><line y2="6" x2="0" style="fill: none; stroke: grey;"></line><text dy=".71em" y="9" x="0" transform="translate(-12,3)rotate(-65)" style="text-anchor: end; font-family: sans-serif; font-size: 11px;">450</text></g><g class="tick" transform="translate(270.48192771084337,0)" style="opacity: 1;"><line y2="6" x2="0" style="fill: none; stroke: grey;"></line><text dy=".71em" y="9" x="0" transform="translate(-12,3)rotate(-65)" style="text-anchor: end; font-family: sans-serif; font-size: 11px;">500</text></g><g class="tick" transform="translate(282.53012048192767,0)" style="opacity: 1;"><line y2="6" x2="0" style="fill: none; stroke: grey;"></line><text dy=".71em" y="9" x="0" transform="translate(-12,3)rotate(-65)" style="text-anchor: end; font-family: sans-serif; font-size: 11px;">550</text></g><path class="domain" d="M150,6V0H290V6" style="fill: none; stroke: grey;"></path></g><g class="y axis" transform="translate(150,0)"><g class="tick" transform="translate(0,8.114754098360656)" style="opacity: 1;"><line x2="-6" y2="0" style="fill: none; stroke: grey;"></line></g><g class="tick" transform="translate(0,22.868852459016395)" style="opacity: 1;"><line x2="-6" y2="0" style="fill: none; stroke: grey;"></line></g><g class="tick" transform="translate(0,37.62295081967213)" style="opacity: 1;"><line x2="-6" y2="0" style="fill: none; stroke: grey;"></line></g><g class="tick" transform="translate(0,52.377049180327866)" style="opacity: 1;"><line x2="-6" y2="0" style="fill: none; stroke: grey;"></line></g><g class="tick" transform="translate(0,67.1311475409836)" style="opacity: 1;"><line x2="-6" y2="0" style="fill: none; stroke: grey;"></line></g><g class="tick" transform="translate(0,81.88524590163935)" style="opacity: 1;"><line x2="-6" y2="0" style="fill: none; stroke: grey;"></line></g><path class="domain" d="M-6,0H0V90H-6" style="fill: none; stroke: grey;"></path></g><text text-anchor="middle" transform="translate(220,-5)" style="text-anchor: middle; font-family: sans-serif;">#SNPs</text><text text-anchor="middle" transform="translate(220,140)" style="text-anchor: middle; font-family: sans-serif;">#SNPs</text><rect class="bar" x="300" width="0" y="1.4754098360655739" height="13.278688524590164" fill="orange"></rect><rect class="bar" x="300" width="8.75" y="16.229508196721312" height="13.278688524590164" fill="orange"></rect><rect class="bar" x="300" width="8.75" y="30.983606557377048" height="13.278688524590164" fill="orange"></rect><rect class="bar" x="300" width="0" y="45.73770491803278" height="13.278688524590164" fill="orange"></rect><rect class="bar" x="300" width="140" y="60.49180327868852" height="13.278688524590164" fill="orange"></rect><rect class="bar" x="300" width="61.25" y="75.24590163934427" height="13.278688524590164" fill="orange"></rect><g class="x axis" transform="translate(0,90)"><g class="tick" transform="translate(300,0)" style="opacity: 1;"><line y2="6" x2="0" style="fill: none; stroke: grey;"></line><text dy=".71em" y="9" x="0" transform="translate(-12,3)rotate(-65)" style="text-anchor: end; font-family: sans-serif; font-size: 11px;">0</text></g><g class="tick" transform="translate(317.5,0)" style="opacity: 1;"><line y2="6" x2="0" style="fill: none; stroke: grey;"></line><text dy=".71em" y="9" x="0" transform="translate(-12,3)rotate(-65)" style="text-anchor: end; font-family: sans-serif; font-size: 11px;">2</text></g><g class="tick" transform="translate(335,0)" style="opacity: 1;"><line y2="6" x2="0" style="fill: none; stroke: grey;"></line><text dy=".71em" y="9" x="0" transform="translate(-12,3)rotate(-65)" style="text-anchor: end; font-family: sans-serif; font-size: 11px;">4</text></g><g class="tick" transform="translate(352.5,0)" style="opacity: 1;"><line y2="6" x2="0" style="fill: none; stroke: grey;"></line><text dy=".71em" y="9" x="0" transform="translate(-12,3)rotate(-65)" style="text-anchor: end; font-family: sans-serif; font-size: 11px;">6</text></g><g class="tick" transform="translate(370,0)" style="opacity: 1;"><line y2="6" x2="0" style="fill: none; stroke: grey;"></line><text dy=".71em" y="9" x="0" transform="translate(-12,3)rotate(-65)" style="text-anchor: end; font-family: sans-serif; font-size: 11px;">8</text></g><g class="tick" transform="translate(387.5,0)" style="opacity: 1;"><line y2="6" x2="0" style="fill: none; stroke: grey;"></line><text dy=".71em" y="9" x="0" transform="translate(-12,3)rotate(-65)" style="text-anchor: end; font-family: sans-serif; font-size: 11px;">10</text></g><g class="tick" transform="translate(405,0)" style="opacity: 1;"><line y2="6" x2="0" style="fill: none; stroke: grey;"></line><text dy=".71em" y="9" x="0" transform="translate(-12,3)rotate(-65)" style="text-anchor: end; font-family: sans-serif; font-size: 11px;">12</text></g><g class="tick" transform="translate(422.5,0)" style="opacity: 1;"><line y2="6" x2="0" style="fill: none; stroke: grey;"></line><text dy=".71em" y="9" x="0" transform="translate(-12,3)rotate(-65)" style="text-anchor: end; font-family: sans-serif; font-size: 11px;">14</text></g><g class="tick" transform="translate(440,0)" style="opacity: 1;"><line y2="6" x2="0" style="fill: none; stroke: grey;"></line><text dy=".71em" y="9" x="0" transform="translate(-12,3)rotate(-65)" style="text-anchor: end; font-family: sans-serif; font-size: 11px;">16</text></g><path class="domain" d="M300,6V0H440V6" style="fill: none; stroke: grey;"></path></g><g class="y axis" transform="translate(300,0)"><g class="tick" transform="translate(0,8.114754098360656)" style="opacity: 1;"><line x2="-6" y2="0" style="fill: none; stroke: grey;"></line></g><g class="tick" transform="translate(0,22.868852459016395)" style="opacity: 1;"><line x2="-6" y2="0" style="fill: none; stroke: grey;"></line></g><g class="tick" transform="translate(0,37.62295081967213)" style="opacity: 1;"><line x2="-6" y2="0" style="fill: none; stroke: grey;"></line></g><g class="tick" transform="translate(0,52.377049180327866)" style="opacity: 1;"><line x2="-6" y2="0" style="fill: none; stroke: grey;"></line></g><g class="tick" transform="translate(0,67.1311475409836)" style="opacity: 1;"><line x2="-6" y2="0" style="fill: none; stroke: grey;"></line></g><g class="tick" transform="translate(0,81.88524590163935)" style="opacity: 1;"><line x2="-6" y2="0" style="fill: none; stroke: grey;"></line></g><path class="domain" d="M-6,0H0V90H-6" style="fill: none; stroke: grey;"></path></g><text text-anchor="middle" transform="translate(370,-5)" style="text-anchor: middle; font-family: sans-serif;">#mapped genes</text><text text-anchor="middle" transform="translate(370,140)" style="text-anchor: middle; font-family: sans-serif;">#mapped genes</text><rect class="bar" x="450" width="0" y="1.4754098360655739" height="13.278688524590164" fill="pink"></rect><rect class="bar" x="450" width="0" y="16.229508196721312" height="13.278688524590164" fill="pink"></rect><rect class="bar" x="450" width="9.333333333333314" y="30.983606557377048" height="13.278688524590164" fill="pink"></rect><rect class="bar" x="450" width="0" y="45.73770491803278" height="13.278688524590164" fill="pink"></rect><rect class="bar" x="450" width="140" y="60.49180327868852" height="13.278688524590164" fill="pink"></rect><rect class="bar" x="450" width="74.66666666666674" y="75.24590163934427" height="13.278688524590164" fill="pink"></rect><g class="x axis" transform="translate(0,90)"><g class="tick" transform="translate(450,0)" style="opacity: 1;"><line y2="6" x2="0" style="fill: none; stroke: grey;"></line><text dy=".71em" y="9" x="0" transform="translate(-12,3)rotate(-65)" style="text-anchor: end; font-family: sans-serif; font-size: 11px;">0</text></g><g class="tick" transform="translate(468.6666666666667,0)" style="opacity: 1;"><line y2="6" x2="0" style="fill: none; stroke: grey;"></line><text dy=".71em" y="9" x="0" transform="translate(-12,3)rotate(-65)" style="text-anchor: end; font-family: sans-serif; font-size: 11px;">2</text></g><g class="tick" transform="translate(487.33333333333337,0)" style="opacity: 1;"><line y2="6" x2="0" style="fill: none; stroke: grey;"></line><text dy=".71em" y="9" x="0" transform="translate(-12,3)rotate(-65)" style="text-anchor: end; font-family: sans-serif; font-size: 11px;">4</text></g><g class="tick" transform="translate(506,0)" style="opacity: 1;"><line y2="6" x2="0" style="fill: none; stroke: grey;"></line><text dy=".71em" y="9" x="0" transform="translate(-12,3)rotate(-65)" style="text-anchor: end; font-family: sans-serif; font-size: 11px;">6</text></g><g class="tick" transform="translate(524.6666666666667,0)" style="opacity: 1;"><line y2="6" x2="0" style="fill: none; stroke: grey;"></line><text dy=".71em" y="9" x="0" transform="translate(-12,3)rotate(-65)" style="text-anchor: end; font-family: sans-serif; font-size: 11px;">8</text></g><g class="tick" transform="translate(543.3333333333334,0)" style="opacity: 1;"><line y2="6" x2="0" style="fill: none; stroke: grey;"></line><text dy=".71em" y="9" x="0" transform="translate(-12,3)rotate(-65)" style="text-anchor: end; font-family: sans-serif; font-size: 11px;">10</text></g><g class="tick" transform="translate(562,0)" style="opacity: 1;"><line y2="6" x2="0" style="fill: none; stroke: grey;"></line><text dy=".71em" y="9" x="0" transform="translate(-12,3)rotate(-65)" style="text-anchor: end; font-family: sans-serif; font-size: 11px;">12</text></g><g class="tick" transform="translate(580.6666666666666,0)" style="opacity: 1;"><line y2="6" x2="0" style="fill: none; stroke: grey;"></line><text dy=".71em" y="9" x="0" transform="translate(-12,3)rotate(-65)" style="text-anchor: end; font-family: sans-serif; font-size: 11px;">14</text></g><path class="domain" d="M450,6V0H590V6" style="fill: none; stroke: grey;"></path></g><g class="y axis" transform="translate(450,0)"><g class="tick" transform="translate(0,8.114754098360656)" style="opacity: 1;"><line x2="-6" y2="0" style="fill: none; stroke: grey;"></line></g><g class="tick" transform="translate(0,22.868852459016395)" style="opacity: 1;"><line x2="-6" y2="0" style="fill: none; stroke: grey;"></line></g><g class="tick" transform="translate(0,37.62295081967213)" style="opacity: 1;"><line x2="-6" y2="0" style="fill: none; stroke: grey;"></line></g><g class="tick" transform="translate(0,52.377049180327866)" style="opacity: 1;"><line x2="-6" y2="0" style="fill: none; stroke: grey;"></line></g><g class="tick" transform="translate(0,67.1311475409836)" style="opacity: 1;"><line x2="-6" y2="0" style="fill: none; stroke: grey;"></line></g><g class="tick" transform="translate(0,81.88524590163935)" style="opacity: 1;"><line x2="-6" y2="0" style="fill: none; stroke: grey;"></line></g><path class="domain" d="M-6,0H0V90H-6" style="fill: none; stroke: grey;"></path></g><text text-anchor="middle" transform="translate(520,-20)" style="text-anchor: middle; font-family: sans-serif;">#genes physically</text><text text-anchor="middle" transform="translate(520,-5)" style="text-anchor: middle; font-family: sans-serif;">located in loci</text><text text-anchor="middle" transform="translate(520,140)" style="text-anchor: middle; font-family: sans-serif;">#genes physically</text><text text-anchor="middle" transform="translate(520,155)" style="text-anchor: middle; font-family: sans-serif;">located in loci</text></g></svg>