<svg width="380" height="380"><g transform="translate(50,30)"><circle r="2" cx="0.6134252318736596" cy="299.8067286030257" fill="grey"></circle><circle r="2" cx="0.33102045535300545" cy="299.93126264841794" fill="grey"></circle><circle r="2" cx="1.8834667118766537" cy="299.2338404510876" fill="grey"></circle><circle r="2" cx="1.4924622706663802" cy="299.4120259500795" fill="grey"></circle><circle r="2" cx="2.1480804496017765" cy="299.1135356771249" fill="grey"></circle><circle r="2" cx="2.658922979514369" cy="298.8808838998065" fill="grey"></circle><circle r="2" cx="3.089078294580775" cy="298.68550935059477" fill="grey"></circle><circle r="2" cx="3.097818035647925" cy="298.6815244997097" fill="grey"></circle><circle r="2" cx="4.170490571418635" cy="298.19828002759215" fill="grey"></circle><circle r="2" cx="4.1805366904004435" cy="298.1938577840588" fill="grey"></circle><circle r="2" cx="5.207063265214796" cy="297.7313601788888" fill="grey"></circle><circle r="2" cx="5.940458011377679" cy="297.39881136309845" fill="grey"></circle><circle r="2" cx="6.459660131344657" cy="297.16351393813767" fill="grey"></circle><circle r="2" cx="6.205816611436151" cy="297.2789575455224" fill="grey"></circle><circle r="2" cx="6.939816461264657" cy="296.94757104350214" fill="grey"></circle><circle r="2" cx="7.512937261144048" cy="296.68911066573565" fill="grey"></circle><circle r="2" cx="8.412167465731379" cy="296.28179790982824" fill="grey"></circle><circle r="2" cx="8.110170385731843" cy="296.41842348325565" fill="grey"></circle><circle r="2" cx="9.216867652538056" cy="295.918791954674" fill="grey"></circle><circle r="2" cx="9.064867851505673" cy="295.9873459078553" fill="grey"></circle><circle r="2" cx="9.961814675221133" cy="295.58257650637273" fill="grey"></circle><circle r="2" cx="10.520693777013784" cy="295.3311597795377" fill="grey"></circle><circle r="2" cx="11.809090632965736" cy="294.750223011725" fill="grey"></circle><circle r="2" cx="11.082840947492606" cy="295.07878990526643" fill="grey"></circle><circle r="2" cx="12.081099503247872" cy="294.6267763359989" fill="grey"></circle><circle r="2" cx="11.929127142835679" cy="294.6961240991619" fill="grey"></circle><circle r="2" cx="13.310288802077661" cy="294.07280877679125" fill="grey"></circle><circle r="2" cx="13.07765669969419" cy="294.17697408439204" fill="grey"></circle><circle r="2" cx="13.934993191081993" cy="293.7913051331796" fill="grey"></circle><circle r="2" cx="14.227140311185273" cy="293.65850366160487" fill="grey"></circle><circle r="2" cx="15.008247482318698" cy="293.30523486916127" fill="grey"></circle><circle r="2" cx="15.393388588905127" cy="293.1320433390717" fill="grey"></circle><circle r="2" cx="16.148732632956357" cy="292.7915560886592" fill="grey"></circle><circle r="2" cx="16.52148971002694" cy="292.6233250218212" fill="grey"></circle><circle r="2" cx="17.634068629617826" cy="292.12262508863705" fill="grey"></circle><circle r="2" cx="17.616884624851952" cy="292.13049165722083" fill="grey"></circle><circle r="2" cx="18.318435702022043" cy="291.81366123848125" fill="grey"></circle><circle r="2" cx="17.868775665772866" cy="292.01621922756357" fill="grey"></circle><circle r="2" cx="19.632121550719578" cy="291.22340135856365" fill="grey"></circle><circle r="2" cx="18.932827016826103" cy="291.53684268000325" fill="grey"></circle><circle r="2" cx="20.637145334281044" cy="290.7731211335379" fill="grey"></circle><circle r="2" cx="20.672745528980624" cy="290.7573813555933" fill="grey"></circle><circle r="2" cx="21.385998196331787" cy="290.4365883600628" fill="grey"></circle><circle r="2" cx="21.416906598795624" cy="290.4225161367191" fill="grey"></circle><circle r="2" cx="22.387880351630727" cy="289.9855944607613" fill="grey"></circle><circle r="2" cx="21.826205142605282" cy="290.2388018713223" fill="grey"></circle><circle r="2" cx="22.929131904714833" cy="289.7407426997816" fill="grey"></circle><circle r="2" cx="23.14267481475923" cy="289.6446487583304" fill="grey"></circle><circle r="2" cx="24.0798159528361" cy="289.2205671911749" fill="grey"></circle><circle r="2" cx="23.790597178695563" cy="289.3519378357777" fill="grey"></circle><circle r="2" cx="25.327953761668805" cy="288.65948039646497" fill="grey"></circle><circle r="2" cx="25.064836402618546" cy="288.7772405096128" fill="grey"></circle><circle r="2" cx="26.057003138356958" cy="288.3296790617121" fill="grey"></circle><circle r="2" cx="25.975271949936115" cy="288.3670128946663" fill="grey"></circle><circle r="2" cx="27.606256085646418" cy="287.6303119329108" fill="grey"></circle><circle r="2" cx="27.598102589202444" cy="287.6341289106983" fill="grey"></circle><circle r="2" cx="27.80209496931375" cy="287.5416132628274" fill="grey"></circle><circle r="2" cx="27.94340051439194" cy="287.4774132595128" fill="grey"></circle><circle r="2" cx="29.32890008501337" cy="286.8503530875472" fill="grey"></circle><circle r="2" cx="28.74533948675476" cy="287.11356308334564" fill="grey"></circle><circle r="2" cx="29.960068118463234" cy="286.56356090756566" fill="grey"></circle><circle r="2" cx="30.12290405894196" cy="286.489332889804" fill="grey"></circle><circle r="2" cx="31.252782309583573" cy="285.97819717879906" fill="grey"></circle><circle r="2" cx="31.504417310230387" cy="285.8631461759286" fill="grey"></circle><circle r="2" cx="32.34415248186772" cy="285.48241226982867" fill="grey"></circle><circle r="2" cx="32.1351033007419" cy="285.57670079287357" fill="grey"></circle><circle r="2" cx="33.6295481705911" cy="284.8998395491973" fill="grey"></circle><circle r="2" cx="32.96977592226662" cy="285.20048987310633" fill="grey"></circle><circle r="2" cx="34.362291780658566" cy="284.5736256197644" fill="grey"></circle><circle r="2" cx="34.45106258288342" cy="284.5338661097676" fill="grey"></circle><circle r="2" cx="35.39692034647574" cy="284.104992869112" fill="grey"></circle><circle r="2" cx="35.45735237713148" cy="284.0780853825576" fill="grey"></circle><circle r="2" cx="36.42851912259429" cy="283.6354337533286" fill="grey"></circle><circle r="2" cx="35.73364632642766" cy="283.9508580056352" fill="grey"></circle><circle r="2" cx="37.53807368388648" cy="283.136505959227" fill="grey"></circle><circle r="2" cx="36.82536850862385" cy="283.45461930802884" fill="grey"></circle><circle r="2" cx="38.11904735214376" cy="282.8761669291726" fill="grey"></circle><circle r="2" cx="38.231665309514554" cy="282.82627998593534" fill="grey"></circle><circle r="2" cx="39.24567912136815" cy="282.36981563651557" fill="grey"></circle><circle r="2" cx="38.68648877160771" cy="282.62061837567626" fill="grey"></circle><circle r="2" cx="40.46479751966156" cy="281.81620623151287" fill="grey"></circle><circle r="2" cx="39.9214880389531" cy="282.0625082230627" fill="grey"></circle><circle r="2" cx="40.9148205053084" cy="281.6131345712512" fill="grey"></circle><circle r="2" cx="41.173057196865585" cy="281.4956804074161" fill="grey"></circle><circle r="2" cx="41.86338433460196" cy="281.1814482659279" fill="grey"></circle><circle r="2" cx="42.44823744193808" cy="280.91370915392463" fill="grey"></circle><circle r="2" cx="43.284810251330285" cy="280.5257730480363" fill="grey"></circle><circle r="2" cx="43.00861283541125" cy="280.6528616714779" fill="grey"></circle><circle r="2" cx="43.97021375406033" cy="280.2113906453483" fill="grey"></circle><circle r="2" cx="44.019808742011925" cy="280.1886737718776" fill="grey"></circle><circle r="2" cx="44.74514862539116" cy="279.8560547777514" fill="grey"></circle><circle r="2" cx="44.95008541263406" cy="279.76002742517414" fill="grey"></circle><circle r="2" cx="46.197569670083865" cy="279.18719345559794" fill="grey"></circle><circle r="2" cx="46.30317487917247" cy="279.1392255322363" fill="grey"></circle><circle r="2" cx="47.2564829991159" cy="278.7037942259287" fill="grey"></circle><circle r="2" cx="47.2077035799603" cy="278.7256529192759" fill="grey"></circle><circle r="2" cx="48.330223148812124" cy="278.2127454658693" fill="grey"></circle><circle r="2" cx="48.49389328392912" cy="278.13727767675147" fill="grey"></circle><circle r="2" cx="48.649497388335874" cy="278.06615893167304" fill="grey"></circle><circle r="2" cx="49.16172726725862" cy="277.831084209796" fill="grey"></circle><circle r="2" cx="49.98646549174741" cy="277.4523073478045" fill="grey"></circle><circle r="2" cx="49.97282384832258" cy="277.45805746235294" fill="grey"></circle><circle r="2" cx="50.70065921257464" cy="277.12427202380394" fill="grey"></circle><circle r="2" cx="50.59634697317206" cy="277.1723514703205" fill="grey"></circle><circle r="2" cx="51.49382363297531" cy="276.7649356051985" fill="grey"></circle><circle r="2" cx="52.17440810911478" cy="276.45578155260904" fill="grey"></circle><circle r="2" cx="52.59289066106132" cy="276.2637562501944" fill="grey"></circle><circle r="2" cx="53.152814785443276" cy="276.00429258364653" fill="grey"></circle><circle r="2" cx="53.966143097088036" cy="275.6263083104583" fill="grey"></circle><circle r="2" cx="53.780002673438155" cy="275.71218237152334" fill="grey"></circle><circle r="2" cx="55.29355120840441" cy="275.0253793986481" fill="grey"></circle><circle r="2" cx="55.315625569829685" cy="275.0150535325674" fill="grey"></circle><circle r="2" cx="55.792281744047855" cy="274.7925222154184" fill="grey"></circle><circle r="2" cx="56.21340892602185" cy="274.5976656384972" fill="grey"></circle><circle r="2" cx="56.64922646211066" cy="274.39609000682515" fill="grey"></circle><circle r="2" cx="57.01089676939948" cy="274.23083441145366" fill="grey"></circle><circle r="2" cx="57.575009980169746" cy="273.97455088172455" fill="grey"></circle><circle r="2" cx="57.7683485383811" cy="273.8858095339102" fill="grey"></circle><circle r="2" cx="59.10719675689024" cy="273.2708002367102" fill="grey"></circle><circle r="2" cx="59.04121850271296" cy="273.2986174669407" fill="grey"></circle><circle r="2" cx="60.005033162305125" cy="272.8519886048215" fill="grey"></circle><circle r="2" cx="59.912570246110675" cy="272.8952994760481" fill="grey"></circle><circle r="2" cx="61.34080388834586" cy="272.2398436675988" fill="grey"></circle><circle r="2" cx="60.73156496498582" cy="272.5186989169493" fill="grey"></circle><circle r="2" cx="62.11909360212874" cy="271.8866506576315" fill="grey"></circle><circle r="2" cx="62.30306926010424" cy="271.7986629679088" fill="grey"></circle><circle r="2" cx="62.987183393248884" cy="271.48321151874495" fill="grey"></circle><circle r="2" cx="63.259006126512425" cy="271.3572566650115" fill="grey"></circle><circle r="2" cx="64.1871535103924" cy="270.93731093896884" fill="grey"></circle><circle r="2" cx="64.355393326341" cy="270.8623779022094" fill="grey"></circle><circle r="2" cx="64.76854271428193" cy="270.66962523322803" fill="grey"></circle><circle r="2" cx="64.71605876942108" cy="270.6944705785675" fill="grey"></circle><circle r="2" cx="65.95786797947088" cy="270.1388459928545" fill="grey"></circle><circle r="2" cx="65.95432053433017" cy="270.140024170855" fill="grey"></circle><circle r="2" cx="67.00802978108423" cy="269.6641026620599" fill="grey"></circle><circle r="2" cx="66.93943568726802" cy="269.69540186162703" fill="grey"></circle><circle r="2" cx="67.70483927589623" cy="269.3478297545178" fill="grey"></circle><circle r="2" cx="67.4146929980896" cy="269.4790511348815" fill="grey"></circle><circle r="2" cx="68.35583554234731" cy="269.04493196890667" fill="grey"></circle><circle r="2" cx="68.70323879648583" cy="268.88001327275384" fill="grey"></circle><circle r="2" cx="70.20353314198582" cy="268.195821855561" fill="grey"></circle><circle r="2" cx="69.4642572830713" cy="268.5291032073227" fill="grey"></circle><circle r="2" cx="71.20052611354052" cy="267.7507632187134" fill="grey"></circle><circle r="2" cx="70.97833433565094" cy="267.84831290623185" fill="grey"></circle><circle r="2" cx="71.79505207709566" cy="267.4817197986205" fill="grey"></circle><circle r="2" cx="71.95249515118199" cy="267.41032639463316" fill="grey"></circle><circle r="2" cx="72.94720923040691" cy="266.9619084495474" fill="grey"></circle><circle r="2" cx="73.18922626900572" cy="266.8508128079521" fill="grey"></circle><circle r="2" cx="73.8057695488421" cy="266.5648517271413" fill="grey"></circle><circle r="2" cx="73.5789454120748" cy="266.67153819312614" fill="grey"></circle><circle r="2" cx="74.41559234679501" cy="266.283700358531" fill="grey"></circle><circle r="2" cx="74.40689974709315" cy="266.28769726298543" fill="grey"></circle><circle r="2" cx="76.21636654203127" cy="265.47945490649045" fill="grey"></circle><circle r="2" cx="75.59991613593667" cy="265.7524787620401" fill="grey"></circle><circle r="2" cx="76.36277641583646" cy="265.4132599528741" fill="grey"></circle><circle r="2" cx="76.25501870720495" cy="265.46157469287175" fill="grey"></circle><circle r="2" cx="77.80419129413731" cy="264.7630314849304" fill="grey"></circle><circle r="2" cx="77.92641164414468" cy="264.70887023669286" fill="grey"></circle><circle r="2" cx="78.83935452769482" cy="264.2869767909148" fill="grey"></circle><circle r="2" cx="79.18158959325525" cy="264.1348725843962" fill="grey"></circle><circle r="2" cx="79.59016980456903" cy="263.9404945191589" fill="grey"></circle><circle r="2" cx="79.60487146399826" cy="263.9346900413796" fill="grey"></circle><circle r="2" cx="80.65530513687288" cy="263.4526938962653" fill="grey"></circle><circle r="2" cx="80.62281155610805" cy="263.46966215741924" fill="grey"></circle><circle r="2" cx="81.58767633977897" cy="263.02377014160277" fill="grey"></circle><circle r="2" cx="81.85873800448256" cy="262.90258902578313" fill="grey"></circle><circle r="2" cx="82.42489408422529" cy="262.6583564951851" fill="grey"></circle><circle r="2" cx="82.81184034076438" cy="262.4800848982288" fill="grey"></circle><circle r="2" cx="83.38909921177823" cy="262.21544250662566" fill="grey"></circle><circle r="2" cx="83.88375980593733" cy="261.9922851692807" fill="grey"></circle><circle r="2" cx="84.19250593591893" cy="261.8456224674525" fill="grey"></circle><circle r="2" cx="84.45837238884086" cy="261.7252343338354" fill="grey"></circle><circle r="2" cx="85.65950798467863" cy="261.17220158283817" fill="grey"></circle><circle r="2" cx="85.41476038713199" cy="261.2871864952458" fill="grey"></circle><circle r="2" cx="86.58128102684816" cy="260.7494634303671" fill="grey"></circle><circle r="2" cx="86.42784024599229" cy="260.82040296409303" fill="grey"></circle><circle r="2" cx="87.69353600684151" cy="260.24587962264525" fill="grey"></circle><circle r="2" cx="88.04448464395597" cy="260.0955047502462" fill="grey"></circle><circle r="2" cx="88.97633128116996" cy="259.67603437406456" fill="grey"></circle><circle r="2" cx="89.05849723346171" cy="259.6400174874775" fill="grey"></circle><circle r="2" cx="89.69895618044549" cy="259.3628998692149" fill="grey"></circle><circle r="2" cx="89.68227464617176" cy="259.36929372867166" fill="grey"></circle><circle r="2" cx="90.18951719236377" cy="259.14192646255685" fill="grey"></circle><circle r="2" cx="90.42108017751573" cy="259.0342394256853" fill="grey"></circle><circle r="2" cx="91.4927551807537" cy="258.52610519758747" fill="grey"></circle><circle r="2" cx="91.26142874561253" cy="258.6348403109751" fill="grey"></circle><circle r="2" cx="92.28938548505138" cy="258.14701290806937" fill="grey"></circle><circle r="2" cx="92.79713064271525" cy="257.90749324801914" fill="grey"></circle><circle r="2" cx="93.30430694551158" cy="257.6517740556566" fill="grey"></circle><circle r="2" cx="93.26108797612063" cy="257.6783277859131" fill="grey"></circle><circle r="2" cx="94.1932813304469" cy="257.237637897268" fill="grey"></circle><circle r="2" cx="94.78403990571991" cy="256.9667971357893" fill="grey"></circle><circle r="2" cx="95.2758879774015" cy="256.72987118908463" fill="grey"></circle><circle r="2" cx="95.4266513791854" cy="256.65230265167537" fill="grey"></circle><circle r="2" cx="96.77878783555322" cy="256.0065546668129" fill="grey"></circle><circle r="2" cx="96.59613993602403" cy="256.096287601975" fill="grey"></circle><circle r="2" cx="97.21173975818667" cy="255.80825645425895" fill="grey"></circle><circle r="2" cx="97.69769498949167" cy="255.5806112149948" fill="grey"></circle><circle r="2" cx="98.91229721323774" cy="255.0078329489746" fill="grey"></circle><circle r="2" cx="98.30175118091597" cy="255.29207313022496" fill="grey"></circle><circle r="2" cx="99.69151288031415" cy="254.61848799272138" fill="grey"></circle><circle r="2" cx="99.78118508367977" cy="254.58166122792787" fill="grey"></circle><circle r="2" cx="100.518719397517" cy="254.21793726632197" fill="grey"></circle><circle r="2" cx="100.05829994418403" cy="254.45218494058594" fill="grey"></circle><circle r="2" cx="101.8990432085017" cy="253.56485856953955" fill="grey"></circle><circle r="2" cx="101.72841317924345" cy="253.64529726630346" fill="grey"></circle><circle r="2" cx="102.13512371065096" cy="253.45273951103798" fill="grey"></circle><circle r="2" cx="102.54050507471318" cy="253.26614536948304" fill="grey"></circle><circle r="2" cx="103.03211481438268" cy="253.0410722706561" fill="grey"></circle><circle r="2" cx="103.8165969750891" cy="252.67150588168516" fill="grey"></circle><circle r="2" cx="104.6648342416432" cy="252.2804479328013" fill="grey"></circle><circle r="2" cx="104.38029774347427" cy="252.4102767167529" fill="grey"></circle><circle r="2" cx="105.35392571996023" cy="251.94499326382987" fill="grey"></circle><circle r="2" cx="105.2633776128889" cy="251.9943141845086" fill="grey"></circle><circle r="2" cx="106.85504690194611" cy="251.17805025954817" fill="grey"></circle><circle r="2" cx="106.24868011392378" cy="251.49998391457194" fill="grey"></circle><circle r="2" cx="107.28237862277093" cy="250.96041029443504" fill="grey"></circle><circle r="2" cx="107.20204196688637" cy="251.0014014145722" fill="grey"></circle><circle r="2" cx="108.6521725170693" cy="250.30647717716087" fill="grey"></circle><circle r="2" cx="108.45866824396052" cy="250.40526721439178" fill="grey"></circle><circle r="2" cx="109.52314358969714" cy="249.90645519340254" fill="grey"></circle><circle r="2" cx="109.17926283268098" cy="250.07710650080207" fill="grey"></circle><circle r="2" cx="109.94476604052535" cy="249.7183007024789" fill="grey"></circle><circle r="2" cx="110.28159242365726" cy="249.54242546548383" fill="grey"></circle><circle r="2" cx="111.19775636190387" cy="249.08783170475448" fill="grey"></circle><circle r="2" cx="111.1892628627975" cy="249.09091215795684" fill="grey"></circle><circle r="2" cx="112.82096328612461" cy="248.29802282673586" fill="grey"></circle><circle r="2" cx="112.86641091597167" cy="248.27257249679266" fill="grey"></circle><circle r="2" cx="113.8015794815482" cy="247.8182046435126" fill="grey"></circle><circle r="2" cx="113.40910430351254" cy="248.00261835919238" fill="grey"></circle><circle r="2" cx="114.19303443307808" cy="247.62350970999807" fill="grey"></circle><circle r="2" cx="114.58661223890464" cy="247.44346705962258" fill="grey"></circle><circle r="2" cx="115.4239158835366" cy="247.0221864379664" fill="grey"></circle><circle r="2" cx="115.04685621786359" cy="247.2263808982649" fill="grey"></circle><circle r="2" cx="116.27581640286765" cy="246.6142258449483" fill="grey"></circle><circle r="2" cx="116.81504374487875" cy="246.33823250523156" fill="grey"></circle><circle r="2" cx="117.29203883742791" cy="246.11812882802937" fill="grey"></circle><circle r="2" cx="117.63764586208154" cy="245.95010613778112" fill="grey"></circle><circle r="2" cx="118.7617954853164" cy="245.32946302256371" fill="grey"></circle><circle r="2" cx="118.56144248863792" cy="245.44279962666812" fill="grey"></circle><circle r="2" cx="119.54204917017695" cy="244.9243428170768" fill="grey"></circle><circle r="2" cx="119.57792181379536" cy="244.904982278418" fill="grey"></circle><circle r="2" cx="119.83089537184335" cy="244.784918946498" fill="grey"></circle><circle r="2" cx="119.940325441338" cy="244.73626525093047" fill="grey"></circle><circle r="2" cx="121.09094549841626" cy="244.15971002385365" fill="grey"></circle><circle r="2" cx="121.68548630524764" cy="243.85120018271635" fill="grey"></circle><circle r="2" cx="122.61654876221118" cy="243.37417802265827" fill="grey"></circle><circle r="2" cx="122.54167229528281" cy="243.41669487718073" fill="grey"></circle><circle r="2" cx="123.16196442232645" cy="243.0625993460512" fill="grey"></circle><circle r="2" cx="123.0745513642557" cy="243.10900950007115" fill="grey"></circle><circle r="2" cx="123.83374339512999" cy="242.72599152006293" fill="grey"></circle><circle r="2" cx="124.07889651942398" cy="242.6182033948036" fill="grey"></circle><circle r="2" cx="125.38828991030203" cy="241.95457251587" fill="grey"></circle><circle r="2" cx="125.56054194059045" cy="241.85694619101272" fill="grey"></circle><circle r="2" cx="126.60543275787661" cy="241.28433562536404" fill="grey"></circle><circle r="2" cx="126.46707008231878" cy="241.3632236371359" fill="grey"></circle><circle r="2" cx="126.97556247008345" cy="241.09247987704188" fill="grey"></circle><circle r="2" cx="127.0807900937922" cy="241.0353003052064" fill="grey"></circle><circle r="2" cx="128.4138641013998" cy="240.3585313131623" fill="grey"></circle><circle r="2" cx="128.3029142882972" cy="240.42009434633258" fill="grey"></circle><circle r="2" cx="129.55953224218155" cy="239.78786265462668" fill="grey"></circle><circle r="2" cx="128.82383717324862" cy="240.13661972775168" fill="grey"></circle><circle r="2" cx="130.69190286783248" cy="239.16516518831028" fill="grey"></circle><circle r="2" cx="130.00945028815525" cy="239.5281616902384" fill="grey"></circle><circle r="2" cx="131.17497019293103" cy="238.89228661273503" fill="grey"></circle><circle r="2" cx="131.22433714990666" cy="238.8612325119773" fill="grey"></circle><circle r="2" cx="132.40620648973226" cy="238.19532776693688" fill="grey"></circle><circle r="2" cx="132.13293510254567" cy="238.3535449598765" fill="grey"></circle><circle r="2" cx="133.4659465524338" cy="237.55047339422612" fill="grey"></circle><circle r="2" cx="132.9969673988029" cy="237.83454083544297" fill="grey"></circle><circle r="2" cx="134.4928637309445" cy="236.96559280529797" fill="grey"></circle><circle r="2" cx="133.97150737338845" cy="237.26693296271668" fill="grey"></circle><circle r="2" cx="135.42914642044283" cy="236.44832017077243" fill="grey"></circle><circle r="2" cx="134.95418889441322" cy="236.71298775910395" fill="grey"></circle><circle r="2" cx="136.4876255594003" cy="235.8693453775272" fill="grey"></circle><circle r="2" cx="135.8056144136397" cy="236.25895883826428" fill="grey"></circle><circle r="2" cx="136.70115786467363" cy="235.79813534662168" fill="grey"></circle><circle r="2" cx="137.0285683782654" cy="235.61530198159872" fill="grey"></circle><circle r="2" cx="138.24816507801276" cy="235.0578778919902" fill="grey"></circle><circle r="2" cx="138.53945534049785" cy="234.91426669965622" fill="grey"></circle><circle r="2" cx="139.1443263034196" cy="234.5879369939283" fill="grey"></circle><circle r="2" cx="139.28431784086976" cy="234.51217099828708" fill="grey"></circle><circle r="2" cx="139.67684635412834" cy="234.29324850275793" fill="grey"></circle><circle r="2" cx="140.22118229655123" cy="234.00052903320102" fill="grey"></circle><circle r="2" cx="140.72313802738398" cy="233.71383339294314" fill="grey"></circle><circle r="2" cx="140.60122908940167" cy="233.7655021431387" fill="grey"></circle><circle r="2" cx="141.80494485791337" cy="233.1215622590329" fill="grey"></circle><circle r="2" cx="142.4552006886768" cy="232.74254028992908" fill="grey"></circle><circle r="2" cx="143.28873888417093" cy="232.28146035732175" fill="grey"></circle><circle r="2" cx="143.51766310387114" cy="232.18968367860714" fill="grey"></circle><circle r="2" cx="144.2672782542705" cy="231.7318958015472" fill="grey"></circle><circle r="2" cx="144.53934296661006" cy="231.56029395751847" fill="grey"></circle><circle r="2" cx="145.41589283028136" cy="231.04075534029099" fill="grey"></circle><circle r="2" cx="145.00673811189182" cy="231.24414045455924" fill="grey"></circle><circle r="2" cx="146.2651715259691" cy="230.48120347685034" fill="grey"></circle><circle r="2" cx="146.13730909850435" cy="230.56697074958748" fill="grey"></circle><circle r="2" cx="147.0905778388678" cy="229.97555304397252" fill="grey"></circle><circle r="2" cx="146.75884220470596" cy="230.16150540761546" fill="grey"></circle><circle r="2" cx="148.06938917855524" cy="229.39614458260525" fill="grey"></circle><circle r="2" cx="147.57841579878254" cy="229.68153669817173" fill="grey"></circle><circle r="2" cx="149.3487853390358" cy="228.4688536705463" fill="grey"></circle><circle r="2" cx="149.14945878588807" cy="228.617881574719" fill="grey"></circle><circle r="2" cx="150.0941239152682" cy="227.97396013846856" fill="grey"></circle><circle r="2" cx="149.98514746276038" cy="228.03584311515164" fill="grey"></circle><circle r="2" cx="151.40710085510946" cy="227.27400890910795" fill="grey"></circle><circle r="2" cx="150.96680102360028" cy="227.48789807994825" fill="grey"></circle><circle r="2" cx="151.88607617989112" cy="226.95557418070814" fill="grey"></circle><circle r="2" cx="151.76097312466072" cy="227.04718164258603" fill="grey"></circle><circle r="2" cx="153.18334076204928" cy="226.2402127627888" fill="grey"></circle><circle r="2" cx="152.90486607785064" cy="226.42170650389488" fill="grey"></circle><circle r="2" cx="154.09449747865256" cy="225.6695881244442" fill="grey"></circle><circle r="2" cx="154.2291282802401" cy="225.5914388318718" fill="grey"></circle><circle r="2" cx="155.30018731041264" cy="224.90731743085124" fill="grey"></circle><circle r="2" cx="155.38191547854552" cy="224.84475583807264" fill="grey"></circle><circle r="2" cx="156.03425436737223" cy="224.47780233838776" fill="grey"></circle><circle r="2" cx="155.7957750243151" cy="224.5898668049334" fill="grey"></circle><circle r="2" cx="157.03330550599227" cy="223.78005647542693" fill="grey"></circle><circle r="2" cx="156.75305858265293" cy="223.97436765587102" fill="grey"></circle><circle r="2" cx="157.55270605492566" cy="223.3717427672332" fill="grey"></circle><circle r="2" cx="157.72126384518984" cy="223.24712263060098" fill="grey"></circle><circle r="2" cx="158.7481773330856" cy="222.45812774724752" fill="grey"></circle><circle r="2" cx="158.59467330622402" cy="222.5311095256551" fill="grey"></circle><circle r="2" cx="160.16078778145842" cy="221.58306298370175" fill="grey"></circle><circle r="2" cx="159.6699514586437" cy="221.95124273121826" fill="grey"></circle><circle r="2" cx="161.31948210219176" cy="220.7661482644741" fill="grey"></circle><circle r="2" cx="160.88025676763638" cy="221.09605083512957" fill="grey"></circle><circle r="2" cx="162.19971035510008" cy="220.05216284230886" fill="grey"></circle><circle r="2" cx="161.75936188559595" cy="220.41688849668125" fill="grey"></circle><circle r="2" cx="162.531698499162" cy="219.783279886611" fill="grey"></circle><circle r="2" cx="162.52185303081598" cy="219.78950366592724" fill="grey"></circle><circle r="2" cx="163.95098696938706" cy="218.65126584317562" fill="grey"></circle><circle r="2" cx="163.6670932205482" cy="218.81596913840707" fill="grey"></circle><circle r="2" cx="164.41182450115005" cy="218.23464078051643" fill="grey"></circle><circle r="2" cx="165.33338106944603" cy="217.50712109653523" fill="grey"></circle><circle r="2" cx="166.21720571528624" cy="216.84184749912617" fill="grey"></circle><circle r="2" cx="166.16967625802988" cy="216.87941842685558" fill="grey"></circle><circle r="2" cx="167.04345307353842" cy="216.23315681339585" fill="grey"></circle><circle r="2" cx="166.90739895171998" cy="216.30383599134012" fill="grey"></circle><circle r="2" cx="167.984262874286" cy="215.27716558347225" fill="grey"></circle><circle r="2" cx="167.72548070494383" cy="215.58940203214235" fill="grey"></circle><circle r="2" cx="168.5123642194987" cy="214.76713353230556" fill="grey"></circle><circle r="2" cx="169.11028828849282" cy="214.182473675946" fill="grey"></circle><circle r="2" cx="170.26138018485705" cy="213.43394561984945" fill="grey"></circle><circle r="2" cx="169.52873675612858" cy="213.98178600333756" fill="grey"></circle><circle r="2" cx="170.49701991353913" cy="213.2456457601895" fill="grey"></circle><circle r="2" cx="170.39357696436798" cy="213.35966742165974" fill="grey"></circle><circle r="2" cx="171.48471196878117" cy="212.45161936988896" fill="grey"></circle><circle r="2" cx="172.0219941847488" cy="212.02806168452145" fill="grey"></circle><circle r="2" cx="173.2111216190575" cy="211.12938866784464" fill="grey"></circle><circle r="2" cx="172.50868210189904" cy="211.60429815704376" fill="grey"></circle><circle r="2" cx="173.33069505732144" cy="210.9725500825139" fill="grey"></circle><circle r="2" cx="173.8692303636805" cy="210.5898291434602" fill="grey"></circle><circle r="2" cx="175.03044116479597" cy="210.0111881540338" fill="grey"></circle><circle r="2" cx="174.42306279133547" cy="210.35119038935858" fill="grey"></circle><circle r="2" cx="176.2254147437734" cy="208.9797006370709" fill="grey"></circle><circle r="2" cx="175.8318806946321" cy="209.39640484177673" fill="grey"></circle><circle r="2" cx="176.8105280268928" cy="208.4871106015763" fill="grey"></circle><circle r="2" cx="177.18273562222032" cy="208.18253585336922" fill="grey"></circle><circle r="2" cx="178.03621760418434" cy="207.32906265993338" fill="grey"></circle><circle r="2" cx="177.54091117620308" cy="207.84405806449186" fill="grey"></circle><circle r="2" cx="178.23351052118272" cy="207.18275973181036" fill="grey"></circle><circle r="2" cx="179.08925998330488" cy="206.28815707078823" fill="grey"></circle><circle r="2" cx="179.2047070361246" cy="206.1495857655963" fill="grey"></circle><circle r="2" cx="179.67345437513592" cy="205.54704910593503" fill="grey"></circle><circle r="2" cx="179.27430479088338" cy="206.11622085280828" fill="grey"></circle><circle r="2" cx="180.17807644417542" cy="204.79586871407253" fill="grey"></circle><circle r="2" cx="180.08094573156694" cy="204.8556954673529" fill="grey"></circle><circle r="2" cx="180.32468578359675" cy="204.52696065910652" fill="grey"></circle><circle r="2" cx="180.52189555849318" cy="204.1785845368236" fill="grey"></circle><circle r="2" cx="180.74616710746398" cy="203.58533993743333" fill="grey"></circle><circle r="2" cx="180.8215012007699" cy="203.29631709542036" fill="grey"></circle><circle r="2" cx="181.04926570129027" cy="202.7645711781751" fill="grey"></circle><circle r="2" cx="181.10024337822657" cy="202.68662732581294" fill="grey"></circle><circle r="2" cx="181.3054973813682" cy="202.39625893655545" fill="grey"></circle><circle r="2" cx="181.4608683251136" cy="202.0534608425419" fill="grey"></circle><circle r="2" cx="182.04139415991895" cy="200.87597330539703" fill="grey"></circle><circle r="2" cx="181.7753743412923" cy="201.44839241094041" fill="grey"></circle><circle r="2" cx="181.85479991050656" cy="201.1124374359661" fill="grey"></circle><circle r="2" cx="181.88134715763096" cy="201.0892172170384" fill="grey"></circle><circle r="2" cx="181.90793059792492" cy="201.06500257097377" fill="grey"></circle><circle r="2" cx="181.9345503292659" cy="200.9984260289714" fill="grey"></circle><circle r="2" cx="181.9612064513276" cy="200.99336364631077" fill="grey"></circle><circle r="2" cx="181.9878990637835" cy="200.96255533132853" fill="grey"></circle><circle r="2" cx="182.01462826630708" cy="200.95802860446074" fill="grey"></circle><circle r="2" cx="182.04139415991895" cy="200.87597330539703" fill="grey"></circle><circle r="2" cx="182.06819684474152" cy="200.85817304612533" fill="grey"></circle><circle r="2" cx="182.09503642269325" cy="200.80058378513763" fill="grey"></circle><circle r="2" cx="182.12191299524366" cy="200.73982680787503" fill="grey"></circle><circle r="2" cx="182.14882666431114" cy="200.62556037022227" fill="grey"></circle><circle r="2" cx="182.17577753316115" cy="200.5839434934074" fill="grey"></circle><circle r="2" cx="182.20276570371203" cy="200.58070471519025" fill="grey"></circle><circle r="2" cx="182.2297912801272" cy="200.5343983278361" fill="grey"></circle><circle r="2" cx="182.25685436612093" cy="200.48827312278445" fill="grey"></circle><circle r="2" cx="182.28395506585667" cy="200.47703992559306" fill="grey"></circle><circle r="2" cx="182.31109348394665" cy="200.46817242022172" fill="grey"></circle><circle r="2" cx="182.33826972545225" cy="200.43644146654847" fill="grey"></circle><circle r="2" cx="182.36548389633268" cy="200.21024155718686" fill="grey"></circle><circle r="2" cx="182.39273610254725" cy="200.18803706549485" fill="grey"></circle><circle r="2" cx="182.42002645005513" cy="200.1583093148885" fill="grey"></circle><circle r="2" cx="182.44735504661162" cy="200.1583093148885" fill="grey"></circle><circle r="2" cx="182.47472199862486" cy="200.15129069431114" fill="grey"></circle><circle r="2" cx="182.50212741474806" cy="199.94210628940087" fill="grey"></circle><circle r="2" cx="182.52957140273637" cy="199.6565208060392" fill="grey"></circle><circle r="2" cx="182.5570540716919" cy="199.5992463854445" fill="grey"></circle><circle r="2" cx="182.5845755302678" cy="199.55185848500935" fill="grey"></circle><circle r="2" cx="182.61213588846417" cy="199.55002830625133" fill="grey"></circle><circle r="2" cx="182.63973525673006" cy="199.5026083562309" fill="grey"></circle><circle r="2" cx="182.6673737450656" cy="199.42869628405714" fill="grey"></circle><circle r="2" cx="182.69505146481768" cy="199.33798091628424" fill="grey"></circle><circle r="2" cx="182.72276852733344" cy="199.33277889764358" fill="grey"></circle><circle r="2" cx="182.75052504485782" cy="199.1761451452254" fill="grey"></circle><circle r="2" cx="182.7783211296358" cy="199.14655414020174" fill="grey"></circle><circle r="2" cx="182.8061568948103" cy="199.1380301479011" fill="grey"></circle><circle r="2" cx="182.8340324539733" cy="199.0648568825027" fill="grey"></circle><circle r="2" cx="182.86194792071663" cy="198.97639908204826" fill="grey"></circle><circle r="2" cx="182.88990340997927" cy="198.91684922214506" fill="grey"></circle><circle r="2" cx="182.917899036251" cy="198.7195148935257" fill="grey"></circle><circle r="2" cx="182.94593491491972" cy="198.64989014855973" fill="grey"></circle><circle r="2" cx="182.9740111618222" cy="198.62775759871946" fill="grey"></circle><circle r="2" cx="183.00212789369326" cy="198.52286373395583" fill="grey"></circle><circle r="2" cx="183.0302852277166" cy="198.5002458703805" fill="grey"></circle><circle r="2" cx="183.05848328062706" cy="198.46195009957262" fill="grey"></circle><circle r="2" cx="183.08672217095534" cy="198.43528240827192" fill="grey"></circle><circle r="2" cx="183.11500201678314" cy="198.42730475897895" fill="grey"></circle><circle r="2" cx="183.1433229370901" cy="198.37783375549415" fill="grey"></circle><circle r="2" cx="183.17168505175394" cy="198.35648390511142" fill="grey"></circle><circle r="2" cx="183.20008848020328" cy="198.30013708932975" fill="grey"></circle><circle r="2" cx="183.22853334321368" cy="198.2742959108959" fill="grey"></circle><circle r="2" cx="183.25701976245878" cy="198.25218229897968" fill="grey"></circle><circle r="2" cx="183.28554785826515" cy="198.2117285317875" fill="grey"></circle><circle r="2" cx="183.31411775410226" cy="198.17752742099867" fill="grey"></circle><circle r="2" cx="183.34272957164367" cy="198.1358981475603" fill="grey"></circle><circle r="2" cx="183.3713834348079" cy="198.132936872588" fill="grey"></circle><circle r="2" cx="183.40007946661538" cy="198.03191987529178" fill="grey"></circle><circle r="2" cx="183.42881779233153" cy="198.00507532591737" fill="grey"></circle><circle r="2" cx="183.45759853587478" cy="197.94022219490463" fill="grey"></circle><circle r="2" cx="183.48642182295958" cy="197.84020177084696" fill="grey"></circle><circle r="2" cx="183.5152877797492" cy="197.75167670129363" fill="grey"></circle><circle r="2" cx="183.54419653285606" cy="197.73545045124092" fill="grey"></circle><circle r="2" cx="183.57314820889243" cy="197.73545045124092" fill="grey"></circle><circle r="2" cx="183.60214293581765" cy="197.6750012575002" fill="grey"></circle><circle r="2" cx="183.63118084159095" cy="197.6750012575002" fill="grey"></circle><circle r="2" cx="183.66026205551853" cy="197.66690763865225" fill="grey"></circle><circle r="2" cx="183.6893867069067" cy="197.5439482140636" fill="grey"></circle><circle r="2" cx="183.71855492506165" cy="197.43125547446883" fill="grey"></circle><circle r="2" cx="183.7477668410854" cy="197.1626795625441" fill="grey"></circle><circle r="2" cx="183.77702258563122" cy="197.13478761314212" fill="grey"></circle><circle r="2" cx="183.80632229114815" cy="196.94243750606498" fill="grey"></circle><circle r="2" cx="183.8356660896363" cy="196.86165564732448" fill="grey"></circle><circle r="2" cx="183.86505411354477" cy="196.68327275712448" fill="grey"></circle><circle r="2" cx="183.89448649666954" cy="196.59786003299917" fill="grey"></circle><circle r="2" cx="183.9239633737046" cy="196.5405217067704" fill="grey"></circle><circle r="2" cx="183.95348487844598" cy="196.52358086396336" fill="grey"></circle><circle r="2" cx="183.98305114693457" cy="196.51241022278955" fill="grey"></circle><circle r="2" cx="184.0126623147623" cy="196.38354906184477" fill="grey"></circle><circle r="2" cx="184.0423185184191" cy="196.25707618095436" fill="grey"></circle><circle r="2" cx="184.0720198957418" cy="196.2301705833293" fill="grey"></circle><circle r="2" cx="184.10176658366922" cy="196.1962348958581" fill="grey"></circle><circle r="2" cx="184.1315587213852" cy="195.97699920904986" fill="grey"></circle><circle r="2" cx="184.16139644762458" cy="195.86435638727434" fill="grey"></circle><circle r="2" cx="184.19127990202" cy="195.74676626971586" fill="grey"></circle><circle r="2" cx="184.22120922510226" cy="195.71915362963696" fill="grey"></circle><circle r="2" cx="184.25118455829997" cy="195.67577887511507" fill="grey"></circle><circle r="2" cx="184.28120604259286" cy="195.6489908866698" fill="grey"></circle><circle r="2" cx="184.31127382075653" cy="195.54329743632903" fill="grey"></circle><circle r="2" cx="184.34138803556664" cy="195.52243248750173" fill="grey"></circle><circle r="2" cx="184.37154883114576" cy="195.5085524977179" fill="grey"></circle><circle r="2" cx="184.40175635116734" cy="195.47831068201896" fill="grey"></circle><circle r="2" cx="184.43201074065203" cy="195.42864061712487" fill="grey"></circle><circle r="2" cx="184.46231214596722" cy="195.19238628242735" fill="grey"></circle><circle r="2" cx="184.49266071258242" cy="195.16095660458237" fill="grey"></circle><circle r="2" cx="184.523056588212" cy="195.10984945752966" fill="grey"></circle><circle r="2" cx="184.55349992057037" cy="194.99718770870294" fill="grey"></circle><circle r="2" cx="184.583990857372" cy="194.98070574754976" fill="grey"></circle><circle r="2" cx="184.61452954857603" cy="194.8030399927681" fill="grey"></circle><circle r="2" cx="184.64511614324394" cy="194.73700411696277" fill="grey"></circle><circle r="2" cx="184.67575079268184" cy="194.72590611449118" fill="grey"></circle><circle r="2" cx="184.70643364774705" cy="194.666724265362" fill="grey"></circle><circle r="2" cx="184.7371648601948" cy="194.4836326780071" fill="grey"></circle><circle r="2" cx="184.76794458267827" cy="194.4309821708985" fill="grey"></circle><circle r="2" cx="184.7987729691975" cy="194.41741071604892" fill="grey"></circle><circle r="2" cx="184.82965017330372" cy="194.21068951932077" fill="grey"></circle><circle r="2" cx="184.86057634989493" cy="194.14345166209208" fill="grey"></circle><circle r="2" cx="184.8915516543182" cy="194.14345166209208" fill="grey"></circle><circle r="2" cx="184.92257624371646" cy="194.14345166209208" fill="grey"></circle><circle r="2" cx="184.95365027478383" cy="194.1007535576578" fill="grey"></circle><circle r="2" cx="184.98477390511212" cy="194.07619724117305" fill="grey"></circle><circle r="2" cx="185.01594729319137" cy="193.9848132889858" fill="grey"></circle><circle r="2" cx="185.04717059930726" cy="193.97918404922643" fill="grey"></circle><circle r="2" cx="185.07844398239882" cy="193.94205304881876" fill="grey"></circle><circle r="2" cx="185.1097676040988" cy="193.75905677301085" fill="grey"></circle><circle r="2" cx="185.14114162559096" cy="193.6305573049271" fill="grey"></circle><circle r="2" cx="185.17256620985498" cy="193.57850314681426" fill="grey"></circle><circle r="2" cx="185.20404151987063" cy="193.55544701550858" fill="grey"></circle><circle r="2" cx="185.2355677195155" cy="193.4170507536139" fill="grey"></circle><circle r="2" cx="185.26714497356537" cy="193.34829209095656" fill="grey"></circle><circle r="2" cx="185.2987734481427" cy="193.2954697697854" fill="grey"></circle><circle r="2" cx="185.33045330937006" cy="193.2771122308089" fill="grey"></circle><circle r="2" cx="185.362184724717" cy="193.22136640652968" fill="grey"></circle><circle r="2" cx="185.393967861653" cy="193.04545062054837" fill="grey"></circle><circle r="2" cx="185.42580288944353" cy="192.75809580523526" fill="grey"></circle><circle r="2" cx="185.45768997780294" cy="192.7491549621367" fill="grey"></circle><circle r="2" cx="185.48962929779262" cy="192.72815391792275" fill="grey"></circle><circle r="2" cx="185.52162101957603" cy="192.5419777231484" fill="grey"></circle><circle r="2" cx="185.55366531645927" cy="192.5160565668427" fill="grey"></circle><circle r="2" cx="185.58576236129974" cy="192.3029754995631" fill="grey"></circle><circle r="2" cx="185.61791232785257" cy="192.08621211320448" fill="grey"></circle><circle r="2" cx="185.65011539077102" cy="192.06697519957117" fill="grey"></circle><circle r="2" cx="185.68237172605518" cy="192.05703821775245" fill="grey"></circle><circle r="2" cx="185.71468151060319" cy="191.97800001938825" fill="grey"></circle><circle r="2" cx="185.7470449208641" cy="191.9569636417924" fill="grey"></circle><circle r="2" cx="185.77946213553196" cy="191.95440208913286" fill="grey"></circle><circle r="2" cx="185.8119333341987" cy="191.94531478961824" fill="grey"></circle><circle r="2" cx="185.84445869690526" cy="191.89613238402816" fill="grey"></circle><circle r="2" cx="185.8770384041417" cy="191.82234763423986" fill="grey"></circle><circle r="2" cx="185.90967263819368" cy="191.80530704099792" fill="grey"></circle><circle r="2" cx="185.94236158134717" cy="191.74008355225834" fill="grey"></circle><circle r="2" cx="185.9751054185819" cy="191.6706096274749" fill="grey"></circle><circle r="2" cx="186.00790433308157" cy="191.66336826522507" fill="grey"></circle><circle r="2" cx="186.04075851162193" cy="191.55029012067837" fill="grey"></circle><circle r="2" cx="186.07366814008068" cy="191.38636604618745" fill="grey"></circle><circle r="2" cx="186.10663340613138" cy="191.38406300468213" fill="grey"></circle><circle r="2" cx="186.13965449834555" cy="191.36549981693452" fill="grey"></circle><circle r="2" cx="186.17273160619285" cy="191.23638159626128" fill="grey"></circle><circle r="2" cx="186.20586491959162" cy="191.15186788591646" fill="grey"></circle><circle r="2" cx="186.23905463025642" cy="191.1261221779708" fill="grey"></circle><circle r="2" cx="186.2723009299016" cy="191.06843756392163" fill="grey"></circle><circle r="2" cx="186.30560401293556" cy="191.05333080717728" fill="grey"></circle><circle r="2" cx="186.33896407286855" cy="190.71943183142739" fill="grey"></circle><circle r="2" cx="186.37238130500688" cy="190.70642550548746" fill="grey"></circle><circle r="2" cx="186.40585590600375" cy="190.68783446803758" fill="grey"></circle><circle r="2" cx="186.43938807296135" cy="190.61191608988494" fill="grey"></circle><circle r="2" cx="186.47297800432875" cy="190.6101246166719" fill="grey"></circle><circle r="2" cx="186.50662589900415" cy="190.54900140407182" fill="grey"></circle><circle r="2" cx="186.54033195813048" cy="190.52210057646218" fill="grey"></circle><circle r="2" cx="186.5740963828508" cy="190.42712052605694" fill="grey"></circle><circle r="2" cx="186.60791937520605" cy="190.06636336717716" fill="grey"></circle><circle r="2" cx="186.64180113903308" cy="189.93986404669351" fill="grey"></circle><circle r="2" cx="186.67574187906678" cy="189.9258203814673" fill="grey"></circle><circle r="2" cx="186.70974180093995" cy="189.88745849032597" fill="grey"></circle><circle r="2" cx="186.74380111163234" cy="189.4908171931891" fill="grey"></circle><circle r="2" cx="186.77792001812364" cy="189.05512933125758" fill="grey"></circle><circle r="2" cx="186.81209873053655" cy="188.8938087208786" fill="grey"></circle><circle r="2" cx="186.8463374580956" cy="188.52877741841084" fill="grey"></circle><circle r="2" cx="186.88063641182146" cy="188.22065892967115" fill="grey"></circle><circle r="2" cx="186.91499580453052" cy="188.19164344937965" fill="grey"></circle><circle r="2" cx="186.94941584903935" cy="188.09815613467387" fill="grey"></circle><circle r="2" cx="186.98389676040927" cy="188.08838209685172" fill="grey"></circle><circle r="2" cx="187.01843875415065" cy="188.05287450158576" fill="grey"></circle><circle r="2" cx="187.05304204667183" cy="187.99763366673747" fill="grey"></circle><circle r="2" cx="187.08770685617708" cy="187.95881637601985" fill="grey"></circle><circle r="2" cx="187.12243340176852" cy="187.91901143669168" fill="grey"></circle><circle r="2" cx="187.15722190389542" cy="187.77823742736527" fill="grey"></circle><circle r="2" cx="187.19207258390475" cy="187.75821110928814" fill="grey"></circle><circle r="2" cx="187.2269856644906" cy="187.75821110928814" fill="grey"></circle><circle r="2" cx="187.26196136924497" cy="187.58999622393034" fill="grey"></circle><circle r="2" cx="187.29699992400478" cy="187.58999622393034" fill="grey"></circle><circle r="2" cx="187.33210155415796" cy="187.56002485163984" fill="grey"></circle><circle r="2" cx="187.36726648733725" cy="187.3038933428506" fill="grey"></circle><circle r="2" cx="187.40249495252252" cy="187.14517854452478" fill="grey"></circle><circle r="2" cx="187.4377871800404" cy="187.14517854452478" fill="grey"></circle><circle r="2" cx="187.47314340021762" cy="187.1122249063473" fill="grey"></circle><circle r="2" cx="187.5085638465237" cy="187.08910641018838" fill="grey"></circle><circle r="2" cx="187.54404875242824" cy="187.08133056127295" fill="grey"></circle><circle r="2" cx="187.5795983522988" cy="186.98325053913138" fill="grey"></circle><circle r="2" cx="187.61521288319665" cy="186.98325053913138" fill="grey"></circle><circle r="2" cx="187.65089258263228" cy="186.89948852304485" fill="grey"></circle><circle r="2" cx="187.68663768946294" cy="186.83741108633998" fill="grey"></circle><circle r="2" cx="187.722448443893" cy="186.5651639406947" fill="grey"></circle><circle r="2" cx="187.75832508747354" cy="186.53743750760648" fill="grey"></circle><circle r="2" cx="187.7942678631027" cy="186.5257854706775" fill="grey"></circle><circle r="2" cx="187.83027701502564" cy="186.51303329983514" fill="grey"></circle><circle r="2" cx="187.8663527888343" cy="186.4889881185081" fill="grey"></circle><circle r="2" cx="187.90249543191666" cy="186.30499076731354" fill="grey"></circle><circle r="2" cx="187.93870519210964" cy="186.23264880496157" fill="grey"></circle><circle r="2" cx="187.9749823190461" cy="186.20187068564593" fill="grey"></circle><circle r="2" cx="188.01132706460365" cy="186.11896092081992" fill="grey"></circle><circle r="2" cx="188.0477396806602" cy="186.05259545946384" fill="grey"></circle><circle r="2" cx="188.08422042178722" cy="186.0437575238787" fill="grey"></circle><circle r="2" cx="188.12076954255642" cy="186.01817832266397" fill="grey"></circle><circle r="2" cx="188.15738730023324" cy="186.01817832266397" fill="grey"></circle><circle r="2" cx="188.1940739529812" cy="185.90061284494664" fill="grey"></circle><circle r="2" cx="188.23082976075958" cy="185.7915101420582" fill="grey"></circle><circle r="2" cx="188.26765498487484" cy="185.72925416772182" fill="grey"></circle><circle r="2" cx="188.30454988753107" cy="185.69354385777103" fill="grey"></circle><circle r="2" cx="188.34151473317758" cy="185.58880998650946" fill="grey"></circle><circle r="2" cx="188.37854978761044" cy="185.57879696871902" fill="grey"></circle><circle r="2" cx="188.4156553179727" cy="185.43342094420947" fill="grey"></circle><circle r="2" cx="188.45283159275434" cy="185.43226497824287" fill="grey"></circle><circle r="2" cx="188.49007888224125" cy="185.39343424987638" fill="grey"></circle><circle r="2" cx="188.52739745896437" cy="185.36581557833443" fill="grey"></circle><circle r="2" cx="188.5647875954544" cy="185.34032306116396" fill="grey"></circle><circle r="2" cx="188.60224956738506" cy="185.33003219812832" fill="grey"></circle><circle r="2" cx="188.63978365042996" cy="185.23589548641468" fill="grey"></circle><circle r="2" cx="188.6773901238547" cy="185.10556762983603" fill="grey"></circle><circle r="2" cx="188.7150692664757" cy="185.10556762983603" fill="grey"></circle><circle r="2" cx="188.75282135980348" cy="184.9003155937143" fill="grey"></circle><circle r="2" cx="188.7906466875933" cy="184.87282935420134" fill="grey"></circle><circle r="2" cx="188.82854553404945" cy="184.64225898208866" fill="grey"></circle><circle r="2" cx="188.86651818517217" cy="184.35103755991207" fill="grey"></circle><circle r="2" cx="188.90456492920651" cy="184.3129698729014" fill="grey"></circle><circle r="2" cx="188.94268605619357" cy="184.30810709153616" fill="grey"></circle><circle r="2" cx="188.98088185752124" cy="184.30810709153616" fill="grey"></circle><circle r="2" cx="189.01915262592456" cy="184.2986543903346" fill="grey"></circle><circle r="2" cx="189.0574986563832" cy="184.2503931809057" fill="grey"></circle><circle r="2" cx="189.09592024612192" cy="184.22990003035815" fill="grey"></circle><circle r="2" cx="189.13441769236545" cy="184.22990003035815" fill="grey"></circle><circle r="2" cx="189.17299129593033" cy="184.13592898638726" fill="grey"></circle><circle r="2" cx="189.21164135853104" cy="184.13022711069328" fill="grey"></circle><circle r="2" cx="189.25036818412698" cy="184.1039116681014" fill="grey"></circle><circle r="2" cx="189.28917207802456" cy="184.1039116681014" fill="grey"></circle><circle r="2" cx="189.32805334777498" cy="184.1039116681014" fill="grey"></circle><circle r="2" cx="189.36701230227644" cy="184.07072305254601" fill="grey"></circle><circle r="2" cx="189.40604925267203" cy="184.01120834000017" fill="grey"></circle><circle r="2" cx="189.44516451234972" cy="184.01120834000017" fill="grey"></circle><circle r="2" cx="189.48435839514644" cy="184.00303103089612" fill="grey"></circle><circle r="2" cx="189.52363121894007" cy="183.9173781094394" fill="grey"></circle><circle r="2" cx="189.56298330115936" cy="183.53352979110252" fill="grey"></circle><circle r="2" cx="189.60241496327393" cy="183.46766340454803" fill="grey"></circle><circle r="2" cx="189.64192652765135" cy="183.46766340454803" fill="grey"></circle><circle r="2" cx="189.68151831845515" cy="183.3186846493857" fill="grey"></circle><circle r="2" cx="189.72119066209373" cy="183.2538673036697" fill="grey"></circle><circle r="2" cx="189.76094388766938" cy="183.20513260086855" fill="grey"></circle><circle r="2" cx="189.80077832473336" cy="183.20250355592032" fill="grey"></circle><circle r="2" cx="189.84069430642876" cy="183.18011135367263" fill="grey"></circle><circle r="2" cx="189.88069216724563" cy="183.14879884297696" fill="grey"></circle><circle r="2" cx="189.92077224346994" cy="183.12462077039154" fill="grey"></circle><circle r="2" cx="189.9609348740815" cy="182.7832465717538" fill="grey"></circle><circle r="2" cx="190.00118039985608" cy="182.70563587281674" fill="grey"></circle><circle r="2" cx="190.04150916336542" cy="182.42959876496124" fill="grey"></circle><circle r="2" cx="190.081921509875" cy="182.36133896162553" fill="grey"></circle><circle r="2" cx="190.12241778689534" cy="182.3416907816846" fill="grey"></circle><circle r="2" cx="190.1629983432838" cy="182.2095727690886" fill="grey"></circle><circle r="2" cx="190.20366353059165" cy="182.1315131505925" fill="grey"></circle><circle r="2" cx="190.24441370261513" cy="182.11138982856076" fill="grey"></circle><circle r="2" cx="190.28524921539523" cy="182.03539097179245" fill="grey"></circle><circle r="2" cx="190.326170427218" cy="181.82423206199473" fill="grey"></circle><circle r="2" cx="190.3671776986143" cy="181.78382438221774" fill="grey"></circle><circle r="2" cx="190.40827139191092" cy="181.78382438221774" fill="grey"></circle><circle r="2" cx="190.44945187212852" cy="181.62736012162028" fill="grey"></circle><circle r="2" cx="190.49071950743067" cy="181.5066556611936" fill="grey"></circle><circle r="2" cx="190.53207466642985" cy="181.50417669766765" fill="grey"></circle><circle r="2" cx="190.57351772177944" cy="181.34296201231277" fill="grey"></circle><circle r="2" cx="190.6150490483776" cy="181.30715231508" fill="grey"></circle><circle r="2" cx="190.65666902202065" cy="181.28002122811603" fill="grey"></circle><circle r="2" cx="190.69837802209653" cy="181.07597587878905" fill="grey"></circle><circle r="2" cx="190.74017643113615" cy="180.98511829579985" fill="grey"></circle><circle r="2" cx="190.78206463256834" cy="180.8778893757271" fill="grey"></circle><circle r="2" cx="190.8240430129649" cy="180.86900475116198" fill="grey"></circle><circle r="2" cx="190.86611196204026" cy="180.85879843931403" fill="grey"></circle><circle r="2" cx="190.90827187085608" cy="180.7993459888236" fill="grey"></circle><circle r="2" cx="190.95052313406558" cy="180.6902329670133" fill="grey"></circle><circle r="2" cx="190.99286614811817" cy="180.619882044179" fill="grey"></circle><circle r="2" cx="191.0353013121569" cy="180.56339641578813" fill="grey"></circle><circle r="2" cx="191.0778290284678" cy="180.5050978772853" fill="grey"></circle><circle r="2" cx="191.12044970203078" cy="180.41339711395267" fill="grey"></circle><circle r="2" cx="191.16316373917263" cy="180.37248528017452" fill="grey"></circle><circle r="2" cx="191.20597155071007" cy="180.35722210294222" fill="grey"></circle><circle r="2" cx="191.24887354880656" cy="180.34690102723886" fill="grey"></circle><circle r="2" cx="191.29187014876854" cy="180.3071533419341" fill="grey"></circle><circle r="2" cx="191.33496176904538" cy="179.9813275213516" fill="grey"></circle><circle r="2" cx="191.3781488307802" cy="179.7694960316659" fill="grey"></circle><circle r="2" cx="191.42143175691206" cy="179.7403903907878" fill="grey"></circle><circle r="2" cx="191.4648109744209" cy="179.68982601293783" fill="grey"></circle><circle r="2" cx="191.50828691298048" cy="179.56177224980732" fill="grey"></circle><circle r="2" cx="191.55186000406056" cy="179.55684524156496" fill="grey"></circle><circle r="2" cx="191.59553068362055" cy="179.51256781741708" fill="grey"></circle><circle r="2" cx="191.639299389416" cy="179.46482725490736" fill="grey"></circle><circle r="2" cx="191.68316656279404" cy="179.39204719305758" fill="grey"></circle><circle r="2" cx="191.72713264734693" cy="179.31043143819613" fill="grey"></circle><circle r="2" cx="191.77119809025868" cy="179.30775858102476" fill="grey"></circle><circle r="2" cx="191.815363342305" cy="179.27626504143248" fill="grey"></circle><circle r="2" cx="191.8596288556088" cy="179.0886479404215" fill="grey"></circle><circle r="2" cx="191.90399508678263" cy="178.9628696339961" fill="grey"></circle><circle r="2" cx="191.94846249558194" cy="178.9628696339961" fill="grey"></circle><circle r="2" cx="191.99303154400707" cy="178.874748163814" fill="grey"></circle><circle r="2" cx="192.03770269809908" cy="178.8218890267981" fill="grey"></circle><circle r="2" cx="192.08247642704214" cy="178.76269366924768" fill="grey"></circle><circle r="2" cx="192.12735320226508" cy="178.72112058646871" fill="grey"></circle><circle r="2" cx="192.17233349968663" cy="178.43474514652044" fill="grey"></circle><circle r="2" cx="192.2174177979194" cy="178.38422344161734" fill="grey"></circle><circle r="2" cx="192.26260657871885" cy="178.2813873105933" fill="grey"></circle><circle r="2" cx="192.30790032788124" cy="178.27159491268927" fill="grey"></circle><circle r="2" cx="192.35329953434567" cy="178.2469255988897" fill="grey"></circle><circle r="2" cx="192.39880468974525" cy="178.2469255988897" fill="grey"></circle><circle r="2" cx="192.44441628975375" cy="178.1929341233877" fill="grey"></circle><circle r="2" cx="192.4901348345348" cy="178.17621992402252" fill="grey"></circle><circle r="2" cx="192.53596082559903" cy="178.05186183637025" fill="grey"></circle><circle r="2" cx="192.58189476984467" cy="178.0079397193633" fill="grey"></circle><circle r="2" cx="192.6279371764151" cy="177.96606106084275" fill="grey"></circle><circle r="2" cx="192.67408855984115" cy="177.96606106084275" fill="grey"></circle><circle r="2" cx="192.7203494360008" cy="177.9311811680982" fill="grey"></circle><circle r="2" cx="192.76672032660878" cy="177.92399681533175" fill="grey"></circle><circle r="2" cx="192.81320175562462" cy="177.855010497465" fill="grey"></circle><circle r="2" cx="192.85979425149768" cy="177.84295037661093" fill="grey"></circle><circle r="2" cx="192.9064983462692" cy="177.82723143447487" fill="grey"></circle><circle r="2" cx="192.95331457602114" cy="177.6733267723904" fill="grey"></circle><circle r="2" cx="193.00024347997845" cy="177.43340029045575" fill="grey"></circle><circle r="2" cx="193.0472856023048" cy="177.12058895538826" fill="grey"></circle><circle r="2" cx="193.09444149075566" cy="177.04914612167357" fill="grey"></circle><circle r="2" cx="193.14171169622944" cy="176.98314130345483" fill="grey"></circle><circle r="2" cx="193.18909677501216" cy="176.76781641015452" fill="grey"></circle><circle r="2" cx="193.23659728608393" cy="176.75415743009796" fill="grey"></circle><circle r="2" cx="193.28421379426146" cy="176.69563576739623" fill="grey"></circle><circle r="2" cx="193.33194686615738" cy="176.58661774122743" fill="grey"></circle><circle r="2" cx="193.3797970751191" cy="176.58573169677274" fill="grey"></circle><circle r="2" cx="193.42776499673886" cy="176.48854586521816" fill="grey"></circle><circle r="2" cx="193.47585121154768" cy="176.31942997753558" fill="grey"></circle><circle r="2" cx="193.52405630456641" cy="176.2654914956815" fill="grey"></circle><circle r="2" cx="193.57238086530572" cy="176.24129938091704" fill="grey"></circle><circle r="2" cx="193.62082548731703" cy="176.1531199027291" fill="grey"></circle><circle r="2" cx="193.66939076819264" cy="176.12286421249064" fill="grey"></circle><circle r="2" cx="193.71807731091255" cy="175.8878267516518" fill="grey"></circle><circle r="2" cx="193.76688572249765" cy="175.6687802347326" fill="grey"></circle><circle r="2" cx="193.81581661490753" cy="175.56950043795965" fill="grey"></circle><circle r="2" cx="193.86487060369376" cy="175.54287887479788" fill="grey"></circle><circle r="2" cx="193.91404830979548" cy="175.39765697818763" fill="grey"></circle><circle r="2" cx="193.96335035953965" cy="175.37014493267174" fill="grey"></circle><circle r="2" cx="194.01277738284523" cy="175.37014493267174" fill="grey"></circle><circle r="2" cx="194.06233001501874" cy="175.35504658439177" fill="grey"></circle><circle r="2" cx="194.1120088963055" cy="175.1236179178919" fill="grey"></circle><circle r="2" cx="194.16181467099176" cy="174.98242963977148" fill="grey"></circle><circle r="2" cx="194.2117479896494" cy="174.95992510918538" fill="grey"></circle><circle r="2" cx="194.2618095068912" cy="174.89066670769225" fill="grey"></circle><circle r="2" cx="194.3119998827176" cy="174.86832490997176" fill="grey"></circle><circle r="2" cx="194.36231978251686" cy="174.86660667920037" fill="grey"></circle><circle r="2" cx="194.41276987571803" cy="174.86660667920037" fill="grey"></circle><circle r="2" cx="194.46335083893382" cy="174.81772427316443" fill="grey"></circle><circle r="2" cx="194.5140633519199" cy="174.79554170705626" fill="grey"></circle><circle r="2" cx="194.5649081011665" cy="174.69201781706118" fill="grey"></circle><circle r="2" cx="194.6158857776538" cy="174.6270202519813" fill="grey"></circle><circle r="2" cx="194.66699707909657" cy="173.8329009285189" fill="grey"></circle><circle r="2" cx="194.7182427072504" cy="173.7828312103052" fill="grey"></circle><circle r="2" cx="194.76962337015667" cy="173.7800413708228" fill="grey"></circle><circle r="2" cx="194.82113978124437" cy="173.68700284124816" fill="grey"></circle><circle r="2" cx="194.8727926597795" cy="173.6549952598905" fill="grey"></circle><circle r="2" cx="194.92458273041555" cy="173.46594120225288" fill="grey"></circle><circle r="2" cx="194.97651072454084" cy="173.42322469385005" fill="grey"></circle><circle r="2" cx="195.02857737848245" cy="173.29835587392827" fill="grey"></circle><circle r="2" cx="195.0807834344041" cy="173.1770782001384" fill="grey"></circle><circle r="2" cx="195.13312964120448" cy="173.1563807545876" fill="grey"></circle><circle r="2" cx="195.18561675316968" cy="173.14118787444235" fill="grey"></circle><circle r="2" cx="195.23824553042283" cy="172.98949656357644" fill="grey"></circle><circle r="2" cx="195.29101674071956" cy="172.7898426358898" fill="grey"></circle><circle r="2" cx="195.34393115675428" cy="172.63638337985427" fill="grey"></circle><circle r="2" cx="195.39698955750717" cy="172.6018770054734" fill="grey"></circle><circle r="2" cx="195.45019272869317" cy="172.4189650252425" fill="grey"></circle><circle r="2" cx="195.5035414632107" cy="172.39538416970115" fill="grey"></circle><circle r="2" cx="195.55703655934613" cy="172.37867366809135" fill="grey"></circle><circle r="2" cx="195.6106788221205" cy="172.30320482391227" fill="grey"></circle><circle r="2" cx="195.6644690637384" cy="172.13399269376953" fill="grey"></circle><circle r="2" cx="195.7184081031393" cy="172.03617147536056" fill="grey"></circle><circle r="2" cx="195.7724967655482" cy="171.89468391094456" fill="grey"></circle><circle r="2" cx="195.8267358833739" cy="171.61156204418862" fill="grey"></circle><circle r="2" cx="195.88112629575994" cy="171.5354921128261" fill="grey"></circle><circle r="2" cx="195.93566884948237" cy="171.51226328181525" fill="grey"></circle><circle r="2" cx="195.9903643980521" cy="171.4107218263715" fill="grey"></circle><circle r="2" cx="196.0452138021636" cy="171.34235069341756" fill="grey"></circle><circle r="2" cx="196.10021792969508" cy="171.34235069341756" fill="grey"></circle><circle r="2" cx="196.15537765615733" cy="171.25356492983838" fill="grey"></circle><circle r="2" cx="196.21069386424494" cy="171.01906160990876" fill="grey"></circle><circle r="2" cx="196.2661674442851" cy="170.9521674304249" fill="grey"></circle><circle r="2" cx="196.32179929423756" cy="170.80312046240087" fill="grey"></circle><circle r="2" cx="196.3775903201439" cy="170.71788596810674" fill="grey"></circle><circle r="2" cx="196.43354143522927" cy="170.6086719431122" fill="grey"></circle><circle r="2" cx="196.4896535612494" cy="170.5931031417048" fill="grey"></circle><circle r="2" cx="196.5459276271438" cy="170.53493808633843" fill="grey"></circle><circle r="2" cx="196.60236457038255" cy="170.4033946966216" fill="grey"></circle><circle r="2" cx="196.65896533651733" cy="170.29522393226412" fill="grey"></circle><circle r="2" cx="196.7157308796305" cy="170.22653350994716" fill="grey"></circle><circle r="2" cx="196.77266216143704" cy="170.12920498220126" fill="grey"></circle><circle r="2" cx="196.82976015352952" cy="169.98661532142242" fill="grey"></circle><circle r="2" cx="196.88702583423512" cy="169.90326483358018" fill="grey"></circle><circle r="2" cx="196.9444601913098" cy="169.89368137041845" fill="grey"></circle><circle r="2" cx="197.00206422238682" cy="169.43760384803954" fill="grey"></circle><circle r="2" cx="197.05983893228333" cy="169.4078957677916" fill="grey"></circle><circle r="2" cx="197.1177853352449" cy="169.4078957677916" fill="grey"></circle><circle r="2" cx="197.1759044549458" cy="169.4078957677916" fill="grey"></circle><circle r="2" cx="197.23419732403985" cy="169.31922352164452" fill="grey"></circle><circle r="2" cx="197.29266498505845" cy="169.31922352164452" fill="grey"></circle><circle r="2" cx="197.35130848861456" cy="169.31922352164452" fill="grey"></circle><circle r="2" cx="197.41012889609678" cy="169.09725155636661" fill="grey"></circle><circle r="2" cx="197.46912727787324" cy="169.03877951910346" fill="grey"></circle><circle r="2" cx="197.52830471374057" cy="169.0095482864012" fill="grey"></circle><circle r="2" cx="197.58766229472005" cy="168.8219749454238" fill="grey"></circle><circle r="2" cx="197.6472011203635" cy="168.82027589889574" fill="grey"></circle><circle r="2" cx="197.70692230099823" cy="168.7993853352298" fill="grey"></circle><circle r="2" cx="197.7668269572782" cy="168.56907536832074" fill="grey"></circle><circle r="2" cx="197.8269162197348" cy="168.27939323105815" fill="grey"></circle><circle r="2" cx="197.88719123012402" cy="168.167883240012" fill="grey"></circle><circle r="2" cx="197.94765313963032" cy="168.12792388336914" fill="grey"></circle><circle r="2" cx="198.00830311156068" cy="168.12455130848224" fill="grey"></circle><circle r="2" cx="198.06914231954866" cy="168.09067904033245" fill="grey"></circle><circle r="2" cx="198.13017194755432" cy="168.0705144932213" fill="grey"></circle><circle r="2" cx="198.19139319166013" cy="167.90901725033072" fill="grey"></circle><circle r="2" cx="198.2528072591731" cy="167.90036218411814" fill="grey"></circle><circle r="2" cx="198.3144153681758" cy="167.87869763073567" fill="grey"></circle><circle r="2" cx="198.37621874887316" cy="167.87869763073567" fill="grey"></circle><circle r="2" cx="198.43821864269475" cy="167.87869763073567" fill="grey"></circle><circle r="2" cx="198.5004163040904" cy="167.8138377581643" fill="grey"></circle><circle r="2" cx="198.56281299783657" cy="167.77481279079134" fill="grey"></circle><circle r="2" cx="198.62541000307706" cy="167.38965329683933" fill="grey"></circle><circle r="2" cx="198.68820860883326" cy="167.38965329683933" fill="grey"></circle><circle r="2" cx="198.75121011849382" cy="167.38965329683933" fill="grey"></circle><circle r="2" cx="198.81441584712096" cy="167.32832877373278" fill="grey"></circle><circle r="2" cx="198.87782712324625" cy="167.3211468044914" fill="grey"></circle><circle r="2" cx="198.9414452884218" cy="167.3211468044914" fill="grey"></circle><circle r="2" cx="199.00527169632193" cy="167.31919037916637" fill="grey"></circle><circle r="2" cx="199.0693077154375" cy="167.26465146744172" fill="grey"></circle><circle r="2" cx="199.1335547268308" cy="167.2485938573719" fill="grey"></circle><circle r="2" cx="199.19801412503344" cy="167.21768132222746" fill="grey"></circle><circle r="2" cx="199.26268731939334" cy="167.21768132222746" fill="grey"></circle><circle r="2" cx="199.32757573317699" cy="167.146876152536" fill="grey"></circle><circle r="2" cx="199.39268080267095" cy="167.146876152536" fill="grey"></circle><circle r="2" cx="199.45800398032543" cy="167.07126426206003" fill="grey"></circle><circle r="2" cx="199.52354673205986" cy="167.06730494384072" fill="grey"></circle><circle r="2" cx="199.58931053905897" cy="166.97010270615317" fill="grey"></circle><circle r="2" cx="199.65529689732386" cy="166.9002300421598" fill="grey"></circle><circle r="2" cx="199.7215073181209" cy="166.8619431683035" fill="grey"></circle><circle r="2" cx="199.7879433288799" cy="166.8619431683035" fill="grey"></circle><circle r="2" cx="199.85460647139786" cy="166.8619431683035" fill="grey"></circle><circle r="2" cx="199.921498304982" cy="166.8619431683035" fill="grey"></circle><circle r="2" cx="199.98862040285806" cy="166.8619431683035" fill="grey"></circle><circle r="2" cx="200.05597435665976" cy="166.76057149449127" fill="grey"></circle><circle r="2" cx="200.1235617737353" cy="166.69705327866322" fill="grey"></circle><circle r="2" cx="200.19138427804506" cy="166.6882255226299" fill="grey"></circle><circle r="2" cx="200.25944351016162" cy="166.66320730263138" fill="grey"></circle><circle r="2" cx="200.32774112906583" cy="166.55332703444233" fill="grey"></circle><circle r="2" cx="200.39627881035076" cy="166.51192520567557" fill="grey"></circle><circle r="2" cx="200.4650582475686" cy="166.44785426013138" fill="grey"></circle><circle r="2" cx="200.53408115267993" cy="166.44785426013138" fill="grey"></circle><circle r="2" cx="200.60334925470636" cy="166.44364061205818" fill="grey"></circle><circle r="2" cx="200.67286430242467" cy="166.40775117892377" fill="grey"></circle><circle r="2" cx="200.74262806301988" cy="166.40379920007175" fill="grey"></circle><circle r="2" cx="200.8126423220851" cy="166.2582749585361" fill="grey"></circle><circle r="2" cx="200.88290888586658" cy="166.19601246504027" fill="grey"></circle><circle r="2" cx="200.9534295785697" cy="166.18641649968956" fill="grey"></circle><circle r="2" cx="201.02420624505297" cy="166.04296295390492" fill="grey"></circle><circle r="2" cx="201.09524075082805" cy="166.03129135771826" fill="grey"></circle><circle r="2" cx="201.16653498116156" cy="165.99437653850677" fill="grey"></circle><circle r="2" cx="201.23809084197327" cy="165.97178328156093" fill="grey"></circle><circle r="2" cx="201.30991026118303" cy="165.97178328156093" fill="grey"></circle><circle r="2" cx="201.3819951873636" cy="165.97178328156093" fill="grey"></circle><circle r="2" cx="201.45434759018994" cy="165.950880267698" fill="grey"></circle><circle r="2" cx="201.52696946313293" cy="165.88017965779696" fill="grey"></circle><circle r="2" cx="201.5998628198675" cy="165.85551862989513" fill="grey"></circle><circle r="2" cx="201.67302969831357" cy="165.7552123546208" fill="grey"></circle><circle r="2" cx="201.7464721592889" cy="165.66115455029805" fill="grey"></circle><circle r="2" cx="201.82019228561134" cy="165.66115455029805" fill="grey"></circle><circle r="2" cx="201.8941921856907" cy="165.59515980863557" fill="grey"></circle><circle r="2" cx="201.9684739908346" cy="165.55594335387633" fill="grey"></circle><circle r="2" cx="202.04303985704468" cy="165.50214536023555" fill="grey"></circle><circle r="2" cx="202.11789196546536" cy="165.49691536695377" fill="grey"></circle><circle r="2" cx="202.19303252193498" cy="165.49691536695377" fill="grey"></circle><circle r="2" cx="202.26846375833276" cy="165.49691536695377" fill="grey"></circle><circle r="2" cx="202.34418793212978" cy="165.49691536695377" fill="grey"></circle><circle r="2" cx="202.4202073272868" cy="165.49691536695377" fill="grey"></circle><circle r="2" cx="202.49652425560157" cy="165.49691536695377" fill="grey"></circle><circle r="2" cx="202.57314105491247" cy="165.4679538853563" fill="grey"></circle><circle r="2" cx="202.65006009044572" cy="165.43229573817052" fill="grey"></circle><circle r="2" cx="202.72728375661134" cy="165.2992803193934" fill="grey"></circle><circle r="2" cx="202.80481447610487" cy="165.2992803193934" fill="grey"></circle><circle r="2" cx="202.88265470035674" cy="165.2992803193934" fill="grey"></circle><circle r="2" cx="202.96080690998102" cy="165.2992803193934" fill="grey"></circle><circle r="2" cx="203.0392736165714" cy="165.2992803193934" fill="grey"></circle><circle r="2" cx="203.1180573613542" cy="165.2992803193934" fill="grey"></circle><circle r="2" cx="203.19716071653542" cy="165.2992803193934" fill="grey"></circle><circle r="2" cx="203.2765862853007" cy="165.27200840122728" fill="grey"></circle><circle r="2" cx="203.35633670450906" cy="165.2655562239875" fill="grey"></circle><circle r="2" cx="203.43641464155021" cy="165.1673014345213" fill="grey"></circle><circle r="2" cx="203.5168227974874" cy="165.1673014345213" fill="grey"></circle><circle r="2" cx="203.5975639079553" cy="164.94824647256542" fill="grey"></circle><circle r="2" cx="203.67864074091509" cy="164.94824647256542" fill="grey"></circle><circle r="2" cx="203.76005610024643" cy="164.94824647256542" fill="grey"></circle><circle r="2" cx="203.84181282529832" cy="164.85761856673932" fill="grey"></circle><circle r="2" cx="203.9239137895422" cy="164.83622813119345" fill="grey"></circle><circle r="2" cx="204.00636190506196" cy="164.818321996715" fill="grey"></circle><circle r="2" cx="204.08916011985974" cy="164.81235284161016" fill="grey"></circle><circle r="2" cx="204.17231141965198" cy="164.77850903836787" fill="grey"></circle><circle r="2" cx="204.25581882876745" cy="164.77363063173763" fill="grey"></circle><circle r="2" cx="204.33968541104517" cy="164.77056757291086" fill="grey"></circle><circle r="2" cx="204.42391426848738" cy="164.74757542947748" fill="grey"></circle><circle r="2" cx="204.5085085457495" cy="164.73849560929327" fill="grey"></circle><circle r="2" cx="204.59347142609911" cy="164.73022832068483" fill="grey"></circle><circle r="2" cx="204.67880613680396" cy="164.73022832068483" fill="grey"></circle><circle r="2" cx="204.76451594643785" cy="164.54701306837146" fill="grey"></circle><circle r="2" cx="204.8506041666767" cy="164.4896351462107" fill="grey"></circle><circle r="2" cx="204.9370741545434" cy="164.43344722537847" fill="grey"></circle><circle r="2" cx="205.02392931016286" cy="164.43344722537847" fill="grey"></circle><circle r="2" cx="205.11117308125193" cy="164.43344722537847" fill="grey"></circle><circle r="2" cx="205.19880895997642" cy="164.42804051952143" fill="grey"></circle><circle r="2" cx="205.28684048788998" cy="164.40525665035446" fill="grey"></circle><circle r="2" cx="205.37527125279115" cy="164.3923991352955" fill="grey"></circle><circle r="2" cx="205.46410489276428" cy="164.37445334162487" fill="grey"></circle><circle r="2" cx="205.55334509573038" cy="164.37445334162487" fill="grey"></circle><circle r="2" cx="205.6429955994474" cy="164.37445334162487" fill="grey"></circle><circle r="2" cx="205.7330601951017" cy="164.37445334162487" fill="grey"></circle><circle r="2" cx="205.82354272506356" cy="164.37445334162487" fill="grey"></circle><circle r="2" cx="205.91444708692762" cy="164.37445334162487" fill="grey"></circle><circle r="2" cx="206.0057772317172" cy="164.2512090845062" fill="grey"></circle><circle r="2" cx="206.097537167027" cy="164.11857284746057" fill="grey"></circle><circle r="2" cx="206.18973095702344" cy="164.11857284746057" fill="grey"></circle><circle r="2" cx="206.28236272379115" cy="163.99933158279813" fill="grey"></circle><circle r="2" cx="206.37543664868" cy="163.99243676674703" fill="grey"></circle><circle r="2" cx="206.4689569732035" cy="163.99243676674703" fill="grey"></circle><circle r="2" cx="206.56292799948716" cy="163.9789014186351" fill="grey"></circle><circle r="2" cx="206.65735409341173" cy="163.9789014186351" fill="grey"></circle><circle r="2" cx="206.75223968326625" cy="163.96560531677724" fill="grey"></circle><circle r="2" cx="206.8475892633397" cy="163.95080167455797" fill="grey"></circle><circle r="2" cx="206.94340739347223" cy="163.95080167455797" fill="grey"></circle><circle r="2" cx="207.03969870174876" cy="163.85412452089838" fill="grey"></circle><circle r="2" cx="207.1364678840504" cy="163.53262150383392" fill="grey"></circle><circle r="2" cx="207.23371970764592" cy="163.53262150383392" fill="grey"></circle><circle r="2" cx="207.33145901164093" cy="163.53262150383392" fill="grey"></circle><circle r="2" cx="207.42969070697777" cy="163.53262150383392" fill="grey"></circle><circle r="2" cx="207.52841977957857" cy="163.53262150383392" fill="grey"></circle><circle r="2" cx="207.62765129303887" cy="163.53262150383392" fill="grey"></circle><circle r="2" cx="207.7273903863828" cy="163.53262150383392" fill="grey"></circle><circle r="2" cx="207.82764227945097" cy="163.53262150383392" fill="grey"></circle><circle r="2" cx="207.92841227245137" cy="163.53262150383392" fill="grey"></circle><circle r="2" cx="208.02970574820426" cy="163.53262150383392" fill="grey"></circle><circle r="2" cx="208.1315281743872" cy="163.52345174763673" fill="grey"></circle><circle r="2" cx="208.2338851035348" cy="163.5132321256487" fill="grey"></circle><circle r="2" cx="208.3367821775288" cy="163.50853921467692" fill="grey"></circle><circle r="2" cx="208.44022512714892" cy="163.4571549656862" fill="grey"></circle><circle r="2" cx="208.5442197747668" cy="163.2636063903004" fill="grey"></circle><circle r="2" cx="208.64877203748884" cy="163.23909484304676" fill="grey"></circle><circle r="2" cx="208.75388792670725" cy="163.23576750017878" fill="grey"></circle><circle r="2" cx="208.85957355303867" cy="163.20814642356382" fill="grey"></circle><circle r="2" cx="208.9658351254265" cy="163.16301669774492" fill="grey"></circle><circle r="2" cx="209.07267895563055" cy="163.13746263474292" fill="grey"></circle><circle r="2" cx="209.18011146002274" cy="163.07438328623314" fill="grey"></circle><circle r="2" cx="209.28813916183253" cy="163.05102855302798" fill="grey"></circle><circle r="2" cx="209.3967686920443" cy="163.03191671169452" fill="grey"></circle><circle r="2" cx="209.5060067943365" cy="163.03191671169452" fill="grey"></circle><circle r="2" cx="209.61586032553043" cy="163.0037345599615" fill="grey"></circle><circle r="2" cx="209.7263362600803" cy="162.90093566348546" fill="grey"></circle><circle r="2" cx="209.8374416905219" cy="162.8516596693976" fill="grey"></circle><circle r="2" cx="209.94918383151364" cy="162.82654461229322" fill="grey"></circle><circle r="2" cx="210.06157002297923" cy="162.82654461229322" fill="grey"></circle><circle r="2" cx="210.17460773235277" cy="162.81822897056662" fill="grey"></circle><circle r="2" cx="210.28830455727245" cy="162.8163996130049" fill="grey"></circle><circle r="2" cx="210.40266822962155" cy="162.81634832481194" fill="grey"></circle><circle r="2" cx="210.5177066182222" cy="162.81634832481194" fill="grey"></circle><circle r="2" cx="210.63342773063133" cy="162.613112673993" fill="grey"></circle><circle r="2" cx="210.7498397198753" cy="162.613112673993" fill="grey"></circle><circle r="2" cx="210.86695088444998" cy="162.5708663791196" fill="grey"></circle><circle r="2" cx="210.98476967325962" cy="162.46609644421648" fill="grey"></circle><circle r="2" cx="211.10330469010646" cy="162.36907032979605" fill="grey"></circle><circle r="2" cx="211.2225646963847" cy="162.30524060877045" fill="grey"></circle><circle r="2" cx="211.34255861557023" cy="162.1923398459731" fill="grey"></circle><circle r="2" cx="211.4632955350167" cy="162.1923398459731" fill="grey"></circle><circle r="2" cx="211.58478471493507" cy="162.1923398459731" fill="grey"></circle><circle r="2" cx="211.70703558704653" cy="161.98100839027157" fill="grey"></circle><circle r="2" cx="211.83005776311322" cy="161.84825720097373" fill="grey"></circle><circle r="2" cx="211.95386103808116" cy="161.77030438365531" fill="grey"></circle><circle r="2" cx="212.07845539322298" cy="161.744074683717" fill="grey"></circle><circle r="2" cx="212.2038510037707" cy="161.63128090634257" fill="grey"></circle><circle r="2" cx="212.3300582420584" cy="161.58495448547708" fill="grey"></circle><circle r="2" cx="212.45708768335925" cy="161.32622474399528" fill="grey"></circle><circle r="2" cx="212.58495011037496" cy="161.27713600538516" fill="grey"></circle><circle r="2" cx="212.71365651997087" cy="161.00667898472028" fill="grey"></circle><circle r="2" cx="212.84321812766538" cy="160.995630713055" fill="grey"></circle><circle r="2" cx="212.9736463752629" cy="160.73129836612992" fill="grey"></circle><circle r="2" cx="213.1049529335474" cy="160.69313206044856" fill="grey"></circle><circle r="2" cx="213.23714971305833" cy="160.57812459044825" fill="grey"></circle><circle r="2" cx="213.3702488663353" cy="160.41530987656597" fill="grey"></circle><circle r="2" cx="213.50426279734648" cy="160.30866068387607" fill="grey"></circle><circle r="2" cx="213.63920416822378" cy="160.10157870819884" fill="grey"></circle><circle r="2" cx="213.77508590465007" cy="159.98237951590693" fill="grey"></circle><circle r="2" cx="213.91192120483922" cy="159.92227192675622" fill="grey"></circle><circle r="2" cx="214.04972354671943" cy="159.4474795582497" fill="grey"></circle><circle r="2" cx="214.18850669691315" cy="159.24583537804165" fill="grey"></circle><circle r="2" cx="214.32828471657353" cy="158.94541624973766" fill="grey"></circle><circle r="2" cx="214.46907197260916" cy="158.72610058822062" fill="grey"></circle><circle r="2" cx="214.61088314486756" cy="158.6456507626068" fill="grey"></circle><circle r="2" cx="214.75373323601278" cy="158.6456507626068" fill="grey"></circle><circle r="2" cx="214.89763758140307" cy="158.26184583640597" fill="grey"></circle><circle r="2" cx="215.04261185717243" cy="158.12196423234562" fill="grey"></circle><circle r="2" cx="215.18867209235302" cy="158.02016074393464" fill="grey"></circle><circle r="2" cx="215.33583467965087" cy="157.36135253387528" fill="grey"></circle><circle r="2" cx="215.48411638442514" cy="155.95387664063534" fill="grey"></circle><circle r="2" cx="215.63353435905583" cy="155.68077157324493" fill="grey"></circle><circle r="2" cx="215.78410615147428" cy="155.49452346903968" fill="grey"></circle><circle r="2" cx="215.93584972087731" cy="154.94232262344448" fill="grey"></circle><circle r="2" cx="216.088783448054" cy="154.71894078006102" fill="grey"></circle><circle r="2" cx="216.24292615020184" cy="154.65192382620344" fill="grey"></circle><circle r="2" cx="216.39829709349826" cy="154.5255463549133" fill="grey"></circle><circle r="2" cx="216.55491601016192" cy="154.39091796951766" fill="grey"></circle><circle r="2" cx="216.71280310922802" cy="154.26079831109556" fill="grey"></circle><circle r="2" cx="216.87197909765058" cy="154.1868042746803" fill="grey"></circle><circle r="2" cx="217.03246519062895" cy="154.171853554909" fill="grey"></circle><circle r="2" cx="217.19428313405663" cy="153.83012116169837" fill="grey"></circle><circle r="2" cx="217.35745521799083" cy="153.63795102786358" fill="grey"></circle><circle r="2" cx="217.52200429775453" cy="153.1693509611972" fill="grey"></circle><circle r="2" cx="217.6879538123445" cy="153.0838737996569" fill="grey"></circle><circle r="2" cx="217.85532780328873" cy="152.70320703417838" fill="grey"></circle><circle r="2" cx="218.02415093799303" cy="152.2325920818709" fill="grey"></circle><circle r="2" cx="218.19444852904752" cy="151.34420509752405" fill="grey"></circle><circle r="2" cx="218.36624655892024" cy="149.87943283220835" fill="grey"></circle><circle r="2" cx="218.5395717024064" cy="149.75225610291025" fill="grey"></circle><circle r="2" cx="218.71445135221995" cy="149.7081880950728" fill="grey"></circle><circle r="2" cx="218.89091364503471" cy="149.2585531450611" fill="grey"></circle><circle r="2" cx="219.068987487525" cy="149.08663761533543" fill="grey"></circle><circle r="2" cx="219.24870258689631" cy="148.73276727800123" fill="grey"></circle><circle r="2" cx="219.4300894782732" cy="148.73276727800123" fill="grey"></circle><circle r="2" cx="219.61317955837265" cy="148.06195963811612" fill="grey"></circle><circle r="2" cx="219.7980051151367" cy="148.06195963811612" fill="grey"></circle><circle r="2" cx="219.9845993645491" cy="147.62819924949864" fill="grey"></circle><circle r="2" cx="220.17299648475736" cy="146.79680107650006" fill="grey"></circle><circle r="2" cx="220.36323165423636" cy="146.56087342885078" fill="grey"></circle><circle r="2" cx="220.5553410926454" cy="146.49600223250914" fill="grey"></circle><circle r="2" cx="220.74936209854255" cy="146.44406337457943" fill="grey"></circle><circle r="2" cx="220.94533309742545" cy="146.3921716947101" fill="grey"></circle><circle r="2" cx="221.14329368348652" cy="145.9950332069366" fill="grey"></circle><circle r="2" cx="221.34328466989862" cy="143.01330534979573" fill="grey"></circle><circle r="2" cx="221.54534813865192" cy="142.9320906769456" fill="grey"></circle><circle r="2" cx="221.7495274939824" cy="141.376836590764" fill="grey"></circle><circle r="2" cx="221.9558675171476" cy="141.35855126704192" fill="grey"></circle><circle r="2" cx="222.16441442748754" cy="141.3120465979602" fill="grey"></circle><circle r="2" cx="222.37521594303735" cy="140.9749859708077" fill="grey"></circle><circle r="2" cx="222.58832134518022" cy="140.59835544120898" fill="grey"></circle><circle r="2" cx="222.80378155138223" cy="140.1020831481163" fill="grey"></circle><circle r="2" cx="223.02164918388618" cy="139.96066742710343" fill="grey"></circle><circle r="2" cx="223.24197864918102" cy="139.87052488641126" fill="grey"></circle><circle r="2" cx="223.46482622061436" cy="139.46672621341742" fill="grey"></circle><circle r="2" cx="223.69025012100445" cy="138.85330023259067" fill="grey"></circle><circle r="2" cx="223.91831061872227" cy="138.0705945474897" fill="grey"></circle><circle r="2" cx="224.14907011973204" cy="137.25298236735358" fill="grey"></circle><circle r="2" cx="224.3825932726527" cy="136.22430054959617" fill="grey"></circle><circle r="2" cx="224.61894707875817" cy="136.08889864715616" fill="grey"></circle><circle r="2" cx="224.85820100332398" cy="136.04771038239323" fill="grey"></circle><circle r="2" cx="225.10042710268883" cy="135.72665599250712" fill="grey"></circle><circle r="2" cx="225.34570015086697" cy="135.48116825989192" fill="grey"></circle><circle r="2" cx="225.59409778097674" cy="135.33971058788902" fill="grey"></circle><circle r="2" cx="225.84570062981214" cy="134.76875867516492" fill="grey"></circle><circle r="2" cx="226.10059249767977" cy="133.87596644840937" fill="grey"></circle><circle r="2" cx="226.35886051497022" cy="133.38229655408765" fill="grey"></circle><circle r="2" cx="226.62059532040323" cy="133.14112786911485" fill="grey"></circle><circle r="2" cx="226.8858912527421" cy="132.84222527677025" fill="grey"></circle><circle r="2" cx="227.15484655463058" cy="132.20041557453501" fill="grey"></circle><circle r="2" cx="227.42756359079704" cy="132.1994252774973" fill="grey"></circle><circle r="2" cx="227.70414908287097" cy="132.1994252774973" fill="grey"></circle><circle r="2" cx="227.98471435811805" cy="132.16141847129552" fill="grey"></circle><circle r="2" cx="228.26937562152162" cy="131.95624115394986" fill="grey"></circle><circle r="2" cx="228.55825424178335" cy="131.7680768634309" fill="grey"></circle><circle r="2" cx="228.85147706426176" cy="131.53909230291038" fill="grey"></circle><circle r="2" cx="229.14917674366677" cy="130.91585462211415" fill="grey"></circle><circle r="2" cx="229.45149210548823" cy="130.88956728760283" fill="grey"></circle><circle r="2" cx="229.75856853391477" cy="130.88956728760283" fill="grey"></circle><circle r="2" cx="230.07055839387485" cy="130.5882713978806" fill="grey"></circle><circle r="2" cx="230.38762148091456" cy="130.34186263298764" fill="grey"></circle><circle r="2" cx="230.7099255168716" cy="130.34186263298764" fill="grey"></circle><circle r="2" cx="231.0376466805695" cy="130.1940792517226" fill="grey"></circle><circle r="2" cx="231.3709701856547" cy="130.06578776018705" fill="grey"></circle><circle r="2" cx="231.71009091141354" cy="129.97310882066537" fill="grey"></circle><circle r="2" cx="232.05521408432344" cy="129.8889561713705" fill="grey"></circle><circle r="2" cx="232.40655602605378" cy="129.54931887949158" fill="grey"></circle><circle r="2" cx="232.7643449674664" cy="129.32959607682386" fill="grey"></circle><circle r="2" cx="233.12882193894274" cy="129.0052205939781" fill="grey"></circle><circle r="2" cx="233.5002417442212" cy="128.88420651232116" fill="grey"></circle><circle r="2" cx="233.8788740339085" cy="128.81821021346983" fill="grey"></circle><circle r="2" cx="234.26500447821465" cy="128.81821021346983" fill="grey"></circle><circle r="2" cx="234.65893606226066" cy="128.55896750623882" fill="grey"></circle><circle r="2" cx="235.06099051697709" cy="128.51948401403888" fill="grey"></circle><circle r="2" cx="235.47150989502376" cy="127.28243997941611" fill="grey"></circle><circle r="2" cx="235.89085831956658" cy="127.18955806683132" fill="grey"></circle><circle r="2" cx="236.3194239274625" cy="126.07810220541106" fill="grey"></circle><circle r="2" cx="236.75762102526133" cy="124.86268493135165" fill="grey"></circle><circle r="2" cx="237.20589249663578" cy="124.1376741649882" fill="grey"></circle><circle r="2" cx="237.66471249401638" cy="124.03496391737818" fill="grey"></circle><circle r="2" cx="238.1345894525936" cy="123.8019736924494" fill="grey"></circle><circle r="2" cx="238.61606947607527" cy="123.38564578777603" fill="grey"></circle><circle r="2" cx="239.10974015301622" cy="123.26627452956693" fill="grey"></circle><circle r="2" cx="239.61623486927022" cy="122.91456762227133" fill="grey"></circle><circle r="2" cx="240.13623769109574" cy="122.85437082677434" fill="grey"></circle><circle r="2" cx="240.67048892487412" cy="122.72830933574664" fill="grey"></circle><circle r="2" cx="241.2197914517676" cy="122.17536432227341" fill="grey"></circle><circle r="2" cx="241.7850179895203" cy="121.07631434763113" fill="grey"></circle><circle r="2" cx="242.36711943136243" cy="118.57961687467363" fill="grey"></circle><circle r="2" cx="242.96713447124196" cy="116.15729814010461" fill="grey"></circle><circle r="2" cx="243.58620075828165" cy="115.66894456568888" fill="grey"></circle><circle r="2" cx="244.2255678799315" cy="114.91158776432785" fill="grey"></circle><circle r="2" cx="244.88661254781664" cy="114.35201131264273" fill="grey"></circle><circle r="2" cx="245.57085644468944" cy="113.15727056201487" fill="grey"></circle><circle r="2" cx="246.27998732693442" cy="112.00184414585901" fill="grey"></circle><circle r="2" cx="247.01588410189333" cy="111.55466393171184" fill="grey"></circle><circle r="2" cx="247.7806468331929" cy="111.55466393171184" fill="grey"></circle><circle r="2" cx="248.5766328701594" cy="102.61761750431728" fill="grey"></circle><circle r="2" cx="249.406500670953" cy="98.12033434380616" fill="grey"></circle><circle r="2" cx="250.2732633744028" cy="97.6137667313934" fill="grey"></circle><circle r="2" cx="251.180354840913" cy="96.25674349081132" fill="grey"></circle><circle r="2" cx="252.13171181982895" cy="86.0146050134325" fill="grey"></circle><circle r="2" cx="253.13187720988114" cy="80.74482199216959" fill="grey"></circle><circle r="2" cx="254.18613126144422" cy="78.63011567357864" fill="grey"></circle><circle r="2" cx="255.30066032249852" cy="76.03777090869661" fill="grey"></circle><circle r="2" cx="256.4827767997304" cy="75.9909745247724" fill="grey"></circle><circle r="2" cx="257.74121020482806" cy="63.44804935837818" fill="grey"></circle><circle r="2" cx="259.08649876330026" cy="57.32480931574969" fill="grey"></circle><circle r="2" cx="260.5315264137695" cy="54.97308323659191" fill="grey"></circle><circle r="2" cx="262.0922751748519" cy="54.59971623674515" fill="grey"></circle><circle r="2" cx="263.78890566921774" cy="53.932247619336934" fill="grey"></circle><circle r="2" cx="265.6473541038684" cy="52.867800032217495" fill="grey"></circle><circle r="2" cx="267.70177353201416" cy="52.66135312511692" fill="grey"></circle><circle r="2" cx="269.998419055933" cy="50.417028250394345" fill="grey"></circle><circle r="2" cx="272.6021409975029" cy="49.51044683218336" fill="grey"></circle><circle r="2" cx="275.6079173807688" cy="47.039812339523124" fill="grey"></circle><circle r="2" cx="279.162996270724" cy="46.492467662231896" fill="grey"></circle><circle r="2" cx="283.51406116172745" cy="33.8063987051181" fill="grey"></circle><circle r="2" cx="289.12355938733856" cy="28.27626958698599" fill="grey"></circle><circle r="2" cx="297.0297029702971" cy="2.970297029702973" fill="grey"></circle><g class="x axis" transform="translate(0,300)"><g class="tick" transform="translate(0,0)" style="opacity: 1;"><line y2="6" x2="0" style="fill: none; stroke: grey;"></line><text dy=".71em" y="9" x="0" style="text-anchor: middle; font-size: 11px; font-family: sans-serif;">0</text></g><g class="tick" transform="translate(44.897992218142335,0)" style="opacity: 1;"><line y2="6" x2="0" style="fill: none; stroke: grey;"></line><text dy=".71em" y="9" x="0" style="text-anchor: middle; font-size: 11px; font-family: sans-serif;">1</text></g><g class="tick" transform="translate(89.79598443628467,0)" style="opacity: 1;"><line y2="6" x2="0" style="fill: none; stroke: grey;"></line><text dy=".71em" y="9" x="0" style="text-anchor: middle; font-size: 11px; font-family: sans-serif;">2</text></g><g class="tick" transform="translate(134.69397665442702,0)" style="opacity: 1;"><line y2="6" x2="0" style="fill: none; stroke: grey;"></line><text dy=".71em" y="9" x="0" style="text-anchor: middle; font-size: 11px; font-family: sans-serif;">3</text></g><g class="tick" transform="translate(179.59196887256934,0)" style="opacity: 1;"><line y2="6" x2="0" style="fill: none; stroke: grey;"></line><text dy=".71em" y="9" x="0" style="text-anchor: middle; font-size: 11px; font-family: sans-serif;">4</text></g><g class="tick" transform="translate(224.48996109071166,0)" style="opacity: 1;"><line y2="6" x2="0" style="fill: none; stroke: grey;"></line><text dy=".71em" y="9" x="0" style="text-anchor: middle; font-size: 11px; font-family: sans-serif;">5</text></g><g class="tick" transform="translate(269.38795330885404,0)" style="opacity: 1;"><line y2="6" x2="0" style="fill: none; stroke: grey;"></line><text dy=".71em" y="9" x="0" style="text-anchor: middle; font-size: 11px; font-family: sans-serif;">6</text></g><path class="domain" d="M0,6V0H300V6" style="fill: none; stroke: grey;"></path></g><g class="y axis"><g class="tick" transform="translate(0,300)" style="opacity: 1;"><line x2="-6" y2="0" style="fill: none; stroke: grey;"></line><text dy=".32em" x="-9" y="0" style="text-anchor: end; font-size: 11px; font-family: sans-serif;">0</text></g><g class="tick" transform="translate(0,260.4623859463101)" style="opacity: 1;"><line x2="-6" y2="0" style="fill: none; stroke: grey;"></line><text dy=".32em" x="-9" y="0" style="text-anchor: end; font-size: 11px; font-family: sans-serif;">2</text></g><g class="tick" transform="translate(0,220.9247718926203)" style="opacity: 1;"><line x2="-6" y2="0" style="fill: none; stroke: grey;"></line><text dy=".32em" x="-9" y="0" style="text-anchor: end; font-size: 11px; font-family: sans-serif;">4</text></g><g class="tick" transform="translate(0,181.38715783893045)" style="opacity: 1;"><line x2="-6" y2="0" style="fill: none; stroke: grey;"></line><text dy=".32em" x="-9" y="0" style="text-anchor: end; font-size: 11px; font-family: sans-serif;">6</text></g><g class="tick" transform="translate(0,141.84954378524063)" style="opacity: 1;"><line x2="-6" y2="0" style="fill: none; stroke: grey;"></line><text dy=".32em" x="-9" y="0" style="text-anchor: end; font-size: 11px; font-family: sans-serif;">8</text></g><g class="tick" transform="translate(0,102.31192973155078)" style="opacity: 1;"><line x2="-6" y2="0" style="fill: none; stroke: grey;"></line><text dy=".32em" x="-9" y="0" style="text-anchor: end; font-size: 11px; font-family: sans-serif;">10</text></g><g class="tick" transform="translate(0,62.774315677860926)" style="opacity: 1;"><line x2="-6" y2="0" style="fill: none; stroke: grey;"></line><text dy=".32em" x="-9" y="0" style="text-anchor: end; font-size: 11px; font-family: sans-serif;">12</text></g><g class="tick" transform="translate(0,23.236701624171108)" style="opacity: 1;"><line x2="-6" y2="0" style="fill: none; stroke: grey;"></line><text dy=".32em" x="-9" y="0" style="text-anchor: end; font-size: 11px; font-family: sans-serif;">14</text></g><path class="domain" d="M-6,0H0V300H-6" style="fill: none; stroke: grey;"></path></g><line x1="0" x2="297.0297029702971" y1="300" y2="169.21635937011573" style="stroke: red; stroke-dasharray: 3, 3;"></line><text text-anchor="middle" transform="translate(-35,150)rotate(-90)" style="font-family: sans-serif;">Observed -log10 P-value</text><text text-anchor="middle" transform="translate(150,335)" style="font-family: sans-serif;">Expected -log10 P-value</text></g></svg>