<svg width="500" height="250"><g transform="translate(40,20)"><text x="390" y="10" style="font-size: 10px; font-family: sans-serif;">-log2(E)</text><g><rect class="legendRect" x="390" y="13" width="20" height="5" fill="#ff0000"></rect></g><g><rect class="legendRect" x="390" y="18" width="20" height="5" fill="#ff1715"></rect></g><g><rect class="legendRect" x="390" y="23" width="20" height="5" fill="#ff2f2a"></rect></g><g><rect class="legendRect" x="390" y="28" width="20" height="5" fill="#ff463f"></rect></g><g><rect class="legendRect" x="390" y="33" width="20" height="5" fill="#ff5d54"></rect></g><g><rect class="legendRect" x="390" y="38" width="20" height="5" fill="#ff7569"></rect></g><g><rect class="legendRect" x="390" y="43" width="20" height="5" fill="#ff8c7e"></rect></g><g><rect class="legendRect" x="390" y="48" width="20" height="5" fill="#ffa393"></rect></g><g><rect class="legendRect" x="390" y="53" width="20" height="5" fill="#ffbaa8"></rect></g><g><rect class="legendRect" x="390" y="58" width="20" height="5" fill="#ffd2bd"></rect></g><g><rect class="legendRect" x="390" y="63" width="20" height="5" fill="#ffe9d2"></rect></g><g><rect class="legendRect" x="390" y="68" width="20" height="5" fill="#fafae6"></rect></g><g><rect class="legendRect" x="390" y="73" width="20" height="5" fill="#a7a7ef"></rect></g><g><rect class="legendRect" x="390" y="78" width="20" height="5" fill="#5353f7"></rect></g><g><rect class="legendRect" x="390" y="83" width="20" height="5" fill="#0000ff"></rect></g><g><text text-anchor="start" class="legenedText" x="412" y="20" style="font-size: 10px; font-family: sans-serif;">4.58</text></g><g><text text-anchor="start" class="legenedText" x="412" y="90" style="font-size: 10px; font-family: sans-serif;">-1.28</text></g><text x="390" y="105" style="font-size: 10px; font-family: sans-serif;">* p&lt;0.05</text><text x="390" y="120" style="font-size: 10px; font-family: sans-serif;">** p&lt;0.05/11</text><rect class="backbar" x="5" width="31" y="73.33333333333334" height="66.66666666666666" fill="transparent" opacity="0"></rect><rect class="backbar" x="39" width="31" y="73.33333333333334" height="66.66666666666666" fill="transparent" opacity="0"></rect><rect class="backbar" x="73" width="31" y="73.33333333333334" height="66.66666666666666" fill="transparent" opacity="0"></rect><rect class="backbar" x="107" width="31" y="73.33333333333334" height="66.66666666666666" fill="transparent" opacity="0"></rect><rect class="backbar" x="141" width="31" y="73.33333333333334" height="66.66666666666666" fill="transparent" opacity="0"></rect><rect class="backbar" x="175" width="31" y="73.33333333333334" height="66.66666666666666" fill="transparent" opacity="0"></rect><rect class="backbar" x="209" width="31" y="73.33333333333334" height="66.66666666666666" fill="transparent" opacity="0"></rect><rect class="backbar" x="243" width="31" y="73.33333333333334" height="66.66666666666666" fill="transparent" opacity="0"></rect><rect class="backbar" x="277" width="31" y="73.33333333333334" height="66.66666666666666" fill="transparent" opacity="0"></rect><rect class="backbar" x="311" width="31" y="73.33333333333334" height="66.66666666666666" fill="transparent" opacity="0"></rect><rect class="backbar" x="345" width="31" y="73.33333333333334" height="66.66666666666666" fill="transparent" opacity="0"></rect><rect class="bar" x="5" width="31" y="6.666666666666674" height="133.33333333333331" fill="#ffead3"></rect><rect class="bar" x="39" width="31" y="75.36299765807972" height="64.63700234192028" fill="#4a4af8"></rect><rect class="bar" x="73" width="31" y="101.90476190476183" height="38.09523809523817" fill="#ffefd7"></rect><rect class="bar" x="107" width="31" y="130.00780640124904" height="9.992193598750958" fill="#ff9384"></rect><rect class="bar" x="141" width="31" y="131.88134270101483" height="8.11865729898517" fill="#ffa797"></rect><rect class="bar" x="175" width="31" y="134.37939110070258" height="5.620608899297423" fill="#ffc8b4"></rect><rect class="bar" x="209" width="31" y="135.00390320062453" height="4.996096799375465" fill="#ffcab6"></rect><rect class="bar" x="243" width="31" y="136.87743950039032" height="3.1225604996096763" fill="#ff8e80"></rect><rect class="bar" x="277" width="31" y="138.75097580015614" height="1.2490241998438592" fill="#0000ff"></rect><rect class="bar" x="311" width="31" y="139.37548790007807" height="0.6245120999219296" fill="#ff0000"></rect><rect class="bar" x="345" width="31" y="140" height="0" fill="#0000ff"></rect><text x="17.09090909090909" y="6.800000000000008" text-anchor="start" style="font-family: sans-serif;">*</text><text x="51.09090909090909" y="76.87025761124131" text-anchor="start" style="font-family: sans-serif;">*</text><text x="85.0909090909091" y="103.94285714285706" text-anchor="start" style="font-family: sans-serif;">*</text><text x="119.0909090909091" y="132.60796252927403" text-anchor="start" style="font-family: sans-serif;">*</text><text x="153.0909090909091" y="134.51896955503514" text-anchor="start" style="font-family: sans-serif;">*</text><text x="187.0909090909091" y="137.06697892271663" text-anchor="start" style="font-family: sans-serif;">*</text><text x="221.0909090909091" y="137.70398126463704" text-anchor="start" style="font-family: sans-serif;">*</text><text x="255.0909090909091" y="139.61498829039814" text-anchor="start" style="font-family: sans-serif;">*</text><text x="323.09090909090907" y="142.16299765807963" text-anchor="start" style="font-family: sans-serif;">*</text><g class="x axis" transform="translate(0,140)"><g class="tick" transform="translate(20.5,0)" style="opacity: 1;"><line y2="6" x2="0"></line><text dy="-.45em" y="9" x="0" transform="rotate(-65)" dx="-.65em" style="text-anchor: end; font-family: sans-serif; font-size: 11px;">intronic</text></g><g class="tick" transform="translate(54.5,0)" style="opacity: 1;"><line y2="6" x2="0"></line><text dy="-.45em" y="9" x="0" transform="rotate(-65)" dx="-.65em" style="text-anchor: end; font-family: sans-serif; font-size: 11px;">intergenic</text></g><g class="tick" transform="translate(88.5,0)" style="opacity: 1;"><line y2="6" x2="0"></line><text dy="-.45em" y="9" x="0" transform="rotate(-65)" dx="-.65em" style="text-anchor: end; font-family: sans-serif; font-size: 11px;">ncRNA_intronic</text></g><g class="tick" transform="translate(122.5,0)" style="opacity: 1;"><line y2="6" x2="0"></line><text dy="-.45em" y="9" x="0" transform="rotate(-65)" dx="-.65em" style="text-anchor: end; font-family: sans-serif; font-size: 11px;">exonic</text></g><g class="tick" transform="translate(156.5,0)" style="opacity: 1;"><line y2="6" x2="0"></line><text dy="-.45em" y="9" x="0" transform="rotate(-65)" dx="-.65em" style="text-anchor: end; font-family: sans-serif; font-size: 11px;">ncRNA_exonic</text></g><g class="tick" transform="translate(190.5,0)" style="opacity: 1;"><line y2="6" x2="0"></line><text dy="-.45em" y="9" x="0" transform="rotate(-65)" dx="-.65em" style="text-anchor: end; font-family: sans-serif; font-size: 11px;">upstream</text></g><g class="tick" transform="translate(224.5,0)" style="opacity: 1;"><line y2="6" x2="0"></line><text dy="-.45em" y="9" x="0" transform="rotate(-65)" dx="-.65em" style="text-anchor: end; font-family: sans-serif; font-size: 11px;">UTR3</text></g><g class="tick" transform="translate(258.5,0)" style="opacity: 1;"><line y2="6" x2="0"></line><text dy="-.45em" y="9" x="0" transform="rotate(-65)" dx="-.65em" style="text-anchor: end; font-family: sans-serif; font-size: 11px;">UTR5</text></g><g class="tick" transform="translate(292.5,0)" style="opacity: 1;"><line y2="6" x2="0"></line><text dy="-.45em" y="9" x="0" transform="rotate(-65)" dx="-.65em" style="text-anchor: end; font-family: sans-serif; font-size: 11px;">downstream</text></g><g class="tick" transform="translate(326.5,0)" style="opacity: 1;"><line y2="6" x2="0"></line><text dy="-.45em" y="9" x="0" transform="rotate(-65)" dx="-.65em" style="text-anchor: end; font-family: sans-serif; font-size: 11px;">splicing</text></g><g class="tick" transform="translate(360.5,0)" style="opacity: 1;"><line y2="6" x2="0"></line><text dy="-.45em" y="9" x="0" transform="rotate(-65)" dx="-.65em" style="text-anchor: end; font-family: sans-serif; font-size: 11px;">ncRNA_splicing</text></g><path class="domain" d="M0,6V0H380V6" style="fill: none; stroke: grey;"></path></g><g class="y axis"><g class="tick" transform="translate(0,140)" style="opacity: 1;"><line x2="-6" y2="0"></line><text dy=".32em" x="-9" y="0" style="text-anchor: end; font-family: sans-serif; font-size: 11px;">0.0</text></g><g class="tick" transform="translate(0,113.02107728337236)" style="opacity: 1;"><line x2="-6" y2="0"></line><text dy=".32em" x="-9" y="0" style="text-anchor: end; font-family: sans-serif; font-size: 11px;">0.1</text></g><g class="tick" transform="translate(0,86.04215456674473)" style="opacity: 1;"><line x2="-6" y2="0"></line><text dy=".32em" x="-9" y="0" style="text-anchor: end; font-family: sans-serif; font-size: 11px;">0.2</text></g><g class="tick" transform="translate(0,59.06323185011711)" style="opacity: 1;"><line x2="-6" y2="0"></line><text dy=".32em" x="-9" y="0" style="text-anchor: end; font-family: sans-serif; font-size: 11px;">0.3</text></g><g class="tick" transform="translate(0,32.08430913348947)" style="opacity: 1;"><line x2="-6" y2="0"></line><text dy=".32em" x="-9" y="0" style="text-anchor: end; font-family: sans-serif; font-size: 11px;">0.4</text></g><g class="tick" transform="translate(0,5.1053864168618475)" style="opacity: 1;"><line x2="-6" y2="0"></line><text dy=".32em" x="-9" y="0" style="text-anchor: end; font-family: sans-serif; font-size: 11px;">0.5</text></g><path class="domain" d="M-6,0H0V140H-6" style="fill: none; stroke: grey;"></path><text transform="rotate(-90)" dy=".71em" style="text-anchor: end; font-family: sans-serif; font-size: 11px;"></text></g><text text-anchor="middle" transform="translate(-28,70)rotate(-90)" style="font-family: sans-serif;">Proportion</text></g></svg>