<svg width="1080" height="525"><g transform="translate(385,40)"><rect class="bar" x="55.32786885245903" width="94.67213114754097" y="0" height="15" style="fill: rgb(255, 102, 102); stroke: grey; stroke-width: 0.3;"></rect><rect class="bar" x="94.51450189155108" width="55.48549810844892" y="15" height="15" style="fill: rgb(255, 102, 102); stroke: grey; stroke-width: 0.3;"></rect><rect class="bar" x="138.2857880469859" width="11.714211953014086" y="30" height="15" style="fill: rgb(255, 102, 102); stroke: grey; stroke-width: 0.3;"></rect><rect class="bar" x="82.37704918032787" width="67.62295081967213" y="45" height="15" style="fill: rgb(255, 102, 102); stroke: grey; stroke-width: 0.3;"></rect><rect class="bar" x="27.04918032786886" width="122.95081967213113" y="60" height="15" style="fill: rgb(255, 102, 102); stroke: grey; stroke-width: 0.3;"></rect><rect class="bar" x="37.295081967213115" width="112.70491803278688" y="75" height="15" style="fill: rgb(255, 102, 102); stroke: grey; stroke-width: 0.3;"></rect><rect class="bar" x="135.8463591307663" width="14.153640869233698" y="90" height="15" style="fill: rgb(255, 102, 102); stroke: grey; stroke-width: 0.3;"></rect><rect class="bar" x="78.81794650560828" width="71.18205349439172" y="105" height="15" style="fill: rgb(255, 102, 102); stroke: grey; stroke-width: 0.3;"></rect><rect class="bar" x="137.2923313895918" width="12.707668610408206" y="120" height="15" style="fill: rgb(255, 102, 102); stroke: grey; stroke-width: 0.3;"></rect><rect class="bar" x="122.3987955838073" width="27.6012044161927" y="135" height="15" style="fill: rgb(255, 102, 102); stroke: grey; stroke-width: 0.3;"></rect><rect class="bar" x="134.39470365699873" width="15.605296343001271" y="150" height="15" style="fill: rgb(255, 102, 102); stroke: grey; stroke-width: 0.3;"></rect><rect class="bar" x="34.07494145199064" width="115.92505854800936" y="165" height="15" style="fill: rgb(255, 102, 102); stroke: grey; stroke-width: 0.3;"></rect><rect class="bar" x="134.0887174541948" width="15.911282545805193" y="180" height="15" style="fill: rgb(255, 102, 102); stroke: grey; stroke-width: 0.3;"></rect><rect class="bar" x="59.8360655737705" width="90.1639344262295" y="195" height="15" style="fill: rgb(255, 102, 102); stroke: grey; stroke-width: 0.3;"></rect><rect class="bar" x="122.95081967213115" width="27.049180327868854" y="210" height="15" style="fill: rgb(255, 102, 102); stroke: grey; stroke-width: 0.3;"></rect><rect class="bar" x="95.9016393442623" width="54.09836065573769" y="225" height="15" style="fill: rgb(255, 102, 102); stroke: grey; stroke-width: 0.3;"></rect><rect class="bar" x="107.29076790336497" width="42.709232096635034" y="240" height="15" style="fill: rgb(255, 102, 102); stroke: grey; stroke-width: 0.3;"></rect><rect class="bar" x="141.10224331320103" width="8.89775668679897" y="255" height="15" style="fill: rgb(255, 102, 102); stroke: grey; stroke-width: 0.3;"></rect><rect class="bar" x="113.11475409836066" width="36.88524590163934" y="270" height="15" style="fill: rgb(255, 102, 102); stroke: grey; stroke-width: 0.3;"></rect><rect class="bar" x="127.45901639344262" width="22.540983606557376" y="285" height="15" style="fill: rgb(255, 102, 102); stroke: grey; stroke-width: 0.3;"></rect><rect class="bar" x="72.71662763466043" width="77.28337236533957" y="300" height="15" style="fill: rgb(255, 102, 102); stroke: grey; stroke-width: 0.3;"></rect><rect class="bar" x="95.9016393442623" width="54.09836065573769" y="315" height="15" style="fill: rgb(255, 102, 102); stroke: grey; stroke-width: 0.3;"></rect><rect class="bar" x="136.69712442891696" width="13.302875571083035" y="330" height="15" style="fill: rgb(255, 102, 102); stroke: grey; stroke-width: 0.3;"></rect><rect class="bar" x="143.44262295081967" width="6.557377049180332" y="345" height="15" style="fill: rgb(255, 102, 102); stroke: grey; stroke-width: 0.3;"></rect><rect class="bar" x="111.35831381733021" width="38.64168618266979" y="360" height="15" style="fill: rgb(255, 102, 102); stroke: grey; stroke-width: 0.3;"></rect><rect class="bar" x="139.59646910466583" width="10.403530895334171" y="375" height="15" style="fill: rgb(255, 102, 102); stroke: grey; stroke-width: 0.3;"></rect><rect class="bar" x="127.45901639344262" width="22.540983606557376" y="390" height="15" style="fill: rgb(255, 102, 102); stroke: grey; stroke-width: 0.3;"></rect><g class="x axis" transform="translate(0,405)"><g class="tick" transform="translate(136.47540983606555,0)" style="opacity: 1;"><line y2="6" x2="0" style="fill: none; stroke: grey;"></line><text dy=".71em" y="9" x="0" font-weight="normal" transform="translate(-10,3)rotate(-65)" style="text-anchor: end; font-size: 11px; font-family: sans-serif;">0.05</text></g><g class="tick" transform="translate(122.95081967213115,0)" style="opacity: 1;"><line y2="6" x2="0" style="fill: none; stroke: grey;"></line><text dy=".71em" y="9" x="0" font-weight="normal" transform="translate(-10,3)rotate(-65)" style="text-anchor: end; font-size: 11px; font-family: sans-serif;">0.10</text></g><g class="tick" transform="translate(109.42622950819671,0)" style="opacity: 1;"><line y2="6" x2="0" style="fill: none; stroke: grey;"></line><text dy=".71em" y="9" x="0" font-weight="normal" transform="translate(-10,3)rotate(-65)" style="text-anchor: end; font-size: 11px; font-family: sans-serif;">0.15</text></g><g class="tick" transform="translate(95.9016393442623,0)" style="opacity: 1;"><line y2="6" x2="0" style="fill: none; stroke: grey;"></line><text dy=".71em" y="9" x="0" font-weight="normal" transform="translate(-10,3)rotate(-65)" style="text-anchor: end; font-size: 11px; font-family: sans-serif;">0.20</text></g><g class="tick" transform="translate(82.37704918032787,0)" style="opacity: 1;"><line y2="6" x2="0" style="fill: none; stroke: grey;"></line><text dy=".71em" y="9" x="0" font-weight="normal" transform="translate(-10,3)rotate(-65)" style="text-anchor: end; font-size: 11px; font-family: sans-serif;">0.25</text></g><g class="tick" transform="translate(68.85245901639344,0)" style="opacity: 1;"><line y2="6" x2="0" style="fill: none; stroke: grey;"></line><text dy=".71em" y="9" x="0" font-weight="normal" transform="translate(-10,3)rotate(-65)" style="text-anchor: end; font-size: 11px; font-family: sans-serif;">0.30</text></g><g class="tick" transform="translate(55.32786885245903,0)" style="opacity: 1;"><line y2="6" x2="0" style="fill: none; stroke: grey;"></line><text dy=".71em" y="9" x="0" font-weight="normal" transform="translate(-10,3)rotate(-65)" style="text-anchor: end; font-size: 11px; font-family: sans-serif;">0.35</text></g><g class="tick" transform="translate(41.803278688524586,0)" style="opacity: 1;"><line y2="6" x2="0" style="fill: none; stroke: grey;"></line><text dy=".71em" y="9" x="0" font-weight="normal" transform="translate(-10,3)rotate(-65)" style="text-anchor: end; font-size: 11px; font-family: sans-serif;">0.40</text></g><g class="tick" transform="translate(28.278688524590166,0)" style="opacity: 1;"><line y2="6" x2="0" style="fill: none; stroke: grey;"></line><text dy=".71em" y="9" x="0" font-weight="normal" transform="translate(-10,3)rotate(-65)" style="text-anchor: end; font-size: 11px; font-family: sans-serif;">0.45</text></g><g class="tick" transform="translate(14.75409836065574,0)" style="opacity: 1;"><line y2="6" x2="0" style="fill: none; stroke: grey;"></line><text dy=".71em" y="9" x="0" font-weight="normal" transform="translate(-10,3)rotate(-65)" style="text-anchor: end; font-size: 11px; font-family: sans-serif;">0.50</text></g><g class="tick" transform="translate(1.2295081967213042,0)" style="opacity: 1;"><line y2="6" x2="0" style="fill: none; stroke: grey;"></line><text dy=".71em" y="9" x="0" font-weight="normal" transform="translate(-10,3)rotate(-65)" style="text-anchor: end; font-size: 11px; font-family: sans-serif;">0.55</text></g><path class="domain" d="M0,6V0H150V6" style="fill: none; stroke: grey;"></path></g><rect class="bar" x="150" width="150" y="0" height="15" style="fill: rgb(77, 77, 255); stroke: grey; stroke-width: 0.3;"></rect><rect class="bar" x="150" width="150" y="15" height="15" style="fill: rgb(77, 77, 255); stroke: grey; stroke-width: 0.3;"></rect><rect class="bar" x="150" width="124.41875544330884" y="30" height="15" style="fill: rgb(77, 77, 255); stroke: grey; stroke-width: 0.3;"></rect><rect class="bar" x="150" width="115.26798393197697" y="45" height="15" style="fill: rgb(77, 77, 255); stroke: grey; stroke-width: 0.3;"></rect><rect class="bar" x="150" width="111.60421651774561" y="60" height="15" style="fill: rgb(77, 77, 255); stroke: grey; stroke-width: 0.3;"></rect><rect class="bar" x="150" width="109.8976915608252" y="75" height="15" style="fill: rgb(77, 77, 255); stroke: grey; stroke-width: 0.3;"></rect><rect class="bar" x="150" width="109.8976915608252" y="90" height="15" style="fill: rgb(77, 77, 255); stroke: grey; stroke-width: 0.3;"></rect><rect class="bar" x="150" width="96.62691835304682" y="105" height="15" style="fill: rgb(77, 77, 255); stroke: grey; stroke-width: 0.3;"></rect><rect class="bar" x="150" width="77.00849097867268" y="120" height="15" style="fill: rgb(77, 77, 255); stroke: grey; stroke-width: 0.3;"></rect><rect class="bar" x="150" width="70.42009040348972" y="135" height="15" style="fill: rgb(77, 77, 255); stroke: grey; stroke-width: 0.3;"></rect><rect class="bar" x="150" width="70.42009040348972" y="150" height="15" style="fill: rgb(77, 77, 255); stroke: grey; stroke-width: 0.3;"></rect><rect class="bar" x="150" width="59.25685254368392" y="165" height="15" style="fill: rgb(77, 77, 255); stroke: grey; stroke-width: 0.3;"></rect><rect class="bar" x="150" width="56.37076674999534" y="180" height="15" style="fill: rgb(77, 77, 255); stroke: grey; stroke-width: 0.3;"></rect><rect class="bar" x="150" width="55.33489241965779" y="195" height="15" style="fill: rgb(77, 77, 255); stroke: grey; stroke-width: 0.3;"></rect><rect class="bar" x="150" width="53.30523359568167" y="210" height="15" style="fill: rgb(77, 77, 255); stroke: grey; stroke-width: 0.3;"></rect><rect class="bar" x="150" width="46.8850654366139" y="225" height="15" style="fill: rgb(77, 77, 255); stroke: grey; stroke-width: 0.3;"></rect><rect class="bar" x="150" width="43.11687527653879" y="240" height="15" style="fill: rgb(77, 77, 255); stroke: grey; stroke-width: 0.3;"></rect><rect class="bar" x="150" width="42.43771942732366" y="255" height="15" style="fill: rgb(77, 77, 255); stroke: grey; stroke-width: 0.3;"></rect><rect class="bar" x="150" width="41.21496190102937" y="270" height="15" style="fill: rgb(77, 77, 255); stroke: grey; stroke-width: 0.3;"></rect><rect class="bar" x="150" width="33.21333834381454" y="285" height="15" style="fill: rgb(77, 77, 255); stroke: grey; stroke-width: 0.3;"></rect><rect class="bar" x="150" width="29.6648157116133" y="300" height="15" style="fill: rgb(77, 77, 255); stroke: grey; stroke-width: 0.3;"></rect><rect class="bar" x="150" width="25.77827223136387" y="315" height="15" style="fill: rgb(77, 77, 255); stroke: grey; stroke-width: 0.3;"></rect><rect class="bar" x="150" width="25.30466222581896" y="330" height="15" style="fill: rgb(77, 77, 255); stroke: grey; stroke-width: 0.3;"></rect><rect class="bar" x="150" width="25.100703588425347" y="345" height="15" style="fill: rgb(77, 77, 255); stroke: grey; stroke-width: 0.3;"></rect><rect class="bar" x="150" width="22.656708975832885" y="360" height="15" style="fill: rgb(77, 77, 255); stroke: grey; stroke-width: 0.3;"></rect><rect class="bar" x="150" width="21.993670649408585" y="375" height="15" style="fill: rgb(77, 77, 255); stroke: grey; stroke-width: 0.3;"></rect><rect class="bar" x="150" width="17.079787025489225" y="390" height="15" style="fill: rgb(77, 77, 255); stroke: grey; stroke-width: 0.3;"></rect><g class="x axis" transform="translate(0,405)"><g class="tick" transform="translate(150,0)" style="opacity: 1;"><line y2="6" x2="0" style="fill: none; stroke: grey;"></line><text dy=".71em" y="9" x="0" font-weight="normal" transform="translate(-10,3)rotate(-65)" style="text-anchor: end; font-size: 11px; font-family: sans-serif;">0</text></g><g class="tick" transform="translate(162.55830631195886,0)" style="opacity: 1;"><line y2="6" x2="0" style="fill: none; stroke: grey;"></line><text dy=".71em" y="9" x="0" font-weight="normal" transform="translate(-10,3)rotate(-65)" style="text-anchor: end; font-size: 11px; font-family: sans-serif;">1</text></g><g class="tick" transform="translate(175.11661262391772,0)" style="opacity: 1;"><line y2="6" x2="0" style="fill: none; stroke: grey;"></line><text dy=".71em" y="9" x="0" font-weight="normal" transform="translate(-10,3)rotate(-65)" style="text-anchor: end; font-size: 11px; font-family: sans-serif;">2</text></g><g class="tick" transform="translate(187.67491893587658,0)" style="opacity: 1;"><line y2="6" x2="0" style="fill: none; stroke: grey;"></line><text dy=".71em" y="9" x="0" font-weight="normal" transform="translate(-10,3)rotate(-65)" style="text-anchor: end; font-size: 11px; font-family: sans-serif;">3</text></g><g class="tick" transform="translate(200.23322524783543,0)" style="opacity: 1;"><line y2="6" x2="0" style="fill: none; stroke: grey;"></line><text dy=".71em" y="9" x="0" font-weight="normal" transform="translate(-10,3)rotate(-65)" style="text-anchor: end; font-size: 11px; font-family: sans-serif;">4</text></g><g class="tick" transform="translate(212.7915315597943,0)" style="opacity: 1;"><line y2="6" x2="0" style="fill: none; stroke: grey;"></line><text dy=".71em" y="9" x="0" font-weight="normal" transform="translate(-10,3)rotate(-65)" style="text-anchor: end; font-size: 11px; font-family: sans-serif;">5</text></g><g class="tick" transform="translate(225.34983787175315,0)" style="opacity: 1;"><line y2="6" x2="0" style="fill: none; stroke: grey;"></line><text dy=".71em" y="9" x="0" font-weight="normal" transform="translate(-10,3)rotate(-65)" style="text-anchor: end; font-size: 11px; font-family: sans-serif;">6</text></g><g class="tick" transform="translate(237.908144183712,0)" style="opacity: 1;"><line y2="6" x2="0" style="fill: none; stroke: grey;"></line><text dy=".71em" y="9" x="0" font-weight="normal" transform="translate(-10,3)rotate(-65)" style="text-anchor: end; font-size: 11px; font-family: sans-serif;">7</text></g><g class="tick" transform="translate(250.46645049567087,0)" style="opacity: 1;"><line y2="6" x2="0" style="fill: none; stroke: grey;"></line><text dy=".71em" y="9" x="0" font-weight="normal" transform="translate(-10,3)rotate(-65)" style="text-anchor: end; font-size: 11px; font-family: sans-serif;">8</text></g><g class="tick" transform="translate(263.02475680762973,0)" style="opacity: 1;"><line y2="6" x2="0" style="fill: none; stroke: grey;"></line><text dy=".71em" y="9" x="0" font-weight="normal" transform="translate(-10,3)rotate(-65)" style="text-anchor: end; font-size: 11px; font-family: sans-serif;">9</text></g><g class="tick" transform="translate(275.5830631195886,0)" style="opacity: 1;"><line y2="6" x2="0" style="fill: none; stroke: grey;"></line><text dy=".71em" y="9" x="0" font-weight="normal" transform="translate(-10,3)rotate(-65)" style="text-anchor: end; font-size: 11px; font-family: sans-serif;">10</text></g><g class="tick" transform="translate(288.14136943154745,0)" style="opacity: 1;"><line y2="6" x2="0" style="fill: none; stroke: grey;"></line><text dy=".71em" y="9" x="0" font-weight="normal" transform="translate(-10,3)rotate(-65)" style="text-anchor: end; font-size: 11px; font-family: sans-serif;">11</text></g><path class="domain" d="M150,6V0H300V6" style="fill: none; stroke: grey;"></path></g><g class="y axis"><g class="tick" transform="translate(0,7.5)" style="opacity: 1;"><line x2="-6" y2="0" style="fill: none; stroke: grey;"></line><text dy=".32em" x="-9" y="0" style="text-anchor: end; font-size: 11px; font-family: sans-serif;">Red vs. brown/black hair color</text></g><g class="tick" transform="translate(0,22.5)" style="opacity: 1;"><line x2="-6" y2="0" style="fill: none; stroke: grey;"></line><text dy=".32em" x="-9" y="0" style="text-anchor: end; font-size: 11px; font-family: sans-serif;">Alcohol use disorder (total score)</text></g><g class="tick" transform="translate(0,37.5)" style="opacity: 1;"><line x2="-6" y2="0" style="fill: none; stroke: grey;"></line><text dy=".32em" x="-9" y="0" style="text-anchor: end; font-size: 11px; font-family: sans-serif;">Male-pattern baldness</text></g><g class="tick" transform="translate(0,52.5)" style="opacity: 1;"><line x2="-6" y2="0" style="fill: none; stroke: grey;"></line><text dy=".32em" x="-9" y="0" style="text-anchor: end; font-size: 11px; font-family: sans-serif;">Low tan response</text></g><g class="tick" transform="translate(0,67.5)" style="opacity: 1;"><line x2="-6" y2="0" style="fill: none; stroke: grey;"></line><text dy=".32em" x="-9" y="0" style="text-anchor: end; font-size: 11px; font-family: sans-serif;">Handedness (Right-handed vs. non-right-handed)</text></g><g class="tick" transform="translate(0,82.5)" style="opacity: 1;"><line x2="-6" y2="0" style="fill: none; stroke: grey;"></line><text dy=".32em" x="-9" y="0" style="text-anchor: end; font-size: 11px; font-family: sans-serif;">Handedness (Left-handed vs. non-left-handed)</text></g><g class="tick" transform="translate(0,97.5)" style="opacity: 1;"><line x2="-6" y2="0" style="fill: none; stroke: grey;"></line><text dy=".32em" x="-9" y="0" style="text-anchor: end; font-size: 11px; font-family: sans-serif;">Parkinson's disease</text></g><g class="tick" transform="translate(0,112.5)" style="opacity: 1;"><line x2="-6" y2="0" style="fill: none; stroke: grey;"></line><text dy=".32em" x="-9" y="0" style="text-anchor: end; font-size: 11px; font-family: sans-serif;">Idiopathic pulmonary fibrosis</text></g><g class="tick" transform="translate(0,127.5)" style="opacity: 1;"><line x2="-6" y2="0" style="fill: none; stroke: grey;"></line><text dy=".32em" x="-9" y="0" style="text-anchor: end; font-size: 11px; font-family: sans-serif;">Neuroticism</text></g><g class="tick" transform="translate(0,142.5)" style="opacity: 1;"><line x2="-6" y2="0" style="fill: none; stroke: grey;"></line><text dy=".32em" x="-9" y="0" style="text-anchor: end; font-size: 11px; font-family: sans-serif;">Reaction time</text></g><g class="tick" transform="translate(0,157.5)" style="opacity: 1;"><line x2="-6" y2="0" style="fill: none; stroke: grey;"></line><text dy=".32em" x="-9" y="0" style="text-anchor: end; font-size: 11px; font-family: sans-serif;">General factor of neuroticism</text></g><g class="tick" transform="translate(0,172.5)" style="opacity: 1;"><line x2="-6" y2="0" style="fill: none; stroke: grey;"></line><text dy=".32em" x="-9" y="0" style="text-anchor: end; font-size: 11px; font-family: sans-serif;">Intracranial volume</text></g><g class="tick" transform="translate(0,187.5)" style="opacity: 1;"><line x2="-6" y2="0" style="fill: none; stroke: grey;"></line><text dy=".32em" x="-9" y="0" style="text-anchor: end; font-size: 11px; font-family: sans-serif;">Cognitive function</text></g><g class="tick" transform="translate(0,202.5)" style="opacity: 1;"><line x2="-6" y2="0" style="fill: none; stroke: grey;"></line><text dy=".32em" x="-9" y="0" style="text-anchor: end; font-size: 11px; font-family: sans-serif;">Skin pigmentation traits</text></g><g class="tick" transform="translate(0,217.5)" style="opacity: 1;"><line x2="-6" y2="0" style="fill: none; stroke: grey;"></line><text dy=".32em" x="-9" y="0" style="text-anchor: end; font-size: 11px; font-family: sans-serif;">Alzheimer's disease in APOE e4- carriers</text></g><g class="tick" transform="translate(0,232.5)" style="opacity: 1;"><line x2="-6" y2="0" style="fill: none; stroke: grey;"></line><text dy=".32em" x="-9" y="0" style="text-anchor: end; font-size: 11px; font-family: sans-serif;">Subcortical brain region volumes</text></g><g class="tick" transform="translate(0,247.5)" style="opacity: 1;"><line x2="-6" y2="0" style="fill: none; stroke: grey;"></line><text dy=".32em" x="-9" y="0" style="text-anchor: end; font-size: 11px; font-family: sans-serif;">Sense of smell</text></g><g class="tick" transform="translate(0,262.5)" style="opacity: 1;"><line x2="-6" y2="0" style="fill: none; stroke: grey;"></line><text dy=".32em" x="-9" y="0" style="text-anchor: end; font-size: 11px; font-family: sans-serif;">Blond vs. brown/black hair color</text></g><g class="tick" transform="translate(0,277.5)" style="opacity: 1;"><line x2="-6" y2="0" style="fill: none; stroke: grey;"></line><text dy=".32em" x="-9" y="0" style="text-anchor: end; font-size: 11px; font-family: sans-serif;">Multiple system atrophy</text></g><g class="tick" transform="translate(0,292.5)" style="opacity: 1;"><line x2="-6" y2="0" style="fill: none; stroke: grey;"></line><text dy=".32em" x="-9" y="0" style="text-anchor: end; font-size: 11px; font-family: sans-serif;">Brown vs. black hair color</text></g><g class="tick" transform="translate(0,307.5)" style="opacity: 1;"><line x2="-6" y2="0" style="fill: none; stroke: grey;"></line><text dy=".32em" x="-9" y="0" style="text-anchor: end; font-size: 11px; font-family: sans-serif;">Facial pigmentation</text></g><g class="tick" transform="translate(0,322.5)" style="opacity: 1;"><line x2="-6" y2="0" style="fill: none; stroke: grey;"></line><text dy=".32em" x="-9" y="0" style="text-anchor: end; font-size: 11px; font-family: sans-serif;">Hair morphology traits</text></g><g class="tick" transform="translate(0,337.5)" style="opacity: 1;"><line x2="-6" y2="0" style="fill: none; stroke: grey;"></line><text dy=".32em" x="-9" y="0" style="text-anchor: end; font-size: 11px; font-family: sans-serif;">Mood instability</text></g><g class="tick" transform="translate(0,352.5)" style="opacity: 1;"><line x2="-6" y2="0" style="fill: none; stroke: grey;"></line><text dy=".32em" x="-9" y="0" style="text-anchor: end; font-size: 11px; font-family: sans-serif;">High light scatter reticulocyte percentage of red cells</text></g><g class="tick" transform="translate(0,367.5)" style="opacity: 1;"><line x2="-6" y2="0" style="fill: none; stroke: grey;"></line><text dy=".32em" x="-9" y="0" style="text-anchor: end; font-size: 11px; font-family: sans-serif;">Homocysteine levels</text></g><g class="tick" transform="translate(0,382.5)" style="opacity: 1;"><line x2="-6" y2="0" style="fill: none; stroke: grey;"></line><text dy=".32em" x="-9" y="0" style="text-anchor: end; font-size: 11px; font-family: sans-serif;">Lung function (FEV1)</text></g><g class="tick" transform="translate(0,397.5)" style="opacity: 1;"><line x2="-6" y2="0" style="fill: none; stroke: grey;"></line><text dy=".32em" x="-9" y="0" style="text-anchor: end; font-size: 11px; font-family: sans-serif;">Squamous cell carcinoma</text></g><path class="domain" d="M-6,0H0V405H-6" style="fill: none; stroke: grey;"></path></g><rect x="310" y="0" width="15" height="15" style="fill: rgb(255, 166, 74); stroke: grey; stroke-width: 0.3;"></rect><rect x="325" y="0" width="15" height="15" style="fill: rgb(255, 166, 74); stroke: grey; stroke-width: 0.3;"></rect><rect x="340" y="0" width="15" height="15" style="fill: rgb(255, 166, 74); stroke: grey; stroke-width: 0.3;"></rect><rect x="355" y="0" width="15" height="15" style="fill: rgb(255, 166, 74); stroke: grey; stroke-width: 0.3;"></rect><rect x="370" y="0" width="15" height="15" style="fill: rgb(255, 166, 74); stroke: grey; stroke-width: 0.3;"></rect><rect x="385" y="0" width="15" height="15" style="fill: rgb(255, 166, 74); stroke: grey; stroke-width: 0.3;"></rect><rect x="400" y="0" width="15" height="15" style="fill: rgb(255, 166, 74); stroke: grey; stroke-width: 0.3;"></rect><rect x="415" y="15" width="15" height="15" style="fill: rgb(255, 166, 74); stroke: grey; stroke-width: 0.3;"></rect><rect x="430" y="15" width="15" height="15" style="fill: rgb(255, 166, 74); stroke: grey; stroke-width: 0.3;"></rect><rect x="445" y="15" width="15" height="15" style="fill: rgb(255, 166, 74); stroke: grey; stroke-width: 0.3;"></rect><rect x="460" y="15" width="15" height="15" style="fill: rgb(255, 166, 74); stroke: grey; stroke-width: 0.3;"></rect><rect x="475" y="15" width="15" height="15" style="fill: rgb(255, 166, 74); stroke: grey; stroke-width: 0.3;"></rect><rect x="490" y="15" width="15" height="15" style="fill: rgb(255, 166, 74); stroke: grey; stroke-width: 0.3;"></rect><rect x="505" y="15" width="15" height="15" style="fill: rgb(255, 166, 74); stroke: grey; stroke-width: 0.3;"></rect><rect x="520" y="15" width="15" height="15" style="fill: rgb(255, 166, 74); stroke: grey; stroke-width: 0.3;"></rect><rect x="535" y="30" width="15" height="15" style="fill: rgb(255, 166, 74); stroke: grey; stroke-width: 0.3;"></rect><rect x="550" y="30" width="15" height="15" style="fill: rgb(255, 166, 74); stroke: grey; stroke-width: 0.3;"></rect><rect x="415" y="30" width="15" height="15" style="fill: rgb(255, 166, 74); stroke: grey; stroke-width: 0.3;"></rect><rect x="430" y="30" width="15" height="15" style="fill: rgb(255, 166, 74); stroke: grey; stroke-width: 0.3;"></rect><rect x="445" y="30" width="15" height="15" style="fill: rgb(255, 166, 74); stroke: grey; stroke-width: 0.3;"></rect><rect x="460" y="30" width="15" height="15" style="fill: rgb(255, 166, 74); stroke: grey; stroke-width: 0.3;"></rect><rect x="475" y="30" width="15" height="15" style="fill: rgb(255, 166, 74); stroke: grey; stroke-width: 0.3;"></rect><rect x="490" y="30" width="15" height="15" style="fill: rgb(255, 166, 74); stroke: grey; stroke-width: 0.3;"></rect><rect x="565" y="30" width="15" height="15" style="fill: rgb(255, 166, 74); stroke: grey; stroke-width: 0.3;"></rect><rect x="505" y="30" width="15" height="15" style="fill: rgb(255, 166, 74); stroke: grey; stroke-width: 0.3;"></rect><rect x="520" y="30" width="15" height="15" style="fill: rgb(255, 166, 74); stroke: grey; stroke-width: 0.3;"></rect><rect x="325" y="45" width="15" height="15" style="fill: rgb(255, 166, 74); stroke: grey; stroke-width: 0.3;"></rect><rect x="355" y="45" width="15" height="15" style="fill: rgb(255, 166, 74); stroke: grey; stroke-width: 0.3;"></rect><rect x="370" y="45" width="15" height="15" style="fill: rgb(255, 166, 74); stroke: grey; stroke-width: 0.3;"></rect><rect x="400" y="45" width="15" height="15" style="fill: rgb(255, 166, 74); stroke: grey; stroke-width: 0.3;"></rect><rect x="580" y="45" width="15" height="15" style="fill: rgb(255, 166, 74); stroke: grey; stroke-width: 0.3;"></rect><rect x="595" y="45" width="15" height="15" style="fill: rgb(255, 166, 74); stroke: grey; stroke-width: 0.3;"></rect><rect x="475" y="60" width="15" height="15" style="fill: rgb(255, 166, 74); stroke: grey; stroke-width: 0.3;"></rect><rect x="490" y="60" width="15" height="15" style="fill: rgb(255, 166, 74); stroke: grey; stroke-width: 0.3;"></rect><rect x="565" y="60" width="15" height="15" style="fill: rgb(255, 166, 74); stroke: grey; stroke-width: 0.3;"></rect><rect x="610" y="60" width="15" height="15" style="fill: rgb(255, 166, 74); stroke: grey; stroke-width: 0.3;"></rect><rect x="505" y="60" width="15" height="15" style="fill: rgb(255, 166, 74); stroke: grey; stroke-width: 0.3;"></rect><rect x="475" y="75" width="15" height="15" style="fill: rgb(255, 166, 74); stroke: grey; stroke-width: 0.3;"></rect><rect x="490" y="75" width="15" height="15" style="fill: rgb(255, 166, 74); stroke: grey; stroke-width: 0.3;"></rect><rect x="565" y="75" width="15" height="15" style="fill: rgb(255, 166, 74); stroke: grey; stroke-width: 0.3;"></rect><rect x="610" y="75" width="15" height="15" style="fill: rgb(255, 166, 74); stroke: grey; stroke-width: 0.3;"></rect><rect x="505" y="75" width="15" height="15" style="fill: rgb(255, 166, 74); stroke: grey; stroke-width: 0.3;"></rect><rect x="550" y="90" width="15" height="15" style="fill: rgb(255, 166, 74); stroke: grey; stroke-width: 0.3;"></rect><rect x="415" y="90" width="15" height="15" style="fill: rgb(255, 166, 74); stroke: grey; stroke-width: 0.3;"></rect><rect x="430" y="90" width="15" height="15" style="fill: rgb(255, 166, 74); stroke: grey; stroke-width: 0.3;"></rect><rect x="445" y="90" width="15" height="15" style="fill: rgb(255, 166, 74); stroke: grey; stroke-width: 0.3;"></rect><rect x="460" y="90" width="15" height="15" style="fill: rgb(255, 166, 74); stroke: grey; stroke-width: 0.3;"></rect><rect x="475" y="90" width="15" height="15" style="fill: rgb(255, 166, 74); stroke: grey; stroke-width: 0.3;"></rect><rect x="490" y="90" width="15" height="15" style="fill: rgb(255, 166, 74); stroke: grey; stroke-width: 0.3;"></rect><rect x="505" y="90" width="15" height="15" style="fill: rgb(255, 166, 74); stroke: grey; stroke-width: 0.3;"></rect><rect x="520" y="90" width="15" height="15" style="fill: rgb(255, 166, 74); stroke: grey; stroke-width: 0.3;"></rect><rect x="430" y="105" width="15" height="15" style="fill: rgb(255, 166, 74); stroke: grey; stroke-width: 0.3;"></rect><rect x="445" y="105" width="15" height="15" style="fill: rgb(255, 166, 74); stroke: grey; stroke-width: 0.3;"></rect><rect x="460" y="105" width="15" height="15" style="fill: rgb(255, 166, 74); stroke: grey; stroke-width: 0.3;"></rect><rect x="475" y="105" width="15" height="15" style="fill: rgb(255, 166, 74); stroke: grey; stroke-width: 0.3;"></rect><rect x="490" y="105" width="15" height="15" style="fill: rgb(255, 166, 74); stroke: grey; stroke-width: 0.3;"></rect><rect x="550" y="120" width="15" height="15" style="fill: rgb(255, 166, 74); stroke: grey; stroke-width: 0.3;"></rect><rect x="415" y="120" width="15" height="15" style="fill: rgb(255, 166, 74); stroke: grey; stroke-width: 0.3;"></rect><rect x="430" y="120" width="15" height="15" style="fill: rgb(255, 166, 74); stroke: grey; stroke-width: 0.3;"></rect><rect x="445" y="120" width="15" height="15" style="fill: rgb(255, 166, 74); stroke: grey; stroke-width: 0.3;"></rect><rect x="460" y="120" width="15" height="15" style="fill: rgb(255, 166, 74); stroke: grey; stroke-width: 0.3;"></rect><rect x="475" y="120" width="15" height="15" style="fill: rgb(255, 166, 74); stroke: grey; stroke-width: 0.3;"></rect><rect x="490" y="120" width="15" height="15" style="fill: rgb(255, 166, 74); stroke: grey; stroke-width: 0.3;"></rect><rect x="460" y="135" width="15" height="15" style="fill: rgb(255, 166, 74); stroke: grey; stroke-width: 0.3;"></rect><rect x="490" y="135" width="15" height="15" style="fill: rgb(255, 166, 74); stroke: grey; stroke-width: 0.3;"></rect><rect x="565" y="135" width="15" height="15" style="fill: rgb(255, 166, 74); stroke: grey; stroke-width: 0.3;"></rect><rect x="505" y="135" width="15" height="15" style="fill: rgb(255, 166, 74); stroke: grey; stroke-width: 0.3;"></rect><rect x="520" y="135" width="15" height="15" style="fill: rgb(255, 166, 74); stroke: grey; stroke-width: 0.3;"></rect><rect x="550" y="150" width="15" height="15" style="fill: rgb(255, 166, 74); stroke: grey; stroke-width: 0.3;"></rect><rect x="430" y="150" width="15" height="15" style="fill: rgb(255, 166, 74); stroke: grey; stroke-width: 0.3;"></rect><rect x="460" y="150" width="15" height="15" style="fill: rgb(255, 166, 74); stroke: grey; stroke-width: 0.3;"></rect><rect x="490" y="150" width="15" height="15" style="fill: rgb(255, 166, 74); stroke: grey; stroke-width: 0.3;"></rect><rect x="505" y="150" width="15" height="15" style="fill: rgb(255, 166, 74); stroke: grey; stroke-width: 0.3;"></rect><rect x="520" y="150" width="15" height="15" style="fill: rgb(255, 166, 74); stroke: grey; stroke-width: 0.3;"></rect><rect x="430" y="165" width="15" height="15" style="fill: rgb(255, 166, 74); stroke: grey; stroke-width: 0.3;"></rect><rect x="460" y="165" width="15" height="15" style="fill: rgb(255, 166, 74); stroke: grey; stroke-width: 0.3;"></rect><rect x="475" y="165" width="15" height="15" style="fill: rgb(255, 166, 74); stroke: grey; stroke-width: 0.3;"></rect><rect x="550" y="180" width="15" height="15" style="fill: rgb(255, 166, 74); stroke: grey; stroke-width: 0.3;"></rect><rect x="415" y="180" width="15" height="15" style="fill: rgb(255, 166, 74); stroke: grey; stroke-width: 0.3;"></rect><rect x="490" y="180" width="15" height="15" style="fill: rgb(255, 166, 74); stroke: grey; stroke-width: 0.3;"></rect><rect x="610" y="180" width="15" height="15" style="fill: rgb(255, 166, 74); stroke: grey; stroke-width: 0.3;"></rect><rect x="520" y="180" width="15" height="15" style="fill: rgb(255, 166, 74); stroke: grey; stroke-width: 0.3;"></rect><rect x="625" y="195" width="15" height="15" style="fill: rgb(255, 166, 74); stroke: grey; stroke-width: 0.3;"></rect><rect x="355" y="195" width="15" height="15" style="fill: rgb(255, 166, 74); stroke: grey; stroke-width: 0.3;"></rect><rect x="400" y="195" width="15" height="15" style="fill: rgb(255, 166, 74); stroke: grey; stroke-width: 0.3;"></rect><rect x="430" y="210" width="15" height="15" style="fill: rgb(255, 166, 74); stroke: grey; stroke-width: 0.3;"></rect><rect x="460" y="210" width="15" height="15" style="fill: rgb(255, 166, 74); stroke: grey; stroke-width: 0.3;"></rect><rect x="490" y="210" width="15" height="15" style="fill: rgb(255, 166, 74); stroke: grey; stroke-width: 0.3;"></rect><rect x="520" y="210" width="15" height="15" style="fill: rgb(255, 166, 74); stroke: grey; stroke-width: 0.3;"></rect><rect x="430" y="225" width="15" height="15" style="fill: rgb(255, 166, 74); stroke: grey; stroke-width: 0.3;"></rect><rect x="460" y="225" width="15" height="15" style="fill: rgb(255, 166, 74); stroke: grey; stroke-width: 0.3;"></rect><rect x="475" y="225" width="15" height="15" style="fill: rgb(255, 166, 74); stroke: grey; stroke-width: 0.3;"></rect><rect x="490" y="240" width="15" height="15" style="fill: rgb(255, 166, 74); stroke: grey; stroke-width: 0.3;"></rect><rect x="610" y="240" width="15" height="15" style="fill: rgb(255, 166, 74); stroke: grey; stroke-width: 0.3;"></rect><rect x="505" y="240" width="15" height="15" style="fill: rgb(255, 166, 74); stroke: grey; stroke-width: 0.3;"></rect><rect x="340" y="255" width="15" height="15" style="fill: rgb(255, 166, 74); stroke: grey; stroke-width: 0.3;"></rect><rect x="640" y="255" width="15" height="15" style="fill: rgb(255, 166, 74); stroke: grey; stroke-width: 0.3;"></rect><rect x="385" y="255" width="15" height="15" style="fill: rgb(255, 166, 74); stroke: grey; stroke-width: 0.3;"></rect><rect x="400" y="255" width="15" height="15" style="fill: rgb(255, 166, 74); stroke: grey; stroke-width: 0.3;"></rect><rect x="580" y="255" width="15" height="15" style="fill: rgb(255, 166, 74); stroke: grey; stroke-width: 0.3;"></rect><rect x="430" y="270" width="15" height="15" style="fill: rgb(255, 166, 74); stroke: grey; stroke-width: 0.3;"></rect><rect x="460" y="270" width="15" height="15" style="fill: rgb(255, 166, 74); stroke: grey; stroke-width: 0.3;"></rect><rect x="520" y="270" width="15" height="15" style="fill: rgb(255, 166, 74); stroke: grey; stroke-width: 0.3;"></rect><rect x="340" y="285" width="15" height="15" style="fill: rgb(255, 166, 74); stroke: grey; stroke-width: 0.3;"></rect><rect x="385" y="285" width="15" height="15" style="fill: rgb(255, 166, 74); stroke: grey; stroke-width: 0.3;"></rect><rect x="400" y="285" width="15" height="15" style="fill: rgb(255, 166, 74); stroke: grey; stroke-width: 0.3;"></rect><rect x="625" y="300" width="15" height="15" style="fill: rgb(255, 166, 74); stroke: grey; stroke-width: 0.3;"></rect><rect x="400" y="300" width="15" height="15" style="fill: rgb(255, 166, 74); stroke: grey; stroke-width: 0.3;"></rect><rect x="355" y="315" width="15" height="15" style="fill: rgb(255, 166, 74); stroke: grey; stroke-width: 0.3;"></rect><rect x="400" y="315" width="15" height="15" style="fill: rgb(255, 166, 74); stroke: grey; stroke-width: 0.3;"></rect><rect x="430" y="330" width="15" height="15" style="fill: rgb(255, 166, 74); stroke: grey; stroke-width: 0.3;"></rect><rect x="460" y="330" width="15" height="15" style="fill: rgb(255, 166, 74); stroke: grey; stroke-width: 0.3;"></rect><rect x="520" y="330" width="15" height="15" style="fill: rgb(255, 166, 74); stroke: grey; stroke-width: 0.3;"></rect><rect x="385" y="345" width="15" height="15" style="fill: rgb(255, 166, 74); stroke: grey; stroke-width: 0.3;"></rect><rect x="490" y="345" width="15" height="15" style="fill: rgb(255, 166, 74); stroke: grey; stroke-width: 0.3;"></rect><rect x="655" y="345" width="15" height="15" style="fill: rgb(255, 166, 74); stroke: grey; stroke-width: 0.3;"></rect><rect x="670" y="345" width="15" height="15" style="fill: rgb(255, 166, 74); stroke: grey; stroke-width: 0.3;"></rect><rect x="310" y="360" width="15" height="15" style="fill: rgb(255, 166, 74); stroke: grey; stroke-width: 0.3;"></rect><rect x="355" y="360" width="15" height="15" style="fill: rgb(255, 166, 74); stroke: grey; stroke-width: 0.3;"></rect><rect x="430" y="375" width="15" height="15" style="fill: rgb(255, 166, 74); stroke: grey; stroke-width: 0.3;"></rect><rect x="490" y="375" width="15" height="15" style="fill: rgb(255, 166, 74); stroke: grey; stroke-width: 0.3;"></rect><rect x="520" y="375" width="15" height="15" style="fill: rgb(255, 166, 74); stroke: grey; stroke-width: 0.3;"></rect><rect x="625" y="390" width="15" height="15" style="fill: rgb(255, 166, 74); stroke: grey; stroke-width: 0.3;"></rect><rect x="400" y="390" width="15" height="15" style="fill: rgb(255, 166, 74); stroke: grey; stroke-width: 0.3;"></rect><g class="y axis" transform="translate(310,0)"><g class="tick" transform="translate(0,7.5)" style="opacity: 1;"><line x2="-6" y2="0" style="fill: none; stroke: grey;"></line></g><g class="tick" transform="translate(0,22.5)" style="opacity: 1;"><line x2="-6" y2="0" style="fill: none; stroke: grey;"></line></g><g class="tick" transform="translate(0,37.5)" style="opacity: 1;"><line x2="-6" y2="0" style="fill: none; stroke: grey;"></line></g><g class="tick" transform="translate(0,52.5)" style="opacity: 1;"><line x2="-6" y2="0" style="fill: none; stroke: grey;"></line></g><g class="tick" transform="translate(0,67.5)" style="opacity: 1;"><line x2="-6" y2="0" style="fill: none; stroke: grey;"></line></g><g class="tick" transform="translate(0,82.5)" style="opacity: 1;"><line x2="-6" y2="0" style="fill: none; stroke: grey;"></line></g><g class="tick" transform="translate(0,97.5)" style="opacity: 1;"><line x2="-6" y2="0" style="fill: none; stroke: grey;"></line></g><g class="tick" transform="translate(0,112.5)" style="opacity: 1;"><line x2="-6" y2="0" style="fill: none; stroke: grey;"></line></g><g class="tick" transform="translate(0,127.5)" style="opacity: 1;"><line x2="-6" y2="0" style="fill: none; stroke: grey;"></line></g><g class="tick" transform="translate(0,142.5)" style="opacity: 1;"><line x2="-6" y2="0" style="fill: none; stroke: grey;"></line></g><g class="tick" transform="translate(0,157.5)" style="opacity: 1;"><line x2="-6" y2="0" style="fill: none; stroke: grey;"></line></g><g class="tick" transform="translate(0,172.5)" style="opacity: 1;"><line x2="-6" y2="0" style="fill: none; stroke: grey;"></line></g><g class="tick" transform="translate(0,187.5)" style="opacity: 1;"><line x2="-6" y2="0" style="fill: none; stroke: grey;"></line></g><g class="tick" transform="translate(0,202.5)" style="opacity: 1;"><line x2="-6" y2="0" style="fill: none; stroke: grey;"></line></g><g class="tick" transform="translate(0,217.5)" style="opacity: 1;"><line x2="-6" y2="0" style="fill: none; stroke: grey;"></line></g><g class="tick" transform="translate(0,232.5)" style="opacity: 1;"><line x2="-6" y2="0" style="fill: none; stroke: grey;"></line></g><g class="tick" transform="translate(0,247.5)" style="opacity: 1;"><line x2="-6" y2="0" style="fill: none; stroke: grey;"></line></g><g class="tick" transform="translate(0,262.5)" style="opacity: 1;"><line x2="-6" y2="0" style="fill: none; stroke: grey;"></line></g><g class="tick" transform="translate(0,277.5)" style="opacity: 1;"><line x2="-6" y2="0" style="fill: none; stroke: grey;"></line></g><g class="tick" transform="translate(0,292.5)" style="opacity: 1;"><line x2="-6" y2="0" style="fill: none; stroke: grey;"></line></g><g class="tick" transform="translate(0,307.5)" style="opacity: 1;"><line x2="-6" y2="0" style="fill: none; stroke: grey;"></line></g><g class="tick" transform="translate(0,322.5)" style="opacity: 1;"><line x2="-6" y2="0" style="fill: none; stroke: grey;"></line></g><g class="tick" transform="translate(0,337.5)" style="opacity: 1;"><line x2="-6" y2="0" style="fill: none; stroke: grey;"></line></g><g class="tick" transform="translate(0,352.5)" style="opacity: 1;"><line x2="-6" y2="0" style="fill: none; stroke: grey;"></line></g><g class="tick" transform="translate(0,367.5)" style="opacity: 1;"><line x2="-6" y2="0" style="fill: none; stroke: grey;"></line></g><g class="tick" transform="translate(0,382.5)" style="opacity: 1;"><line x2="-6" y2="0" style="fill: none; stroke: grey;"></line></g><g class="tick" transform="translate(0,397.5)" style="opacity: 1;"><line x2="-6" y2="0" style="fill: none; stroke: grey;"></line></g><path class="domain" d="M-6,0H0V405H-6" style="fill: none; stroke: grey;"></path></g><g class="x axis" transform="translate(0,405)"><g class="tick" transform="translate(317.5,0)" style="opacity: 1;"><line y2="6" x2="0" style="fill: none; stroke: grey;"></line><text dy=".71em" y="9" x="0" font-weight="normal" transform="translate(-10,3)rotate(-65)" style="text-anchor: end; font-size: 11px; font-family: sans-serif;">DPEP1</text></g><g class="tick" transform="translate(332.5,0)" style="opacity: 1;"><line y2="6" x2="0" style="fill: none; stroke: grey;"></line><text dy=".71em" y="9" x="0" font-weight="normal" transform="translate(-10,3)rotate(-65)" style="text-anchor: end; font-size: 11px; font-family: sans-serif;">CHMP1A</text></g><g class="tick" transform="translate(347.5,0)" style="opacity: 1;"><line y2="6" x2="0" style="fill: none; stroke: grey;"></line><text dy=".71em" y="9" x="0" font-weight="normal" transform="translate(-10,3)rotate(-65)" style="text-anchor: end; font-size: 11px; font-family: sans-serif;">CDK10</text></g><g class="tick" transform="translate(362.5,0)" style="opacity: 1;"><line y2="6" x2="0" style="fill: none; stroke: grey;"></line><text dy=".71em" y="9" x="0" font-weight="normal" transform="translate(-10,3)rotate(-65)" style="text-anchor: end; font-size: 11px; font-family: sans-serif;">FANCA</text></g><g class="tick" transform="translate(377.5,0)" style="opacity: 1;"><line y2="6" x2="0" style="fill: none; stroke: grey;"></line><text dy=".71em" y="9" x="0" font-weight="normal" transform="translate(-10,3)rotate(-65)" style="text-anchor: end; font-size: 11px; font-family: sans-serif;">SPIRE2</text></g><g class="tick" transform="translate(392.5,0)" style="opacity: 1;"><line y2="6" x2="0" style="fill: none; stroke: grey;"></line><text dy=".71em" y="9" x="0" font-weight="normal" transform="translate(-10,3)rotate(-65)" style="text-anchor: end; font-size: 11px; font-family: sans-serif;">TCF25</text></g><g class="tick" transform="translate(407.5,0)" style="opacity: 1;"><line y2="6" x2="0" style="fill: none; stroke: grey;"></line><text dy=".71em" y="9" x="0" font-weight="normal" transform="translate(-10,3)rotate(-65)" style="text-anchor: end; font-size: 11px; font-family: sans-serif;">MC1R</text></g><g class="tick" transform="translate(422.5,0)" style="opacity: 1;"><line y2="6" x2="0" style="fill: none; stroke: grey;"></line><text dy=".71em" y="9" x="0" font-weight="normal" transform="translate(-10,3)rotate(-65)" style="text-anchor: end; font-size: 11px; font-family: sans-serif;">PLEKHM1</text></g><g class="tick" transform="translate(437.5,0)" style="opacity: 1;"><line y2="6" x2="0" style="fill: none; stroke: grey;"></line><text dy=".71em" y="9" x="0" font-weight="normal" transform="translate(-10,3)rotate(-65)" style="text-anchor: end; font-size: 11px; font-family: sans-serif;">CRHR1</text></g><g class="tick" transform="translate(452.5,0)" style="opacity: 1;"><line y2="6" x2="0" style="fill: none; stroke: grey;"></line><text dy=".71em" y="9" x="0" font-weight="normal" transform="translate(-10,3)rotate(-65)" style="text-anchor: end; font-size: 11px; font-family: sans-serif;">SPPL2C</text></g><g class="tick" transform="translate(467.5,0)" style="opacity: 1;"><line y2="6" x2="0" style="fill: none; stroke: grey;"></line><text dy=".71em" y="9" x="0" font-weight="normal" transform="translate(-10,3)rotate(-65)" style="text-anchor: end; font-size: 11px; font-family: sans-serif;">MAPT</text></g><g class="tick" transform="translate(482.5,0)" style="opacity: 1;"><line y2="6" x2="0" style="fill: none; stroke: grey;"></line><text dy=".71em" y="9" x="0" font-weight="normal" transform="translate(-10,3)rotate(-65)" style="text-anchor: end; font-size: 11px; font-family: sans-serif;">STH</text></g><g class="tick" transform="translate(497.5,0)" style="opacity: 1;"><line y2="6" x2="0" style="fill: none; stroke: grey;"></line><text dy=".71em" y="9" x="0" font-weight="normal" transform="translate(-10,3)rotate(-65)" style="text-anchor: end; font-size: 11px; font-family: sans-serif;">KANSL1</text></g><g class="tick" transform="translate(512.5,0)" style="opacity: 1;"><line y2="6" x2="0" style="fill: none; stroke: grey;"></line><text dy=".71em" y="9" x="0" font-weight="normal" transform="translate(-10,3)rotate(-65)" style="text-anchor: end; font-size: 11px; font-family: sans-serif;">NSF</text></g><g class="tick" transform="translate(527.5,0)" style="opacity: 1;"><line y2="6" x2="0" style="fill: none; stroke: grey;"></line><text dy=".71em" y="9" x="0" font-weight="normal" transform="translate(-10,3)rotate(-65)" style="text-anchor: end; font-size: 11px; font-family: sans-serif;">WNT3</text></g><g class="tick" transform="translate(542.5,0)" style="opacity: 1;"><line y2="6" x2="0" style="fill: none; stroke: grey;"></line><text dy=".71em" y="9" x="0" font-weight="normal" transform="translate(-10,3)rotate(-65)" style="text-anchor: end; font-size: 11px; font-family: sans-serif;">FOXD2</text></g><g class="tick" transform="translate(557.5,0)" style="opacity: 1;"><line y2="6" x2="0" style="fill: none; stroke: grey;"></line><text dy=".71em" y="9" x="0" font-weight="normal" transform="translate(-10,3)rotate(-65)" style="text-anchor: end; font-size: 11px; font-family: sans-serif;">ARHGAP27</text></g><g class="tick" transform="translate(572.5,0)" style="opacity: 1;"><line y2="6" x2="0" style="fill: none; stroke: grey;"></line><text dy=".71em" y="9" x="0" font-weight="normal" transform="translate(-10,3)rotate(-65)" style="text-anchor: end; font-size: 11px; font-family: sans-serif;">ARL17B</text></g><g class="tick" transform="translate(587.5,0)" style="opacity: 1;"><line y2="6" x2="0" style="fill: none; stroke: grey;"></line><text dy=".71em" y="9" x="0" font-weight="normal" transform="translate(-10,3)rotate(-65)" style="text-anchor: end; font-size: 11px; font-family: sans-serif;">DBNDD1</text></g><g class="tick" transform="translate(602.5,0)" style="opacity: 1;"><line y2="6" x2="0" style="fill: none; stroke: grey;"></line><text dy=".71em" y="9" x="0" font-weight="normal" transform="translate(-10,3)rotate(-65)" style="text-anchor: end; font-size: 11px; font-family: sans-serif;">PRDM7</text></g><g class="tick" transform="translate(617.5,0)" style="opacity: 1;"><line y2="6" x2="0" style="fill: none; stroke: grey;"></line><text dy=".71em" y="9" x="0" font-weight="normal" transform="translate(-10,3)rotate(-65)" style="text-anchor: end; font-size: 11px; font-family: sans-serif;">LRRC37A</text></g><g class="tick" transform="translate(632.5,0)" style="opacity: 1;"><line y2="6" x2="0" style="fill: none; stroke: grey;"></line><text dy=".71em" y="9" x="0" font-weight="normal" transform="translate(-10,3)rotate(-65)" style="text-anchor: end; font-size: 11px; font-family: sans-serif;">SPATA33</text></g><g class="tick" transform="translate(647.5,0)" style="opacity: 1;"><line y2="6" x2="0" style="fill: none; stroke: grey;"></line><text dy=".71em" y="9" x="0" font-weight="normal" transform="translate(-10,3)rotate(-65)" style="text-anchor: end; font-size: 11px; font-family: sans-serif;">SPATA2L</text></g><g class="tick" transform="translate(662.5,0)" style="opacity: 1;"><line y2="6" x2="0" style="fill: none; stroke: grey;"></line><text dy=".71em" y="9" x="0" font-weight="normal" transform="translate(-10,3)rotate(-65)" style="text-anchor: end; font-size: 11px; font-family: sans-serif;">STRN</text></g><g class="tick" transform="translate(677.5,0)" style="opacity: 1;"><line y2="6" x2="0" style="fill: none; stroke: grey;"></line><text dy=".71em" y="9" x="0" font-weight="normal" transform="translate(-10,3)rotate(-65)" style="text-anchor: end; font-size: 11px; font-family: sans-serif;">EIF2AK2</text></g><path class="domain" d="M310,6V0H685V6" style="fill: none; stroke: grey;"></path></g><text text-anchor="middle" transform="translate(75,450)" font-size="12px" style="font-family: sans-serif;">Proportion</text><text text-anchor="middle" transform="translate(75,-26)" font-size="12px" style="font-family: sans-serif;">Proportion of overlapping</text><text text-anchor="middle" transform="translate(75,-14)" font-size="12px" style="font-family: sans-serif;">genes in gene sets</text><text text-anchor="middle" transform="translate(225,450)" font-size="12px" style="font-family: sans-serif;">-log10 adjusted P-value</text><text text-anchor="middle" transform="translate(225,-20)" font-size="12px" style="font-family: sans-serif;">Enrichment P-value</text><text text-anchor="middle" transform="translate(497.5,-20)" font-size="12px" style="font-family: sans-serif;">overlapping genes</text></g></svg>