<?xml version="1.0" encoding="UTF-8" standalone="no"?>
<!DOCTYPE svg PUBLIC "-//W3C//DTD SVG 1.1//EN"
 "http://www.w3.org/Graphics/SVG/1.1/DTD/svg11.dtd">
<!-- Generated by graphviz version 2.40.1 (20161225.0304)
 -->
<!-- Title: G Pages: 1 -->
<svg width="2556pt" height="1282pt"
 viewBox="0.00 0.00 2555.73 1281.86" xmlns="http://www.w3.org/2000/svg" xmlns:xlink="http://www.w3.org/1999/xlink">
<g id="graph0" class="graph" transform="scale(1 1) rotate(0) translate(4 1277.8646)">
<title>G</title>
<polygon fill="#ffffff" stroke="transparent" points="-4,4 -4,-1277.8646 2551.7293,-1277.8646 2551.7293,4 -4,4"/>
<!-- 1 -->
<g id="node1" class="node">
<title>1</title>
<image xlink:href="/usr/local/micapollo01/MIC/DATA/STUDENTS/vlemon0/code/matlab/../results/visualizeCCAOnPheno/BATCH2_2021_DATA/png2/With/1.png" width="288px" height="144px" preserveAspectRatio="xMinYMin meet" x="1129.86" y="-708.932"/>
</g>
<!-- 2 -->
<g id="node2" class="node">
<title>2</title>
<image xlink:href="/usr/local/micapollo01/MIC/DATA/STUDENTS/vlemon0/code/matlab/../results/visualizeCCAOnPheno/BATCH2_2021_DATA/png2/With/2.png" width="288px" height="144px" preserveAspectRatio="xMinYMin meet" x="1129.86" y="-852.932"/>
</g>
<!-- 1&#45;&gt;2 -->
<!-- 1&#45;&gt;2 -->
<g id="edge37" class="edge">
<title>1&#45;&gt;2</title>
<path fill="none" stroke="#fed883" d="M1307.6141,-709.3542C1307.614,-709.4242 1307.6137,-709.4943 1307.6135,-709.5643"/>
<polygon fill="#fed883" stroke="#fed883" points="1304.16,-699.7579 1307.6126,-709.7744 1311.16,-699.7911 1304.16,-699.7579"/>
<text text-anchor="middle" x="1301.1138" y="-714.4592" font-family="Times,serif" font-size="15.00" fill="#fed883">&#45;9</text>
</g>
<!-- 1&#45;&gt;2 -->
<g id="edge46" class="edge">
<title>1&#45;&gt;2</title>
<path fill="none" stroke="#ffea98" d="M1294.1143,-709.3542C1294.1142,-709.4242 1294.1141,-709.4943 1294.1139,-709.5643"/>
<polygon fill="#ffea98" stroke="#ffea98" points="1290.6438,-699.7638 1294.1134,-709.7744 1297.6437,-699.7851 1290.6438,-699.7638"/>
<text text-anchor="middle" x="1290.1141" y="-714.4592" font-family="Times,serif" font-size="15.00" fill="#ffea98">0</text>
</g>
<!-- 1&#45;&gt;2 -->
<g id="edge52" class="edge">
<title>1&#45;&gt;2</title>
<path fill="none" stroke="#def297" d="M1280.6145,-709.3542C1280.6145,-709.4242 1280.6145,-709.4943 1280.6144,-709.5643"/>
<polygon fill="#def297" stroke="#def297" points="1277.1275,-699.7698 1280.6142,-709.7744 1284.1275,-699.7791 1277.1275,-699.7698"/>
<text text-anchor="middle" x="1270.1145" y="-714.4592" font-family="Times,serif" font-size="15.00" fill="#def297">&#45;19</text>
</g>
<!-- 1&#45;&gt;2 -->
<g id="edge62" class="edge">
<title>1&#45;&gt;2</title>
<path fill="none" stroke="#c1e69f" d="M1267.1147,-709.3542C1267.1148,-709.4242 1267.1148,-709.4943 1267.1149,-709.5643"/>
<polygon fill="#c1e69f" stroke="#c1e69f" points="1263.6018,-699.7791 1267.1151,-709.7744 1270.6018,-699.7698 1263.6018,-699.7791"/>
<text text-anchor="middle" x="1260.6148" y="-697.4592" font-family="Times,serif" font-size="15.00" fill="#c1e69f">&#45;1</text>
</g>
<!-- 1&#45;&gt;2 -->
<g id="edge76" class="edge">
<title>1&#45;&gt;2</title>
<path fill="none" stroke="#82cea4" d="M1253.615,-709.3542C1253.6151,-709.4242 1253.6152,-709.4943 1253.6153,-709.5643"/>
<polygon fill="#82cea4" stroke="#82cea4" points="1250.0855,-699.7851 1253.6159,-709.7744 1257.0855,-699.7638 1250.0855,-699.7851"/>
<text text-anchor="middle" x="1243.1151" y="-714.4592" font-family="Times,serif" font-size="15.00" fill="#82cea4">&#45;29</text>
</g>
<!-- 3 -->
<g id="node3" class="node">
<title>3</title>
<image xlink:href="/usr/local/micapollo01/MIC/DATA/STUDENTS/vlemon0/code/matlab/../results/visualizeCCAOnPheno/BATCH2_2021_DATA/png2/With/3.png" width="288px" height="144px" preserveAspectRatio="xMinYMin meet" x="1129.86" y="-564.932"/>
</g>
<!-- 1&#45;&gt;3 -->
<!-- 1&#45;&gt;3 -->
<g id="edge31" class="edge">
<title>1&#45;&gt;3</title>
<path fill="none" stroke="#ba254b" d="M1233.3653,-564.5104C1233.3655,-564.4404 1233.3657,-564.3704 1233.366,-564.3003"/>
<polygon fill="#ba254b" stroke="#ba254b" points="1236.8111,-574.1097 1233.3671,-564.0902 1229.8112,-574.0705 1236.8111,-574.1097"/>
<text text-anchor="middle" x="1226.8656" y="-569.4054" font-family="Times,serif" font-size="15.00" fill="#ba254b">&#45;1</text>
</g>
<!-- 1&#45;&gt;3 -->
<g id="edge38" class="edge">
<title>1&#45;&gt;3</title>
<path fill="none" stroke="#fed883" d="M1246.8651,-564.5104C1246.8652,-564.4404 1246.8654,-564.3704 1246.8656,-564.3003"/>
<polygon fill="#fed883" stroke="#fed883" points="1250.3274,-574.1038 1246.8663,-564.0902 1243.3274,-574.0766 1250.3274,-574.1038"/>
<text text-anchor="middle" x="1242.8653" y="-569.4054" font-family="Times,serif" font-size="15.00" fill="#fed883">2</text>
</g>
<!-- 1&#45;&gt;3 -->
<g id="edge53" class="edge">
<title>1&#45;&gt;3</title>
<path fill="none" stroke="#def297" d="M1260.3648,-564.5104C1260.3649,-564.4404 1260.365,-564.3704 1260.3651,-564.3003"/>
<polygon fill="#def297" stroke="#def297" points="1263.8436,-574.0979 1260.3655,-564.0902 1256.8437,-574.0826 1263.8436,-574.0979"/>
<text text-anchor="middle" x="1256.365" y="-569.4054" font-family="Times,serif" font-size="15.00" fill="#def297">9</text>
</g>
<!-- 1&#45;&gt;3 -->
<g id="edge63" class="edge">
<title>1&#45;&gt;3</title>
<path fill="none" stroke="#c1e69f" d="M1273.8646,-564.5104C1273.8646,-564.4404 1273.8646,-564.3704 1273.8646,-564.3003"/>
<polygon fill="#c1e69f" stroke="#c1e69f" points="1277.3694,-574.0886 1273.8646,-564.0902 1270.3694,-574.0919 1277.3694,-574.0886"/>
<text text-anchor="middle" x="1263.3646" y="-552.4054" font-family="Times,serif" font-size="15.00" fill="#c1e69f">&#45;22</text>
</g>
<!-- 1&#45;&gt;3 -->
<g id="edge72" class="edge">
<title>1&#45;&gt;3</title>
<path fill="none" stroke="#a2d9a5" d="M1287.3644,-564.5104C1287.3644,-564.4404 1287.3643,-564.3704 1287.3642,-564.3003"/>
<polygon fill="#a2d9a5" stroke="#a2d9a5" points="1290.8856,-574.0826 1287.3638,-564.0902 1283.8856,-574.0979 1290.8856,-574.0826"/>
<text text-anchor="middle" x="1280.8643" y="-569.4054" font-family="Times,serif" font-size="15.00" fill="#a2d9a5">&#45;6</text>
</g>
<!-- 1&#45;&gt;3 -->
<g id="edge77" class="edge">
<title>1&#45;&gt;3</title>
<path fill="none" stroke="#82cea4" d="M1300.8642,-564.5104C1300.8641,-564.4404 1300.8639,-564.3704 1300.8637,-564.3003"/>
<polygon fill="#82cea4" stroke="#82cea4" points="1304.4018,-574.0766 1300.863,-564.0902 1297.4019,-574.1038 1304.4018,-574.0766"/>
<text text-anchor="middle" x="1294.364" y="-569.4054" font-family="Times,serif" font-size="15.00" fill="#82cea4">&#45;4</text>
</g>
<!-- 4 -->
<g id="node4" class="node">
<title>4</title>
<image xlink:href="/usr/local/micapollo01/MIC/DATA/STUDENTS/vlemon0/code/matlab/../results/visualizeCCAOnPheno/BATCH2_2021_DATA/png2/With/4.png" width="288px" height="144px" preserveAspectRatio="xMinYMin meet" x="1495.79" y="-912.579"/>
</g>
<!-- 2&#45;&gt;4 -->
<!-- 2&#45;&gt;4 -->
<g id="edge32" class="edge">
<title>2&#45;&gt;4</title>
<path fill="none" stroke="#ba254b" d="M1418.021,-764.5264C1440.2599,-767.0252 1463.2992,-770.4955 1485.7439,-774.71"/>
<polygon fill="#ba254b" stroke="#ba254b" points="1485.1818,-778.1661 1495.6645,-776.6292 1486.5113,-771.2935 1485.1818,-778.1661"/>
<text text-anchor="middle" x="1447.8824" y="-774.6182" font-family="Times,serif" font-size="15.00" fill="#ba254b">9</text>
</g>
<!-- 2&#45;&gt;4 -->
<g id="edge39" class="edge">
<title>2&#45;&gt;4</title>
<path fill="none" stroke="#fed883" d="M1418.0078,-777.7562C1440.2666,-780.668 1463.3284,-784.2729 1485.793,-788.3425"/>
<polygon fill="#fed883" stroke="#fed883" points="1485.2524,-791.8019 1495.7222,-790.179 1486.5256,-784.9186 1485.2524,-791.8019"/>
<text text-anchor="middle" x="1455.9004" y="-771.0494" font-family="Times,serif" font-size="15.00" fill="#fed883">8</text>
</g>
<!-- 2&#45;&gt;4 -->
<g id="edge47" class="edge">
<title>2&#45;&gt;4</title>
<path fill="none" stroke="#ffea98" d="M1417.9886,-791.0559C1440.2678,-794.3466 1463.3524,-798.0502 1485.8374,-801.9378"/>
<polygon fill="#ffea98" stroke="#ffea98" points="1485.3222,-805.4007 1495.7755,-803.675 1486.5276,-798.5053 1485.3222,-805.4007"/>
<text text-anchor="middle" x="1455.913" y="-801.4968" font-family="Times,serif" font-size="15.00" fill="#ffea98">0</text>
</g>
<!-- 2&#45;&gt;4 -->
<g id="edge54" class="edge">
<title>2&#45;&gt;4</title>
<path fill="none" stroke="#def297" d="M1417.9639,-804.4207C1440.1769,-808.0414 1463.1912,-811.7928 1485.6139,-815.4477"/>
<polygon fill="#def297" stroke="#def297" points="1485.0921,-818.9088 1495.5249,-817.0632 1486.2183,-811.9999 1485.0921,-818.9088"/>
<text text-anchor="middle" x="1447.7889" y="-814.9342" font-family="Times,serif" font-size="15.00" fill="#def297">2</text>
</g>
<!-- 2&#45;&gt;4 -->
<g id="edge64" class="edge">
<title>2&#45;&gt;4</title>
<path fill="none" stroke="#c1e69f" d="M1417.9344,-817.8456C1440.1693,-821.7748 1463.2076,-825.5543 1485.6524,-828.9565"/>
<polygon fill="#c1e69f" stroke="#c1e69f" points="1485.1652,-832.4225 1495.5731,-830.4413 1486.2014,-825.4996 1485.1652,-832.4225"/>
<text text-anchor="middle" x="1462.2934" y="-828.401" font-family="Times,serif" font-size="15.00" fill="#c1e69f">&#45;14</text>
</g>
<!-- 2&#45;&gt;4 -->
<g id="edge78" class="edge">
<title>2&#45;&gt;4</title>
<path fill="none" stroke="#82cea4" d="M1417.9005,-831.3258C1440.1578,-835.5286 1463.2203,-839.3005 1485.6878,-842.4133"/>
<polygon fill="#82cea4" stroke="#82cea4" points="1485.2407,-845.8846 1495.6185,-843.7511 1486.1754,-838.9473 1485.2407,-845.8846"/>
<text text-anchor="middle" x="1443.7941" y="-841.8695" font-family="Times,serif" font-size="15.00" fill="#82cea4">10</text>
</g>
<!-- 5 -->
<g id="node5" class="node">
<title>5</title>
<image xlink:href="/usr/local/micapollo01/MIC/DATA/STUDENTS/vlemon0/code/matlab/../results/visualizeCCAOnPheno/BATCH2_2021_DATA/png2/With/5.png" width="288px" height="144px" preserveAspectRatio="xMinYMin meet" x="763.936" y="-912.579"/>
</g>
<!-- 2&#45;&gt;5 -->
<!-- 2&#45;&gt;5 -->
<g id="edge65" class="edge">
<title>2&#45;&gt;5</title>
<path fill="none" stroke="#c1e69f" d="M1129.7796,-811.1259C1107.5556,-814.9052 1084.5294,-818.6751 1062.0958,-822.2083"/>
<polygon fill="#c1e69f" stroke="#c1e69f" points="1061.5182,-818.756 1052.1799,-823.7605 1062.6009,-825.6718 1061.5182,-818.756"/>
<text text-anchor="middle" x="1089.4377" y="-821.6671" font-family="Times,serif" font-size="15.00" fill="#c1e69f">&#45;8</text>
</g>
<!-- 6 -->
<g id="node6" class="node">
<title>6</title>
<image xlink:href="/usr/local/micapollo01/MIC/DATA/STUDENTS/vlemon0/code/matlab/../results/visualizeCCAOnPheno/BATCH2_2021_DATA/png2/With/6.png" width="288px" height="144px" preserveAspectRatio="xMinYMin meet" x="763.936" y="-505.286"/>
</g>
<!-- 3&#45;&gt;6 -->
<!-- 3&#45;&gt;6 -->
<g id="edge33" class="edge">
<title>3&#45;&gt;6</title>
<path fill="none" stroke="#ba254b" d="M1129.7215,-496.1085C1107.4626,-493.1966 1084.4009,-489.5917 1061.9363,-485.5221"/>
<polygon fill="#ba254b" stroke="#ba254b" points="1062.4769,-482.0628 1052.0071,-483.6856 1061.2037,-488.946 1062.4769,-482.0628"/>
<text text-anchor="middle" x="1091.8289" y="-495.8153" font-family="Times,serif" font-size="15.00" fill="#ba254b">1</text>
</g>
<!-- 3&#45;&gt;6 -->
<g id="edge40" class="edge">
<title>3&#45;&gt;6</title>
<path fill="none" stroke="#fed883" d="M1129.7407,-482.8088C1107.4615,-479.5181 1084.3769,-475.8144 1061.8919,-471.9268"/>
<polygon fill="#fed883" stroke="#fed883" points="1062.4071,-468.4639 1051.9538,-470.1896 1061.2017,-475.3593 1062.4071,-468.4639"/>
<text text-anchor="middle" x="1089.3163" y="-465.3678" font-family="Times,serif" font-size="15.00" fill="#fed883">&#45;1</text>
</g>
<!-- 3&#45;&gt;6 -->
<g id="edge55" class="edge">
<title>3&#45;&gt;6</title>
<path fill="none" stroke="#def297" d="M1129.7654,-469.444C1107.5524,-465.8232 1084.5381,-462.0719 1062.1154,-458.4169"/>
<polygon fill="#def297" stroke="#def297" points="1062.6372,-454.9559 1052.2044,-456.8014 1061.511,-461.8647 1062.6372,-454.9559"/>
<text text-anchor="middle" x="1102.4404" y="-468.9305" font-family="Times,serif" font-size="15.00" fill="#def297">&#45;1</text>
</g>
<!-- 3&#45;&gt;6 -->
<g id="edge79" class="edge">
<title>3&#45;&gt;6</title>
<path fill="none" stroke="#82cea4" d="M1129.7949,-456.019C1107.56,-452.0898 1084.5217,-448.3103 1062.0769,-444.9082"/>
<polygon fill="#82cea4" stroke="#82cea4" points="1062.5641,-441.4422 1052.1562,-443.4233 1061.5279,-448.3651 1062.5641,-441.4422"/>
<text text-anchor="middle" x="1087.9359" y="-438.4636" font-family="Times,serif" font-size="15.00" fill="#82cea4">11</text>
</g>
<!-- 7 -->
<g id="node7" class="node">
<title>7</title>
<image xlink:href="/usr/local/micapollo01/MIC/DATA/STUDENTS/vlemon0/code/matlab/../results/visualizeCCAOnPheno/BATCH2_2021_DATA/png2/With/7.png" width="288px" height="144px" preserveAspectRatio="xMinYMin meet" x="1495.79" y="-505.286"/>
</g>
<!-- 3&#45;&gt;7 -->
<!-- 3&#45;&gt;7 -->
<g id="edge66" class="edge">
<title>3&#45;&gt;7</title>
<path fill="none" stroke="#c1e69f" d="M1417.9497,-462.7387C1440.1736,-458.9594 1463.1999,-455.1895 1485.6335,-451.6564"/>
<polygon fill="#c1e69f" stroke="#c1e69f" points="1486.211,-455.1087 1495.5494,-450.1041 1485.1284,-448.1929 1486.211,-455.1087"/>
<text text-anchor="middle" x="1447.7916" y="-462.1975" font-family="Times,serif" font-size="15.00" fill="#c1e69f">1</text>
</g>
<!-- 8 -->
<g id="node8" class="node">
<title>8</title>
<image xlink:href="/usr/local/micapollo01/MIC/DATA/STUDENTS/vlemon0/code/matlab/../results/visualizeCCAOnPheno/BATCH2_2021_DATA/png2/With/8.png" width="288px" height="144px" preserveAspectRatio="xMinYMin meet" x="1847.03" y="-874.252"/>
</g>
<!-- 4&#45;&gt;8 -->
<!-- 4&#45;&gt;8 -->
<g id="edge41" class="edge">
<title>4&#45;&gt;8</title>
<path fill="none" stroke="#fed883" d="M1783.8189,-798.0273C1801.2187,-795.7304 1819.0462,-793.7528 1836.5878,-792.1723"/>
<polygon fill="#fed883" stroke="#fed883" points="1837.2139,-795.6315 1846.8776,-791.2883 1836.6146,-788.6572 1837.2139,-795.6315"/>
<text text-anchor="middle" x="1802.2033" y="-800.0998" font-family="Times,serif" font-size="15.00" fill="#fed883">18</text>
</g>
<!-- 4&#45;&gt;8 -->
<g id="edge48" class="edge">
<title>4&#45;&gt;8</title>
<path fill="none" stroke="#ffea98" d="M1783.9973,-811.4403C1801.3175,-809.3433 1819.059,-807.3816 1836.5181,-805.6319"/>
<polygon fill="#ffea98" stroke="#ffea98" points="1837.1495,-809.0869 1846.7599,-804.6269 1836.4658,-802.1203 1837.1495,-809.0869"/>
<text text-anchor="middle" x="1814.2577" y="-796.5361" font-family="Times,serif" font-size="15.00" fill="#ffea98">0</text>
</g>
<!-- 4&#45;&gt;8 -->
<g id="edge56" class="edge">
<title>4&#45;&gt;8</title>
<path fill="none" stroke="#def297" d="M1783.9203,-824.8516C1801.3297,-822.9518 1819.166,-821.0055 1836.7143,-819.0905"/>
<polygon fill="#def297" stroke="#def297" points="1837.4465,-822.5315 1847.0078,-817.9673 1836.6871,-815.5728 1837.4465,-822.5315"/>
<text text-anchor="middle" x="1814.3173" y="-826.9711" font-family="Times,serif" font-size="15.00" fill="#def297">0</text>
</g>
<!-- 4&#45;&gt;8 -->
<g id="edge80" class="edge">
<title>4&#45;&gt;8</title>
<path fill="none" stroke="#82cea4" d="M1783.8414,-838.2248C1801.2616,-836.5534 1819.1103,-834.6519 1836.6712,-832.5983"/>
<polygon fill="#82cea4" stroke="#82cea4" points="1837.456,-836.0297 1846.9722,-831.3723 1836.6286,-829.0788 1837.456,-836.0297"/>
<text text-anchor="middle" x="1799.7563" y="-840.4116" font-family="Times,serif" font-size="15.00" fill="#82cea4">&#45;20</text>
</g>
<!-- 9 -->
<g id="node9" class="node">
<title>9</title>
<image xlink:href="/usr/local/micapollo01/MIC/DATA/STUDENTS/vlemon0/code/matlab/../results/visualizeCCAOnPheno/BATCH2_2021_DATA/png2/With/9.png" width="288px" height="144px" preserveAspectRatio="xMinYMin meet" x="1426.92" y="-1108.05"/>
</g>
<!-- 4&#45;&gt;9 -->
<!-- 4&#45;&gt;9 -->
<g id="edge49" class="edge">
<title>4&#45;&gt;9</title>
<path fill="none" stroke="#ffea98" d="M1628.0859,-912.69C1623.856,-926.3066 1618.9815,-940.6349 1613.8706,-954.5159"/>
<polygon fill="#ffea98" stroke="#ffea98" points="1610.5332,-953.4478 1610.2997,-964.04 1617.0877,-955.9053 1610.5332,-953.4478"/>
<text text-anchor="middle" x="1616.9783" y="-938.6029" font-family="Times,serif" font-size="15.00" fill="#ffea98">0</text>
</g>
<!-- 4&#45;&gt;9 -->
<g id="edge57" class="edge">
<title>4&#45;&gt;9</title>
<path fill="none" stroke="#def297" d="M1614.344,-912.8092C1609.5807,-926.3287 1604.5707,-940.5482 1599.7147,-954.3308"/>
<polygon fill="#def297" stroke="#def297" points="1596.4044,-953.194 1596.3823,-963.7889 1603.0066,-955.5202 1596.4044,-953.194"/>
<text text-anchor="middle" x="1600.5294" y="-938.57" font-family="Times,serif" font-size="15.00" fill="#def297">&#45;4</text>
</g>
<!-- 10 -->
<g id="node10" class="node">
<title>10</title>
<image xlink:href="/usr/local/micapollo01/MIC/DATA/STUDENTS/vlemon0/code/matlab/../results/visualizeCCAOnPheno/BATCH2_2021_DATA/png2/With/10.png" width="288px" height="144px" preserveAspectRatio="xMinYMin meet" x="832.806" y="-1108.05"/>
</g>
<!-- 5&#45;&gt;10 -->
<!-- 5&#45;&gt;10 -->
<g id="edge36" class="edge">
<title>5&#45;&gt;10</title>
<path fill="none" stroke="#fca65c" d="M947.3187,-912.6025C952.4693,-926.0916 957.4803,-940.2821 961.9544,-954.0464"/>
<polygon fill="#fca65c" stroke="#fca65c" points="958.7463,-955.5079 965.1117,-963.9775 965.4173,-953.387 958.7463,-955.5079"/>
<text text-anchor="middle" x="950.6365" y="-938.3244" font-family="Times,serif" font-size="15.00" fill="#fca65c">1</text>
</g>
<!-- 5&#45;&gt;10 -->
<g id="edge67" class="edge">
<title>5&#45;&gt;10</title>
<path fill="none" stroke="#c1e69f" d="M933.3853,-912.8092C938.1486,-926.3287 943.1585,-940.5482 948.0146,-954.3308"/>
<polygon fill="#c1e69f" stroke="#c1e69f" points="944.7227,-955.5202 951.347,-963.7889 951.3249,-953.194 944.7227,-955.5202"/>
<text text-anchor="middle" x="932.6999" y="-938.57" font-family="Times,serif" font-size="15.00" fill="#c1e69f">11</text>
</g>
<!-- 11 -->
<g id="node11" class="node">
<title>11</title>
<image xlink:href="/usr/local/micapollo01/MIC/DATA/STUDENTS/vlemon0/code/matlab/../results/visualizeCCAOnPheno/BATCH2_2021_DATA/png2/With/11.png" width="288px" height="144px" preserveAspectRatio="xMinYMin meet" x="412.702" y="-874.252"/>
</g>
<!-- 5&#45;&gt;11 -->
<!-- 12 -->
<g id="node12" class="node">
<title>12</title>
<image xlink:href="/usr/local/micapollo01/MIC/DATA/STUDENTS/vlemon0/code/matlab/../results/visualizeCCAOnPheno/BATCH2_2021_DATA/png2/With/12.png" width="288px" height="144px" preserveAspectRatio="xMinYMin meet" x="412.702" y="-543.613"/>
</g>
<!-- 6&#45;&gt;12 -->
<!-- 6&#45;&gt;12 -->
<g id="edge42" class="edge">
<title>6&#45;&gt;12</title>
<path fill="none" stroke="#fed883" d="M763.9104,-475.8374C746.5106,-478.1343 728.6831,-480.1119 711.1415,-481.6923"/>
<polygon fill="#fed883" stroke="#fed883" points="710.5154,-478.2331 700.8517,-482.5764 711.1146,-485.2074 710.5154,-478.2331"/>
<text text-anchor="middle" x="731.0259" y="-483.7648" font-family="Times,serif" font-size="15.00" fill="#fed883">&#45;9</text>
</g>
<!-- 6&#45;&gt;12 -->
<g id="edge51" class="edge">
<title>6&#45;&gt;12</title>
<path fill="none" stroke="#fcfeb1" d="M763.732,-462.4243C746.4118,-464.5214 728.6703,-466.4831 711.2112,-468.2327"/>
<polygon fill="#fcfeb1" stroke="#fcfeb1" points="710.5798,-464.7778 700.9694,-469.2378 711.2635,-471.7443 710.5798,-464.7778"/>
<text text-anchor="middle" x="741.4716" y="-453.3285" font-family="Times,serif" font-size="15.00" fill="#fcfeb1">1</text>
</g>
<!-- 6&#45;&gt;12 -->
<g id="edge73" class="edge">
<title>6&#45;&gt;12</title>
<path fill="none" stroke="#a2d9a5" d="M763.809,-449.0131C746.3995,-450.9128 728.5633,-452.8592 711.015,-454.7741"/>
<polygon fill="#a2d9a5" stroke="#a2d9a5" points="710.2828,-451.3331 700.7215,-455.8973 711.0422,-458.2918 710.2828,-451.3331"/>
<text text-anchor="middle" x="733.412" y="-456.8936" font-family="Times,serif" font-size="15.00" fill="#a2d9a5">5</text>
</g>
<!-- 6&#45;&gt;12 -->
<g id="edge81" class="edge">
<title>6&#45;&gt;12</title>
<path fill="none" stroke="#82cea4" d="M763.8879,-435.6399C746.4677,-437.3112 728.619,-439.2127 711.058,-441.2663"/>
<polygon fill="#82cea4" stroke="#82cea4" points="710.2733,-437.8349 700.7571,-442.4924 711.1007,-444.7859 710.2733,-437.8349"/>
<text text-anchor="middle" x="730.973" y="-426.4531" font-family="Times,serif" font-size="15.00" fill="#82cea4">&#45;5</text>
</g>
<!-- 13 -->
<g id="node13" class="node">
<title>13</title>
<image xlink:href="/usr/local/micapollo01/MIC/DATA/STUDENTS/vlemon0/code/matlab/../results/visualizeCCAOnPheno/BATCH2_2021_DATA/png2/With/13.png" width="288px" height="144px" preserveAspectRatio="xMinYMin meet" x="832.806" y="-309.816"/>
</g>
<!-- 6&#45;&gt;13 -->
<!-- 6&#45;&gt;13 -->
<g id="edge34" class="edge">
<title>6&#45;&gt;13</title>
<path fill="none" stroke="#ba254b" d="M906.3483,-361.0809C909.8314,-347.5533 914.3308,-333.3331 919.4501,-319.5454"/>
<polygon fill="#ba254b" stroke="#ba254b" points="922.7663,-320.673 923.0883,-310.083 916.2326,-318.1607 922.7663,-320.673"/>
<text text-anchor="middle" x="906.3992" y="-345.3132" font-family="Times,serif" font-size="15.00" fill="#ba254b">&#45;1</text>
</g>
<!-- 6&#45;&gt;13 -->
<g id="edge43" class="edge">
<title>6&#45;&gt;13</title>
<path fill="none" stroke="#fed883" d="M919.6433,-361.1746C923.8733,-347.5581 928.7478,-333.2298 933.8586,-319.3488"/>
<polygon fill="#fed883" stroke="#fed883" points="937.1961,-320.4169 937.4296,-309.8246 930.6416,-317.9593 937.1961,-320.4169"/>
<text text-anchor="middle" x="920.251" y="-345.2617" font-family="Times,serif" font-size="15.00" fill="#fed883">&#45;2</text>
</g>
<!-- 6&#45;&gt;13 -->
<g id="edge58" class="edge">
<title>6&#45;&gt;13</title>
<path fill="none" stroke="#def297" d="M933.3853,-361.0554C938.1486,-347.536 943.1585,-333.3165 948.0146,-319.5338"/>
<polygon fill="#def297" stroke="#def297" points="951.3249,-320.6706 951.347,-310.0758 944.7227,-318.3444 951.3249,-320.6706"/>
<text text-anchor="middle" x="951.1999" y="-328.2946" font-family="Times,serif" font-size="15.00" fill="#def297">&#45;29</text>
</g>
<!-- 6&#45;&gt;13 -->
<g id="edge82" class="edge">
<title>6&#45;&gt;13</title>
<path fill="none" stroke="#82cea4" d="M947.3187,-361.2622C952.4693,-347.773 957.4803,-333.5825 961.9544,-319.8183"/>
<polygon fill="#82cea4" stroke="#82cea4" points="965.4173,-320.4776 965.1117,-309.8872 958.7463,-318.3567 965.4173,-320.4776"/>
<text text-anchor="middle" x="944.1365" y="-345.5402" font-family="Times,serif" font-size="15.00" fill="#82cea4">&#45;13</text>
</g>
<!-- 14 -->
<g id="node14" class="node">
<title>14</title>
<image xlink:href="/usr/local/micapollo01/MIC/DATA/STUDENTS/vlemon0/code/matlab/../results/visualizeCCAOnPheno/BATCH2_2021_DATA/png2/With/14.png" width="288px" height="144px" preserveAspectRatio="xMinYMin meet" x="1426.92" y="-309.816"/>
</g>
<!-- 7&#45;&gt;14 -->
<!-- 7&#45;&gt;14 -->
<g id="edge59" class="edge">
<title>7&#45;&gt;14</title>
<path fill="none" stroke="#def297" d="M1607.3566,-361.015C1602.4233,-347.626 1597.4392,-333.5521 1592.7931,-319.8965"/>
<polygon fill="#def297" stroke="#def297" points="1595.9834,-318.4031 1589.4753,-310.0428 1589.3494,-320.6369 1595.9834,-318.4031"/>
<text text-anchor="middle" x="1596.0749" y="-345.4557" font-family="Times,serif" font-size="15.00" fill="#def297">1</text>
</g>
<!-- 15 -->
<g id="node15" class="node">
<title>15</title>
<image xlink:href="/usr/local/micapollo01/MIC/DATA/STUDENTS/vlemon0/code/matlab/../results/visualizeCCAOnPheno/BATCH2_2021_DATA/png2/With/15.png" width="288px" height="144px" preserveAspectRatio="xMinYMin meet" x="1847.03" y="-543.613"/>
</g>
<!-- 7&#45;&gt;15 -->
<!-- 7&#45;&gt;15 -->
<g id="edge68" class="edge">
<title>7&#45;&gt;15</title>
<path fill="none" stroke="#c1e69f" d="M1783.8811,-442.3215C1801.2562,-444.1057 1819.0571,-446.0276 1836.573,-448.0096"/>
<polygon fill="#c1e69f" stroke="#c1e69f" points="1836.5152,-451.5257 1846.8478,-449.183 1837.3095,-444.5709 1836.5152,-451.5257"/>
<text text-anchor="middle" x="1803.727" y="-450.1656" font-family="Times,serif" font-size="15.00" fill="#c1e69f">&#45;2</text>
</g>
<!-- 16 -->
<g id="node16" class="node">
<title>16</title>
<image xlink:href="/usr/local/micapollo01/MIC/DATA/STUDENTS/vlemon0/code/matlab/../results/visualizeCCAOnPheno/BATCH2_2021_DATA/png2/With/16.png" width="288px" height="144px" preserveAspectRatio="xMinYMin meet" x="2144.98" y="-821.304"/>
</g>
<!-- 8&#45;&gt;16 -->
<!-- 8&#45;&gt;16 -->
<g id="edge50" class="edge">
<title>8&#45;&gt;16</title>
<path fill="none" stroke="#ffea98" d="M2135.4591,-762.8752C2135.5555,-762.858 2135.6518,-762.8408 2135.7482,-762.8235"/>
<polygon fill="#ffea98" stroke="#ffea98" points="2135.4733,-766.4261 2144.7138,-761.2431 2134.258,-759.5324 2135.4733,-766.4261"/>
<text text-anchor="middle" x="2139.6036" y="-767.8494" font-family="Times,serif" font-size="15.00" fill="#ffea98">0</text>
</g>
<!-- 8&#45;&gt;16 -->
<g id="edge69" class="edge">
<title>8&#45;&gt;16</title>
<path fill="none" stroke="#c1e69f" d="M2135.2028,-776.631C2135.3003,-776.6137 2135.3978,-776.5963 2135.4953,-776.579"/>
<polygon fill="#c1e69f" stroke="#c1e69f" points="2135.3305,-780.1632 2144.5639,-774.9675 2134.1057,-773.2712 2135.3305,-780.1632"/>
<text text-anchor="middle" x="2139.349" y="-781.605" font-family="Times,serif" font-size="15.00" fill="#c1e69f">7</text>
</g>
<!-- 17 -->
<g id="node17" class="node">
<title>17</title>
<image xlink:href="/usr/local/micapollo01/MIC/DATA/STUDENTS/vlemon0/code/matlab/../results/visualizeCCAOnPheno/BATCH2_2021_DATA/png2/With/17.png" width="288px" height="144px" preserveAspectRatio="xMinYMin meet" x="1990.44" y="-1028.94"/>
</g>
<!-- 8&#45;&gt;17 -->
<!-- 8&#45;&gt;17 -->
<g id="edge44" class="edge">
<title>8&#45;&gt;17</title>
<path fill="none" stroke="#fed883" d="M2076.3996,-874.5064C2077.1706,-875.3481 2077.9395,-876.1906 2078.7058,-877.0335"/>
<polygon fill="#fed883" stroke="#fed883" points="2076.2371,-879.5227 2085.5252,-884.62 2081.4431,-874.8431 2076.2371,-879.5227"/>
<text text-anchor="middle" x="2071.0527" y="-880.7699" font-family="Times,serif" font-size="15.00" fill="#fed883">&#45;7</text>
</g>
<!-- 8&#45;&gt;17 -->
<g id="edge60" class="edge">
<title>8&#45;&gt;17</title>
<path fill="none" stroke="#def297" d="M2058.1133,-874.6141C2058.8787,-875.4398 2059.6449,-876.2662 2060.4114,-877.0929"/>
<polygon fill="#def297" stroke="#def297" points="2057.9445,-879.5802 2067.3099,-884.534 2063.0779,-874.8211 2057.9445,-879.5802"/>
<text text-anchor="middle" x="2055.2623" y="-880.8535" font-family="Times,serif" font-size="15.00" fill="#def297">0</text>
</g>
<!-- 18 -->
<g id="node18" class="node">
<title>18</title>
<image xlink:href="/usr/local/micapollo01/MIC/DATA/STUDENTS/vlemon0/code/matlab/../results/visualizeCCAOnPheno/BATCH2_2021_DATA/png2/With/18.png" width="288px" height="144px" preserveAspectRatio="xMinYMin meet" x="1704.88" y="-1187.86"/>
</g>
<!-- 9&#45;&gt;18 -->
<!-- 9&#45;&gt;18 -->
<g id="edge70" class="edge">
<title>9&#45;&gt;18</title>
<path fill="none" stroke="#c1e69f" d="M1715.0214,-1070.4025C1715.0881,-1070.4217 1715.1549,-1070.441 1715.2216,-1070.4602"/>
<polygon fill="#c1e69f" stroke="#c1e69f" points="1704.8423,-1071.1076 1715.4219,-1070.518 1706.7838,-1064.3814 1704.8423,-1071.1076"/>
<text text-anchor="middle" x="1723.1215" y="-1075.4313" font-family="Times,serif" font-size="15.00" fill="#c1e69f">14</text>
</g>
<!-- 19 -->
<g id="node19" class="node">
<title>19</title>
<image xlink:href="/usr/local/micapollo01/MIC/DATA/STUDENTS/vlemon0/code/matlab/../results/visualizeCCAOnPheno/BATCH2_2021_DATA/png2/With/19.png" width="288px" height="144px" preserveAspectRatio="xMinYMin meet" x="1331.78" y="-1273.86"/>
</g>
<!-- 9&#45;&gt;19 -->
<!-- 9&#45;&gt;19 -->
<g id="edge61" class="edge">
<title>9&#45;&gt;19</title>
<path fill="none" stroke="#def297" d="M1537.1814,-1108.2449C1534.8021,-1112.4977 1532.3731,-1116.7886 1529.9208,-1121.072"/>
<polygon fill="#def297" stroke="#def297" points="1526.8285,-1119.4281 1524.8627,-1129.839 1532.8918,-1122.9263 1526.8285,-1119.4281"/>
<text text-anchor="middle" x="1529.5511" y="-1119.6585" font-family="Times,serif" font-size="15.00" fill="#def297">0</text>
</g>
<!-- 20 -->
<g id="node20" class="node">
<title>20</title>
<image xlink:href="/usr/local/micapollo01/MIC/DATA/STUDENTS/vlemon0/code/matlab/../results/visualizeCCAOnPheno/BATCH2_2021_DATA/png2/With/20.png" width="288px" height="144px" preserveAspectRatio="xMinYMin meet" x="927.946" y="-1273.86"/>
</g>
<!-- 10&#45;&gt;20 -->
<!-- 21 -->
<g id="node21" class="node">
<title>21</title>
<image xlink:href="/usr/local/micapollo01/MIC/DATA/STUDENTS/vlemon0/code/matlab/../results/visualizeCCAOnPheno/BATCH2_2021_DATA/png2/With/21.png" width="288px" height="144px" preserveAspectRatio="xMinYMin meet" x="554.849" y="-1187.86"/>
</g>
<!-- 10&#45;&gt;21 -->
<!-- 10&#45;&gt;21 -->
<g id="edge71" class="edge">
<title>10&#45;&gt;21</title>
<path fill="none" stroke="#c1e69f" d="M832.769,-1084.421C832.7034,-1084.4397 832.6378,-1084.4583 832.5722,-1084.477"/>
<polygon fill="#c1e69f" stroke="#c1e69f" points="841.0334,-1078.4242 832.3755,-1084.533 842.9532,-1085.1566 841.0334,-1078.4242"/>
<text text-anchor="middle" x="828.6706" y="-1089.449" font-family="Times,serif" font-size="15.00" fill="#c1e69f">6</text>
</g>
<!-- 22 -->
<g id="node22" class="node">
<title>22</title>
<image xlink:href="/usr/local/micapollo01/MIC/DATA/STUDENTS/vlemon0/code/matlab/../results/visualizeCCAOnPheno/BATCH2_2021_DATA/png2/With/22.png" width="288px" height="144px" preserveAspectRatio="xMinYMin meet" x="269.292" y="-1028.94"/>
</g>
<!-- 11&#45;&gt;22 -->
<!-- 23 -->
<g id="node23" class="node">
<title>23</title>
<image xlink:href="/usr/local/micapollo01/MIC/DATA/STUDENTS/vlemon0/code/matlab/../results/visualizeCCAOnPheno/BATCH2_2021_DATA/png2/With/23.png" width="288px" height="144px" preserveAspectRatio="xMinYMin meet" x="114.75" y="-821.304"/>
</g>
<!-- 11&#45;&gt;23 -->
<!-- 24 -->
<g id="node24" class="node">
<title>24</title>
<image xlink:href="/usr/local/micapollo01/MIC/DATA/STUDENTS/vlemon0/code/matlab/../results/visualizeCCAOnPheno/BATCH2_2021_DATA/png2/With/24.png" width="288px" height="144px" preserveAspectRatio="xMinYMin meet" x="114.75" y="-596.56"/>
</g>
<!-- 12&#45;&gt;24 -->
<!-- 12&#45;&gt;24 -->
<g id="edge45" class="edge">
<title>12&#45;&gt;24</title>
<path fill="none" stroke="#fed883" d="M412.5785,-517.791C412.4779,-517.809 412.3773,-517.8269 412.2767,-517.8449"/>
<polygon fill="#fed883" stroke="#fed883" points="412.1679,-514.3108 402.9193,-519.4794 413.3724,-521.2064 412.1679,-514.3108"/>
<text text-anchor="middle" x="408.4276" y="-522.8179" font-family="Times,serif" font-size="15.00" fill="#fed883">0</text>
</g>
<!-- 12&#45;&gt;24 -->
<g id="edge74" class="edge">
<title>12&#45;&gt;24</title>
<path fill="none" stroke="#a2d9a5" d="M412.3983,-504.1105C412.3014,-504.1278 412.2044,-504.1452 412.1075,-504.1625"/>
<polygon fill="#a2d9a5" stroke="#a2d9a5" points="412.3258,-500.569 403.0907,-505.7616 413.5482,-507.4615 412.3258,-500.569"/>
<text text-anchor="middle" x="405.7529" y="-492.1365" font-family="Times,serif" font-size="15.00" fill="#a2d9a5">&#45;4</text>
</g>
<!-- 12&#45;&gt;24 -->
<g id="edge83" class="edge">
<title>12&#45;&gt;24</title>
<path fill="none" stroke="#82cea4" d="M412.6549,-490.3602C412.5522,-490.3783 412.4495,-490.3964 412.3468,-490.4145"/>
<polygon fill="#82cea4" stroke="#82cea4" points="412.0265,-486.9165 402.7918,-492.1098 413.2494,-493.8089 412.0265,-486.9165"/>
<text text-anchor="middle" x="406.0009" y="-478.3873" font-family="Times,serif" font-size="15.00" fill="#82cea4">&#45;8</text>
</g>
<!-- 25 -->
<g id="node25" class="node">
<title>25</title>
<image xlink:href="/usr/local/micapollo01/MIC/DATA/STUDENTS/vlemon0/code/matlab/../results/visualizeCCAOnPheno/BATCH2_2021_DATA/png2/With/25.png" width="288px" height="144px" preserveAspectRatio="xMinYMin meet" x="269.292" y="-388.924"/>
</g>
<!-- 12&#45;&gt;25 -->
<!-- 12&#45;&gt;25 -->
<g id="edge75" class="edge">
<title>12&#45;&gt;25</title>
<path fill="none" stroke="#a2d9a5" d="M471.3296,-399.3583C470.5587,-398.5166 469.7898,-397.6741 469.0235,-396.8311"/>
<polygon fill="#a2d9a5" stroke="#a2d9a5" points="471.4921,-394.3419 462.204,-389.2447 466.2862,-399.0215 471.4921,-394.3419"/>
<text text-anchor="middle" x="466.1766" y="-386.0947" font-family="Times,serif" font-size="15.00" fill="#a2d9a5">7</text>
</g>
<!-- 12&#45;&gt;25 -->
<g id="edge84" class="edge">
<title>12&#45;&gt;25</title>
<path fill="none" stroke="#82cea4" d="M489.616,-399.2505C488.8505,-398.4249 488.0844,-397.5985 487.3179,-396.7717"/>
<polygon fill="#82cea4" stroke="#82cea4" points="489.7848,-394.2845 480.4194,-389.3306 484.6514,-399.0436 489.7848,-394.2845"/>
<text text-anchor="middle" x="498.9669" y="-386.0111" font-family="Times,serif" font-size="15.00" fill="#82cea4">&#45;10</text>
</g>
<!-- 26 -->
<g id="node26" class="node">
<title>26</title>
<image xlink:href="/usr/local/micapollo01/MIC/DATA/STUDENTS/vlemon0/code/matlab/../results/visualizeCCAOnPheno/BATCH2_2021_DATA/png2/With/26.png" width="288px" height="144px" preserveAspectRatio="xMinYMin meet" x="554.849" y="-230.006"/>
</g>
<!-- 13&#45;&gt;26 -->
<!-- 13&#45;&gt;26 -->
<g id="edge35" class="edge">
<title>13&#45;&gt;26</title>
<path fill="none" stroke="#ba254b" d="M832.4733,-210.4184C832.406,-210.399 832.3386,-210.3796 832.2713,-210.3602"/>
<polygon fill="#ba254b" stroke="#ba254b" points="842.6491,-209.7133 832.0694,-210.3019 840.707,-216.4393 842.6491,-209.7133"/>
<text text-anchor="middle" x="825.8723" y="-215.3893" font-family="Times,serif" font-size="15.00" fill="#ba254b">&#45;2</text>
</g>
<!-- 13&#45;&gt;26 -->
<g id="edge85" class="edge">
<title>13&#45;&gt;26</title>
<path fill="none" stroke="#82cea4" d="M832.5354,-196.3916C832.4693,-196.3726 832.4032,-196.3536 832.3371,-196.3347"/>
<polygon fill="#82cea4" stroke="#82cea4" points="842.7178,-195.6769 832.1388,-196.2777 840.7835,-202.4052 842.7178,-195.6769"/>
<text text-anchor="middle" x="824.4363" y="-184.3631" font-family="Times,serif" font-size="15.00" fill="#82cea4">11</text>
</g>
<!-- 27 -->
<g id="node27" class="node">
<title>27</title>
<image xlink:href="/usr/local/micapollo01/MIC/DATA/STUDENTS/vlemon0/code/matlab/../results/visualizeCCAOnPheno/BATCH2_2021_DATA/png2/With/27.png" width="288px" height="144px" preserveAspectRatio="xMinYMin meet" x="927.946" y="-144"/>
</g>
<!-- 13&#45;&gt;27 -->
<!-- 28 -->
<g id="node28" class="node">
<title>28</title>
<image xlink:href="/usr/local/micapollo01/MIC/DATA/STUDENTS/vlemon0/code/matlab/../results/visualizeCCAOnPheno/BATCH2_2021_DATA/png2/With/28.png" width="288px" height="144px" preserveAspectRatio="xMinYMin meet" x="1331.78" y="-144"/>
</g>
<!-- 14&#45;&gt;28 -->
<!-- 29 -->
<g id="node29" class="node">
<title>29</title>
<image xlink:href="/usr/local/micapollo01/MIC/DATA/STUDENTS/vlemon0/code/matlab/../results/visualizeCCAOnPheno/BATCH2_2021_DATA/png2/With/29.png" width="288px" height="144px" preserveAspectRatio="xMinYMin meet" x="1704.88" y="-230.006"/>
</g>
<!-- 14&#45;&gt;29 -->
<!-- 30 -->
<g id="node30" class="node">
<title>30</title>
<image xlink:href="/usr/local/micapollo01/MIC/DATA/STUDENTS/vlemon0/code/matlab/../results/visualizeCCAOnPheno/BATCH2_2021_DATA/png2/With/30.png" width="288px" height="144px" preserveAspectRatio="xMinYMin meet" x="1990.44" y="-388.924"/>
</g>
<!-- 15&#45;&gt;30 -->
<!-- 31 -->
<g id="node31" class="node">
<title>31</title>
<image xlink:href="/usr/local/micapollo01/MIC/DATA/STUDENTS/vlemon0/code/matlab/../results/visualizeCCAOnPheno/BATCH2_2021_DATA/png2/With/31.png" width="288px" height="144px" preserveAspectRatio="xMinYMin meet" x="2144.98" y="-596.56"/>
</g>
<!-- 15&#45;&gt;31 -->
</g>
</svg>
