<?xml version="1.0" encoding="UTF-8" standalone="no"?>
<!DOCTYPE svg PUBLIC "-//W3C//DTD SVG 1.1//EN"
 "http://www.w3.org/Graphics/SVG/1.1/DTD/svg11.dtd">
<!-- Generated by graphviz version 2.40.1 (20161225.0304)
 -->
<!-- Title: %3 Pages: 1 -->
<svg width="188pt" height="261pt"
 viewBox="0.00 0.00 188.00 261.00" xmlns="http://www.w3.org/2000/svg" xmlns:xlink="http://www.w3.org/1999/xlink">
<g id="graph0" class="graph" transform="scale(1 1) rotate(0) translate(4 257)">
<title>%3</title>
<polygon fill="#ffffff" stroke="transparent" points="-4,4 -4,-257 184,-257 184,4 -4,4"/>
<g id="clust1" class="cluster">
<title>cluster_01</title>
<polygon fill="none" stroke="#000000" points="8,-8 8,-245 172,-245 172,-8 8,-8"/>
<text text-anchor="middle" x="90" y="-229.8" font-family="Times,serif" font-size="14.00" fill="#000000">Legend</text>
</g>
<!-- key1 -->
<g id="node1" class="node">
<title>key1</title>
<text text-anchor="start" x="33" y="-196.8" font-family="Times,serif" font-size="14.00" fill="#000000">Chr.1</text>
<text text-anchor="start" x="33" y="-177.8" font-family="Times,serif" font-size="14.00" fill="#000000">Chr.2</text>
<text text-anchor="start" x="33" y="-158.8" font-family="Times,serif" font-size="14.00" fill="#000000">Chr.3</text>
<text text-anchor="start" x="33" y="-139.8" font-family="Times,serif" font-size="14.00" fill="#000000">Chr.9</text>
<text text-anchor="start" x="26" y="-120.8" font-family="Times,serif" font-size="14.00" fill="#000000">Chr.10</text>
<text text-anchor="start" x="26" y="-101.8" font-family="Times,serif" font-size="14.00" fill="#000000">Chr.12</text>
<text text-anchor="start" x="26" y="-82.8" font-family="Times,serif" font-size="14.00" fill="#000000">Chr.14</text>
<text text-anchor="start" x="26" y="-63.8" font-family="Times,serif" font-size="14.00" fill="#000000">Chr.15</text>
<text text-anchor="start" x="26" y="-44.8" font-family="Times,serif" font-size="14.00" fill="#000000">Chr.16</text>
<text text-anchor="start" x="26" y="-25.8" font-family="Times,serif" font-size="14.00" fill="#000000">Chr.17</text>
</g>
<!-- key2 -->
<g id="node2" class="node">
<title>key2</title>
<text text-anchor="start" x="135" y="-196.8" font-family="Times,serif" font-size="14.00" fill="#000000"> </text>
<text text-anchor="start" x="135" y="-177.8" font-family="Times,serif" font-size="14.00" fill="#000000"> </text>
<text text-anchor="start" x="135" y="-158.8" font-family="Times,serif" font-size="14.00" fill="#000000"> </text>
<text text-anchor="start" x="135" y="-139.8" font-family="Times,serif" font-size="14.00" fill="#000000"> </text>
<text text-anchor="start" x="135" y="-120.8" font-family="Times,serif" font-size="14.00" fill="#000000"> </text>
<text text-anchor="start" x="135" y="-101.8" font-family="Times,serif" font-size="14.00" fill="#000000"> </text>
<text text-anchor="start" x="135" y="-82.8" font-family="Times,serif" font-size="14.00" fill="#000000"> </text>
<text text-anchor="start" x="135" y="-63.8" font-family="Times,serif" font-size="14.00" fill="#000000"> </text>
<text text-anchor="start" x="135" y="-44.8" font-family="Times,serif" font-size="14.00" fill="#000000"> </text>
<text text-anchor="start" x="135" y="-25.8" font-family="Times,serif" font-size="14.00" fill="#000000"> </text>
</g>
<!-- key1&#45;&gt;key2 -->
<g id="edge1" class="edge">
<title>key1:e&#45;&gt;key2:w</title>
<path fill="none" stroke="#9e0142" d="M66,-201C92.0556,-201 101.0122,-201 122.793,-201"/>
<polygon fill="#9e0142" stroke="#9e0142" points="123,-204.5001 133,-201 123,-197.5001 123,-204.5001"/>
</g>
<!-- key1&#45;&gt;key2 -->
<g id="edge2" class="edge">
<title>key1:e&#45;&gt;key2:w</title>
<path fill="none" stroke="#ba254b" d="M66,-182C92.0556,-182 101.0122,-182 122.793,-182"/>
<polygon fill="#ba254b" stroke="#ba254b" points="123,-185.5001 133,-182 123,-178.5001 123,-185.5001"/>
</g>
<!-- key1&#45;&gt;key2 -->
<g id="edge3" class="edge">
<title>key1:e&#45;&gt;key2:w</title>
<path fill="none" stroke="#d33c4f" d="M66,-163C92.0556,-163 101.0122,-163 122.793,-163"/>
<polygon fill="#d33c4f" stroke="#d33c4f" points="123,-166.5001 133,-163 123,-159.5001 123,-166.5001"/>
</g>
<!-- key1&#45;&gt;key2 -->
<g id="edge4" class="edge">
<title>key1:e&#45;&gt;key2:w</title>
<path fill="none" stroke="#fed883" d="M66,-144C92.0556,-144 101.0122,-144 122.793,-144"/>
<polygon fill="#fed883" stroke="#fed883" points="123,-147.5001 133,-144 123,-140.5001 123,-147.5001"/>
</g>
<!-- key1&#45;&gt;key2 -->
<g id="edge5" class="edge">
<title>key1:e&#45;&gt;key2:w</title>
<path fill="none" stroke="#ffea98" d="M66,-125C92.0556,-125 101.0122,-125 122.793,-125"/>
<polygon fill="#ffea98" stroke="#ffea98" points="123,-128.5001 133,-125 123,-121.5001 123,-128.5001"/>
</g>
<!-- key1&#45;&gt;key2 -->
<g id="edge6" class="edge">
<title>key1:e&#45;&gt;key2:w</title>
<path fill="none" stroke="#fcfeb1" d="M66,-105C92.0556,-105 101.0122,-105 122.793,-105"/>
<polygon fill="#fcfeb1" stroke="#fcfeb1" points="123,-108.5001 133,-105 123,-101.5001 123,-108.5001"/>
</g>
<!-- key1&#45;&gt;key2 -->
<g id="edge7" class="edge">
<title>key1:e&#45;&gt;key2:w</title>
<path fill="none" stroke="#def297" d="M66,-86C92.0556,-86 101.0122,-86 122.793,-86"/>
<polygon fill="#def297" stroke="#def297" points="123,-89.5001 133,-86 123,-82.5001 123,-89.5001"/>
</g>
<!-- key1&#45;&gt;key2 -->
<g id="edge8" class="edge">
<title>key1:e&#45;&gt;key2:w</title>
<path fill="none" stroke="#c1e69f" d="M66,-67C92.0556,-67 101.0122,-67 122.793,-67"/>
<polygon fill="#c1e69f" stroke="#c1e69f" points="123,-70.5001 133,-67 123,-63.5001 123,-70.5001"/>
</g>
<!-- key1&#45;&gt;key2 -->
<g id="edge9" class="edge">
<title>key1:e&#45;&gt;key2:w</title>
<path fill="none" stroke="#a2d9a5" d="M66,-48C92.0556,-48 101.0122,-48 122.793,-48"/>
<polygon fill="#a2d9a5" stroke="#a2d9a5" points="123,-51.5001 133,-48 123,-44.5001 123,-51.5001"/>
</g>
<!-- key1&#45;&gt;key2 -->
<g id="edge10" class="edge">
<title>key1:e&#45;&gt;key2:w</title>
<path fill="none" stroke="#82cea4" d="M66,-29C92.0556,-29 101.0122,-29 122.793,-29"/>
<polygon fill="#82cea4" stroke="#82cea4" points="123,-32.5001 133,-29 123,-25.5001 123,-32.5001"/>
</g>
</g>
</svg>
