<?xml version="1.0" encoding="UTF-8" standalone="no"?>
<!DOCTYPE svg PUBLIC "-//W3C//DTD SVG 1.1//EN"
 "http://www.w3.org/Graphics/SVG/1.1/DTD/svg11.dtd">
<!-- Generated by graphviz version 2.40.1 (20161225.0304)
 -->
<!-- Title: G Pages: 1 -->
<svg width="2556pt" height="1282pt"
 viewBox="0.00 0.00 2555.73 1281.86" xmlns="http://www.w3.org/2000/svg" xmlns:xlink="http://www.w3.org/1999/xlink">
<g id="graph0" class="graph" transform="scale(1 1) rotate(0) translate(4 1277.8646)">
<title>G</title>
<polygon fill="#ffffff" stroke="transparent" points="-4,4 -4,-1277.8646 2551.7293,-1277.8646 2551.7293,4 -4,4"/>
<!-- 1 -->
<g id="node1" class="node">
<title>1</title>
<image xlink:href="/usr/local/micapollo01/MIC/DATA/STUDENTS/vlemon0/code/matlab/../results/visualizeCCAOnPheno/STAGE00DATA/png2/With/1.png" width="288px" height="144px" preserveAspectRatio="xMinYMin meet" x="1129.86" y="-708.932"/>
</g>
<!-- 2 -->
<g id="node2" class="node">
<title>2</title>
<image xlink:href="/usr/local/micapollo01/MIC/DATA/STUDENTS/vlemon0/code/matlab/../results/visualizeCCAOnPheno/STAGE00DATA/png2/With/2.png" width="288px" height="144px" preserveAspectRatio="xMinYMin meet" x="1129.86" y="-852.932"/>
</g>
<!-- 1&#45;&gt;2 -->
<!-- 1&#45;&gt;2 -->
<g id="edge34" class="edge">
<title>1&#45;&gt;2</title>
<path fill="none" stroke="#ba254b" d="M1307.6141,-709.3542C1307.614,-709.4242 1307.6137,-709.4943 1307.6135,-709.5643"/>
<polygon fill="#ba254b" stroke="#ba254b" points="1304.16,-699.7579 1307.6126,-709.7744 1311.16,-699.7911 1304.16,-699.7579"/>
<text text-anchor="middle" x="1297.1138" y="-714.4592" font-family="Times,serif" font-size="15.00" fill="#ba254b">&#45;90</text>
</g>
<!-- 1&#45;&gt;2 -->
<g id="edge43" class="edge">
<title>1&#45;&gt;2</title>
<path fill="none" stroke="#ffea98" d="M1294.1143,-709.3542C1294.1142,-709.4242 1294.1141,-709.4943 1294.1139,-709.5643"/>
<polygon fill="#ffea98" stroke="#ffea98" points="1290.6438,-699.7638 1294.1134,-709.7744 1297.6437,-699.7851 1290.6438,-699.7638"/>
<text text-anchor="middle" x="1290.1141" y="-697.4592" font-family="Times,serif" font-size="15.00" fill="#ffea98">0</text>
</g>
<!-- 1&#45;&gt;2 -->
<g id="edge53" class="edge">
<title>1&#45;&gt;2</title>
<path fill="none" stroke="#def297" d="M1280.6145,-709.3542C1280.6145,-709.4242 1280.6145,-709.4943 1280.6144,-709.5643"/>
<polygon fill="#def297" stroke="#def297" points="1277.1275,-699.7698 1280.6142,-709.7744 1284.1275,-699.7791 1277.1275,-699.7698"/>
<text text-anchor="middle" x="1270.1145" y="-714.4592" font-family="Times,serif" font-size="15.00" fill="#def297">&#45;15</text>
</g>
<!-- 1&#45;&gt;2 -->
<g id="edge62" class="edge">
<title>1&#45;&gt;2</title>
<path fill="none" stroke="#c1e69f" d="M1267.1147,-709.3542C1267.1148,-709.4242 1267.1148,-709.4943 1267.1149,-709.5643"/>
<polygon fill="#c1e69f" stroke="#c1e69f" points="1263.6018,-699.7791 1267.1151,-709.7744 1270.6018,-699.7698 1263.6018,-699.7791"/>
<text text-anchor="middle" x="1260.6148" y="-697.4592" font-family="Times,serif" font-size="15.00" fill="#c1e69f">&#45;6</text>
</g>
<!-- 1&#45;&gt;2 -->
<g id="edge81" class="edge">
<title>1&#45;&gt;2</title>
<path fill="none" stroke="#82cea4" d="M1253.615,-709.3542C1253.6151,-709.4242 1253.6152,-709.4943 1253.6153,-709.5643"/>
<polygon fill="#82cea4" stroke="#82cea4" points="1250.0855,-699.7851 1253.6159,-709.7744 1257.0855,-699.7638 1250.0855,-699.7851"/>
<text text-anchor="middle" x="1235.6151" y="-714.4592" font-family="Times,serif" font-size="15.00" fill="#82cea4">&#45;2390</text>
</g>
<!-- 3 -->
<g id="node3" class="node">
<title>3</title>
<image xlink:href="/usr/local/micapollo01/MIC/DATA/STUDENTS/vlemon0/code/matlab/../results/visualizeCCAOnPheno/STAGE00DATA/png2/With/3.png" width="288px" height="144px" preserveAspectRatio="xMinYMin meet" x="1129.86" y="-564.932"/>
</g>
<!-- 1&#45;&gt;3 -->
<!-- 1&#45;&gt;3 -->
<g id="edge31" class="edge">
<title>1&#45;&gt;3</title>
<path fill="none" stroke="#9e0142" d="M1226.6154,-564.5104C1226.6156,-564.4404 1226.6159,-564.3704 1226.6163,-564.3003"/>
<polygon fill="#9e0142" stroke="#9e0142" points="1230.053,-574.1126 1226.6175,-564.0902 1223.0531,-574.0675 1230.053,-574.1126"/>
<text text-anchor="middle" x="1222.6158" y="-569.4054" font-family="Times,serif" font-size="15.00" fill="#9e0142">0</text>
</g>
<!-- 1&#45;&gt;3 -->
<g id="edge35" class="edge">
<title>1&#45;&gt;3</title>
<path fill="none" stroke="#ba254b" d="M1240.1152,-564.5104C1240.1153,-564.4404 1240.1155,-564.3704 1240.1158,-564.3003"/>
<polygon fill="#ba254b" stroke="#ba254b" points="1243.5693,-574.1067 1240.1167,-564.0902 1236.5693,-574.0736 1243.5693,-574.1067"/>
<text text-anchor="middle" x="1229.6155" y="-552.4054" font-family="Times,serif" font-size="15.00" fill="#ba254b">&#45;26</text>
</g>
<!-- 1&#45;&gt;3 -->
<g id="edge44" class="edge">
<title>1&#45;&gt;3</title>
<path fill="none" stroke="#ffea98" d="M1253.615,-564.5104C1253.6151,-564.4404 1253.6152,-564.3704 1253.6153,-564.3003"/>
<polygon fill="#ffea98" stroke="#ffea98" points="1257.0855,-574.1008 1253.6159,-564.0902 1250.0855,-574.0796 1257.0855,-574.1008"/>
<text text-anchor="middle" x="1245.6151" y="-569.4054" font-family="Times,serif" font-size="15.00" fill="#ffea98">33</text>
</g>
<!-- 1&#45;&gt;3 -->
<g id="edge54" class="edge">
<title>1&#45;&gt;3</title>
<path fill="none" stroke="#def297" d="M1267.1147,-564.5104C1267.1148,-564.4404 1267.1148,-564.3704 1267.1149,-564.3003"/>
<polygon fill="#def297" stroke="#def297" points="1270.6018,-574.0949 1267.1151,-564.0902 1263.6018,-574.0856 1270.6018,-574.0949"/>
<text text-anchor="middle" x="1263.1148" y="-569.4054" font-family="Times,serif" font-size="15.00" fill="#def297">9</text>
</g>
<!-- 1&#45;&gt;3 -->
<g id="edge63" class="edge">
<title>1&#45;&gt;3</title>
<path fill="none" stroke="#c1e69f" d="M1280.6145,-564.5104C1280.6145,-564.4404 1280.6145,-564.3704 1280.6144,-564.3003"/>
<polygon fill="#c1e69f" stroke="#c1e69f" points="1284.1275,-574.0856 1280.6142,-564.0902 1277.1275,-574.0949 1284.1275,-574.0856"/>
<text text-anchor="middle" x="1270.1145" y="-552.4054" font-family="Times,serif" font-size="15.00" fill="#c1e69f">&#45;21</text>
</g>
<!-- 1&#45;&gt;3 -->
<g id="edge74" class="edge">
<title>1&#45;&gt;3</title>
<path fill="none" stroke="#a2d9a5" d="M1294.1143,-564.5104C1294.1142,-564.4404 1294.1141,-564.3704 1294.1139,-564.3003"/>
<polygon fill="#a2d9a5" stroke="#a2d9a5" points="1297.6437,-574.0796 1294.1134,-564.0902 1290.6438,-574.1008 1297.6437,-574.0796"/>
<text text-anchor="middle" x="1283.6141" y="-569.4054" font-family="Times,serif" font-size="15.00" fill="#a2d9a5">&#45;21</text>
</g>
<!-- 1&#45;&gt;3 -->
<g id="edge82" class="edge">
<title>1&#45;&gt;3</title>
<path fill="none" stroke="#82cea4" d="M1307.6141,-564.5104C1307.614,-564.4404 1307.6137,-564.3704 1307.6135,-564.3003"/>
<polygon fill="#82cea4" stroke="#82cea4" points="1311.16,-574.0736 1307.6126,-564.0902 1304.16,-574.1067 1311.16,-574.0736"/>
<text text-anchor="middle" x="1325.6138" y="-569.4054" font-family="Times,serif" font-size="15.00" fill="#82cea4">&#45;2351</text>
</g>
<!-- 4 -->
<g id="node4" class="node">
<title>4</title>
<image xlink:href="/usr/local/micapollo01/MIC/DATA/STUDENTS/vlemon0/code/matlab/../results/visualizeCCAOnPheno/STAGE00DATA/png2/With/4.png" width="288px" height="144px" preserveAspectRatio="xMinYMin meet" x="1495.79" y="-912.579"/>
</g>
<!-- 2&#45;&gt;4 -->
<!-- 2&#45;&gt;4 -->
<g id="edge36" class="edge">
<title>2&#45;&gt;4</title>
<path fill="none" stroke="#ba254b" d="M1418.0152,-771.1322C1440.264,-773.8418 1463.3145,-777.3839 1485.769,-781.5306"/>
<polygon fill="#ba254b" stroke="#ba254b" points="1485.2173,-784.9883 1495.694,-783.4105 1486.5201,-778.1106 1485.2173,-784.9883"/>
<text text-anchor="middle" x="1447.8921" y="-781.3314" font-family="Times,serif" font-size="15.00" fill="#ba254b">6</text>
</g>
<!-- 2&#45;&gt;4 -->
<g id="edge45" class="edge">
<title>2&#45;&gt;4</title>
<path fill="none" stroke="#ffea98" d="M1417.9989,-784.3976C1440.2679,-787.5032 1463.341,-791.1619 1485.8157,-795.1452"/>
<polygon fill="#ffea98" stroke="#ffea98" points="1485.2874,-798.6062 1495.7494,-796.9341 1486.5281,-791.717 1485.2874,-798.6062"/>
<text text-anchor="middle" x="1455.9073" y="-794.7714" font-family="Times,serif" font-size="15.00" fill="#ffea98">0</text>
</g>
<!-- 2&#45;&gt;4 -->
<g id="edge55" class="edge">
<title>2&#45;&gt;4</title>
<path fill="none" stroke="#def297" d="M1417.9769,-797.7305C1440.1791,-801.184 1463.1815,-804.9079 1485.5933,-808.6754"/>
<polygon fill="#def297" stroke="#def297" points="1485.0561,-812.1341 1495.4996,-810.3501 1486.223,-805.2321 1485.0561,-812.1341"/>
<text text-anchor="middle" x="1447.7851" y="-808.2029" font-family="Times,serif" font-size="15.00" fill="#def297">9</text>
</g>
<!-- 2&#45;&gt;4 -->
<g id="edge64" class="edge">
<title>2&#45;&gt;4</title>
<path fill="none" stroke="#c1e69f" d="M1417.9497,-811.1259C1440.1736,-814.9052 1463.1999,-818.6751 1485.6335,-822.2083"/>
<polygon fill="#c1e69f" stroke="#c1e69f" points="1485.1284,-825.6718 1495.5494,-823.7605 1486.211,-818.756 1485.1284,-825.6718"/>
<text text-anchor="middle" x="1462.2916" y="-821.6671" font-family="Times,serif" font-size="15.00" fill="#c1e69f">&#45;17</text>
</g>
<!-- 2&#45;&gt;4 -->
<g id="edge83" class="edge">
<title>2&#45;&gt;4</title>
<path fill="none" stroke="#82cea4" d="M1417.9179,-824.5791C1440.164,-828.6495 1463.2144,-832.4297 1485.6704,-835.6917"/>
<polygon fill="#82cea4" stroke="#82cea4" points="1485.2026,-839.1603 1495.5961,-837.1051 1486.1894,-832.2302 1485.2026,-839.1603"/>
<text text-anchor="middle" x="1441.2942" y="-835.1354" font-family="Times,serif" font-size="15.00" fill="#82cea4">&#45;39</text>
</g>
<!-- 5 -->
<g id="node5" class="node">
<title>5</title>
<image xlink:href="/usr/local/micapollo01/MIC/DATA/STUDENTS/vlemon0/code/matlab/../results/visualizeCCAOnPheno/STAGE00DATA/png2/With/5.png" width="288px" height="144px" preserveAspectRatio="xMinYMin meet" x="763.936" y="-912.579"/>
</g>
<!-- 2&#45;&gt;5 -->
<!-- 2&#45;&gt;5 -->
<g id="edge65" class="edge">
<title>2&#45;&gt;5</title>
<path fill="none" stroke="#c1e69f" d="M1129.7796,-811.1259C1107.5556,-814.9052 1084.5294,-818.6751 1062.0958,-822.2083"/>
<polygon fill="#c1e69f" stroke="#c1e69f" points="1061.5182,-818.756 1052.1799,-823.7605 1062.6009,-825.6718 1061.5182,-818.756"/>
<text text-anchor="middle" x="1091.9377" y="-821.6671" font-family="Times,serif" font-size="15.00" fill="#c1e69f">2</text>
</g>
<!-- 6 -->
<g id="node6" class="node">
<title>6</title>
<image xlink:href="/usr/local/micapollo01/MIC/DATA/STUDENTS/vlemon0/code/matlab/../results/visualizeCCAOnPheno/STAGE00DATA/png2/With/6.png" width="288px" height="144px" preserveAspectRatio="xMinYMin meet" x="763.936" y="-505.286"/>
</g>
<!-- 3&#45;&gt;6 -->
<!-- 3&#45;&gt;6 -->
<g id="edge32" class="edge">
<title>3&#45;&gt;6</title>
<path fill="none" stroke="#9e0142" d="M1129.7141,-502.7324C1107.4653,-500.0228 1084.4148,-496.4807 1061.9602,-492.334"/>
<polygon fill="#9e0142" stroke="#9e0142" points="1062.512,-488.8764 1052.0353,-490.4541 1061.2092,-495.7541 1062.512,-488.8764"/>
<text text-anchor="middle" x="1091.8372" y="-502.5332" font-family="Times,serif" font-size="15.00" fill="#9e0142">0</text>
</g>
<!-- 3&#45;&gt;6 -->
<g id="edge37" class="edge">
<title>3&#45;&gt;6</title>
<path fill="none" stroke="#ba254b" d="M1129.7304,-489.4671C1107.4614,-486.3615 1084.3882,-482.7028 1061.9136,-478.7195"/>
<polygon fill="#ba254b" stroke="#ba254b" points="1062.4419,-475.2584 1051.9799,-476.9306 1061.2012,-482.1476 1062.4419,-475.2584"/>
<text text-anchor="middle" x="1085.322" y="-472.0933" font-family="Times,serif" font-size="15.00" fill="#ba254b">&#45;67</text>
</g>
<!-- 3&#45;&gt;6 -->
<g id="edge56" class="edge">
<title>3&#45;&gt;6</title>
<path fill="none" stroke="#def297" d="M1129.7524,-476.1342C1107.5502,-472.6806 1084.5478,-468.9568 1062.136,-465.1893"/>
<polygon fill="#def297" stroke="#def297" points="1062.6732,-461.7305 1052.2297,-463.5146 1061.5063,-468.6326 1062.6732,-461.7305"/>
<text text-anchor="middle" x="1099.9442" y="-475.6617" font-family="Times,serif" font-size="15.00" fill="#def297">6</text>
</g>
<!-- 3&#45;&gt;6 -->
<g id="edge75" class="edge">
<title>3&#45;&gt;6</title>
<path fill="none" stroke="#a2d9a5" d="M1129.7796,-462.7387C1107.5556,-458.9594 1084.5294,-455.1895 1062.0958,-451.6564"/>
<polygon fill="#a2d9a5" stroke="#a2d9a5" points="1062.6009,-448.1929 1052.1799,-450.1041 1061.5182,-455.1087 1062.6009,-448.1929"/>
<text text-anchor="middle" x="1103.9377" y="-445.1975" font-family="Times,serif" font-size="15.00" fill="#a2d9a5">33</text>
</g>
<!-- 3&#45;&gt;6 -->
<g id="edge84" class="edge">
<title>3&#45;&gt;6</title>
<path fill="none" stroke="#82cea4" d="M1129.8113,-449.2856C1107.5653,-445.2152 1084.5149,-441.435 1062.0589,-438.1729"/>
<polygon fill="#82cea4" stroke="#82cea4" points="1062.5267,-434.7043 1052.1331,-436.7596 1061.5398,-441.6344 1062.5267,-434.7043"/>
<text text-anchor="middle" x="1089.4351" y="-448.7292" font-family="Times,serif" font-size="15.00" fill="#82cea4">&#45;1</text>
</g>
<!-- 7 -->
<g id="node7" class="node">
<title>7</title>
<image xlink:href="/usr/local/micapollo01/MIC/DATA/STUDENTS/vlemon0/code/matlab/../results/visualizeCCAOnPheno/STAGE00DATA/png2/With/7.png" width="288px" height="144px" preserveAspectRatio="xMinYMin meet" x="1495.79" y="-505.286"/>
</g>
<!-- 3&#45;&gt;7 -->
<!-- 3&#45;&gt;7 -->
<g id="edge66" class="edge">
<title>3&#45;&gt;7</title>
<path fill="none" stroke="#c1e69f" d="M1417.9497,-462.7387C1440.1736,-458.9594 1463.1999,-455.1895 1485.6335,-451.6564"/>
<polygon fill="#c1e69f" stroke="#c1e69f" points="1486.211,-455.1087 1495.5494,-450.1041 1485.1284,-448.1929 1486.211,-455.1087"/>
<text text-anchor="middle" x="1447.7916" y="-462.1975" font-family="Times,serif" font-size="15.00" fill="#c1e69f">8</text>
</g>
<!-- 8 -->
<g id="node8" class="node">
<title>8</title>
<image xlink:href="/usr/local/micapollo01/MIC/DATA/STUDENTS/vlemon0/code/matlab/../results/visualizeCCAOnPheno/STAGE00DATA/png2/With/8.png" width="288px" height="144px" preserveAspectRatio="xMinYMin meet" x="1847.03" y="-874.252"/>
</g>
<!-- 4&#45;&gt;8 -->
<!-- 4&#45;&gt;8 -->
<g id="edge46" class="edge">
<title>4&#45;&gt;8</title>
<path fill="none" stroke="#ffea98" d="M1784.0351,-804.7213C1801.3896,-802.5244 1819.1665,-800.5544 1836.658,-798.8884"/>
<polygon fill="#ffea98" stroke="#ffea98" points="1837.2817,-802.3459 1846.9185,-797.9433 1836.6396,-795.3754 1837.2817,-802.3459"/>
<text text-anchor="middle" x="1806.3465" y="-789.8049" font-family="Times,serif" font-size="15.00" fill="#ffea98">0</text>
</g>
<!-- 4&#45;&gt;8 -->
<g id="edge57" class="edge">
<title>4&#45;&gt;8</title>
<path fill="none" stroke="#def297" d="M1783.959,-818.1505C1801.3237,-816.1492 1819.1125,-814.1927 1836.616,-812.3585"/>
<polygon fill="#def297" stroke="#def297" points="1837.2982,-815.8066 1846.8836,-811.2932 1836.5758,-808.844 1837.2982,-815.8066"/>
<text text-anchor="middle" x="1816.7875" y="-820.2545" font-family="Times,serif" font-size="15.00" fill="#def297">&#45;5</text>
</g>
<!-- 4&#45;&gt;8 -->
<g id="edge67" class="edge">
<title>4&#45;&gt;8</title>
<path fill="none" stroke="#c1e69f" d="M1783.8811,-831.5431C1801.2562,-829.7589 1819.0571,-827.837 1836.573,-825.855"/>
<polygon fill="#c1e69f" stroke="#c1e69f" points="1837.3095,-829.2937 1846.8478,-824.6817 1836.5152,-822.3389 1837.3095,-829.2937"/>
<text text-anchor="middle" x="1803.727" y="-833.6991" font-family="Times,serif" font-size="15.00" fill="#c1e69f">&#45;6</text>
</g>
<!-- 9 -->
<g id="node9" class="node">
<title>9</title>
<image xlink:href="/usr/local/micapollo01/MIC/DATA/STUDENTS/vlemon0/code/matlab/../results/visualizeCCAOnPheno/STAGE00DATA/png2/With/9.png" width="288px" height="144px" preserveAspectRatio="xMinYMin meet" x="1426.92" y="-1108.05"/>
</g>
<!-- 4&#45;&gt;9 -->
<!-- 4&#45;&gt;9 -->
<g id="edge47" class="edge">
<title>4&#45;&gt;9</title>
<path fill="none" stroke="#ffea98" d="M1621.257,-912.7567C1616.7536,-926.2784 1611.8087,-940.5016 1606.8228,-954.289"/>
<polygon fill="#ffea98" stroke="#ffea98" points="1603.5103,-953.1567 1603.3694,-963.7506 1610.086,-955.5568 1603.5103,-953.1567"/>
<text text-anchor="middle" x="1610.0399" y="-938.5229" font-family="Times,serif" font-size="15.00" fill="#ffea98">0</text>
</g>
<!-- 10 -->
<g id="node10" class="node">
<title>10</title>
<image xlink:href="/usr/local/micapollo01/MIC/DATA/STUDENTS/vlemon0/code/matlab/../results/visualizeCCAOnPheno/STAGE00DATA/png2/With/10.png" width="288px" height="144px" preserveAspectRatio="xMinYMin meet" x="832.806" y="-1108.05"/>
</g>
<!-- 5&#45;&gt;10 -->
<!-- 5&#45;&gt;10 -->
<g id="edge68" class="edge">
<title>5&#45;&gt;10</title>
<path fill="none" stroke="#c1e69f" d="M940.3726,-912.8497C945.306,-926.2387 950.29,-940.3126 954.9362,-953.9681"/>
<polygon fill="#c1e69f" stroke="#c1e69f" points="951.7459,-955.4615 958.254,-963.8218 958.3799,-953.2277 951.7459,-955.4615"/>
<text text-anchor="middle" x="939.6544" y="-938.4089" font-family="Times,serif" font-size="15.00" fill="#c1e69f">15</text>
</g>
<!-- 11 -->
<g id="node11" class="node">
<title>11</title>
<image xlink:href="/usr/local/micapollo01/MIC/DATA/STUDENTS/vlemon0/code/matlab/../results/visualizeCCAOnPheno/STAGE00DATA/png2/With/11.png" width="288px" height="144px" preserveAspectRatio="xMinYMin meet" x="412.702" y="-874.252"/>
</g>
<!-- 5&#45;&gt;11 -->
<!-- 12 -->
<g id="node12" class="node">
<title>12</title>
<image xlink:href="/usr/local/micapollo01/MIC/DATA/STUDENTS/vlemon0/code/matlab/../results/visualizeCCAOnPheno/STAGE00DATA/png2/With/12.png" width="288px" height="144px" preserveAspectRatio="xMinYMin meet" x="412.702" y="-543.613"/>
</g>
<!-- 6&#45;&gt;12 -->
<!-- 6&#45;&gt;12 -->
<g id="edge38" class="edge">
<title>6&#45;&gt;12</title>
<path fill="none" stroke="#ba254b" d="M763.9104,-475.8374C746.5106,-478.1343 728.6831,-480.1119 711.1415,-481.6923"/>
<polygon fill="#ba254b" stroke="#ba254b" points="710.5154,-478.2331 700.8517,-482.5764 711.1146,-485.2074 710.5154,-478.2331"/>
<text text-anchor="middle" x="733.5259" y="-483.7648" font-family="Times,serif" font-size="15.00" fill="#ba254b">6</text>
</g>
<!-- 6&#45;&gt;12 -->
<g id="edge58" class="edge">
<title>6&#45;&gt;12</title>
<path fill="none" stroke="#def297" d="M763.732,-462.4243C746.4118,-464.5214 728.6703,-466.4831 711.2112,-468.2327"/>
<polygon fill="#def297" stroke="#def297" points="710.5798,-464.7778 700.9694,-469.2378 711.2635,-471.7443 710.5798,-464.7778"/>
<text text-anchor="middle" x="743.9716" y="-453.3285" font-family="Times,serif" font-size="15.00" fill="#def297">&#45;5</text>
</g>
<!-- 6&#45;&gt;12 -->
<g id="edge76" class="edge">
<title>6&#45;&gt;12</title>
<path fill="none" stroke="#a2d9a5" d="M763.809,-449.0131C746.3995,-450.9128 728.5633,-452.8592 711.015,-454.7741"/>
<polygon fill="#a2d9a5" stroke="#a2d9a5" points="710.2828,-451.3331 700.7215,-455.8973 711.0422,-458.2918 710.2828,-451.3331"/>
<text text-anchor="middle" x="726.912" y="-456.8936" font-family="Times,serif" font-size="15.00" fill="#a2d9a5">&#45;30</text>
</g>
<!-- 6&#45;&gt;12 -->
<g id="edge85" class="edge">
<title>6&#45;&gt;12</title>
<path fill="none" stroke="#82cea4" d="M763.8879,-435.6399C746.4677,-437.3112 728.619,-439.2127 711.058,-441.2663"/>
<polygon fill="#82cea4" stroke="#82cea4" points="710.2733,-437.8349 700.7571,-442.4924 711.1007,-444.7859 710.2733,-437.8349"/>
<text text-anchor="middle" x="726.973" y="-426.4531" font-family="Times,serif" font-size="15.00" fill="#82cea4">&#45;15</text>
</g>
<!-- 13 -->
<g id="node13" class="node">
<title>13</title>
<image xlink:href="/usr/local/micapollo01/MIC/DATA/STUDENTS/vlemon0/code/matlab/../results/visualizeCCAOnPheno/STAGE00DATA/png2/With/13.png" width="288px" height="144px" preserveAspectRatio="xMinYMin meet" x="832.806" y="-309.816"/>
</g>
<!-- 6&#45;&gt;13 -->
<!-- 6&#45;&gt;13 -->
<g id="edge33" class="edge">
<title>6&#45;&gt;13</title>
<path fill="none" stroke="#9e0142" d="M899.8214,-361.2027C902.8833,-347.6655 907.1519,-333.4361 912.2323,-319.6354"/>
<polygon fill="#9e0142" stroke="#9e0142" points="915.5522,-320.7532 915.8743,-310.1633 909.0185,-318.241 915.5522,-320.7532"/>
<text text-anchor="middle" x="902.0268" y="-345.4191" font-family="Times,serif" font-size="15.00" fill="#9e0142">0</text>
</g>
<!-- 6&#45;&gt;13 -->
<g id="edge40" class="edge">
<title>6&#45;&gt;13</title>
<path fill="none" stroke="#e55149" d="M912.9082,-361.2577C916.7931,-347.634 921.5191,-333.298 926.6785,-319.4069"/>
<polygon fill="#e55149" stroke="#e55149" points="930.0205,-320.466 930.3146,-309.8753 923.4802,-317.971 930.0205,-320.466"/>
<text text-anchor="middle" x="915.7934" y="-345.3323" font-family="Times,serif" font-size="15.00" fill="#e55149">1</text>
</g>
<!-- 6&#45;&gt;13 -->
<g id="edge48" class="edge">
<title>6&#45;&gt;13</title>
<path fill="none" stroke="#ffea98" d="M926.4723,-361.1079C930.9757,-347.5862 935.9206,-333.3631 940.9065,-319.5756"/>
<polygon fill="#ffea98" stroke="#ffea98" points="944.219,-320.708 944.3599,-310.1141 937.6433,-318.3079 944.219,-320.708"/>
<text text-anchor="middle" x="929.6894" y="-345.3418" font-family="Times,serif" font-size="15.00" fill="#ffea98">4</text>
</g>
<!-- 6&#45;&gt;13 -->
<g id="edge77" class="edge">
<title>6&#45;&gt;13</title>
<path fill="none" stroke="#a2d9a5" d="M940.3726,-361.015C945.306,-347.626 950.29,-333.5521 954.9362,-319.8965"/>
<polygon fill="#a2d9a5" stroke="#a2d9a5" points="958.3799,-320.6369 958.254,-310.0428 951.7459,-318.4031 958.3799,-320.6369"/>
<text text-anchor="middle" x="958.1544" y="-328.4557" font-family="Times,serif" font-size="15.00" fill="#a2d9a5">&#45;19</text>
</g>
<!-- 6&#45;&gt;13 -->
<g id="edge86" class="edge">
<title>6&#45;&gt;13</title>
<path fill="none" stroke="#82cea4" d="M954.4228,-361.2397C959.7089,-347.7481 964.6624,-333.5581 968.8874,-319.7933"/>
<polygon fill="#82cea4" stroke="#82cea4" points="972.3449,-320.4438 971.8293,-309.8616 965.6332,-318.4556 972.3449,-320.4438"/>
<text text-anchor="middle" x="951.1551" y="-345.5165" font-family="Times,serif" font-size="15.00" fill="#82cea4">&#45;15</text>
</g>
<!-- 14 -->
<g id="node14" class="node">
<title>14</title>
<image xlink:href="/usr/local/micapollo01/MIC/DATA/STUDENTS/vlemon0/code/matlab/../results/visualizeCCAOnPheno/STAGE00DATA/png2/With/14.png" width="288px" height="144px" preserveAspectRatio="xMinYMin meet" x="1426.92" y="-309.816"/>
</g>
<!-- 7&#45;&gt;14 -->
<!-- 7&#45;&gt;14 -->
<g id="edge69" class="edge">
<title>7&#45;&gt;14</title>
<path fill="none" stroke="#c1e69f" d="M1607.3566,-361.015C1602.4233,-347.626 1597.4392,-333.5521 1592.7931,-319.8965"/>
<polygon fill="#c1e69f" stroke="#c1e69f" points="1595.9834,-318.4031 1589.4753,-310.0428 1589.3494,-320.6369 1595.9834,-318.4031"/>
<text text-anchor="middle" x="1596.0749" y="-345.4557" font-family="Times,serif" font-size="15.00" fill="#c1e69f">2</text>
</g>
<!-- 15 -->
<g id="node15" class="node">
<title>15</title>
<image xlink:href="/usr/local/micapollo01/MIC/DATA/STUDENTS/vlemon0/code/matlab/../results/visualizeCCAOnPheno/STAGE00DATA/png2/With/15.png" width="288px" height="144px" preserveAspectRatio="xMinYMin meet" x="1847.03" y="-543.613"/>
</g>
<!-- 7&#45;&gt;15 -->
<!-- 16 -->
<g id="node16" class="node">
<title>16</title>
<image xlink:href="/usr/local/micapollo01/MIC/DATA/STUDENTS/vlemon0/code/matlab/../results/visualizeCCAOnPheno/STAGE00DATA/png2/With/16.png" width="288px" height="144px" preserveAspectRatio="xMinYMin meet" x="2144.98" y="-821.304"/>
</g>
<!-- 8&#45;&gt;16 -->
<!-- 8&#45;&gt;16 -->
<g id="edge49" class="edge">
<title>8&#45;&gt;16</title>
<path fill="none" stroke="#ffea98" d="M2135.4591,-762.8752C2135.5555,-762.858 2135.6518,-762.8408 2135.7482,-762.8235"/>
<polygon fill="#ffea98" stroke="#ffea98" points="2135.4733,-766.4261 2144.7138,-761.2431 2134.258,-759.5324 2135.4733,-766.4261"/>
<text text-anchor="middle" x="2139.6036" y="-767.8494" font-family="Times,serif" font-size="15.00" fill="#ffea98">0</text>
</g>
<!-- 8&#45;&gt;16 -->
<g id="edge70" class="edge">
<title>8&#45;&gt;16</title>
<path fill="none" stroke="#c1e69f" d="M2135.2028,-776.631C2135.3003,-776.6137 2135.3978,-776.5963 2135.4953,-776.579"/>
<polygon fill="#c1e69f" stroke="#c1e69f" points="2135.3305,-780.1632 2144.5639,-774.9675 2134.1057,-773.2712 2135.3305,-780.1632"/>
<text text-anchor="middle" x="2139.349" y="-781.605" font-family="Times,serif" font-size="15.00" fill="#c1e69f">8</text>
</g>
<!-- 17 -->
<g id="node17" class="node">
<title>17</title>
<image xlink:href="/usr/local/micapollo01/MIC/DATA/STUDENTS/vlemon0/code/matlab/../results/visualizeCCAOnPheno/STAGE00DATA/png2/With/17.png" width="288px" height="144px" preserveAspectRatio="xMinYMin meet" x="1990.44" y="-1028.94"/>
</g>
<!-- 8&#45;&gt;17 -->
<!-- 8&#45;&gt;17 -->
<g id="edge59" class="edge">
<title>8&#45;&gt;17</title>
<path fill="none" stroke="#def297" d="M2067.2619,-874.554C2068.0354,-875.3878 2068.8083,-876.2224 2069.58,-877.0574"/>
<polygon fill="#def297" stroke="#def297" points="2067.1436,-879.5787 2076.4877,-884.5726 2072.2973,-874.8416 2067.1436,-879.5787"/>
<text text-anchor="middle" x="2061.921" y="-880.8057" font-family="Times,serif" font-size="15.00" fill="#def297">&#45;2</text>
</g>
<!-- 18 -->
<g id="node18" class="node">
<title>18</title>
<image xlink:href="/usr/local/micapollo01/MIC/DATA/STUDENTS/vlemon0/code/matlab/../results/visualizeCCAOnPheno/STAGE00DATA/png2/With/18.png" width="288px" height="144px" preserveAspectRatio="xMinYMin meet" x="1704.88" y="-1187.86"/>
</g>
<!-- 9&#45;&gt;18 -->
<!-- 9&#45;&gt;18 -->
<g id="edge50" class="edge">
<title>9&#45;&gt;18</title>
<path fill="none" stroke="#ffea98" d="M1715.0214,-1070.4025C1715.0881,-1070.4217 1715.1549,-1070.441 1715.2216,-1070.4602"/>
<polygon fill="#ffea98" stroke="#ffea98" points="1704.8423,-1071.1076 1715.4219,-1070.518 1706.7838,-1064.3814 1704.8423,-1071.1076"/>
<text text-anchor="middle" x="1719.1215" y="-1075.4313" font-family="Times,serif" font-size="15.00" fill="#ffea98">0</text>
</g>
<!-- 19 -->
<g id="node19" class="node">
<title>19</title>
<image xlink:href="/usr/local/micapollo01/MIC/DATA/STUDENTS/vlemon0/code/matlab/../results/visualizeCCAOnPheno/STAGE00DATA/png2/With/19.png" width="288px" height="144px" preserveAspectRatio="xMinYMin meet" x="1331.78" y="-1273.86"/>
</g>
<!-- 9&#45;&gt;19 -->
<!-- 9&#45;&gt;19 -->
<g id="edge42" class="edge">
<title>9&#45;&gt;19</title>
<path fill="none" stroke="#fed883" d="M1552.2946,-1108.0573C1550.1177,-1112.3203 1547.8365,-1116.6215 1545.4769,-1120.9157"/>
<polygon fill="#fed883" stroke="#fed883" points="1542.3846,-1119.2741 1540.5315,-1129.7057 1548.4853,-1122.7065 1542.3846,-1119.2741"/>
<text text-anchor="middle" x="1544.8857" y="-1119.4865" font-family="Times,serif" font-size="15.00" fill="#fed883">7</text>
</g>
<!-- 9&#45;&gt;19 -->
<g id="edge51" class="edge">
<title>9&#45;&gt;19</title>
<path fill="none" stroke="#ffea98" d="M1537.1814,-1108.2449C1534.8021,-1112.4977 1532.3731,-1116.7886 1529.9208,-1121.072"/>
<polygon fill="#ffea98" stroke="#ffea98" points="1526.8285,-1119.4281 1524.8627,-1129.839 1532.8918,-1122.9263 1526.8285,-1119.4281"/>
<text text-anchor="middle" x="1529.5511" y="-1119.6585" font-family="Times,serif" font-size="15.00" fill="#ffea98">0</text>
</g>
<!-- 9&#45;&gt;19 -->
<g id="edge71" class="edge">
<title>9&#45;&gt;19</title>
<path fill="none" stroke="#c1e69f" d="M1521.6948,-1108.3302C1519.3205,-1112.4158 1516.9517,-1116.5363 1514.6115,-1120.6512"/>
<polygon fill="#c1e69f" stroke="#c1e69f" points="1511.4086,-1119.2056 1509.5435,-1129.635 1517.5054,-1122.645 1511.4086,-1119.2056"/>
<text text-anchor="middle" x="1514.1532" y="-1119.4907" font-family="Times,serif" font-size="15.00" fill="#c1e69f">9</text>
</g>
<!-- 20 -->
<g id="node20" class="node">
<title>20</title>
<image xlink:href="/usr/local/micapollo01/MIC/DATA/STUDENTS/vlemon0/code/matlab/../results/visualizeCCAOnPheno/STAGE00DATA/png2/With/20.png" width="288px" height="144px" preserveAspectRatio="xMinYMin meet" x="927.946" y="-1273.86"/>
</g>
<!-- 10&#45;&gt;20 -->
<!-- 10&#45;&gt;20 -->
<g id="edge72" class="edge">
<title>10&#45;&gt;20</title>
<path fill="none" stroke="#c1e69f" d="M1026.0345,-1108.3302C1028.4088,-1112.4158 1030.7776,-1116.5363 1033.1177,-1120.6512"/>
<polygon fill="#c1e69f" stroke="#c1e69f" points="1030.2239,-1122.645 1038.1858,-1129.635 1036.3207,-1119.2056 1030.2239,-1122.645"/>
<text text-anchor="middle" x="1019.0761" y="-1119.4907" font-family="Times,serif" font-size="15.00" fill="#c1e69f">&#45;27</text>
</g>
<!-- 21 -->
<g id="node21" class="node">
<title>21</title>
<image xlink:href="/usr/local/micapollo01/MIC/DATA/STUDENTS/vlemon0/code/matlab/../results/visualizeCCAOnPheno/STAGE00DATA/png2/With/21.png" width="288px" height="144px" preserveAspectRatio="xMinYMin meet" x="554.849" y="-1187.86"/>
</g>
<!-- 10&#45;&gt;21 -->
<!-- 10&#45;&gt;21 -->
<g id="edge73" class="edge">
<title>10&#45;&gt;21</title>
<path fill="none" stroke="#c1e69f" d="M832.769,-1084.421C832.7034,-1084.4397 832.6378,-1084.4583 832.5722,-1084.477"/>
<polygon fill="#c1e69f" stroke="#c1e69f" points="841.0334,-1078.4242 832.3755,-1084.533 842.9532,-1085.1566 841.0334,-1078.4242"/>
<text text-anchor="middle" x="828.6706" y="-1089.449" font-family="Times,serif" font-size="15.00" fill="#c1e69f">0</text>
</g>
<!-- 22 -->
<g id="node22" class="node">
<title>22</title>
<image xlink:href="/usr/local/micapollo01/MIC/DATA/STUDENTS/vlemon0/code/matlab/../results/visualizeCCAOnPheno/STAGE00DATA/png2/With/22.png" width="288px" height="144px" preserveAspectRatio="xMinYMin meet" x="269.292" y="-1028.94"/>
</g>
<!-- 11&#45;&gt;22 -->
<!-- 23 -->
<g id="node23" class="node">
<title>23</title>
<image xlink:href="/usr/local/micapollo01/MIC/DATA/STUDENTS/vlemon0/code/matlab/../results/visualizeCCAOnPheno/STAGE00DATA/png2/With/23.png" width="288px" height="144px" preserveAspectRatio="xMinYMin meet" x="114.75" y="-821.304"/>
</g>
<!-- 11&#45;&gt;23 -->
<!-- 24 -->
<g id="node24" class="node">
<title>24</title>
<image xlink:href="/usr/local/micapollo01/MIC/DATA/STUDENTS/vlemon0/code/matlab/../results/visualizeCCAOnPheno/STAGE00DATA/png2/With/24.png" width="288px" height="144px" preserveAspectRatio="xMinYMin meet" x="114.75" y="-596.56"/>
</g>
<!-- 12&#45;&gt;24 -->
<!-- 12&#45;&gt;24 -->
<g id="edge39" class="edge">
<title>12&#45;&gt;24</title>
<path fill="none" stroke="#ba254b" d="M412.4502,-524.6702C412.3502,-524.688 412.2502,-524.7057 412.1502,-524.7235"/>
<polygon fill="#ba254b" stroke="#ba254b" points="412.1061,-521.1794 402.8455,-526.3264 413.2945,-528.0778 412.1061,-521.1794"/>
<text text-anchor="middle" x="405.8002" y="-529.6968" font-family="Times,serif" font-size="15.00" fill="#ba254b">&#45;5</text>
</g>
<!-- 12&#45;&gt;24 -->
<g id="edge52" class="edge">
<title>12&#45;&gt;24</title>
<path fill="none" stroke="#fcfeb1" d="M412.2702,-510.9894C412.1738,-511.0066 412.0775,-511.0239 411.9811,-511.0411"/>
<polygon fill="#fcfeb1" stroke="#fcfeb1" points="412.256,-507.4386 403.0155,-512.6216 413.4713,-514.3323 412.256,-507.4386"/>
<text text-anchor="middle" x="404.1256" y="-499.0153" font-family="Times,serif" font-size="15.00" fill="#fcfeb1">11</text>
</g>
<!-- 12&#45;&gt;24 -->
<g id="edge78" class="edge">
<title>12&#45;&gt;24</title>
<path fill="none" stroke="#a2d9a5" d="M412.5265,-497.2337C412.429,-497.251 412.3315,-497.2683 412.234,-497.2856"/>
<polygon fill="#a2d9a5" stroke="#a2d9a5" points="412.3988,-493.7014 403.1654,-498.8972 413.6236,-500.5935 412.3988,-493.7014"/>
<text text-anchor="middle" x="407.1303" y="-485.2596" font-family="Times,serif" font-size="15.00" fill="#a2d9a5">&#45;11</text>
</g>
<!-- 12&#45;&gt;24 -->
<g id="edge87" class="edge">
<title>12&#45;&gt;24</title>
<path fill="none" stroke="#82cea4" d="M412.3475,-483.5674C412.2491,-483.5845 412.1507,-483.6016 412.0522,-483.6187"/>
<polygon fill="#82cea4" stroke="#82cea4" points="412.1351,-480.0499 402.8959,-485.2352 413.3522,-486.9433 412.1351,-480.0499"/>
<text text-anchor="middle" x="408.1999" y="-471.593" font-family="Times,serif" font-size="15.00" fill="#82cea4">9</text>
</g>
<!-- 25 -->
<g id="node25" class="node">
<title>25</title>
<image xlink:href="/usr/local/micapollo01/MIC/DATA/STUDENTS/vlemon0/code/matlab/../results/visualizeCCAOnPheno/STAGE00DATA/png2/With/25.png" width="288px" height="144px" preserveAspectRatio="xMinYMin meet" x="269.292" y="-388.924"/>
</g>
<!-- 12&#45;&gt;25 -->
<!-- 12&#45;&gt;25 -->
<g id="edge60" class="edge">
<title>12&#45;&gt;25</title>
<path fill="none" stroke="#def297" d="M480.4674,-399.3107C479.6939,-398.4769 478.921,-397.6422 478.1492,-396.8072"/>
<polygon fill="#def297" stroke="#def297" points="480.5857,-394.286 471.2416,-389.2921 475.432,-399.023 480.5857,-394.286"/>
<text text-anchor="middle" x="468.8083" y="-386.059" font-family="Times,serif" font-size="15.00" fill="#def297">&#45;31</text>
</g>
<!-- 26 -->
<g id="node26" class="node">
<title>26</title>
<image xlink:href="/usr/local/micapollo01/MIC/DATA/STUDENTS/vlemon0/code/matlab/../results/visualizeCCAOnPheno/STAGE00DATA/png2/With/26.png" width="288px" height="144px" preserveAspectRatio="xMinYMin meet" x="554.849" y="-230.006"/>
</g>
<!-- 13&#45;&gt;26 -->
<!-- 13&#45;&gt;26 -->
<g id="edge41" class="edge">
<title>13&#45;&gt;26</title>
<path fill="none" stroke="#e55149" d="M832.4124,-224.4446C832.3438,-224.425 832.2753,-224.4055 832.2067,-224.386"/>
<polygon fill="#e55149" stroke="#e55149" points="842.5787,-223.7047 832.001,-224.3274 840.6583,-230.4369 842.5787,-223.7047"/>
<text text-anchor="middle" x="824.3095" y="-229.4153" font-family="Times,serif" font-size="15.00" fill="#e55149">38</text>
</g>
<!-- 13&#45;&gt;26 -->
<g id="edge61" class="edge">
<title>13&#45;&gt;26</title>
<path fill="none" stroke="#def297" d="M832.4733,-210.4184C832.406,-210.399 832.3386,-210.3796 832.2713,-210.3602"/>
<polygon fill="#def297" stroke="#def297" points="842.6491,-209.7133 832.0694,-210.3019 840.707,-216.4393 842.6491,-209.7133"/>
<text text-anchor="middle" x="828.3723" y="-198.3893" font-family="Times,serif" font-size="15.00" fill="#def297">1</text>
</g>
<!-- 13&#45;&gt;26 -->
<g id="edge79" class="edge">
<title>13&#45;&gt;26</title>
<path fill="none" stroke="#a2d9a5" d="M832.5354,-196.3916C832.4693,-196.3726 832.4032,-196.3536 832.3371,-196.3347"/>
<polygon fill="#a2d9a5" stroke="#a2d9a5" points="842.7178,-195.6769 832.1388,-196.2777 840.7835,-202.4052 842.7178,-195.6769"/>
<text text-anchor="middle" x="821.9363" y="-201.3631" font-family="Times,serif" font-size="15.00" fill="#a2d9a5">&#45;11</text>
</g>
<!-- 13&#45;&gt;26 -->
<g id="edge88" class="edge">
<title>13&#45;&gt;26</title>
<path fill="none" stroke="#82cea4" d="M832.5942,-182.3889C832.5292,-182.3706 832.4643,-182.3524 832.3994,-182.3341"/>
<polygon fill="#82cea4" stroke="#82cea4" points="842.7801,-181.6201 832.2046,-182.2794 840.883,-188.359 842.7801,-181.6201"/>
<text text-anchor="middle" x="821.9968" y="-170.3615" font-family="Times,serif" font-size="15.00" fill="#82cea4">&#45;30</text>
</g>
<!-- 27 -->
<g id="node27" class="node">
<title>27</title>
<image xlink:href="/usr/local/micapollo01/MIC/DATA/STUDENTS/vlemon0/code/matlab/../results/visualizeCCAOnPheno/STAGE00DATA/png2/With/27.png" width="288px" height="144px" preserveAspectRatio="xMinYMin meet" x="927.946" y="-144"/>
</g>
<!-- 13&#45;&gt;27 -->
<!-- 13&#45;&gt;27 -->
<g id="edge80" class="edge">
<title>13&#45;&gt;27</title>
<path fill="none" stroke="#a2d9a5" d="M1002.93,-165.6957C1005.2222,-161.4383 1007.5915,-157.1427 1010.0119,-152.8544"/>
<polygon fill="#a2d9a5" stroke="#a2d9a5" points="1013.1067,-154.4933 1015.0434,-144.077 1007.0337,-151.0121 1013.1067,-154.4933"/>
<text text-anchor="middle" x="995.971" y="-147.2751" font-family="Times,serif" font-size="15.00" fill="#a2d9a5">&#45;12</text>
</g>
<!-- 13&#45;&gt;27 -->
<g id="edge89" class="edge">
<title>13&#45;&gt;27</title>
<path fill="none" stroke="#82cea4" d="M1018.2591,-165.5693C1020.604,-161.4824 1022.969,-157.3604 1025.331,-153.2439"/>
<polygon fill="#82cea4" stroke="#82cea4" points="1028.5467,-154.6721 1030.4876,-144.2565 1022.4751,-151.1884 1028.5467,-154.6721"/>
<text text-anchor="middle" x="1015.295" y="-147.4066" font-family="Times,serif" font-size="15.00" fill="#82cea4">&#45;4</text>
</g>
<!-- 28 -->
<g id="node28" class="node">
<title>28</title>
<image xlink:href="/usr/local/micapollo01/MIC/DATA/STUDENTS/vlemon0/code/matlab/../results/visualizeCCAOnPheno/STAGE00DATA/png2/With/28.png" width="288px" height="144px" preserveAspectRatio="xMinYMin meet" x="1331.78" y="-144"/>
</g>
<!-- 14&#45;&gt;28 -->
<!-- 29 -->
<g id="node29" class="node">
<title>29</title>
<image xlink:href="/usr/local/micapollo01/MIC/DATA/STUDENTS/vlemon0/code/matlab/../results/visualizeCCAOnPheno/STAGE00DATA/png2/With/29.png" width="288px" height="144px" preserveAspectRatio="xMinYMin meet" x="1704.88" y="-230.006"/>
</g>
<!-- 14&#45;&gt;29 -->
<!-- 30 -->
<g id="node30" class="node">
<title>30</title>
<image xlink:href="/usr/local/micapollo01/MIC/DATA/STUDENTS/vlemon0/code/matlab/../results/visualizeCCAOnPheno/STAGE00DATA/png2/With/30.png" width="288px" height="144px" preserveAspectRatio="xMinYMin meet" x="1990.44" y="-388.924"/>
</g>
<!-- 15&#45;&gt;30 -->
<!-- 31 -->
<g id="node31" class="node">
<title>31</title>
<image xlink:href="/usr/local/micapollo01/MIC/DATA/STUDENTS/vlemon0/code/matlab/../results/visualizeCCAOnPheno/STAGE00DATA/png2/With/31.png" width="288px" height="144px" preserveAspectRatio="xMinYMin meet" x="2144.98" y="-596.56"/>
</g>
<!-- 15&#45;&gt;31 -->
</g>
</svg>
