<svg width="560" height="380"><g transform="translate(80,30)"><rect x="315" y="238.59241124695885" width="14" height="11.407588753041153" style="fill: rgb(86, 104, 244); stroke: grey;"></rect><rect x="405" y="247.22865393794342" width="14" height="2.7713460620565797" style="fill: rgb(86, 104, 244); stroke: grey;"></rect><rect x="180" y="202.31715781498673" width="14" height="47.68284218501327" style="fill: rgb(86, 104, 244); stroke: grey;"></rect><rect x="435" y="249.35843607767828" width="14" height="0.6415639223217227" style="fill: rgb(86, 104, 244); stroke: grey;"></rect><rect x="165" y="198.69292064351336" width="14" height="51.30707935648664" style="fill: rgb(86, 104, 244); stroke: grey;"></rect><rect x="225" y="223.64576087436663" width="14" height="26.35423912563337" style="fill: rgb(86, 104, 244); stroke: grey;"></rect><rect x="210" y="215.69390584880506" width="14" height="34.30609415119494" style="fill: rgb(86, 104, 244); stroke: grey;"></rect><rect x="75" y="172.58092722434736" width="14" height="77.41907277565264" style="fill: rgb(86, 104, 244); stroke: grey;"></rect><rect x="45" y="161.2480597938623" width="14" height="88.7519402061377" style="fill: rgb(86, 104, 244); stroke: grey;"></rect><rect x="120" y="193.96564112959933" width="14" height="56.034358870400666" style="fill: rgb(86, 104, 244); stroke: grey;"></rect><rect x="240" y="225.28240273395488" width="14" height="24.717597266045118" style="fill: rgb(86, 104, 244); stroke: grey;"></rect><rect x="300" y="236.52522185212936" width="14" height="13.474778147870637" style="fill: rgb(86, 104, 244); stroke: grey;"></rect><rect x="390" y="246.6271238130967" width="14" height="3.372876186903312" style="fill: rgb(86, 104, 244); stroke: grey;"></rect><rect x="420" y="249.28996741551128" width="14" height="0.7100325844887152" style="fill: rgb(86, 104, 244); stroke: grey;"></rect><rect x="90" y="179.33631874797152" width="14" height="70.66368125202848" style="fill: rgb(86, 104, 244); stroke: grey;"></rect><rect x="360" y="244.10218449808033" width="14" height="5.897815501919666" style="fill: rgb(86, 104, 244); stroke: grey;"></rect><rect x="60" y="164.28483927469304" width="14" height="85.71516072530696" style="fill: rgb(86, 104, 244); stroke: grey;"></rect><rect x="135" y="195.2834132059485" width="14" height="54.716586794051494" style="fill: rgb(86, 104, 244); stroke: grey;"></rect><rect x="345" y="240.36835324450084" width="14" height="9.631646755499162" style="fill: rgb(86, 104, 244); stroke: grey;"></rect><rect x="0" y="0" width="14" height="250" style="fill: rgb(204, 0, 0); stroke: grey;"></rect><rect x="30" y="159.29216052636153" width="14" height="90.70783947363847" style="fill: rgb(86, 104, 244); stroke: grey;"></rect><rect x="255" y="226.90974785142086" width="14" height="23.09025214857914" style="fill: rgb(86, 104, 244); stroke: grey;"></rect><rect x="270" y="230.1810554227243" width="14" height="19.818944577275687" style="fill: rgb(86, 104, 244); stroke: grey;"></rect><rect x="195" y="214.41042941742452" width="14" height="35.589570582575476" style="fill: rgb(86, 104, 244); stroke: grey;"></rect><rect x="375" y="245.9097883128371" width="14" height="4.090211687162906" style="fill: rgb(86, 104, 244); stroke: grey;"></rect><rect x="285" y="234.8591893836349" width="14" height="15.140810616365087" style="fill: rgb(86, 104, 244); stroke: grey;"></rect><rect x="330" y="240.02683900528194" width="14" height="9.973160994718057" style="fill: rgb(86, 104, 244); stroke: grey;"></rect><rect x="15" y="150.79953299683865" width="14" height="99.20046700316135" style="fill: rgb(86, 104, 244); stroke: grey;"></rect><rect x="105" y="192.710768004359" width="14" height="57.28923199564099" style="fill: rgb(86, 104, 244); stroke: grey;"></rect><rect x="150" y="198.21735609100287" width="14" height="51.78264390899713" style="fill: rgb(86, 104, 244); stroke: grey;"></rect><g><text transform="translate(325,258)rotate(-70)" style="text-anchor: end; font-size: 11px; font-family: sans-serif;">Adipose_Tissue</text><text transform="translate(415,258)rotate(-70)" style="text-anchor: end; font-size: 11px; font-family: sans-serif;">Adrenal_Gland</text><text transform="translate(190,258)rotate(-70)" style="text-anchor: end; font-size: 11px; font-family: sans-serif;">Bladder</text><text transform="translate(445,258)rotate(-70)" style="text-anchor: end; font-size: 11px; font-family: sans-serif;">Blood</text><text transform="translate(175,258)rotate(-70)" style="text-anchor: end; font-size: 11px; font-family: sans-serif;">Blood_Vessel</text><text transform="translate(235,258)rotate(-70)" style="text-anchor: end; font-size: 11px; font-family: sans-serif;">Brain</text><text transform="translate(220,258)rotate(-70)" style="text-anchor: end; font-size: 11px; font-family: sans-serif;">Breast</text><text transform="translate(85,258)rotate(-70)" style="text-anchor: end; font-size: 11px; font-family: sans-serif;">Cervix_Uteri</text><text transform="translate(55,258)rotate(-70)" style="text-anchor: end; font-size: 11px; font-family: sans-serif;">Colon</text><text transform="translate(130,258)rotate(-70)" style="text-anchor: end; font-size: 11px; font-family: sans-serif;">Esophagus</text><text transform="translate(250,258)rotate(-70)" style="text-anchor: end; font-size: 11px; font-family: sans-serif;">Fallopian_Tube</text><text transform="translate(310,258)rotate(-70)" style="text-anchor: end; font-size: 11px; font-family: sans-serif;">Heart</text><text transform="translate(400,258)rotate(-70)" style="text-anchor: end; font-size: 11px; font-family: sans-serif;">Kidney</text><text transform="translate(430,258)rotate(-70)" style="text-anchor: end; font-size: 11px; font-family: sans-serif;">Liver</text><text transform="translate(100,258)rotate(-70)" style="text-anchor: end; font-size: 11px; font-family: sans-serif;">Lung</text><text transform="translate(370,258)rotate(-70)" style="text-anchor: end; font-size: 11px; font-family: sans-serif;">Muscle</text><text transform="translate(70,258)rotate(-70)" style="text-anchor: end; font-size: 11px; font-family: sans-serif;">Nerve</text><text transform="translate(145,258)rotate(-70)" style="text-anchor: end; font-size: 11px; font-family: sans-serif;">Ovary</text><text transform="translate(355,258)rotate(-70)" style="text-anchor: end; font-size: 11px; font-family: sans-serif;">Pancreas</text><text transform="translate(10,258)rotate(-70)" style="text-anchor: end; font-size: 11px; font-family: sans-serif;">Pituitary</text><text transform="translate(40,258)rotate(-70)" style="text-anchor: end; font-size: 11px; font-family: sans-serif;">Prostate</text><text transform="translate(265,258)rotate(-70)" style="text-anchor: end; font-size: 11px; font-family: sans-serif;">Salivary_Gland</text><text transform="translate(280,258)rotate(-70)" style="text-anchor: end; font-size: 11px; font-family: sans-serif;">Skin</text><text transform="translate(205,258)rotate(-70)" style="text-anchor: end; font-size: 11px; font-family: sans-serif;">Small_Intestine</text><text transform="translate(385,258)rotate(-70)" style="text-anchor: end; font-size: 11px; font-family: sans-serif;">Spleen</text><text transform="translate(295,258)rotate(-70)" style="text-anchor: end; font-size: 11px; font-family: sans-serif;">Stomach</text><text transform="translate(340,258)rotate(-70)" style="text-anchor: end; font-size: 11px; font-family: sans-serif;">Testis</text><text transform="translate(25,258)rotate(-70)" style="text-anchor: end; font-size: 11px; font-family: sans-serif;">Thyroid</text><text transform="translate(115,258)rotate(-70)" style="text-anchor: end; font-size: 11px; font-family: sans-serif;">Uterus</text><text transform="translate(160,258)rotate(-70)" style="text-anchor: end; font-size: 11px; font-family: sans-serif;">Vagina</text></g><line x1="0" x2="450" y1="35.37221922727396" y2="35.37221922727396" style="stroke: black; stroke-dasharray: 3, 3;"></line><g class="y axis"><g class="tick" transform="translate(0,250)" style="opacity: 1;"><line x2="-6" y2="0" style="fill: none; stroke: grey;"></line><text dy=".32em" x="-9" y="0" style="text-anchor: end; font-size: 11px; font-family: sans-serif;">0.0</text></g><g class="tick" transform="translate(0,211.37219297489878)" style="opacity: 1;"><line x2="-6" y2="0" style="fill: none; stroke: grey;"></line><text dy=".32em" x="-9" y="0" style="text-anchor: end; font-size: 11px; font-family: sans-serif;">0.5</text></g><g class="tick" transform="translate(0,172.74438594979756)" style="opacity: 1;"><line x2="-6" y2="0" style="fill: none; stroke: grey;"></line><text dy=".32em" x="-9" y="0" style="text-anchor: end; font-size: 11px; font-family: sans-serif;">1.0</text></g><g class="tick" transform="translate(0,134.11657892469637)" style="opacity: 1;"><line x2="-6" y2="0" style="fill: none; stroke: grey;"></line><text dy=".32em" x="-9" y="0" style="text-anchor: end; font-size: 11px; font-family: sans-serif;">1.5</text></g><g class="tick" transform="translate(0,95.48877189959515)" style="opacity: 1;"><line x2="-6" y2="0" style="fill: none; stroke: grey;"></line><text dy=".32em" x="-9" y="0" style="text-anchor: end; font-size: 11px; font-family: sans-serif;">2.0</text></g><g class="tick" transform="translate(0,56.86096487449394)" style="opacity: 1;"><line x2="-6" y2="0" style="fill: none; stroke: grey;"></line><text dy=".32em" x="-9" y="0" style="text-anchor: end; font-size: 11px; font-family: sans-serif;">2.5</text></g><g class="tick" transform="translate(0,18.233157849392693)" style="opacity: 1;"><line x2="-6" y2="0" style="fill: none; stroke: grey;"></line><text dy=".32em" x="-9" y="0" style="text-anchor: end; font-size: 11px; font-family: sans-serif;">3.0</text></g><path class="domain" d="M-6,0H0V250H-6" style="fill: none; stroke: grey;"></path></g><g class="x axis" transform="translate(0,250)"><g class="tick" transform="translate(7.5,0)" style="opacity: 1;"><line y2="6" x2="0" style="fill: none; stroke: grey;"></line></g><g class="tick" transform="translate(22.5,0)" style="opacity: 1;"><line y2="6" x2="0" style="fill: none; stroke: grey;"></line></g><g class="tick" transform="translate(37.5,0)" style="opacity: 1;"><line y2="6" x2="0" style="fill: none; stroke: grey;"></line></g><g class="tick" transform="translate(52.5,0)" style="opacity: 1;"><line y2="6" x2="0" style="fill: none; stroke: grey;"></line></g><g class="tick" transform="translate(67.5,0)" style="opacity: 1;"><line y2="6" x2="0" style="fill: none; stroke: grey;"></line></g><g class="tick" transform="translate(82.5,0)" style="opacity: 1;"><line y2="6" x2="0" style="fill: none; stroke: grey;"></line></g><g class="tick" transform="translate(97.5,0)" style="opacity: 1;"><line y2="6" x2="0" style="fill: none; stroke: grey;"></line></g><g class="tick" transform="translate(112.5,0)" style="opacity: 1;"><line y2="6" x2="0" style="fill: none; stroke: grey;"></line></g><g class="tick" transform="translate(127.5,0)" style="opacity: 1;"><line y2="6" x2="0" style="fill: none; stroke: grey;"></line></g><g class="tick" transform="translate(142.5,0)" style="opacity: 1;"><line y2="6" x2="0" style="fill: none; stroke: grey;"></line></g><g class="tick" transform="translate(157.5,0)" style="opacity: 1;"><line y2="6" x2="0" style="fill: none; stroke: grey;"></line></g><g class="tick" transform="translate(172.5,0)" style="opacity: 1;"><line y2="6" x2="0" style="fill: none; stroke: grey;"></line></g><g class="tick" transform="translate(187.5,0)" style="opacity: 1;"><line y2="6" x2="0" style="fill: none; stroke: grey;"></line></g><g class="tick" transform="translate(202.5,0)" style="opacity: 1;"><line y2="6" x2="0" style="fill: none; stroke: grey;"></line></g><g class="tick" transform="translate(217.5,0)" style="opacity: 1;"><line y2="6" x2="0" style="fill: none; stroke: grey;"></line></g><g class="tick" transform="translate(232.5,0)" style="opacity: 1;"><line y2="6" x2="0" style="fill: none; stroke: grey;"></line></g><g class="tick" transform="translate(247.5,0)" style="opacity: 1;"><line y2="6" x2="0" style="fill: none; stroke: grey;"></line></g><g class="tick" transform="translate(262.5,0)" style="opacity: 1;"><line y2="6" x2="0" style="fill: none; stroke: grey;"></line></g><g class="tick" transform="translate(277.5,0)" style="opacity: 1;"><line y2="6" x2="0" style="fill: none; stroke: grey;"></line></g><g class="tick" transform="translate(292.5,0)" style="opacity: 1;"><line y2="6" x2="0" style="fill: none; stroke: grey;"></line></g><g class="tick" transform="translate(307.5,0)" style="opacity: 1;"><line y2="6" x2="0" style="fill: none; stroke: grey;"></line></g><g class="tick" transform="translate(322.5,0)" style="opacity: 1;"><line y2="6" x2="0" style="fill: none; stroke: grey;"></line></g><g class="tick" transform="translate(337.5,0)" style="opacity: 1;"><line y2="6" x2="0" style="fill: none; stroke: grey;"></line></g><g class="tick" transform="translate(352.5,0)" style="opacity: 1;"><line y2="6" x2="0" style="fill: none; stroke: grey;"></line></g><g class="tick" transform="translate(367.5,0)" style="opacity: 1;"><line y2="6" x2="0" style="fill: none; stroke: grey;"></line></g><g class="tick" transform="translate(382.5,0)" style="opacity: 1;"><line y2="6" x2="0" style="fill: none; stroke: grey;"></line></g><g class="tick" transform="translate(397.5,0)" style="opacity: 1;"><line y2="6" x2="0" style="fill: none; stroke: grey;"></line></g><g class="tick" transform="translate(412.5,0)" style="opacity: 1;"><line y2="6" x2="0" style="fill: none; stroke: grey;"></line></g><g class="tick" transform="translate(427.5,0)" style="opacity: 1;"><line y2="6" x2="0" style="fill: none; stroke: grey;"></line></g><g class="tick" transform="translate(442.5,0)" style="opacity: 1;"><line y2="6" x2="0" style="fill: none; stroke: grey;"></line></g><path class="domain" d="M0,6V0H450V6" style="fill: none; stroke: grey;"></path></g><text text-anchor="middle" transform="translate(-55,125)rotate(-90)" style="font-family: sans-serif;">-log 10 P-value</text></g></svg>