<svg width="545" height="380"><g transform="translate(80,30)"><rect x="345" y="248.855353872247" width="14" height="1.144646127752992" style="fill: rgb(86, 104, 244); stroke: grey;"></rect><rect x="300" y="246.38941890658643" width="14" height="3.610581093413572" style="fill: rgb(86, 104, 244); stroke: grey;"></rect><rect x="30" y="33.75840275431224" width="14" height="216.24159724568776" style="fill: rgb(86, 104, 244); stroke: grey;"></rect><rect x="0" y="0" width="14" height="250" style="fill: rgb(86, 104, 244); stroke: grey;"></rect><rect x="375" y="249.06960582992866" width="14" height="0.9303941700713381" style="fill: rgb(86, 104, 244); stroke: grey;"></rect><rect x="240" y="237.07058672231517" width="14" height="12.92941327768483" style="fill: rgb(86, 104, 244); stroke: grey;"></rect><rect x="15" y="22.5731496853806" width="14" height="227.4268503146194" style="fill: rgb(86, 104, 244); stroke: grey;"></rect><rect x="60" y="53.07560421840754" width="14" height="196.92439578159247" style="fill: rgb(86, 104, 244); stroke: grey;"></rect><rect x="195" y="230.2447430663827" width="14" height="19.75525693361729" style="fill: rgb(86, 104, 244); stroke: grey;"></rect><rect x="90" y="106.92195556336098" width="14" height="143.078044436639" style="fill: rgb(86, 104, 244); stroke: grey;"></rect><rect x="330" y="248.6791475296001" width="14" height="1.320852470399899" style="fill: rgb(86, 104, 244); stroke: grey;"></rect><rect x="390" y="249.2903416384447" width="14" height="0.7096583615553129" style="fill: rgb(86, 104, 244); stroke: grey;"></rect><rect x="75" y="71.0057501297951" width="14" height="178.9942498702049" style="fill: rgb(86, 104, 244); stroke: grey;"></rect><rect x="285" y="246.29841148706203" width="14" height="3.701588512937974" style="fill: rgb(86, 104, 244); stroke: grey;"></rect><rect x="270" y="245.10451880580462" width="14" height="4.8954811941953835" style="fill: rgb(86, 104, 244); stroke: grey;"></rect><rect x="120" y="119.57711569568643" width="14" height="130.42288430431358" style="fill: rgb(86, 104, 244); stroke: grey;"></rect><rect x="135" y="143.82514423556196" width="14" height="106.17485576443804" style="fill: rgb(86, 104, 244); stroke: grey;"></rect><rect x="165" y="211.04524083928328" width="14" height="38.95475916071672" style="fill: rgb(86, 104, 244); stroke: grey;"></rect><rect x="360" y="249.06648887765076" width="14" height="0.9335111223492447" style="fill: rgb(86, 104, 244); stroke: grey;"></rect><rect x="315" y="248.01184165796306" width="14" height="1.9881583420369395" style="fill: rgb(86, 104, 244); stroke: grey;"></rect><rect x="150" y="148.10135970482045" width="14" height="101.89864029517955" style="fill: rgb(86, 104, 244); stroke: grey;"></rect><rect x="255" y="244.1883810815078" width="14" height="5.811618918492201" style="fill: rgb(86, 104, 244); stroke: grey;"></rect><rect x="225" y="235.49925865140173" width="14" height="14.500741348598268" style="fill: rgb(86, 104, 244); stroke: grey;"></rect><rect x="180" y="228.43921175204372" width="14" height="21.560788247956282" style="fill: rgb(86, 104, 244); stroke: grey;"></rect><rect x="420" y="249.9891021621737" width="14" height="0.010897837826291834" style="fill: rgb(86, 104, 244); stroke: grey;"></rect><rect x="210" y="234.06120838195574" width="14" height="15.938791618044263" style="fill: rgb(86, 104, 244); stroke: grey;"></rect><rect x="105" y="118.46316770302553" width="14" height="131.53683229697447" style="fill: rgb(86, 104, 244); stroke: grey;"></rect><rect x="405" y="249.38990591419042" width="14" height="0.6100940858095782" style="fill: rgb(86, 104, 244); stroke: grey;"></rect><rect x="45" y="42.1477411349564" width="14" height="207.8522588650436" style="fill: rgb(86, 104, 244); stroke: grey;"></rect><g><text transform="translate(355,258)rotate(-70)" style="text-anchor: end; font-size: 11px; font-family: sans-serif;">10_mos</text><text transform="translate(310,258)rotate(-70)" style="text-anchor: end; font-size: 11px; font-family: sans-serif;">11_yrs</text><text transform="translate(40,258)rotate(-70)" style="text-anchor: end; font-size: 11px; font-family: sans-serif;">12_pcw</text><text transform="translate(10,258)rotate(-70)" style="text-anchor: end; font-size: 11px; font-family: sans-serif;">13_pcw</text><text transform="translate(385,258)rotate(-70)" style="text-anchor: end; font-size: 11px; font-family: sans-serif;">13_yrs</text><text transform="translate(250,258)rotate(-70)" style="text-anchor: end; font-size: 11px; font-family: sans-serif;">15_yrs</text><text transform="translate(25,258)rotate(-70)" style="text-anchor: end; font-size: 11px; font-family: sans-serif;">16_pcw</text><text transform="translate(70,258)rotate(-70)" style="text-anchor: end; font-size: 11px; font-family: sans-serif;">17_pcw</text><text transform="translate(205,258)rotate(-70)" style="text-anchor: end; font-size: 11px; font-family: sans-serif;">18_yrs</text><text transform="translate(100,258)rotate(-70)" style="text-anchor: end; font-size: 11px; font-family: sans-serif;">19_pcw</text><text transform="translate(340,258)rotate(-70)" style="text-anchor: end; font-size: 11px; font-family: sans-serif;">19_yrs</text><text transform="translate(400,258)rotate(-70)" style="text-anchor: end; font-size: 11px; font-family: sans-serif;">1_yrs</text><text transform="translate(85,258)rotate(-70)" style="text-anchor: end; font-size: 11px; font-family: sans-serif;">21_pcw</text><text transform="translate(295,258)rotate(-70)" style="text-anchor: end; font-size: 11px; font-family: sans-serif;">21_yrs</text><text transform="translate(280,258)rotate(-70)" style="text-anchor: end; font-size: 11px; font-family: sans-serif;">23_yrs</text><text transform="translate(130,258)rotate(-70)" style="text-anchor: end; font-size: 11px; font-family: sans-serif;">24_pcw</text><text transform="translate(145,258)rotate(-70)" style="text-anchor: end; font-size: 11px; font-family: sans-serif;">26_pcw</text><text transform="translate(175,258)rotate(-70)" style="text-anchor: end; font-size: 11px; font-family: sans-serif;">2_yrs</text><text transform="translate(370,258)rotate(-70)" style="text-anchor: end; font-size: 11px; font-family: sans-serif;">30_yrs</text><text transform="translate(325,258)rotate(-70)" style="text-anchor: end; font-size: 11px; font-family: sans-serif;">36_yrs</text><text transform="translate(160,258)rotate(-70)" style="text-anchor: end; font-size: 11px; font-family: sans-serif;">37_pcw</text><text transform="translate(265,258)rotate(-70)" style="text-anchor: end; font-size: 11px; font-family: sans-serif;">37_yrs</text><text transform="translate(235,258)rotate(-70)" style="text-anchor: end; font-size: 11px; font-family: sans-serif;">3_yrs</text><text transform="translate(190,258)rotate(-70)" style="text-anchor: end; font-size: 11px; font-family: sans-serif;">40_yrs</text><text transform="translate(430,258)rotate(-70)" style="text-anchor: end; font-size: 11px; font-family: sans-serif;">4_mos</text><text transform="translate(220,258)rotate(-70)" style="text-anchor: end; font-size: 11px; font-family: sans-serif;">4_yrs</text><text transform="translate(115,258)rotate(-70)" style="text-anchor: end; font-size: 11px; font-family: sans-serif;">8_pcw</text><text transform="translate(415,258)rotate(-70)" style="text-anchor: end; font-size: 11px; font-family: sans-serif;">8_yrs</text><text transform="translate(55,258)rotate(-70)" style="text-anchor: end; font-size: 11px; font-family: sans-serif;">9_pcw</text></g><line x1="0" x2="435" y1="-27.338320357210456" y2="-27.338320357210456" style="stroke: black; stroke-dasharray: 3, 3;"></line><g class="y axis"><g class="tick" transform="translate(0,250)" style="opacity: 1;"><line x2="-6" y2="0" style="fill: none; stroke: grey;"></line><text dy=".32em" x="-9" y="0" style="text-anchor: end; font-size: 11px; font-family: sans-serif;">0.0</text></g><g class="tick" transform="translate(0,229.92795028470178)" style="opacity: 1;"><line x2="-6" y2="0" style="fill: none; stroke: grey;"></line><text dy=".32em" x="-9" y="0" style="text-anchor: end; font-size: 11px; font-family: sans-serif;">0.2</text></g><g class="tick" transform="translate(0,209.85590056940356)" style="opacity: 1;"><line x2="-6" y2="0" style="fill: none; stroke: grey;"></line><text dy=".32em" x="-9" y="0" style="text-anchor: end; font-size: 11px; font-family: sans-serif;">0.4</text></g><g class="tick" transform="translate(0,189.78385085410534)" style="opacity: 1;"><line x2="-6" y2="0" style="fill: none; stroke: grey;"></line><text dy=".32em" x="-9" y="0" style="text-anchor: end; font-size: 11px; font-family: sans-serif;">0.6</text></g><g class="tick" transform="translate(0,169.71180113880712)" style="opacity: 1;"><line x2="-6" y2="0" style="fill: none; stroke: grey;"></line><text dy=".32em" x="-9" y="0" style="text-anchor: end; font-size: 11px; font-family: sans-serif;">0.8</text></g><g class="tick" transform="translate(0,149.63975142350887)" style="opacity: 1;"><line x2="-6" y2="0" style="fill: none; stroke: grey;"></line><text dy=".32em" x="-9" y="0" style="text-anchor: end; font-size: 11px; font-family: sans-serif;">1.0</text></g><g class="tick" transform="translate(0,129.5677017082107)" style="opacity: 1;"><line x2="-6" y2="0" style="fill: none; stroke: grey;"></line><text dy=".32em" x="-9" y="0" style="text-anchor: end; font-size: 11px; font-family: sans-serif;">1.2</text></g><g class="tick" transform="translate(0,109.49565199291244)" style="opacity: 1;"><line x2="-6" y2="0" style="fill: none; stroke: grey;"></line><text dy=".32em" x="-9" y="0" style="text-anchor: end; font-size: 11px; font-family: sans-serif;">1.4</text></g><g class="tick" transform="translate(0,89.42360227761422)" style="opacity: 1;"><line x2="-6" y2="0" style="fill: none; stroke: grey;"></line><text dy=".32em" x="-9" y="0" style="text-anchor: end; font-size: 11px; font-family: sans-serif;">1.6</text></g><g class="tick" transform="translate(0,69.35155256231602)" style="opacity: 1;"><line x2="-6" y2="0" style="fill: none; stroke: grey;"></line><text dy=".32em" x="-9" y="0" style="text-anchor: end; font-size: 11px; font-family: sans-serif;">1.8</text></g><g class="tick" transform="translate(0,49.279502847017795)" style="opacity: 1;"><line x2="-6" y2="0" style="fill: none; stroke: grey;"></line><text dy=".32em" x="-9" y="0" style="text-anchor: end; font-size: 11px; font-family: sans-serif;">2.0</text></g><g class="tick" transform="translate(0,29.207453131719546)" style="opacity: 1;"><line x2="-6" y2="0" style="fill: none; stroke: grey;"></line><text dy=".32em" x="-9" y="0" style="text-anchor: end; font-size: 11px; font-family: sans-serif;">2.2</text></g><g class="tick" transform="translate(0,9.135403416421356)" style="opacity: 1;"><line x2="-6" y2="0" style="fill: none; stroke: grey;"></line><text dy=".32em" x="-9" y="0" style="text-anchor: end; font-size: 11px; font-family: sans-serif;">2.4</text></g><path class="domain" d="M-6,0H0V250H-6" style="fill: none; stroke: grey;"></path></g><g class="x axis" transform="translate(0,250)"><g class="tick" transform="translate(7.5,0)" style="opacity: 1;"><line y2="6" x2="0" style="fill: none; stroke: grey;"></line></g><g class="tick" transform="translate(22.5,0)" style="opacity: 1;"><line y2="6" x2="0" style="fill: none; stroke: grey;"></line></g><g class="tick" transform="translate(37.5,0)" style="opacity: 1;"><line y2="6" x2="0" style="fill: none; stroke: grey;"></line></g><g class="tick" transform="translate(52.5,0)" style="opacity: 1;"><line y2="6" x2="0" style="fill: none; stroke: grey;"></line></g><g class="tick" transform="translate(67.5,0)" style="opacity: 1;"><line y2="6" x2="0" style="fill: none; stroke: grey;"></line></g><g class="tick" transform="translate(82.5,0)" style="opacity: 1;"><line y2="6" x2="0" style="fill: none; stroke: grey;"></line></g><g class="tick" transform="translate(97.5,0)" style="opacity: 1;"><line y2="6" x2="0" style="fill: none; stroke: grey;"></line></g><g class="tick" transform="translate(112.5,0)" style="opacity: 1;"><line y2="6" x2="0" style="fill: none; stroke: grey;"></line></g><g class="tick" transform="translate(127.5,0)" style="opacity: 1;"><line y2="6" x2="0" style="fill: none; stroke: grey;"></line></g><g class="tick" transform="translate(142.5,0)" style="opacity: 1;"><line y2="6" x2="0" style="fill: none; stroke: grey;"></line></g><g class="tick" transform="translate(157.5,0)" style="opacity: 1;"><line y2="6" x2="0" style="fill: none; stroke: grey;"></line></g><g class="tick" transform="translate(172.5,0)" style="opacity: 1;"><line y2="6" x2="0" style="fill: none; stroke: grey;"></line></g><g class="tick" transform="translate(187.5,0)" style="opacity: 1;"><line y2="6" x2="0" style="fill: none; stroke: grey;"></line></g><g class="tick" transform="translate(202.5,0)" style="opacity: 1;"><line y2="6" x2="0" style="fill: none; stroke: grey;"></line></g><g class="tick" transform="translate(217.5,0)" style="opacity: 1;"><line y2="6" x2="0" style="fill: none; stroke: grey;"></line></g><g class="tick" transform="translate(232.5,0)" style="opacity: 1;"><line y2="6" x2="0" style="fill: none; stroke: grey;"></line></g><g class="tick" transform="translate(247.5,0)" style="opacity: 1;"><line y2="6" x2="0" style="fill: none; stroke: grey;"></line></g><g class="tick" transform="translate(262.5,0)" style="opacity: 1;"><line y2="6" x2="0" style="fill: none; stroke: grey;"></line></g><g class="tick" transform="translate(277.5,0)" style="opacity: 1;"><line y2="6" x2="0" style="fill: none; stroke: grey;"></line></g><g class="tick" transform="translate(292.5,0)" style="opacity: 1;"><line y2="6" x2="0" style="fill: none; stroke: grey;"></line></g><g class="tick" transform="translate(307.5,0)" style="opacity: 1;"><line y2="6" x2="0" style="fill: none; stroke: grey;"></line></g><g class="tick" transform="translate(322.5,0)" style="opacity: 1;"><line y2="6" x2="0" style="fill: none; stroke: grey;"></line></g><g class="tick" transform="translate(337.5,0)" style="opacity: 1;"><line y2="6" x2="0" style="fill: none; stroke: grey;"></line></g><g class="tick" transform="translate(352.5,0)" style="opacity: 1;"><line y2="6" x2="0" style="fill: none; stroke: grey;"></line></g><g class="tick" transform="translate(367.5,0)" style="opacity: 1;"><line y2="6" x2="0" style="fill: none; stroke: grey;"></line></g><g class="tick" transform="translate(382.5,0)" style="opacity: 1;"><line y2="6" x2="0" style="fill: none; stroke: grey;"></line></g><g class="tick" transform="translate(397.5,0)" style="opacity: 1;"><line y2="6" x2="0" style="fill: none; stroke: grey;"></line></g><g class="tick" transform="translate(412.5,0)" style="opacity: 1;"><line y2="6" x2="0" style="fill: none; stroke: grey;"></line></g><g class="tick" transform="translate(427.5,0)" style="opacity: 1;"><line y2="6" x2="0" style="fill: none; stroke: grey;"></line></g><path class="domain" d="M0,6V0H435V6" style="fill: none; stroke: grey;"></path></g><text text-anchor="middle" transform="translate(-55,125)rotate(-90)" style="font-family: sans-serif;">-log 10 P-value</text></g></svg>