<svg width="920" height="483.5"><g transform="translate(80,30)"><rect x="150" y="183.87526867103625" width="14" height="66.12473132896375" style="fill: rgb(86, 104, 244); stroke: grey;"></rect><rect x="420" y="234.22185086398827" width="14" height="15.778149136011734" style="fill: rgb(86, 104, 244); stroke: grey;"></rect><rect x="675" y="245.9635048718358" width="14" height="4.036495128164205" style="fill: rgb(86, 104, 244); stroke: grey;"></rect><rect x="75" y="132.93892452120548" width="14" height="117.06107547879452" style="fill: rgb(86, 104, 244); stroke: grey;"></rect><rect x="120" y="166.68057086121908" width="14" height="83.31942913878092" style="fill: rgb(86, 104, 244); stroke: grey;"></rect><rect x="45" y="82.77740936556887" width="14" height="167.22259063443113" style="fill: rgb(86, 104, 244); stroke: grey;"></rect><rect x="270" y="208.45466159202613" width="14" height="41.54533840797387" style="fill: rgb(86, 104, 244); stroke: grey;"></rect><rect x="525" y="240.91893148000364" width="14" height="9.081068519996364" style="fill: rgb(86, 104, 244); stroke: grey;"></rect><rect x="480" y="239.52179200772738" width="14" height="10.478207992272615" style="fill: rgb(86, 104, 244); stroke: grey;"></rect><rect x="600" y="244.2824600040347" width="14" height="5.717539995965296" style="fill: rgb(86, 104, 244); stroke: grey;"></rect><rect x="165" y="185.1297989663454" width="14" height="64.87020103365461" style="fill: rgb(86, 104, 244); stroke: grey;"></rect><rect x="135" y="172.33220437988805" width="14" height="77.66779562011195" style="fill: rgb(86, 104, 244); stroke: grey;"></rect><rect x="405" y="231.1671950674436" width="14" height="18.8328049325564" style="fill: rgb(86, 104, 244); stroke: grey;"></rect><rect x="450" y="237.3540865760158" width="14" height="12.645913423984211" style="fill: rgb(86, 104, 244); stroke: grey;"></rect><rect x="555" y="242.89618127066743" width="14" height="7.103818729332573" style="fill: rgb(86, 104, 244); stroke: grey;"></rect><rect x="630" y="244.64985660022452" width="14" height="5.350143399775476" style="fill: rgb(86, 104, 244); stroke: grey;"></rect><rect x="540" y="242.0306923464288" width="14" height="7.969307653571207" style="fill: rgb(86, 104, 244); stroke: grey;"></rect><rect x="645" y="244.83900028386913" width="14" height="5.160999716130874" style="fill: rgb(86, 104, 244); stroke: grey;"></rect><rect x="705" y="247.50165209207708" width="14" height="2.49834790792292" style="fill: rgb(86, 104, 244); stroke: grey;"></rect><rect x="690" y="247.39213289177763" width="14" height="2.607867108222365" style="fill: rgb(86, 104, 244); stroke: grey;"></rect><rect x="285" y="211.43690161535474" width="14" height="38.56309838464526" style="fill: rgb(86, 104, 244); stroke: grey;"></rect><rect x="240" y="206.0504102076115" width="14" height="43.94958979238851" style="fill: rgb(86, 104, 244); stroke: grey;"></rect><rect x="720" y="247.93373982344696" width="14" height="2.066260176553044" style="fill: rgb(86, 104, 244); stroke: grey;"></rect><rect x="195" y="190.63549341977793" width="14" height="59.36450658022207" style="fill: rgb(86, 104, 244); stroke: grey;"></rect><rect x="210" y="196.0122921045778" width="14" height="53.987707895422204" style="fill: rgb(86, 104, 244); stroke: grey;"></rect><rect x="30" y="18.302574549565602" width="14" height="231.6974254504344" style="fill: rgb(204, 0, 0); stroke: grey;"></rect><rect x="345" y="222.4099959795" width="14" height="27.590004020500004" style="fill: rgb(86, 104, 244); stroke: grey;"></rect><rect x="0" y="0" width="14" height="250" style="fill: rgb(204, 0, 0); stroke: grey;"></rect><rect x="660" y="245.04936774577934" width="14" height="4.950632254220665" style="fill: rgb(86, 104, 244); stroke: grey;"></rect><rect x="15" y="0.591628578489295" width="14" height="249.4083714215107" style="fill: rgb(204, 0, 0); stroke: grey;"></rect><rect x="375" y="229.5962212310803" width="14" height="20.403778768919693" style="fill: rgb(86, 104, 244); stroke: grey;"></rect><rect x="330" y="215.33551221248632" width="14" height="34.66448778751368" style="fill: rgb(86, 104, 244); stroke: grey;"></rect><rect x="180" y="185.6414597193493" width="14" height="64.35854028065069" style="fill: rgb(86, 104, 244); stroke: grey;"></rect><rect x="795" y="249.89534305904357" width="14" height="0.1046569409564313" style="fill: rgb(86, 104, 244); stroke: grey;"></rect><rect x="780" y="249.7334480376158" width="14" height="0.26655196238419876" style="fill: rgb(86, 104, 244); stroke: grey;"></rect><rect x="735" y="249.16921781842717" width="14" height="0.8307821815728289" style="fill: rgb(86, 104, 244); stroke: grey;"></rect><rect x="465" y="239.22514942764545" width="14" height="10.774850572354552" style="fill: rgb(86, 104, 244); stroke: grey;"></rect><rect x="615" y="244.5371531029535" width="14" height="5.462846897046489" style="fill: rgb(86, 104, 244); stroke: grey;"></rect><rect x="225" y="196.61926089620056" width="14" height="53.38073910379944" style="fill: rgb(86, 104, 244); stroke: grey;"></rect><rect x="105" y="165.8496565195089" width="14" height="84.1503434804911" style="fill: rgb(86, 104, 244); stroke: grey;"></rect><rect x="390" y="229.75168227787387" width="14" height="20.24831772212613" style="fill: rgb(86, 104, 244); stroke: grey;"></rect><rect x="570" y="243.31532867492857" width="14" height="6.6846713250714345" style="fill: rgb(86, 104, 244); stroke: grey;"></rect><rect x="315" y="212.8840261402164" width="14" height="37.115973859783594" style="fill: rgb(86, 104, 244); stroke: grey;"></rect><rect x="510" y="240.90359734230503" width="14" height="9.096402657694966" style="fill: rgb(86, 104, 244); stroke: grey;"></rect><rect x="585" y="243.9647605259422" width="14" height="6.035239474057789" style="fill: rgb(86, 104, 244); stroke: grey;"></rect><rect x="495" y="240.84769583724508" width="14" height="9.152304162754916" style="fill: rgb(86, 104, 244); stroke: grey;"></rect><rect x="435" y="236.71706770521877" width="14" height="13.282932294781233" style="fill: rgb(86, 104, 244); stroke: grey;"></rect><rect x="750" y="249.71379706458058" width="14" height="0.2862029354194249" style="fill: rgb(86, 104, 244); stroke: grey;"></rect><rect x="255" y="207.1597449967235" width="14" height="42.840255003276496" style="fill: rgb(86, 104, 244); stroke: grey;"></rect><rect x="60" y="116.30716094471471" width="14" height="133.69283905528528" style="fill: rgb(86, 104, 244); stroke: grey;"></rect><rect x="300" y="212.40902543994724" width="14" height="37.59097456005276" style="fill: rgb(86, 104, 244); stroke: grey;"></rect><rect x="90" y="162.52115754576843" width="14" height="87.47884245423157" style="fill: rgb(86, 104, 244); stroke: grey;"></rect><rect x="360" y="228.76154375631177" width="14" height="21.238456243688233" style="fill: rgb(86, 104, 244); stroke: grey;"></rect><rect x="765" y="249.7273807946194" width="14" height="0.27261920538060735" style="fill: rgb(86, 104, 244); stroke: grey;"></rect><g><text transform="translate(160,258)rotate(-70)" style="text-anchor: end; font-size: 11px; font-family: sans-serif;">Adipose_Subcutaneous</text><text transform="translate(430,258)rotate(-70)" style="text-anchor: end; font-size: 11px; font-family: sans-serif;">Adipose_Visceral_Omentum</text><text transform="translate(685,258)rotate(-70)" style="text-anchor: end; font-size: 11px; font-family: sans-serif;">Adrenal_Gland</text><text transform="translate(85,258)rotate(-70)" style="text-anchor: end; font-size: 11px; font-family: sans-serif;">Artery_Aorta</text><text transform="translate(130,258)rotate(-70)" style="text-anchor: end; font-size: 11px; font-family: sans-serif;">Artery_Coronary</text><text transform="translate(55,258)rotate(-70)" style="text-anchor: end; font-size: 11px; font-family: sans-serif;">Artery_Tibial</text><text transform="translate(280,258)rotate(-70)" style="text-anchor: end; font-size: 11px; font-family: sans-serif;">Bladder</text><text transform="translate(535,258)rotate(-70)" style="text-anchor: end; font-size: 11px; font-family: sans-serif;">Brain_Amygdala</text><text transform="translate(490,258)rotate(-70)" style="text-anchor: end; font-size: 11px; font-family: sans-serif;">Brain_Anterior_cingulate_cortex_BA24</text><text transform="translate(610,258)rotate(-70)" style="text-anchor: end; font-size: 11px; font-family: sans-serif;">Brain_Caudate_basal_ganglia</text><text transform="translate(175,258)rotate(-70)" style="text-anchor: end; font-size: 11px; font-family: sans-serif;">Brain_Cerebellar_Hemisphere</text><text transform="translate(145,258)rotate(-70)" style="text-anchor: end; font-size: 11px; font-family: sans-serif;">Brain_Cerebellum</text><text transform="translate(415,258)rotate(-70)" style="text-anchor: end; font-size: 11px; font-family: sans-serif;">Brain_Cortex</text><text transform="translate(460,258)rotate(-70)" style="text-anchor: end; font-size: 11px; font-family: sans-serif;">Brain_Frontal_Cortex_BA9</text><text transform="translate(565,258)rotate(-70)" style="text-anchor: end; font-size: 11px; font-family: sans-serif;">Brain_Hippocampus</text><text transform="translate(640,258)rotate(-70)" style="text-anchor: end; font-size: 11px; font-family: sans-serif;">Brain_Hypothalamus</text><text transform="translate(550,258)rotate(-70)" style="text-anchor: end; font-size: 11px; font-family: sans-serif;">Brain_Nucleus_accumbens_basal_ganglia</text><text transform="translate(655,258)rotate(-70)" style="text-anchor: end; font-size: 11px; font-family: sans-serif;">Brain_Putamen_basal_ganglia</text><text transform="translate(715,258)rotate(-70)" style="text-anchor: end; font-size: 11px; font-family: sans-serif;">Brain_Spinal_cord_cervical_c-1</text><text transform="translate(700,258)rotate(-70)" style="text-anchor: end; font-size: 11px; font-family: sans-serif;">Brain_Substantia_nigra</text><text transform="translate(295,258)rotate(-70)" style="text-anchor: end; font-size: 11px; font-family: sans-serif;">Breast_Mammary_Tissue</text><text transform="translate(250,258)rotate(-70)" style="text-anchor: end; font-size: 11px; font-family: sans-serif;">Cells_Cultured_fibroblasts</text><text transform="translate(730,258)rotate(-70)" style="text-anchor: end; font-size: 11px; font-family: sans-serif;">Cells_EBV-transformed_lymphocytes</text><text transform="translate(205,258)rotate(-70)" style="text-anchor: end; font-size: 11px; font-family: sans-serif;">Cervix_Ectocervix</text><text transform="translate(220,258)rotate(-70)" style="text-anchor: end; font-size: 11px; font-family: sans-serif;">Cervix_Endocervix</text><text transform="translate(40,258)rotate(-70)" style="text-anchor: end; font-size: 11px; font-family: sans-serif;">Colon_Sigmoid</text><text transform="translate(355,258)rotate(-70)" style="text-anchor: end; font-size: 11px; font-family: sans-serif;">Colon_Transverse</text><text transform="translate(10,258)rotate(-70)" style="text-anchor: end; font-size: 11px; font-family: sans-serif;">Esophagus_Gastroesophageal_Junction</text><text transform="translate(670,258)rotate(-70)" style="text-anchor: end; font-size: 11px; font-family: sans-serif;">Esophagus_Mucosa</text><text transform="translate(25,258)rotate(-70)" style="text-anchor: end; font-size: 11px; font-family: sans-serif;">Esophagus_Muscularis</text><text transform="translate(385,258)rotate(-70)" style="text-anchor: end; font-size: 11px; font-family: sans-serif;">Fallopian_Tube</text><text transform="translate(340,258)rotate(-70)" style="text-anchor: end; font-size: 11px; font-family: sans-serif;">Heart_Atrial_Appendage</text><text transform="translate(190,258)rotate(-70)" style="text-anchor: end; font-size: 11px; font-family: sans-serif;">Heart_Left_Ventricle</text><text transform="translate(805,258)rotate(-70)" style="text-anchor: end; font-size: 11px; font-family: sans-serif;">Kidney_Cortex</text><text transform="translate(790,258)rotate(-70)" style="text-anchor: end; font-size: 11px; font-family: sans-serif;">Kidney_Medulla</text><text transform="translate(745,258)rotate(-70)" style="text-anchor: end; font-size: 11px; font-family: sans-serif;">Liver</text><text transform="translate(475,258)rotate(-70)" style="text-anchor: end; font-size: 11px; font-family: sans-serif;">Lung</text><text transform="translate(625,258)rotate(-70)" style="text-anchor: end; font-size: 11px; font-family: sans-serif;">Minor_Salivary_Gland</text><text transform="translate(235,258)rotate(-70)" style="text-anchor: end; font-size: 11px; font-family: sans-serif;">Muscle_Skeletal</text><text transform="translate(115,258)rotate(-70)" style="text-anchor: end; font-size: 11px; font-family: sans-serif;">Nerve_Tibial</text><text transform="translate(400,258)rotate(-70)" style="text-anchor: end; font-size: 11px; font-family: sans-serif;">Ovary</text><text transform="translate(580,258)rotate(-70)" style="text-anchor: end; font-size: 11px; font-family: sans-serif;">Pancreas</text><text transform="translate(325,258)rotate(-70)" style="text-anchor: end; font-size: 11px; font-family: sans-serif;">Pituitary</text><text transform="translate(520,258)rotate(-70)" style="text-anchor: end; font-size: 11px; font-family: sans-serif;">Prostate</text><text transform="translate(595,258)rotate(-70)" style="text-anchor: end; font-size: 11px; font-family: sans-serif;">Skin_Not_Sun_Exposed_Suprapubic</text><text transform="translate(505,258)rotate(-70)" style="text-anchor: end; font-size: 11px; font-family: sans-serif;">Skin_Sun_Exposed_Lower_leg</text><text transform="translate(445,258)rotate(-70)" style="text-anchor: end; font-size: 11px; font-family: sans-serif;">Small_Intestine_Terminal_Ileum</text><text transform="translate(760,258)rotate(-70)" style="text-anchor: end; font-size: 11px; font-family: sans-serif;">Spleen</text><text transform="translate(265,258)rotate(-70)" style="text-anchor: end; font-size: 11px; font-family: sans-serif;">Stomach</text><text transform="translate(70,258)rotate(-70)" style="text-anchor: end; font-size: 11px; font-family: sans-serif;">Testis</text><text transform="translate(310,258)rotate(-70)" style="text-anchor: end; font-size: 11px; font-family: sans-serif;">Thyroid</text><text transform="translate(100,258)rotate(-70)" style="text-anchor: end; font-size: 11px; font-family: sans-serif;">Uterus</text><text transform="translate(370,258)rotate(-70)" style="text-anchor: end; font-size: 11px; font-family: sans-serif;">Vagina</text><text transform="translate(775,258)rotate(-70)" style="text-anchor: end; font-size: 11px; font-family: sans-serif;">Whole_Blood</text></g><line x1="0" x2="810" y1="50.09201172276792" y2="50.09201172276792" style="stroke: black; stroke-dasharray: 3, 3;"></line><g class="y axis"><g class="tick" transform="translate(0,250)" style="opacity: 1;"><line x2="-6" y2="0" style="fill: none; stroke: grey;"></line><text dy=".32em" x="-9" y="0" style="text-anchor: end; font-size: 11px; font-family: sans-serif;">0.0</text></g><g class="tick" transform="translate(0,217.04911604987066)" style="opacity: 1;"><line x2="-6" y2="0" style="fill: none; stroke: grey;"></line><text dy=".32em" x="-9" y="0" style="text-anchor: end; font-size: 11px; font-family: sans-serif;">0.5</text></g><g class="tick" transform="translate(0,184.0982320997413)" style="opacity: 1;"><line x2="-6" y2="0" style="fill: none; stroke: grey;"></line><text dy=".32em" x="-9" y="0" style="text-anchor: end; font-size: 11px; font-family: sans-serif;">1.0</text></g><g class="tick" transform="translate(0,151.14734814961196)" style="opacity: 1;"><line x2="-6" y2="0" style="fill: none; stroke: grey;"></line><text dy=".32em" x="-9" y="0" style="text-anchor: end; font-size: 11px; font-family: sans-serif;">1.5</text></g><g class="tick" transform="translate(0,118.19646419948259)" style="opacity: 1;"><line x2="-6" y2="0" style="fill: none; stroke: grey;"></line><text dy=".32em" x="-9" y="0" style="text-anchor: end; font-size: 11px; font-family: sans-serif;">2.0</text></g><g class="tick" transform="translate(0,85.24558024935325)" style="opacity: 1;"><line x2="-6" y2="0" style="fill: none; stroke: grey;"></line><text dy=".32em" x="-9" y="0" style="text-anchor: end; font-size: 11px; font-family: sans-serif;">2.5</text></g><g class="tick" transform="translate(0,52.2946962992239)" style="opacity: 1;"><line x2="-6" y2="0" style="fill: none; stroke: grey;"></line><text dy=".32em" x="-9" y="0" style="text-anchor: end; font-size: 11px; font-family: sans-serif;">3.0</text></g><g class="tick" transform="translate(0,19.34381234909452)" style="opacity: 1;"><line x2="-6" y2="0" style="fill: none; stroke: grey;"></line><text dy=".32em" x="-9" y="0" style="text-anchor: end; font-size: 11px; font-family: sans-serif;">3.5</text></g><path class="domain" d="M-6,0H0V250H-6" style="fill: none; stroke: grey;"></path></g><g class="x axis" transform="translate(0,250)"><g class="tick" transform="translate(7.5,0)" style="opacity: 1;"><line y2="6" x2="0" style="fill: none; stroke: grey;"></line></g><g class="tick" transform="translate(22.5,0)" style="opacity: 1;"><line y2="6" x2="0" style="fill: none; stroke: grey;"></line></g><g class="tick" transform="translate(37.5,0)" style="opacity: 1;"><line y2="6" x2="0" style="fill: none; stroke: grey;"></line></g><g class="tick" transform="translate(52.5,0)" style="opacity: 1;"><line y2="6" x2="0" style="fill: none; stroke: grey;"></line></g><g class="tick" transform="translate(67.5,0)" style="opacity: 1;"><line y2="6" x2="0" style="fill: none; stroke: grey;"></line></g><g class="tick" transform="translate(82.5,0)" style="opacity: 1;"><line y2="6" x2="0" style="fill: none; stroke: grey;"></line></g><g class="tick" transform="translate(97.5,0)" style="opacity: 1;"><line y2="6" x2="0" style="fill: none; stroke: grey;"></line></g><g class="tick" transform="translate(112.5,0)" style="opacity: 1;"><line y2="6" x2="0" style="fill: none; stroke: grey;"></line></g><g class="tick" transform="translate(127.5,0)" style="opacity: 1;"><line y2="6" x2="0" style="fill: none; stroke: grey;"></line></g><g class="tick" transform="translate(142.5,0)" style="opacity: 1;"><line y2="6" x2="0" style="fill: none; stroke: grey;"></line></g><g class="tick" transform="translate(157.5,0)" style="opacity: 1;"><line y2="6" x2="0" style="fill: none; stroke: grey;"></line></g><g class="tick" transform="translate(172.5,0)" style="opacity: 1;"><line y2="6" x2="0" style="fill: none; stroke: grey;"></line></g><g class="tick" transform="translate(187.5,0)" style="opacity: 1;"><line y2="6" x2="0" style="fill: none; stroke: grey;"></line></g><g class="tick" transform="translate(202.5,0)" style="opacity: 1;"><line y2="6" x2="0" style="fill: none; stroke: grey;"></line></g><g class="tick" transform="translate(217.5,0)" style="opacity: 1;"><line y2="6" x2="0" style="fill: none; stroke: grey;"></line></g><g class="tick" transform="translate(232.5,0)" style="opacity: 1;"><line y2="6" x2="0" style="fill: none; stroke: grey;"></line></g><g class="tick" transform="translate(247.5,0)" style="opacity: 1;"><line y2="6" x2="0" style="fill: none; stroke: grey;"></line></g><g class="tick" transform="translate(262.5,0)" style="opacity: 1;"><line y2="6" x2="0" style="fill: none; stroke: grey;"></line></g><g class="tick" transform="translate(277.5,0)" style="opacity: 1;"><line y2="6" x2="0" style="fill: none; stroke: grey;"></line></g><g class="tick" transform="translate(292.5,0)" style="opacity: 1;"><line y2="6" x2="0" style="fill: none; stroke: grey;"></line></g><g class="tick" transform="translate(307.5,0)" style="opacity: 1;"><line y2="6" x2="0" style="fill: none; stroke: grey;"></line></g><g class="tick" transform="translate(322.5,0)" style="opacity: 1;"><line y2="6" x2="0" style="fill: none; stroke: grey;"></line></g><g class="tick" transform="translate(337.5,0)" style="opacity: 1;"><line y2="6" x2="0" style="fill: none; stroke: grey;"></line></g><g class="tick" transform="translate(352.5,0)" style="opacity: 1;"><line y2="6" x2="0" style="fill: none; stroke: grey;"></line></g><g class="tick" transform="translate(367.5,0)" style="opacity: 1;"><line y2="6" x2="0" style="fill: none; stroke: grey;"></line></g><g class="tick" transform="translate(382.5,0)" style="opacity: 1;"><line y2="6" x2="0" style="fill: none; stroke: grey;"></line></g><g class="tick" transform="translate(397.5,0)" style="opacity: 1;"><line y2="6" x2="0" style="fill: none; stroke: grey;"></line></g><g class="tick" transform="translate(412.5,0)" style="opacity: 1;"><line y2="6" x2="0" style="fill: none; stroke: grey;"></line></g><g class="tick" transform="translate(427.5,0)" style="opacity: 1;"><line y2="6" x2="0" style="fill: none; stroke: grey;"></line></g><g class="tick" transform="translate(442.5,0)" style="opacity: 1;"><line y2="6" x2="0" style="fill: none; stroke: grey;"></line></g><g class="tick" transform="translate(457.5,0)" style="opacity: 1;"><line y2="6" x2="0" style="fill: none; stroke: grey;"></line></g><g class="tick" transform="translate(472.5,0)" style="opacity: 1;"><line y2="6" x2="0" style="fill: none; stroke: grey;"></line></g><g class="tick" transform="translate(487.5,0)" style="opacity: 1;"><line y2="6" x2="0" style="fill: none; stroke: grey;"></line></g><g class="tick" transform="translate(502.5,0)" style="opacity: 1;"><line y2="6" x2="0" style="fill: none; stroke: grey;"></line></g><g class="tick" transform="translate(517.5,0)" style="opacity: 1;"><line y2="6" x2="0" style="fill: none; stroke: grey;"></line></g><g class="tick" transform="translate(532.5,0)" style="opacity: 1;"><line y2="6" x2="0" style="fill: none; stroke: grey;"></line></g><g class="tick" transform="translate(547.5,0)" style="opacity: 1;"><line y2="6" x2="0" style="fill: none; stroke: grey;"></line></g><g class="tick" transform="translate(562.5,0)" style="opacity: 1;"><line y2="6" x2="0" style="fill: none; stroke: grey;"></line></g><g class="tick" transform="translate(577.5,0)" style="opacity: 1;"><line y2="6" x2="0" style="fill: none; stroke: grey;"></line></g><g class="tick" transform="translate(592.5,0)" style="opacity: 1;"><line y2="6" x2="0" style="fill: none; stroke: grey;"></line></g><g class="tick" transform="translate(607.5,0)" style="opacity: 1;"><line y2="6" x2="0" style="fill: none; stroke: grey;"></line></g><g class="tick" transform="translate(622.5,0)" style="opacity: 1;"><line y2="6" x2="0" style="fill: none; stroke: grey;"></line></g><g class="tick" transform="translate(637.5,0)" style="opacity: 1;"><line y2="6" x2="0" style="fill: none; stroke: grey;"></line></g><g class="tick" transform="translate(652.5,0)" style="opacity: 1;"><line y2="6" x2="0" style="fill: none; stroke: grey;"></line></g><g class="tick" transform="translate(667.5,0)" style="opacity: 1;"><line y2="6" x2="0" style="fill: none; stroke: grey;"></line></g><g class="tick" transform="translate(682.5,0)" style="opacity: 1;"><line y2="6" x2="0" style="fill: none; stroke: grey;"></line></g><g class="tick" transform="translate(697.5,0)" style="opacity: 1;"><line y2="6" x2="0" style="fill: none; stroke: grey;"></line></g><g class="tick" transform="translate(712.5,0)" style="opacity: 1;"><line y2="6" x2="0" style="fill: none; stroke: grey;"></line></g><g class="tick" transform="translate(727.5,0)" style="opacity: 1;"><line y2="6" x2="0" style="fill: none; stroke: grey;"></line></g><g class="tick" transform="translate(742.5,0)" style="opacity: 1;"><line y2="6" x2="0" style="fill: none; stroke: grey;"></line></g><g class="tick" transform="translate(757.5,0)" style="opacity: 1;"><line y2="6" x2="0" style="fill: none; stroke: grey;"></line></g><g class="tick" transform="translate(772.5,0)" style="opacity: 1;"><line y2="6" x2="0" style="fill: none; stroke: grey;"></line></g><g class="tick" transform="translate(787.5,0)" style="opacity: 1;"><line y2="6" x2="0" style="fill: none; stroke: grey;"></line></g><g class="tick" transform="translate(802.5,0)" style="opacity: 1;"><line y2="6" x2="0" style="fill: none; stroke: grey;"></line></g><path class="domain" d="M0,6V0H810V6" style="fill: none; stroke: grey;"></path></g><text text-anchor="middle" transform="translate(-55,125)rotate(-90)" style="font-family: sans-serif;">-log 10 P-value</text></g></svg>